<svg width="22" height="23" viewBox="0 0 22 23" fill="none" xmlns="http://www.w3.org/2000/svg">
<path d="M5.1001 22.8L6.1001 17L10.0001 15.6H12.1001L16.1001 17L17.1001 22.8H5.1001Z" fill="white"/>
<path d="M12.1001 15.8L15.9 17.2L16.9 22.6H5.30005L6.30005 17.2L10.1001 15.8H12.1001Z" fill="white"/>
<path d="M10.3 19.6L9.80005 17.1H12.4L11.9 19.6H10.3Z" fill="#FCAF17"/>
<path d="M11.7001 19.4H10.5001L10.1001 17.4H12.1001L11.7001 19.4Z" fill="#FCAF17"/>
<path d="M9.5 22.8L10.3 19.2H11.9L12.7 22.8H9.5Z" fill="#FCAF17"/>
<path d="M11.7 19.4H10.5L9.80005 22.6H12.4L11.7 19.4Z" fill="#FCAF17"/>
<path d="M8.60005 16.2L9.90004 14.9V14.5C9.00004 14.1 8.30005 13.2 8.10005 12.2C7.60005 12.1 7.30005 11.8 7.30005 11.3C7.30005 10.9 7.60005 10.5 8.00005 10.4V8.60004H14V10.4C14.4 10.5 14.7 10.8 14.7 11.3C14.7 11.7 14.4 12.1 14 12.2C13.8 13.2 13.2 14.1 12.2 14.5V14.9L13.5 16.2L12.7 19L11 17.6L9.30005 19L8.60005 16.2Z" fill="white"/>
<path d="M13.9 10.6V8.80002H8.3V10.6C8.3 10.6 8.3 10.6 8.2 10.6C7.8 10.6 7.5 10.9 7.5 11.3C7.5 11.7 7.8 12 8.2 12C8.2 12 8.2 12 8.3 12C8.4 13.1 9.10001 14 10.1 14.3V15.4L9.89999 15.1L8.8 16.2L9.39999 18.6L10.9 17.3H11.1L12.6 18.6L13.2 16.2L12.1 15.1L11.9 15.4V14.3C12.9 13.9 13.6 13.1 13.7 12C14.1 12 14.4 11.7 14.4 11.3C14.4 10.9 14.3 10.6 13.9 10.6Z" fill="white"/>
<path d="M13.6999 10.8C13.4999 10.2 13.0999 9.30002 12.7999 9.00002C12.5999 9.30002 12.0999 9.80002 11.1999 9.80002C11.0999 9.80002 11.0999 9.80002 10.9999 9.80002C10.9999 9.80002 10.7999 9.80002 10.4999 9.80002C9.69994 9.80002 8.39994 9.90002 8.39994 10.8L7.99994 10.9C7.99994 10.8 7.19994 9.00002 7.89994 7.60002C8.29994 6.80002 9.09994 6.40001 10.1999 6.20001C10.1999 6.20001 10.3999 6.20001 10.6999 6.20001C11.3999 6.20001 12.6999 6.30002 13.1999 7.30002C13.4999 7.40002 14.2999 7.70002 14.5999 8.50002C14.8999 9.20002 14.6999 10 14.0999 11L13.8999 11.4L13.6999 10.8Z" fill="white"/>
<path d="M12.7001 8.80001C12.7001 8.80001 12.1001 9.70002 11.0001 9.60002C11.0001 9.60002 8.20015 9.30001 8.20015 10.8C8.20015 10.8 6.50015 7 10.2001 6.4C10.2001 6.4 12.5001 6.1 13.0001 7.4C13.0001 7.4 15.6001 8.00001 13.9001 10.8C13.9001 10.8 13.3001 9.00001 12.7001 8.80001Z" fill="white"/>
<path d="M5.1001 22.8L6.1001 17L9.00009 16L9.1001 20.3L11.1001 21.8L13.1001 20.3L13.2001 16L16.1001 17L17.1001 22.8H5.1001Z" fill="white"/>
<path d="M16.9 22.6H5.30005L6.30005 17.2L8.80005 16.3L8.90004 20.4L11.1001 22.1L13.3 20.4L13.4 16.3L15.9 17.2L16.9 22.6Z" fill="white"/>
<path d="M9.1001 3.40002H10.1001V5.20003H9.1001V3.40002Z" fill="#FCAF17"/>
<path d="M10.6001 2.70001H11.6001V5.20001H10.6001V2.70001Z" fill="#FCAF17"/>
<path d="M12 1.80002H13V5.20001H12V1.80002Z" fill="#FCAF17"/>
<path d="M3.1001 14.1C1.7001 14.1 0.600098 13 0.600098 11.6C0.600098 10.2 1.7001 9.10004 3.1001 9.10004C4.5001 9.10004 5.6001 10.2 5.6001 11.6C5.7001 12.9 4.5001 14.1 3.1001 14.1Z" fill="#FCAF17"/>
<path d="M5.50015 11.6C5.50015 12.9 4.50015 13.9 3.20015 13.9C1.90015 13.9 0.900146 12.9 0.900146 11.6C0.900146 10.3 1.90015 9.30003 3.20015 9.30003C4.40015 9.20003 5.50015 10.3 5.50015 11.6Z" fill="#FCAF17"/>
<path d="M19 14.1C20.3807 14.1 21.5 12.9807 21.5 11.6C21.5 10.2193 20.3807 9.10004 19 9.10004C17.6193 9.10004 16.5 10.2193 16.5 11.6C16.5 12.9807 17.6193 14.1 19 14.1Z" fill="#FCAF17"/>
<path d="M21.3 11.6C21.3 12.9 20.3 13.9 19 13.9C17.7 13.9 16.7 12.9 16.7 11.6C16.7 10.3 17.7 9.30003 19 9.30003C20.3 9.20003 21.3 10.3 21.3 11.6Z" fill="#FCAF17"/>
<path d="M3.19995 8.70001L3.29996 8.50002C4.09996 6.40002 5.89995 4.70002 7.99995 3.80002L8.19995 3.70001L8.49995 4.50002L8.29996 4.60002C6.39996 5.40002 4.89996 6.90002 4.09996 8.80002L3.99995 9.00002L3.19995 8.70001Z" fill="#717171"/>
<path d="M8.20015 4.39999L8.00015 4C5.90015 4.8 4.30015 6.50001 3.40015 8.60001L3.80016 8.8C4.70016 6.8 6.30015 5.19999 8.20015 4.39999Z" fill="#717171"/>
<path d="M4.79996 23L5.69995 18C4.59995 17.1 3.79996 16 3.29996 14.7L3.19995 14.5L3.99995 14.2L4.09996 14.4C4.49996 15.4 5.09995 16.3 5.89995 17V16.8L8.59996 15.8L9.69995 14.6V14.4C8.79995 14 8.19995 13.2 7.99995 12.2C7.49995 12.1 7.19995 11.6 7.19995 11.1C7.19995 10.7 7.39995 10.3 7.69995 10.1C7.49995 9.40004 7.29996 8.20003 7.79996 7.20003C8.19996 6.40003 8.99995 5.80004 10.2 5.60004C10.3 5.60004 10.5 5.60004 10.7 5.60004C11.5 5.60004 12.8 5.70003 13.3 6.70003C13.7 6.80003 14.4 7.20003 14.8 8.00003C15.1 8.60003 15 9.30004 14.6 10.1C14.9 10.3 15 10.6 15 11C15 11.5 14.7 11.9 14.2 12.1C14 13.1 13.4 13.9 12.5 14.3V14.5L13.7 15.7L14 15.8L16.3 16.6V16.8C17.1 16.1 17.7 15.2 18.1 14.2L18.2 14L19 14.3L18.8999 14.5C18.3999 15.8 17.6 16.9 16.5 17.8L17.3999 22.8H4.79996V23ZM16.3999 22.2L15.5 17.5L13.8 16.9L13.7 20.6L13.6 20.7L11.7 22.2H16.3999ZM10.5 22.2L8.49995 20.6L8.39995 16.9L6.69995 17.5L5.79996 22.2H10.5ZM11.1 21.5L11.6 21.1L11.3999 20C11.2999 20 11.2 20 11.1 20C11 20 10.9 20 10.8 20L10.6 21.1L11.1 21.5ZM12.1 19.3L12.2 19.7L12.3999 20.5L12.8 20.2V19.3L12.2 18.8L12.1 19.3ZM9.79996 20.5L10.1 19.3L9.99995 18.8L9.39995 19.3V20.2L9.79996 20.5ZM11.3 18.9L11.5 18.1L11.1 17.8L10.7 18.1L10.8999 18.9H11.3ZM9.69995 17.8L10.5 17.1L9.79996 15.8L9.29996 16.3L9.69995 17.8ZM12.5 17.8L12.8999 16.3L12.3999 15.8L11.7 17.1L12.5 17.8ZM11.1 16.3L11.7 15.3V14.8C11.5 14.8 11.4 14.8 11.2 14.8H11C10.8 14.8 10.7 14.8 10.5 14.8V15.3L11.1 16.3ZM10.6 10C9.79996 10 9.19995 10.1 8.89995 10.4L8.79996 10.5V10.6V11.6C8.79996 11.7 8.79996 11.9 8.79996 12C8.89996 12.7 9.39995 13.3 9.99995 13.6C10.1 13.7 10.2999 13.7 10.3999 13.8C10.5999 13.9 10.8 13.9 11.1 13.9H11.2C11.4 13.9 11.5999 13.9 11.8999 13.8C12.0999 13.8 12.2 13.7 12.3 13.6C12.9 13.3 13.4 12.7 13.5 12C13.5 11.9 13.5 11.7 13.5 11.6V10.7C13.5 10.7 13.3999 10.5 13.3999 10.4C13.1999 9.90002 13 9.50003 12.8 9.30003C12.5 9.60003 12 10 11.2 10C11.1 10 11.1 10 11 10C10.9 10 10.7 10 10.6 10ZM12.8999 8.40002C13.0999 8.50002 13.3 8.70002 13.5 8.90002C13.6 9.10002 13.6999 9.30003 13.8999 9.50003C13.8999 9.60003 14 9.60003 14 9.70003C14.1 9.30003 14.2 8.90004 14 8.60004C13.7 8.00004 12.9999 7.80003 12.8999 7.80003L12.7 7.70003L12.6 7.50003C12.3 6.80003 11.2 6.70003 10.7 6.70003C10.5 6.70003 10.3 6.70003 10.3 6.70003C9.39996 6.90003 8.79995 7.20003 8.49995 7.80003C8.39995 8.00003 8.29996 8.20003 8.29996 8.50003C8.29996 8.90003 8.29995 9.30004 8.39995 9.60004C8.99995 9.20004 9.89996 9.10004 10.6 9.10004C10.9 9.10004 11.1 9.10004 11.2 9.10004H11.3C11.6 9.10004 11.9 9.00003 12.1 8.80003C12.3 8.60003 12.3999 8.50003 12.3999 8.50003L12.5 8.30003H12.7L12.8999 8.40002Z" fill="#717171"/>
<path d="M18.7 14.6L18.3 14.4C17.8 15.5 17.1 16.5 16.2 17.3L16.1 16.9L13.8999 16.1L13.6 16L12.3999 14.7V14.3C13.2999 13.9 14 13.1 14.2 12.1C14.6 12 14.8999 11.6 14.8999 11.2C14.8999 10.9 14.6999 10.5 14.3999 10.4C14.7999 9.60002 14.9 8.90003 14.7 8.30003C14.4 7.50003 13.6 7.20003 13.3 7.10003C12.7 5.80003 10.4 6.00002 10.3 6.00002C9.19996 6.20002 8.39995 6.70002 7.99995 7.50002C7.49995 8.50002 7.69995 9.70002 7.99995 10.4C7.69995 10.5 7.39995 10.9 7.39995 11.3C7.39995 11.8 7.69995 12.1 8.19995 12.2C8.39995 13.2 9.09995 14 9.99995 14.4V14.8L8.79996 16.1L8.49995 16.2L6.29996 17L6.19995 17.4C5.29995 16.6 4.59996 15.6 4.09996 14.4L3.69995 14.6C4.19995 15.9 5.09996 17 6.09996 17.9V18L5.19995 22.8H17.3999L16.5 17.9C17.4 17.1 18.2 15.9 18.7 14.6ZM13 19.1V19.6V20.3L12.2 20.9L12 19.8L11.8999 19.4V19.3L12.1 18.4L12.8 19L13 18.2V19.1ZM10.6 19.8C10.7 19.8 10.9 19.8 11.1 19.8C11.3 19.8 11.4 19.8 11.6 19.8L11.8999 21.2L11.1 21.8L10.3 21.2L10.6 19.8ZM11.1 17.6L11.8 18.1L11.6 19.2H10.8L10.6 18.1L11.1 17.6ZM10.2 19.3L10.1 19.8L9.89995 20.9L9.09996 20.3V19.6V19.1V18.2L9.29996 19L9.99995 18.4L10.2 19.3ZM12.6 15.7L13.1 16.3V16.4L12.6 18.2L12.2 17.9L11.8 17.6L11.3 17.2V17.1L11.7 16.3L11.8 16L12 15.6L12.1 15.5L12.6 15.7ZM14.3999 11.3C14.3999 11.5 14.3 11.6 14.2 11.7V10.9C14.3 11 14.3999 11.1 14.3999 11.3ZM8.29996 7.80003C8.59996 7.20003 9.29996 6.80003 10.3 6.60003C10.4 6.60003 12.4 6.40002 12.8 7.50002V7.60003H12.8999C12.8999 7.60003 13.8 7.80002 14.1 8.50002C14.2 8.80002 14.2 9.30002 14.1 9.70002C14.1 9.80002 13.9999 10 13.8999 10.2C13.7999 10 13.7 9.80003 13.6 9.60003C13.5 9.40003 13.4 9.20002 13.3 9.00002C13.1 8.80002 13 8.60002 12.8 8.50002L12.6 8.40002V8.50002L12.5 8.60003C12.5 8.60003 12.4 8.80002 12.1 9.00002C11.9 9.20002 11.5 9.40003 11 9.30003C10.9 9.30003 9.29995 9.10003 8.39995 9.80003L8.29996 9.90002C8.19996 9.90002 8.19995 10 8.19995 10.1C8.09995 9.70003 7.99996 9.10003 8.09996 8.60003C8.09996 8.30003 8.19996 8.00003 8.29996 7.80003ZM7.79996 11.3C7.79996 11.1 7.89996 11 8.09996 10.9V11.7C7.89996 11.6 7.79996 11.5 7.79996 11.3ZM8.49995 12.1C8.49995 12 8.49995 11.8 8.49995 11.6V10.5C8.49995 10.4 8.49996 10.4 8.59996 10.3C8.59996 10.2 8.69995 10.2 8.69995 10.1C9.19995 9.60003 10.6 9.60002 11 9.70002C11.9 9.80002 12.5 9.20002 12.7 9.00002C13 9.20002 13.3 9.80002 13.5 10.4C13.6 10.5 13.6 10.7 13.6 10.8V11.7C13.6 11.9 13.6 12 13.6 12.2C13.5 13 13 13.6 12.3 14C12.2 14.1 12 14.1 11.8 14.2C11.6 14.3 11.3 14.3 11.1 14.3H11C10.8 14.3 10.5 14.3 10.3 14.2C10.1 14.2 9.99996 14.1 9.79996 14C9.19996 13.6 8.69995 12.9 8.49995 12.1ZM11 14.7H11.1C11.3 14.7 11.6 14.7 11.8 14.6V15.3L11.7 15.5L11.3999 16L11 16.7L10.6 16L10.3 15.5L10.2 15.3V14.6C10.5 14.6 10.8 14.7 11 14.7ZM9.79996 15.5L9.89995 15.6L10.1 16L10.2 16.3L10.6 17.1V17.2L10.1 17.6L9.69995 17.9L9.29996 18.2L8.79996 16.4V16.3L9.29996 15.7L9.79996 15.5ZM6.29996 18.3L6.39995 17.8L6.49995 17.4L8.59996 16.6L8.69995 19V19.5V20.5L9.79996 21.4L10.2 21.7L11 22.4H5.49995L6.29996 18.3ZM16.6 22.4H11.1L11.8999 21.7L12.3 21.4L13.3999 20.5V19.5V19L13.5 16.6L15.6 17.4L15.7 17.8L15.8 18.3L16.6 22.4Z" fill="#717171"/>
<path d="M18.1 8.80002C17.3 6.90002 15.7999 5.40002 13.8999 4.60002L13.7 4.50002L14 3.70001L14.2 3.80002C16.3 4.60002 17.9999 6.40002 18.8999 8.50002L19 8.70001L18.2 9.00002L18.1 8.80002Z" fill="#717171"/>
<path d="M18.3002 8.70003L18.7001 8.50003C17.9001 6.40003 16.2002 4.80002 14.1002 3.90002L13.9001 4.30003C15.9001 5.20003 17.5002 6.80003 18.3002 8.70003Z" fill="#717171"/>
<path d="M15.5 20.8H13.2V21.7H15.5V20.8Z" fill="#717171"/>
<path d="M13.4001 21H15.3002V21.5H13.4001V21Z" fill="#717171"/>
<path d="M3.10005 14.3C1.60005 14.3 0.300049 13.1 0.300049 11.5C0.300049 10 1.50005 8.70001 3.10005 8.70001C4.70005 8.70001 5.90004 9.90002 5.90004 11.5C5.90004 13.1 4.70005 14.3 3.10005 14.3ZM3.10005 9.70001C2.10005 9.70001 1.20004 10.5 1.20004 11.6C1.20004 12.6 2.00005 13.5 3.10005 13.5C4.20005 13.5 5.00005 12.7 5.00005 11.6C5.00005 10.5 4.20005 9.70001 3.10005 9.70001Z" fill="#717171"/>
<path d="M5.7 11.6C5.7 10.2 4.60001 9 3.10001 9C1.70001 9 0.5 10.1 0.5 11.6C0.5 13 1.60001 14.2 3.10001 14.2C4.50001 14.1 5.7 13 5.7 11.6ZM3.10001 13.6C2.00001 13.6 1 12.7 1 11.5C1 10.4 1.90001 9.39999 3.10001 9.39999C4.20001 9.39999 5.2 10.3 5.2 11.5C5.2 12.7 4.30001 13.6 3.10001 13.6Z" fill="#717171"/>
<path d="M19 14.3C17.5 14.3 16.2 13.1 16.2 11.5C16.2 10 17.4 8.70001 19 8.70001C20.6 8.70001 21.8 9.90002 21.8 11.5C21.8 13.1 20.5 14.3 19 14.3ZM19 9.70001C18 9.70001 17.1 10.5 17.1 11.6C17.1 12.6 17.9 13.5 19 13.5C20 13.5 20.8999 12.7 20.8999 11.6C20.8999 10.5 20.1 9.70001 19 9.70001Z" fill="#717171"/>
<path d="M19.0002 9C17.6002 9 16.4001 10.1 16.4001 11.6C16.4001 13 17.5002 14.2 19.0002 14.2C20.4002 14.2 21.6002 13.1 21.6002 11.6C21.6002 10.1 20.4002 9 19.0002 9ZM19.0002 13.6C17.9002 13.6 16.9001 12.7 16.9001 11.5C16.9001 10.4 17.8002 9.39999 19.0002 9.39999C20.1002 9.39999 21.1002 10.3 21.1002 11.5C21.1002 12.7 20.2002 13.6 19.0002 13.6Z" fill="#717171"/>
<path d="M2.2 10.2H4C3.9 10.4 3.8 10.5 3.8 10.5H3.3C3.4 10.6 3.39999 10.7 3.39999 10.8H3.89999C3.79999 11 3.7 11.1 3.7 11.1H3.39999C3.39999 11.2 3.3 11.3 3.3 11.4C3.2 11.5 3.1 11.6 3 11.6C2.8 11.7 2.7 11.7 2.5 11.7C2.5 11.7 2.90001 12.1 3.60001 13H3.10001C2.40001 12.2 2 11.7 2 11.7V11.4C2.1 11.4 2.1 11.4 2.2 11.4C2.6 11.4 2.89999 11.3 2.89999 11V10.9H2C2.1 10.7 2.2 10.6 2.2 10.6H3.10001C3.10001 10.5 3 10.4 2.8 10.4C2.7 10.4 2.6 10.4 2.5 10.4H2C2.1 10.3 2.2 10.2 2.2 10.2Z" fill="#717171"/>
<path d="M18.8 11.6L17.8 12.3L18.1001 12.7L19.3 11.9V10H18.8V11.6Z" fill="#717171"/>
<path d="M10.8999 1.90001H11.6L12.7 0.900009V1.40001H13.2V0.200012H12V0.700012H12.3999L11.5 1.50002H10.8L10.1 2.20001H9.19995V2.70001H10.3L10.8999 1.90001Z" fill="#717171"/>
</svg>
