<svg width="42" height="42" viewBox="0 0 42 42" fill="none" xmlns="http://www.w3.org/2000/svg">
<path d="M21.0003 40.5C10.2307 40.5 1.50026 31.7695 1.50026 21C1.50026 10.2304 10.2307 1.49997 21.0003 1.49997C31.7698 1.49997 40.5003 10.2304 40.5003 21C40.5003 31.7695 31.7698 40.5 21.0003 40.5Z" fill="#D1596B" stroke="#D1596B"/>
<path opacity="0.01" fill-rule="evenodd" clip-rule="evenodd" d="M0.999756 40.9998V0.99982H40.9998V40.9998H0.999756Z" fill="white" stroke="white" stroke-width="0.1"/>
<path fill-rule="evenodd" clip-rule="evenodd" d="M30.0779 31.9074C27.5142 34.0832 24.2598 35.2751 20.8974 35.2698C17.5487 35.2708 14.3091 34.0801 11.7581 31.9108L31.7108 11.9581C36.7687 17.9179 36.0377 26.8495 30.0779 31.9074H30.0779ZM11.7168 10.2969C14.2804 8.12117 17.5349 6.92923 20.8973 6.93456C24.2459 6.93352 27.4856 8.12421 30.0366 10.2935L10.0839 30.2462C5.02595 24.2864 5.75702 15.3548 11.7168 10.2969H11.7168ZM20.8973 4.57324C11.7686 4.57324 4.36841 11.9735 4.36841 21.1021C4.36841 30.2308 11.7686 37.631 20.8973 37.631C30.0259 37.631 37.4262 30.2308 37.4262 21.1021C37.4165 11.9776 30.0219 4.583 20.8973 4.57324Z" fill="white"/>
<path d="M30.0779 31.9074V31.7574H30.0228L29.9808 31.7931L30.0779 31.9074ZM20.8974 35.2698L20.8976 35.1198H20.8973L20.8974 35.2698ZM11.7581 31.9108L11.652 31.8048L11.537 31.9198L11.6609 32.0251L11.7581 31.9108ZM31.7108 11.9581L31.8252 11.861L31.7199 11.7369L31.6048 11.852L31.7108 11.9581ZM30.0779 31.9074V32.0574H30.133L30.175 32.0218L30.0779 31.9074ZM11.7168 10.2969V10.4469H11.7718L11.8138 10.4112L11.7168 10.2969ZM20.8973 6.93456L20.8971 7.08456H20.8973L20.8973 6.93456ZM30.0366 10.2935L30.1427 10.3996L30.2577 10.2846L30.1338 10.1792L30.0366 10.2935ZM10.0839 30.2462L9.96952 30.3433L10.0749 30.4674L10.19 30.3523L10.0839 30.2462ZM11.7168 10.2969V10.1469H11.6617L11.6197 10.1825L11.7168 10.2969ZM20.8973 4.57324L20.8975 4.42324H20.8973V4.57324ZM37.4262 21.1021H37.5762V21.102L37.4262 21.1021ZM29.9808 31.7931C27.4443 33.9457 24.2244 35.125 20.8976 35.1198L20.8971 35.4198C24.2952 35.4251 27.5841 34.2206 30.175 32.0218L29.9808 31.7931ZM20.8973 35.1198C17.5843 35.1208 14.3791 33.9428 11.8552 31.7966L11.6609 32.0251C14.239 34.2175 17.5132 35.4208 20.8974 35.4198L20.8973 35.1198ZM11.8641 32.0169L31.8169 12.0641L31.6048 11.852L11.652 31.8048L11.8641 32.0169ZM31.5965 12.0551C36.6008 17.9518 35.8774 26.7887 29.9808 31.7931L30.175 32.0218C36.1979 26.9103 36.9367 17.884 31.8252 11.861L31.5965 12.0551ZM30.0779 31.7574H30.0779V32.0574H30.0779V31.7574ZM11.8138 10.4112C14.3503 8.2586 17.5703 7.07929 20.8971 7.08456L20.8975 6.78456C17.4995 6.77918 14.2105 7.98375 11.6197 10.1825L11.8138 10.4112ZM20.8973 7.08456C24.2103 7.08353 27.4156 8.26156 29.9394 10.4078L30.1338 10.1792C27.5556 7.98687 24.2815 6.78351 20.8973 6.78456L20.8973 7.08456ZM29.9305 10.1874L9.97782 30.1401L10.19 30.3523L30.1427 10.3996L29.9305 10.1874ZM10.1983 30.1491C5.19392 24.2525 5.91724 15.4156 11.8138 10.4112L11.6197 10.1825C5.5968 15.2941 4.85798 24.3203 9.96952 30.3433L10.1983 30.1491ZM11.7168 10.4469H11.7168V10.1469H11.7168V10.4469ZM20.8973 4.42324C11.6858 4.42324 4.21841 11.8906 4.21841 21.1021H4.51841C4.51841 12.0563 11.8515 4.72324 20.8973 4.72324V4.42324ZM4.21841 21.1021C4.21841 30.3136 11.6858 37.781 20.8973 37.781V37.481C11.8515 37.481 4.51841 30.1479 4.51841 21.1021H4.21841ZM20.8973 37.781C30.1088 37.781 37.5762 30.3136 37.5762 21.1021H37.2762C37.2762 30.1479 29.9431 37.481 20.8973 37.481V37.781ZM37.5762 21.102C37.5664 11.8947 30.1048 4.43309 20.8975 4.42324L20.8971 4.72324C29.9391 4.73291 37.2666 12.0604 37.2762 21.1023L37.5762 21.102Z" fill="white"/>
</svg>
