<svg width="24" height="24" viewBox="0 0 24 24" fill="none" xmlns="http://www.w3.org/2000/svg">
<path d="M19.875 20V20.125H20H21C21.2321 20.125 21.4546 20.2172 21.6187 20.3813C21.7828 20.5454 21.875 20.7679 21.875 21C21.875 21.2321 21.7828 21.4546 21.6187 21.6187C21.4546 21.7828 21.2321 21.875 21 21.875H3C2.76794 21.875 2.54538 21.7828 2.38128 21.6187C2.21719 21.4546 2.125 21.2321 2.125 21C2.125 20.7679 2.21719 20.5454 2.38128 20.3813C2.54538 20.2172 2.76794 20.125 3 20.125H4H4.125V20V3C4.125 2.76794 4.21719 2.54538 4.38128 2.38128C4.54538 2.21719 4.76794 2.125 5 2.125H19C19.2321 2.125 19.4546 2.21719 19.6187 2.38128C19.7828 2.54538 19.875 2.76794 19.875 3V20ZM13 20.125H13.125V20V16V15.875H13H11H10.875V16V20V20.125H11H13ZM18 20.125H18.125V20V4V3.875H18H6H5.875V4V20V20.125H6H9H9.125V20V15C9.125 14.7679 9.21719 14.5454 9.38128 14.3813C9.54538 14.2172 9.76794 14.125 10 14.125H14C14.2321 14.125 14.4546 14.2172 14.6187 14.3813C14.7828 14.5454 14.875 14.7679 14.875 15V20V20.125H15H18ZM15 7.875H14C13.7679 7.875 13.5454 7.78281 13.3813 7.61872C13.2172 7.45462 13.125 7.23206 13.125 7C13.125 6.76794 13.2172 6.54538 13.3813 6.38128C13.5454 6.21719 13.7679 6.125 14 6.125H15C15.2321 6.125 15.4546 6.21719 15.6187 6.38128C15.7828 6.54538 15.875 6.76794 15.875 7C15.875 7.23206 15.7828 7.45462 15.6187 7.61872C15.4546 7.78281 15.2321 7.875 15 7.875ZM15 11.875H14C13.7679 11.875 13.5454 11.7828 13.3813 11.6187C13.2172 11.4546 13.125 11.2321 13.125 11C13.125 10.7679 13.2172 10.5454 13.3813 10.3813C13.5454 10.2172 13.7679 10.125 14 10.125H15C15.2321 10.125 15.4546 10.2172 15.6187 10.3813C15.7828 10.5454 15.875 10.7679 15.875 11C15.875 11.2321 15.7828 11.4546 15.6187 11.6187C15.4546 11.7828 15.2321 11.875 15 11.875ZM10 7.875H9C8.76794 7.875 8.54538 7.78281 8.38128 7.61872C8.21719 7.45462 8.125 7.23206 8.125 7C8.125 6.76794 8.21719 6.54538 8.38128 6.38128C8.54538 6.21719 8.76794 6.125 9 6.125H10C10.2321 6.125 10.4546 6.21719 10.6187 6.38128C10.7828 6.54538 10.875 6.76794 10.875 7C10.875 7.23206 10.7828 7.45462 10.6187 7.61872C10.4546 7.78281 10.2321 7.875 10 7.875ZM10 11.875H9C8.76794 11.875 8.54538 11.7828 8.38128 11.6187C8.21719 11.4546 8.125 11.2321 8.125 11C8.125 10.7679 8.21719 10.5454 8.38128 10.3813C8.54538 10.2172 8.76794 10.125 9 10.125H10C10.2321 10.125 10.4546 10.2172 10.6187 10.3813C10.7828 10.5454 10.875 10.7679 10.875 11C10.875 11.2321 10.7828 11.4546 10.6187 11.6187C10.4546 11.7828 10.2321 11.875 10 11.875Z" fill="#717171" stroke="white" stroke-width="0.25"/>
<path d="M10.5 15.5H13.5V20.5H10.5V15.5Z" fill="#FCAF17"/>
</svg>
