<svg width="17" height="17" viewBox="0 0 17 17" fill="none" xmlns="http://www.w3.org/2000/svg">
<path d="M14.5371 16.1104H6.03711C5.00313 16.1104 4.16211 15.2693 4.16211 14.2354V5.73535C4.16211 4.70137 5.00313 3.86035 6.03711 3.86035H14.5371C15.5711 3.86035 16.4121 4.70137 16.4121 5.73535V14.2354C16.4121 15.2693 15.5711 16.1104 14.5371 16.1104ZM6.03711 5.11035C5.69248 5.11035 5.41211 5.39072 5.41211 5.73535V14.2354C5.41211 14.58 5.69248 14.8604 6.03711 14.8604H14.5371C14.8817 14.8604 15.1621 14.58 15.1621 14.2354V5.73535C15.1621 5.39072 14.8817 5.11035 14.5371 5.11035H6.03711ZM2.91211 11.1104H2.28711C1.94248 11.1104 1.66211 10.83 1.66211 10.4854V1.98535C1.66211 1.64072 1.94248 1.36035 2.28711 1.36035H10.7871C11.1317 1.36035 11.4121 1.64072 11.4121 1.98535V2.5791H12.6621V1.98535C12.6621 0.951367 11.8211 0.110352 10.7871 0.110352H2.28711C1.25313 0.110352 0.412109 0.951367 0.412109 1.98535V10.4854C0.412109 11.5193 1.25313 12.3604 2.28711 12.3604H2.91211V11.1104Z" fill="#FCAF17"/>
</svg>
