<svg width="22" height="23" viewBox="0 0 22 23" fill="none" xmlns="http://www.w3.org/2000/svg">
<ellipse cx="12.8157" cy="5.86621" rx="6.06203" ry="3.63647" transform="rotate(15.558 12.8157 5.86621)" fill="#FCAF17"/>
<path d="M0.958066 21.5976L0.378753 21.8924L0.378997 21.8929L0.958066 21.5976ZM1.40195 22.0416L1.10658 22.6206L1.1072 22.6209L1.40195 22.0416ZM4.35397 22.0416L4.64872 22.6209L4.6493 22.6206L4.35397 22.0416ZM4.79788 21.5976L5.37695 21.8929L5.37722 21.8924L4.79788 21.5976ZM4.79788 13.5693L5.37766 13.2755L5.37691 13.274L4.79788 13.5693ZM4.35397 13.1262L4.05752 13.7047L4.06054 13.7062L4.35397 13.1262ZM1.40195 13.1262L1.69542 13.7062L1.69839 13.7047L1.40195 13.1262ZM0.958066 13.5693L0.379026 13.274L0.378322 13.2754L0.958066 13.5693ZM4.90827 19.5604C4.54928 19.5604 4.25827 19.8514 4.25827 20.2104C4.25827 20.5694 4.54928 20.8604 4.90827 20.8604V19.5604ZM8.5821 20.3337L8.42708 20.965L8.42874 20.9654L8.5821 20.3337ZM11.3826 21.0137L11.5369 20.3823L11.5359 20.382L11.3826 21.0137ZM13.2366 21.0571L13.1125 20.419L13.1123 20.4191L13.2366 21.0571ZM16.3325 20.4548L16.4566 21.0928L16.4566 21.0928L16.3325 20.4548ZM18.4927 19.3302L18.9459 19.7961L18.9459 19.7961L18.4927 19.3302ZM20.6825 17.1997L20.2297 16.7333L20.2292 16.7338L20.6825 17.1997ZM20.6825 14.9977L21.1358 14.532L21.1357 14.5318L20.6825 14.9977ZM18.5909 14.8531L18.9739 15.3782L18.974 15.3782L18.5909 14.8531ZM16.0379 16.7155L15.6548 16.1904L15.6542 16.1908L16.0379 16.7155ZM12.3046 16.4767C11.9457 16.4767 11.6546 16.7677 11.6546 17.1267C11.6546 17.4856 11.9457 17.7767 12.3046 17.7767V16.4767ZM14.263 13.7483L14.1093 14.3799L14.1096 14.3799L14.263 13.7483ZM11.8409 13.1589L11.9946 12.5274L11.9935 12.5271L11.8409 13.1589ZM7.88465 13.8259L8.13547 14.4256C8.14201 14.4228 8.14851 14.42 8.15496 14.4171L7.88465 13.8259ZM4.65745 14.4712C4.32627 14.6097 4.17008 14.9905 4.30861 15.3217C4.44713 15.6529 4.8279 15.809 5.15909 15.6705L4.65745 14.4712ZM12.9294 8.82584C13.2217 8.61745 13.2898 8.21155 13.0814 7.91925C12.873 7.62694 12.4671 7.55891 12.1748 7.76731L12.9294 8.82584ZM12.9564 3.86538C13.1466 4.16984 13.5476 4.26246 13.852 4.07227C14.1565 3.88207 14.2491 3.48107 14.0589 3.17661L12.9564 3.86538ZM0.197656 14.6399V20.5279H1.49766V14.6399H0.197656ZM0.197656 20.5279C0.197656 20.8016 0.197152 21.0458 0.213609 21.2475C0.230683 21.4569 0.269185 21.6771 0.378754 21.8924L1.53738 21.3029C1.53654 21.3012 1.51983 21.2709 1.50931 21.1419C1.49816 21.0052 1.49766 20.823 1.49766 20.5279H0.197656ZM0.378997 21.8929C0.538793 22.2063 0.79348 22.4609 1.10658 22.6206L1.69732 21.4625C1.62827 21.4273 1.57228 21.3713 1.53714 21.3024L0.378997 21.8929ZM1.1072 22.6209C1.32253 22.7304 1.54275 22.7689 1.7521 22.786C1.95388 22.8025 2.19808 22.802 2.47174 22.802V21.502C2.17665 21.502 1.99445 21.5015 1.85777 21.4903C1.72867 21.4798 1.69838 21.4631 1.6967 21.4622L1.1072 22.6209ZM2.47174 22.802H3.28418V21.502H2.47174V22.802ZM3.28418 22.802C3.5575 22.802 3.80166 22.8025 4.00351 22.786C4.21278 22.769 4.43327 22.7305 4.64872 22.6209L4.05922 21.4622C4.05765 21.463 4.02726 21.4798 3.89789 21.4903C3.7611 21.5015 3.57888 21.502 3.28418 21.502V22.802ZM4.6493 22.6206C4.96245 22.4609 5.21715 22.2063 5.37695 21.8929L4.21881 21.3024C4.18367 21.3713 4.12769 21.4273 4.05863 21.4625L4.6493 22.6206ZM5.37722 21.8924C5.48675 21.6771 5.52524 21.4569 5.54231 21.2475C5.55876 21.0458 5.55826 20.8016 5.55826 20.5279H4.25826C4.25826 20.823 4.25775 21.0052 4.24661 21.1419C4.23608 21.271 4.21938 21.3013 4.21853 21.3029L5.37722 21.8924ZM5.55826 20.5279V14.6399H4.25826V20.5279H5.55826ZM5.55826 14.6399C5.55826 14.3662 5.55876 14.122 5.54231 13.9202C5.52524 13.7107 5.48676 13.4907 5.37766 13.2755L4.21809 13.8632C4.21937 13.8657 4.23609 13.8967 4.24661 14.0258C4.25775 14.1626 4.25826 14.3448 4.25826 14.6399H5.55826ZM5.37691 13.274C5.21723 12.9609 4.96227 12.7055 4.6474 12.5462L4.06054 13.7062C4.12787 13.7403 4.18358 13.7955 4.21884 13.8647L5.37691 13.274ZM4.65041 12.5477C4.43455 12.4371 4.21353 12.3983 4.00389 12.3811C3.80181 12.3645 3.55742 12.365 3.28418 12.365V13.665C3.57895 13.665 3.76096 13.6655 3.89751 13.6767C4.02651 13.6873 4.05637 13.7041 4.05752 13.7047L4.65041 12.5477ZM3.28418 12.365H2.47174V13.665H3.28418V12.365ZM2.47174 12.365C2.19815 12.365 1.95373 12.3645 1.75172 12.3811C1.54199 12.3983 1.32125 12.4372 1.1055 12.5477L1.69839 13.7047C1.69966 13.704 1.72943 13.6873 1.85815 13.6767C1.99459 13.6655 2.17657 13.665 2.47174 13.665V12.365ZM1.10848 12.5462C0.793674 12.7055 0.53871 12.9609 0.379028 13.274L1.5371 13.8647C1.57236 13.7955 1.62808 13.7403 1.69541 13.7062L1.10848 12.5462ZM0.378322 13.2754C0.269177 13.4907 0.230686 13.7106 0.213606 13.9202C0.197153 14.122 0.197656 14.3662 0.197656 14.6399H1.49766C1.49766 14.3448 1.49816 14.1626 1.50931 14.0258C1.51983 13.8967 1.53655 13.8658 1.53781 13.8633L0.378322 13.2754ZM18.4716 6.41662C18.4716 8.01961 17.1714 9.31935 15.5681 9.31935V10.6194C17.889 10.6194 19.7716 8.73795 19.7716 6.41662H18.4716ZM15.5681 9.31935C13.9647 9.31935 12.6645 8.0196 12.6645 6.41662H11.3645C11.3645 8.73795 13.2471 10.6194 15.5681 10.6194V9.31935ZM12.6645 6.41662C12.6645 4.81275 13.9648 3.51309 15.5681 3.51309V2.21309C13.247 2.21309 11.3645 4.09459 11.3645 6.41662H12.6645ZM15.5681 3.51309C17.1713 3.51309 18.4716 4.81274 18.4716 6.41662H19.7716C19.7716 4.0946 17.8891 2.21309 15.5681 2.21309V3.51309ZM4.90827 20.8604H7.55799V19.5604H4.90827V20.8604ZM7.55799 20.8604C7.85206 20.8604 8.14342 20.8953 8.42708 20.965L8.73711 19.7025C8.35074 19.6076 7.95525 19.5604 7.55799 19.5604V20.8604ZM8.42874 20.9654L11.2292 21.6453L11.5359 20.382L8.73545 19.7021L8.42874 20.9654ZM11.2283 21.6451C11.9275 21.816 12.6553 21.8325 13.3609 21.6951L13.1123 20.4191C12.5905 20.5207 12.0529 20.5084 11.5369 20.3823L11.2283 21.6451ZM13.3607 21.6951L16.4566 21.0928L16.2084 19.8167L13.1125 20.419L13.3607 21.6951ZM16.4566 21.0928C17.3968 20.9099 18.2639 20.4596 18.9459 19.7961L18.0394 18.8643C17.5412 19.349 16.9038 19.6814 16.2084 19.8167L16.4566 21.0928ZM18.9459 19.7961L21.1357 17.6656L20.2292 16.7338L18.0394 18.8643L18.9459 19.7961ZM21.1352 17.6661C22.0244 16.8029 22.0235 15.3959 21.1358 14.532L20.2291 15.4635C20.5931 15.8178 20.5922 16.3814 20.2297 16.7333L21.1352 17.6661ZM21.1357 14.5318C20.3446 13.7622 19.0988 13.6778 18.2077 14.328L18.974 15.3782C19.356 15.0994 19.8949 15.1384 20.2292 15.4637L21.1357 14.5318ZM18.2078 14.328L15.6548 16.1904L16.4209 17.2407L18.9739 15.3782L18.2078 14.328ZM15.6542 16.1908C15.4018 16.3754 15.0912 16.4767 14.7701 16.4767V17.7767C15.3627 17.7767 15.9429 17.5901 16.4215 17.2402L15.6542 16.1908ZM14.7701 16.4767H12.3046V17.7767H14.7701V16.4767ZM12.3046 17.7767H13.8739V16.4767H12.3046V17.7767ZM13.8739 17.7767C15.0998 17.7767 16.1244 16.8057 16.1244 15.5696H14.8244C14.8244 16.0541 14.416 16.4767 13.8739 16.4767V17.7767ZM16.1244 15.5696V15.2581H14.8244V15.5696H16.1244ZM16.1244 15.2581C16.1244 14.2333 15.4092 13.3577 14.4164 13.1166L14.1096 14.3799C14.5407 14.4846 14.8244 14.8546 14.8244 15.2581H16.1244ZM14.4167 13.1167L11.9946 12.5274L11.6873 13.7905L14.1093 14.3799L14.4167 13.1167ZM11.9935 12.5271C11.5498 12.42 11.0951 12.365 10.6371 12.365V13.665C10.9909 13.665 11.3432 13.7075 11.6884 13.7908L11.9935 12.5271ZM10.6371 12.365C10.0221 12.365 9.23736 12.6068 8.67442 12.8086C8.37818 12.9147 8.11499 13.0205 7.92596 13.0997C7.83122 13.1393 7.75455 13.1726 7.70101 13.1961C7.67423 13.2079 7.65319 13.2173 7.63855 13.2239C7.63122 13.2271 7.62549 13.2297 7.62143 13.2316C7.6194 13.2325 7.61778 13.2332 7.6166 13.2338C7.616 13.234 7.61552 13.2343 7.61514 13.2344C7.61495 13.2345 7.61479 13.2346 7.61466 13.2347C7.61459 13.2347 7.61451 13.2347 7.61447 13.2347C7.6144 13.2348 7.61433 13.2348 7.88465 13.8259C8.15496 14.4171 8.15491 14.4171 8.15486 14.4171C8.15485 14.4171 8.15481 14.4171 8.1548 14.4171C8.15477 14.4171 8.15477 14.4171 8.1548 14.4171C8.15485 14.4171 8.15501 14.417 8.15527 14.4169C8.1558 14.4167 8.15674 14.4162 8.1581 14.4156C8.16081 14.4144 8.16515 14.4124 8.17105 14.4098C8.18286 14.4045 8.20088 14.3964 8.2245 14.3861C8.27177 14.3653 8.34128 14.3351 8.42809 14.2988C8.60216 14.2259 8.84349 14.1289 9.11297 14.0324C9.68148 13.8286 10.273 13.665 10.6371 13.665V12.365ZM7.63383 13.2263L4.65745 14.4712L5.15909 15.6705L8.13547 14.4256L7.63383 13.2263ZM12.1748 7.76731C11.7004 8.10552 11.1204 8.30441 10.4917 8.30441V9.60441C11.3996 9.60441 12.2419 9.31599 12.9294 8.82584L12.1748 7.76731ZM10.4917 8.30441C8.88864 8.30441 7.58898 7.00493 7.58898 5.40094H6.28898C6.28898 7.72274 8.17051 9.60441 10.4917 9.60441V8.30441ZM7.58898 5.40094C7.58898 3.79771 8.88857 2.49814 10.4917 2.49814V1.19814C8.1706 1.19814 6.28898 3.07974 6.28898 5.40094H7.58898ZM10.4917 2.49814C11.5307 2.49814 12.4428 3.04327 12.9564 3.86538L14.0589 3.17661C13.3177 1.99006 11.9974 1.19814 10.4917 1.19814V2.49814Z" fill="#717171"/>
</svg>
