<svg width="40" height="41" viewBox="0 0 40 41" fill="none" xmlns="http://www.w3.org/2000/svg">
<g clip-path="url(#clip0_1631_42637)">
<path d="M33 15H28.5L29.5 18L33 15Z" fill="#FCAF17"/>
<rect x="25" y="1.5" width="13" height="14" rx="1" fill="#FCAF17"/>
<path d="M31.5011 3.36255C30.0029 3.36255 28.7842 4.58138 28.7842 6.07958C28.7842 6.40317 29.0464 6.66552 29.3701 6.66552C29.6938 6.66552 29.9561 6.40317 29.9561 6.07958C29.9561 5.22755 30.6492 4.53442 31.5011 4.53442C32.3532 4.53442 33.0463 5.22755 33.0463 6.07958C33.0463 6.93161 32.3532 7.62474 31.5011 7.62474H31.1293C30.8056 7.62474 30.5433 7.88708 30.5433 8.21067V10.2153C30.5433 10.5389 30.8056 10.8012 31.1293 10.8012C31.4529 10.8012 31.7152 10.5389 31.7152 10.2153V8.78825C33.1136 8.67872 34.2182 7.50567 34.2182 6.07958C34.2182 4.58138 32.9993 3.36255 31.5011 3.36255Z" fill="#717171"/>
<path d="M31.1293 11.6941C30.8056 11.6941 30.5433 11.9564 30.5433 12.28V12.4517C30.5433 12.7753 30.8056 13.0376 31.1293 13.0376C31.4529 13.0376 31.7152 12.7753 31.7152 12.4517V12.28C31.7152 11.9564 31.4529 11.6941 31.1293 11.6941Z" fill="#717171"/>
<path d="M36.6421 0.5H26.3594C24.9485 0.5 23.8008 1.64773 23.8008 3.05859V7.695C21.8726 4.92523 18.6662 3.10859 15.043 3.10859H12.4235C9.36026 3.10859 6.50737 4.72117 4.91995 7.33281C2.76565 8.00828 1.3262 10.0149 1.39166 12.2966L1.53963 17.4095C1.08393 17.837 0.798462 18.4438 0.798462 19.1165V19.6665C0.798462 20.9571 1.84877 22.0071 3.13987 22.0071H4.71057C5.11041 22.9961 5.69221 23.9188 6.44674 24.7595C6.03143 25.3347 3.89752 28.2898 3.76659 28.4713C3.72417 28.5301 3.69299 28.5964 3.67471 28.6666L0.972134 39.0634C0.882056 39.4099 0.955962 39.7712 1.17502 40.0544C1.39401 40.3376 1.72502 40.5001 2.08299 40.5001H23.8797C24.2705 40.5001 24.6472 40.336 24.9134 40.05C25.1796 39.7639 25.3164 39.3762 25.2883 38.9855L25.0664 35.9484C25.0107 35.1797 24.8067 34.4441 24.4598 33.7619C24.313 33.4734 23.9602 33.3584 23.6719 33.5052C23.3835 33.6518 23.2685 34.0046 23.4152 34.293C23.691 34.8354 23.8532 35.4208 23.8976 36.0334L24.1195 39.0703C24.126 39.1614 24.0822 39.2231 24.0556 39.2517C24.0291 39.2803 23.9707 39.3283 23.8797 39.3283H21.1771V36.9341C21.1771 36.6105 20.9149 36.3482 20.5912 36.3482C20.2675 36.3482 20.0053 36.6105 20.0053 36.9341V39.3281H7.17573L8.67081 33.5769C8.67573 33.558 8.69276 33.5448 8.71229 33.5448H11.3011C11.8265 33.5448 12.3217 33.414 12.757 33.1842C13.1332 33.2525 13.5187 33.2876 13.9063 33.2876C15.5496 33.2876 17.1178 32.6598 18.2658 31.5538L18.268 31.5542C18.3824 31.578 18.2957 31.5605 20.0314 31.8337C20.6678 31.9331 21.2639 32.1596 21.8032 32.5068C21.9014 32.57 22.0112 32.6002 22.1199 32.6002C22.3124 32.6002 22.5011 32.5053 22.6131 32.3313C22.7882 32.0593 22.7096 31.6966 22.4375 31.5215C21.7599 31.0852 21.0113 30.8008 20.2126 30.6759C18.7092 30.4238 18.5712 30.4465 18.3305 30.354C17.9075 30.1908 17.6183 29.7881 17.611 29.318C18.3039 29.0206 18.793 28.3434 18.7992 27.5573C18.8011 27.3411 18.7674 27.1304 18.7018 26.9312C20.0878 26.1095 22.0752 24.5546 23.1026 22.007H24.2055C25.4961 22.007 26.5461 20.957 26.5461 19.6664V19.1164C26.5461 18.397 26.2198 17.7526 25.7078 17.3227V15.8152C25.9194 15.8709 26.1385 15.9 26.3595 15.9H28.2047C28.4179 15.9 28.5914 16.0734 28.5914 16.2867V17.9508C28.5914 18.3645 28.8443 18.7182 29.2358 18.852C29.34 18.8877 29.446 18.9049 29.5503 18.9049C29.8374 18.9049 30.111 18.7738 30.2965 18.5342L32.2352 16.0363C32.3025 15.9497 32.4039 15.9 32.5133 15.9H36.643C38.0539 15.9 39.2016 14.7523 39.2016 13.3414V3.05859C39.2016 1.64773 38.0535 0.5 36.6421 0.5V0.5ZM1.97034 19.6664V19.1164C1.97034 18.4716 2.49495 17.9469 3.13987 17.9469H4.09065C4.05034 18.9657 4.07674 19.8047 4.3312 20.8352H3.13987C2.49495 20.8352 1.97034 20.3109 1.97034 19.6664ZM13.9264 32.1152C14.2446 31.6254 14.4302 31.042 14.4302 30.4158V29.4795H16.4456C16.49 30.0648 16.7502 30.5908 17.1538 30.9732C16.2629 31.7008 15.1212 32.1105 13.9264 32.1152ZM16.8254 28.3075H14.2975C13.7245 28.3075 13.2583 28.7737 13.2583 29.3467V30.4157C13.2583 31.4948 12.3803 32.3729 11.3011 32.3729H8.71229C8.15924 32.3729 7.67581 32.7467 7.53666 33.282L5.96487 39.3281H2.11424L4.78127 29.0677C4.98792 28.7814 8.78846 23.5184 9.26784 22.8536C9.38948 22.685 9.5694 22.574 9.7744 22.5411C9.98182 22.5077 10.1911 22.5581 10.3626 22.6826L10.3912 22.7034C10.5774 22.8385 10.6874 23.0474 10.6935 23.2814C10.6989 23.4399 10.6534 23.5924 10.5614 23.7233L9.46924 25.2837C9.26573 25.5736 9.24081 25.9489 9.40409 26.2632C9.56752 26.5777 9.88932 26.773 10.2439 26.773H16.86C17.0651 26.773 17.2579 26.853 17.4031 26.998C17.5495 27.1445 17.6292 27.3394 17.6273 27.5474C17.624 27.9666 17.2642 28.3075 16.8254 28.3075ZM25.3742 19.6664C25.3742 20.3109 24.8499 20.8352 24.2055 20.8352H23.4821C23.6514 20.1495 23.7382 19.4416 23.7382 18.7211C23.7382 18.4598 23.7327 18.2013 23.7227 17.9469H24.2055C24.8499 17.9469 25.3742 18.4716 25.3742 19.1164V19.6664ZM24.2055 16.775H23.6389C23.5702 16.1169 23.4655 15.4795 23.3254 14.8744C23.0517 13.6966 22.0123 12.8263 20.7977 12.758C18.5275 12.6307 16.2122 12.0421 14.1017 11.0557C13.5107 10.7801 12.7971 10.9704 12.4414 11.4985C12.3071 11.698 12.0249 11.8432 11.7732 11.8375C11.363 11.8327 10.9119 11.6073 10.3539 11.1284C9.97768 10.8048 9.59854 10.4259 9.19534 9.97062C8.90541 9.64242 8.48831 9.45398 8.05096 9.45359H8.04948C7.61471 9.45359 7.20002 9.64 6.91143 9.96531C6.3476 10.6016 5.85846 11.332 5.4576 12.1362C5.31323 12.4259 5.43096 12.7777 5.72057 12.9221C6.01026 13.0665 6.36198 12.9487 6.50643 12.6591C6.86151 11.9468 7.29284 11.302 7.78838 10.7428C7.87885 10.6409 7.99065 10.6255 8.04956 10.6255C8.11002 10.6265 8.22409 10.6412 8.3176 10.7471C8.75682 11.243 9.17299 11.6584 9.59026 12.0173C10.0804 12.438 10.8386 12.9987 11.7593 13.0094C12.4114 13.016 13.0579 12.6811 13.4134 12.1531C13.4488 12.1005 13.5353 12.0847 13.6059 12.1176C15.8501 13.1664 18.3143 13.7924 20.7319 13.928C21.4302 13.9673 22.0273 14.4655 22.1839 15.1392C22.3485 15.8504 22.4612 16.6121 22.5188 17.4046C22.5503 17.8272 22.5664 18.2702 22.5664 18.7212C22.5664 19.5862 22.4247 20.4295 22.1453 21.2277C21.2699 23.7305 19.3108 25.2255 18.0101 25.9787C17.6788 25.7337 17.2796 25.6012 16.86 25.6012H10.6774L11.5208 24.3963C11.7597 24.0563 11.8786 23.6572 11.8648 23.2468C11.8495 22.6498 11.5631 22.106 11.08 21.7555L11.0515 21.7347C10.6256 21.4257 10.1061 21.3013 9.58885 21.3841C9.07409 21.4667 8.6226 21.7452 8.31737 22.1682C8.0969 22.474 7.66471 23.0727 7.15073 23.7846C6.48573 23.0005 5.98791 22.1431 5.66784 21.2277C5.21674 19.9391 5.19159 18.7817 5.29448 17.4037C5.35346 16.5945 5.47042 15.8155 5.64206 15.0887C5.71643 14.7738 5.52143 14.4581 5.20643 14.3838C4.89151 14.3094 4.57588 14.5044 4.50151 14.8194C4.35456 15.4417 4.24541 16.0979 4.17448 16.7752H3.13987C2.98768 16.7752 2.83909 16.7902 2.69487 16.8181L2.56307 12.263C2.51088 10.4468 3.69995 8.85758 5.45463 8.39828C5.60706 8.35836 5.73706 8.25875 5.81518 8.12187C7.16721 5.75234 9.6994 4.28047 12.4235 4.28047H15.043C20.2774 4.28047 24.536 8.53898 24.536 13.7734V16.7987C24.4279 16.7834 24.3177 16.775 24.2055 16.775ZM38.0297 13.3414C38.0297 14.1061 37.4076 14.7281 36.643 14.7281H32.5133C32.0397 14.7281 31.6013 14.9427 31.3099 15.3173L29.7633 17.31V16.2867C29.7633 15.4273 29.0642 14.7281 28.2047 14.7281H26.3594C26.1275 14.7281 25.9064 14.672 25.7078 14.5653V13.7734C25.7078 12.4009 25.447 11.0883 24.9727 9.88211V3.05859C24.9727 2.29391 25.5948 1.67188 26.3594 1.67188H36.6421C37.4072 1.67188 38.0297 2.29391 38.0297 3.05859V13.3414Z" fill="#717171"/>
<path d="M10.9458 19.3014C11.2694 19.3014 11.5317 19.0391 11.5317 18.7155V18.0613C11.5317 17.7377 11.2694 17.4753 10.9458 17.4753C10.6222 17.4753 10.3599 17.7377 10.3599 18.0613V18.7155C10.3599 19.0391 10.6222 19.3014 10.9458 19.3014Z" fill="#717171"/>
<path d="M19.7018 19.3014C20.0255 19.3014 20.2878 19.0391 20.2878 18.7155V18.0613C20.2878 17.7377 20.0255 17.4753 19.7018 17.4753C19.3782 17.4753 19.1159 17.7377 19.1159 18.0613V18.7155C19.1159 19.0391 19.3782 19.3014 19.7018 19.3014Z" fill="#717171"/>
<path d="M14.3132 22.1844C15.1122 21.7184 15.8561 21.7184 16.655 22.1844C16.7479 22.2385 16.8494 22.2643 16.9497 22.2642C17.1513 22.2642 17.3475 22.1601 17.4564 21.9734C17.6194 21.6939 17.525 21.3352 17.2454 21.1721C16.0932 20.4999 14.875 20.4999 13.7228 21.1721C13.4432 21.3352 13.3488 21.694 13.5118 21.9734C13.6749 22.253 14.0338 22.3474 14.3132 22.1844Z" fill="#717171"/>
</g>
<defs>
<clipPath id="clip0_1631_42637">
<rect width="40" height="40" fill="white" transform="translate(0 0.5)"/>
</clipPath>
</defs>
</svg>
