<svg width="24" height="24" viewBox="0 0 24 24" fill="none" xmlns="http://www.w3.org/2000/svg">
<path opacity="0.01" d="M0.25 23.75V0.25H23.75V23.75H0.25Z" fill="black" stroke="#FCAF17" stroke-width="0.5"/>
<path fill-rule="evenodd" clip-rule="evenodd" d="M10.9953 11.9987C10.9953 12.0004 10.9953 12.0021 10.9953 12.0038C10.9932 12.6967 10.4278 13.2604 9.73483 13.2604C9.04284 13.2604 8.47739 12.6975 8.47438 12.0049L8.4743 11.998C8.47534 11.3037 9.0404 10.7394 9.73483 10.7394C10.4289 10.7394 10.9938 11.3032 10.9954 11.997L10.9953 11.9987ZM19.1171 11.5254H11.8931C11.6753 10.5344 10.7903 9.79043 9.73484 9.79043C8.67937 9.79043 7.79435 10.5344 7.57662 11.5254H4.88281C4.62078 11.5254 4.40833 11.7379 4.40833 11.9999C4.40833 12.262 4.62078 12.4744 4.88281 12.4744H7.57686C7.79503 13.4649 8.68123 14.2094 9.73484 14.2094C10.789 14.2094 11.6748 13.465 11.8929 12.4744H19.1171C19.3791 12.4744 19.5916 12.262 19.5916 11.9999C19.5916 11.7379 19.3791 11.5254 19.1171 11.5254H19.1171ZM14.2651 18.6499C13.571 18.6499 13.0061 18.0861 13.0045 17.3923L13.0046 17.3906C13.0046 17.3889 13.0046 17.3872 13.0046 17.3855C13.0067 16.6926 13.5721 16.1288 14.2651 16.1288C14.9571 16.1288 15.5225 16.6918 15.5255 17.3844L15.5256 17.3913C15.5246 18.0856 14.9595 18.6499 14.2651 18.6499ZM19.1171 16.9149H16.4231C16.2049 15.9244 15.3187 15.1799 14.2651 15.1799C13.2109 15.1799 12.3251 15.9243 12.107 16.9149H4.88282C4.62079 16.9149 4.40834 17.1273 4.40834 17.3894C4.40834 17.6514 4.62079 17.8639 4.88282 17.8639H12.1069C12.3246 18.8549 13.2096 19.5989 14.2651 19.5989C15.3206 19.5989 16.2056 18.8549 16.4233 17.8639H19.1171C19.3791 17.8639 19.5916 17.6514 19.5916 17.3894C19.5916 17.1273 19.3791 16.9149 19.1171 16.9149ZM13.0046 6.61167C13.0046 6.60998 13.0046 6.60826 13.0046 6.60657C13.0067 5.91363 13.5721 5.34992 14.2651 5.34992C14.9571 5.34992 15.5225 5.91286 15.5255 6.60547L15.5256 6.61244C15.5245 7.30657 14.9595 7.87102 14.2651 7.87102C13.571 7.87102 13.0061 7.30713 13.0045 6.61342L13.0046 6.61167ZM4.88282 7.08491H12.1069C12.3246 8.07594 13.2096 8.81995 14.2651 8.81995C15.3206 8.81995 16.2056 8.07597 16.4233 7.08491H19.1171C19.3791 7.08491 19.5916 6.87246 19.5916 6.61043C19.5916 6.3484 19.3791 6.13595 19.1171 6.13595H16.4231C16.2049 5.14542 15.3187 4.40094 14.2651 4.40094C13.2109 4.40094 12.3251 5.1453 12.107 6.13595H4.88282C4.62079 6.13595 4.40834 6.3484 4.40834 6.61043C4.40834 6.87246 4.62079 7.08491 4.88282 7.08491Z" fill="black"/>
<path d="M10.9953 11.9987L10.7453 11.9942V11.9987H10.9953ZM10.9953 12.0038L11.2453 12.0045V12.0038H10.9953ZM8.47438 12.0049L8.72439 12.0038L8.72436 12.0017L8.47438 12.0049ZM8.4743 11.998L8.22427 11.9976L8.22432 12.0012L8.4743 11.998ZM10.9954 11.997L11.2454 12.0014L11.2454 11.9964L10.9954 11.997ZM11.8931 11.5254L11.6489 11.5791L11.692 11.7754H11.8931V11.5254ZM7.57662 11.5254V11.7754H7.77765L7.82079 11.5791L7.57662 11.5254ZM7.57686 12.4744L7.821 12.4206L7.77778 12.2244H7.57686V12.4744ZM11.8929 12.4744V12.2244H11.6919L11.6487 12.4207L11.8929 12.4744ZM13.0045 17.3923L12.7545 17.388L12.7545 17.3929L13.0045 17.3923ZM13.0046 17.3906L13.2546 17.395V17.3906H13.0046ZM13.0046 17.3855L12.7546 17.3848V17.3855H13.0046ZM15.5255 17.3844L15.2755 17.3854L15.2756 17.3876L15.5255 17.3844ZM15.5256 17.3913L15.7757 17.3917L15.7756 17.3881L15.5256 17.3913ZM16.4231 16.9149L16.1789 16.9687L16.2221 17.1649H16.4231V16.9149ZM12.107 16.9149V17.1649H12.308L12.3512 16.9686L12.107 16.9149ZM12.1069 17.8639L12.351 17.8102L12.3079 17.6139H12.1069V17.8639ZM16.4233 17.8639V17.6139H16.2223L16.1791 17.8102L16.4233 17.8639ZM13.0046 6.61167L13.2546 6.61596V6.61167H13.0046ZM13.0046 6.60657L12.7546 6.60582V6.60657H13.0046ZM15.5255 6.60547L15.2755 6.60655L15.2756 6.6087L15.5255 6.60547ZM15.5256 6.61244L15.7757 6.61284L15.7756 6.60921L15.5256 6.61244ZM13.0045 6.61342L12.7545 6.60913L12.7545 6.61399L13.0045 6.61342ZM12.1069 7.08491L12.351 7.03126L12.3079 6.83491H12.1069V7.08491ZM16.4233 7.08491V6.83491H16.2223L16.1791 7.03127L16.4233 7.08491ZM16.4231 6.13595L16.1789 6.18972L16.2221 6.38595H16.4231V6.13595ZM12.107 6.13595V6.38595H12.308L12.3512 6.18969L12.107 6.13595ZM10.7453 11.9987C10.7453 11.9983 10.7453 11.998 10.7453 11.999C10.7453 11.9997 10.7453 12.0016 10.7453 12.0038H11.2453C11.2453 12.0042 11.2453 12.0045 11.2453 12.0034C11.2453 12.0027 11.2453 12.0008 11.2453 11.9987H10.7453ZM10.7453 12.003C10.7436 12.5582 10.29 13.0104 9.73483 13.0104V13.5104C10.5656 13.5104 11.2428 12.8352 11.2453 12.0045L10.7453 12.003ZM9.73483 13.0104C9.18055 13.0104 8.72679 12.5588 8.72438 12.0038L8.22439 12.006C8.22798 12.8362 8.90514 13.5104 9.73483 13.5104V13.0104ZM8.72436 12.0017L8.72427 11.9947L8.22432 12.0012L8.22441 12.0081L8.72436 12.0017ZM8.72429 11.9983C8.72513 11.442 9.17834 10.9894 9.73483 10.9894V10.4894C8.90247 10.4894 8.22554 11.1654 8.2243 11.9976L8.72429 11.9983ZM9.73483 10.9894C10.2911 10.9894 10.7441 11.4416 10.7454 11.9975L11.2454 11.9964C11.2435 11.1648 10.5668 10.4894 9.73483 10.4894V10.9894ZM10.7454 11.9925L10.7454 11.9942L11.2453 12.0031L11.2453 12.0014L10.7454 11.9925ZM19.1171 11.2754H11.8931V11.7754H19.1171V11.2754ZM12.1372 11.4718C11.8949 10.3687 10.9104 9.54043 9.73484 9.54043V10.0404C10.6702 10.0404 11.4558 10.7001 11.6489 11.5791L12.1372 11.4718ZM9.73484 9.54043C8.55928 9.54043 7.57478 10.3687 7.33244 11.4718L7.82079 11.5791C8.01391 10.7001 8.79945 10.0404 9.73484 10.0404V9.54043ZM7.57662 11.2754H4.88281V11.7754H7.57662V11.2754ZM4.88281 11.2754C4.4827 11.2754 4.15833 11.5998 4.15833 11.9999H4.65833C4.65833 11.876 4.75885 11.7754 4.88281 11.7754V11.2754ZM4.15833 11.9999C4.15833 12.4001 4.48271 12.7244 4.88281 12.7244V12.2244C4.75884 12.2244 4.65833 12.1239 4.65833 11.9999H4.15833ZM4.88281 12.7244H7.57686V12.2244H4.88281V12.7244ZM7.33271 12.5282C7.57552 13.6305 8.56109 14.4594 9.73484 14.4594V13.9594C8.80136 13.9594 8.01453 13.2993 7.821 12.4206L7.33271 12.5282ZM9.73484 14.4594C10.9091 14.4594 11.8944 13.6307 12.137 12.5281L11.6487 12.4207C11.4553 13.2994 10.6689 13.9594 9.73484 13.9594V14.4594ZM11.8929 12.7244H19.1171V12.2244H11.8929V12.7244ZM19.1171 12.7244C19.5172 12.7244 19.8416 12.4001 19.8416 11.9999H19.3416C19.3416 12.1239 19.2411 12.2244 19.1171 12.2244V12.7244ZM19.8416 11.9999C19.8416 11.5998 19.5172 11.2754 19.1171 11.2754V11.7754C19.2411 11.7754 19.3416 11.876 19.3416 11.9999H19.8416ZM19.1171 11.7754H19.1171V11.2754H19.1171V11.7754ZM14.2651 18.3999C13.7089 18.3999 13.2558 17.9477 13.2545 17.3918L12.7545 17.3929C12.7564 18.2244 13.4331 18.8999 14.2651 18.8999V18.3999ZM13.2545 17.3967L13.2545 17.395L12.7546 17.3863L12.7546 17.388L13.2545 17.3967ZM13.2546 17.3906C13.2546 17.391 13.2546 17.3913 13.2546 17.3903C13.2546 17.3896 13.2546 17.3877 13.2546 17.3855H12.7546C12.7546 17.3851 12.7546 17.3848 12.7546 17.3858C12.7546 17.3865 12.7546 17.3885 12.7546 17.3906H13.2546ZM13.2546 17.3863C13.2563 16.8311 13.7099 16.3788 14.2651 16.3788V15.8788C13.4343 15.8788 12.7571 16.5541 12.7546 17.3848L13.2546 17.3863ZM14.2651 16.3788C14.8194 16.3788 15.2731 16.8305 15.2755 17.3854L15.7755 17.3833C15.7719 16.5531 15.0948 15.8788 14.2651 15.8788V16.3788ZM15.2756 17.3876L15.2756 17.3946L15.7756 17.3881L15.7755 17.3811L15.2756 17.3876ZM15.2756 17.391C15.2748 17.9473 14.8216 18.3999 14.2651 18.3999V18.8999C15.0975 18.8999 15.7744 18.2238 15.7756 17.3917L15.2756 17.391ZM19.1171 16.6649H16.4231V17.1649H19.1171V16.6649ZM16.6672 16.8611C16.4244 15.7588 15.4388 14.9299 14.2651 14.9299V15.4299C15.1986 15.4299 15.9854 16.09 16.1789 16.9687L16.6672 16.8611ZM14.2651 14.9299C13.0908 14.9299 12.1056 15.7586 11.8629 16.8612L12.3512 16.9686C12.5446 16.0899 13.331 15.4299 14.2651 15.4299V14.9299ZM12.107 16.6649H4.88282V17.1649H12.107V16.6649ZM4.88282 16.6649C4.48272 16.6649 4.15834 16.9892 4.15834 17.3894H4.65834C4.65834 17.2654 4.75885 17.1649 4.88282 17.1649V16.6649ZM4.15834 17.3894C4.15834 17.7895 4.48272 18.1139 4.88282 18.1139V17.6139C4.75885 17.6139 4.65834 17.5134 4.65834 17.3894H4.15834ZM4.88282 18.1139H12.1069V17.6139H4.88282V18.1139ZM11.8627 17.9175C12.105 19.0205 13.0895 19.8489 14.2651 19.8489V19.3489C13.3297 19.3489 12.5442 18.6892 12.351 17.8102L11.8627 17.9175ZM14.2651 19.8489C15.4406 19.8489 16.4251 19.0206 16.6675 17.9175L16.1791 17.8102C15.986 18.6892 15.2005 19.3489 14.2651 19.3489V19.8489ZM16.4233 18.1139H19.1171V17.6139H16.4233V18.1139ZM19.1171 18.1139C19.5172 18.1139 19.8416 17.7895 19.8416 17.3894H19.3416C19.3416 17.5134 19.2411 17.6139 19.1171 17.6139V18.1139ZM19.8416 17.3894C19.8416 16.9892 19.5172 16.6649 19.1171 16.6649V17.1649C19.2411 17.1649 19.3416 17.2654 19.3416 17.3894H19.8416ZM13.2546 6.61167C13.2546 6.61211 13.2546 6.61236 13.2546 6.61132C13.2546 6.61066 13.2546 6.6087 13.2546 6.60657H12.7546C12.7546 6.60613 12.7546 6.60588 12.7546 6.60692C12.7546 6.60758 12.7546 6.60954 12.7546 6.61167H13.2546ZM13.2546 6.60732C13.2563 6.05217 13.7099 5.59992 14.2651 5.59992V5.09992C13.4343 5.09992 12.7571 5.77509 12.7546 6.60582L13.2546 6.60732ZM14.2651 5.59992C14.8194 5.59992 15.2731 6.05153 15.2755 6.60655L15.7755 6.60439C15.7719 5.77419 15.0948 5.09992 14.2651 5.09992V5.59992ZM15.2756 6.6087L15.2756 6.61567L15.7756 6.60921L15.7755 6.60224L15.2756 6.6087ZM15.2756 6.61204C15.2747 7.1683 14.8215 7.62102 14.2651 7.62102V8.12102C15.0974 8.12102 15.7743 7.44484 15.7756 6.61284L15.2756 6.61204ZM14.2651 7.62102C13.7089 7.62102 13.2558 7.16874 13.2545 6.61285L12.7545 6.61399C12.7564 7.44552 13.4331 8.12102 14.2651 8.12102V7.62102ZM13.2545 6.61771L13.2545 6.61596L12.7546 6.60738L12.7546 6.60913L13.2545 6.61771ZM4.88282 7.33491H12.1069V6.83491H4.88282V7.33491ZM11.8627 7.13856C12.105 8.2416 13.0895 9.06995 14.2651 9.06995V8.56995C13.3297 8.56995 12.5442 7.91028 12.351 7.03126L11.8627 7.13856ZM14.2651 9.06995C15.4406 9.06995 16.4251 8.24163 16.6675 7.13855L16.1791 7.03127C15.986 7.91031 15.2005 8.56995 14.2651 8.56995V9.06995ZM16.4233 7.33491H19.1171V6.83491H16.4233V7.33491ZM19.1171 7.33491C19.5172 7.33491 19.8416 7.01052 19.8416 6.61043H19.3416C19.3416 6.7344 19.2411 6.83491 19.1171 6.83491V7.33491ZM19.8416 6.61043C19.8416 6.21033 19.5172 5.88595 19.1171 5.88595V6.38595C19.2411 6.38595 19.3416 6.48647 19.3416 6.61043H19.8416ZM19.1171 5.88595H16.4231V6.38595H19.1171V5.88595ZM16.6672 6.08218C16.4244 4.97977 15.4388 4.15094 14.2651 4.15094V4.65094C15.1986 4.65094 15.9854 5.31107 16.1789 6.18972L16.6672 6.08218ZM14.2651 4.15094C13.0908 4.15094 12.1056 4.97966 11.8629 6.08221L12.3512 6.18969C12.5446 5.31094 13.331 4.65094 14.2651 4.65094V4.15094ZM12.107 5.88595H4.88282V6.38595H12.107V5.88595ZM4.88282 5.88595C4.48271 5.88595 4.15834 6.21033 4.15834 6.61043H4.65834C4.65834 6.48647 4.75886 6.38595 4.88282 6.38595V5.88595ZM4.15834 6.61043C4.15834 7.01053 4.48271 7.33491 4.88282 7.33491V6.83491C4.75886 6.83491 4.65834 6.73439 4.65834 6.61043H4.15834Z" fill="black"/>
</svg>
