<svg width="24" height="25" viewBox="0 0 24 25" fill="none" xmlns="http://www.w3.org/2000/svg">
<path d="M11 9.17052H13V20.1705H11V9.17052Z" fill="#FCAF17"/>
<path fill-rule="evenodd" clip-rule="evenodd" d="M11.7226 3.18223C11.8905 3.07026 12.1093 3.07026 12.2773 3.18223L20.8487 8.89651C21.032 9.01873 21.1138 9.24655 21.0499 9.45743C20.9861 9.66831 20.7917 9.81254 20.5714 9.81254H18.2142V20.2411H20.5714C20.8475 20.2411 21.0714 20.465 21.0714 20.7411C21.0714 21.0173 20.8475 21.2411 20.5714 21.2411H17.7142H6.28565H3.42851C3.15236 21.2411 2.92851 21.0173 2.92851 20.7411C2.92851 20.465 3.15236 20.2411 3.42851 20.2411H5.78565V9.81254H3.42851C3.20817 9.81254 3.01381 9.66831 2.94996 9.45743C2.88611 9.24655 2.96783 9.01873 3.15116 8.89651L11.7226 3.18223ZM6.78565 9.81254V20.2411H10.5049C10.5017 20.218 10.5 20.1945 10.5 20.1705V9.81254H6.78565ZM11.3491 8.81254C11.259 8.72466 11.1358 8.67052 11 8.67052C10.8642 8.67052 10.741 8.72466 10.6509 8.81254H6.28565H5.07989L11.9999 4.19918L18.92 8.81254H17.7142H13.3491C13.259 8.72466 13.1358 8.67052 13 8.67052C12.8642 8.67052 12.741 8.72466 12.6509 8.81254H11.3491ZM11.5 9.81254V20.1705C11.5 20.1945 11.4983 20.218 11.4951 20.2411H12.5049C12.5017 20.218 12.5 20.1945 12.5 20.1705V9.81254H11.5ZM17.2142 20.2411H13.4951C13.4983 20.218 13.5 20.1945 13.5 20.1705V9.81254H17.2142V20.2411Z" fill="#717171"/>
</svg>
