<svg width="24" height="24" viewBox="0 0 24 24" fill="none" xmlns="http://www.w3.org/2000/svg">
<path d="M11.3813 6.38128C11.5454 6.21719 11.7679 6.125 12 6.125C12.2321 6.125 12.4546 6.21719 12.6187 6.38128C12.7828 6.54538 12.875 6.76794 12.875 7V17C12.875 17.2321 12.7828 17.4546 12.6187 17.6187C12.4546 17.7828 12.2321 17.875 12 17.875C11.7679 17.875 11.5454 17.7828 11.3813 17.6187C11.2172 17.4546 11.125 17.2321 11.125 17V7C11.125 6.76794 11.2172 6.54538 11.3813 6.38128ZM6.38128 12.3813C6.54538 12.2172 6.76794 12.125 7 12.125C7.23206 12.125 7.45462 12.2172 7.61872 12.3813C7.78281 12.5454 7.875 12.7679 7.875 13V17C7.875 17.2321 7.78281 17.4546 7.61872 17.6187C7.45462 17.7828 7.23206 17.875 7 17.875C6.76794 17.875 6.54538 17.7828 6.38128 17.6187C6.21719 17.4546 6.125 17.2321 6.125 17V13C6.125 12.7679 6.21719 12.5454 6.38128 12.3813ZM16.3813 10.3813C16.5454 10.2172 16.7679 10.125 17 10.125C17.2321 10.125 17.4546 10.2172 17.6187 10.3813C17.7828 10.5454 17.875 10.7679 17.875 11V17C17.875 17.2321 17.7828 17.4546 17.6187 17.6187C17.4546 17.7828 17.2321 17.875 17 17.875C16.7679 17.875 16.5454 17.7828 16.3813 17.6187C16.2172 17.4546 16.125 17.2321 16.125 17V11C16.125 10.7679 16.2172 10.5454 16.3813 10.3813ZM5 2.125H19C19.7625 2.125 20.4938 2.4279 21.0329 2.96707C21.5721 3.50624 21.875 4.2375 21.875 5V19C21.875 19.7625 21.5721 20.4938 21.0329 21.0329C20.4938 21.5721 19.7625 21.875 19 21.875H5C4.2375 21.875 3.50624 21.5721 2.96707 21.0329C2.4279 20.4938 2.125 19.7625 2.125 19V5C2.125 4.2375 2.4279 3.50624 2.96707 2.96707C3.50624 2.4279 4.2375 2.125 5 2.125ZM19.7955 19.7955C20.0065 19.5845 20.125 19.2984 20.125 19V5C20.125 4.70163 20.0065 4.41548 19.7955 4.20451C19.5845 3.99353 19.2984 3.875 19 3.875H5C4.70163 3.875 4.41548 3.99353 4.2045 4.2045C3.99353 4.41548 3.875 4.70163 3.875 5V19C3.875 19.2984 3.99353 19.5845 4.20451 19.7955C4.41548 20.0065 4.70163 20.125 5 20.125H19C19.2984 20.125 19.5845 20.0065 19.7955 19.7955Z" fill="#717171" stroke="white" stroke-width="0.25"/>
<circle cx="8" cy="12" r="1" fill="#FCAF17"/>
<circle cx="13" cy="7" r="1" fill="#FCAF17"/>
<circle cx="18" cy="11" r="1" fill="#FCAF17"/>
</svg>
