<svg width="182" height="225" viewBox="0 0 182 225" fill="none" xmlns="http://www.w3.org/2000/svg">
<path d="M166.995 47.9119C155.499 33.9397 135.429 28.0274 119.779 37.8984C105.05 47.1881 98.4605 65.3784 85.1469 76.3726C71.1889 87.8997 55.8224 88.5042 38.9231 86.4468C24.356 84.6739 7.77726 84.9526 2.02048 101.921C-4.22145 120.322 4.98887 141.976 16.1366 156.161C27.1276 170.147 42.456 179.514 59.3489 183.182C93.0166 190.493 132.69 178.267 156.677 152.291C181.475 125.438 192.055 78.3706 166.995 47.9119Z" fill="#F7F7F7"/>
<path d="M147.951 44.1479C147.951 43.3744 147.353 42.7473 146.614 42.7473C145.876 42.7473 145.278 43.3744 145.278 44.1479V58.3957C145.278 59.1692 145.876 59.7963 146.614 59.7963C147.353 59.7963 147.951 59.1692 147.951 58.3957V44.1479Z" fill="#382A73"/>
<path d="M147.951 66.091C147.951 65.3175 147.353 64.6904 146.614 64.6904C145.876 64.6904 145.278 65.3175 145.278 66.091V89.8784C145.278 90.6519 145.876 91.279 146.614 91.279C147.353 91.279 147.951 90.6519 147.951 89.8784V66.091Z" fill="#382A73"/>
<path d="M139.819 0.189941H44.048C40.1555 0.189941 37 3.49379 37 7.56931V216.771C37 220.846 40.1555 224.15 44.048 224.15H139.819C143.712 224.15 146.867 220.846 146.867 216.771V7.56931C146.867 3.49379 143.712 0.189941 139.819 0.189941Z" fill="#FFE9C2"/>
<g clip-path="url(#clip0_118_57652)">
<path fill-rule="evenodd" clip-rule="evenodd" d="M91.5084 169.404C74.969 169.404 75.0007 139.08 91.5084 139.08C108.016 139.08 108.006 169.404 91.5084 169.404Z" fill="#FFD787"/>
<path fill-rule="evenodd" clip-rule="evenodd" d="M99.7925 160.596C99.2985 160.596 98.9302 160.134 99.0445 159.652C99.4119 158.095 99.3917 155.786 99.7063 154.041C100.681 148.644 97.7375 144.693 92.2053 144.766C87.9547 144.802 85.2958 146.803 85.0928 150.116C84.859 153.939 84.2174 156.508 83.0149 158.447C82.4814 159.307 81.1753 158.496 81.7097 157.637C82.7715 155.927 83.3428 153.578 83.5599 150.023C84.0293 142.357 95.2869 141.262 99.4435 146.193C101.165 148.235 101.796 151.12 101.218 154.315C100.727 157.038 101.162 160.596 99.7925 160.596Z" fill="white"/>
<path fill-rule="evenodd" clip-rule="evenodd" d="M94.9969 165.074C94.4537 165.074 94.0705 164.507 94.2937 163.998C96.0964 159.879 100.866 149.558 93.972 147.647C90.9159 146.798 87.7367 148.396 87.5591 151.762C87.3016 156.63 86.2864 159.611 84.365 161.143C83.5775 161.771 82.6194 160.57 83.4078 159.942C84.9398 158.721 85.7959 156.019 86.0254 151.681C86.3928 144.733 95.9523 144.149 98.4266 149.353C100.235 153.154 98.1857 158.934 95.7018 164.614C95.5752 164.902 95.2931 165.075 94.9969 165.075V165.074Z" fill="white"/>
<path fill-rule="evenodd" clip-rule="evenodd" d="M91.7088 165.254C91.104 165.254 90.7199 164.563 91.0794 164.047C92.7899 161.59 97.2691 152.434 92.7697 150.862C91.0689 150.268 90.3314 152.319 90.2427 153.979C90.1029 156.606 86.9949 164.677 85.4321 162.717C85.1676 162.386 85.2221 161.903 85.5543 161.638C86.5405 160.851 88.592 156.093 88.7089 153.897C89.0403 147.646 94.6981 148.306 95.9392 152.136C97.2119 156.062 94.0644 162.447 92.3407 164.923C92.1904 165.139 91.9514 165.254 91.7088 165.254Z" fill="white"/>
<path fill-rule="evenodd" clip-rule="evenodd" d="M88.577 164.278C87.9284 164.278 87.5654 163.51 87.9934 163.009C92.1403 158.164 91.5163 152.589 91.5092 152.534C91.3853 151.525 92.9138 151.349 93.0351 152.348C93.0659 152.603 93.7427 158.656 89.1615 164.01C89.0095 164.188 88.7941 164.278 88.577 164.278V164.278Z" fill="white"/>
<path fill-rule="evenodd" clip-rule="evenodd" d="M110.187 174.482H102.639C101.945 174.482 101.945 173.427 102.639 173.427H110.187C111.708 173.427 112.945 172.191 112.945 170.669V164.205C112.945 163.511 114 163.511 114 164.205V170.669C114 172.772 112.29 174.482 110.187 174.482ZM80.604 174.482H72.8129C70.7105 174.482 69 172.772 69 170.669V164.205C69 163.51 70.0547 163.51 70.0547 164.205V170.669C70.0547 172.19 71.2923 173.427 72.8129 173.427H80.6031C81.2975 173.427 81.2975 174.482 80.6031 174.482H80.604ZM113.473 145.417C113.182 145.417 112.945 145.18 112.945 144.889V137.813C112.945 136.292 111.708 135.055 110.187 135.055H102.641C101.947 135.055 101.947 134 102.641 134H110.187C112.29 134 114 135.71 114 137.813V144.889C114 145.181 113.764 145.417 113.473 145.417ZM69.5274 145.329C69.2364 145.329 69 145.092 69 144.802V137.813C69 135.71 70.7105 134 72.8129 134H80.6172C81.3116 134 81.3116 135.055 80.6172 135.055H72.8129C71.2923 135.055 70.0547 136.292 70.0547 137.813V144.8C70.0547 145.091 69.8183 145.327 69.5274 145.327V145.329Z" fill="#FFD787"/>
<path fill-rule="evenodd" clip-rule="evenodd" d="M110.914 155.425H72.0869C71.3926 155.425 71.3926 154.37 72.0869 154.37H110.914C111.608 154.37 111.608 155.425 110.914 155.425Z" fill="#BCC7DD"/>
</g>
<path d="M78.8613 181.835V182.65H76.5463V189H75.5763V182.65H73.2513V181.835H78.8613ZM80.7351 183.855C81.1051 183.855 81.4384 183.917 81.7351 184.04C82.0351 184.163 82.2884 184.338 82.4951 184.565C82.7051 184.792 82.8651 185.067 82.9751 185.39C83.0884 185.71 83.1451 186.068 83.1451 186.465C83.1451 186.865 83.0884 187.225 82.9751 187.545C82.8651 187.865 82.7051 188.138 82.4951 188.365C82.2884 188.592 82.0351 188.767 81.7351 188.89C81.4384 189.01 81.1051 189.07 80.7351 189.07C80.3651 189.07 80.0301 189.01 79.7301 188.89C79.4334 188.767 79.1801 188.592 78.9701 188.365C78.7601 188.138 78.5984 187.865 78.4851 187.545C78.3717 187.225 78.3151 186.865 78.3151 186.465C78.3151 186.068 78.3717 185.71 78.4851 185.39C78.5984 185.067 78.7601 184.792 78.9701 184.565C79.1801 184.338 79.4334 184.163 79.7301 184.04C80.0301 183.917 80.3651 183.855 80.7351 183.855ZM80.7351 188.375C81.2351 188.375 81.6084 188.208 81.8551 187.875C82.1017 187.538 82.2251 187.07 82.2251 186.47C82.2251 185.867 82.1017 185.397 81.8551 185.06C81.6084 184.723 81.2351 184.555 80.7351 184.555C80.4817 184.555 80.2617 184.598 80.0751 184.685C79.8884 184.772 79.7317 184.897 79.6051 185.06C79.4817 185.223 79.3884 185.425 79.3251 185.665C79.2651 185.902 79.2351 186.17 79.2351 186.47C79.2351 186.77 79.2651 187.038 79.3251 187.275C79.3884 187.512 79.4817 187.712 79.6051 187.875C79.7317 188.035 79.8884 188.158 80.0751 188.245C80.2617 188.332 80.4817 188.375 80.7351 188.375ZM85.0117 183.935V187.165C85.0117 187.548 85.1001 187.845 85.2767 188.055C85.4534 188.265 85.7201 188.37 86.0767 188.37C86.3367 188.37 86.5817 188.308 86.8117 188.185C87.0417 188.062 87.2534 187.89 87.4467 187.67V183.935H88.3367V189H87.8067C87.6801 189 87.6001 188.938 87.5667 188.815L87.4967 188.27C87.2767 188.513 87.0301 188.71 86.7567 188.86C86.4834 189.007 86.1701 189.08 85.8167 189.08C85.5401 189.08 85.2951 189.035 85.0817 188.945C84.8717 188.852 84.6951 188.722 84.5517 188.555C84.4084 188.388 84.3001 188.187 84.2267 187.95C84.1567 187.713 84.1217 187.452 84.1217 187.165V183.935H85.0117ZM93.2534 184.835C93.2267 184.872 93.2 184.9 93.1734 184.92C93.1467 184.94 93.1084 184.95 93.0584 184.95C93.0084 184.95 92.9534 184.93 92.8934 184.89C92.8367 184.847 92.7634 184.8 92.6734 184.75C92.5834 184.7 92.4734 184.655 92.3434 184.615C92.2167 184.572 92.06 184.55 91.8734 184.55C91.6267 184.55 91.4084 184.595 91.2184 184.685C91.0284 184.772 90.8684 184.898 90.7384 185.065C90.6117 185.232 90.515 185.433 90.4484 185.67C90.385 185.907 90.3534 186.172 90.3534 186.465C90.3534 186.772 90.3884 187.045 90.4584 187.285C90.5284 187.522 90.6267 187.722 90.7534 187.885C90.88 188.045 91.0334 188.168 91.2134 188.255C91.3967 188.338 91.6017 188.38 91.8284 188.38C92.045 188.38 92.2234 188.355 92.3634 188.305C92.5034 188.252 92.62 188.193 92.7134 188.13C92.8067 188.067 92.8834 188.01 92.9434 187.96C93.0034 187.907 93.0634 187.88 93.1234 187.88C93.2 187.88 93.2567 187.908 93.2934 187.965L93.5434 188.29C93.3234 188.56 93.0484 188.758 92.7184 188.885C92.3884 189.008 92.04 189.07 91.6734 189.07C91.3567 189.07 91.0617 189.012 90.7884 188.895C90.5184 188.778 90.2834 188.61 90.0834 188.39C89.8834 188.167 89.725 187.893 89.6084 187.57C89.495 187.247 89.4384 186.878 89.4384 186.465C89.4384 186.088 89.49 185.74 89.5934 185.42C89.7 185.1 89.8534 184.825 90.0534 184.595C90.2567 184.362 90.5067 184.18 90.8034 184.05C91.1 183.92 91.44 183.855 91.8234 183.855C92.1767 183.855 92.49 183.913 92.7634 184.03C93.0367 184.143 93.2784 184.305 93.4884 184.515L93.2534 184.835ZM94.4663 189V181.635H95.3563V184.615C95.573 184.385 95.813 184.202 96.0763 184.065C96.3397 183.925 96.643 183.855 96.9863 183.855C97.263 183.855 97.5063 183.902 97.7163 183.995C97.9297 184.085 98.1063 184.215 98.2463 184.385C98.3897 184.552 98.498 184.753 98.5713 184.99C98.6447 185.227 98.6813 185.488 98.6813 185.775V189H97.7913V185.775C97.7913 185.392 97.703 185.095 97.5263 184.885C97.353 184.672 97.0863 184.565 96.7263 184.565C96.463 184.565 96.2163 184.628 95.9863 184.755C95.7597 184.882 95.5497 185.053 95.3563 185.27V189H94.4663ZM101.313 189H100.343V181.835H101.313V189ZM109.439 185.42C109.439 185.957 109.354 186.445 109.184 186.885C109.014 187.325 108.774 187.702 108.464 188.015C108.154 188.328 107.783 188.572 107.349 188.745C106.916 188.915 106.436 189 105.909 189H103.229V181.835H105.909C106.436 181.835 106.916 181.922 107.349 182.095C107.783 182.265 108.154 182.508 108.464 182.825C108.774 183.138 109.014 183.515 109.184 183.955C109.354 184.395 109.439 184.883 109.439 185.42ZM108.444 185.42C108.444 184.98 108.384 184.587 108.264 184.24C108.144 183.893 107.974 183.6 107.754 183.36C107.534 183.12 107.268 182.937 106.954 182.81C106.641 182.683 106.293 182.62 105.909 182.62H104.204V188.215H105.909C106.293 188.215 106.641 188.152 106.954 188.025C107.268 187.898 107.534 187.717 107.754 187.48C107.974 187.24 108.144 186.947 108.264 186.6C108.384 186.253 108.444 185.86 108.444 185.42Z" fill="#717171"/>
<path d="M89.4851 113.855C89.8551 113.855 90.1884 113.917 90.4851 114.04C90.7851 114.163 91.0384 114.338 91.2451 114.565C91.4551 114.792 91.6151 115.067 91.7251 115.39C91.8384 115.71 91.8951 116.068 91.8951 116.465C91.8951 116.865 91.8384 117.225 91.7251 117.545C91.6151 117.865 91.4551 118.138 91.2451 118.365C91.0384 118.592 90.7851 118.767 90.4851 118.89C90.1884 119.01 89.8551 119.07 89.4851 119.07C89.1151 119.07 88.7801 119.01 88.4801 118.89C88.1834 118.767 87.9301 118.592 87.7201 118.365C87.5101 118.138 87.3484 117.865 87.2351 117.545C87.1217 117.225 87.0651 116.865 87.0651 116.465C87.0651 116.068 87.1217 115.71 87.2351 115.39C87.3484 115.067 87.5101 114.792 87.7201 114.565C87.9301 114.338 88.1834 114.163 88.4801 114.04C88.7801 113.917 89.1151 113.855 89.4851 113.855ZM89.4851 118.375C89.9851 118.375 90.3584 118.208 90.6051 117.875C90.8517 117.538 90.9751 117.07 90.9751 116.47C90.9751 115.867 90.8517 115.397 90.6051 115.06C90.3584 114.723 89.9851 114.555 89.4851 114.555C89.2317 114.555 89.0117 114.598 88.8251 114.685C88.6384 114.772 88.4817 114.897 88.3551 115.06C88.2317 115.223 88.1384 115.425 88.0751 115.665C88.0151 115.902 87.9851 116.17 87.9851 116.47C87.9851 116.77 88.0151 117.038 88.0751 117.275C88.1384 117.512 88.2317 117.712 88.3551 117.875C88.4817 118.035 88.6384 118.158 88.8251 118.245C89.0117 118.332 89.2317 118.375 89.4851 118.375ZM92.9917 119V113.935H93.5017C93.5984 113.935 93.6651 113.953 93.7017 113.99C93.7384 114.027 93.7634 114.09 93.7767 114.18L93.8367 114.97C94.0101 114.617 94.2234 114.342 94.4767 114.145C94.7334 113.945 95.0334 113.845 95.3767 113.845C95.5167 113.845 95.6434 113.862 95.7567 113.895C95.8701 113.925 95.9751 113.968 96.0717 114.025L95.9567 114.69C95.9334 114.773 95.8817 114.815 95.8017 114.815C95.7551 114.815 95.6834 114.8 95.5867 114.77C95.4901 114.737 95.3551 114.72 95.1817 114.72C94.8717 114.72 94.6117 114.81 94.4017 114.99C94.1951 115.17 94.0217 115.432 93.8817 115.775V119H92.9917Z" fill="#717171"/>
<g clip-path="url(#clip1_118_57652)">
<path d="M91.5 80C103.926 80 114 69.9264 114 57.5C114 45.0736 103.926 35 91.5 35C79.0736 35 69 45.0736 69 57.5C69 69.9264 79.0736 80 91.5 80Z" fill="#FFD787"/>
<path fill-rule="evenodd" clip-rule="evenodd" d="M100.468 71.8952H96.8341V67.3317C96.8341 67.2052 96.7278 67.1059 96.6083 67.1059C96.4817 67.1059 96.3824 67.2052 96.3824 67.3317V71.8952H86.6105V67.3317C86.6105 67.2052 86.5112 67.1059 86.3917 67.1059C86.2651 67.1059 86.1658 67.2052 86.1658 67.3317V71.8952H82.5321C82.2799 71.8952 82.0804 71.6957 82.0804 71.4435V65.7508C82.0804 62.3632 84.8371 59.5994 88.2248 59.5994H88.9023V59.008C87.361 58.1108 86.3249 56.4376 86.3249 54.5307V48.0999C86.3249 46.6648 87.4937 45.4961 88.9357 45.4961H98.2164C98.4625 45.4961 98.6681 45.6955 98.6681 45.9407V48.2659C98.6681 49.4619 97.8043 50.4585 96.6689 50.6711V54.5307C96.6689 56.4376 95.6328 58.1117 94.0915 59.008V59.5994H94.769C98.1566 59.5994 100.913 62.3632 100.913 65.7508V71.4435C100.913 71.6957 100.714 71.8952 100.469 71.8952H100.468ZM98.3755 59.4861H96.6214C96.3692 59.4861 96.1697 59.2866 96.1697 59.0344C96.1697 58.7822 96.3692 58.5897 96.6214 58.5897H98.3755C98.98 58.5897 99.4651 58.1512 99.4651 57.6266V56.0053C99.4651 55.7592 99.6646 55.5606 99.9168 55.5606C100.169 55.5606 100.369 55.7601 100.369 56.0053V57.6266C100.369 58.6495 99.4783 59.4869 98.3755 59.4869V59.4861ZM86.3715 59.4861H84.6174C83.5216 59.4861 82.6244 58.6495 82.6244 57.6257V56.0044C82.6244 55.7583 82.83 55.5597 83.0761 55.5597C83.3221 55.5597 83.5278 55.7592 83.5278 56.0044V57.6257C83.5278 58.1574 84.0129 58.5888 84.6174 58.5888H86.3715C86.6237 58.5888 86.8232 58.7883 86.8232 59.0335C86.8232 59.2787 86.6237 59.4852 86.3715 59.4852V59.4861ZM99.9168 47.0304C99.6646 47.0304 99.4651 46.8248 99.4651 46.5787V44.9644C99.4651 44.4328 98.98 44.0013 98.3755 44.0013H96.6214C96.3692 44.0013 96.1697 43.7956 96.1697 43.5496C96.1697 43.3035 96.3754 43.0979 96.6214 43.0979H98.3816C99.4774 43.0979 100.368 43.9345 100.368 44.9644V46.5787C100.368 46.8248 100.162 47.0304 99.9159 47.0304H99.9168ZM83.077 47.0304C82.8309 47.0304 82.6323 46.8248 82.6323 46.5787V44.9644C82.6323 43.9345 83.5225 43.0979 84.6183 43.0979H86.3724C86.6246 43.0979 86.824 43.3035 86.824 43.5496C86.824 43.7956 86.6246 44.0013 86.3724 44.0013H84.6183C84.0208 44.0013 83.5287 44.4328 83.5287 44.9644V46.5787C83.5287 46.8248 83.3292 47.0304 83.077 47.0304ZM88.644 52.8496C88.6369 52.8698 88.6369 52.8891 88.6308 52.9023V52.9094C88.5447 53.3813 88.1721 53.76 87.694 53.8461H87.6677L87.6343 53.8532L87.6079 53.8602H87.5218L87.4884 53.8672H87.2292V54.5316C87.2292 56.1661 88.1457 57.587 89.5008 58.3111C89.521 58.3182 89.5403 58.3243 89.5605 58.3375C90.1651 58.6433 90.8163 58.8024 91.5 58.8024C92.1837 58.8024 92.8287 58.6495 93.4333 58.3375C93.4535 58.3243 93.4728 58.3173 93.5 58.3111C94.849 57.587 95.7717 56.1652 95.7717 54.5316L95.7646 53.8672H95.5054C94.8674 53.8672 94.3428 53.3426 94.3428 52.7046V50.7116H88.6501V52.7907L88.6431 52.8171V52.8505L88.644 52.8496ZM91.5008 59.7049C90.9094 59.7049 90.3382 59.6056 89.8066 59.4193V61.625C89.8532 62.5152 90.5975 63.2261 91.5008 63.2261C92.4042 63.2261 93.1881 62.4686 93.1881 61.5318V59.4193C92.6635 59.6056 92.0923 59.7049 91.5008 59.7049Z" fill="white"/>
</g>
<path d="M81.1649 88.835V89.625H77.7249V92.13H80.6649V92.92H77.7249V96H76.7499V88.835H81.1649ZM85.9939 96H85.5989C85.5123 96 85.4423 95.9867 85.3889 95.96C85.3356 95.9333 85.3006 95.8767 85.2839 95.79L85.1839 95.32C85.0506 95.44 84.9206 95.5483 84.7939 95.645C84.6673 95.7383 84.5339 95.8183 84.3939 95.885C84.2539 95.9483 84.1039 95.9967 83.9439 96.03C83.7873 96.0633 83.6123 96.08 83.4189 96.08C83.2223 96.08 83.0373 96.0533 82.8639 96C82.6939 95.9433 82.5456 95.86 82.4189 95.75C82.2923 95.64 82.1906 95.5017 82.1139 95.335C82.0406 95.165 82.0039 94.965 82.0039 94.735C82.0039 94.535 82.0589 94.3433 82.1689 94.16C82.2789 93.9733 82.4556 93.8083 82.6989 93.665C82.9456 93.5217 83.2673 93.405 83.6639 93.315C84.0606 93.2217 84.5456 93.1683 85.1189 93.155V92.76C85.1189 92.3667 85.0339 92.07 84.8639 91.87C84.6973 91.6667 84.4489 91.565 84.1189 91.565C83.9023 91.565 83.7189 91.5933 83.5689 91.65C83.4223 91.7033 83.2939 91.765 83.1839 91.835C83.0773 91.9017 82.9839 91.9633 82.9039 92.02C82.8273 92.0733 82.7506 92.1 82.6739 92.1C82.6139 92.1 82.5606 92.085 82.5139 92.055C82.4706 92.0217 82.4356 91.9817 82.4089 91.935L82.2489 91.65C82.5289 91.38 82.8306 91.1783 83.1539 91.045C83.4773 90.9117 83.8356 90.845 84.2289 90.845C84.5123 90.845 84.7639 90.8917 84.9839 90.985C85.2039 91.0783 85.3889 91.2083 85.5389 91.375C85.6889 91.5417 85.8023 91.7433 85.8789 91.98C85.9556 92.2167 85.9939 92.4767 85.9939 92.76V96ZM83.6839 95.455C83.8406 95.455 83.9839 95.44 84.1139 95.41C84.2439 95.3767 84.3656 95.3317 84.4789 95.275C84.5956 95.215 84.7056 95.1433 84.8089 95.06C84.9156 94.9767 85.0189 94.8817 85.1189 94.775V93.72C84.7089 93.7333 84.3606 93.7667 84.0739 93.82C83.7873 93.87 83.5539 93.9367 83.3739 94.02C83.1939 94.1033 83.0623 94.2017 82.9789 94.315C82.8989 94.4283 82.8589 94.555 82.8589 94.695C82.8589 94.8283 82.8806 94.9433 82.9239 95.04C82.9673 95.1367 83.0256 95.2167 83.0989 95.28C83.1723 95.34 83.2589 95.385 83.3589 95.415C83.4589 95.4417 83.5673 95.455 83.6839 95.455ZM90.7973 91.835C90.7706 91.8717 90.744 91.9 90.7173 91.92C90.6906 91.94 90.6523 91.95 90.6023 91.95C90.5523 91.95 90.4973 91.93 90.4373 91.89C90.3806 91.8467 90.3073 91.8 90.2173 91.75C90.1273 91.7 90.0173 91.655 89.8873 91.615C89.7606 91.5717 89.604 91.55 89.4173 91.55C89.1706 91.55 88.9523 91.595 88.7623 91.685C88.5723 91.7717 88.4123 91.8983 88.2823 92.065C88.1556 92.2317 88.059 92.4333 87.9923 92.67C87.929 92.9067 87.8973 93.1717 87.8973 93.465C87.8973 93.7717 87.9323 94.045 88.0023 94.285C88.0723 94.5217 88.1706 94.7217 88.2973 94.885C88.424 95.045 88.5773 95.1683 88.7573 95.255C88.9406 95.3383 89.1456 95.38 89.3723 95.38C89.589 95.38 89.7673 95.355 89.9073 95.305C90.0473 95.2517 90.164 95.1933 90.2573 95.13C90.3506 95.0667 90.4273 95.01 90.4873 94.96C90.5473 94.9067 90.6073 94.88 90.6673 94.88C90.744 94.88 90.8006 94.9083 90.8373 94.965L91.0873 95.29C90.8673 95.56 90.5923 95.7583 90.2623 95.885C89.9323 96.0083 89.584 96.07 89.2173 96.07C88.9006 96.07 88.6056 96.0117 88.3323 95.895C88.0623 95.7783 87.8273 95.61 87.6273 95.39C87.4273 95.1667 87.269 94.8933 87.1523 94.57C87.039 94.2467 86.9823 93.8783 86.9823 93.465C86.9823 93.0883 87.034 92.74 87.1373 92.42C87.244 92.1 87.3973 91.825 87.5973 91.595C87.8006 91.3617 88.0506 91.18 88.3473 91.05C88.644 90.92 88.984 90.855 89.3673 90.855C89.7206 90.855 90.034 90.9133 90.3073 91.03C90.5806 91.1433 90.8223 91.305 91.0323 91.515L90.7973 91.835ZM94.0153 90.855C94.3186 90.855 94.5986 90.9067 94.8553 91.01C95.1119 91.11 95.3336 91.2567 95.5203 91.45C95.7069 91.64 95.8519 91.8767 95.9553 92.16C96.0619 92.44 96.1153 92.76 96.1153 93.12C96.1153 93.26 96.1003 93.3533 96.0703 93.4C96.0403 93.4467 95.9836 93.47 95.9003 93.47H92.5303C92.5369 93.79 92.5803 94.0683 92.6603 94.305C92.7403 94.5417 92.8503 94.74 92.9903 94.9C93.1303 95.0567 93.2969 95.175 93.4903 95.255C93.6836 95.3317 93.9003 95.37 94.1403 95.37C94.3636 95.37 94.5553 95.345 94.7153 95.295C94.8786 95.2417 95.0186 95.185 95.1353 95.125C95.2519 95.065 95.3486 95.01 95.4253 94.96C95.5053 94.9067 95.5736 94.88 95.6303 94.88C95.7036 94.88 95.7603 94.9083 95.8003 94.965L96.0503 95.29C95.9403 95.4233 95.8086 95.54 95.6553 95.64C95.5019 95.7367 95.3369 95.8167 95.1603 95.88C94.9869 95.9433 94.8069 95.99 94.6203 96.02C94.4336 96.0533 94.2486 96.07 94.0653 96.07C93.7153 96.07 93.3919 96.0117 93.0953 95.895C92.8019 95.775 92.5469 95.6017 92.3303 95.375C92.1169 95.145 91.9503 94.8617 91.8303 94.525C91.7103 94.1883 91.6503 93.8017 91.6503 93.365C91.6503 93.0117 91.7036 92.6817 91.8103 92.375C91.9203 92.0683 92.0769 91.8033 92.2803 91.58C92.4836 91.3533 92.7319 91.1767 93.0253 91.05C93.3186 90.92 93.6486 90.855 94.0153 90.855ZM94.0353 91.51C93.6053 91.51 93.2669 91.635 93.0203 91.885C92.7736 92.1317 92.6203 92.475 92.5603 92.915H95.3153C95.3153 92.7083 95.2869 92.52 95.2303 92.35C95.1736 92.1767 95.0903 92.0283 94.9803 91.905C94.8703 91.7783 94.7353 91.6817 94.5753 91.615C94.4186 91.545 94.2386 91.51 94.0353 91.51ZM98.5444 96H97.5744V88.835H98.5444V96ZM106.671 92.42C106.671 92.9567 106.586 93.445 106.416 93.885C106.246 94.325 106.006 94.7017 105.696 95.015C105.386 95.3283 105.014 95.5717 104.581 95.745C104.147 95.915 103.667 96 103.141 96H100.461V88.835H103.141C103.667 88.835 104.147 88.9217 104.581 89.095C105.014 89.265 105.386 89.5083 105.696 89.825C106.006 90.1383 106.246 90.515 106.416 90.955C106.586 91.395 106.671 91.8833 106.671 92.42ZM105.676 92.42C105.676 91.98 105.616 91.5867 105.496 91.24C105.376 90.8933 105.206 90.6 104.986 90.36C104.766 90.12 104.499 89.9367 104.186 89.81C103.872 89.6833 103.524 89.62 103.141 89.62H101.436V95.215H103.141C103.524 95.215 103.872 95.1517 104.186 95.025C104.499 94.8983 104.766 94.7167 104.986 94.48C105.206 94.24 105.376 93.9467 105.496 93.6C105.616 93.2533 105.676 92.86 105.676 92.42Z" fill="#717171"/>
<defs>
<clipPath id="clip0_118_57652">
<rect width="45" height="40.4822" fill="white" transform="translate(69 134)"/>
</clipPath>
<clipPath id="clip1_118_57652">
<rect width="45" height="45" fill="white" transform="translate(69 35)"/>
</clipPath>
</defs>
</svg>
