<svg width="8" height="12" viewBox="0 0 8 12" fill="none" xmlns="http://www.w3.org/2000/svg">
<path fill-rule="evenodd" clip-rule="evenodd" d="M7.7428 7.06054L4.14912 11.6801C4.11133 11.7245 4.05597 11.7501 3.99767 11.7501C3.93938 11.7501 3.88402 11.7245 3.84623 11.6801L0.252547 7.06054C0.206829 7.0028 0.198337 6.92394 0.230733 6.85779C0.263359 6.7919 0.330472 6.75016 0.403996 6.75H7.59136C7.6649 6.75015 7.732 6.7919 7.76463 6.85779C7.79701 6.92394 7.78853 7.0028 7.74281 7.06054H7.7428Z" fill="black"/>
<path opacity="0.4" fill-rule="evenodd" clip-rule="evenodd" d="M7.74291 4.93862L4.14929 0.319093C4.1115 0.274723 4.05614 0.249163 3.99784 0.249163C3.93955 0.249163 3.88419 0.274723 3.8464 0.319093L0.252777 4.93862C0.207059 4.99636 0.198567 5.07522 0.230963 5.14137C0.263589 5.20725 0.330701 5.249 0.404224 5.24916H7.59148C7.66501 5.24901 7.73211 5.20726 7.76474 5.14138C7.79712 5.07523 7.78864 4.99637 7.74292 4.93863L7.74291 4.93862Z" fill="black"/>
</svg>
