<svg width="24" height="24" viewBox="0 0 24 24" fill="none" xmlns="http://www.w3.org/2000/svg">
<g clip-path="url(#clip0_6615_33301)">
<path d="M12.0234 1.03125L7.89844 3.21094V7.94531L12.0234 9.89062L16.0547 7.94531V3.21094L12.0234 1.03125Z" fill="#FCAF17"/>
<path d="M21.1875 17.0392V12.7497H12.7031V10.3718L16.9219 8.26238V2.47223L12 0.000328064L7.07812 2.47223V8.26233L11.2969 10.3717V12.7496H2.8125V17.0391C1.20975 17.3657 0 18.7862 0 20.484C0 22.4225 1.57711 23.9996 3.51562 23.9996C5.45414 23.9996 7.03125 22.4225 7.03125 20.484C7.03125 18.7862 5.8215 17.3658 4.21875 17.0391V14.1559H11.2969V17.0391C9.69412 17.3657 8.48438 18.7862 8.48438 20.484C8.48438 22.4225 10.0615 23.9996 12 23.9996C13.9385 23.9996 15.5156 22.4225 15.5156 20.484C15.5156 18.7862 14.3059 17.3658 12.7031 17.0391V14.1559H19.7812V17.0391C18.1785 17.3657 16.9688 18.7862 16.9688 20.484C16.9688 22.4225 18.5459 23.9996 20.4844 23.9996C22.4229 23.9996 24 22.4225 24 20.484C24 18.7863 22.7903 17.3658 21.1875 17.0392ZM12.7031 8.79947V5.44983L15.5156 4.04358V7.39322L12.7031 8.79947ZM14.6493 2.90452L12 4.22916L9.35067 2.90452L12 1.57397L14.6493 2.90452ZM8.48438 7.39322V4.04358L11.2969 5.44983V8.79947L8.48438 7.39322ZM5.625 20.484C5.625 21.6472 4.67873 22.5934 3.51562 22.5934C2.35252 22.5934 1.40625 21.6472 1.40625 20.484C1.40625 19.3209 2.35252 18.3747 3.51562 18.3747C4.67873 18.3747 5.625 19.3209 5.625 20.484ZM14.1094 20.484C14.1094 21.6472 13.1631 22.5934 12 22.5934C10.8369 22.5934 9.89062 21.6472 9.89062 20.484C9.89062 19.3209 10.8369 18.3747 12 18.3747C13.1631 18.3747 14.1094 19.3209 14.1094 20.484ZM20.4844 22.5934C19.3213 22.5934 18.375 21.6472 18.375 20.484C18.375 19.3209 19.3213 18.3747 20.4844 18.3747C21.6475 18.3747 22.5938 19.3209 22.5938 20.484C22.5938 21.6472 21.6475 22.5934 20.4844 22.5934Z" fill="#717171"/>
</g>
<defs>
<clipPath id="clip0_6615_33301">
<rect width="24" height="24" fill="white"/>
</clipPath>
</defs>
</svg>
