<svg width="19" height="18" viewBox="0 0 19 18" fill="none" xmlns="http://www.w3.org/2000/svg">
<path d="M0.694702 3.8722C1.32503 5.89042 1.95537 7.89603 2.5857 9.91425C2.77866 10.1918 3.08739 10.5576 3.57622 10.8351C4.14223 11.163 5.49294 11.3775 6.72788 11.1126C8.34873 10.772 7.79558 13.0803 9.81522 12.8659C11.063 12.7271 10.8315 11.2892 11.2045 11.0747C11.8734 10.6837 12.6453 11.4279 14.4462 10.8351C15.0251 10.6459 15.7712 10.3936 16.543 9.75027C18.3826 8.19876 19.2059 5.29757 18.2282 4.31369C17.6622 3.74606 16.6074 3.92266 16.17 3.98573C13.7258 4.36414 9.2492 4.47767 0.694702 3.85959V3.8722Z" fill="#FECD1A"/>
<path d="M0 3.63254V15.9941C0 16.5239 0.218687 17.0285 0.59174 17.4069C0.977657 17.7853 1.49221 17.9871 2.0325 17.9871H16.9546C17.4949 17.9871 18.0095 17.7727 18.3954 17.4069C18.7813 17.0285 18.9871 16.5239 18.9871 15.9941V3.63254H0ZM17.8551 15.3761C17.8551 15.8428 17.6622 16.2843 17.3277 16.6248C16.9932 16.9528 16.5301 17.142 16.0542 17.142H2.93297C2.45701 17.142 2.00677 16.9528 1.65944 16.6248C1.32498 16.2969 1.13202 15.8428 1.13202 15.3761L1.04198 4.40198H17.7651L17.8551 15.3761Z" fill="#717171"/>
<path d="M6.3548 4.54075C6.22616 4.54075 6.09752 4.4903 6.00747 4.402C5.91742 4.3137 5.86597 4.18756 5.86597 4.06142V1.87922C5.86597 1.38728 6.05893 0.920569 6.41911 0.56738C6.7793 0.214192 7.24241 -0.000244141 7.75696 -0.000244141H11.2431C11.7448 -0.000244141 12.2207 0.188964 12.5809 0.542152C12.9411 0.895341 13.1341 1.36205 13.1341 1.854V4.0362C13.1341 4.16233 13.0826 4.28847 12.9926 4.37677C12.9025 4.46507 12.7739 4.51552 12.6452 4.51552H6.36766L6.3548 4.54075ZM12.1436 3.56948V1.86661C12.1436 1.62695 12.0535 1.41251 11.8734 1.23592C11.7062 1.07194 11.4746 0.971024 11.2302 0.971024H7.7441C7.49968 0.971024 7.26813 1.07194 7.1009 1.23592C6.93367 1.3999 6.83076 1.62695 6.83076 1.86661V3.56948H12.1178H12.1436Z" fill="#717171"/>
<path d="M12.6452 4.41461H6.36764C6.26472 4.41461 6.17468 4.37677 6.11036 4.3137C6.04604 4.25063 6.00745 4.14972 6.00745 4.06142V1.87922C6.00745 1.42512 6.20041 0.983639 6.522 0.655678C6.85646 0.327717 7.3067 0.151123 7.7698 0.151123H11.2559C11.719 0.151123 12.1693 0.340331 12.5037 0.655678C12.8382 0.983639 13.0183 1.42512 13.0183 1.87922V4.06142C13.0183 4.16234 12.9797 4.25063 12.9154 4.3137C12.851 4.37677 12.7481 4.41461 12.6581 4.41461H12.6452ZM6.72783 3.69562H12.2722V1.86661C12.2722 1.60172 12.1693 1.33683 11.9763 1.14762C11.7833 0.958411 11.5261 0.8575 11.2431 0.8575H7.75694C7.4868 0.8575 7.21665 0.958411 7.0237 1.14762C6.83074 1.33683 6.72783 1.5891 6.72783 1.86661V3.69562Z" fill="#717171"/>
<path d="M7.79553 9.44754V11.8442C7.79553 12.2857 7.97563 12.7145 8.29722 13.0299C8.61882 13.3452 9.0562 13.5218 9.50643 13.5218C9.95667 13.5218 10.394 13.3452 10.7156 13.0299C11.0372 12.7145 11.2173 12.2857 11.2173 11.8442V9.44754H7.8084H7.79553ZM10.6642 11.7307C10.6642 12.0334 10.5484 12.3235 10.3297 12.5379C10.111 12.7524 9.81517 12.8659 9.50643 12.8659C9.1977 12.8659 8.90183 12.7524 8.68314 12.5379C8.46446 12.3235 8.34868 12.0334 8.34868 11.7307V10.1035H10.6642V11.7307Z" fill="#717171"/>
<path d="M0 3.63254L1.81381 10.2674C1.87813 10.5576 2.04536 10.8224 2.27691 11.0117C2.50846 11.2009 2.80433 11.3144 3.11307 11.327H7.78267V10.3305H3.82058C3.55044 10.3305 3.29316 10.2422 3.07448 10.0908C2.86865 9.93948 2.71429 9.73765 2.66283 9.5106L1.05484 4.4146H17.9452L16.3243 9.52322C16.26 9.75027 16.1185 9.95209 15.9127 10.1035C15.7068 10.2548 15.4367 10.3305 15.1666 10.3431H11.2045V11.3396H15.8741C16.1828 11.3396 16.4787 11.2135 16.7102 11.0243C16.9418 10.8351 17.109 10.5702 17.1733 10.28L18.9871 3.64515H0V3.63254Z" fill="#717171"/>
</svg>
