<svg width="27" height="21" viewBox="0 0 27 21" fill="none" xmlns="http://www.w3.org/2000/svg">
<path d="M9.55546 6.55347L7.64453 12.2863L19.8745 12.6684L16.817 6.55347H9.55546Z" fill="#FCAF17" stroke="#FCAF17"/>
<path fill-rule="evenodd" clip-rule="evenodd" d="M14.5532 19.3833L16.5723 14.1285H19.7981H23.0247L25.0438 19.3833H14.5532ZM1.71191 19.3833L3.73102 14.1285H6.95767H10.1834L12.2025 19.3833H1.71191ZM13.3777 17.9387L11.9143 14.1285H14.842L13.3777 17.9387ZM10.1512 7.25768H16.6027L18.6218 12.5124H16.4294H10.3254H8.13298L10.1512 7.25768ZM26.6595 19.087L24.4796 13.4139C24.2714 12.8743 23.7435 12.5125 23.1653 12.5125H20.3516L18.0587 6.5458C17.8522 6.00443 17.3243 5.64172 16.7443 5.64172H10.0073C9.42733 5.64172 8.90034 6.00443 8.69385 6.54399L6.4 12.5125H3.58813C3.00995 12.5125 2.48295 12.8743 2.27376 13.4148L0.0939357 19.0879C-0.0730577 19.5197 -0.0146931 20.0072 0.247458 20.3888C0.510511 20.7712 0.943249 21.0001 1.4074 21.0001H13.3767H25.346C25.8101 21.0001 26.2429 20.7712 26.5059 20.3888C26.7681 20.0072 26.8255 19.5197 26.6595 19.087L26.6595 19.087Z" fill="#717171"/>
<path fill-rule="evenodd" clip-rule="evenodd" d="M6.56713 5.31242C6.71729 5.437 6.89784 5.49705 7.0775 5.49705C7.30989 5.49705 7.54049 5.39667 7.69869 5.20308C7.98203 4.85891 7.93288 4.35073 7.59055 4.06752L6.96487 3.55127C6.62075 3.26625 6.11396 3.31734 5.8333 3.66061C5.54996 4.00478 5.59912 4.51296 5.94234 4.79617L6.56713 5.31242Z" fill="#717171"/>
<path fill-rule="evenodd" clip-rule="evenodd" d="M19.6784 5.49676C19.8581 5.49676 20.0386 5.43673 20.1888 5.31219L20.8136 4.7961C21.1568 4.51386 21.2051 4.00494 20.9226 3.66089C20.642 3.31862 20.1352 3.26755 19.7901 3.55158L19.1653 4.06767C18.8221 4.3499 18.7738 4.85883 19.0563 5.20288C19.2154 5.39641 19.446 5.49676 19.6784 5.49676H19.6784Z" fill="#717171"/>
<path fill-rule="evenodd" clip-rule="evenodd" d="M22.2866 10.6946H23.1753C23.6223 10.6946 23.9848 10.3314 23.9848 9.88342C23.9848 9.43549 23.6223 9.07228 23.1753 9.07228H22.2866C21.8396 9.07228 21.4771 9.43548 21.4771 9.88342C21.4771 10.3313 21.8396 10.6946 22.2866 10.6946Z" fill="#717171"/>
<path fill-rule="evenodd" clip-rule="evenodd" d="M3.58013 10.6946H4.46879C4.91581 10.6946 5.2783 10.3314 5.2783 9.88342C5.2783 9.43549 4.91582 9.07228 4.46879 9.07228H3.58013C3.13311 9.07228 2.77062 9.43548 2.77062 9.88342C2.77062 10.3313 3.1331 10.6946 3.58013 10.6946Z" fill="#717171"/>
<path fill-rule="evenodd" clip-rule="evenodd" d="M13.3776 3.34724C13.8219 3.34724 14.1823 2.9847 14.1823 2.53759V1.8035C14.1823 1.3564 13.8219 0.993843 13.3776 0.993843C12.9332 0.993843 12.5729 1.35638 12.5729 1.8035V2.53668C12.5729 2.98379 12.9332 3.34723 13.3776 3.34723V3.34724Z" fill="#717171"/>
</svg>
