<svg width="24" height="24" viewBox="0 0 24 24" fill="none" xmlns="http://www.w3.org/2000/svg">
<circle cx="8.10059" cy="7.5" r="1.5" fill="#FCAF17"/>
<path d="M7.75827 10.7568C8.35162 10.7568 8.93164 10.5809 9.42498 10.2512C9.91833 9.92157 10.3028 9.45304 10.5299 8.90486C10.757 8.35668 10.8164 7.75348 10.7006 7.17154C10.5849 6.58959 10.2992 6.05504 9.87959 5.63549C9.46004 5.21593 8.92549 4.93021 8.34354 4.81445C7.7616 4.6987 7.1584 4.75811 6.61022 4.98517C6.06204 5.21223 5.59351 5.59675 5.26386 6.0901C4.93422 6.58344 4.75827 7.16346 4.75827 7.75681C4.75914 8.55219 5.07549 9.31475 5.63791 9.87717C6.20033 10.4396 6.96289 10.7559 7.75827 10.7568ZM7.75827 6.75681C7.95605 6.75681 8.14939 6.81546 8.31384 6.92534C8.47829 7.03522 8.60646 7.1914 8.68215 7.37412C8.75784 7.55685 8.77764 7.75792 8.73906 7.9519C8.70047 8.14588 8.60523 8.32406 8.46538 8.46391C8.32553 8.60377 8.14734 8.69901 7.95336 8.73759C7.75938 8.77618 7.55832 8.75637 7.37559 8.68069C7.19286 8.605 7.03668 8.47683 6.9268 8.31238C6.81692 8.14793 6.75827 7.95459 6.75827 7.75681C6.75845 7.49165 6.86386 7.23739 7.05136 7.0499C7.23886 6.8624 7.49311 6.75699 7.75827 6.75681ZM16.2427 13.2412C15.6493 13.2412 15.0693 13.4171 14.5759 13.7468C14.0826 14.0764 13.6981 14.545 13.471 15.0931C13.244 15.6413 13.1845 16.2445 13.3003 16.8265C13.4161 17.4084 13.7018 17.943 14.1213 18.3625C14.5409 18.7821 15.0754 19.0678 15.6574 19.1835C16.2393 19.2993 16.8425 19.2399 17.3907 19.0128C17.9389 18.7858 18.4074 18.4012 18.7371 17.9079C19.0667 17.4146 19.2427 16.8345 19.2427 16.2412C19.2418 15.4458 18.9254 14.6832 18.363 14.1208C17.8006 13.5584 17.038 13.2421 16.2427 13.2412ZM16.2427 17.2412C16.0449 17.2412 15.8515 17.1825 15.6871 17.0727C15.5226 16.9628 15.3945 16.8066 15.3188 16.6239C15.2431 16.4411 15.2233 16.2401 15.2619 16.0461C15.3005 15.8521 15.3957 15.6739 15.5355 15.5341C15.6754 15.3942 15.8536 15.299 16.0476 15.2604C16.2415 15.2218 16.4426 15.2416 16.6253 15.3173C16.8081 15.393 16.9642 15.5212 17.0741 15.6856C17.184 15.8501 17.2427 16.0434 17.2427 16.2412C17.2425 16.5064 17.1371 16.7606 16.9496 16.9481C16.7621 17.1356 16.5078 17.241 16.2427 17.2412ZM19.7075 4.292C19.6146 4.19912 19.5044 4.12544 19.3831 4.07517C19.2618 4.0249 19.1318 3.99902 19.0004 3.99902C18.8691 3.99902 18.7391 4.0249 18.6178 4.07517C18.4965 4.12544 18.3862 4.19912 18.2934 4.292L4.2934 18.292C4.1996 18.3846 4.12504 18.4949 4.07401 18.6165C4.02299 18.738 3.99651 18.8685 3.9961 19.0003C3.99569 19.1322 4.02135 19.2628 4.07161 19.3847C4.12188 19.5065 4.19575 19.6173 4.28897 19.7105C4.38219 19.8037 4.49293 19.8776 4.61482 19.9278C4.7367 19.9781 4.86731 20.0038 4.99915 20.0033C5.13099 20.0029 5.26144 19.9764 5.383 19.9254C5.50456 19.8744 5.61483 19.7998 5.70746 19.706L19.7075 5.706C19.8003 5.61317 19.874 5.50295 19.9243 5.38164C19.9745 5.26033 20.0004 5.13031 20.0004 4.999C20.0004 4.86769 19.9745 4.73766 19.9243 4.61635C19.874 4.49504 19.8003 4.38483 19.7075 4.292Z" fill="#717171"/>
</svg>
