<svg width="24" height="24" viewBox="0 0 24 24" fill="none" xmlns="http://www.w3.org/2000/svg">
<g clip-path="url(#clip0_260_5188)">
<path d="M15.5798 20.3923V21.9961C15.5798 22.6605 17.3749 23.199 19.5894 23.199C21.8039 23.199 23.5989 22.6605 23.5989 21.9961V20.3923" fill="#F8CF26"/>
<path d="M9.96643 16.3827C11.738 16.3827 13.1741 14.9466 13.1741 13.1751C13.1741 11.4035 11.738 9.96741 9.96643 9.96741C8.1949 9.96741 6.75879 11.4035 6.75879 13.1751C6.75879 14.9466 8.1949 16.3827 9.96643 16.3827Z" fill="#FCAF17"/>
<path d="M15.5798 18.7885V20.3923C15.5798 21.0567 17.3749 21.5951 19.5894 21.5951C21.8039 21.5951 23.5989 21.0567 23.5989 20.3923V18.7885" fill="#FCAF17"/>
<path d="M15.5798 17.1846V18.7885C15.5798 19.4528 17.3749 19.9913 19.5894 19.9913C21.8039 19.9913 23.5989 19.4528 23.5989 18.7885V17.1846" fill="#FCAF17"/>
<path d="M15.5798 15.5808V17.1846C15.5798 17.849 17.3749 18.3875 19.5894 18.3875C21.8039 18.3875 23.5989 17.849 23.5989 17.1846V15.5808" fill="#FCAF17"/>
<path d="M15.5798 13.977V15.5808C15.5798 16.2452 17.3749 16.7837 19.5894 16.7837C21.8039 16.7837 23.5989 16.2452 23.5989 15.5808V13.977" fill="#FCAF17"/>
<path d="M15.5798 12.3732V13.977C15.5798 14.6414 17.3749 15.1799 19.5894 15.1799C21.8039 15.1799 23.5989 14.6414 23.5989 13.977V12.3732" fill="#FCAF17"/>
<path d="M19.5894 13.576C21.8038 13.576 23.5989 13.0375 23.5989 12.3732C23.5989 11.7088 21.8038 11.1703 19.5894 11.1703C17.375 11.1703 15.5798 11.7088 15.5798 12.3732C15.5798 13.0375 17.375 13.576 19.5894 13.576Z" fill="#FCAF17"/>
<path d="M20.735 9.56725H20.3918H20.3914H20.391L20.3906 9.90645L20.3906 9.56725H20.0478C20.048 9.75643 20.2013 9.90986 20.3906 9.91006H20.3914C20.581 9.91026 20.7348 9.7568 20.735 9.56725ZM20.735 9.56725L20.3918 9.56688L20.3914 9.56688L20.391 9.56688L20.3916 9.01996H20.3916H20.3916H20.3916H20.3916H20.3917H20.3917H20.3917H20.3917H20.3917H20.3917H20.3918H20.3918H20.3918H20.3918H20.3918H20.3918H20.3918H20.3919H20.3919H20.3919H20.3919H20.3919H20.3919H20.3919H20.392H20.392H20.392H20.392H20.392H20.392H20.3921H20.3921H20.3921H20.3921H20.3921H20.3921H20.3921H20.3922H20.3922H20.3922V8.91006C20.3923 8.91006 20.3924 8.91006 20.3925 8.91006C20.5181 8.91035 20.6354 8.94588 20.735 9.00726V9.56644V9.56717V9.56725ZM20.3906 9.56688L20.0478 9.56652C20.0478 9.5665 20.0478 9.56647 20.0478 9.56644V9.01996L20.3906 9.56688Z" stroke="#717171" stroke-width="2"/>
<mask id="path-10-inside-1_260_5188" fill="white">
<path d="M1.76349 2.86087C1.68646 2.90994 1.63198 2.98747 1.61193 3.07658L0.810021 6.68518C0.768823 6.87053 0.885701 7.05416 1.07104 7.09536C1.25638 7.13656 1.44002 7.01968 1.48122 6.83434L2.20815 3.56214L17.9104 7.09496C17.9352 7.10073 17.9606 7.10353 17.9862 7.10338C18.1759 7.10303 18.3295 6.94891 18.3292 6.75916C18.3289 6.59873 18.2177 6.4599 18.0611 6.42456L2.02291 2.81596C1.9339 2.79612 1.84063 2.81225 1.76349 2.86087Z"/>
</mask>
<path d="M1.76349 2.86087L0.697067 1.16888L0.689032 1.174L1.76349 2.86087ZM1.61193 3.07658L-0.339306 2.63761L-0.340442 2.64272L1.61193 3.07658ZM0.810021 6.68518L2.76237 7.11916L2.76239 7.11905L0.810021 6.68518ZM1.48122 6.83434L3.43357 7.26831L3.43362 7.26807L1.48122 6.83434ZM2.20815 3.56214L2.64716 1.61092L0.690658 1.17073L0.255751 3.12841L2.20815 3.56214ZM17.9104 7.09496L18.3621 5.1466L18.3494 5.14374L17.9104 7.09496ZM17.9862 7.10338L17.9825 5.10337L17.9744 5.10342L17.9862 7.10338ZM18.3292 6.75916L20.3292 6.75599V6.75541L18.3292 6.75916ZM18.0611 6.42456L18.5015 4.47365L18.5002 4.47334L18.0611 6.42456ZM2.02291 2.81596L2.46194 0.86474L2.45817 0.8639L2.02291 2.81596ZM0.689032 1.174C0.166418 1.50688 -0.203283 2.03302 -0.339299 2.63761L3.56316 3.51556C3.46724 3.94192 3.2065 4.31299 2.83795 4.54774L0.689032 1.174ZM-0.340442 2.64272L-1.14235 6.25132L2.76239 7.11905L3.56431 3.51045L-0.340442 2.64272ZM-1.14233 6.25121C-1.42327 7.5151 -0.626235 8.7669 0.63707 9.04771L1.50502 5.14301C2.39764 5.34143 2.96091 6.22596 2.76237 7.11916L-1.14233 6.25121ZM0.63707 9.04771C1.90096 9.32865 3.15276 8.53161 3.43357 7.26831L-0.471129 6.40037C-0.272716 5.50775 0.61181 4.94447 1.50502 5.14301L0.63707 9.04771ZM3.43362 7.26807L4.16056 3.99588L0.255751 3.12841L-0.471182 6.40061L3.43362 7.26807ZM1.76915 5.51337L17.4714 9.04619L18.3494 5.14374L2.64716 1.61092L1.76915 5.51337ZM17.4586 9.04328C17.6367 9.08457 17.8177 9.10441 17.9979 9.10335L17.9744 5.10342C18.1036 5.10265 18.2338 5.11689 18.3621 5.14664L17.4586 9.04328ZM17.9899 9.10338C19.2841 9.10099 20.3312 8.04992 20.3292 6.75599L16.3292 6.76233C16.3277 5.8479 17.0677 5.10508 17.9825 5.10338L17.9899 9.10338ZM20.3292 6.75541C20.3271 5.66123 19.5684 4.71449 18.5015 4.47366L17.6207 8.37547C16.8669 8.20531 16.3306 7.53623 16.3292 6.76291L20.3292 6.75541ZM18.5002 4.47334L2.46194 0.864744L1.58389 4.76718L17.6221 8.37578L18.5002 4.47334ZM2.45817 0.8639C1.85421 0.729234 1.2211 0.838618 0.69708 1.1689L2.82991 4.55284C2.46015 4.78589 2.01359 4.863 1.58765 4.76803L2.45817 0.8639Z" fill="#717171" mask="url(#path-10-inside-1_260_5188)"/>
<path d="M16.1135 4.43625L15.9808 4.75427L15.8482 5.0722C15.8481 5.07219 15.8481 5.07218 15.8481 5.07217L15.3335 4.85776C15.3148 4.74138 15.3272 4.61855 15.3759 4.50186C15.4245 4.38525 15.5029 4.29016 15.5985 4.22167L16.1131 4.43608L16.1134 4.43622L16.1135 4.43625ZM16.1135 4.43625L15.981 4.75434L15.8485 5.07233C16.024 5.14532 16.2255 5.06241 16.2988 4.88693C16.372 4.71131 16.2891 4.50953 16.1135 4.43625Z" stroke="#717171" stroke-width="2"/>
<mask id="path-13-inside-2_260_5188" fill="white">
<path d="M16.7002 9.9674C16.7002 9.77765 16.5463 9.62378 16.3566 9.62378H13.1742C12.9844 9.62378 12.8306 9.77765 12.8306 9.9674C12.8306 10.1572 12.9844 10.311 13.1742 10.311H16.3566C16.5463 10.311 16.7002 10.1572 16.7002 9.9674Z"/>
</mask>
<path d="M16.3566 10.311V8.31102V10.311ZM18.7002 9.9674C18.7002 8.67307 17.6509 7.62378 16.3566 7.62378V11.6238C15.4418 11.6238 14.7002 10.8822 14.7002 9.9674H18.7002ZM16.3566 7.62378H13.1742V11.6238H16.3566V7.62378ZM13.1742 7.62378C11.8799 7.62378 10.8306 8.67308 10.8306 9.9674H14.8306C14.8306 10.8822 14.089 11.6238 13.1742 11.6238V7.62378ZM10.8306 9.9674C10.8306 11.2617 11.8799 12.311 13.1742 12.311V8.31102C14.089 8.31102 14.8306 9.05259 14.8306 9.9674H10.8306ZM13.1742 12.311H16.3566V8.31102H13.1742V12.311ZM16.3566 12.311C17.6507 12.311 18.7002 11.262 18.7002 9.9674H14.7002C14.7002 9.05244 15.4419 8.31102 16.3566 8.31102V12.311Z" fill="#717171" mask="url(#path-13-inside-2_260_5188)"/>
<mask id="path-15-inside-3_260_5188" fill="white">
<path d="M9.96664 16.7035C11.9153 16.7035 13.4951 15.1238 13.4951 13.1751C13.4951 11.2264 11.9153 9.64667 9.96664 9.64667C8.01795 9.64667 6.43823 11.2264 6.43823 13.1751C6.44024 15.123 8.0188 16.7015 9.96664 16.7035ZM9.96664 10.2882C11.561 10.2882 12.8535 11.5807 12.8535 13.1751C12.8535 14.7695 11.561 16.062 9.96664 16.062C8.37224 16.062 7.07976 14.7695 7.07976 13.1751C7.08152 11.5814 8.37299 10.29 9.96664 10.2882Z"/>
</mask>
<path d="M9.96664 16.7035L9.96464 18.7035H9.96664V16.7035ZM6.43823 13.1751H4.43823L4.43823 13.1771L6.43823 13.1751ZM9.96664 10.2882V8.28819L9.96438 8.2882L9.96664 10.2882ZM7.07976 13.1751L5.07976 13.1729V13.1751H7.07976ZM9.96664 18.7035C13.0199 18.7035 15.4951 16.2283 15.4951 13.1751H11.4951C11.4951 14.0192 10.8108 14.7035 9.96664 14.7035V18.7035ZM15.4951 13.1751C15.4951 10.1218 13.0199 7.64667 9.96664 7.64667V11.6467C10.8108 11.6467 11.4951 12.331 11.4951 13.1751H15.4951ZM9.96664 7.64667C6.91338 7.64667 4.43823 10.1218 4.43823 13.1751H8.43823C8.43823 12.331 9.12252 11.6467 9.96664 11.6467V7.64667ZM4.43823 13.1771C4.44137 16.228 6.91376 18.7004 9.96464 18.7035L9.96865 14.7035C9.12384 14.7026 8.4391 14.018 8.43823 13.173L4.43823 13.1771ZM9.96664 12.2882C10.4565 12.2882 10.8535 12.6852 10.8535 13.1751H14.8535C14.8535 10.4761 12.6656 8.2882 9.96664 8.2882V12.2882ZM10.8535 13.1751C10.8535 13.6649 10.4565 14.062 9.96664 14.062V18.062C12.6656 18.062 14.8535 15.874 14.8535 13.1751H10.8535ZM9.96664 14.062C9.47681 14.062 9.07976 13.6649 9.07976 13.1751H5.07976C5.07976 15.874 7.26767 18.062 9.96664 18.062V14.062ZM9.07976 13.1773C9.0803 12.6865 9.478 12.2888 9.96891 12.2882L9.96438 8.2882C7.26799 8.29125 5.08273 10.4763 5.07976 13.1729L9.07976 13.1773Z" fill="#717171" mask="url(#path-15-inside-3_260_5188)"/>
<mask id="path-17-inside-4_260_5188" fill="white">
<path d="M19.5895 10.7693C17.4644 10.7693 15.179 11.2713 15.179 12.3731V21.996C15.179 23.0979 17.4644 23.5999 19.5895 23.5999C21.7145 23.5999 24 23.0979 24 21.996V12.3731C24 11.2713 21.7145 10.7693 19.5895 10.7693ZM23.1981 20.3862C23.1375 20.6087 21.9351 21.1941 19.5895 21.1941C17.2439 21.1941 16.0414 20.6087 15.9809 20.3922V19.7619C16.8341 20.1917 18.2435 20.3922 19.5895 20.3922C20.9355 20.3922 22.3452 20.1897 23.1981 19.7615V20.3862ZM23.1981 18.7824C23.1375 19.0049 21.9351 19.5903 19.5895 19.5903C17.2439 19.5903 16.0414 19.0049 15.9809 18.7884V18.1581C16.8341 18.5879 18.2435 18.7884 19.5895 18.7884C20.9355 18.7884 22.3452 18.5859 23.1981 18.1577V18.7824ZM23.1981 17.1786C23.1375 17.4011 21.9351 17.9865 19.5895 17.9865C17.2439 17.9865 16.0414 17.4011 15.9809 17.1846V16.5543C16.8341 16.9841 18.2435 17.1846 19.5895 17.1846C20.9355 17.1846 22.3452 16.9821 23.1981 16.5539V17.1786ZM23.1981 15.5747C23.1375 15.7973 21.9351 16.3827 19.5895 16.3827C17.2439 16.3827 16.0414 15.7973 15.9809 15.5808V14.9505C16.8341 15.3783 18.2435 15.5808 19.5895 15.5808C20.9355 15.5808 22.3452 15.3783 23.1981 14.9501V15.5747ZM23.1981 13.9709C23.1375 14.1934 21.9351 14.7788 19.5895 14.7788C17.2439 14.7788 16.0414 14.1934 15.9809 13.9769V13.3466C16.8341 13.7744 18.2435 13.9769 19.5895 13.9769C20.9355 13.9769 22.3452 13.7744 23.1981 13.3462V13.9709ZM19.5895 11.5712C21.915 11.5712 23.1179 12.1462 23.1981 12.3731C23.1179 12.6001 21.915 13.175 19.5895 13.175C17.2475 13.175 16.0454 12.5912 15.9809 12.3803V12.3779C16.0454 12.1546 17.2475 11.5712 19.5895 11.5712ZM19.5895 22.798C17.2439 22.798 16.0414 22.2126 15.9809 21.996V21.3657C16.8341 21.7956 18.2435 21.996 19.5895 21.996C20.9355 21.996 22.3452 21.7936 23.1981 21.3653V21.99C23.1375 22.2126 21.9351 22.798 19.5895 22.798Z"/>
</mask>
<path d="M23.1981 20.3862L25.1279 20.9113L25.1981 20.6534V20.3862H23.1981ZM15.9809 20.3922H13.9809V20.6666L14.0548 20.9308L15.9809 20.3922ZM15.9809 19.7619L16.8807 17.9758L13.9809 16.515V19.7619H15.9809ZM23.1981 19.7615H25.1981V16.5193L22.3006 17.9742L23.1981 19.7615ZM23.1981 18.7824L25.1279 19.3074L25.1981 19.0496V18.7824H23.1981ZM15.9809 18.7884H13.9809V19.0628L14.0548 19.327L15.9809 18.7884ZM15.9809 18.1581L16.8807 16.3719L13.9809 14.9111V18.1581H15.9809ZM23.1981 18.1577H25.1981V14.9155L22.3006 16.3704L23.1981 18.1577ZM23.1981 17.1786L25.1279 17.7036L25.1981 17.4458V17.1786H23.1981ZM15.9809 17.1846H13.9809V17.4589L14.0548 17.7232L15.9809 17.1846ZM15.9809 16.5543L16.8807 14.7681L13.9809 13.3073V16.5543H15.9809ZM23.1981 16.5539H25.1981V13.3117L22.3006 14.7665L23.1981 16.5539ZM23.1981 15.5747L25.1279 16.0998L25.1981 15.842V15.5747H23.1981ZM15.9809 15.5808H13.9809V15.8551L14.0548 16.1194L15.9809 15.5808ZM15.9809 14.9505L16.8773 13.1626L13.9809 11.7103V14.9505H15.9809ZM23.1981 14.9501H25.1981V11.7079L22.3006 13.1627L23.1981 14.9501ZM23.1981 13.9709L25.1279 14.496L25.1981 14.2381V13.9709H23.1981ZM15.9809 13.9769H13.9809V14.2513L14.0548 14.5155L15.9809 13.9769ZM15.9809 13.3466L16.8773 11.5588L13.9809 10.1065V13.3466H15.9809ZM23.1981 13.3462H25.1981V10.104L22.3006 11.5589L23.1981 13.3462ZM23.1981 12.3731L25.0838 13.0394L25.3193 12.3731L25.0838 11.7068L23.1981 12.3731ZM15.9809 12.3803H13.9809V12.6796L14.0684 12.9657L15.9809 12.3803ZM15.9809 12.3779L14.0595 11.8226L13.9809 12.0947V12.3779H15.9809ZM15.9809 21.996H13.9809V22.2704L14.0548 22.5346L15.9809 21.996ZM15.9809 21.3657L16.8807 19.5796L13.9809 18.1188V21.3657H15.9809ZM23.1981 21.3653H25.1981V18.1231L22.3006 19.578L23.1981 21.3653ZM23.1981 21.99L25.1279 22.5151L25.1981 22.2572V21.99H23.1981ZM19.5895 8.76929C18.4049 8.76929 17.0833 8.90544 15.9873 9.25014C15.4483 9.41965 14.8281 9.68097 14.3045 10.1083C13.7551 10.5568 13.179 11.3139 13.179 12.3731H17.179C17.179 12.8814 16.8885 13.1625 16.834 13.207C16.8054 13.2304 16.8893 13.1596 17.1873 13.0659C17.7653 12.8841 18.6489 12.7693 19.5895 12.7693V8.76929ZM13.179 12.3731V21.996H17.179V12.3731H13.179ZM13.179 21.996C13.179 23.0553 13.7551 23.8123 14.3045 24.2608C14.8281 24.6882 15.4483 24.9495 15.9873 25.119C17.0833 25.4637 18.4049 25.5999 19.5895 25.5999V21.5999C18.6489 21.5999 17.7653 21.485 17.1873 21.3033C16.8893 21.2096 16.8054 21.1388 16.834 21.1621C16.8885 21.2066 17.179 21.4877 17.179 21.996H13.179ZM19.5895 25.5999C20.774 25.5999 22.0956 25.4637 23.1916 25.119C23.7306 24.9495 24.3509 24.6882 24.8744 24.2608C25.4238 23.8123 26 23.0553 26 21.996H22C22 21.4877 22.2904 21.2066 22.3449 21.1621C22.3736 21.1388 22.2896 21.2096 21.9916 21.3033C21.4137 21.485 20.53 21.5999 19.5895 21.5999V25.5999ZM26 21.996V12.3731H22V21.996H26ZM26 12.3731C26 11.3139 25.4238 10.5568 24.8744 10.1083C24.3509 9.68097 23.7306 9.41965 23.1916 9.25014C22.0956 8.90544 20.774 8.76929 19.5895 8.76929V12.7693C20.53 12.7693 21.4137 12.8841 21.9916 13.0659C22.2896 13.1596 22.3736 13.2304 22.3449 13.207C22.2904 13.1625 22 12.8814 22 12.3731H26ZM21.2682 19.8611C21.3554 19.5409 21.5038 19.3221 21.5883 19.2123C21.68 19.093 21.7656 19.0134 21.8157 18.9702C21.8691 18.9242 21.9119 18.8941 21.9356 18.8784C21.9605 18.8618 21.9765 18.8529 21.9804 18.8508C21.9838 18.8489 21.8981 18.8935 21.6943 18.9526C21.299 19.067 20.6023 19.1941 19.5895 19.1941V23.1941C20.9223 23.1941 21.9996 23.0285 22.807 22.7947C23.2046 22.6795 23.5774 22.5361 23.8967 22.3619C24.0526 22.2768 24.2433 22.1586 24.428 21.9994C24.5459 21.8977 24.9578 21.5364 25.1279 20.9113L21.2682 19.8611ZM19.5895 19.1941C18.577 19.1941 17.8793 19.0671 17.4824 18.9527C17.278 18.8937 17.1901 18.8487 17.1913 18.8494C17.1946 18.8511 17.2097 18.8594 17.2339 18.8753C17.2569 18.8904 17.2988 18.9195 17.3516 18.9643C17.4008 19.006 17.4863 19.0842 17.5786 19.2018C17.6627 19.3088 17.8161 19.5287 17.907 19.8536L14.0548 20.9308C14.2304 21.5591 14.6507 21.9183 14.7626 22.0134C14.9459 22.169 15.1349 22.2848 15.2895 22.3684C15.6065 22.5396 15.9772 22.6816 16.3741 22.7961C17.18 23.0285 18.2564 23.1941 19.5895 23.1941V19.1941ZM17.9809 20.3922V19.7619H13.9809V20.3922H17.9809ZM15.0811 21.5481C16.3581 22.1914 18.1483 22.3922 19.5895 22.3922V18.3922C18.3387 18.3922 17.3101 18.1921 16.8807 17.9758L15.0811 21.5481ZM19.5895 22.3922C21.0337 22.3922 22.8214 22.1886 24.0955 21.5489L22.3006 17.9742C21.8691 18.1909 20.8373 18.3922 19.5895 18.3922V22.3922ZM21.1981 19.7615V20.3862H25.1981V19.7615H21.1981ZM21.2682 18.2573C21.3554 17.9371 21.5038 17.7182 21.5883 17.6084C21.68 17.4892 21.7656 17.4096 21.8157 17.3664C21.8691 17.3203 21.9119 17.2903 21.9356 17.2745C21.9605 17.2579 21.9765 17.2491 21.9804 17.2469C21.9838 17.2451 21.8981 17.2897 21.6943 17.3487C21.299 17.4632 20.6023 17.5903 19.5895 17.5903V21.5903C20.9223 21.5903 21.9996 21.4247 22.807 21.1909C23.2046 21.0757 23.5774 20.9323 23.8967 20.7581C24.0526 20.673 24.2433 20.5548 24.428 20.3956C24.5459 20.2939 24.9578 19.9326 25.1279 19.3074L21.2682 18.2573ZM19.5895 17.5903C18.577 17.5903 17.8793 17.4633 17.4824 17.3488C17.278 17.2899 17.1901 17.2449 17.1913 17.2455C17.1946 17.2473 17.2097 17.2556 17.2339 17.2715C17.2569 17.2866 17.2988 17.3157 17.3516 17.3605C17.4008 17.4022 17.4863 17.4804 17.5786 17.5979C17.6627 17.705 17.8161 17.9249 17.907 18.2498L14.0548 19.327C14.2304 19.9552 14.6507 20.3145 14.7626 20.4096C14.9459 20.5652 15.1349 20.681 15.2895 20.7645C15.6065 20.9358 15.9772 21.0778 16.3741 21.1922C17.18 21.4246 18.2564 21.5903 19.5895 21.5903V17.5903ZM17.9809 18.7884V18.1581H13.9809V18.7884H17.9809ZM15.0811 19.9443C16.3581 20.5876 18.1483 20.7884 19.5895 20.7884V16.7884C18.3387 16.7884 17.3101 16.5883 16.8807 16.3719L15.0811 19.9443ZM19.5895 20.7884C21.0337 20.7884 22.8214 20.5848 24.0955 19.945L22.3006 16.3704C21.8691 16.5871 20.8373 16.7884 19.5895 16.7884V20.7884ZM21.1981 18.1577V18.7824H25.1981V18.1577H21.1981ZM21.2682 16.6535C21.3554 16.3333 21.5038 16.1144 21.5883 16.0046C21.68 15.8854 21.7656 15.8057 21.8157 15.7626C21.8691 15.7165 21.9119 15.6865 21.9356 15.6707C21.9605 15.6541 21.9765 15.6453 21.9804 15.6431C21.9838 15.6413 21.8981 15.6859 21.6943 15.7449C21.299 15.8594 20.6023 15.9865 19.5895 15.9865V19.9865C20.9223 19.9865 21.9996 19.8209 22.807 19.587C23.2046 19.4719 23.5774 19.3285 23.8967 19.1542C24.0526 19.0692 24.2433 18.951 24.428 18.7917C24.5459 18.6901 24.9578 18.3288 25.1279 17.7036L21.2682 16.6535ZM19.5895 15.9865C18.577 15.9865 17.8793 15.8595 17.4824 15.745C17.278 15.6861 17.1901 15.6411 17.1913 15.6417C17.1946 15.6435 17.2097 15.6518 17.2339 15.6677C17.2569 15.6828 17.2988 15.7118 17.3516 15.7566C17.4008 15.7984 17.4863 15.8765 17.5786 15.9941C17.6627 16.1012 17.8161 16.321 17.907 16.646L14.0548 17.7232C14.2304 18.3514 14.6507 18.7107 14.7626 18.8058C14.9459 18.9614 15.1349 19.0772 15.2895 19.1607C15.6065 19.332 15.9772 19.474 16.3741 19.5884C17.18 19.8208 18.2564 19.9865 19.5895 19.9865V15.9865ZM17.9809 17.1846V16.5543H13.9809V17.1846H17.9809ZM15.0811 18.3404C16.3581 18.9838 18.1483 19.1846 19.5895 19.1846V15.1846C18.3387 15.1846 17.3101 14.9844 16.8807 14.7681L15.0811 18.3404ZM19.5895 19.1846C21.0337 19.1846 22.8214 18.981 24.0955 18.3412L22.3006 14.7665C21.8691 14.9832 20.8373 15.1846 19.5895 15.1846V19.1846ZM21.1981 16.5539V17.1786H25.1981V16.5539H21.1981ZM21.2682 15.0497C21.3554 14.7294 21.5038 14.5106 21.5883 14.4008C21.68 14.2816 21.7656 14.2019 21.8157 14.1588C21.8691 14.1127 21.9119 14.0827 21.9356 14.0669C21.9605 14.0503 21.9765 14.0415 21.9804 14.0393C21.9838 14.0374 21.8981 14.0821 21.6943 14.1411C21.299 14.2556 20.6023 14.3827 19.5895 14.3827V18.3827C20.9223 18.3827 21.9996 18.2171 22.807 17.9832C23.2046 17.8681 23.5774 17.7246 23.8967 17.5504C24.0526 17.4653 24.2433 17.3472 24.428 17.1879C24.5459 17.0863 24.9578 16.725 25.1279 16.0998L21.2682 15.0497ZM19.5895 14.3827C18.577 14.3827 17.8793 14.2556 17.4824 14.1412C17.278 14.0823 17.1901 14.0373 17.1913 14.0379C17.1946 14.0397 17.2097 14.048 17.2339 14.0639C17.2569 14.079 17.2988 14.108 17.3516 14.1528C17.4008 14.1946 17.4863 14.2727 17.5786 14.3903C17.6627 14.4974 17.8161 14.7172 17.907 15.0422L14.0548 16.1194C14.2304 16.7476 14.6507 17.1069 14.7626 17.2019C14.9459 17.3576 15.1349 17.4733 15.2895 17.5569C15.6065 17.7282 15.9772 17.8701 16.3741 17.9846C17.18 18.217 18.2564 18.3827 19.5895 18.3827V14.3827ZM17.9809 15.5808V14.9505H13.9809V15.5808H17.9809ZM15.0844 16.7383C16.3583 17.377 18.1449 17.5808 19.5895 17.5808V13.5808C18.342 13.5808 17.3099 13.3795 16.8773 13.1626L15.0844 16.7383ZM19.5895 17.5808C21.0337 17.5808 22.8214 17.3771 24.0955 16.7374L22.3006 13.1627C21.8691 13.3794 20.8373 13.5808 19.5895 13.5808V17.5808ZM21.1981 14.9501V15.5747H25.1981V14.9501H21.1981ZM21.2682 13.4459C21.3554 13.1256 21.5038 12.9068 21.5883 12.797C21.68 12.6777 21.7656 12.5981 21.8157 12.555C21.8691 12.5089 21.9119 12.4789 21.9356 12.4631C21.9605 12.4465 21.9765 12.4376 21.9804 12.4355C21.9838 12.4336 21.8981 12.4783 21.6943 12.5373C21.299 12.6518 20.6023 12.7788 19.5895 12.7788V16.7788C20.9223 16.7788 21.9996 16.6132 22.807 16.3794C23.2046 16.2642 23.5774 16.1208 23.8967 15.9466C24.0526 15.8615 24.2433 15.7434 24.428 15.5841C24.5459 15.4824 24.9578 15.1211 25.1279 14.496L21.2682 13.4459ZM19.5895 12.7788C18.577 12.7788 17.8793 12.6518 17.4824 12.5374C17.278 12.4784 17.1901 12.4335 17.1913 12.4341C17.1946 12.4359 17.2097 12.4442 17.2339 12.4601C17.2569 12.4751 17.2988 12.5042 17.3516 12.549C17.4008 12.5908 17.4863 12.6689 17.5786 12.7865C17.6627 12.8935 17.8161 13.1134 17.907 13.4383L14.0548 14.5155C14.2304 15.1438 14.6507 15.5031 14.7626 15.5981C14.9459 15.7538 15.1349 15.8695 15.2895 15.9531C15.6065 16.1243 15.9772 16.2663 16.3741 16.3808C17.18 16.6132 18.2564 16.7788 19.5895 16.7788V12.7788ZM17.9809 13.9769V13.3466H13.9809V13.9769H17.9809ZM15.0844 15.1345C16.3583 15.7732 18.1449 15.9769 19.5895 15.9769V11.9769C18.342 11.9769 17.3099 11.7757 16.8773 11.5588L15.0844 15.1345ZM19.5895 15.9769C21.0337 15.9769 22.8214 15.7733 24.0955 15.1336L22.3006 11.5589C21.8691 11.7756 20.8373 11.9769 19.5895 11.9769V15.9769ZM21.1981 13.3462V13.9709H25.1981V13.3462H21.1981ZM19.5895 13.5712C20.5935 13.5712 21.2876 13.696 21.6855 13.8099C21.7832 13.8378 21.8575 13.8635 21.9102 13.884C21.9643 13.905 21.9869 13.9171 21.9839 13.9155C21.9818 13.9144 21.9684 13.9072 21.9464 13.8929C21.9254 13.8793 21.8869 13.853 21.838 13.8124C21.792 13.7743 21.7141 13.7047 21.6282 13.6008C21.5492 13.5051 21.4104 13.3171 21.3123 13.0394L25.0838 11.7068C24.8893 11.1564 24.5159 10.8368 24.3927 10.7346C24.2125 10.5849 24.0268 10.472 23.871 10.3886C23.5534 10.2187 23.183 10.0778 22.786 9.96423C21.9811 9.73389 20.9109 9.5712 19.5895 9.5712V13.5712ZM21.3123 11.7068C21.4104 11.4291 21.5492 11.2411 21.6282 11.1454C21.7141 11.0416 21.792 10.972 21.838 10.9338C21.8869 10.8932 21.9254 10.8669 21.9464 10.8533C21.9684 10.839 21.9818 10.8318 21.9839 10.8307C21.9869 10.8291 21.9643 10.8412 21.9102 10.8622C21.8575 10.8827 21.7832 10.9084 21.6855 10.9363C21.2876 11.0502 20.5935 11.175 19.5895 11.175V15.175C20.9109 15.175 21.9811 15.0123 22.786 14.782C23.183 14.6684 23.5534 14.5275 23.871 14.3576C24.0268 14.2742 24.2125 14.1613 24.3927 14.0117C24.5159 13.9094 24.8893 13.5898 25.0838 13.0394L21.3123 11.7068ZM19.5895 11.175C18.5789 11.175 17.881 11.0484 17.4821 10.9341C17.3841 10.9061 17.3095 10.8803 17.2567 10.8598C17.2023 10.8387 17.1798 10.8267 17.1831 10.8284C17.1854 10.8296 17.1992 10.837 17.2219 10.8517C17.2434 10.8656 17.2835 10.8928 17.3345 10.935C17.3819 10.9743 17.4654 11.0485 17.5569 11.1608C17.639 11.2616 17.7954 11.4752 17.8933 11.795L14.0684 12.9657C14.2562 13.5793 14.6755 13.9265 14.7823 14.015C14.9629 14.1647 15.1488 14.2768 15.3021 14.3585C15.6161 14.5259 15.984 14.6659 16.3802 14.7794C17.184 15.0097 18.258 15.175 19.5895 15.175V11.175ZM17.9809 12.3803V12.3779H13.9809V12.3803H17.9809ZM17.9022 12.9333C17.8123 13.2445 17.6657 13.4566 17.5824 13.5633C17.4918 13.6792 17.4079 13.7567 17.3587 13.7987C17.3062 13.8437 17.2644 13.8729 17.2412 13.8882C17.2168 13.9043 17.2015 13.9128 17.1979 13.9148C17.1958 13.9159 17.2825 13.8711 17.4863 13.8122C17.8821 13.6978 18.5782 13.5712 19.5895 13.5712V9.5712C18.2587 9.5712 17.1828 9.73625 16.3759 9.96942C15.9784 10.0843 15.6061 10.2272 15.2873 10.4005C15.1314 10.4853 14.9418 10.6023 14.7581 10.7595C14.6392 10.8613 14.2356 11.2135 14.0595 11.8226L17.9022 12.9333ZM19.5895 20.798C18.577 20.798 17.8793 20.6709 17.4824 20.5565C17.278 20.4975 17.1901 20.4526 17.1913 20.4532C17.1946 20.455 17.2097 20.4633 17.2339 20.4792C17.2569 20.4943 17.2988 20.5233 17.3516 20.5681C17.4008 20.6099 17.4863 20.688 17.5786 20.8056C17.6627 20.9127 17.8161 21.1325 17.907 21.4574L14.0548 22.5346C14.2304 23.1629 14.6507 23.5222 14.7626 23.6172C14.9459 23.7729 15.1349 23.8886 15.2895 23.9722C15.6065 24.1435 15.9772 24.2854 16.3741 24.3999C17.18 24.6323 18.2564 24.798 19.5895 24.798V20.798ZM17.9809 21.996V21.3657H13.9809V21.996H17.9809ZM15.0811 23.1519C16.3581 23.7952 18.1483 23.996 19.5895 23.996V19.996C18.3387 19.996 17.3101 19.7959 16.8807 19.5796L15.0811 23.1519ZM19.5895 23.996C21.0337 23.996 22.8214 23.7924 24.0955 23.1527L22.3006 19.578C21.8691 19.7947 20.8373 19.996 19.5895 19.996V23.996ZM21.1981 21.3653V21.99H25.1981V21.3653H21.1981ZM21.2682 21.465C21.3554 21.1447 21.5038 20.9259 21.5883 20.8161C21.68 20.6968 21.7656 20.6172 21.8157 20.5741C21.8691 20.528 21.9119 20.498 21.9356 20.4822C21.9605 20.4656 21.9765 20.4567 21.9804 20.4546C21.9838 20.4527 21.8981 20.4974 21.6943 20.5564C21.299 20.6709 20.6023 20.798 19.5895 20.798V24.798C20.9223 24.798 21.9996 24.6323 22.807 24.3985C23.2046 24.2833 23.5774 24.1399 23.8967 23.9657C24.0526 23.8806 24.2433 23.7625 24.428 23.6032C24.5459 23.5016 24.9578 23.1402 25.1279 22.5151L21.2682 21.465Z" fill="#717171" mask="url(#path-17-inside-4_260_5188)"/>
<mask id="path-19-inside-5_260_5188" fill="white">
<path d="M3.87814 10.311H6.759C6.94876 10.311 7.10262 10.1572 7.10262 9.9674C7.10262 9.77765 6.94876 9.62378 6.759 9.62378H3.73861C3.64879 9.62358 3.56243 9.65856 3.49803 9.72121L1.70696 11.4682C1.64005 11.5464 1.60337 11.646 1.60352 11.7488V14.6004C1.60352 14.6862 1.63554 14.7688 1.69333 14.8322L3.32241 16.614C3.38752 16.6853 3.47964 16.726 3.57622 16.7259H6.759C6.94876 16.7259 7.10262 16.572 7.10262 16.3823C7.10262 16.1925 6.94876 16.0387 6.759 16.0387H3.72818L2.29116 14.4669V11.8607L3.87814 10.311Z"/>
</mask>
<path d="M3.87814 10.311V8.31102H3.0636L2.48083 8.88009L3.87814 10.311ZM3.73861 9.62378L3.73414 11.6238H3.73861V9.62378ZM3.49803 9.72121L2.10348 8.28761L2.10156 8.28948L3.49803 9.72121ZM1.70696 11.4682L0.310487 10.0364L0.245994 10.0993L0.187419 10.1678L1.70696 11.4682ZM1.60352 11.7488H3.60352L3.60351 11.7459L1.60352 11.7488ZM1.69333 14.8322L0.215726 16.18L0.217258 16.1817L1.69333 14.8322ZM3.32241 16.614L4.79905 15.2651L4.79848 15.2645L3.32241 16.614ZM3.57622 16.7259V14.7259L3.57518 14.7259L3.57622 16.7259ZM3.72818 16.0387L2.25212 17.3882L2.84683 18.0387H3.72818V16.0387ZM2.29116 14.4669H0.291155V15.2434L0.815097 15.8165L2.29116 14.4669ZM2.29116 11.8607L0.893853 10.4298L0.291155 11.0183V11.8607H2.29116ZM3.87814 12.311H6.759V8.31102H3.87814V12.311ZM6.759 12.311C8.05333 12.311 9.10262 11.2617 9.10262 9.9674H5.10262C5.10262 9.05258 5.84419 8.31102 6.759 8.31102V12.311ZM9.10262 9.9674C9.10262 8.67308 8.05333 7.62378 6.759 7.62378V11.6238C5.84419 11.6238 5.10262 10.8822 5.10262 9.9674H9.10262ZM6.759 7.62378H3.73861V11.6238H6.759V7.62378ZM3.74307 7.62379C3.1304 7.62242 2.54203 7.861 2.10348 8.28761L4.89259 11.1548C4.58284 11.4561 4.16718 11.6247 3.73414 11.6238L3.74307 7.62379ZM2.10156 8.28948L0.310487 10.0364L3.10344 12.8999L4.89451 11.1529L2.10156 8.28948ZM0.187419 10.1678C-0.190399 10.6093 -0.39733 11.1713 -0.396482 11.7518L3.60351 11.7459C3.60406 12.1206 3.47051 12.4834 3.22651 12.7686L0.187419 10.1678ZM-0.396484 11.7488V14.6004H3.60352V11.7488H-0.396484ZM-0.396484 14.6004C-0.396484 15.1848 -0.178226 15.7482 0.215727 16.18L3.17093 13.4843C3.44931 13.7895 3.60352 14.1876 3.60352 14.6004H-0.396484ZM0.217258 16.1817L1.84634 17.9636L4.79848 15.2645L3.1694 13.4827L0.217258 16.1817ZM1.84578 17.9629C2.28961 18.4488 2.91785 18.7262 3.57726 18.7259L3.57518 14.7259C4.04142 14.7257 4.48543 14.9218 4.79905 15.2651L1.84578 17.9629ZM3.57622 18.7259H6.759V14.7259H3.57622V18.7259ZM6.759 18.7259C8.05333 18.7259 9.10262 17.6766 9.10262 16.3823H5.10262C5.10262 15.4675 5.84418 14.7259 6.759 14.7259V18.7259ZM9.10262 16.3823C9.10262 15.088 8.05332 14.0387 6.759 14.0387V18.0387C5.84419 18.0387 5.10262 17.2971 5.10262 16.3823H9.10262ZM6.759 14.0387H3.72818V18.0387H6.759V14.0387ZM5.20424 14.6891L3.76721 13.1174L0.815097 15.8165L2.25212 17.3882L5.20424 14.6891ZM4.29116 14.4669V11.8607H0.291155V14.4669H4.29116ZM3.68846 13.2916L5.27544 11.7419L2.48083 8.88009L0.893853 10.4298L3.68846 13.2916Z" fill="#717171" mask="url(#path-19-inside-5_260_5188)"/>
</g>
<defs>
<clipPath id="clip0_260_5188">
<rect width="24" height="24" fill="white"/>
</clipPath>
</defs>
</svg>
