<svg width="360" height="52" viewBox="0 0 360 52" fill="none" xmlns="http://www.w3.org/2000/svg">
<g filter="url(#filter0_d_530_57316)">
<rect width="360" height="52" fill="white"/>
</g>
<path d="M27.1797 19.6396L20.8193 26L27.1797 32.3604" stroke="black" stroke-width="1.5" stroke-linecap="round" stroke-linejoin="round"/>
<path d="M311.765 32.6379L308.803 29.6994C309.953 28.2656 310.509 26.4457 310.359 24.614C310.208 22.7822 309.362 21.0778 307.992 19.8511C306.624 18.6246 304.838 17.969 303 18.0193C301.163 18.0695 299.415 18.8219 298.115 20.1214C296.815 21.4211 296.063 23.1692 296.012 25.0065C295.962 26.8438 296.618 28.6305 297.845 29.9992C299.072 31.368 300.776 32.2147 302.607 32.3654C304.439 32.5161 306.259 31.9592 307.693 30.8093L310.631 33.7478C310.706 33.8226 310.794 33.882 310.891 33.9226C310.988 33.9631 311.093 33.984 311.198 33.984C311.304 33.984 311.408 33.9631 311.505 33.9226C311.602 33.882 311.691 33.8226 311.765 33.7478C311.909 33.5988 311.99 33.3999 311.99 33.1928C311.99 32.9858 311.909 32.7868 311.765 32.6379ZM303.213 30.8093C302.107 30.8093 301.027 30.4815 300.108 29.8673C299.189 29.2531 298.473 28.3802 298.049 27.3588C297.626 26.3374 297.515 25.2135 297.731 24.1293C297.947 23.0451 298.479 22.0491 299.261 21.2674C300.042 20.4857 301.038 19.9533 302.123 19.7377C303.207 19.522 304.331 19.6327 305.353 20.0557C306.374 20.4788 307.247 21.1953 307.861 22.1144C308.475 23.0336 308.803 24.1143 308.803 25.2198C308.803 26.7022 308.214 28.1239 307.166 29.1722C306.118 30.2204 304.695 30.8093 303.213 30.8093Z" fill="black"/>
<path d="M336 21C336.552 21 337 20.5523 337 20C337 19.4477 336.552 19 336 19C335.448 19 335 19.4477 335 20C335 20.5523 335.448 21 336 21Z" fill="black" stroke="black" stroke-linecap="round" stroke-linejoin="round"/>
<path d="M336 27C336.552 27 337 26.5523 337 26C337 25.4477 336.552 25 336 25C335.448 25 335 25.4477 335 26C335 26.5523 335.448 27 336 27Z" fill="black" stroke="black" stroke-linecap="round" stroke-linejoin="round"/>
<path d="M336 33C336.552 33 337 32.5523 337 32C337 31.4477 336.552 31 336 31C335.448 31 335 31.4477 335 32C335 32.5523 335.448 33 336 33Z" fill="black" stroke="black" stroke-linecap="round" stroke-linejoin="round"/>
<defs>
<filter id="filter0_d_530_57316" x="-1" y="0" width="362" height="55" filterUnits="userSpaceOnUse" color-interpolation-filters="sRGB">
<feFlood flood-opacity="0" result="BackgroundImageFix"/>
<feColorMatrix in="SourceAlpha" type="matrix" values="0 0 0 0 0 0 0 0 0 0 0 0 0 0 0 0 0 0 127 0" result="hardAlpha"/>
<feOffset dy="2"/>
<feGaussianBlur stdDeviation="0.5"/>
<feComposite in2="hardAlpha" operator="out"/>
<feColorMatrix type="matrix" values="0 0 0 0 0.254902 0 0 0 0 0.254902 0 0 0 0 0.254902 0 0 0 0.121569 0"/>
<feBlend mode="normal" in2="BackgroundImageFix" result="effect1_dropShadow_530_57316"/>
<feBlend mode="normal" in="SourceGraphic" in2="effect1_dropShadow_530_57316" result="shape"/>
</filter>
</defs>
</svg>
