<svg width="22" height="22" viewBox="0 0 22 22" fill="none" xmlns="http://www.w3.org/2000/svg">
<path fill-rule="evenodd" clip-rule="evenodd" d="M20.9977 11C20.9977 16.522 16.5219 20.9977 11 20.9977C5.47817 20.9977 1.00234 16.522 1.00234 11C1.00234 5.47817 5.47817 1.00234 11 1.00234C16.5219 1.00234 20.9977 5.47817 20.9977 11Z" stroke="#717171" stroke-width="1.5" stroke-linecap="round" stroke-linejoin="round"/>
<path d="M11.7506 14.5644C11.7506 14.1502 11.4148 13.8144 11.0006 13.8144C10.5864 13.8144 10.2506 14.1502 10.2506 14.5644H11.7506ZM10.2506 15.6339C10.2506 16.0481 10.5864 16.3839 11.0006 16.3839C11.4148 16.3839 11.7506 16.0481 11.7506 15.6339H10.2506ZM11.7506 6.36514C11.7506 5.95093 11.4148 5.61514 11.0006 5.61514C10.5864 5.61514 10.2506 5.95093 10.2506 6.36514H11.7506ZM10.2506 7.43462C10.2506 7.84883 10.5864 8.18462 11.0006 8.18462C11.4148 8.18462 11.7506 7.84883 11.7506 7.43462H10.2506ZM9.25476 12.9011C9.25476 12.4869 8.91898 12.1511 8.50476 12.1511C8.09055 12.1511 7.75476 12.4869 7.75476 12.9011H9.25476ZM12.746 9.09801C12.746 9.51222 13.0818 9.84801 13.496 9.84801C13.9102 9.84801 14.246 9.51222 14.246 9.09801H12.746ZM10.2506 14.5644V15.6339H11.7506V14.5644H10.2506ZM10.2506 6.36514V7.43462H11.7506V6.36514H10.2506ZM7.75476 12.9011C7.75476 14.2341 8.83558 15.3147 10.1689 15.3147V13.8147C9.66373 13.8147 9.25476 13.4054 9.25476 12.9011H7.75476ZM10.1689 15.3147H11.7132V13.8147H10.1689V15.3147ZM11.7132 15.3147C13.1119 15.3147 14.246 14.1806 14.246 12.7819H12.746C12.746 13.3522 12.2834 13.8147 11.7132 13.8147V15.3147ZM14.246 12.7819C14.246 11.3829 13.1116 10.2496 11.7132 10.2496V11.7496C12.2837 11.7496 12.746 12.2119 12.746 12.7819H14.246ZM11.7132 10.2496H10.2876V11.7496H11.7132V10.2496ZM10.2876 10.2496C9.71706 10.2496 9.25476 9.78721 9.25476 9.21727H7.75476C7.75476 10.6162 8.88921 11.7496 10.2876 11.7496V10.2496ZM9.25476 9.21727C9.25476 8.64705 9.71733 8.18448 10.2876 8.18448V6.68448C8.88893 6.68448 7.75476 7.81859 7.75476 9.21727H9.25476ZM10.2876 8.18448H11.8324V6.68448H10.2876V8.18448ZM11.8324 8.18448C12.3369 8.18448 12.746 8.59358 12.746 9.09801H14.246C14.246 7.76515 13.1654 6.68448 11.8324 6.68448V8.18448Z" fill="#FCAF17"/>
</svg>
