<svg width="24" height="24" viewBox="0 0 24 24" fill="none" xmlns="http://www.w3.org/2000/svg">
<path opacity="0.01" fill-rule="evenodd" clip-rule="evenodd" d="M0 24V0H24V24H0Z" fill="black"/>
<path fill-rule="evenodd" clip-rule="evenodd" d="M11.2134 16.809C10.1074 16.809 9.02704 16.4812 8.10797 15.867C7.18887 15.2528 6.47259 14.3799 6.04941 13.3585C5.62622 12.3371 5.51526 11.2132 5.73084 10.129C5.94721 9.04476 6.47904 8.04879 7.26075 7.26713C8.04249 6.4854 9.03822 5.95304 10.1226 5.73736C11.207 5.52169 12.3313 5.63236 13.3525 6.0554C14.3738 6.47853 15.2466 7.19494 15.8606 8.11409C16.4747 9.03332 16.8028 10.1139 16.8028 11.2195C16.8028 12.7019 16.2136 14.1236 15.1659 15.1719C14.1175 16.2201 12.6954 16.809 11.2134 16.809H11.2134ZM19.7653 18.6375L16.8028 15.6991C17.9527 14.2653 18.5092 12.4454 18.3591 10.6137C18.2082 8.78189 17.3618 7.07749 15.9924 5.85083C14.6237 4.62425 12.8375 3.96868 11.0001 4.01899C9.16279 4.06921 7.41489 4.82156 6.11491 6.12112C4.81495 7.42076 4.06279 9.16892 4.01246 11.0062C3.96214 12.8435 4.61772 14.6302 5.84501 15.9989C7.07151 17.3677 8.77552 18.2144 10.6073 18.3651C12.4391 18.5158 14.2588 17.9589 15.6929 16.809L18.6314 19.7475C18.7057 19.8223 18.7935 19.8817 18.8909 19.9223C18.9884 19.9628 19.093 19.9837 19.1983 19.9837C19.3037 19.9837 19.4083 19.9628 19.505 19.9223C19.6024 19.8817 19.691 19.8223 19.7653 19.7475C19.909 19.5985 19.9897 19.3996 19.9897 19.1925C19.9897 18.9855 19.909 18.7865 19.7653 18.6375H19.7653Z" fill="black"/>
</svg>
