<svg width="24" height="18" viewBox="0 0 24 18" fill="none" xmlns="http://www.w3.org/2000/svg">
<path d="M4.26923 12L1 10H14.7308L18 12L4.26923 12Z" fill="#FCAF17"/>
<path d="M1.82129 13.8001C1.35185 13.8001 0.971289 14.1806 0.971289 14.6501C0.971289 15.1195 1.35185 15.5001 1.82129 15.5001V13.8001ZM9.73805 15.5001C10.2075 15.5001 10.588 15.1195 10.588 14.6501C10.588 14.1806 10.2075 13.8001 9.73805 13.8001V15.5001ZM14.8634 14.0529C14.5317 13.7207 13.9935 13.7204 13.6613 14.0521C13.3292 14.3838 13.3288 14.922 13.6605 15.2542L14.8634 14.0529ZM15.9224 17.5189C16.2542 17.8511 16.7923 17.8514 17.1245 17.5197C17.4567 17.188 17.457 16.6498 17.1253 16.3176L15.9224 17.5189ZM13.6605 14.0529C13.3288 14.385 13.3292 14.9232 13.6613 15.2549C13.9935 15.5867 14.5317 15.5863 14.8634 15.2542L13.6605 14.0529ZM17.1253 12.9894C17.457 12.6572 17.4567 12.1191 17.1245 11.7873C16.7923 11.4556 16.2542 11.4559 15.9224 11.7881L17.1253 12.9894ZM1.82129 7.01776C1.35185 7.01776 0.971289 7.39832 0.971289 7.86776C0.971289 8.3372 1.35185 8.71776 1.82129 8.71776V7.01776ZM21.1849 8.86019L20.5839 9.46124L20.584 9.46134L21.1849 8.86019ZM21.1849 13.6611L21.7859 14.2622L21.7859 14.2622L21.1849 13.6611ZM14.262 13.8035C13.7925 13.8035 13.412 14.1841 13.412 14.6535C13.412 15.123 13.7925 15.5035 14.262 15.5035V13.8035ZM1.82129 0.230078C1.35185 0.230078 0.971289 0.610636 0.971289 1.08008C0.971289 1.54952 1.35185 1.93008 1.82129 1.93008V0.230078ZM22.1787 1.93008C22.6482 1.93008 23.0287 1.54952 23.0287 1.08008C23.0287 0.610636 22.6482 0.230078 22.1787 0.230078V1.93008ZM1.82129 15.5001H9.73805V13.8001H1.82129V15.5001ZM13.6605 15.2542L15.9224 17.5189L17.1253 16.3176L14.8634 14.0529L13.6605 15.2542ZM14.8634 15.2542L17.1253 12.9894L15.9224 11.7881L13.6605 14.0529L14.8634 15.2542ZM1.82129 8.71776H18.7858V7.01776H1.82129V8.71776ZM18.7858 8.71776C19.4611 8.71776 20.1076 8.98499 20.5839 9.46124L21.786 8.25914C20.9897 7.46293 19.9103 7.01776 18.7858 7.01776V8.71776ZM20.584 9.46134C21.0605 9.93764 21.3287 10.5863 21.3287 11.2606H23.0287C23.0287 10.1365 22.5821 9.05496 21.7859 8.25904L20.584 9.46134ZM21.3287 11.2606C21.3287 11.9348 21.0605 12.5835 20.584 13.06L21.7859 14.2622C22.5821 13.4662 23.0287 12.3847 23.0287 11.2606H21.3287ZM20.584 13.06C20.1076 13.5362 19.461 13.8035 18.7858 13.8035V15.5035C19.9104 15.5035 20.9898 15.0582 21.7859 14.2622L20.584 13.06ZM18.7858 13.8035H14.262V15.5035H18.7858V13.8035ZM1.82129 1.93008H22.1787V0.230078H1.82129V1.93008Z" fill="#717171"/>
</svg>
