<svg width="12" height="26" viewBox="0 0 12 26" fill="none" xmlns="http://www.w3.org/2000/svg">
<path fill-rule="evenodd" clip-rule="evenodd" d="M10.9451 19.4222C9.35335 21.2662 7.89359 23.3976 6.72742 25.4257C6.28756 26.1912 4.86794 26.1912 4.42753 25.4257C3.26082 23.3976 1.80051 21.2657 0.208786 19.4218C-0.449351 18.6596 0.558468 17.7037 1.6889 18.0133L2.82812 18.3254V14.5146H8.32629V18.3259L9.46496 18.0137C10.5954 17.7037 11.6032 18.6596 10.9451 19.4222Z" fill="black"/>
<path fill-rule="evenodd" clip-rule="evenodd" d="M7.66291 -6.74296e-05V1.1876L3.49238 1.1876V-6.74296e-05L7.66291 -6.74296e-05Z" fill="black"/>
<path fill-rule="evenodd" clip-rule="evenodd" d="M7.66291 3.26425V6.12704H3.49238V3.26425H7.66291Z" fill="black"/>
<path fill-rule="evenodd" clip-rule="evenodd" d="M7.63497 8.26701V12.4375H3.39487V8.26701H7.63497Z" fill="black"/>
</svg>
