<svg width="22" height="22" viewBox="0 0 22 22" fill="none" xmlns="http://www.w3.org/2000/svg">
<rect x="0.767442" y="11.9658" width="3.50821" height="9.35523" fill="#FCAF17"/>
<circle cx="15.6773" cy="5.24189" r="3.21586" fill="#FCAF17"/>
<path d="M0.878842 20.673L0.194859 21.021L0.195146 21.0216L0.878842 20.673ZM1.32623 21.1204L0.97749 21.8041L0.978222 21.8044L1.32623 21.1204ZM4.30156 21.1204L4.64957 21.8044L4.65026 21.8041L4.30156 21.1204ZM4.74898 20.673L5.43267 21.0216L5.433 21.021L4.74898 20.673ZM4.74898 12.5813L5.43352 12.2343L5.43263 12.2326L4.74898 12.5813ZM4.30156 12.1347L3.95155 12.8176L3.95512 12.8195L4.30156 12.1347ZM1.32623 12.1347L1.67272 12.8194L1.67623 12.8176L1.32623 12.1347ZM0.878842 12.5813L0.195181 12.2326L0.194349 12.2342L0.878842 12.5813ZM4.86053 18.5073C4.43669 18.5073 4.09309 18.8509 4.09309 19.2748C4.09309 19.6986 4.43669 20.0422 4.86053 20.0422V18.5073ZM8.56338 19.3991L8.38036 20.1444L8.38231 20.1449L8.56338 19.3991ZM11.386 20.0844L11.5682 19.3389L11.567 19.3386L11.386 20.0844ZM13.2546 20.1282L13.1081 19.3748L13.1079 19.3749L13.2546 20.1282ZM16.375 19.5211L16.5215 20.2744L16.5216 20.2744L16.375 19.5211ZM18.5522 18.3877L19.0874 18.9377L19.0874 18.9377L18.5522 18.3877ZM20.7593 16.2403L20.2248 15.6897L20.2242 15.6903L20.7593 16.2403ZM20.7593 14.021L21.2946 13.471L21.2945 13.4709L20.7593 14.021ZM18.6512 13.8752L19.1035 14.4952L19.1036 14.4951L18.6512 13.8752ZM16.078 15.7523L15.6257 15.1323L15.6251 15.1328L16.078 15.7523ZM12.3153 15.3993C11.8915 15.3993 11.5479 15.7429 11.5479 16.1667C11.5479 16.5905 11.8915 16.9341 12.3153 16.9341V15.3993ZM14.2892 12.7617L14.1077 13.5073L14.1081 13.5074L14.2892 12.7617ZM11.848 12.1676L12.0294 11.422L12.0281 11.4216L11.848 12.1676ZM7.86042 12.8399L8.15656 13.5479C8.16428 13.5447 8.17196 13.5413 8.17957 13.5378L7.86042 12.8399ZM4.5644 13.3867C4.17338 13.5502 3.98898 13.9998 4.15253 14.3908C4.31608 14.7818 4.76565 14.9662 5.15667 14.8027L4.5644 13.3867ZM13.0094 7.89176C13.3545 7.64571 13.4348 7.16648 13.1888 6.82136C12.9427 6.47624 12.4635 6.39592 12.1184 6.64197L13.0094 7.89176ZM12.8761 2.86017C13.1007 3.21964 13.5741 3.329 13.9336 3.10444C14.2931 2.87988 14.4024 2.40643 14.1779 2.04696L12.8761 2.86017ZM0.000118017 13.6603V19.5948H1.535V13.6603H0.000118017ZM0.000118017 19.5948C0.000118017 19.8688 -0.000476948 20.1203 0.016568 20.3293C0.0343429 20.5472 0.0750318 20.7856 0.194859 21.021L1.56282 20.325C1.57137 20.3418 1.55642 20.3277 1.54637 20.2045C1.5356 20.0724 1.535 19.8941 1.535 19.5948H0.000118017ZM0.195146 21.0216C0.366973 21.3586 0.640837 21.6323 0.97749 21.8041L1.67497 20.4368C1.62646 20.412 1.58719 20.3727 1.56254 20.3244L0.195146 21.0216ZM0.978222 21.8044C1.21371 21.9242 1.45208 21.9649 1.67002 21.9827C1.87902 21.9997 2.1305 21.9991 2.40447 21.9991V20.4643C2.1052 20.4643 1.92691 20.4637 1.79478 20.4529C1.6716 20.4428 1.65747 20.4279 1.67423 20.4364L0.978222 21.8044ZM2.40447 21.9991H3.22332V20.4643H2.40447V21.9991ZM3.22332 21.9991C3.49696 21.9991 3.7484 21.9997 3.95746 21.9827C4.17529 21.9649 4.41395 21.9243 4.64957 21.8044L3.95356 20.4364C3.97045 20.4278 3.95625 20.4428 3.83276 20.4529C3.70051 20.4637 3.5222 20.4643 3.22332 20.4643V21.9991ZM4.65026 21.8041C4.98697 21.6323 5.26084 21.3586 5.43267 21.0216L4.06528 20.3244C4.04063 20.3727 4.00138 20.412 3.95287 20.4368L4.65026 21.8041ZM5.433 21.021C5.55279 20.7855 5.59346 20.5472 5.61123 20.3292C5.62827 20.1203 5.62767 19.8688 5.62767 19.5948H4.09279C4.09279 19.8941 4.09219 20.0724 4.08142 20.2045C4.07138 20.3277 4.05642 20.3418 4.06496 20.325L5.433 21.021ZM5.62767 19.5948V13.6603H4.09279V19.5948H5.62767ZM5.62767 13.6603C5.62767 13.3863 5.62827 13.1348 5.61123 12.9258C5.59345 12.7076 5.55279 12.4697 5.43352 12.2343L4.06444 12.9282C4.05642 12.9124 4.07138 12.9273 4.08142 13.0504C4.09219 13.1827 4.09279 13.361 4.09279 13.6603H5.62767ZM5.43263 12.2326C5.26094 11.896 4.98675 11.6212 4.64801 11.4499L3.95512 12.8195C4.00159 12.843 4.04054 12.8814 4.06533 12.93L5.43263 12.2326ZM4.65157 11.4517C4.41546 11.3307 4.17617 11.2896 3.95791 11.2717C3.74857 11.2545 3.49686 11.2551 3.22332 11.2551V12.79C3.52229 12.79 3.70034 12.7906 3.83231 12.8014C3.95536 12.8116 3.96894 12.8266 3.95156 12.8176L4.65157 11.4517ZM3.22332 11.2551H2.40447V12.79H3.22332V11.2551ZM2.40447 11.2551C2.13058 11.2551 1.87884 11.2545 1.66957 11.2717C1.45119 11.2897 1.2122 11.3307 0.976223 11.4517L1.67623 12.8176C1.65898 12.8265 1.67249 12.8115 1.79523 12.8014C1.92708 12.7906 2.1051 12.79 2.40447 12.79V11.2551ZM0.979738 11.4499C0.641066 11.6213 0.366876 11.896 0.195183 12.2326L1.5625 12.93C1.58729 12.8814 1.62623 12.843 1.67272 12.8194L0.979738 11.4499ZM0.194349 12.2342C0.0750227 12.4696 0.0343464 12.7076 0.016565 12.9258C-0.000475972 13.1348 0.000118017 13.3863 0.000118017 13.6603H1.535C1.535 13.361 1.5356 13.1827 1.54638 13.0505C1.55641 12.9273 1.57138 12.9125 1.56333 12.9283L0.194349 12.2342ZM18.4187 5.37201C18.4187 6.92561 17.1586 8.18536 15.6046 8.18536V9.72024C18.0059 9.72024 19.9536 7.77373 19.9536 5.37201H18.4187ZM15.6046 8.18536C14.0505 8.18536 12.7904 6.92559 12.7904 5.37201H11.2555C11.2555 7.77373 13.2033 9.72024 15.6046 9.72024V8.18536ZM12.7904 5.37201C12.7904 3.81752 14.0506 2.55786 15.6046 2.55786V1.02298C13.2032 1.02298 11.2555 2.9696 11.2555 5.37201H12.7904ZM15.6046 2.55786C17.1585 2.55786 18.4187 3.81751 18.4187 5.37201H19.9536C19.9536 2.96961 18.006 1.02298 15.6046 1.02298V2.55786ZM4.86053 20.0422H7.53118V18.5073H4.86053V20.0422ZM7.53118 20.0422C7.81867 20.0422 8.10332 20.0764 8.38036 20.1444L8.7464 18.6538C8.3481 18.556 7.94049 18.5073 7.53118 18.5073V20.0422ZM8.38231 20.1449L11.2049 20.8302L11.567 19.3386L8.74444 18.6533L8.38231 20.1449ZM11.2038 20.8299C11.9244 21.006 12.6743 21.0231 13.4014 20.8814L13.1079 19.3749C12.5979 19.4742 12.0724 19.4621 11.5682 19.3389L11.2038 20.8299ZM13.4012 20.8815L16.5215 20.2744L16.2284 18.7678L13.1081 19.3748L13.4012 20.8815ZM16.5216 20.2744C17.4902 20.0859 18.3841 19.6219 19.0874 18.9377L18.0171 17.8376C17.5308 18.3106 16.9082 18.6355 16.2284 18.7678L16.5216 20.2744ZM19.0874 18.9377L21.2945 16.7904L20.2242 15.6903L18.017 17.8376L19.0874 18.9377ZM21.2939 16.791C22.2356 15.8768 22.2345 14.3859 21.2946 13.471L20.2241 14.5709C20.5457 14.884 20.5446 15.3792 20.2248 15.6897L21.2939 16.791ZM21.2945 13.4709C20.4577 12.6568 19.1409 12.5678 18.1988 13.2552L19.1036 14.4951C19.4446 14.2463 19.9267 14.2817 20.2242 14.5711L21.2945 13.4709ZM18.1989 13.2552L15.6257 15.1323L16.5303 16.3723L19.1035 14.4952L18.1989 13.2552ZM15.6251 15.1328C15.3902 15.3045 15.1004 15.3993 14.8002 15.3993V16.9341C15.421 16.9341 16.0291 16.7388 16.531 16.3718L15.6251 15.1328ZM14.8002 15.3993H12.3153V16.9341H14.8002V15.3993ZM12.3153 16.9341H13.897V15.3993H12.3153V16.9341ZM13.897 16.9341C15.1917 16.9341 16.2776 15.9082 16.2776 14.5973H14.7427C14.7427 15.0208 14.3843 15.3993 13.897 15.3993V16.9341ZM16.2776 14.5973V14.2834H14.7427V14.5973H16.2776ZM16.2776 14.2834C16.2776 13.1968 15.5194 12.2706 14.4702 12.0159L14.1081 13.5074C14.494 13.6011 14.7427 13.9304 14.7427 14.2834H16.2776ZM14.4706 12.016L12.0294 11.422L11.6665 12.9133L14.1077 13.5073L14.4706 12.016ZM12.0281 11.4216C11.5724 11.3116 11.1052 11.2551 10.6346 11.2551V12.79C10.9822 12.79 11.3285 12.8317 11.6679 12.9137L12.0281 11.4216ZM10.6346 11.2551C9.99308 11.2551 9.18545 11.5056 8.61854 11.7088C8.31765 11.8166 8.05049 11.924 7.85868 12.0043C7.76251 12.0446 7.68461 12.0783 7.6301 12.1023C7.60284 12.1143 7.58138 12.1239 7.56637 12.1306C7.55886 12.134 7.55297 12.1367 7.54876 12.1386C7.54665 12.1395 7.54497 12.1403 7.54372 12.1409C7.54309 12.1411 7.54257 12.1414 7.54216 12.1416C7.54196 12.1417 7.54178 12.1417 7.54163 12.1418C7.54156 12.1418 7.54147 12.1419 7.54143 12.1419C7.54134 12.1419 7.54126 12.142 7.86042 12.8399C8.17957 13.5378 8.17951 13.5379 8.17945 13.5379C8.17944 13.5379 8.17939 13.5379 8.17937 13.5379C8.17933 13.5379 8.17931 13.538 8.17933 13.5379C8.17935 13.5379 8.17948 13.5379 8.17972 13.5378C8.18019 13.5376 8.18109 13.5371 8.18239 13.5366C8.18501 13.5354 8.18927 13.5334 8.19509 13.5308C8.20675 13.5256 8.22465 13.5176 8.24819 13.5073C8.29528 13.4865 8.36472 13.4564 8.45153 13.4201C8.62568 13.3472 8.86704 13.2502 9.13633 13.1537C9.70981 12.9482 10.2893 12.79 10.6346 12.79V11.2551ZM7.56428 12.1319L4.5644 13.3867L5.15667 14.8027L8.15656 13.5479L7.56428 12.1319ZM12.1184 6.64197C11.6586 6.96972 11.0967 7.16246 10.4872 7.16246V8.69734C11.4264 8.69734 12.298 8.3989 13.0094 7.89176L12.1184 6.64197ZM10.4872 7.16246C8.93353 7.16246 7.67387 5.90301 7.67387 4.34836H6.13898C6.13898 6.7505 8.08565 8.69734 10.4872 8.69734V7.16246ZM7.67387 4.34836C7.67387 2.79449 8.93345 1.53495 10.4872 1.53495V6.15397e-05C8.08575 6.15397e-05 6.13898 1.9468 6.13898 4.34836H7.67387ZM10.4872 1.53495C11.4941 1.53495 12.3782 2.06306 12.8761 2.86017L14.1779 2.04696C13.4111 0.819551 12.0451 6.15397e-05 10.4872 6.15397e-05V1.53495Z" fill="#717171"/>
</svg>
