<svg width="18" height="18" viewBox="0 0 18 18" fill="none" xmlns="http://www.w3.org/2000/svg">
<path opacity="0.01" fill-rule="evenodd" clip-rule="evenodd" d="M9.00018 18C4.02962 18 0.00018 13.9706 0.00018 9C0.00018 4.02944 4.02962 0 9.00018 0C13.9707 0 18.0002 4.02944 18.0002 9C18.0002 13.9706 13.9707 18 9.00018 18Z" fill="black"/>
<path d="M9.00012 17.5C4.3057 17.5 0.50012 13.6944 0.50012 9C0.50012 4.30558 4.3057 0.5 9.00012 0.5C13.6945 0.5 17.5001 4.30558 17.5001 9C17.5001 13.6944 13.6945 17.5 9.00012 17.5Z" fill="white" stroke="#FCAF17"/>
<path fill-rule="evenodd" clip-rule="evenodd" d="M12.6336 6.3966C12.8844 6.647 12.8844 7.05288 12.6336 7.30315L8.32565 11.6035C8.07481 11.8538 7.66833 11.8538 7.41749 11.6035L5.36676 9.5563C5.11592 9.30603 5.11592 8.90015 5.36676 8.64987C5.61747 8.39948 6.02408 8.39948 6.2748 8.64987L7.87152 10.2437L11.7254 6.3966C11.9763 6.14634 12.3829 6.14634 12.6336 6.3966H12.6336Z" fill="black"/>
</svg>
