<svg width="36" height="32" viewBox="0 0 36 32" fill="none" xmlns="http://www.w3.org/2000/svg">
<path d="M22.1745 15.8698L10.243 9.31668L14.0611 6.04011L26.4698 13.5294V22.4229L22.6518 24.2953L22.1745 15.8698Z" fill="#FCAF17"/>
<path fill-rule="evenodd" clip-rule="evenodd" d="M23.0658 24.3705V16.1906C23.0658 15.8999 22.9107 15.6255 22.6595 15.4967L10.8214 8.7683L13.4565 7.10659L24.8767 13.5927C25.9314 14.248 25.4873 14.1891 25.6367 15.0128V22.7571L23.0658 24.3705ZM27.2371 13.4638C27.2363 13.4638 27.2359 13.4474 27.2349 13.4474C27.2302 13.4153 27.2241 13.3832 27.2154 13.3505C27.2152 13.3505 27.215 13.3505 27.215 13.3505C27.2068 13.3182 27.1963 13.2863 27.1845 13.2538C27.1811 13.2538 27.1774 13.2383 27.1739 13.2383C27.1645 13.2054 27.1542 13.1896 27.1429 13.1733C27.1381 13.1569 27.1334 13.1569 27.1281 13.141C27.1252 13.141 27.1229 13.141 27.12 13.1248C27.1081 13.1085 27.0951 13.0925 27.0819 13.0764C27.0795 13.0764 27.0774 13.0764 27.075 13.0602C27.0548 13.0443 27.0332 13.0118 27.0104 12.9958C27.0062 12.9958 27.0016 12.9796 26.997 12.9796C26.9774 12.9633 26.9569 12.9473 26.9356 12.9312C26.9301 12.9312 26.9248 12.915 26.9191 12.915C26.8906 12.8989 26.861 12.8666 26.8304 12.8506L14.999 6.13879L21.8111 1.84673L33.2315 8.33268L28.4217 11.3664C28.0463 11.5921 27.9337 12.0922 28.17 12.4632C28.4062 12.8506 28.9021 12.9633 29.2775 12.7214L35.2223 8.97829C35.4613 8.83312 35.6037 8.55896 35.5973 8.28442C35.5908 7.99411 35.4367 7.7357 35.1912 7.6067L22.1868 0.200778C21.9295 0.0556152 21.6126 0.0719757 21.362 0.233467L13.0135 5.47702C13.0119 5.47702 13.0101 5.49317 13.0085 5.49317L8.83676 8.10716C8.83482 8.12312 8.83289 8.12312 8.83095 8.12312L0.476943 13.3832C0.237828 13.5284 0.0955209 13.7864 0.101975 14.0771C0.108267 14.351 0.262353 14.6092 0.507921 14.7544L13.5124 22.1442C13.6357 22.2245 13.7725 22.257 13.9093 22.257C14.0581 22.257 14.2067 22.2086 14.3372 22.1278L20.282 18.3847C20.6573 18.1426 20.7701 17.6587 20.5337 17.2717C20.2975 16.9002 19.8015 16.7874 19.4262 17.0296L13.8882 20.5146L2.46781 14.0286L9.27999 9.73677L21.4603 16.6582V25.8231C21.4603 26.1132 21.6192 26.3872 21.8751 26.5325C21.9961 26.5971 22.1299 26.6293 22.2633 26.6293C22.4123 26.6293 22.5608 26.581 22.6912 26.5005L26.8683 23.8703C27.1018 23.7251 27.2435 23.4671 27.2435 23.1928V13.5605C27.2435 13.5605 27.2426 13.5441 27.2425 13.5441C27.242 13.512 27.2404 13.4957 27.2372 13.4638L27.2371 13.4638Z" fill="#717171"/>
<path d="M23.0658 24.3705H22.9644V24.5539L23.1197 24.4564L23.0658 24.3705ZM22.6595 15.4967L22.6094 15.585L22.6132 15.5869L22.6595 15.4967ZM10.8214 8.7683L10.7673 8.68252L10.6241 8.77282L10.7713 8.85647L10.8214 8.7683ZM13.4565 7.10659L13.5066 7.0184L13.4538 6.9884L13.4024 7.0208L13.4565 7.10659ZM24.8767 13.5927L24.9303 13.5065L24.9268 13.5045L24.8767 13.5927ZM25.6367 15.0128H25.7381V15.0037L25.7364 14.9947L25.6367 15.0128ZM25.6367 22.7571L25.6906 22.843L25.7381 22.8131V22.7571H25.6367ZM27.2371 13.4638L27.3057 13.389L27.2766 13.3623H27.2371V13.4638ZM27.2349 13.4474L27.1345 13.462L27.1472 13.5488H27.2349V13.4474ZM27.2154 13.3505L27.3134 13.3244L27.2933 13.2491H27.2154V13.3505ZM27.215 13.3505L27.1168 13.3756L27.1362 13.4519H27.215V13.3505ZM27.1845 13.2538L27.2799 13.2192L27.2556 13.1524H27.1845V13.2538ZM27.1739 13.2383L27.0763 13.266L27.0973 13.3397H27.1739V13.2383ZM27.1429 13.1733L27.0457 13.2021L27.0503 13.2176L27.0595 13.2309L27.1429 13.1733ZM27.1281 13.141L27.2243 13.109L27.2012 13.0395H27.1281V13.141ZM27.12 13.1248L27.2198 13.1069L27.2157 13.0839L27.2019 13.065L27.12 13.1248ZM27.0819 13.0764L27.1604 13.0121L27.1299 12.9749H27.0819V13.0764ZM27.075 13.0602L27.1753 13.0452L27.1693 13.0055L27.1379 12.9807L27.075 13.0602ZM27.0104 12.9958L27.0687 12.9128L27.0425 12.8944H27.0104V12.9958ZM26.997 12.9796L26.9323 13.0577L26.9604 13.0811H26.997V12.9796ZM26.9356 12.9312L26.9969 12.8504L26.9697 12.8298H26.9356V12.9312ZM26.9191 12.915L26.8692 13.0033L26.8924 13.0165H26.9191V12.915ZM26.8304 12.8506L26.7803 12.9389L26.7835 12.9406L26.8304 12.8506ZM14.999 6.13879L14.945 6.05299L14.8016 6.14336L14.949 6.227L14.999 6.13879ZM21.8111 1.84673L21.8612 1.75854L21.8084 1.72857L21.757 1.76093L21.8111 1.84673ZM33.2315 8.33268L33.2856 8.41846L33.4288 8.32812L33.2815 8.24449L33.2315 8.33268ZM28.4217 11.3664L28.474 11.4533L28.4758 11.4522L28.4217 11.3664ZM28.17 12.4632L28.2566 12.4104L28.2556 12.4087L28.17 12.4632ZM29.2775 12.7214L29.2235 12.6356L29.2226 12.6362L29.2775 12.7214ZM35.2223 8.97829L35.1696 8.8916L35.1683 8.89246L35.2223 8.97829ZM35.5973 8.28442L35.4959 8.28667V8.2868L35.5973 8.28442ZM35.1912 7.6067L35.1409 7.69488L35.144 7.69648L35.1912 7.6067ZM22.1868 0.200778L22.237 0.112649L22.2367 0.112445L22.1868 0.200778ZM21.362 0.233467L21.416 0.319355L21.417 0.318714L21.362 0.233467ZM13.0135 5.47702V5.57843H13.0427L13.0675 5.5629L13.0135 5.47702ZM13.0085 5.49317V5.39175H12.9794L12.9547 5.40723L13.0085 5.49317ZM8.83676 8.10716L8.78291 8.02122L8.74191 8.04691L8.73608 8.09495L8.83676 8.10716ZM8.83095 8.12312V8.0217H8.80168L8.77691 8.0373L8.83095 8.12312ZM0.476943 13.3832L0.529579 13.4699L0.53098 13.469L0.476943 13.3832ZM0.101975 14.0771L0.000582122 14.0793L0.000583912 14.0794L0.101975 14.0771ZM0.507921 14.7544L0.456305 14.8417L0.457815 14.8426L0.507921 14.7544ZM13.5124 22.1442L13.5679 22.0591L13.5625 22.056L13.5124 22.1442ZM14.3372 22.1278L14.3906 22.2141L14.3912 22.2137L14.3372 22.1278ZM20.282 18.3847L20.336 18.4705L20.337 18.4699L20.282 18.3847ZM20.5337 17.2717L20.6203 17.2188L20.6193 17.2173L20.5337 17.2717ZM19.4262 17.0296L19.4802 17.1155L19.4812 17.1148L19.4262 17.0296ZM13.8882 20.5146L13.8381 20.6028L13.8909 20.6327L13.9422 20.6004L13.8882 20.5146ZM2.46781 14.0286L2.41375 13.9428L2.27039 14.0331L2.41772 14.1168L2.46781 14.0286ZM9.27999 9.73677L9.3301 9.6486L9.2773 9.6186L9.22593 9.65097L9.27999 9.73677ZM21.4603 16.6582H21.5617V16.5992L21.5104 16.57L21.4603 16.6582ZM21.8751 26.5325L21.825 26.6208L21.8274 26.622L21.8751 26.5325ZM22.6912 26.5005L22.7445 26.5867L22.7453 26.5863L22.6912 26.5005ZM26.8683 23.8703L26.8148 23.7842L26.8143 23.7845L26.8683 23.8703ZM27.2435 13.5605H27.345L27.3447 13.5555L27.2435 13.5605ZM27.2425 13.5441L27.1411 13.5457L27.1426 13.6456H27.2425V13.5441ZM27.2372 13.4638L27.3381 13.4536L27.3342 13.4151L27.3057 13.389L27.2372 13.4638ZM23.1672 24.3705V16.1906H22.9644V24.3705H23.1672ZM23.1672 16.1906C23.1672 15.8655 22.9941 15.5543 22.7058 15.4065L22.6132 15.5869C22.8274 15.6968 22.9644 15.9342 22.9644 16.1906H23.1672ZM22.7096 15.4085L10.8715 8.68013L10.7713 8.85647L22.6094 15.5849L22.7096 15.4085ZM10.8755 8.85409L13.5106 7.19237L13.4024 7.0208L10.7673 8.68252L10.8755 8.85409ZM13.4064 7.19477L24.8266 13.6809L24.9268 13.5045L13.5066 7.0184L13.4064 7.19477ZM24.8232 13.6789C25.0863 13.8423 25.2494 13.9574 25.351 14.0501C25.4504 14.1408 25.4837 14.2037 25.4974 14.2625C25.5132 14.3307 25.5064 14.4015 25.5019 14.5321C25.4976 14.657 25.4978 14.8155 25.5369 15.0309L25.7364 14.9947C25.7008 14.7982 25.7006 14.6552 25.7046 14.539C25.7084 14.4286 25.7187 14.3187 25.695 14.2167C25.6691 14.1054 25.6064 14.0086 25.4878 13.9003C25.3713 13.7941 25.1945 13.6707 24.9302 13.5066L24.8232 13.6789ZM25.5352 15.0128V22.7571H25.7381V15.0128H25.5352ZM25.5827 22.6712L23.0119 24.2846L23.1197 24.4564L25.6906 22.843L25.5827 22.6712ZM27.2371 13.3623C27.2596 13.3623 27.2781 13.3697 27.2912 13.378C27.3036 13.3858 27.3118 13.3947 27.3164 13.4006C27.3213 13.4067 27.3245 13.4122 27.3265 13.416C27.3286 13.4199 27.3301 13.4233 27.3311 13.4258C27.333 13.4306 27.3342 13.4346 27.3348 13.4368C27.3355 13.4392 27.3359 13.4412 27.3362 13.4425C27.3367 13.4451 27.337 13.447 27.3371 13.4479C27.3372 13.4488 27.3373 13.4495 27.3374 13.4498C27.3374 13.4501 27.3374 13.45 27.3371 13.4471C27.3371 13.4461 27.3369 13.4446 27.3368 13.4431C27.3367 13.4417 27.3364 13.4396 27.3361 13.4372C27.336 13.436 27.3358 13.4344 27.3355 13.4326C27.3352 13.4309 27.3347 13.4279 27.3338 13.4244C27.3334 13.4226 27.3327 13.4201 27.3318 13.4171C27.3309 13.4143 27.3293 13.4096 27.3267 13.4041C27.3253 13.4012 27.3234 13.3975 27.3207 13.3933C27.3181 13.3892 27.3142 13.3836 27.3086 13.3777C27.303 13.3718 27.2944 13.3641 27.2822 13.3577C27.2696 13.351 27.2534 13.346 27.2349 13.346V13.5488C27.2164 13.5488 27.2003 13.5438 27.1876 13.5371C27.1755 13.5307 27.1669 13.5231 27.1614 13.5173C27.1558 13.5114 27.1519 13.5058 27.1493 13.5018C27.1467 13.4976 27.1448 13.4939 27.1435 13.4912C27.1409 13.4857 27.1393 13.4812 27.1385 13.4786C27.1376 13.4758 27.137 13.4734 27.1366 13.4718C27.1359 13.4688 27.1355 13.4664 27.1353 13.4653C27.1351 13.4641 27.135 13.4632 27.1349 13.4627C27.1348 13.4619 27.1348 13.4616 27.1348 13.4621C27.1349 13.4625 27.1349 13.4631 27.135 13.4641C27.1351 13.4653 27.1354 13.4692 27.1358 13.4727C27.1359 13.4737 27.1361 13.4751 27.1363 13.4767C27.1365 13.4781 27.1369 13.4806 27.1375 13.4836C27.1379 13.4851 27.1383 13.4873 27.139 13.4899C27.1397 13.4923 27.1409 13.4964 27.1429 13.5014C27.1439 13.5039 27.1454 13.5074 27.1475 13.5114C27.1496 13.5152 27.1528 13.5207 27.1577 13.5269C27.1624 13.5328 27.1706 13.5417 27.183 13.5495C27.1961 13.5578 27.2147 13.5652 27.2371 13.5652V13.3623ZM27.3352 13.4328C27.3301 13.3977 27.3233 13.3617 27.3134 13.3244L27.1174 13.3766C27.1249 13.4048 27.1303 13.4329 27.1345 13.462L27.3352 13.4328ZM27.2154 13.2491C27.2154 13.2491 27.2154 13.2491 27.2154 13.2491C27.2154 13.2491 27.2154 13.2491 27.2154 13.2491C27.2154 13.2491 27.2154 13.2491 27.2154 13.2491C27.2154 13.2491 27.2154 13.2491 27.2154 13.2491C27.2154 13.2491 27.2154 13.2491 27.2154 13.2491C27.2154 13.2491 27.2154 13.2491 27.2154 13.2491C27.2153 13.2491 27.2153 13.2491 27.2153 13.2491H27.2153H27.2153H27.2153H27.2153H27.2153H27.2153H27.2153C27.2153 13.2491 27.2153 13.2491 27.2153 13.2491C27.2153 13.2491 27.2153 13.2491 27.2153 13.2491C27.2153 13.2491 27.2153 13.2491 27.2153 13.2491C27.2153 13.2491 27.2153 13.2491 27.2153 13.2491C27.2153 13.2491 27.2153 13.2491 27.2153 13.2491C27.2153 13.2491 27.2153 13.2491 27.2153 13.2491C27.2153 13.2491 27.2153 13.2491 27.2153 13.2491C27.2153 13.2491 27.2153 13.2491 27.2153 13.2491C27.2153 13.2491 27.2153 13.2491 27.2153 13.2491C27.2153 13.2491 27.2153 13.2491 27.2153 13.2491H27.2153H27.2153H27.2153H27.2153H27.2153C27.2153 13.2491 27.2153 13.2491 27.2153 13.2491C27.2153 13.2491 27.2153 13.2491 27.2153 13.2491C27.2153 13.2491 27.2153 13.2491 27.2153 13.2491C27.2153 13.2491 27.2153 13.2491 27.2153 13.2491C27.2153 13.2491 27.2153 13.2491 27.2153 13.2491C27.2153 13.2491 27.2153 13.2491 27.2153 13.2491C27.2153 13.2491 27.2153 13.2491 27.2153 13.2491H27.2153H27.2153H27.2153C27.2153 13.2491 27.2153 13.2491 27.2153 13.2491C27.2153 13.2491 27.2153 13.2491 27.2153 13.2491C27.2153 13.2491 27.2153 13.2491 27.2153 13.2491C27.2153 13.2491 27.2153 13.2491 27.2153 13.2491C27.2153 13.2491 27.2153 13.2491 27.2153 13.2491C27.2153 13.2491 27.2153 13.2491 27.2153 13.2491H27.2153H27.2153C27.2153 13.2491 27.2153 13.2491 27.2153 13.2491C27.2153 13.2491 27.2153 13.2491 27.2153 13.2491C27.2153 13.2491 27.2153 13.2491 27.2153 13.2491C27.2153 13.2491 27.2153 13.2491 27.2153 13.2491C27.2153 13.2491 27.2153 13.2491 27.2153 13.2491H27.2153H27.2153C27.2153 13.2491 27.2153 13.2491 27.2153 13.2491C27.2153 13.2491 27.2153 13.2491 27.2153 13.2491C27.2153 13.2491 27.2153 13.2491 27.2153 13.2491C27.2153 13.2491 27.2153 13.2491 27.2153 13.2491H27.2152H27.2152C27.2152 13.2491 27.2152 13.2491 27.2152 13.2491C27.2152 13.2491 27.2152 13.2491 27.2152 13.2491C27.2152 13.2491 27.2152 13.2491 27.2152 13.2491H27.2152H27.2152C27.2152 13.2491 27.2152 13.2491 27.2152 13.2491C27.2152 13.2491 27.2152 13.2491 27.2152 13.2491C27.2152 13.2491 27.2152 13.2491 27.2152 13.2491H27.2152C27.2152 13.2491 27.2152 13.2491 27.2152 13.2491C27.2152 13.2491 27.2152 13.2491 27.2152 13.2491C27.2152 13.2491 27.2152 13.2491 27.2152 13.2491H27.2152C27.2152 13.2491 27.2152 13.2491 27.2152 13.2491C27.2152 13.2491 27.2152 13.2491 27.2152 13.2491H27.2152H27.2152C27.2152 13.2491 27.2152 13.2491 27.2152 13.2491C27.2152 13.2491 27.2152 13.2491 27.2152 13.2491H27.2152C27.2152 13.2491 27.2152 13.2491 27.2152 13.2491C27.2152 13.2491 27.2152 13.2491 27.2152 13.2491H27.2152C27.2152 13.2491 27.2152 13.2491 27.2152 13.2491C27.2152 13.2491 27.2152 13.2491 27.2152 13.2491H27.2152C27.2152 13.2491 27.2152 13.2491 27.2152 13.2491H27.2152C27.2152 13.2491 27.2152 13.2491 27.2152 13.2491C27.2152 13.2491 27.2152 13.2491 27.2152 13.2491H27.2152C27.2152 13.2491 27.2152 13.2491 27.2152 13.2491H27.2152C27.2152 13.2491 27.2152 13.2491 27.2152 13.2491H27.2152C27.2152 13.2491 27.2152 13.2491 27.2152 13.2491C27.2152 13.2491 27.2152 13.2491 27.2152 13.2491C27.2152 13.2491 27.2152 13.2491 27.2152 13.2491C27.2152 13.2491 27.2152 13.2491 27.2152 13.2491C27.2152 13.2491 27.2152 13.2491 27.2152 13.2491C27.2152 13.2491 27.2152 13.2491 27.2152 13.2491C27.2152 13.2491 27.2152 13.2491 27.2152 13.2491H27.2152C27.2152 13.2491 27.2152 13.2491 27.2152 13.2491H27.2152C27.2152 13.2491 27.2152 13.2491 27.2152 13.2491C27.2152 13.2491 27.2152 13.2491 27.2152 13.2491H27.2152C27.2152 13.2491 27.2152 13.2491 27.2152 13.2491C27.2152 13.2491 27.2152 13.2491 27.2152 13.2491H27.2151C27.2151 13.2491 27.2151 13.2491 27.2151 13.2491C27.2151 13.2491 27.2151 13.2491 27.2151 13.2491H27.2151H27.2151C27.2151 13.2491 27.2151 13.2491 27.2151 13.2491C27.2151 13.2491 27.2151 13.2491 27.2151 13.2491C27.2151 13.2491 27.2151 13.2491 27.2151 13.2491H27.2151H27.2151H27.2151C27.2151 13.2491 27.2151 13.2491 27.2151 13.2491C27.2151 13.2491 27.2151 13.2491 27.2151 13.2491C27.2151 13.2491 27.2151 13.2491 27.2151 13.2491C27.2151 13.2491 27.2151 13.2491 27.2151 13.2491C27.2151 13.2491 27.2151 13.2491 27.2151 13.2491C27.2151 13.2491 27.2151 13.2491 27.2151 13.2491H27.2151H27.2151H27.2151C27.2151 13.2491 27.2151 13.2491 27.2151 13.2491C27.2151 13.2491 27.2151 13.2491 27.2151 13.2491C27.2151 13.2491 27.2151 13.2491 27.2151 13.2491H27.2151C27.2151 13.2491 27.2151 13.2491 27.2151 13.2491H27.2151C27.2151 13.2491 27.2151 13.2491 27.2151 13.2491C27.2151 13.2491 27.2151 13.2491 27.2151 13.2491C27.2151 13.2491 27.2151 13.2491 27.2151 13.2491H27.2151C27.2151 13.2491 27.2151 13.2491 27.2151 13.2491C27.2151 13.2491 27.2151 13.2491 27.2151 13.2491H27.2151H27.2151H27.2151H27.2151H27.2151C27.2151 13.2491 27.2151 13.2491 27.2151 13.2491C27.2151 13.2491 27.2151 13.2491 27.2151 13.2491H27.2151C27.2151 13.2491 27.2151 13.2491 27.2151 13.2491C27.2151 13.2491 27.2151 13.2491 27.2151 13.2491H27.2151H27.2151C27.2151 13.2491 27.2151 13.2491 27.2151 13.2491C27.2151 13.2491 27.2151 13.2491 27.2151 13.2491C27.2151 13.2491 27.2151 13.2491 27.2151 13.2491C27.2151 13.2491 27.2151 13.2491 27.2151 13.2491H27.2151C27.2151 13.2491 27.2151 13.2491 27.2151 13.2491H27.2151H27.215C27.215 13.2491 27.215 13.2491 27.215 13.2491H27.215C27.215 13.2491 27.215 13.2491 27.215 13.2491C27.215 13.2491 27.215 13.2491 27.215 13.3505C27.215 13.4519 27.215 13.4519 27.215 13.4519C27.215 13.4519 27.215 13.4519 27.215 13.4519H27.215C27.215 13.4519 27.215 13.4519 27.215 13.4519H27.2151H27.2151C27.2151 13.4519 27.2151 13.4519 27.2151 13.4519H27.2151C27.2151 13.4519 27.2151 13.4519 27.2151 13.4519C27.2151 13.4519 27.2151 13.4519 27.2151 13.4519C27.2151 13.4519 27.2151 13.4519 27.2151 13.4519C27.2151 13.4519 27.2151 13.4519 27.2151 13.4519H27.2151H27.2151C27.2151 13.4519 27.2151 13.4519 27.2151 13.4519C27.2151 13.4519 27.2151 13.4519 27.2151 13.4519H27.2151C27.2151 13.4519 27.2151 13.4519 27.2151 13.4519C27.2151 13.4519 27.2151 13.4519 27.2151 13.4519H27.2151H27.2151H27.2151H27.2151H27.2151C27.2151 13.4519 27.2151 13.4519 27.2151 13.4519C27.2151 13.4519 27.2151 13.4519 27.2151 13.4519H27.2151C27.2151 13.4519 27.2151 13.4519 27.2151 13.4519C27.2151 13.4519 27.2151 13.4519 27.2151 13.4519C27.2151 13.4519 27.2151 13.4519 27.2151 13.4519H27.2151C27.2151 13.4519 27.2151 13.4519 27.2151 13.4519H27.2151C27.2151 13.4519 27.2151 13.4519 27.2151 13.4519C27.2151 13.4519 27.2151 13.4519 27.2151 13.4519C27.2151 13.4519 27.2151 13.4519 27.2151 13.4519H27.2151H27.2151H27.2151C27.2151 13.4519 27.2151 13.4519 27.2151 13.4519C27.2151 13.4519 27.2151 13.4519 27.2151 13.4519C27.2151 13.4519 27.2151 13.4519 27.2151 13.4519C27.2151 13.4519 27.2151 13.4519 27.2151 13.4519C27.2151 13.4519 27.2151 13.4519 27.2151 13.4519C27.2151 13.4519 27.2151 13.4519 27.2151 13.4519H27.2151H27.2151H27.2151C27.2151 13.4519 27.2151 13.4519 27.2151 13.4519C27.2151 13.4519 27.2151 13.4519 27.2151 13.4519C27.2151 13.4519 27.2151 13.4519 27.2151 13.4519H27.2151H27.2151C27.2151 13.4519 27.2151 13.4519 27.2151 13.4519C27.2151 13.4519 27.2151 13.4519 27.2151 13.4519H27.2152C27.2152 13.4519 27.2152 13.4519 27.2152 13.4519C27.2152 13.4519 27.2152 13.4519 27.2152 13.4519H27.2152C27.2152 13.4519 27.2152 13.4519 27.2152 13.4519C27.2152 13.4519 27.2152 13.4519 27.2152 13.4519H27.2152C27.2152 13.4519 27.2152 13.4519 27.2152 13.4519H27.2152C27.2152 13.4519 27.2152 13.4519 27.2152 13.4519C27.2152 13.4519 27.2152 13.4519 27.2152 13.4519C27.2152 13.4519 27.2152 13.4519 27.2152 13.4519C27.2152 13.4519 27.2152 13.4519 27.2152 13.4519C27.2152 13.4519 27.2152 13.4519 27.2152 13.4519C27.2152 13.4519 27.2152 13.4519 27.2152 13.4519C27.2152 13.4519 27.2152 13.4519 27.2152 13.4519H27.2152C27.2152 13.4519 27.2152 13.4519 27.2152 13.4519H27.2152C27.2152 13.4519 27.2152 13.4519 27.2152 13.4519H27.2152C27.2152 13.4519 27.2152 13.4519 27.2152 13.4519C27.2152 13.4519 27.2152 13.4519 27.2152 13.4519H27.2152C27.2152 13.4519 27.2152 13.4519 27.2152 13.4519H27.2152C27.2152 13.4519 27.2152 13.4519 27.2152 13.4519C27.2152 13.4519 27.2152 13.4519 27.2152 13.4519H27.2152C27.2152 13.4519 27.2152 13.4519 27.2152 13.4519C27.2152 13.4519 27.2152 13.4519 27.2152 13.4519H27.2152C27.2152 13.4519 27.2152 13.4519 27.2152 13.4519C27.2152 13.4519 27.2152 13.4519 27.2152 13.4519H27.2152H27.2152C27.2152 13.4519 27.2152 13.4519 27.2152 13.4519C27.2152 13.4519 27.2152 13.4519 27.2152 13.4519H27.2152C27.2152 13.4519 27.2152 13.4519 27.2152 13.4519C27.2152 13.4519 27.2152 13.4519 27.2152 13.4519C27.2152 13.4519 27.2152 13.4519 27.2152 13.4519H27.2152C27.2152 13.4519 27.2152 13.4519 27.2152 13.4519C27.2152 13.4519 27.2152 13.4519 27.2152 13.4519C27.2152 13.4519 27.2152 13.4519 27.2152 13.4519H27.2152H27.2152C27.2152 13.4519 27.2152 13.4519 27.2152 13.4519C27.2152 13.4519 27.2152 13.4519 27.2152 13.4519C27.2152 13.4519 27.2152 13.4519 27.2152 13.4519H27.2152H27.2153C27.2153 13.4519 27.2153 13.4519 27.2153 13.4519C27.2153 13.4519 27.2153 13.4519 27.2153 13.4519C27.2153 13.4519 27.2153 13.4519 27.2153 13.4519C27.2153 13.4519 27.2153 13.4519 27.2153 13.4519H27.2153H27.2153C27.2153 13.4519 27.2153 13.4519 27.2153 13.4519C27.2153 13.4519 27.2153 13.4519 27.2153 13.4519C27.2153 13.4519 27.2153 13.4519 27.2153 13.4519C27.2153 13.4519 27.2153 13.4519 27.2153 13.4519C27.2153 13.4519 27.2153 13.4519 27.2153 13.4519H27.2153H27.2153C27.2153 13.4519 27.2153 13.4519 27.2153 13.4519C27.2153 13.4519 27.2153 13.4519 27.2153 13.4519C27.2153 13.4519 27.2153 13.4519 27.2153 13.4519C27.2153 13.4519 27.2153 13.4519 27.2153 13.4519C27.2153 13.4519 27.2153 13.4519 27.2153 13.4519C27.2153 13.4519 27.2153 13.4519 27.2153 13.4519H27.2153H27.2153H27.2153C27.2153 13.4519 27.2153 13.4519 27.2153 13.4519C27.2153 13.4519 27.2153 13.4519 27.2153 13.4519C27.2153 13.4519 27.2153 13.4519 27.2153 13.4519C27.2153 13.4519 27.2153 13.4519 27.2153 13.4519C27.2153 13.4519 27.2153 13.4519 27.2153 13.4519C27.2153 13.4519 27.2153 13.4519 27.2153 13.4519C27.2153 13.4519 27.2153 13.4519 27.2153 13.4519H27.2153H27.2153H27.2153H27.2153H27.2153C27.2153 13.4519 27.2153 13.4519 27.2153 13.4519C27.2153 13.4519 27.2153 13.4519 27.2153 13.4519C27.2153 13.4519 27.2153 13.4519 27.2153 13.4519C27.2153 13.4519 27.2153 13.4519 27.2153 13.4519C27.2153 13.4519 27.2153 13.4519 27.2153 13.4519C27.2153 13.4519 27.2153 13.4519 27.2153 13.4519C27.2153 13.4519 27.2153 13.4519 27.2153 13.4519C27.2153 13.4519 27.2153 13.4519 27.2153 13.4519C27.2153 13.4519 27.2153 13.4519 27.2153 13.4519C27.2153 13.4519 27.2153 13.4519 27.2153 13.4519H27.2153H27.2153H27.2153H27.2153H27.2153H27.2153H27.2153C27.2153 13.4519 27.2153 13.4519 27.2154 13.4519C27.2154 13.4519 27.2154 13.4519 27.2154 13.4519C27.2154 13.4519 27.2154 13.4519 27.2154 13.4519C27.2154 13.4519 27.2154 13.4519 27.2154 13.4519C27.2154 13.4519 27.2154 13.4519 27.2154 13.4519C27.2154 13.4519 27.2154 13.4519 27.2154 13.4519C27.2154 13.4519 27.2154 13.4519 27.2154 13.4519V13.2491ZM27.3133 13.3255C27.304 13.2888 27.2923 13.2535 27.2799 13.2192L27.0892 13.2884C27.1004 13.3192 27.1097 13.3477 27.1168 13.3756L27.3133 13.3255ZM27.1845 13.1524C27.2043 13.1524 27.2203 13.1581 27.2315 13.1641C27.2424 13.1699 27.2499 13.1764 27.2544 13.1808C27.259 13.1854 27.2623 13.1895 27.2643 13.1923C27.2664 13.1951 27.2679 13.1975 27.2688 13.199C27.2706 13.202 27.2717 13.2042 27.2718 13.2044C27.2719 13.2047 27.272 13.2049 27.2714 13.2036C27.271 13.2027 27.27 13.2006 27.2689 13.1983C27.2678 13.1961 27.2657 13.192 27.2629 13.1874C27.2614 13.185 27.2593 13.1818 27.2567 13.1784C27.2541 13.175 27.2502 13.1703 27.245 13.1653C27.2399 13.1605 27.2318 13.1538 27.2206 13.1481C27.209 13.1421 27.193 13.1368 27.1739 13.1368V13.3397C27.1552 13.3397 27.1397 13.3345 27.1285 13.3288C27.1178 13.3233 27.1101 13.317 27.1055 13.3125C27.1007 13.308 27.0973 13.3038 27.0951 13.301C27.0929 13.2981 27.0913 13.2956 27.0903 13.294C27.0883 13.2908 27.0872 13.2885 27.087 13.2881C27.0868 13.2876 27.0867 13.2874 27.0872 13.2885C27.0875 13.2891 27.0884 13.2912 27.0895 13.2934C27.0905 13.2954 27.0924 13.2993 27.0951 13.3037C27.0965 13.306 27.0984 13.3091 27.1009 13.3125C27.1034 13.3158 27.1071 13.3204 27.1121 13.3254C27.117 13.3303 27.125 13.3372 27.1362 13.3432C27.1479 13.3494 27.1644 13.3552 27.1845 13.3552V13.1524ZM27.2714 13.2105C27.258 13.1631 27.2412 13.1371 27.2263 13.1156L27.0595 13.2309C27.0647 13.2385 27.0669 13.2419 27.0688 13.2457C27.0706 13.2493 27.0732 13.2551 27.0763 13.266L27.2714 13.2105ZM27.2401 13.1445C27.2376 13.1359 27.2346 13.1279 27.231 13.1202C27.2274 13.1127 27.2239 13.107 27.2224 13.1045C27.2207 13.1017 27.2216 13.1031 27.2225 13.1047C27.2235 13.1068 27.2241 13.1085 27.2243 13.109L27.0318 13.173C27.0346 13.1815 27.0378 13.189 27.0414 13.1962C27.0448 13.2028 27.0481 13.2082 27.0489 13.2095C27.0498 13.211 27.0487 13.2093 27.0476 13.2069C27.0464 13.2043 27.0458 13.2024 27.0457 13.2021L27.2401 13.1445ZM27.1281 13.0395C27.1242 13.0395 27.1424 13.0385 27.162 13.0459C27.1862 13.0551 27.2013 13.0715 27.2095 13.0843C27.2163 13.095 27.2189 13.104 27.2194 13.1056C27.2201 13.1082 27.2202 13.1091 27.2198 13.1069L27.0202 13.1428C27.0213 13.1492 27.0251 13.1724 27.0386 13.1936C27.0481 13.2084 27.0645 13.2258 27.09 13.2355C27.1013 13.2398 27.1112 13.2413 27.1178 13.2419C27.121 13.2422 27.1236 13.2423 27.1253 13.2424C27.1261 13.2424 27.1268 13.2424 27.1272 13.2424C27.1276 13.2424 27.128 13.2424 27.1281 13.2424V13.0395ZM27.2019 13.065C27.1882 13.0462 27.1736 13.0283 27.1604 13.0121L27.0035 13.1406C27.0167 13.1568 27.028 13.1708 27.0381 13.1846L27.2019 13.065ZM27.0819 12.9749C27.0783 12.9749 27.099 12.9736 27.1209 12.9832C27.1464 12.9945 27.1604 13.0131 27.1669 13.0248C27.1727 13.0351 27.1747 13.0434 27.1751 13.0447C27.1756 13.0469 27.1756 13.0475 27.1753 13.0452L26.9747 13.0752C26.9757 13.0819 26.9786 13.1036 26.9899 13.1239C26.9976 13.1376 27.0127 13.1573 27.0394 13.169C27.0516 13.1743 27.0625 13.1763 27.0702 13.1772C27.0739 13.1776 27.0769 13.1777 27.0788 13.1777C27.0797 13.1778 27.0805 13.1778 27.081 13.1778C27.0815 13.1778 27.0819 13.1778 27.0819 13.1778V12.9749ZM27.1379 12.9807C27.1385 12.9812 27.1373 12.9802 27.1334 12.9761C27.1295 12.972 27.1256 12.9675 27.1195 12.9606C27.1099 12.9499 27.0913 12.9286 27.0687 12.9128L26.9522 13.0788C26.9513 13.0782 26.9522 13.0787 26.9556 13.0821C26.9588 13.0853 26.9626 13.0894 26.9679 13.0954C26.9725 13.1006 26.9792 13.1083 26.9858 13.1152C26.9923 13.1222 27.0014 13.1313 27.012 13.1397L27.1379 12.9807ZM27.0104 12.8944C27.0268 12.8944 27.0406 12.8984 27.0509 12.903C27.0609 12.9074 27.0684 12.9127 27.0732 12.9167C27.0781 12.9207 27.0817 12.9245 27.084 12.9271C27.0864 12.9298 27.0881 12.9321 27.0893 12.9337C27.0914 12.9367 27.0927 12.9389 27.0929 12.9391C27.0931 12.9394 27.0932 12.9396 27.0924 12.9382C27.0919 12.9373 27.0906 12.935 27.0891 12.9325C27.0877 12.9301 27.085 12.9259 27.0815 12.9212C27.0796 12.9187 27.0771 12.9156 27.074 12.9122C27.0709 12.9089 27.0666 12.9046 27.061 12.9002C27.0554 12.8959 27.0474 12.8906 27.037 12.8862C27.0263 12.8818 27.0127 12.8782 26.997 12.8782V13.0811C26.9819 13.0811 26.9689 13.0776 26.9588 13.0734C26.949 13.0693 26.9416 13.0643 26.9365 13.0604C26.9315 13.0565 26.9277 13.0527 26.9252 13.05C26.9226 13.0473 26.9207 13.0449 26.9194 13.0432C26.917 13.0399 26.9155 13.0375 26.9152 13.037C26.9149 13.0364 26.9147 13.0361 26.9154 13.0372C26.9157 13.0379 26.9169 13.0401 26.9182 13.0422C26.9195 13.0444 26.9219 13.0484 26.9251 13.0529C26.9268 13.0552 26.9292 13.0582 26.9321 13.0615C26.9349 13.0648 26.9391 13.069 26.9445 13.0735C26.9499 13.0779 26.9578 13.0836 26.9684 13.0883C26.9793 13.0931 26.9936 13.0972 27.0104 13.0972V12.8944ZM27.0618 12.9016C27.0406 12.884 27.0188 12.867 26.9969 12.8504L26.8743 13.012C26.895 13.0277 26.9142 13.0427 26.9323 13.0577L27.0618 12.9016ZM26.9356 12.8298C26.9604 12.8298 26.9788 12.839 26.9887 12.8454C26.9938 12.8487 26.9977 12.852 27.0005 12.8545C27.0033 12.857 27.0055 12.8593 27.007 12.8609C27.0098 12.8641 27.0115 12.8665 27.0118 12.867C27.0122 12.8674 27.0124 12.8677 27.0115 12.8664C27.0109 12.8656 27.0094 12.8632 27.0075 12.8607C27.0058 12.8583 27.0026 12.854 26.9983 12.8493C26.9943 12.8449 26.9867 12.8372 26.9755 12.8301C26.9641 12.8228 26.9447 12.8136 26.9191 12.8136V13.0165C26.895 13.0165 26.877 13.0078 26.8669 13.0014C26.8571 12.9952 26.8509 12.9887 26.8483 12.9859C26.8454 12.9827 26.8436 12.9802 26.8432 12.9796C26.8427 12.979 26.8425 12.9786 26.8433 12.9798C26.8438 12.9805 26.8453 12.9828 26.8471 12.9852C26.8488 12.9876 26.8518 12.9918 26.856 12.9964C26.8582 12.9988 26.861 13.0018 26.8645 13.0049C26.8679 13.0081 26.8726 13.0119 26.8784 13.0156C26.8896 13.0229 26.9094 13.0326 26.9356 13.0326V12.8298ZM26.969 12.8268C26.9641 12.824 26.9572 12.8186 26.9397 12.8043C26.9262 12.7932 26.9033 12.7743 26.8772 12.7607L26.7835 12.9406C26.7881 12.943 26.7953 12.9482 26.8113 12.9613C26.8234 12.9712 26.8456 12.99 26.8692 13.0033L26.969 12.8268ZM26.8804 12.7624L15.0491 6.05058L14.949 6.227L26.7803 12.9388L26.8804 12.7624ZM15.0531 6.2246L21.8651 1.93254L21.757 1.76093L14.945 6.05299L15.0531 6.2246ZM21.761 1.93492L33.1814 8.42086L33.2815 8.24449L21.8612 1.75854L21.761 1.93492ZM33.1773 8.2469L28.3676 11.2806L28.4758 11.4522L33.2856 8.41846L33.1773 8.2469ZM28.3695 11.2795C27.944 11.5352 27.8182 12.0997 28.0845 12.5177L28.2556 12.4087C28.0491 12.0847 28.1486 11.6489 28.474 11.4533L28.3695 11.2795ZM28.0834 12.516C28.3491 12.9518 28.9088 13.0796 29.3324 12.8067L29.2226 12.6362C28.8953 12.847 28.4633 12.7495 28.2566 12.4104L28.0834 12.516ZM29.3315 12.8073L35.2763 9.06411L35.1683 8.89246L29.2235 12.6356L29.3315 12.8073ZM35.275 9.06496C35.5462 8.90018 35.7059 8.5913 35.6987 8.28203L35.4959 8.2868C35.5015 8.52663 35.3763 8.76607 35.1696 8.89161L35.275 9.06496ZM35.6987 8.28216C35.6914 7.95744 35.5187 7.66417 35.2383 7.51692L35.144 7.69648C35.3548 7.80722 35.4902 8.03078 35.4959 8.28667L35.6987 8.28216ZM35.2413 7.51857L22.237 0.11265L22.1367 0.288906L35.141 7.69483L35.2413 7.51857ZM22.2367 0.112445C21.9447 -0.052248 21.5875 -0.0324984 21.3071 0.14822L21.417 0.318714C21.6377 0.17645 21.9143 0.163478 22.137 0.289112L22.2367 0.112445ZM21.3081 0.147584L12.9596 5.39113L13.0675 5.5629L21.416 0.31935L21.3081 0.147584ZM13.0135 5.3756C12.9915 5.3756 12.9735 5.38267 12.961 5.39019C12.9491 5.39737 12.9411 5.40552 12.9364 5.41096C12.9315 5.41661 12.9282 5.42178 12.926 5.42537C12.9238 5.42908 12.9222 5.43236 12.921 5.43482C12.9188 5.43959 12.9173 5.44363 12.9165 5.44604C12.9156 5.44864 12.915 5.4509 12.9145 5.45252C12.9137 5.45566 12.913 5.45844 12.9127 5.46004C12.9123 5.46173 12.9119 5.46339 12.9118 5.46426C12.9115 5.46541 12.9114 5.46577 12.9114 5.46597C12.9113 5.46626 12.9116 5.46525 12.912 5.46362C12.9122 5.46276 12.9127 5.4612 12.9134 5.45921C12.914 5.45742 12.9152 5.45391 12.9172 5.44958C12.9183 5.44735 12.9198 5.44426 12.9219 5.44072C12.924 5.43731 12.9273 5.43228 12.932 5.42675C12.9366 5.42143 12.9445 5.41336 12.9563 5.40625C12.9687 5.39879 12.9866 5.39175 13.0085 5.39175V5.59458C13.0306 5.59458 13.0485 5.58751 13.061 5.57999C13.0729 5.57281 13.0809 5.56466 13.0856 5.55922C13.0905 5.55357 13.0939 5.5484 13.096 5.54481C13.0982 5.5411 13.0999 5.53782 13.101 5.53536C13.1033 5.5306 13.1047 5.52655 13.1055 5.52414C13.1064 5.52154 13.1071 5.51928 13.1075 5.51766C13.1084 5.51452 13.109 5.51174 13.1094 5.51014C13.1097 5.50845 13.1101 5.50679 13.1103 5.50592C13.1105 5.50477 13.1106 5.50442 13.1106 5.50421C13.1107 5.50392 13.1105 5.50493 13.11 5.50656C13.1098 5.50742 13.1094 5.50898 13.1087 5.51097C13.1081 5.51276 13.1068 5.51627 13.1048 5.5206C13.1038 5.52283 13.1022 5.52592 13.1001 5.52946C13.0981 5.53287 13.0948 5.5379 13.09 5.54344C13.0854 5.54875 13.0775 5.55682 13.0657 5.56393C13.0533 5.57139 13.0355 5.57843 13.0135 5.57843V5.3756ZM12.9547 5.40723L8.78291 8.02122L8.89061 8.1931L13.0624 5.57911L12.9547 5.40723ZM8.73608 8.09495C8.7358 8.09726 8.73576 8.09691 8.73617 8.095C8.73639 8.09398 8.73796 8.08644 8.74262 8.07684C8.74753 8.06672 8.75987 8.04615 8.78597 8.03271C8.81033 8.02016 8.83398 8.0217 8.83095 8.0217V8.22454C8.83096 8.22454 8.83109 8.22454 8.83124 8.22454C8.8314 8.22454 8.83165 8.22454 8.83195 8.22453C8.83253 8.22453 8.83345 8.22452 8.83457 8.22448C8.83679 8.22441 8.84032 8.22423 8.84462 8.22368C8.85369 8.22251 8.86583 8.21973 8.87883 8.21304C8.9059 8.1991 8.91921 8.17752 8.92509 8.16541C8.9344 8.14623 8.93661 8.12623 8.93744 8.11938L8.73608 8.09495ZM8.77691 8.0373L0.422905 13.2974L0.53098 13.469L8.88499 8.20894L8.77691 8.0373ZM0.424313 13.2965C0.153726 13.4608 -0.00666315 13.753 0.000582152 14.0793L0.203367 14.0748C0.197705 13.8198 0.321929 13.596 0.529572 13.4699L0.424313 13.2965ZM0.000583912 14.0794C0.00771412 14.3898 0.181858 14.6795 0.456313 14.8417L0.559529 14.6671C0.342847 14.539 0.20882 14.3122 0.203365 14.0747L0.000583912 14.0794ZM0.457815 14.8426L13.4623 22.2324L13.5625 22.056L0.558027 14.6662L0.457815 14.8426ZM13.457 22.2291C13.5994 22.3219 13.7562 22.3585 13.9093 22.3585V22.1556C13.7888 22.1556 13.672 22.1271 13.5678 22.0592L13.457 22.2291ZM13.9093 22.3585C14.0799 22.3585 14.2467 22.3031 14.3906 22.2141L14.2838 22.0416C14.1666 22.1141 14.0363 22.1556 13.9093 22.1556V22.3585ZM14.3912 22.2137L20.336 18.4705L20.228 18.2989L14.2832 22.042L14.3912 22.2137ZM20.337 18.4699C20.7586 18.198 20.8853 17.6528 20.6202 17.2188L20.4471 17.3246C20.6549 17.6647 20.556 18.0873 20.227 18.2995L20.337 18.4699ZM20.6193 17.2173C20.3531 16.7987 19.7941 16.6714 19.3712 16.9444L19.4812 17.1148C19.8089 16.9033 20.2419 17.0018 20.4481 17.3261L20.6193 17.2173ZM19.3722 16.9438L13.8342 20.4287L13.9422 20.6004L19.4802 17.1155L19.3722 16.9438ZM13.9383 20.4264L2.51789 13.9404L2.41772 14.1168L13.8381 20.6028L13.9383 20.4264ZM2.52187 14.1144L9.33405 9.82258L9.22593 9.65097L2.41375 13.9428L2.52187 14.1144ZM9.22989 9.82495L21.4102 16.7463L21.5104 16.57L9.3301 9.6486L9.22989 9.82495ZM21.3589 16.6582V25.8231H21.5617V16.6582H21.3589ZM21.3589 25.8231C21.3589 26.1499 21.5376 26.4574 21.825 26.6207L21.9252 26.4444C21.7009 26.3169 21.5617 26.0766 21.5617 25.8231H21.3589ZM21.8274 26.622C21.9635 26.6947 22.1137 26.7307 22.2633 26.7307V26.5278C22.1461 26.5278 22.0288 26.4996 21.9229 26.4431L21.8274 26.622ZM22.2633 26.7307C22.434 26.7307 22.6008 26.6755 22.7445 26.5867L22.6379 26.4142C22.5209 26.4865 22.3905 26.5278 22.2633 26.5278V26.7307ZM22.7453 26.5863L26.9223 23.9561L26.8143 23.7845L22.6372 26.4146L22.7453 26.5863ZM26.9219 23.9564C27.1854 23.7926 27.3449 23.5018 27.3449 23.1928H27.142C27.142 23.4325 27.0181 23.6577 26.8148 23.7842L26.9219 23.9564ZM27.3449 23.1928V13.5605H27.142V23.1928H27.3449ZM27.2435 13.5605C27.3447 13.5555 27.3447 13.5555 27.3447 13.5555C27.3447 13.5555 27.3447 13.5555 27.3447 13.5555C27.3447 13.5555 27.3447 13.5555 27.3447 13.5555C27.3447 13.5555 27.3447 13.5555 27.3447 13.5555C27.3447 13.5555 27.3447 13.5554 27.3447 13.5554C27.3447 13.5554 27.3447 13.5553 27.3447 13.5553C27.3447 13.5551 27.3447 13.555 27.3447 13.5547C27.3447 13.5542 27.3447 13.5536 27.3446 13.5528C27.3445 13.5512 27.3444 13.549 27.3443 13.5468C27.3442 13.5447 27.344 13.5423 27.3439 13.5402C27.3439 13.5393 27.3438 13.5378 27.3436 13.5364C27.3436 13.5358 27.3434 13.5341 27.3432 13.5319C27.3431 13.5312 27.3427 13.5281 27.3419 13.5241C27.3416 13.5228 27.3405 13.5169 27.3379 13.5098C27.3369 13.5069 27.3335 13.4977 27.3265 13.4873C27.3239 13.4834 27.2974 13.4427 27.2425 13.4427V13.6456C27.2143 13.6456 27.1932 13.6341 27.1809 13.6247C27.1691 13.6157 27.162 13.6062 27.1585 13.6009C27.1515 13.5906 27.1481 13.5814 27.1471 13.5785C27.1445 13.5714 27.1434 13.5656 27.1431 13.5643C27.1423 13.5604 27.1419 13.5573 27.1419 13.5567C27.1416 13.5548 27.1415 13.5534 27.1415 13.5533C27.1415 13.5527 27.1415 13.5526 27.1415 13.5532C27.1416 13.5542 27.1417 13.5558 27.1418 13.5578C27.1419 13.5597 27.142 13.5616 27.142 13.5631C27.1421 13.5638 27.1421 13.5644 27.1421 13.5648C27.1421 13.565 27.1421 13.5652 27.1422 13.5653C27.1422 13.5654 27.1422 13.5654 27.1422 13.5654C27.1422 13.5654 27.1422 13.5655 27.1422 13.5655C27.1422 13.5655 27.1422 13.5655 27.1422 13.5655C27.1422 13.5655 27.1422 13.5655 27.1422 13.5655C27.1422 13.5655 27.1422 13.5655 27.1422 13.5655C27.1422 13.5655 27.1422 13.5655 27.2435 13.5605ZM27.3439 13.5426C27.3433 13.506 27.3414 13.4862 27.3381 13.4536L27.1363 13.474C27.1394 13.5051 27.1407 13.518 27.1411 13.5457L27.3439 13.5426ZM27.3057 13.389L27.3057 13.389L27.1686 13.5385L27.1686 13.5385L27.3057 13.389Z" fill="#717171"/>
<path fill-rule="evenodd" clip-rule="evenodd" d="M34.3669 12.4416L28.4218 16.1839C28.0465 16.4098 27.9339 16.9098 28.1701 17.2809C28.3227 17.5389 28.5836 17.6681 28.8505 17.6681C28.9967 17.6681 29.1448 17.6196 29.2776 17.5389L35.2225 13.7965C35.5979 13.5545 35.7106 13.0705 35.4742 12.6834C35.238 12.3124 34.742 12.1996 34.3669 12.4416Z" fill="#717171" stroke="#717171" stroke-width="0.2"/>
<path fill-rule="evenodd" clip-rule="evenodd" d="M19.426 21.8478L13.8879 25.3322L1.30137 18.1859C0.916075 17.9601 0.425416 18.0892 0.206306 18.4764C-0.0128039 18.8635 0.121921 19.3635 0.507704 19.5732L13.5123 26.9615C13.6354 27.042 13.7723 27.0743 13.9091 27.0743C14.0578 27.0743 14.2064 27.0259 14.337 26.9453L20.2818 23.2027C20.6573 22.9769 20.7699 22.4769 20.5335 22.1059C20.2973 21.7188 19.8013 21.6058 19.426 21.8478Z" fill="#717171" stroke="#717171" stroke-width="0.2"/>
<path fill-rule="evenodd" clip-rule="evenodd" d="M34.3669 17.2664L28.4218 21.0083C28.0465 21.2502 27.9339 21.7342 28.1701 22.1213C28.3227 22.363 28.5836 22.4922 28.8505 22.4922C28.9967 22.4922 29.1448 22.4438 29.2776 22.363L35.2225 18.6212C35.5979 18.3792 35.7106 17.8955 35.4742 17.5244C35.238 17.1373 34.742 17.0245 34.3669 17.2664Z" fill="#717171" stroke="#717171" stroke-width="0.2"/>
<path fill-rule="evenodd" clip-rule="evenodd" d="M19.426 26.672L13.8879 30.1565L1.30137 23.0102C0.916075 22.7843 0.425416 22.9135 0.206306 23.3006C-0.0128039 23.6878 0.121921 24.1877 0.507704 24.3974L13.5123 31.7857C13.6354 31.8663 13.7723 31.8986 13.9091 31.8986C14.0578 31.8986 14.2064 31.8501 14.337 31.7696L20.2818 28.027C20.6573 27.8011 20.7699 27.3012 20.5335 26.9302C20.2973 26.543 19.8013 26.43 19.426 26.672Z" fill="#717171" stroke="#717171" stroke-width="0.2"/>
</svg>
