<svg width="32" height="32" viewBox="0 0 32 32" fill="none" xmlns="http://www.w3.org/2000/svg">
<path d="M15.1454 8.47887C15.372 8.25227 15.6794 8.12496 15.9998 8.12496C16.3203 8.12496 16.6277 8.25227 16.8543 8.47887C17.0809 8.70548 17.2082 9.01282 17.2082 9.33329V22.6666C17.2082 22.9871 17.0809 23.2944 16.8543 23.521C16.6277 23.7477 16.3203 23.875 15.9998 23.875C15.6794 23.875 15.372 23.7477 15.1454 23.521C14.9188 23.2944 14.7915 22.9871 14.7915 22.6666V9.33329C14.7915 9.01282 14.9188 8.70548 15.1454 8.47887ZM8.47875 16.4789C8.70536 16.2523 9.0127 16.125 9.33317 16.125C9.65364 16.125 9.96098 16.2523 10.1876 16.4789C10.4142 16.7055 10.5415 17.0128 10.5415 17.3333V22.6666C10.5415 22.9871 10.4142 23.2944 10.1876 23.521C9.96098 23.7477 9.65364 23.875 9.33317 23.875C9.0127 23.875 8.70536 23.7477 8.47875 23.521C8.25214 23.2944 8.12484 22.9871 8.12484 22.6666V17.3333C8.12484 17.0128 8.25214 16.7055 8.47875 16.4789ZM21.8121 13.8122C22.0387 13.5856 22.346 13.4583 22.6665 13.4583C22.987 13.4583 23.2943 13.5856 23.5209 13.8122C23.7475 14.0388 23.8748 14.3462 23.8748 14.6666V22.6666C23.8748 22.9871 23.7475 23.2944 23.5209 23.521C23.2943 23.7477 22.987 23.875 22.6665 23.875C22.346 23.875 22.0387 23.7477 21.8121 23.521C21.5855 23.2944 21.4582 22.9871 21.4582 22.6666V14.6666C21.4582 14.3462 21.5855 14.0388 21.8121 13.8122ZM6.6665 2.79163H25.3332C26.3609 2.79163 27.3465 3.19988 28.0732 3.92659C28.7999 4.65329 29.2082 5.63891 29.2082 6.66663V25.3333C29.2082 26.361 28.7999 27.3466 28.0732 28.0733C27.3465 28.8 26.3609 29.2083 25.3332 29.2083H6.6665C5.63879 29.2083 4.65317 28.8 3.92647 28.0733C3.19976 27.3466 2.7915 26.361 2.7915 25.3333V6.66663C2.7915 5.63891 3.19976 4.65329 3.92647 3.92659C4.65317 3.19988 5.63879 2.79163 6.6665 2.79163ZM26.3644 26.3645C26.6379 26.091 26.7915 25.7201 26.7915 25.3333V6.66663C26.7915 6.27985 26.6379 5.90892 26.3644 5.63543C26.0909 5.36194 25.7199 5.20829 25.3332 5.20829H6.6665C6.27973 5.20829 5.9088 5.36194 5.63531 5.63543C5.36182 5.90892 5.20817 6.27985 5.20817 6.66663V25.3333C5.20817 25.7201 5.36182 26.091 5.63531 26.3645C5.9088 26.638 6.27973 26.7916 6.6665 26.7916H25.3332C25.7199 26.7916 26.0909 26.638 26.3644 26.3645Z" fill="#717171" stroke="white" stroke-width="0.25"/>
</svg>
