<svg width="26" height="35" viewBox="0 0 26 35" fill="none" xmlns="http://www.w3.org/2000/svg">
<path fill-rule="evenodd" clip-rule="evenodd" d="M15.5807 22.2474H14.8052C14.9306 22.429 15.027 22.6315 15.0959 22.8509C15.1124 22.9025 15.1276 22.9556 15.14 23.0101H15.5807C15.7391 23.0101 15.8893 23.0715 15.9884 23.2155C16.0766 23.3426 16.1028 23.5018 16.1028 23.6569V23.749C16.1028 23.904 16.0766 24.0632 15.9884 24.1905C15.8893 24.3344 15.7391 24.3957 15.5807 24.3957H15.1386C15.0835 24.6249 14.9981 24.8471 14.8852 25.0606C14.662 25.4882 14.2901 25.822 13.7943 26.0692C13.326 26.2984 12.7117 26.4115 11.9665 26.424C12.0436 26.4953 12.1207 26.5735 12.1951 26.6587L15.14 29.7778C15.1717 29.8115 15.1992 29.845 15.2212 29.877C15.2419 29.9037 15.2695 29.9455 15.2874 29.9945C15.3108 30.0642 15.3149 30.1453 15.3149 30.2096C15.3149 30.4219 15.1524 30.5379 15.0367 30.5938L15.0188 30.6008C14.8824 30.6538 14.6965 30.6705 14.4899 30.6705H14.337C14.1786 30.6705 14.0257 30.6495 13.8824 30.6077L13.8769 30.6063C13.7296 30.5587 13.6014 30.4805 13.4967 30.3673L9.91967 26.5749C9.81777 26.4491 9.72822 26.336 9.65245 26.2354L9.64556 26.227C9.55602 26.0971 9.49129 25.9506 9.49129 25.7927V25.6599C9.49129 25.4908 9.5409 25.3218 9.68002 25.2017C9.81224 25.0886 9.98302 25.0537 10.1497 25.0537H11.8081C12.1483 25.0537 12.4389 24.9923 12.6882 24.8763C12.9416 24.7588 13.1331 24.6068 13.2708 24.4238C13.2764 24.414 13.2832 24.4055 13.2901 24.3956H10.0119C9.85356 24.3956 9.70341 24.3343 9.60421 24.1904C9.5161 24.0632 9.49128 23.9039 9.49128 23.749V23.6568C9.49128 23.5018 9.51611 23.3425 9.60421 23.2154C9.70341 23.0715 9.85356 23.0101 10.0119 23.0101H13.308C13.2419 22.8872 13.1579 22.7907 13.0587 22.7153L13.0546 22.7125C12.7681 22.489 12.3741 22.3661 11.8494 22.3661H10.1497C9.97747 22.3661 9.80257 22.3255 9.67032 22.1984C9.53672 22.0699 9.49126 21.8939 9.49126 21.7194V21.5071C9.49126 21.3325 9.53672 21.1578 9.67032 21.0292C9.80255 20.9022 9.97746 20.8616 10.1497 20.8616H15.5807C15.7391 20.8616 15.8893 20.923 15.9884 21.0656C16.0766 21.1926 16.1028 21.3533 16.1028 21.5071V21.6005C16.1028 21.7542 16.0766 21.9149 15.9884 22.0421C15.8893 22.1845 15.7391 22.2473 15.5807 22.2473V22.2474Z" fill="#FCAF17"/>
<path fill-rule="evenodd" clip-rule="evenodd" d="M21.4597 10.2608C20.3787 10.2608 19.3532 10.6738 18.5736 11.3874C17.7929 10.6738 16.7673 10.2608 15.6864 10.2608C14.6043 10.2608 13.5798 10.6738 12.7991 11.3874C12.0196 10.6738 10.994 10.2608 9.91298 10.2608C8.83095 10.2608 7.80536 10.6738 7.02472 11.3874C6.24513 10.6738 5.21954 10.2608 4.13751 10.2608C3.57092 10.2608 3.01924 10.3741 2.5102 10.5854C3.57625 5.83111 7.78513 2.27243 12.7992 2.27243C17.8121 2.27243 22.021 5.83111 23.0871 10.5854C22.578 10.3741 22.0274 10.2608 21.4598 10.2608H21.4597ZM18.0712 30.521C15.1638 33.4641 10.4319 33.4641 7.5245 30.521C4.61705 27.5779 4.61705 22.788 7.5245 19.8449C8.97822 18.3723 10.8878 17.637 12.7984 17.637C14.7079 17.637 16.6175 18.3723 18.0712 19.8449C20.9797 22.788 20.9797 27.5779 18.0712 30.521H18.0712ZM12.7977 0.250925C5.87946 0.250925 0.250925 5.94846 0.250925 12.9517V12.9873C0.250925 13.4476 0.557638 13.8497 0.997496 13.9662C1.43734 14.0814 1.89956 13.8831 2.12109 13.4809C2.52897 12.7414 3.30108 12.2822 4.13605 12.2822C4.97101 12.2822 5.74314 12.7414 6.15102 13.4809C6.32781 13.8001 6.66224 13.9985 7.02432 13.9985C7.38538 13.9985 7.71873 13.8001 7.89551 13.4809C8.30448 12.7414 9.07659 12.2822 9.91048 12.2822C10.6656 12.2822 11.3685 12.6594 11.7987 13.2784V15.6695C9.71986 15.8916 7.7006 16.8058 6.11162 18.4153C2.42458 22.1466 2.42458 28.2183 6.11162 31.9505C7.95516 33.8166 10.3759 34.7491 12.7977 34.7491C15.2184 34.7491 17.6392 33.8166 19.4827 31.9505C23.1698 28.2183 23.1698 22.1465 19.4827 18.4153C17.8937 16.8058 15.8745 15.8915 13.7956 15.6695V13.2794C14.2259 12.6594 14.9288 12.2822 15.6849 12.2822C16.5199 12.2822 17.292 12.7414 17.6999 13.4809C17.8767 13.8001 18.2101 13.9985 18.5711 13.9985C18.9332 13.9985 19.2665 13.8001 19.4433 13.4809C19.8512 12.7414 20.6233 12.2822 21.4583 12.2822C22.2933 12.2822 23.0654 12.7414 23.4733 13.4809C23.6533 13.8055 23.9898 13.9985 24.3455 13.9985C24.4286 13.9985 24.5138 13.9877 24.5969 13.9662C25.0367 13.8497 25.3434 13.4476 25.3434 12.9873V12.9517C25.3445 5.94846 19.716 0.250925 12.7977 0.250925H12.7977Z" fill="#717171"/>
<path d="M18.5736 11.3874L18.4043 11.5726L18.5737 11.7275L18.743 11.5725L18.5736 11.3874ZM12.7991 11.3874L12.6297 11.5725L12.799 11.7275L12.9684 11.5726L12.7991 11.3874ZM7.02472 11.3874L6.8553 11.5725L7.0246 11.7275L7.19401 11.5726L7.02472 11.3874ZM2.5102 10.5854L2.26535 10.5305L2.15949 11.0026L2.60637 10.8171L2.5102 10.5854ZM23.0871 10.5854L22.9909 10.8171L23.4378 11.0026L23.3319 10.5305L23.0871 10.5854ZM18.0712 30.521L18.2497 30.6973L18.6718 30.2701H18.0712V30.521ZM7.5245 19.8449L7.70301 20.0213L7.70307 20.0212L7.5245 19.8449ZM18.0712 19.8449L17.8926 20.0212L17.8927 20.0213L18.0712 19.8449ZM18.0712 30.521L17.8927 30.3446L17.4704 30.7719H18.0712V30.521ZM0.997496 13.9662L0.93327 14.2088L0.933896 14.2089L0.997496 13.9662ZM2.12109 13.4809L1.90136 13.3598L1.9013 13.3599L2.12109 13.4809ZM6.15102 13.4809L5.9313 13.6021L5.93152 13.6025L6.15102 13.4809ZM7.89551 13.4809L8.11501 13.6025L8.1151 13.6024L7.89551 13.4809ZM11.7987 13.2784H12.0496V13.1997L12.0048 13.1351L11.7987 13.2784ZM11.7987 15.6695L11.8254 15.919L12.0496 15.8951V15.6695H11.7987ZM6.11162 18.4153L6.29011 18.5916L6.29019 18.5915L6.11162 18.4153ZM6.11162 31.9505L6.29013 31.7741L6.29013 31.7741L6.11162 31.9505ZM19.4827 31.9505L19.3042 31.7741L19.3042 31.7741L19.4827 31.9505ZM19.4827 18.4153L19.3041 18.5915L19.3042 18.5916L19.4827 18.4153ZM13.7956 15.6695H13.5447V15.8951L13.769 15.919L13.7956 15.6695ZM13.7956 13.2794L13.5895 13.1363L13.5447 13.2008V13.2794H13.7956ZM17.6999 13.4809L17.4802 13.6021L17.4804 13.6025L17.6999 13.4809ZM19.4433 13.4809L19.6628 13.6025L19.663 13.6021L19.4433 13.4809ZM23.4733 13.4809L23.2536 13.6021L23.2538 13.6026L23.4733 13.4809ZM24.5969 13.9662L24.6597 14.2091L24.6611 14.2088L24.5969 13.9662ZM25.3434 12.9517L25.0925 12.9517V12.9517H25.3434ZM21.4597 10.0099C20.3145 10.0099 19.2289 10.4474 18.4041 11.2023L18.743 11.5725C19.4775 10.9002 20.443 10.5118 21.4597 10.5118V10.0099ZM18.7429 11.2022C17.9172 10.4474 16.8316 10.0099 15.6864 10.0099V10.5118C16.703 10.5118 17.6686 10.9002 18.4043 11.5726L18.7429 11.2022ZM15.6864 10.0099C14.54 10.0099 13.4555 10.4475 12.6298 11.2022L12.9684 11.5726C13.7041 10.9002 14.6687 10.5118 15.6864 10.5118V10.0099ZM12.9686 11.2023C12.1439 10.4474 11.0582 10.0099 9.91298 10.0099V10.5118C10.9297 10.5118 11.8953 10.9002 12.6297 11.5725L12.9686 11.2023ZM9.91298 10.0099C8.76669 10.0099 7.68111 10.4474 6.85542 11.2022L7.19401 11.5726C7.92961 10.9002 8.89522 10.5118 9.91298 10.5118V10.0099ZM7.19414 11.2023C6.36942 10.4474 5.28377 10.0099 4.13751 10.0099V10.5118C5.1553 10.5118 6.12084 10.9002 6.8553 11.5725L7.19414 11.2023ZM4.13751 10.0099C3.53736 10.0099 2.95304 10.1299 2.41402 10.3536L2.60637 10.8171C3.08545 10.6183 3.60448 10.5118 4.13751 10.5118V10.0099ZM2.75504 10.6403C3.79644 5.99595 7.90725 2.52335 12.7992 2.52335V2.0215C7.663 2.0215 3.35605 5.66627 2.26535 10.5305L2.75504 10.6403ZM12.7992 2.52335C17.69 2.52335 21.8008 5.99594 22.8422 10.6403L23.3319 10.5305C22.2412 5.66629 17.9343 2.0215 12.7992 2.0215V2.52335ZM23.1832 10.3536C22.6442 10.1299 22.061 10.0099 21.4598 10.0099V10.5118C21.9938 10.5118 22.5118 10.6183 22.9909 10.8171L23.1832 10.3536ZM21.4598 10.0099H21.4597V10.5118H21.4598V10.0099ZM17.8927 30.3447C15.0835 33.1883 10.5122 33.1883 7.70301 30.3447L7.34599 30.6973C10.3517 33.7399 15.244 33.7399 18.2497 30.6973L17.8927 30.3447ZM7.70301 30.3447C4.89212 27.4993 4.89212 22.8667 7.70301 20.0213L7.34599 19.6686C4.34199 22.7094 4.34199 27.6565 7.34599 30.6973L7.70301 30.3447ZM7.70307 20.0212C9.10787 18.5981 10.9523 17.8879 12.7984 17.8879V17.3861C10.8232 17.3861 8.84858 18.1464 7.34593 19.6686L7.70307 20.0212ZM12.7984 17.8879C14.6434 17.8879 16.4878 18.5981 17.8926 20.0212L18.2498 19.6686C16.7471 18.1465 14.7725 17.3861 12.7984 17.3861V17.8879ZM17.8927 20.0213C20.7046 22.8667 20.7046 27.4992 17.8927 30.3446L18.2497 30.6974C21.2548 27.6565 21.2548 22.7094 18.2497 19.6685L17.8927 20.0213ZM18.0712 30.7719H18.0712V30.2701H18.0712V30.7719ZM12.7977 0C5.738 0 0 5.81277 0 12.9517H0.50185C0.50185 6.08414 6.02091 0.50185 12.7977 0.50185V0ZM0 12.9517V12.9873H0.50185V12.9517H0ZM0 12.9873C0 13.5596 0.381565 14.0627 0.93327 14.2088L1.06172 13.7236C0.733711 13.6368 0.50185 13.3357 0.50185 12.9873H0ZM0.933896 14.2089C1.4855 14.3534 2.06419 14.1044 2.34088 13.602L1.9013 13.3599C1.73493 13.6619 1.38917 13.8094 1.0611 13.7235L0.933896 14.2089ZM2.34081 13.6021C2.70515 12.9415 3.39374 12.5331 4.13605 12.5331V12.0313C3.20843 12.0313 2.35278 12.5413 1.90136 13.3598L2.34081 13.6021ZM4.13605 12.5331C4.87836 12.5331 5.56696 12.9415 5.9313 13.6021L6.37075 13.3598C5.91933 12.5412 5.06366 12.0313 4.13605 12.0313V12.5331ZM5.93152 13.6025C6.15202 14.0006 6.56998 14.2494 7.02432 14.2494V13.7476C6.75451 13.7476 6.50359 13.5996 6.37052 13.3594L5.93152 13.6025ZM7.02432 14.2494C7.47809 14.2494 7.89473 14.0002 8.11501 13.6025L7.67601 13.3594C7.54272 13.6 7.29267 13.7476 7.02432 13.7476V14.2494ZM8.1151 13.6024C8.4806 12.9414 9.16937 12.5331 9.91048 12.5331V12.0313C8.98382 12.0313 8.12836 12.5413 7.67592 13.3595L8.1151 13.6024ZM9.91048 12.5331C10.5813 12.5331 11.2081 12.8684 11.5927 13.4216L12.0048 13.1351C11.5288 12.4505 10.7499 12.0313 9.91048 12.0313V12.5331ZM11.5478 13.2784V15.6695H12.0496V13.2784H11.5478ZM11.7721 15.42C9.63767 15.648 7.56413 16.5868 5.93306 18.239L6.29019 18.5915C7.83707 17.0247 9.80204 16.1351 11.8254 15.919L11.7721 15.42ZM5.93313 18.2389C2.1495 22.068 2.14953 28.2969 5.93311 32.1268L6.29013 31.7741C2.69964 28.1396 2.69967 22.2252 6.29011 18.5916L5.93313 18.2389ZM5.93311 32.1268C7.82554 34.0425 10.3113 35 12.7977 35V34.4982C10.4405 34.4982 8.08479 33.5908 6.29013 31.7741L5.93311 32.1268ZM12.7977 35C15.283 35 17.7688 34.0425 19.6612 32.1268L19.3042 31.7741C17.5096 33.5908 15.1539 34.4982 12.7977 34.4982V35ZM19.6612 32.1268C23.4448 28.2969 23.4448 22.0679 19.6612 18.2389L19.3042 18.5916C22.8947 22.2252 22.8947 28.1396 19.3042 31.7741L19.6612 32.1268ZM19.6613 18.239C18.0302 16.5868 15.9567 15.648 13.8223 15.42L13.769 15.919C15.7923 16.1351 17.7573 17.0247 19.3041 18.5915L19.6613 18.239ZM14.0465 15.6695V13.2794H13.5447V15.6695H14.0465ZM14.0017 13.4225C14.3863 12.8684 15.0131 12.5331 15.6849 12.5331V12.0313C14.8445 12.0313 14.0654 12.4505 13.5895 13.1363L14.0017 13.4225ZM15.6849 12.5331C16.4272 12.5331 17.1158 12.9415 17.4802 13.6021L17.9196 13.3598C17.4682 12.5412 16.6125 12.0313 15.6849 12.0313V12.5331ZM17.4804 13.6025C17.7007 14.0002 18.1173 14.2494 18.5711 14.2494V13.7476C18.3028 13.7476 18.0527 13.6 17.9194 13.3594L17.4804 13.6025ZM18.5711 14.2494C19.0257 14.2494 19.4425 14.0003 19.6628 13.6025L19.2238 13.3594C19.0906 13.5999 18.8406 13.7476 18.5711 13.7476V14.2494ZM19.663 13.6021C20.0274 12.9415 20.716 12.5331 21.4583 12.5331V12.0313C20.5307 12.0313 19.675 12.5413 19.2236 13.3598L19.663 13.6021ZM21.4583 12.5331C22.2006 12.5331 22.8892 12.9415 23.2536 13.6021L23.693 13.3598C23.2416 12.5412 22.3859 12.0313 21.4583 12.0313V12.5331ZM23.2538 13.6026C23.4782 14.0072 23.8989 14.2494 24.3455 14.2494V13.7476C24.0807 13.7476 23.8283 13.6038 23.6927 13.3593L23.2538 13.6026ZM24.3455 14.2494C24.4501 14.2494 24.5564 14.2359 24.6597 14.2091L24.534 13.7233C24.4712 13.7395 24.4071 13.7476 24.3455 13.7476V14.2494ZM24.6611 14.2088C25.2128 14.0627 25.5944 13.5596 25.5944 12.9873H25.0925C25.0925 13.3356 24.8606 13.6368 24.5326 13.7236L24.6611 14.2088ZM25.5944 12.9873V12.9517H25.0925V12.9873H25.5944ZM25.5944 12.9517C25.5955 5.81277 19.8574 0 12.7977 0V0.50185C19.5745 0.50185 25.0936 6.08414 25.0925 12.9517L25.5944 12.9517ZM12.7977 0H12.7977V0.50185H12.7977V0Z" fill="white"/>
<path fill-rule="evenodd" clip-rule="evenodd" d="M11.4896 5.88906C11.4896 5.15789 12.0751 4.56517 12.7974 4.56517C13.5197 4.56517 14.1053 5.15789 14.1053 5.88906C14.1053 6.62022 13.5197 7.21294 12.7974 7.21294C12.0751 7.21294 11.4896 6.62022 11.4896 5.88906Z" fill="#FCAF17"/>
</svg>
