<svg width="20" height="20" viewBox="0 0 20 20" fill="none" xmlns="http://www.w3.org/2000/svg">
<rect x="4" y="6.21216" width="2" height="9.33333" fill="#FCAF17"/>
<rect x="8.66699" y="8.87891" width="2" height="6.66667" fill="#FCAF17"/>
<rect x="13.333" y="11.5457" width="2" height="4" fill="#FCAF17"/>
<path fill-rule="evenodd" clip-rule="evenodd" d="M14.6874 4.72661H15.8585C16.182 4.72661 16.4443 4.46428 16.4443 4.14075V2.97027C16.4443 2.64682 16.182 2.38447 15.8585 2.38447C15.535 2.38447 15.2727 2.64681 15.2727 2.97027V3.55554H14.6874C14.3639 3.55554 14.1022 3.81782 14.1022 4.14075C14.1022 4.46428 14.3639 4.72661 14.6874 4.72661Z" fill="#717171"/>
<path fill-rule="evenodd" clip-rule="evenodd" d="M19.8263 17.8267L18.6546 16.655C18.4259 16.4263 18.0553 16.4263 17.8266 16.655C17.5973 16.8837 17.5973 17.2542 17.8266 17.4829L17.9979 17.6548H2.34508V2.00221L2.51692 2.17337C2.6313 2.28775 2.78126 2.34524 2.93121 2.34524C3.08057 2.34524 3.23056 2.28775 3.34491 2.17337C3.57423 1.94473 3.57423 1.57414 3.34491 1.34544L2.17324 0.173778C1.94453 -0.0555712 1.57397 -0.0555712 1.34527 0.173778L0.173595 1.34544C-0.0557268 1.57414 -0.0557268 1.94473 0.173595 2.17337C0.402297 2.40213 0.772888 2.40213 1.00159 2.17337L1.17343 2.00221V18.2403C1.17343 18.564 1.43587 18.8265 1.75956 18.8265H17.9979L17.8266 18.9983C17.5979 19.227 17.5979 19.5976 17.8266 19.8263C17.941 19.9407 18.091 19.9981 18.2409 19.9981C18.3903 19.9981 18.5402 19.9407 18.6546 19.8263L19.8263 18.6546C20.0556 18.4259 20.0556 18.0553 19.8263 17.8267L19.8263 17.8267Z" fill="#717171"/>
<path fill-rule="evenodd" clip-rule="evenodd" d="M4.72611 6.38322H5.89858V15.3676H4.72611V6.38322ZM4.1403 16.4451H6.48403C6.80778 16.4451 7.06964 16.2041 7.06964 15.9063V5.84443C7.06964 5.5466 6.80778 5.30566 6.48403 5.30566H4.1403C3.81655 5.30566 3.55469 5.5466 3.55469 5.84443V15.9063C3.55469 16.2041 3.81655 16.4451 4.1403 16.4451Z" fill="#717171"/>
<path fill-rule="evenodd" clip-rule="evenodd" d="M9.41329 9.41344H10.5858V15.2733H9.41329V9.41344ZM8.8278 16.4448H11.1715C11.4953 16.4448 11.7571 16.1829 11.7571 15.8591V8.82798C11.7571 8.50431 11.4953 8.24243 11.1715 8.24243H8.8278C8.50405 8.24243 8.24219 8.5043 8.24219 8.82798V15.8591C8.24219 16.1829 8.50405 16.4448 8.8278 16.4448Z" fill="#717171"/>
<path fill-rule="evenodd" clip-rule="evenodd" d="M15.2742 15.2739H14.1018V12.3511H15.2742V15.2739ZM13.5163 11.1797C13.1925 11.1797 12.9307 11.4416 12.9307 11.7653V15.8594C12.9307 16.1832 13.1925 16.445 13.5163 16.445H15.86C16.1838 16.445 16.4456 16.1832 16.4456 15.8594V11.7653C16.4456 11.4416 16.1838 11.1797 15.86 11.1797H13.5163Z" fill="#717171"/>
<path fill-rule="evenodd" clip-rule="evenodd" d="M15.8589 1.21134C17.4744 1.21134 18.7888 2.52571 18.7888 4.14063C18.7888 5.7562 17.4744 7.07057 15.8589 7.07057C14.2433 7.07057 12.9289 5.7562 12.9289 4.14063C12.9289 2.52571 14.2433 1.21134 15.8589 1.21134ZM15.859 8.24233C18.1208 8.24233 19.9602 6.40233 19.9602 4.14047C19.9602 1.87925 18.1208 0.0393066 15.859 0.0393066C13.5972 0.0393066 11.7578 1.87925 11.7578 4.14047C11.7578 6.40233 13.5972 8.24233 15.859 8.24233Z" fill="#717171"/>
</svg>
