<svg width="28" height="22" viewBox="0 0 28 22" fill="none" xmlns="http://www.w3.org/2000/svg">
<path fill-rule="evenodd" clip-rule="evenodd" d="M19.5636 19.4181V18.692C19.5636 18.2669 19.2191 17.9232 18.7944 17.9232C18.3696 17.9232 18.0252 18.2669 18.0252 18.692V19.4181C14.8213 19.062 12.2704 16.5111 11.9146 13.3072H12.6408C13.0656 13.3072 13.41 12.9633 13.41 12.5384C13.41 12.1134 13.0656 11.7695 12.6408 11.7695H11.9146C12.2704 8.56562 14.8213 6.01472 18.0252 5.65863V6.38476C18.0252 6.80977 18.3696 7.15359 18.7944 7.15359C19.2191 7.15359 19.5636 6.80977 19.5636 6.38476V5.65863C22.7675 6.01472 25.3183 8.56562 25.6742 11.7695H24.948C24.5232 11.7695 24.1788 12.1134 24.1788 12.5384C24.1788 12.9633 24.5232 13.3072 24.948 13.3072H25.6742C25.3183 16.5111 22.7675 19.062 19.5636 19.4181ZM18.0257 3.30802C18.0257 2.88379 18.3708 2.53918 18.7949 2.53918C19.219 2.53918 19.5641 2.88379 19.5641 3.30802C19.5641 3.73224 19.219 4.07685 18.7949 4.07685C18.3708 4.07685 18.0257 3.73224 18.0257 3.30802ZM20.8619 4.3328C21.0158 4.02432 21.1028 3.67646 21.1028 3.30801C21.1028 2.03549 20.0676 1 18.7952 1C17.5228 1 16.4876 2.03549 16.4876 3.30801C16.4876 3.67646 16.5746 4.02432 16.7285 4.3328C13.0587 5.25747 10.334 8.58535 10.334 12.5385C10.334 17.2037 14.1297 21 18.7952 21C23.4607 21 27.2564 17.2037 27.2564 12.5385C27.2564 8.58535 24.5317 5.25745 20.8619 4.3328Z" fill="#717171"/>
<path d="M19.5636 19.4181H19.3136V19.6975L19.5912 19.6666L19.5636 19.4181ZM18.0252 19.4181L17.9975 19.6666L18.2752 19.6975V19.4181H18.0252ZM11.9146 13.3072V13.0572H11.6353L11.6661 13.3348L11.9146 13.3072ZM11.9146 11.7695L11.6661 11.7419L11.6353 12.0195H11.9146V11.7695ZM18.0252 5.65863H18.2752V5.3793L17.9975 5.41016L18.0252 5.65863ZM19.5636 5.65863L19.5912 5.41016L19.3136 5.3793V5.65863H19.5636ZM25.6742 11.7695V12.0195H25.9535L25.9226 11.7419L25.6742 11.7695ZM25.6742 13.3072L25.9226 13.3348L25.9535 13.0572H25.6742V13.3072ZM20.8619 4.3328L20.6382 4.22123L20.4995 4.4993L20.8008 4.57522L20.8619 4.3328ZM16.7285 4.3328L16.7896 4.57522L17.0909 4.4993L16.9522 4.22123L16.7285 4.3328ZM19.8136 19.4181V18.692H19.3136V19.4181H19.8136ZM19.8136 18.692C19.8136 18.1286 19.357 17.6732 18.7944 17.6732V18.1732C19.0813 18.1732 19.3136 18.4052 19.3136 18.692H19.8136ZM18.7944 17.6732C18.2318 17.6732 17.7752 18.1286 17.7752 18.692H18.2752C18.2752 18.4052 18.5075 18.1732 18.7944 18.1732V17.6732ZM17.7752 18.692V19.4181H18.2752V18.692H17.7752ZM18.0528 19.1697C14.9651 18.8265 12.506 16.3673 12.163 13.2796L11.6661 13.3348C12.0348 16.655 14.6774 19.2976 17.9975 19.6666L18.0528 19.1697ZM11.9146 13.5572H12.6408V13.0572H11.9146V13.5572ZM12.6408 13.5572C13.2035 13.5572 13.66 13.1016 13.66 12.5384H13.16C13.16 12.8251 12.9277 13.0572 12.6408 13.0572V13.5572ZM13.66 12.5384C13.66 11.9751 13.2035 11.5195 12.6408 11.5195V12.0195C12.9277 12.0195 13.16 12.2516 13.16 12.5384H13.66ZM12.6408 11.5195H11.9146V12.0195H12.6408V11.5195ZM12.163 11.7971C12.506 8.70944 14.9651 6.25027 18.0528 5.9071L17.9975 5.41016C14.6775 5.77917 12.0348 8.4218 11.6661 11.7419L12.163 11.7971ZM17.7752 5.65863V6.38476H18.2752V5.65863H17.7752ZM17.7752 6.38476C17.7752 6.94805 18.2317 7.40359 18.7944 7.40359V6.90359C18.5075 6.90359 18.2752 6.67149 18.2752 6.38476H17.7752ZM18.7944 7.40359C19.357 7.40359 19.8136 6.94805 19.8136 6.38476H19.3136C19.3136 6.67149 19.0813 6.90359 18.7944 6.90359V7.40359ZM19.8136 6.38476V5.65863H19.3136V6.38476H19.8136ZM19.536 5.9071C22.6236 6.25027 25.0828 8.70944 25.4257 11.7971L25.9226 11.7419C25.5539 8.4218 22.9113 5.77917 19.5912 5.41016L19.536 5.9071ZM25.6742 11.5195H24.948V12.0195H25.6742V11.5195ZM24.948 11.5195C24.3853 11.5195 23.9288 11.9751 23.9288 12.5384H24.4288C24.4288 12.2516 24.6611 12.0195 24.948 12.0195V11.5195ZM23.9288 12.5384C23.9288 13.1016 24.3853 13.5572 24.948 13.5572V13.0572C24.6611 13.0572 24.4288 12.8251 24.4288 12.5384H23.9288ZM24.948 13.5572H25.6742V13.0572H24.948V13.5572ZM25.4257 13.2796C25.0828 16.3673 22.6236 18.8265 19.536 19.1697L19.5912 19.6666C22.9113 19.2976 25.5539 16.655 25.9226 13.3348L25.4257 13.2796ZM18.2757 3.30802C18.2757 3.02204 18.5087 2.78918 18.7949 2.78918V2.28918C18.2329 2.28918 17.7757 2.74554 17.7757 3.30802H18.2757ZM18.7949 2.78918C19.0811 2.78918 19.3141 3.02204 19.3141 3.30802H19.8141C19.8141 2.74554 19.3569 2.28918 18.7949 2.28918V2.78918ZM19.3141 3.30802C19.3141 3.59399 19.0811 3.82685 18.7949 3.82685V4.32685C19.3569 4.32685 19.8141 3.87049 19.8141 3.30802H19.3141ZM18.7949 3.82685C18.5087 3.82685 18.2757 3.59399 18.2757 3.30802H17.7757C17.7757 3.87049 18.2329 4.32685 18.7949 4.32685V3.82685ZM21.0856 4.44437C21.2563 4.10222 21.3528 3.71627 21.3528 3.30801H20.8528C20.8528 3.63665 20.7752 3.94641 20.6382 4.22123L21.0856 4.44437ZM21.3528 3.30801C21.3528 1.89747 20.2057 0.75 18.7952 0.75V1.25C19.9295 1.25 20.8528 2.17351 20.8528 3.30801H21.3528ZM18.7952 0.75C17.3847 0.75 16.2376 1.89747 16.2376 3.30801H16.7376C16.7376 2.17351 17.6609 1.25 18.7952 1.25V0.75ZM16.2376 3.30801C16.2376 3.71628 16.3341 4.10222 16.5048 4.44437L16.9522 4.22123C16.8152 3.94641 16.7376 3.63665 16.7376 3.30801H16.2376ZM16.6674 4.09038C12.8895 5.0423 10.084 8.46785 10.084 12.5385H10.584C10.584 8.70286 13.228 5.47263 16.7896 4.57522L16.6674 4.09038ZM10.084 12.5385C10.084 17.3417 13.9916 21.25 18.7952 21.25V20.75C14.2678 20.75 10.584 17.0656 10.584 12.5385H10.084ZM18.7952 21.25C23.5988 21.25 27.5064 17.3417 27.5064 12.5385H27.0064C27.0064 17.0656 23.3226 20.75 18.7952 20.75V21.25ZM27.5064 12.5385C27.5064 8.46785 24.7009 5.04229 20.923 4.09038L20.8008 4.57522C24.3624 5.47262 27.0064 8.70286 27.0064 12.5385H27.5064Z" fill="white"/>
<path fill-rule="evenodd" clip-rule="evenodd" d="M7.82442 11.7698H3.7923C3.2535 11.7698 2.81679 12.1133 2.81679 12.5381C2.81679 12.9627 3.25352 13.3062 3.7923 13.3062H7.82442C8.36311 13.3062 8.79993 12.9627 8.79993 12.5381C8.79993 12.1133 8.36311 11.7698 7.82442 11.7698Z" fill="#FCAF17" stroke="white" stroke-width="0.5"/>
<path fill-rule="evenodd" clip-rule="evenodd" d="M8.02998 15.405H1.76894C1.34377 15.405 0.999135 15.7512 0.999135 16.1792C0.999135 16.6073 1.34377 16.9535 1.76894 16.9535H8.02998C8.45508 16.9535 8.79978 16.6073 8.79978 16.1792C8.79978 15.7512 8.45506 15.405 8.02998 15.405Z" fill="#717171" stroke="white" stroke-width="0.5"/>
<path fill-rule="evenodd" clip-rule="evenodd" d="M8.02998 8.13512H1.76894C1.34377 8.13512 0.999135 8.47862 0.999135 8.90341C0.999135 9.3282 1.34377 9.6717 1.76894 9.6717H8.02998C8.45508 9.6717 8.79978 9.3282 8.79978 8.90341C8.79978 8.47862 8.45506 8.13512 8.02998 8.13512Z" fill="#717171" stroke="white" stroke-width="0.5"/>
<path fill-rule="evenodd" clip-rule="evenodd" d="M21.8726 11.7691H19.5655V9.46209C19.5655 9.03717 19.2212 8.69356 18.7965 8.69356C18.3717 8.69356 18.0275 9.03717 18.0275 9.46209V12.5376C18.0275 12.9624 18.3717 13.3062 18.7965 13.3062H21.8726C22.2972 13.3062 22.6416 12.9624 22.6416 12.5376C22.6416 12.1128 22.2972 11.7691 21.8726 11.7691Z" fill="#FCAF17"/>
</svg>
