<svg width="18" height="21" viewBox="0 0 18 21" fill="none" xmlns="http://www.w3.org/2000/svg">
<path fill-rule="evenodd" clip-rule="evenodd" d="M16 17.0199C16 17.2899 15.8946 17.5399 15.7071 17.7299C15.5196 17.9199 15.2652 18.0199 15 18.0199H13V13.0199C13 12.2299 12.6839 11.4699 12.1213 10.8999C11.5587 10.3399 10.7956 10.02 10 10.02H8.00004C7.20435 10.02 6.44135 10.3399 5.87876 10.8999C5.31616 11.4699 5.00006 12.2299 5.00006 13.0199V18.0199H3.00008C2.73488 18.0199 2.48048 17.9199 2.29298 17.7299C2.10548 17.5399 2.00008 17.2899 2.00008 17.0199V8.26996C2.00028 8.12995 2.03068 7.98994 2.08928 7.85994C2.14788 7.72994 2.23338 7.61995 2.34008 7.51997L8.34004 2.27C8.52254 2.10998 8.75714 2.03002 9.00003 2.03002C9.24293 2.03002 9.47753 2.10998 9.66003 2.27L15.66 7.51997C15.7667 7.61995 15.8522 7.72993 15.9108 7.85994C15.9694 7.98994 15.9998 8.12995 16 8.26996V17.0199ZM11 18.0199H7.00005V13.0199C7.00005 12.7599 7.10545 12.4999 7.29295 12.3199C7.48044 12.1299 7.73484 12.0199 8.00004 12.0199H10C10.2652 12.0199 10.5196 12.1299 10.7071 12.3199C10.8946 12.4999 11 12.7599 11 13.0199V18.0199ZM17 6.01998L11 0.760005C10.45 0.270018 9.73793 0 9.00003 0C8.26214 0 7.55004 0.270018 7.00005 0.760005L1.00009 6.01998C0.682491 6.31002 0.428993 6.65998 0.256594 7.05C0.0840949 7.43989 -0.00330446 7.85994 9.55214e-05 8.27997V17.0199C9.55214e-05 17.8198 0.316193 18.5798 0.87879 19.1499C1.44139 19.7098 2.20438 20.0199 3.00008 20.0199H15C15.7956 20.0199 16.5587 19.7098 17.1213 19.1499C17.6839 18.5798 18 17.8198 18 17.0199V8.26996C18.002 7.84993 17.9138 7.43 17.7415 7.03999C17.5691 6.64999 17.3164 6.31002 17 6.01998Z" fill="#8C8C8C"/>
</svg>
