<svg width="24" height="24" viewBox="0 0 24 24" fill="none" xmlns="http://www.w3.org/2000/svg">
<g clip-path="url(#clip0_260_6143)">
<path d="M15.5799 20.3923V21.9961C15.5799 22.6605 17.375 23.1989 19.5895 23.1989C21.804 23.1989 23.599 22.6605 23.599 21.9961V20.3923" fill="#F8CF26"/>
<path d="M9.96656 16.3827C11.7381 16.3827 13.1742 14.9466 13.1742 13.1751C13.1742 11.4035 11.7381 9.96741 9.96656 9.96741C8.19502 9.96741 6.75891 11.4035 6.75891 13.1751C6.75891 14.9466 8.19502 16.3827 9.96656 16.3827Z" fill="#FCAF17"/>
<path d="M15.5799 18.7884V20.3922C15.5799 21.0566 17.375 21.5951 19.5895 21.5951C21.804 21.5951 23.599 21.0566 23.599 20.3922V18.7884" fill="#FCAF17"/>
<path d="M15.5799 17.1846V18.7884C15.5799 19.4528 17.375 19.9913 19.5895 19.9913C21.804 19.9913 23.599 19.4528 23.599 18.7884V17.1846" fill="#FCAF17"/>
<path d="M15.5799 15.5808V17.1846C15.5799 17.849 17.375 18.3875 19.5895 18.3875C21.804 18.3875 23.599 17.849 23.599 17.1846V15.5808" fill="#FCAF17"/>
<path d="M15.5799 13.977V15.5808C15.5799 16.2452 17.375 16.7836 19.5895 16.7836C21.804 16.7836 23.599 16.2452 23.599 15.5808V13.977" fill="#FCAF17"/>
<path d="M15.5799 12.3731V13.977C15.5799 14.6413 17.375 15.1798 19.5895 15.1798C21.804 15.1798 23.599 14.6413 23.599 13.977V12.3731" fill="#FCAF17"/>
<path d="M19.5895 13.576C21.8039 13.576 23.599 13.0375 23.599 12.3731C23.599 11.7088 21.8039 11.1703 19.5895 11.1703C17.3751 11.1703 15.5799 11.7088 15.5799 12.3731C15.5799 13.0375 17.3751 13.576 19.5895 13.576Z" fill="#FCAF17"/>
<path d="M20.735 9.56725H20.3918H20.3914H20.391L20.3906 9.90645L20.3906 9.56725H20.0478C20.048 9.75643 20.2013 9.90986 20.3906 9.91006H20.3914C20.581 9.91026 20.7348 9.7568 20.735 9.56725ZM20.735 9.56725L20.3918 9.56688L20.3914 9.56688L20.391 9.56688L20.3916 9.01996H20.3916H20.3916H20.3916H20.3916H20.3917H20.3917H20.3917H20.3917H20.3917H20.3917H20.3918H20.3918H20.3918H20.3918H20.3918H20.3918H20.3918H20.3919H20.3919H20.3919H20.3919H20.3919H20.3919H20.3919H20.392H20.392H20.392H20.392H20.392H20.392H20.3921H20.3921H20.3921H20.3921H20.3921H20.3921H20.3921H20.3922H20.3922H20.3922V8.91006C20.3923 8.91006 20.3924 8.91006 20.3925 8.91006C20.5181 8.91035 20.6354 8.94588 20.735 9.00726V9.56644V9.56717V9.56725ZM20.3906 9.56688L20.0478 9.56652C20.0478 9.5665 20.0478 9.56647 20.0478 9.56644V9.01996L20.3906 9.56688Z" stroke="#717171" stroke-width="2"/>
<mask id="path-10-inside-1_260_6143" fill="white">
<path d="M1.7634 2.86087C1.68637 2.90994 1.63189 2.98747 1.61184 3.07658L0.809929 6.68518C0.768731 6.87053 0.88561 7.05416 1.07095 7.09536C1.25629 7.13656 1.43993 7.01968 1.48113 6.83434L2.20806 3.56214L17.9103 7.09496C17.9351 7.10073 17.9606 7.10353 17.9861 7.10338C18.1758 7.10303 18.3294 6.94891 18.3291 6.75916C18.3288 6.59873 18.2176 6.4599 18.061 6.42456L2.02282 2.81596C1.93381 2.79612 1.84054 2.81225 1.7634 2.86087Z"/>
</mask>
<path d="M1.7634 2.86087L0.696976 1.16888L0.688941 1.174L1.7634 2.86087ZM1.61184 3.07658L-0.339397 2.63761L-0.340533 2.64272L1.61184 3.07658ZM0.809929 6.68518L2.76228 7.11916L2.7623 7.11905L0.809929 6.68518ZM1.48113 6.83434L3.43348 7.26831L3.43353 7.26807L1.48113 6.83434ZM2.20806 3.56214L2.64706 1.61092L0.690566 1.17073L0.255659 3.12841L2.20806 3.56214ZM17.9103 7.09496L18.362 5.1466L18.3493 5.14374L17.9103 7.09496ZM17.9861 7.10338L17.9824 5.10337L17.9743 5.10342L17.9861 7.10338ZM18.3291 6.75916L20.3291 6.75599V6.75541L18.3291 6.75916ZM18.061 6.42456L18.5014 4.47365L18.5001 4.47334L18.061 6.42456ZM2.02282 2.81596L2.46185 0.86474L2.45808 0.8639L2.02282 2.81596ZM0.688941 1.174C0.166327 1.50688 -0.203375 2.03302 -0.339391 2.63761L3.56307 3.51556C3.46715 3.94192 3.20641 4.31299 2.83786 4.54774L0.688941 1.174ZM-0.340533 2.64272L-1.14244 6.25132L2.7623 7.11905L3.56421 3.51045L-0.340533 2.64272ZM-1.14242 6.25121C-1.42336 7.5151 -0.626326 8.7669 0.636979 9.04771L1.50492 5.14301C2.39755 5.34143 2.96082 6.22596 2.76228 7.11916L-1.14242 6.25121ZM0.636979 9.04771C1.90087 9.32865 3.15267 8.53161 3.43348 7.26831L-0.47122 6.40037C-0.272807 5.50775 0.611718 4.94447 1.50492 5.14301L0.636979 9.04771ZM3.43353 7.26807L4.16046 3.99588L0.255659 3.12841L-0.471273 6.40061L3.43353 7.26807ZM1.76906 5.51337L17.4713 9.04619L18.3493 5.14374L2.64706 1.61092L1.76906 5.51337ZM17.4586 9.04328C17.6366 9.08457 17.8176 9.10441 17.9979 9.10335L17.9743 5.10342C18.1035 5.10265 18.2337 5.11689 18.362 5.14664L17.4586 9.04328ZM17.9898 9.10338C19.2841 9.10099 20.3311 8.04992 20.3291 6.75599L16.3291 6.76233C16.3276 5.8479 17.0676 5.10508 17.9824 5.10338L17.9898 9.10338ZM20.3291 6.75541C20.327 5.66123 19.5683 4.71449 18.5014 4.47366L17.6206 8.37547C16.8669 8.20531 16.3305 7.53623 16.3291 6.76291L20.3291 6.75541ZM18.5001 4.47334L2.46184 0.864744L1.5838 4.76718L17.622 8.37578L18.5001 4.47334ZM2.45808 0.8639C1.85412 0.729234 1.22101 0.838618 0.696988 1.1689L2.82982 4.55284C2.46006 4.78589 2.0135 4.863 1.58756 4.76803L2.45808 0.8639Z" fill="#717171" mask="url(#path-10-inside-1_260_6143)"/>
<path d="M16.1136 4.43622L15.9809 4.75424L15.8483 5.07217C15.8482 5.07216 15.8482 5.07215 15.8482 5.07214L15.3336 4.85773C15.3149 4.74135 15.3273 4.61852 15.376 4.50183C15.4246 4.38522 15.503 4.29013 15.5986 4.22164L16.1132 4.43605L16.1135 4.43618L16.1136 4.43622ZM16.1136 4.43622L15.9811 4.75431L15.8486 5.0723C16.0241 5.14529 16.2256 5.06238 16.2988 4.8869C16.3721 4.71128 16.2892 4.5095 16.1136 4.43622Z" stroke="#717171" stroke-width="2"/>
<mask id="path-13-inside-2_260_6143" fill="white">
<path d="M16.7002 9.9674C16.7002 9.77765 16.5463 9.62378 16.3566 9.62378H13.1742C12.9844 9.62378 12.8306 9.77765 12.8306 9.9674C12.8306 10.1572 12.9844 10.311 13.1742 10.311H16.3566C16.5463 10.311 16.7002 10.1572 16.7002 9.9674Z"/>
</mask>
<path d="M16.3566 10.311V8.31102V10.311ZM18.7002 9.9674C18.7002 8.67307 17.6509 7.62378 16.3566 7.62378V11.6238C15.4418 11.6238 14.7002 10.8822 14.7002 9.9674H18.7002ZM16.3566 7.62378H13.1742V11.6238H16.3566V7.62378ZM13.1742 7.62378C11.8799 7.62378 10.8306 8.67308 10.8306 9.9674H14.8306C14.8306 10.8822 14.089 11.6238 13.1742 11.6238V7.62378ZM10.8306 9.9674C10.8306 11.2617 11.8799 12.311 13.1742 12.311V8.31102C14.089 8.31102 14.8306 9.05259 14.8306 9.9674H10.8306ZM13.1742 12.311H16.3566V8.31102H13.1742V12.311ZM16.3566 12.311C17.6507 12.311 18.7002 11.262 18.7002 9.9674H14.7002C14.7002 9.05244 15.4419 8.31102 16.3566 8.31102V12.311Z" fill="#717171" mask="url(#path-13-inside-2_260_6143)"/>
<mask id="path-15-inside-3_260_6143" fill="white">
<path d="M9.96655 16.7035C11.9152 16.7035 13.495 15.1237 13.495 13.175C13.495 11.2264 11.9152 9.64664 9.96655 9.64664C8.01786 9.64664 6.43814 11.2264 6.43814 13.175C6.44015 15.1229 8.01871 16.7015 9.96655 16.7035ZM9.96655 10.2882C11.561 10.2882 12.8534 11.5806 12.8534 13.175C12.8534 14.7694 11.561 16.0619 9.96655 16.0619C8.37215 16.0619 7.07967 14.7694 7.07967 13.175C7.08142 11.5814 8.3729 10.29 9.96655 10.2882Z"/>
</mask>
<path d="M9.96655 16.7035L9.96454 18.7035H9.96655V16.7035ZM6.43814 13.175H4.43814L4.43814 13.1771L6.43814 13.175ZM9.96655 10.2882V8.28816L9.96429 8.28817L9.96655 10.2882ZM7.07967 13.175L5.07967 13.1728V13.175H7.07967ZM9.96655 18.7035C13.0198 18.7035 15.495 16.2283 15.495 13.175H11.495C11.495 14.0192 10.8107 14.7035 9.96655 14.7035V18.7035ZM15.495 13.175C15.495 10.1218 13.0198 7.64664 9.96655 7.64664V11.6466C10.8107 11.6466 11.495 12.3309 11.495 13.175H15.495ZM9.96655 7.64664C6.91329 7.64664 4.43814 10.1218 4.43814 13.175H8.43814C8.43814 12.3309 9.12242 11.6466 9.96655 11.6466V7.64664ZM4.43814 13.1771C4.44128 16.2279 6.91367 18.7004 9.96454 18.7035L9.96856 14.7035C9.12375 14.7026 8.43901 14.0179 8.43814 13.173L4.43814 13.1771ZM9.96655 12.2882C10.4564 12.2882 10.8534 12.6852 10.8534 13.175H14.8534C14.8534 10.4761 12.6655 8.28817 9.96655 8.28817V12.2882ZM10.8534 13.175C10.8534 13.6649 10.4564 14.0619 9.96655 14.0619V18.0619C12.6655 18.0619 14.8534 15.874 14.8534 13.175H10.8534ZM9.96655 14.0619C9.47672 14.0619 9.07967 13.6649 9.07967 13.175H5.07967C5.07967 15.874 7.26758 18.0619 9.96655 18.0619V14.0619ZM9.07967 13.1772C9.08021 12.6865 9.47791 12.2887 9.96882 12.2882L9.96429 8.28817C7.2679 8.29122 5.08264 10.4763 5.07967 13.1728L9.07967 13.1772Z" fill="#717171" mask="url(#path-15-inside-3_260_6143)"/>
<mask id="path-17-inside-4_260_6143" fill="white">
<path d="M19.5895 10.7693C17.4644 10.7693 15.179 11.2713 15.179 12.3731V21.9961C15.179 23.0979 17.4644 23.5999 19.5895 23.5999C21.7146 23.5999 24 23.0979 24 21.9961V12.3731C24 11.2713 21.7146 10.7693 19.5895 10.7693ZM23.1981 20.3862C23.1376 20.6088 21.9351 21.1942 19.5895 21.1942C17.2439 21.1942 16.0414 20.6088 15.9809 20.3923V19.7619C16.8341 20.1918 18.2435 20.3923 19.5895 20.3923C20.9355 20.3923 22.3453 20.1898 23.1981 19.7615V20.3862ZM23.1981 18.7824C23.1376 19.0049 21.9351 19.5903 19.5895 19.5903C17.2439 19.5903 16.0414 19.0049 15.9809 18.7884V18.1581C16.8341 18.588 18.2435 18.7884 19.5895 18.7884C20.9355 18.7884 22.3453 18.5859 23.1981 18.1577V18.7824ZM23.1981 17.1786C23.1376 17.4011 21.9351 17.9865 19.5895 17.9865C17.2439 17.9865 16.0414 17.4011 15.9809 17.1846V16.5543C16.8341 16.9841 18.2435 17.1846 19.5895 17.1846C20.9355 17.1846 22.3453 16.9821 23.1981 16.5539V17.1786ZM23.1981 15.5748C23.1376 15.7973 21.9351 16.3827 19.5895 16.3827C17.2439 16.3827 16.0414 15.7973 15.9809 15.5808V14.9505C16.8341 15.3783 18.2435 15.5808 19.5895 15.5808C20.9355 15.5808 22.3453 15.3783 23.1981 14.9501V15.5748ZM23.1981 13.9709C23.1376 14.1935 21.9351 14.7789 19.5895 14.7789C17.2439 14.7789 16.0414 14.1935 15.9809 13.977V13.3467C16.8341 13.7745 18.2435 13.977 19.5895 13.977C20.9355 13.977 22.3453 13.7745 23.1981 13.3463V13.9709ZM19.5895 11.5712C21.915 11.5712 23.1179 12.1462 23.1981 12.3731C23.1179 12.6001 21.915 13.1751 19.5895 13.1751C17.2475 13.1751 16.0455 12.5913 15.9809 12.3804V12.378C16.0455 12.1546 17.2475 11.5712 19.5895 11.5712ZM19.5895 22.798C17.2439 22.798 16.0414 22.2126 15.9809 21.9961V21.3658C16.8341 21.7956 18.2435 21.9961 19.5895 21.9961C20.9355 21.9961 22.3453 21.7936 23.1981 21.3654V21.9901C23.1376 22.2126 21.9351 22.798 19.5895 22.798Z"/>
</mask>
<path d="M23.1981 20.3862L25.1279 20.9113L25.1981 20.6535V20.3862H23.1981ZM15.9809 20.3923H13.9809V20.6666L14.0548 20.9309L15.9809 20.3923ZM15.9809 19.7619L16.8807 17.9758L13.9809 16.515V19.7619H15.9809ZM23.1981 19.7615H25.1981V16.5194L22.3006 17.9742L23.1981 19.7615ZM23.1981 18.7824L25.1279 19.3075L25.1981 19.0496V18.7824H23.1981ZM15.9809 18.7884H13.9809V19.0628L14.0548 19.327L15.9809 18.7884ZM15.9809 18.1581L16.8807 16.372L13.9809 14.9112V18.1581H15.9809ZM23.1981 18.1577H25.1981V14.9155L22.3006 16.3704L23.1981 18.1577ZM23.1981 17.1786L25.1279 17.7037L25.1981 17.4458V17.1786H23.1981ZM15.9809 17.1846H13.9809V17.459L14.0548 17.7232L15.9809 17.1846ZM15.9809 16.5543L16.8807 14.7681L13.9809 13.3073V16.5543H15.9809ZM23.1981 16.5539H25.1981V13.3117L22.3006 14.7666L23.1981 16.5539ZM23.1981 15.5748L25.1279 16.0998L25.1981 15.842V15.5748H23.1981ZM15.9809 15.5808H13.9809V15.8552L14.0548 16.1194L15.9809 15.5808ZM15.9809 14.9505L16.8773 13.1626L13.9809 11.7103V14.9505H15.9809ZM23.1981 14.9501H25.1981V11.7079L22.3006 13.1627L23.1981 14.9501ZM23.1981 13.9709L25.1279 14.496L25.1981 14.2382V13.9709H23.1981ZM15.9809 13.977H13.9809V14.2513L14.0548 14.5156L15.9809 13.977ZM15.9809 13.3467L16.8773 11.5588L13.9809 10.1065V13.3467H15.9809ZM23.1981 13.3463H25.1981V10.1041L22.3006 11.5589L23.1981 13.3463ZM23.1981 12.3731L25.0838 13.0395L25.3193 12.3731L25.0838 11.7068L23.1981 12.3731ZM15.9809 12.3804H13.9809V12.6796L14.0685 12.9657L15.9809 12.3804ZM15.9809 12.378L14.0596 11.8226L13.9809 12.0947V12.378H15.9809ZM15.9809 21.9961H13.9809V22.2704L14.0548 22.5347L15.9809 21.9961ZM15.9809 21.3658L16.8807 19.5796L13.9809 18.1188V21.3658H15.9809ZM23.1981 21.3654H25.1981V18.1232L22.3006 19.578L23.1981 21.3654ZM23.1981 21.9901L25.1279 22.5151L25.1981 22.2573V21.9901H23.1981ZM19.5895 8.76932C18.405 8.76932 17.0834 8.90547 15.9873 9.25017C15.4483 9.41968 14.8281 9.681 14.3046 10.1084C13.7551 10.5569 13.179 11.3139 13.179 12.3731H17.179C17.179 12.8815 16.8885 13.1626 16.834 13.207C16.8054 13.2304 16.8894 13.1596 17.1874 13.0659C17.7653 12.8842 18.649 12.7693 19.5895 12.7693V8.76932ZM13.179 12.3731V21.9961H17.179V12.3731H13.179ZM13.179 21.9961C13.179 23.0553 13.7551 23.8123 14.3046 24.2608C14.8281 24.6882 15.4483 24.9495 15.9873 25.119C17.0834 25.4637 18.405 25.5999 19.5895 25.5999V21.5999C18.649 21.5999 17.7653 21.4851 17.1874 21.3033C16.8894 21.2096 16.8054 21.1388 16.834 21.1622C16.8885 21.2067 17.179 21.4878 17.179 21.9961H13.179ZM19.5895 25.5999C20.774 25.5999 22.0956 25.4637 23.1917 25.119C23.7307 24.9495 24.3509 24.6882 24.8744 24.2608C25.4239 23.8123 26 23.0553 26 21.9961H22C22 21.4878 22.2905 21.2067 22.345 21.1622C22.3736 21.1388 22.2896 21.2096 21.9916 21.3033C21.4137 21.4851 20.53 21.5999 19.5895 21.5999V25.5999ZM26 21.9961V12.3731H22V21.9961H26ZM26 12.3731C26 11.3139 25.4239 10.5569 24.8744 10.1084C24.3509 9.681 23.7307 9.41968 23.1917 9.25017C22.0956 8.90547 20.774 8.76932 19.5895 8.76932V12.7693C20.53 12.7693 21.4137 12.8842 21.9916 13.0659C22.2896 13.1596 22.3736 13.2304 22.345 13.207C22.2905 13.1626 22 12.8815 22 12.3731H26ZM21.2683 19.8612C21.3554 19.5409 21.5038 19.3221 21.5883 19.2123C21.6801 19.0931 21.7657 19.0134 21.8157 18.9703C21.8691 18.9242 21.9119 18.8942 21.9356 18.8784C21.9606 18.8618 21.9765 18.853 21.9804 18.8508C21.9839 18.8489 21.8981 18.8936 21.6943 18.9526C21.299 19.0671 20.6023 19.1942 19.5895 19.1942V23.1942C20.9223 23.1942 21.9996 23.0286 22.807 22.7947C23.2047 22.6796 23.5775 22.5361 23.8967 22.3619C24.0526 22.2768 24.2434 22.1587 24.428 21.9994C24.5459 21.8978 24.9579 21.5365 25.1279 20.9113L21.2683 19.8612ZM19.5895 19.1942C18.577 19.1942 17.8793 19.0671 17.4824 18.9527C17.278 18.8938 17.1902 18.8488 17.1913 18.8494C17.1946 18.8512 17.2098 18.8595 17.2339 18.8754C17.2569 18.8905 17.2989 18.9195 17.3516 18.9643C17.4008 19.0061 17.4863 19.0842 17.5787 19.2018C17.6627 19.3089 17.8162 19.5287 17.907 19.8537L14.0548 20.9309C14.2305 21.5591 14.6507 21.9184 14.7626 22.0134C14.9459 22.1691 15.1349 22.2848 15.2896 22.3684C15.6065 22.5397 15.9772 22.6816 16.3742 22.7961C17.18 23.0285 18.2564 23.1942 19.5895 23.1942V19.1942ZM17.9809 20.3923V19.7619H13.9809V20.3923H17.9809ZM15.0811 21.5481C16.3581 22.1914 18.1483 22.3923 19.5895 22.3923V18.3923C18.3387 18.3923 17.3101 18.1921 16.8807 17.9758L15.0811 21.5481ZM19.5895 22.3923C21.0337 22.3923 22.8214 22.1886 24.0955 21.5489L22.3006 17.9742C21.8691 18.1909 20.8373 18.3923 19.5895 18.3923V22.3923ZM21.1981 19.7615V20.3862H25.1981V19.7615H21.1981ZM21.2683 18.2574C21.3554 17.9371 21.5038 17.7183 21.5883 17.6085C21.6801 17.4892 21.7657 17.4096 21.8157 17.3665C21.8691 17.3204 21.9119 17.2904 21.9356 17.2746C21.9606 17.258 21.9765 17.2491 21.9804 17.247C21.9839 17.2451 21.8981 17.2898 21.6943 17.3488C21.299 17.4633 20.6023 17.5903 19.5895 17.5903V21.5903C20.9223 21.5903 21.9996 21.4247 22.807 21.1909C23.2047 21.0757 23.5775 20.9323 23.8967 20.7581C24.0526 20.673 24.2434 20.5549 24.428 20.3956C24.5459 20.2939 24.9579 19.9326 25.1279 19.3075L21.2683 18.2574ZM19.5895 17.5903C18.577 17.5903 17.8793 17.4633 17.4824 17.3489C17.278 17.2899 17.1902 17.245 17.1913 17.2456C17.1946 17.2473 17.2098 17.2557 17.2339 17.2716C17.2569 17.2866 17.2989 17.3157 17.3516 17.3605C17.4008 17.4023 17.4863 17.4804 17.5787 17.598C17.6627 17.705 17.8162 17.9249 17.907 18.2498L14.0548 19.327C14.2305 19.9553 14.6507 20.3146 14.7626 20.4096C14.9459 20.5653 15.1349 20.681 15.2896 20.7646C15.6065 20.9358 15.9772 21.0778 16.3742 21.1923C17.18 21.4247 18.2564 21.5903 19.5895 21.5903V17.5903ZM17.9809 18.7884V18.1581H13.9809V18.7884H17.9809ZM15.0811 19.9443C16.3581 20.5876 18.1483 20.7884 19.5895 20.7884V16.7884C18.3387 16.7884 17.3101 16.5883 16.8807 16.372L15.0811 19.9443ZM19.5895 20.7884C21.0337 20.7884 22.8214 20.5848 24.0955 19.9451L22.3006 16.3704C21.8691 16.5871 20.8373 16.7884 19.5895 16.7884V20.7884ZM21.1981 18.1577V18.7824H25.1981V18.1577H21.1981ZM21.2683 16.6535C21.3554 16.3333 21.5038 16.1145 21.5883 16.0047C21.6801 15.8854 21.7657 15.8058 21.8157 15.7626C21.8691 15.7165 21.9119 15.6865 21.9356 15.6707C21.9606 15.6541 21.9765 15.6453 21.9804 15.6432C21.9839 15.6413 21.8981 15.6859 21.6943 15.7449C21.299 15.8594 20.6023 15.9865 19.5895 15.9865V19.9865C20.9223 19.9865 21.9996 19.8209 22.807 19.5871C23.2047 19.4719 23.5775 19.3285 23.8967 19.1543C24.0526 19.0692 24.2434 18.951 24.428 18.7918C24.5459 18.6901 24.9579 18.3288 25.1279 17.7037L21.2683 16.6535ZM19.5895 15.9865C18.577 15.9865 17.8793 15.8595 17.4824 15.7451C17.278 15.6861 17.1902 15.6411 17.1913 15.6417C17.1946 15.6435 17.2098 15.6518 17.2339 15.6677C17.2569 15.6828 17.2989 15.7119 17.3516 15.7567C17.4008 15.7984 17.4863 15.8766 17.5787 15.9941C17.6627 16.1012 17.8162 16.3211 17.907 16.646L14.0548 17.7232C14.2305 18.3515 14.6507 18.7107 14.7626 18.8058C14.9459 18.9614 15.1349 19.0772 15.2896 19.1608C15.6065 19.332 15.9772 19.474 16.3742 19.5885C17.18 19.8208 18.2564 19.9865 19.5895 19.9865V15.9865ZM17.9809 17.1846V16.5543H13.9809V17.1846H17.9809ZM15.0811 18.3405C16.3581 18.9838 18.1483 19.1846 19.5895 19.1846V15.1846C18.3387 15.1846 17.3101 14.9845 16.8807 14.7681L15.0811 18.3405ZM19.5895 19.1846C21.0337 19.1846 22.8214 18.981 24.0955 18.3412L22.3006 14.7666C21.8691 14.9833 20.8373 15.1846 19.5895 15.1846V19.1846ZM21.1981 16.5539V17.1786H25.1981V16.5539H21.1981ZM21.2683 15.0497C21.3554 14.7295 21.5038 14.5106 21.5883 14.4008C21.6801 14.2816 21.7657 14.2019 21.8157 14.1588C21.8691 14.1127 21.9119 14.0827 21.9356 14.0669C21.9606 14.0503 21.9765 14.0415 21.9804 14.0393C21.9839 14.0375 21.8981 14.0821 21.6943 14.1411C21.299 14.2556 20.6023 14.3827 19.5895 14.3827V18.3827C20.9223 18.3827 21.9996 18.2171 22.807 17.9832C23.2047 17.8681 23.5775 17.7247 23.8967 17.5504C24.0526 17.4654 24.2434 17.3472 24.428 17.1879C24.5459 17.0863 24.9579 16.725 25.1279 16.0998L21.2683 15.0497ZM19.5895 14.3827C18.577 14.3827 17.8793 14.2557 17.4824 14.1412C17.278 14.0823 17.1902 14.0373 17.1913 14.0379C17.1946 14.0397 17.2098 14.048 17.2339 14.0639C17.2569 14.079 17.2989 14.108 17.3516 14.1528C17.4008 14.1946 17.4863 14.2728 17.5787 14.3903C17.6627 14.4974 17.8162 14.7173 17.907 15.0422L14.0548 16.1194C14.2305 16.7476 14.6507 17.1069 14.7626 17.202C14.9459 17.3576 15.1349 17.4734 15.2896 17.5569C15.6065 17.7282 15.9772 17.8702 16.3742 17.9846C17.18 18.217 18.2564 18.3827 19.5895 18.3827V14.3827ZM17.9809 15.5808V14.9505H13.9809V15.5808H17.9809ZM15.0845 16.7383C16.3583 17.3771 18.1449 17.5808 19.5895 17.5808V13.5808C18.342 13.5808 17.3099 13.3795 16.8773 13.1626L15.0845 16.7383ZM19.5895 17.5808C21.0337 17.5808 22.8214 17.3772 24.0955 16.7374L22.3006 13.1627C21.8691 13.3794 20.8373 13.5808 19.5895 13.5808V17.5808ZM21.1981 14.9501V15.5748H25.1981V14.9501H21.1981ZM21.2683 13.4459C21.3554 13.1256 21.5038 12.9068 21.5883 12.797C21.6801 12.6778 21.7657 12.5981 21.8157 12.555C21.8691 12.5089 21.9119 12.4789 21.9356 12.4631C21.9606 12.4465 21.9765 12.4377 21.9804 12.4355C21.9839 12.4336 21.8981 12.4783 21.6943 12.5373C21.299 12.6518 20.6023 12.7789 19.5895 12.7789V16.7789C20.9223 16.7789 21.9996 16.6133 22.807 16.3794C23.2047 16.2643 23.5775 16.1208 23.8967 15.9466C24.0526 15.8615 24.2434 15.7434 24.428 15.5841C24.5459 15.4825 24.9579 15.1212 25.1279 14.496L21.2683 13.4459ZM19.5895 12.7789C18.577 12.7789 17.8793 12.6519 17.4824 12.5374C17.278 12.4785 17.1902 12.4335 17.1913 12.4341C17.1946 12.4359 17.2098 12.4442 17.2339 12.4601C17.2569 12.4752 17.2989 12.5042 17.3516 12.549C17.4008 12.5908 17.4863 12.6689 17.5787 12.7865C17.6627 12.8936 17.8162 13.1134 17.907 13.4384L14.0548 14.5156C14.2305 15.1438 14.6507 15.5031 14.7626 15.5981C14.9459 15.7538 15.1349 15.8695 15.2896 15.9531C15.6065 16.1244 15.9772 16.2663 16.3742 16.3808C17.18 16.6132 18.2564 16.7789 19.5895 16.7789V12.7789ZM17.9809 13.977V13.3467H13.9809V13.977H17.9809ZM15.0845 15.1345C16.3583 15.7732 18.1449 15.977 19.5895 15.977V11.977C18.342 11.977 17.3099 11.7757 16.8773 11.5588L15.0845 15.1345ZM19.5895 15.977C21.0337 15.977 22.8214 15.7733 24.0955 15.1336L22.3006 11.5589C21.8691 11.7756 20.8373 11.977 19.5895 11.977V15.977ZM21.1981 13.3463V13.9709H25.1981V13.3463H21.1981ZM19.5895 13.5712C20.5936 13.5712 21.2876 13.696 21.6856 13.8099C21.7832 13.8378 21.8575 13.8636 21.9102 13.884C21.9643 13.905 21.9869 13.9171 21.9839 13.9155C21.9818 13.9144 21.9685 13.9072 21.9464 13.8929C21.9254 13.8793 21.8869 13.8531 21.838 13.8125C21.792 13.7743 21.7141 13.7047 21.6282 13.6008C21.5492 13.5052 21.4105 13.3171 21.3124 13.0395L25.0838 11.7068C24.8894 11.1564 24.5159 10.8368 24.3928 10.7346C24.2125 10.585 24.0268 10.4721 23.871 10.3887C23.5535 10.2188 23.183 10.0779 22.7861 9.96426C21.9811 9.73392 20.911 9.57123 19.5895 9.57123V13.5712ZM21.3124 11.7068C21.4105 11.4292 21.5492 11.2411 21.6282 11.1455C21.7141 11.0416 21.792 10.972 21.838 10.9338C21.8869 10.8932 21.9254 10.867 21.9464 10.8533C21.9685 10.8391 21.9818 10.8319 21.9839 10.8308C21.9869 10.8291 21.9643 10.8412 21.9102 10.8623C21.8575 10.8827 21.7832 10.9084 21.6856 10.9364C21.2876 11.0503 20.5936 11.1751 19.5895 11.1751V15.1751C20.911 15.1751 21.9811 15.0124 22.7861 14.782C23.183 14.6684 23.5535 14.5275 23.871 14.3576C24.0268 14.2742 24.2125 14.1613 24.3928 14.0117C24.5159 13.9095 24.8894 13.5898 25.0838 13.0395L21.3124 11.7068ZM19.5895 11.1751C18.579 11.1751 17.881 11.0485 17.4821 10.9342C17.3841 10.9061 17.3095 10.8803 17.2567 10.8598C17.2023 10.8387 17.1799 10.8267 17.1832 10.8285C17.1854 10.8296 17.1992 10.8371 17.2219 10.8517C17.2434 10.8656 17.2836 10.8928 17.3345 10.9351C17.3819 10.9743 17.4655 11.0486 17.5569 11.1608C17.6391 11.2616 17.7954 11.4752 17.8933 11.795L14.0685 12.9657C14.2563 13.5793 14.6755 13.9265 14.7823 14.015C14.963 14.1647 15.1488 14.2769 15.3021 14.3585C15.6161 14.5259 15.9841 14.6659 16.3802 14.7794C17.184 15.0097 18.258 15.1751 19.5895 15.1751V11.1751ZM17.9809 12.3804V12.378H13.9809V12.3804H17.9809ZM17.9022 12.9333C17.8123 13.2445 17.6657 13.4567 17.5824 13.5633C17.4919 13.6792 17.4079 13.7567 17.3587 13.7988C17.3062 13.8437 17.2644 13.8729 17.2412 13.8882C17.2169 13.9044 17.2015 13.9128 17.1979 13.9148C17.1958 13.9159 17.2825 13.8711 17.4864 13.8122C17.8821 13.6979 18.5783 13.5712 19.5895 13.5712V9.57123C18.2588 9.57123 17.1829 9.73628 16.3759 9.96945C15.9784 10.0843 15.6062 10.2272 15.2873 10.4006C15.1315 10.4853 14.9418 10.6024 14.7581 10.7596C14.6392 10.8613 14.2356 11.2135 14.0596 11.8226L17.9022 12.9333ZM19.5895 20.798C18.577 20.798 17.8793 20.671 17.4824 20.5565C17.278 20.4976 17.1902 20.4526 17.1913 20.4532C17.1946 20.455 17.2098 20.4633 17.2339 20.4792C17.2569 20.4943 17.2989 20.5233 17.3516 20.5681C17.4008 20.6099 17.4863 20.688 17.5787 20.8056C17.6627 20.9127 17.8162 21.1325 17.907 21.4575L14.0548 22.5347C14.2305 23.1629 14.6507 23.5222 14.7626 23.6173C14.9459 23.7729 15.1349 23.8886 15.2896 23.9722C15.6065 24.1435 15.9772 24.2855 16.3742 24.3999C17.18 24.6323 18.2564 24.798 19.5895 24.798V20.798ZM17.9809 21.9961V21.3658H13.9809V21.9961H17.9809ZM15.0811 23.1519C16.3581 23.7953 18.1483 23.9961 19.5895 23.9961V19.9961C18.3387 19.9961 17.3101 19.7959 16.8807 19.5796L15.0811 23.1519ZM19.5895 23.9961C21.0337 23.9961 22.8214 23.7925 24.0955 23.1527L22.3006 19.578C21.8691 19.7947 20.8373 19.9961 19.5895 19.9961V23.9961ZM21.1981 21.3654V21.9901H25.1981V21.3654H21.1981ZM21.2683 21.465C21.3554 21.1448 21.5038 20.9259 21.5883 20.8161C21.6801 20.6969 21.7657 20.6172 21.8157 20.5741C21.8691 20.528 21.9119 20.498 21.9356 20.4822C21.9606 20.4656 21.9765 20.4568 21.9804 20.4546C21.9839 20.4528 21.8981 20.4974 21.6943 20.5564C21.299 20.6709 20.6023 20.798 19.5895 20.798V24.798C20.9223 24.798 21.9996 24.6324 22.807 24.3985C23.2047 24.2834 23.5775 24.14 23.8967 23.9657C24.0526 23.8807 24.2434 23.7625 24.428 23.6032C24.5459 23.5016 24.9579 23.1403 25.1279 22.5151L21.2683 21.465Z" fill="#717171" mask="url(#path-17-inside-4_260_6143)"/>
<mask id="path-19-inside-5_260_6143" fill="white">
<path d="M3.87805 10.311H6.75891C6.94866 10.311 7.10253 10.1572 7.10253 9.9674C7.10253 9.77765 6.94866 9.62378 6.75891 9.62378H3.73851C3.6487 9.62358 3.56234 9.65856 3.49794 9.72121L1.70687 11.4682C1.63996 11.5464 1.60327 11.646 1.60342 11.7488V14.6004C1.60342 14.6862 1.63545 14.7688 1.69324 14.8322L3.32232 16.614C3.38743 16.6853 3.47955 16.726 3.57613 16.7259H6.75891C6.94866 16.7259 7.10253 16.572 7.10253 16.3823C7.10253 16.1925 6.94866 16.0387 6.75891 16.0387H3.72809L2.29106 14.4669V11.8607L3.87805 10.311Z"/>
</mask>
<path d="M3.87805 10.311V8.31102H3.06351L2.48074 8.88009L3.87805 10.311ZM3.73851 9.62378L3.73405 11.6238H3.73851V9.62378ZM3.49794 9.72121L2.10338 8.28761L2.10146 8.28948L3.49794 9.72121ZM1.70687 11.4682L0.310396 10.0364L0.245903 10.0993L0.187327 10.1678L1.70687 11.4682ZM1.60342 11.7488H3.60343L3.60342 11.7459L1.60342 11.7488ZM1.69324 14.8322L0.215634 16.18L0.217167 16.1817L1.69324 14.8322ZM3.32232 16.614L4.79896 15.2651L4.79839 15.2645L3.32232 16.614ZM3.57613 16.7259V14.7259L3.57509 14.7259L3.57613 16.7259ZM3.72809 16.0387L2.25203 17.3882L2.84674 18.0387H3.72809V16.0387ZM2.29106 14.4669H0.291064V15.2434L0.815006 15.8165L2.29106 14.4669ZM2.29106 11.8607L0.893761 10.4298L0.291064 11.0183V11.8607H2.29106ZM3.87805 12.311H6.75891V8.31102H3.87805V12.311ZM6.75891 12.311C8.05323 12.311 9.10253 11.2617 9.10253 9.9674H5.10253C5.10253 9.05258 5.8441 8.31102 6.75891 8.31102V12.311ZM9.10253 9.9674C9.10253 8.67308 8.05323 7.62378 6.75891 7.62378V11.6238C5.8441 11.6238 5.10253 10.8822 5.10253 9.9674H9.10253ZM6.75891 7.62378H3.73851V11.6238H6.75891V7.62378ZM3.74298 7.62379C3.13031 7.62242 2.54194 7.861 2.10338 8.28761L4.89249 11.1548C4.58275 11.4561 4.16709 11.6247 3.73405 11.6238L3.74298 7.62379ZM2.10146 8.28948L0.310396 10.0364L3.10335 12.8999L4.89442 11.1529L2.10146 8.28948ZM0.187327 10.1678C-0.190491 10.6093 -0.397422 11.1713 -0.396573 11.7518L3.60342 11.7459C3.60397 12.1206 3.47041 12.4834 3.22642 12.7686L0.187327 10.1678ZM-0.396575 11.7488V14.6004H3.60342V11.7488H-0.396575ZM-0.396575 14.6004C-0.396575 15.1848 -0.178317 15.7482 0.215635 16.18L3.17084 13.4843C3.44922 13.7895 3.60342 14.1876 3.60342 14.6004H-0.396575ZM0.217167 16.1817L1.84625 17.9636L4.79839 15.2645L3.16931 13.4827L0.217167 16.1817ZM1.84569 17.9629C2.28952 18.4488 2.91776 18.7262 3.57716 18.7259L3.57509 14.7259C4.04133 14.7257 4.48534 14.9218 4.79895 15.2651L1.84569 17.9629ZM3.57613 18.7259H6.75891V14.7259H3.57613V18.7259ZM6.75891 18.7259C8.05324 18.7259 9.10253 17.6766 9.10253 16.3823H5.10253C5.10253 15.4675 5.84409 14.7259 6.75891 14.7259V18.7259ZM9.10253 16.3823C9.10253 15.088 8.05323 14.0387 6.75891 14.0387V18.0387C5.8441 18.0387 5.10253 17.2971 5.10253 16.3823H9.10253ZM6.75891 14.0387H3.72809V18.0387H6.75891V14.0387ZM5.20415 14.6891L3.76712 13.1174L0.815006 15.8165L2.25203 17.3882L5.20415 14.6891ZM4.29106 14.4669V11.8607H0.291064V14.4669H4.29106ZM3.68837 13.2916L5.27535 11.7419L2.48074 8.88009L0.893761 10.4298L3.68837 13.2916Z" fill="#717171" mask="url(#path-19-inside-5_260_6143)"/>
</g>
<defs>
<clipPath id="clip0_260_6143">
<rect width="24" height="24" fill="white"/>
</clipPath>
</defs>
</svg>
