<svg width="21" height="21" viewBox="0 0 21 21" fill="none" xmlns="http://www.w3.org/2000/svg">
<path fill-rule="evenodd" clip-rule="evenodd" d="M12.0806 15.2171C12.0244 15.1789 11.9628 15.1485 11.898 15.1258C11.8379 15.0954 11.7723 15.0743 11.7052 15.0649C11.5421 15.0322 11.3735 15.04 11.2142 15.0884C11.055 15.136 10.9098 15.2219 10.792 15.3389C10.6062 15.5333 10.5016 15.7909 10.4977 16.0594C10.4961 16.1913 10.5203 16.3224 10.5687 16.445C10.6241 16.5683 10.6991 16.6815 10.792 16.7798C10.8903 16.8696 11.0035 16.9414 11.1268 16.9929C11.2486 17.0467 11.3797 17.0741 11.5124 17.0741C11.6451 17.0741 11.7762 17.0467 11.898 16.9929C12.0213 16.9414 12.1345 16.8696 12.2328 16.7798C12.3265 16.6854 12.4014 16.5729 12.4522 16.4488C12.5021 16.3255 12.5279 16.1928 12.5271 16.0594C12.5232 15.7909 12.4186 15.5333 12.2328 15.3389C12.1845 15.2952 12.1337 15.2546 12.0806 15.2171ZM18.6154 17.6049C18.6154 17.8743 18.5085 18.1326 18.318 18.3222C18.1275 18.5128 17.87 18.6197 17.6007 18.6197C17.3314 18.6197 17.0738 18.5128 16.8834 18.3222C16.6929 18.1326 16.586 17.8743 16.586 17.6049V12.5314H18.6154L18.6154 17.6049ZM3.3947 18.6197C3.12539 18.6197 2.86784 18.5128 2.67736 18.3222C2.48691 18.1326 2.37999 17.8743 2.37999 17.6049V3.125L4.40944 4.28178C4.56632 4.36373 4.74037 4.40669 4.91678 4.40669C5.09318 4.40669 5.26726 4.36372 5.42411 4.28178L8.46826 2.53646L11.5124 4.28178C11.6693 4.36373 11.8433 4.40669 12.0198 4.40669C12.1962 4.40669 12.3702 4.36372 12.5271 4.28178L14.5566 3.125V17.6049C14.5597 17.9515 14.6213 18.2942 14.7392 18.6197H3.3947ZM19.6301 10.502H16.586V1.36951C16.5867 1.19081 16.5399 1.01517 16.4509 0.859845C16.3619 0.705322 16.2332 0.576497 16.0786 0.486777C15.924 0.397729 15.7492 0.350914 15.5713 0.350914C15.3933 0.350914 15.2185 0.397729 15.0639 0.486777L12.0198 2.23204L8.9756 0.486777C8.82108 0.397729 8.64623 0.350914 8.46826 0.350914C8.2903 0.350914 8.11545 0.397729 7.96093 0.486777L4.91678 2.23204L1.87266 0.486777C1.7181 0.397729 1.54326 0.350914 1.36526 0.350914C1.18729 0.350914 1.01245 0.397729 0.857923 0.486777C0.70337 0.576497 0.574575 0.705322 0.485587 0.859845C0.396599 1.01517 0.349784 1.19081 0.350556 1.36951V17.6049C0.350556 18.4128 0.671394 19.1864 1.24195 19.7577C1.8133 20.3283 2.58762 20.6491 3.39471 20.6491H17.6007C18.4078 20.6491 19.1821 20.3283 19.7534 19.7577C20.324 19.1864 20.6448 18.4128 20.6448 17.6049V11.5167C20.6448 11.2474 20.5379 10.9898 20.3474 10.7993C20.157 10.6089 19.8994 10.502 19.6301 10.502L19.6301 10.502ZM9.45891 15.0446H5.4241C5.15483 15.0446 4.89724 15.1516 4.70679 15.342C4.51635 15.5325 4.40943 15.7901 4.40943 16.0594C4.40943 16.3286 4.51635 16.587 4.70679 16.7767C4.89724 16.9671 5.15483 17.0741 5.4241 17.0741H9.45891C9.72822 17.0741 9.98577 16.9671 10.1762 16.7767C10.3667 16.587 10.4736 16.3286 10.4736 16.0594C10.4736 15.7901 10.3667 15.5325 10.1762 15.342C9.98577 15.1516 9.72821 15.0446 9.45891 15.0446ZM11.8037 12.0558H5.4241C5.15483 12.0558 4.89724 12.1627 4.70679 12.3532C4.51635 12.5437 4.40943 12.8012 4.40943 13.0706C4.40943 13.3398 4.51635 13.5982 4.70679 13.7879C4.89724 13.9783 5.15483 14.0852 5.4241 14.0852H11.8037C12.0731 14.0852 12.3306 13.9783 12.5211 13.7879C12.7115 13.5982 12.8184 13.3398 12.8184 13.0706C12.8184 12.8012 12.7115 12.5437 12.5211 12.3532C12.3306 12.1627 12.073 12.0558 11.8037 12.0558Z" fill="black"/>
<path d="M12.0806 15.2171L12.283 14.9303L12.2781 14.927L12.0806 15.2171ZM11.898 15.1258L11.7393 15.4388L11.7601 15.4494L11.7823 15.4571L11.898 15.1258ZM11.7052 15.0649L11.636 15.409L11.6463 15.4111L11.6567 15.4125L11.7052 15.0649ZM11.2142 15.0884L11.3148 15.4246L11.3163 15.4242L11.2142 15.0884ZM10.792 15.3389L10.5446 15.0899L10.5383 15.0964L10.792 15.3389ZM10.4977 16.0594L10.1468 16.0543L10.1468 16.0551L10.4977 16.0594ZM10.5687 16.445L10.2423 16.5739L10.2453 16.5814L10.2486 16.5888L10.5687 16.445ZM10.792 16.7798L10.5369 17.0208L10.5458 17.0302L10.5553 17.0389L10.792 16.7798ZM11.1268 16.9929L11.2688 16.6719L11.262 16.669L11.1268 16.9929ZM11.898 16.9929L11.7628 16.669L11.756 16.6719L11.898 16.9929ZM12.2328 16.7798L12.4694 17.039L12.4759 17.0331L12.482 17.0269L12.2328 16.7798ZM12.4522 16.4488L12.777 16.5816L12.7774 16.5806L12.4522 16.4488ZM12.5271 16.0594L12.8781 16.0573L12.878 16.0542L12.5271 16.0594ZM12.2328 15.3389L12.4865 15.0965L12.4776 15.0871L12.4681 15.0785L12.2328 15.3389ZM18.6154 17.6049H18.2644H18.6154ZM18.318 18.3222L18.0704 18.0736L18.0698 18.0741L18.318 18.3222ZM16.8834 18.3222L17.1316 18.0742L17.131 18.0736L16.8834 18.3222ZM16.586 12.5314V12.1804H16.235V12.5314H16.586ZM18.6154 12.5314L18.9663 12.5314L18.9663 12.1804H18.6154V12.5314ZM2.67736 18.3222L2.92553 18.0741L2.92499 18.0736L2.67736 18.3222ZM2.37999 3.125L2.55378 2.82011L2.02905 2.52102V3.125H2.37999ZM4.40944 4.28178L4.23554 4.58688L4.24695 4.59284L4.40944 4.28178ZM5.42411 4.28178L5.58673 4.59308L5.59866 4.58623L5.42411 4.28178ZM8.46826 2.53646L8.64282 2.23201L8.46826 2.13193L8.29371 2.23201L8.46826 2.53646ZM11.5124 4.28178L11.3377 4.58647L11.3499 4.59285L11.5124 4.28178ZM12.5271 4.28178L12.6897 4.59307L12.7009 4.58667L12.5271 4.28178ZM14.5566 3.125H14.9075V2.52102L14.3828 2.82011L14.5566 3.125ZM14.5566 17.6049H14.2056L14.2056 17.6081L14.5566 17.6049ZM14.7392 18.6197V18.9706H15.2395L15.0692 18.5002L14.7392 18.6197ZM19.6301 10.502L19.7753 10.1825L19.7061 10.151H19.6301V10.502ZM16.586 10.502H16.235V10.8529H16.586V10.502ZM16.586 1.36951L16.235 1.36801V1.36951H16.586ZM16.4509 0.859845L16.7555 0.685404L16.7551 0.684709L16.4509 0.859845ZM16.0786 0.486777L16.2548 0.183265L16.2538 0.1827L16.0786 0.486777ZM15.0639 0.486777L15.2384 0.791229L15.2391 0.790855L15.0639 0.486777ZM12.0198 2.23204L11.8452 2.5365L12.0198 2.63657L12.1943 2.53649L12.0198 2.23204ZM8.9756 0.486777L8.80037 0.790841L8.80105 0.79123L8.9756 0.486777ZM7.96093 0.486777L8.13547 0.79123L8.13615 0.79084L7.96093 0.486777ZM4.91678 2.23204L4.74223 2.53649L4.91677 2.63657L5.09132 2.5365L4.91678 2.23204ZM1.87266 0.486777L1.69746 0.790855L1.69811 0.791228L1.87266 0.486777ZM0.857923 0.486777L0.682698 0.182713L0.681735 0.183272L0.857923 0.486777ZM0.485587 0.859845L0.181472 0.684709L0.181082 0.68539L0.485587 0.859845ZM0.350556 1.36951H0.701498L0.701491 1.36799L0.350556 1.36951ZM1.24195 19.7577L0.993626 20.0057L0.993971 20.006L1.24195 19.7577ZM19.7534 19.7577L20.0014 20.006L20.0018 20.0057L19.7534 19.7577ZM20.3474 10.7993L20.5956 10.5512L20.5956 10.5512L20.3474 10.7993ZM19.6301 10.502L19.4849 10.8214L19.5541 10.8529H19.6301V10.502ZM4.70679 16.7767L4.95495 16.5285L4.95442 16.528L4.70679 16.7767ZM10.1762 16.7767L9.9286 16.528L9.92812 16.5285L10.1762 16.7767ZM10.1762 15.342L10.4244 15.0939L10.4244 15.0939L10.1762 15.342ZM4.70679 12.3532L4.45864 12.105L4.4586 12.1051L4.70679 12.3532ZM4.70679 13.7879L4.95495 13.5397L4.95447 13.5392L4.70679 13.7879ZM12.5211 13.7879L12.2734 13.5393L12.2729 13.5397L12.5211 13.7879ZM12.5211 12.3532L12.7693 12.1051L12.7692 12.105L12.5211 12.3532ZM12.2781 14.927C12.1948 14.8703 12.1054 14.8266 12.0137 14.7945L11.7823 15.4571C11.8202 15.4704 11.8541 15.4874 11.8832 15.5073L12.2781 14.927ZM12.0567 14.8129C11.9634 14.7655 11.8607 14.7323 11.7537 14.7174L11.6567 15.4125C11.684 15.4163 11.7124 15.4252 11.7393 15.4388L12.0567 14.8129ZM11.7744 14.7209C11.5548 14.6768 11.3274 14.6872 11.1121 14.7526L11.3163 15.4242C11.4196 15.3928 11.5293 15.3875 11.636 15.409L11.7744 14.7209ZM11.1137 14.7522C10.8996 14.8162 10.7039 14.9318 10.5446 15.09L11.0393 15.5879C11.1158 15.512 11.2104 15.4558 11.3148 15.4246L11.1137 14.7522ZM10.5383 15.0964C10.2908 15.3554 10.152 15.698 10.1468 16.0543L10.8486 16.0645C10.8512 15.8838 10.9216 15.7113 11.0457 15.5814L10.5383 15.0964ZM10.1468 16.0551C10.1447 16.2327 10.1772 16.409 10.2423 16.5739L10.8951 16.3161C10.8634 16.2358 10.8476 16.1499 10.8486 16.0636L10.1468 16.0551ZM10.2486 16.5888C10.3197 16.7469 10.4163 16.8931 10.5369 17.0208L11.0471 16.5388C10.9819 16.4698 10.9286 16.3897 10.8888 16.3011L10.2486 16.5888ZM10.5553 17.0389C10.6839 17.1564 10.8316 17.25 10.9916 17.3168L11.262 16.669C11.1754 16.6329 11.0967 16.5828 11.0286 16.5207L10.5553 17.0389ZM10.9849 17.3139C11.1518 17.3877 11.3313 17.425 11.5124 17.425V16.7232C11.4281 16.7232 11.3453 16.7058 11.2687 16.6719L10.9849 17.3139ZM11.5124 17.425C11.6934 17.425 11.873 17.3877 12.04 17.3138L11.756 16.6719C11.6795 16.7058 11.5967 16.7232 11.5124 16.7232V17.425ZM12.0332 17.3168C12.1933 17.2499 12.3409 17.1564 12.4694 17.039L11.9962 16.5206C11.9281 16.5828 11.8494 16.6329 11.7628 16.669L12.0332 17.3168ZM12.482 17.0269C12.6077 16.9002 12.7086 16.749 12.777 16.5816L12.1273 16.316C12.0943 16.3969 12.0453 16.4706 11.9837 16.5327L12.482 17.0269ZM12.7774 16.5806C12.8445 16.4152 12.8791 16.2371 12.878 16.0573L12.1762 16.0614C12.1767 16.1486 12.1598 16.2358 12.1269 16.317L12.7774 16.5806ZM12.878 16.0542C12.8728 15.6979 12.734 15.3554 12.4865 15.0965L11.9791 15.5814C12.1032 15.7112 12.1736 15.8838 12.1762 16.0645L12.878 16.0542ZM12.4681 15.0785C12.4094 15.0255 12.3477 14.9761 12.283 14.9304L11.8783 15.5039C11.9197 15.5331 11.9595 15.5649 11.9976 15.5994L12.4681 15.0785ZM18.2644 17.6049C18.2644 17.7814 18.1944 17.9501 18.0704 18.0736L18.5656 18.5709C18.8226 18.3151 18.9663 17.9671 18.9663 17.6049H18.2644ZM18.0698 18.0741C17.945 18.199 17.7767 18.2687 17.6007 18.2687V18.9706C17.9633 18.9706 18.31 18.8266 18.5662 18.5704L18.0698 18.0741ZM17.6007 18.2687C17.4247 18.2687 17.2563 18.1989 17.1316 18.0742L16.6352 18.5703C16.8913 18.8266 17.2381 18.9706 17.6007 18.9706V18.2687ZM17.131 18.0736C17.007 17.9501 16.9369 17.7814 16.9369 17.6049H16.235C16.235 17.9672 16.3789 18.3151 16.6357 18.5709L17.131 18.0736ZM16.9369 17.6049V12.5314H16.235V17.6049H16.9369ZM16.586 12.8823H18.6154V12.1804H16.586V12.8823ZM18.2645 12.5314L18.2644 17.6049L18.9663 17.6049L18.9663 12.5314L18.2645 12.5314ZM3.3947 18.2687C3.21868 18.2687 3.05034 18.199 2.92553 18.0741L2.42919 18.5704C2.68533 18.8266 3.03209 18.9706 3.3947 18.9706V18.2687ZM2.92499 18.0736C2.80099 17.9501 2.73093 17.7814 2.73093 17.6049H2.02905C2.02905 17.9671 2.17282 18.3151 2.42972 18.5709L2.92499 18.0736ZM2.73093 17.6049V3.125H2.02905V17.6049H2.73093ZM2.20621 3.42989L4.23565 4.58667L4.58322 3.9769L2.55378 2.82011L2.20621 3.42989ZM4.24695 4.59284C4.45362 4.7008 4.68338 4.75763 4.91678 4.75763V4.05575C4.79737 4.05575 4.67901 4.02667 4.57193 3.97073L4.24695 4.59284ZM4.91678 4.75763C5.15017 4.75763 5.37996 4.70079 5.58661 4.59284L5.26162 3.97073C5.15457 4.02666 5.03619 4.05575 4.91678 4.05575V4.75763ZM5.59866 4.58623L8.64281 2.84091L8.29371 2.23201L5.24956 3.97734L5.59866 4.58623ZM8.29371 2.84091L11.3378 4.58623L11.6869 3.97734L8.64282 2.23201L8.29371 2.84091ZM11.3499 4.59285C11.5566 4.7008 11.7864 4.75763 12.0198 4.75763V4.05575C11.9003 4.05575 11.782 4.02667 11.6748 3.97072L11.3499 4.59285ZM12.0198 4.75763C12.2532 4.75763 12.4829 4.70078 12.6896 4.59286L12.3647 3.97071C12.2575 4.02667 12.1391 4.05575 12.0198 4.05575V4.75763ZM12.7009 4.58667L14.7303 3.42989L14.3828 2.82011L12.3533 3.9769L12.7009 4.58667ZM14.2056 3.125V17.6049H14.9075V3.125H14.2056ZM14.2056 17.6081C14.2091 17.9943 14.2778 18.3763 14.4092 18.7392L15.0692 18.5002C14.9648 18.2121 14.9102 17.9087 14.9075 17.6018L14.2056 17.6081ZM14.7392 18.2687H3.3947V18.9706H14.7392V18.2687ZM19.6301 10.151H16.586V10.8529H19.6301V10.151ZM16.9369 10.502V1.36951H16.235V10.502H16.9369ZM16.9369 1.371C16.9379 1.12992 16.8748 0.893684 16.7555 0.685405L16.1464 1.03428C16.2051 1.13666 16.2355 1.2517 16.235 1.36801L16.9369 1.371ZM16.7551 0.684709C16.6352 0.476534 16.4621 0.303608 16.2548 0.183267L15.9024 0.790287C16.0042 0.849387 16.0887 0.93411 16.1468 1.03498L16.7551 0.684709ZM16.2538 0.1827C16.0461 0.0630237 15.8109 -2.44735e-05 15.5713 -2.44735e-05V0.701852C15.6876 0.701852 15.802 0.732434 15.9034 0.790855L16.2538 0.1827ZM15.5713 -2.44735e-05C15.3317 -2.44735e-05 15.0964 0.0630184 14.8887 0.1827L15.2391 0.790855C15.3405 0.73244 15.4549 0.701852 15.5713 0.701852V-2.44735e-05ZM14.8893 0.182326L11.8452 1.92759L12.1943 2.53649L15.2384 0.791228L14.8893 0.182326ZM12.1943 1.92759L9.15015 0.182325L8.80105 0.79123L11.8452 2.5365L12.1943 1.92759ZM9.15082 0.182714C8.94311 0.0630161 8.70786 -2.44735e-05 8.46826 -2.44735e-05V0.701852C8.5846 0.701852 8.69904 0.732442 8.80037 0.79084L9.15082 0.182714ZM8.46826 -2.44735e-05C8.22867 -2.44735e-05 7.99341 0.0630163 7.7857 0.182714L8.13615 0.79084C8.23749 0.732442 8.35192 0.701852 8.46826 0.701852V-2.44735e-05ZM7.78638 0.182325L4.74223 1.92759L5.09132 2.5365L8.13547 0.791229L7.78638 0.182325ZM5.09132 1.92759L2.04721 0.182326L1.69811 0.791228L4.74223 2.53649L5.09132 1.92759ZM2.04785 0.1827C1.84013 0.0630158 1.60488 -2.44735e-05 1.36526 -2.44735e-05V0.701852C1.48163 0.701852 1.59608 0.732442 1.69746 0.790855L2.04785 0.1827ZM1.36526 -2.44735e-05C1.12567 -2.44735e-05 0.890408 0.0630162 0.682698 0.182714L1.03315 0.79084C1.13448 0.732442 1.24892 0.701852 1.36526 0.701852V-2.44735e-05ZM0.681735 0.183272C0.474444 0.303606 0.301363 0.476526 0.181473 0.684709L0.789701 1.03498C0.847787 0.934117 0.932295 0.849388 1.03411 0.790282L0.681735 0.183272ZM0.181082 0.68539C0.0617514 0.893678 -0.00142063 1.12993 -0.000378996 1.37102L0.701491 1.36799C0.700989 1.25169 0.731447 1.13666 0.790092 1.0343L0.181082 0.68539ZM-0.000382283 1.36951V17.6049H0.701494V1.36951H-0.000382283ZM-0.000382283 17.6049C-0.000382283 18.506 0.357498 19.3687 0.993627 20.0057L1.49027 19.5097C0.98529 19.0041 0.701494 18.3196 0.701494 17.6049H-0.000382283ZM0.993971 20.006C1.63102 20.6422 2.49449 21 3.39471 21V20.2982C2.68074 20.2982 1.99557 20.0143 1.48993 19.5094L0.993971 20.006ZM3.39471 21H17.6007V20.2982H3.39471V21ZM17.6007 21C18.5009 21 19.3644 20.6422 20.0014 20.006L19.5055 19.5094C18.9998 20.0143 18.3147 20.2982 17.6007 20.2982V21ZM20.0018 20.0057C20.6379 19.3687 20.9958 18.506 20.9958 17.6049H20.2939C20.2939 18.3196 20.0101 19.0041 19.5051 19.5097L20.0018 20.0057ZM20.9958 17.6049V11.5167H20.2939V17.6049H20.9958ZM20.9958 11.5167C20.9958 11.154 20.8517 10.8073 20.5956 10.5512L20.0993 11.0474C20.2241 11.1723 20.2939 11.3407 20.2939 11.5167H20.9958ZM20.5956 10.5512C20.3395 10.2951 19.9927 10.151 19.6301 10.151V10.8529C19.8061 10.8529 19.9745 10.9227 20.0993 11.0475L20.5956 10.5512ZM19.7754 10.1825L19.7753 10.1825L19.4849 10.8214L19.4849 10.8214L19.7754 10.1825ZM9.45891 14.6937H5.4241V15.3956H9.45891V14.6937ZM5.4241 14.6937C5.0615 14.6937 4.71472 14.8378 4.45864 15.0939L4.95495 15.5902C5.07976 15.4654 5.24817 15.3956 5.4241 15.3956V14.6937ZM4.45864 15.0939C4.20253 15.35 4.05849 15.6968 4.05849 16.0594H4.76037C4.76037 15.8834 4.83016 15.715 4.95495 15.5902L4.45864 15.0939ZM4.05849 16.0594C4.05849 16.4215 4.20225 16.7695 4.45917 17.0253L4.95442 16.528C4.83044 16.4045 4.76037 16.2358 4.76037 16.0594H4.05849ZM4.45864 17.0248C4.71472 17.2809 5.0615 17.425 5.4241 17.425V16.7232C5.24817 16.7232 5.07976 16.6533 4.95495 16.5285L4.45864 17.0248ZM5.4241 17.425H9.45891V16.7232H5.4241V17.425ZM9.45891 17.425C9.82157 17.425 10.1683 17.2809 10.4244 17.0248L9.92812 16.5285C9.80325 16.6533 9.63487 16.7232 9.45891 16.7232V17.425ZM10.4239 17.0253C10.6807 16.7695 10.8246 16.4215 10.8246 16.0594H10.1227C10.1227 16.2357 10.0526 16.4045 9.9286 16.528L10.4239 17.0253ZM10.8246 16.0594C10.8246 15.6968 10.6805 15.35 10.4244 15.0939L9.92808 15.5902C10.0529 15.715 10.1227 15.8834 10.1227 16.0594H10.8246ZM10.4244 15.0939C10.1683 14.8378 9.82156 14.6937 9.45891 14.6937V15.3956C9.63487 15.3956 9.80325 15.4654 9.92812 15.5902L10.4244 15.0939ZM11.8037 11.7049H5.4241V12.4068H11.8037V11.7049ZM5.4241 11.7049C5.06155 11.7049 4.71476 11.8489 4.45864 12.105L4.95495 12.6013C5.07973 12.4766 5.24811 12.4068 5.4241 12.4068V11.7049ZM4.4586 12.1051C4.20254 12.3612 4.05849 12.7079 4.05849 13.0706H4.76037C4.76037 12.8945 4.83015 12.7262 4.95498 12.6013L4.4586 12.1051ZM4.05849 13.0706C4.05849 13.4327 4.20227 13.7806 4.45912 14.0365L4.95447 13.5392C4.83042 13.4157 4.76037 13.2469 4.76037 13.0706H4.05849ZM4.45864 14.036C4.71476 14.2921 5.06155 14.4362 5.4241 14.4362V13.7343C5.24811 13.7343 5.07973 13.6645 4.95495 13.5397L4.45864 14.036ZM5.4241 14.4362H11.8037V13.7343H5.4241V14.4362ZM11.8037 14.4362C12.1663 14.4362 12.5131 14.2921 12.7692 14.036L12.2729 13.5397C12.1481 13.6645 11.9798 13.7343 11.8037 13.7343V14.4362ZM12.7688 14.0365C13.0256 13.7806 13.1694 13.4328 13.1694 13.0706H12.4675C12.4675 13.2469 12.3974 13.4157 12.2734 13.5393L12.7688 14.0365ZM13.1694 13.0706C13.1694 12.7079 13.0253 12.3612 12.7693 12.1051L12.2729 12.6013C12.3977 12.7262 12.4675 12.8946 12.4675 13.0706H13.1694ZM12.7692 12.105C12.5131 11.8489 12.1663 11.7049 11.8037 11.7049V12.4068C11.9798 12.4068 12.1481 12.4766 12.2729 12.6014L12.7692 12.105Z" fill="#FFEFD0"/>
<path fill-rule="evenodd" clip-rule="evenodd" d="M10.1511 5.88486H9.63654C9.71972 6.00359 9.7837 6.1359 9.82939 6.27928C9.84039 6.31298 9.85041 6.34773 9.85866 6.38339H10.1511C10.2562 6.38339 10.3559 6.42346 10.4217 6.51753C10.4802 6.60066 10.4975 6.70471 10.4975 6.80607V6.86632C10.4975 6.96755 10.4802 7.07167 10.4217 7.15479C10.3559 7.24887 10.2562 7.28894 10.1511 7.28894H9.85772C9.82116 7.43881 9.76452 7.58396 9.68954 7.72354C9.5415 8.00303 9.29471 8.22116 8.96567 8.3827C8.6549 8.53251 8.24724 8.60646 7.75277 8.61466C7.80395 8.66127 7.85514 8.71235 7.90448 8.76808L9.85866 10.8067C9.87968 10.8287 9.89794 10.8506 9.91255 10.8715C9.92629 10.889 9.94456 10.9163 9.95644 10.9484C9.97198 10.9939 9.97472 11.0469 9.97472 11.0889C9.97472 11.2277 9.86688 11.3035 9.79009 11.34L9.77821 11.3446C9.68773 11.3792 9.56433 11.3902 9.42724 11.3902H9.32579C9.22067 11.3902 9.11921 11.3765 9.02415 11.3491L9.02049 11.3482C8.9227 11.3171 8.83767 11.266 8.7682 11.1921L6.39453 8.71328C6.3269 8.63107 6.26749 8.55718 6.21721 8.49142L6.21264 8.48592C6.15323 8.40101 6.11027 8.30528 6.11027 8.20204V8.11529C6.11027 8.00476 6.14319 7.89429 6.2355 7.81581C6.32324 7.74191 6.43657 7.71903 6.54717 7.71903H7.64764C7.8734 7.71903 8.06626 7.67891 8.23171 7.60312C8.39987 7.52629 8.52691 7.42695 8.61832 7.30737C8.62198 7.30094 8.62653 7.29544 8.63112 7.28896H6.45576C6.35067 7.28896 6.25102 7.24889 6.18521 7.15481C6.12675 7.07168 6.11028 6.96757 6.11028 6.86634V6.80609C6.11028 6.70472 6.12675 6.60067 6.18521 6.51755C6.25103 6.42348 6.35068 6.38341 6.45576 6.38341H8.64301C8.59913 6.30303 8.54336 6.23996 8.47757 6.19066L8.4748 6.18889C8.28472 6.04276 8.02328 5.9625 7.67506 5.9625H6.54717C6.4329 5.9625 6.31684 5.93595 6.22909 5.85289C6.14044 5.76885 6.11028 5.65384 6.11028 5.53976V5.40103C6.11028 5.28689 6.14044 5.17269 6.22909 5.08869C6.31684 5.00569 6.4329 4.97914 6.54717 4.97914H10.1511C10.2562 4.97914 10.3559 5.01927 10.4217 5.11249C10.4802 5.1955 10.4975 5.30053 10.4975 5.40103V5.46207C10.4975 5.56257 10.4802 5.66754 10.4217 5.75073C10.3559 5.84376 10.2562 5.88487 10.1511 5.88487L10.1511 5.88486Z" fill="black"/>
</svg>
