<svg width="20" height="20" viewBox="0 0 20 20" fill="none" xmlns="http://www.w3.org/2000/svg">
<path opacity="0.01" fill-rule="evenodd" clip-rule="evenodd" d="M10.0001 20.0001C4.47727 20.0001 0.00012 15.523 0.00012 10.0001C0.00012 4.47727 4.47727 0.00012 10.0001 0.00012C15.523 0.00012 20.0001 4.47727 20.0001 10.0001C20.0001 15.523 15.523 20.0001 10.0001 20.0001Z" fill="#4CB748"/>
<path fill-rule="evenodd" clip-rule="evenodd" d="M15.8194 9.99954C15.8194 6.78288 13.2163 4.1802 10 4.1802C6.78338 4.1802 4.1807 6.78331 4.1807 9.99954C4.1807 13.2162 6.78381 15.8189 10 15.8189C13.2167 15.8189 15.8194 13.2158 15.8194 9.99954ZM16.897 9.99954C16.897 13.8118 13.8118 16.8965 10 16.8965C6.18772 16.8965 3.10303 13.8113 3.10303 9.99954C3.10303 6.18723 6.18824 3.10254 10 3.10254C13.8123 3.10254 16.897 6.18775 16.897 9.99954ZM13.0488 7.81108C13.2593 8.02156 13.2593 8.36275 13.0488 8.57312L9.43405 12.188C9.22357 12.3984 8.88249 12.3984 8.67201 12.188L6.95123 10.4671C6.74075 10.2568 6.74075 9.91557 6.95123 9.70519C7.1616 9.49471 7.50279 9.49471 7.71317 9.70519L9.05298 11.045L12.2868 7.81108C12.4973 7.60071 12.8385 7.60071 13.0488 7.81108Z" fill="#4CB748"/>
</svg>
