<svg width="18" height="18" viewBox="0 0 18 18" fill="none" xmlns="http://www.w3.org/2000/svg">
<path opacity="0.01" fill-rule="evenodd" clip-rule="evenodd" d="M9.00006 17.9999C4.02953 17.9999 0.000122069 13.9705 0.000122069 8.99994C0.000122069 4.02941 4.02953 0 9.00006 0C13.9706 0 18 4.02941 18 8.99994C18 13.9705 13.9706 17.9999 9.00006 17.9999Z" fill="black"/>
<path d="M8.99994 17.4999C4.30555 17.4999 0.499998 13.6943 0.499998 8.99994C0.499998 4.30555 4.30555 0.499997 8.99994 0.499997C13.6943 0.499997 17.4999 4.30555 17.4999 8.99994C17.4999 13.6943 13.6943 17.4999 8.99994 17.4999Z" fill="white" stroke="#FCAF17"/>
<path fill-rule="evenodd" clip-rule="evenodd" d="M12.6335 6.39656C12.8843 6.64695 12.8843 7.05284 12.6335 7.3031L8.3256 11.6034C8.07476 11.8537 7.66828 11.8537 7.41744 11.6034L5.36672 9.55623C5.11588 9.30597 5.11588 8.90009 5.36672 8.64981C5.61743 8.39942 6.02404 8.39942 6.27476 8.64981L7.87147 10.2437L11.7253 6.39656C11.9762 6.1463 12.3828 6.1463 12.6335 6.39656H12.6335Z" fill="black"/>
</svg>
