<svg width="25" height="25" viewBox="0 0 25 25" fill="none" xmlns="http://www.w3.org/2000/svg">
<path opacity="0.01" fill-rule="evenodd" clip-rule="evenodd" d="M0.255102 24.7449V0.255102H24.7449V24.7449H0.255102Z" fill="black" stroke="black" stroke-width="0.5"/>
<path fill-rule="evenodd" clip-rule="evenodd" d="M11.4748 12.4986C11.4748 12.5004 11.4748 12.5021 11.4748 12.5038C11.4727 13.2109 10.8957 13.7861 10.1886 13.7861C9.48249 13.7861 8.90549 13.2117 8.90243 12.505L8.90234 12.4979C8.9034 11.7895 9.48 11.2137 10.1886 11.2137C10.8969 11.2137 11.4733 11.789 11.4749 12.4969L11.4748 12.4986ZM19.7624 12.0158H12.3909C12.1687 11.0045 11.2656 10.2453 10.1886 10.2453C9.1116 10.2453 8.20852 11.0045 7.98634 12.0158H5.23756C4.97018 12.0158 4.75339 12.2325 4.75339 12.4999C4.75339 12.7673 4.97018 12.9841 5.23756 12.9841H7.98659C8.20921 13.9948 9.1135 14.7545 10.1886 14.7545C11.2643 14.7545 12.1682 13.9949 12.3907 12.9841H19.7624C20.0297 12.9841 20.2465 12.7673 20.2465 12.4999C20.2465 12.2325 20.0297 12.0158 19.7624 12.0158H19.7624ZM14.8113 19.2857C14.103 19.2857 13.5267 18.7103 13.525 18.0024L13.5251 18.0006C13.5251 17.9989 13.5251 17.9972 13.5251 17.9954C13.5272 17.2883 14.1042 16.7131 14.8113 16.7131C15.5174 16.7131 16.0944 17.2875 16.0975 17.9942L16.0976 18.0014C16.0965 18.7097 15.5199 19.2857 14.8113 19.2857ZM19.7624 17.5152H17.0133C16.7907 16.5045 15.8864 15.7448 14.8113 15.7448C13.7356 15.7448 12.8317 16.5044 12.6092 17.5152H5.23757C4.97019 17.5152 4.7534 17.732 4.7534 17.9994C4.7534 18.2668 4.97019 18.4835 5.23757 18.4835H12.609C12.8312 19.4948 13.7343 20.254 14.8113 20.254C15.8883 20.254 16.7914 19.4948 17.0136 18.4835H19.7624C20.0297 18.4835 20.2465 18.2668 20.2465 17.9994C20.2465 17.732 20.0297 17.5152 19.7624 17.5152ZM13.5251 7.0017C13.5251 6.99998 13.5251 6.99822 13.5251 6.9965C13.5272 6.28942 14.1042 5.7142 14.8113 5.7142C15.5174 5.7142 16.0944 6.28863 16.0975 6.99538L16.0976 7.00249C16.0965 7.71079 15.5199 8.28675 14.8113 8.28675C14.103 8.28675 13.5267 7.71136 13.525 7.00349L13.5251 7.0017ZM5.23757 7.4846H12.609C12.8312 8.49586 13.7343 9.25505 14.8113 9.25505C15.8883 9.25505 16.7914 8.49589 17.0136 7.4846H19.7624C20.0297 7.4846 20.2465 7.26782 20.2465 7.00044C20.2465 6.73306 20.0297 6.51628 19.7624 6.51628H17.0133C16.7907 5.50553 15.8864 4.74586 14.8113 4.74586C13.7356 4.74586 12.8317 5.50541 12.6092 6.51628H5.23757C4.97019 6.51628 4.7534 6.73306 4.7534 7.00044C4.7534 7.26782 4.97019 7.4846 5.23757 7.4846Z" fill="black"/>
<path d="M11.4748 12.4986L11.2197 12.4941V12.4986H11.4748ZM11.4748 12.5038L11.7299 12.5046V12.5038H11.4748ZM8.90243 12.505L9.15754 12.5039L9.15751 12.5017L8.90243 12.505ZM8.90234 12.4979L8.64721 12.4975L8.64726 12.5012L8.90234 12.4979ZM11.4749 12.4969L11.73 12.5015L11.73 12.4963L11.4749 12.4969ZM12.3909 12.0158L12.1417 12.0705L12.1857 12.2709H12.3909V12.0158ZM7.98634 12.0158V12.2709H8.19148L8.2355 12.0705L7.98634 12.0158ZM7.98659 12.9841L8.23572 12.9292L8.19161 12.729H7.98659V12.9841ZM12.3907 12.9841V12.729H12.1856L12.1416 12.9292L12.3907 12.9841ZM13.525 18.0024L13.2699 17.9979L13.2699 18.003L13.525 18.0024ZM13.5251 18.0006L13.7802 18.0051V18.0006H13.5251ZM13.5251 17.9954L13.27 17.9947V17.9954H13.5251ZM16.0975 17.9942L15.8424 17.9953L15.8424 17.9975L16.0975 17.9942ZM16.0976 18.0014L16.3527 18.0017L16.3527 17.9981L16.0976 18.0014ZM17.0133 17.5152L16.7642 17.5701L16.8083 17.7703H17.0133V17.5152ZM12.6092 17.5152V17.7703H12.8143L12.8584 17.57L12.6092 17.5152ZM12.609 18.4835L12.8582 18.4288L12.8142 18.2284H12.609V18.4835ZM17.0136 18.4835V18.2284H16.8084L16.7644 18.4288L17.0136 18.4835ZM13.5251 7.0017L13.7802 7.00608V7.0017H13.5251ZM13.5251 6.9965L13.27 6.99573V6.9965H13.5251ZM16.0975 6.99538L15.8424 6.99648L15.8424 6.99868L16.0975 6.99538ZM16.0976 7.00249L16.3527 7.00289L16.3527 6.99919L16.0976 7.00249ZM13.525 7.00349L13.2699 6.99912L13.2699 7.00407L13.525 7.00349ZM12.609 7.4846L12.8582 7.42986L12.8142 7.2295H12.609V7.4846ZM17.0136 7.4846V7.2295H16.8084L16.7644 7.42986L17.0136 7.4846ZM17.0133 6.51628L16.7642 6.57114L16.8083 6.77138H17.0133V6.51628ZM12.6092 6.51628V6.77138H12.8143L12.8584 6.57111L12.6092 6.51628ZM11.2197 12.4986C11.2197 12.4982 11.2197 12.498 11.2197 12.499C11.2197 12.4997 11.2197 12.5017 11.2197 12.5038H11.7299C11.7299 12.5043 11.7299 12.5046 11.7299 12.5035C11.7299 12.5028 11.7299 12.5008 11.7299 12.4986H11.2197ZM11.2197 12.5031C11.218 13.0696 10.7551 13.531 10.1886 13.531V14.0412C11.0363 14.0412 11.7274 13.3523 11.7299 12.5046L11.2197 12.5031ZM10.1886 13.531C9.62301 13.531 9.15999 13.0702 9.15753 12.5039L8.64733 12.5061C8.651 13.3532 9.34198 14.0412 10.1886 14.0412V13.531ZM9.15751 12.5017L9.15742 12.4946L8.64726 12.5012L8.64735 12.5083L9.15751 12.5017ZM9.15744 12.4983C9.15829 11.9306 9.62075 11.4688 10.1886 11.4688V10.9586C9.33926 10.9586 8.64851 11.6484 8.64724 12.4975L9.15744 12.4983ZM10.1886 11.4688C10.7562 11.4688 11.2185 11.9302 11.2198 12.4975L11.73 12.4963C11.728 11.6478 11.0376 10.9586 10.1886 10.9586V11.4688ZM11.2198 12.4924L11.2198 12.4941L11.7299 12.5032L11.7299 12.5015L11.2198 12.4924ZM19.7624 11.7607H12.3909V12.2709H19.7624V11.7607ZM12.64 11.961C12.3927 10.8355 11.3882 9.99023 10.1886 9.99023V10.5004C11.1431 10.5004 11.9447 11.1735 12.1417 12.0705L12.64 11.961ZM10.1886 9.99023C8.98906 9.99023 7.98447 10.8355 7.73718 11.961L8.2355 12.0705C8.43256 11.1735 9.23414 10.5004 10.1886 10.5004V9.99023ZM7.98634 11.7607H5.23756V12.2709H7.98634V11.7607ZM5.23756 11.7607C4.82929 11.7607 4.49829 12.0917 4.49829 12.4999H5.0085C5.0085 12.3734 5.11107 12.2709 5.23756 12.2709V11.7607ZM4.49829 12.4999C4.49829 12.9082 4.8293 13.2392 5.23756 13.2392V12.729C5.11106 12.729 5.0085 12.6264 5.0085 12.4999H4.49829ZM5.23756 13.2392H7.98659V12.729H5.23756V13.2392ZM7.73746 13.039C7.98522 14.1638 8.99091 15.0096 10.1886 15.0096V14.4994C9.23608 14.4994 8.4332 13.8258 8.23572 12.9292L7.73746 13.039ZM10.1886 15.0096C11.3869 15.0096 12.3922 14.1639 12.6398 13.0389L12.1416 12.9292C11.9442 13.8259 11.1417 14.4994 10.1886 14.4994V15.0096ZM12.3907 13.2392H19.7624V12.729H12.3907V13.2392ZM19.7624 13.2392C20.1706 13.2392 20.5016 12.9082 20.5016 12.4999H19.9914C19.9914 12.6264 19.8888 12.729 19.7624 12.729V13.2392ZM20.5016 12.4999C20.5016 12.0917 20.1706 11.7607 19.7624 11.7607V12.2709C19.8888 12.2709 19.9914 12.3734 19.9914 12.4999H20.5016ZM19.7624 12.2709H19.7624V11.7607H19.7624V12.2709ZM14.8113 19.0306C14.2437 19.0306 13.7814 18.569 13.7801 18.0018L13.2699 18.003C13.2719 18.8515 13.9624 19.5408 14.8113 19.5408V19.0306ZM13.7801 18.0068L13.7801 18.0051L13.27 17.9962L13.27 17.9979L13.7801 18.0068ZM13.7802 18.0006C13.7802 18.0011 13.7802 18.0013 13.7802 18.0003C13.7802 17.9996 13.7802 17.9976 13.7802 17.9954H13.27C13.27 17.995 13.27 17.9947 13.27 17.9958C13.27 17.9965 13.27 17.9984 13.27 18.0006H13.7802ZM13.7802 17.9962C13.7819 17.4297 14.2448 16.9682 14.8113 16.9682V16.458C13.9636 16.458 13.2726 17.147 13.27 17.9947L13.7802 17.9962ZM14.8113 16.9682C15.3769 16.9682 15.8399 17.429 15.8424 17.9953L16.3526 17.9931C16.3489 17.146 15.6579 16.458 14.8113 16.458V16.9682ZM15.8424 17.9975L15.8425 18.0047L16.3527 17.9981L16.3526 17.9909L15.8424 17.9975ZM15.8425 18.001C15.8416 18.5686 15.3792 19.0306 14.8113 19.0306V19.5408C15.6607 19.5408 16.3514 18.8509 16.3527 18.0017L15.8425 18.001ZM19.7624 17.2601H17.0133V17.7703H19.7624V17.2601ZM17.2625 17.4603C17.0147 16.3355 16.009 15.4897 14.8113 15.4897V15.9999C15.7638 15.9999 16.5667 16.6735 16.7642 17.5701L17.2625 17.4603ZM14.8113 15.4897C13.6131 15.4897 12.6077 16.3353 12.3601 17.4604L12.8584 17.57C13.0557 16.6734 13.8582 15.9999 14.8113 15.9999V15.4897ZM12.6092 17.2601H5.23757V17.7703H12.6092V17.2601ZM5.23757 17.2601C4.82931 17.2601 4.4983 17.5911 4.4983 17.9994H5.00851C5.00851 17.8729 5.11107 17.7703 5.23757 17.7703V17.2601ZM4.4983 17.9994C4.4983 18.4077 4.82931 18.7386 5.23757 18.7386V18.2284C5.11107 18.2284 5.00851 18.1259 5.00851 17.9994H4.4983ZM5.23757 18.7386H12.609V18.2284H5.23757V18.7386ZM12.3599 18.5383C12.6072 19.6638 13.6117 20.5091 14.8113 20.5091V19.9989C13.8568 19.9989 13.0553 19.3257 12.8582 18.4288L12.3599 18.5383ZM14.8113 20.5091C16.0109 20.5091 17.0155 19.6638 17.2627 18.5383L16.7644 18.4288C16.5674 19.3257 15.7658 19.9989 14.8113 19.9989V20.5091ZM17.0136 18.7386H19.7624V18.2284H17.0136V18.7386ZM19.7624 18.7386C20.1706 18.7386 20.5016 18.4077 20.5016 17.9994H19.9914C19.9914 18.1259 19.8889 18.2284 19.7624 18.2284V18.7386ZM20.5016 17.9994C20.5016 17.5911 20.1706 17.2601 19.7624 17.2601V17.7703C19.8888 17.7703 19.9914 17.8729 19.9914 17.9994H20.5016ZM13.7802 7.0017C13.7802 7.00215 13.7802 7.00241 13.7802 7.00135C13.7802 7.00067 13.7802 6.99867 13.7802 6.9965H13.27C13.27 6.99605 13.27 6.99579 13.27 6.99686C13.27 6.99753 13.27 6.99953 13.27 7.0017H13.7802ZM13.7802 6.99727C13.7819 6.43078 14.2448 5.96931 14.8113 5.96931V5.4591C13.9636 5.4591 13.2726 6.14805 13.27 6.99573L13.7802 6.99727ZM14.8113 5.96931C15.3769 5.96931 15.8399 6.43013 15.8424 6.99648L16.3526 6.99427C16.3489 6.14713 15.6579 5.4591 14.8113 5.4591V5.96931ZM15.8424 6.99868L15.8425 7.00579L16.3527 6.99919L16.3526 6.99208L15.8424 6.99868ZM15.8425 7.00209C15.8416 7.5697 15.3791 8.03165 14.8113 8.03165V8.54186C15.6607 8.54186 16.3513 7.85188 16.3527 7.00289L15.8425 7.00209ZM14.8113 8.03165C14.2437 8.03165 13.7814 7.57015 13.7801 7.00291L13.2699 7.00407C13.2719 7.85257 13.9624 8.54186 14.8113 8.54186V8.03165ZM13.7801 7.00786L13.7801 7.00608L13.27 6.99733L13.27 6.99912L13.7801 7.00786ZM5.23757 7.7397H12.609V7.2295H5.23757V7.7397ZM12.3599 7.53934C12.6072 8.6649 13.6117 9.51015 14.8113 9.51015V8.99995C13.8568 8.99995 13.0553 8.32682 12.8582 7.42986L12.3599 7.53934ZM14.8113 9.51015C16.0109 9.51015 17.0155 8.66493 17.2627 7.53934L16.7644 7.42986C16.5674 8.32684 15.7658 8.99995 14.8113 8.99995V9.51015ZM17.0136 7.7397H19.7624V7.2295H17.0136V7.7397ZM19.7624 7.7397C20.1706 7.7397 20.5016 7.4087 20.5016 7.00044H19.9914C19.9914 7.12693 19.8888 7.2295 19.7624 7.2295V7.7397ZM20.5016 7.00044C20.5016 6.59218 20.1706 6.26117 19.7624 6.26117V6.77138C19.8888 6.77138 19.9914 6.87395 19.9914 7.00044H20.5016ZM19.7624 6.26117H17.0133V6.77138H19.7624V6.26117ZM17.2625 6.46141C17.0147 5.3365 16.009 4.49076 14.8113 4.49076V5.00096C15.7639 5.00096 16.5667 5.67456 16.7642 6.57114L17.2625 6.46141ZM14.8113 4.49076C13.6131 4.49076 12.6077 5.33638 12.3601 6.46144L12.8584 6.57111C13.0557 5.67443 13.8582 5.00096 14.8113 5.00096V4.49076ZM12.6092 6.26117H5.23757V6.77138H12.6092V6.26117ZM5.23757 6.26117C4.8293 6.26117 4.4983 6.59217 4.4983 7.00044H5.00851C5.00851 6.87395 5.11108 6.77138 5.23757 6.77138V6.26117ZM4.4983 7.00044C4.4983 7.40871 4.8293 7.7397 5.23757 7.7397V7.2295C5.11108 7.2295 5.00851 7.12693 5.00851 7.00044H4.4983Z" fill="black"/>
</svg>
