<svg width="21" height="18" viewBox="0 0 21 18" fill="none" xmlns="http://www.w3.org/2000/svg">
<path opacity="0.01" fill-rule="evenodd" clip-rule="evenodd" d="M0 18V0H20.5234V18H0Z" fill="#FCAF17"/>
<path fill-rule="evenodd" clip-rule="evenodd" d="M3.56895 9.31817C3.47601 9.23666 3.41843 9.12414 3.41896 8.99982C3.41896 8.75116 3.64878 8.5496 3.9323 8.5496H16.5911C16.8747 8.5496 17.1045 8.75116 17.1045 8.99982C17.1045 9.24847 16.8747 9.45004 16.5911 9.45012L3.93239 9.45012C3.79055 9.44973 3.66181 9.39961 3.56896 9.31818L3.56895 9.31817Z" fill="black"/>
<path d="M3.56895 9.31817L3.381 9.48302L3.56895 9.31817ZM3.41896 8.99982L3.68477 9.0007L3.68477 8.99982L3.41896 8.99982ZM3.9323 8.5496L3.9323 8.78272L3.9323 8.5496ZM16.5911 8.5496L16.5911 8.31647L16.5911 8.5496ZM17.1045 8.99982L17.3703 8.99983L17.3703 8.99982L17.1045 8.99982ZM16.5911 9.45012L16.5911 9.68324L16.5911 9.68325L16.5911 9.45012ZM3.93239 9.45012L3.93156 9.68324L3.93239 9.68324L3.93239 9.45012ZM3.56896 9.31818L3.75691 9.15334L3.56896 9.31818ZM3.75691 9.15333C3.7116 9.1136 3.68451 9.05991 3.68477 9.0007L3.15316 8.99894C3.15235 9.18838 3.24042 9.35972 3.381 9.48302L3.75691 9.15333ZM3.68477 8.99982C3.68477 8.87991 3.79558 8.78272 3.9323 8.78272L3.9323 8.31647C3.50198 8.31647 3.15316 8.62241 3.15316 8.99982L3.68477 8.99982ZM3.9323 8.78272H16.5911L16.5911 8.31647H3.9323L3.9323 8.78272ZM16.5911 8.78272C16.7279 8.78272 16.8387 8.87991 16.8387 8.99982L17.3703 8.99982C17.3703 8.62241 17.0215 8.31647 16.5911 8.31647L16.5911 8.78272ZM16.8387 8.99981C16.8387 9.11968 16.7279 9.21695 16.591 9.217L16.5911 9.68325C17.0214 9.68312 17.3703 9.37727 17.3703 8.99983L16.8387 8.99981ZM16.5911 9.217L3.93239 9.217L3.93239 9.68324H16.5911L16.5911 9.217ZM3.93322 9.217C3.86344 9.21681 3.80144 9.19239 3.75691 9.15334L3.38101 9.48303C3.52217 9.60683 3.71765 9.68266 3.93156 9.68324L3.93322 9.217ZM3.75691 9.15334L3.75691 9.15333L3.381 9.48302L3.38101 9.48303L3.75691 9.15334Z" fill="black"/>
<path fill-rule="evenodd" clip-rule="evenodd" d="M9.89882 14.8698C9.80588 14.7883 9.74838 14.6758 9.74883 14.5514L9.74829 3.44869C9.74838 3.19995 9.9782 2.99839 10.2617 2.99839C10.5452 2.99839 10.7751 3.19995 10.7751 3.44869L10.7751 14.551C10.7751 14.7997 10.5452 15.0012 10.2617 15.0013C10.1199 15.0009 9.99123 14.9508 9.89882 14.8698L9.89882 14.8698Z" fill="black"/>
<path d="M9.89882 14.8698L9.71086 15.0346L9.89882 14.8698ZM9.74883 14.5514L10.0146 14.5522V14.5514L9.74883 14.5514ZM9.74829 3.44869L9.48249 3.44861L9.48249 3.4487L9.74829 3.44869ZM10.7751 3.44869L11.041 3.44869L11.041 3.44861L10.7751 3.44869ZM10.7751 14.551L10.5092 14.551V14.551L10.7751 14.551ZM10.2617 15.0013L10.2609 15.2344L10.2617 15.2344L10.2617 15.0013ZM9.89882 14.8698L10.0868 14.7049L9.89882 14.8698ZM10.0868 14.7049C10.0415 14.6653 10.0144 14.6116 10.0146 14.5522L9.48302 14.5507C9.48235 14.74 9.57022 14.9113 9.71086 15.0346L10.0868 14.7049ZM10.0146 14.5514L10.0141 3.44868L9.48249 3.4487L9.48302 14.5514L10.0146 14.5514ZM10.0141 3.44876C10.0141 3.32867 10.125 3.23151 10.2617 3.23151V2.76526C9.83135 2.76526 9.48262 3.07122 9.48249 3.44861L10.0141 3.44876ZM10.2617 3.23151C10.3984 3.23151 10.5093 3.32867 10.5093 3.44876L11.041 3.44861C11.0408 3.07122 10.6921 2.76526 10.2617 2.76526V3.23151ZM10.5093 3.44868L10.5092 14.551L11.0409 14.551L11.041 3.44869L10.5093 3.44868ZM10.5092 14.551C10.5092 14.6709 10.3984 14.7681 10.2617 14.7681L10.2617 15.2344C10.692 15.2344 11.0409 14.9284 11.0409 14.551L10.5092 14.551ZM10.2625 14.7681C10.1925 14.7679 10.1307 14.7435 10.0868 14.7049L9.71087 15.0346C9.85176 15.1582 10.0472 15.2338 10.2609 15.2344L10.2625 14.7681ZM10.0868 14.7049L10.0868 14.7049L9.71086 15.0346L9.71087 15.0346L10.0868 14.7049Z" fill="black"/>
</svg>
