<svg width="64" height="32" viewBox="0 0 64 32" fill="none" xmlns="http://www.w3.org/2000/svg">
<path fill-rule="evenodd" clip-rule="evenodd" d="M6 32C2.68629 32 0 29.3137 0 26V6C0 2.68629 2.68629 0 6 0H58C61.3137 0 64 2.68629 64 6V26C64 29.3137 61.3137 32 58 32H6Z" fill="white"/>
<path d="M4 31.5C2.067 31.5 0.5 29.933 0.5 28V4C0.5 2.067 2.067 0.5 4 0.5H28C29.933 0.5 31.5 2.067 31.5 4V28C31.5 29.933 29.933 31.5 28 31.5H4Z" stroke="#FCAF17"/>
<g opacity="0.2">
<path opacity="0.01" d="M36.1 27.9V4.1H59.9V27.9H36.1Z" fill="black" stroke="black" stroke-width="0.2"/>
<path fill-rule="evenodd" clip-rule="evenodd" d="M55.7529 15.455H44.5605C44.205 15.455 43.9168 15.7446 43.9168 16.1019C43.9168 16.4593 44.205 16.7489 44.5605 16.7489H55.7529C56.1085 16.7489 56.3967 16.4593 56.3967 16.1019C56.3967 15.7446 56.1085 15.455 55.7529 15.455Z" fill="black" stroke="black" stroke-width="0.2"/>
<path fill-rule="evenodd" clip-rule="evenodd" d="M55.7529 10.6328H44.5605C44.205 10.6328 43.9168 10.9202 43.9168 11.2747C43.9168 11.6293 44.205 11.9167 44.5605 11.9167H55.7529C56.1085 11.9167 56.3967 11.6293 56.3967 11.2747C56.3967 10.9202 56.1085 10.6328 55.7529 10.6328Z" fill="black" stroke="black" stroke-width="0.2"/>
<path fill-rule="evenodd" clip-rule="evenodd" d="M55.7529 20.2872H44.5605C44.205 20.2872 43.9168 20.5746 43.9168 20.9291C43.9168 21.2837 44.205 21.5711 44.5605 21.5711H55.7529C56.1085 21.5711 56.3967 21.2837 56.3967 20.9291C56.3967 20.5746 56.1085 20.2872 55.7529 20.2872Z" fill="black" stroke="black" stroke-width="0.2"/>
<path fill-rule="evenodd" clip-rule="evenodd" d="M39.6076 11.3515C39.6076 10.8422 40.0205 10.4294 40.5297 10.4294C41.039 10.4294 41.4518 10.8422 41.4518 11.3515C41.4518 11.8607 41.039 12.2735 40.5297 12.2735C40.0205 12.2735 39.6076 11.8607 39.6076 11.3515Z" fill="black" stroke="black" stroke-width="0.2"/>
<path fill-rule="evenodd" clip-rule="evenodd" d="M39.6076 15.9534C39.6076 15.4442 40.0205 15.0313 40.5297 15.0313C41.039 15.0313 41.4518 15.4442 41.4518 15.9534C41.4518 16.4627 41.039 16.8755 40.5297 16.8755C40.0205 16.8755 39.6076 16.4627 39.6076 15.9534Z" fill="black" stroke="black" stroke-width="0.2"/>
<path fill-rule="evenodd" clip-rule="evenodd" d="M39.6076 20.5615C39.6076 20.0523 40.0205 19.6395 40.5297 19.6395C41.039 19.6395 41.4518 20.0523 41.4518 20.5615C41.4518 21.0708 41.039 21.4836 40.5297 21.4836C40.0205 21.4836 39.6076 21.0708 39.6076 20.5615Z" fill="black" stroke="black" stroke-width="0.2"/>
</g>
<path opacity="0.01" fill-rule="evenodd" clip-rule="evenodd" d="M4 28V4H28V28H4Z" fill="black" stroke="black" stroke-width="0.2"/>
<path fill-rule="evenodd" clip-rule="evenodd" d="M14.1892 8.75694H9.20963C8.97747 8.75694 8.75694 8.94544 8.75694 9.20963V14.1892C8.75694 14.4214 8.93926 14.6419 9.20963 14.6419H14.1892C14.4214 14.6419 14.6419 14.4596 14.6419 14.1892V9.20963C14.6419 8.97747 14.4639 8.75694 14.1892 8.75694ZM22.7904 8.75694H17.8108C17.5786 8.75694 17.3581 8.94544 17.3581 9.20963V14.1892C17.3581 14.4214 17.5404 14.6419 17.8108 14.6419H22.7904C23.0225 14.6419 23.2431 14.4596 23.2431 14.1892V9.20963C23.2431 8.97747 23.065 8.75694 22.7904 8.75694ZM14.1892 7.85156C14.9125 7.85156 15.545 8.44036 15.5473 9.20963V14.1892C15.5473 14.9125 14.9658 15.5473 14.1892 15.5473H9.20963C8.48637 15.5473 7.85386 14.9581 7.85156 14.1892V9.20963C7.85156 8.48637 8.43472 7.85156 9.20963 7.85156H14.1892ZM22.7904 7.85156C23.5136 7.85156 24.1461 8.44036 24.1484 9.20963V14.1892C24.1484 14.9125 23.567 15.5473 22.7904 15.5473H17.8108C17.0875 15.5473 16.455 14.9581 16.4527 14.1892V9.20963C16.4527 8.48637 17.0359 7.85156 17.8108 7.85156H22.7904ZM14.1892 17.3581H9.20963C8.97747 17.3581 8.75694 17.5466 8.75694 17.8108V22.7904C8.75694 23.0225 8.93926 23.2431 9.20963 23.2431H14.1892C14.4214 23.2431 14.6419 23.0607 14.6419 22.7904V17.8108C14.6419 17.5786 14.4639 17.3581 14.1892 17.3581ZM22.7904 17.3581H17.8108C17.5786 17.3581 17.3581 17.5466 17.3581 17.8108V22.7904C17.3581 23.0225 17.5404 23.2431 17.8108 23.2431H22.7904C23.0225 23.2431 23.2431 23.0607 23.2431 22.7904V17.8108C23.2431 17.5786 23.065 17.3581 22.7904 17.3581ZM14.1892 16.4527C14.9125 16.4527 15.545 17.0415 15.5473 17.8108V22.7904C15.5473 23.5136 14.9658 24.1484 14.1892 24.1484H9.20963C8.48637 24.1484 7.85386 23.5592 7.85156 22.7904V17.8108C7.85156 17.0875 8.43472 16.4527 9.20963 16.4527H14.1892ZM22.7904 16.4527C23.5136 16.4527 24.1461 17.0415 24.1484 17.8108V22.7904C24.1484 23.5136 23.567 24.1484 22.7904 24.1484H17.8108C17.0875 24.1484 16.455 23.5592 16.4527 22.7904V17.8108C16.4527 17.0875 17.0359 16.4527 17.8108 16.4527H22.7904Z" fill="black"/>
<path d="M15.5473 9.20963H15.6473L15.6473 9.20933L15.5473 9.20963ZM7.85156 14.1892H7.75156L7.75156 14.1895L7.85156 14.1892ZM24.1484 9.20963H24.2484V9.20933L24.1484 9.20963ZM16.4527 14.1892H16.3527L16.3527 14.1895L16.4527 14.1892ZM15.5473 17.8108H15.6473L15.6473 17.8105L15.5473 17.8108ZM7.85156 22.7904H7.75156L7.75156 22.7907L7.85156 22.7904ZM24.1484 17.8108H24.2484V17.8105L24.1484 17.8108ZM16.4527 22.7904H16.3527L16.3527 22.7907L16.4527 22.7904ZM14.1892 8.65694H9.20963V8.85694H14.1892V8.65694ZM9.20963 8.65694C8.92689 8.65694 8.65694 8.88568 8.65694 9.20963H8.85694C8.85694 9.00521 9.02805 8.85694 9.20963 8.85694V8.65694ZM8.65694 9.20963V14.1892H8.85694V9.20963H8.65694ZM8.65694 14.1892C8.65694 14.471 8.87861 14.7419 9.20963 14.7419V14.5419C8.99992 14.5419 8.85694 14.3717 8.85694 14.1892H8.65694ZM9.20963 14.7419H14.1892V14.5419H9.20963V14.7419ZM14.1892 14.7419C14.471 14.7419 14.7419 14.5203 14.7419 14.1892H14.5419C14.5419 14.3989 14.3717 14.5419 14.1892 14.5419V14.7419ZM14.7419 14.1892V9.20963H14.5419V14.1892H14.7419ZM14.7419 9.20963C14.7419 8.92849 14.5252 8.65694 14.1892 8.65694V8.85694C14.4026 8.85694 14.5419 9.02646 14.5419 9.20963H14.7419ZM22.7904 8.65694H17.8108V8.85694H22.7904V8.65694ZM17.8108 8.65694C17.528 8.65694 17.2581 8.88568 17.2581 9.20963H17.4581C17.4581 9.00521 17.6292 8.85694 17.8108 8.85694V8.65694ZM17.2581 9.20963V14.1892H17.4581V9.20963H17.2581ZM17.2581 14.1892C17.2581 14.471 17.4797 14.7419 17.8108 14.7419V14.5419C17.601 14.5419 17.4581 14.3717 17.4581 14.1892H17.2581ZM17.8108 14.7419H22.7904V14.5419H17.8108V14.7419ZM22.7904 14.7419C23.0722 14.7419 23.3431 14.5203 23.3431 14.1892H23.1431C23.1431 14.3989 22.9729 14.5419 22.7904 14.5419V14.7419ZM23.3431 14.1892V9.20963H23.1431V14.1892H23.3431ZM23.3431 9.20963C23.3431 8.92849 23.1263 8.65694 22.7904 8.65694V8.85694C23.0038 8.85694 23.1431 9.02646 23.1431 9.20963H23.3431ZM14.1892 7.95156C14.8592 7.95156 15.4452 8.49757 15.4473 9.20993L15.6473 9.20933C15.6448 8.38315 14.9658 7.75156 14.1892 7.75156V7.95156ZM15.4473 9.20963V14.1892H15.6473V9.20963H15.4473ZM15.4473 14.1892C15.4473 14.8598 14.9081 15.4473 14.1892 15.4473V15.6473C15.0236 15.6473 15.6473 14.9651 15.6473 14.1892H15.4473ZM14.1892 15.4473H9.20963V15.6473H14.1892V15.4473ZM9.20963 15.4473C8.53969 15.4473 7.95369 14.9009 7.95156 14.1889L7.75156 14.1895C7.75403 15.0153 8.43306 15.6473 9.20963 15.6473V15.4473ZM7.95156 14.1892V9.20963H7.75156V14.1892H7.95156ZM7.95156 9.20963C7.95156 8.53911 8.49241 7.95156 9.20963 7.95156V7.75156C8.37703 7.75156 7.75156 8.43364 7.75156 9.20963H7.95156ZM9.20963 7.95156H14.1892V7.75156H9.20963V7.95156ZM22.7904 7.95156C23.4603 7.95156 24.0463 8.49757 24.0484 9.20993L24.2484 9.20933C24.246 8.38315 23.5669 7.75156 22.7904 7.75156V7.95156ZM24.0484 9.20963V14.1892H24.2484V9.20963H24.0484ZM24.0484 14.1892C24.0484 14.8598 23.5092 15.4473 22.7904 15.4473V15.6473C23.6247 15.6473 24.2484 14.9651 24.2484 14.1892H24.0484ZM22.7904 15.4473H17.8108V15.6473H22.7904V15.4473ZM17.8108 15.4473C17.1408 15.4473 16.5548 14.9009 16.5527 14.1889L16.3527 14.1895C16.3552 15.0153 17.0342 15.6473 17.8108 15.6473V15.4473ZM16.5527 14.1892V9.20963H16.3527V14.1892H16.5527ZM16.5527 9.20963C16.5527 8.53911 17.0935 7.95156 17.8108 7.95156V7.75156C16.9782 7.75156 16.3527 8.43364 16.3527 9.20963H16.5527ZM17.8108 7.95156H22.7904V7.75156H17.8108V7.95156ZM14.1892 17.2581H9.20963V17.4581H14.1892V17.2581ZM9.20963 17.2581C8.92689 17.2581 8.65694 17.4868 8.65694 17.8108H8.85694C8.85694 17.6063 9.02805 17.4581 9.20963 17.4581V17.2581ZM8.65694 17.8108V22.7904H8.85694V17.8108H8.65694ZM8.65694 22.7904C8.65694 23.0722 8.87861 23.3431 9.20963 23.3431V23.1431C8.99992 23.1431 8.85694 22.9729 8.85694 22.7904H8.65694ZM9.20963 23.3431H14.1892V23.1431H9.20963V23.3431ZM14.1892 23.3431C14.471 23.3431 14.7419 23.1214 14.7419 22.7904H14.5419C14.5419 23.0001 14.3717 23.1431 14.1892 23.1431V23.3431ZM14.7419 22.7904V17.8108H14.5419V22.7904H14.7419ZM14.7419 17.8108C14.7419 17.5296 14.5252 17.2581 14.1892 17.2581V17.4581C14.4026 17.4581 14.5419 17.6276 14.5419 17.8108H14.7419ZM22.7904 17.2581H17.8108V17.4581H22.7904V17.2581ZM17.8108 17.2581C17.528 17.2581 17.2581 17.4868 17.2581 17.8108H17.4581C17.4581 17.6063 17.6292 17.4581 17.8108 17.4581V17.2581ZM17.2581 17.8108V22.7904H17.4581V17.8108H17.2581ZM17.2581 22.7904C17.2581 23.0722 17.4797 23.3431 17.8108 23.3431V23.1431C17.601 23.1431 17.4581 22.9729 17.4581 22.7904H17.2581ZM17.8108 23.3431H22.7904V23.1431H17.8108V23.3431ZM22.7904 23.3431C23.0722 23.3431 23.3431 23.1214 23.3431 22.7904H23.1431C23.1431 23.0001 22.9729 23.1431 22.7904 23.1431V23.3431ZM23.3431 22.7904V17.8108H23.1431V22.7904H23.3431ZM23.3431 17.8108C23.3431 17.5296 23.1263 17.2581 22.7904 17.2581V17.4581C23.0038 17.4581 23.1431 17.6276 23.1431 17.8108H23.3431ZM14.1892 16.5527C14.8592 16.5527 15.4452 17.0987 15.4473 17.8111L15.6473 17.8105C15.6448 16.9843 14.9658 16.3527 14.1892 16.3527V16.5527ZM15.4473 17.8108V22.7904H15.6473V17.8108H15.4473ZM15.4473 22.7904C15.4473 23.461 14.9081 24.0484 14.1892 24.0484V24.2484C15.0236 24.2484 15.6473 23.5663 15.6473 22.7904H15.4473ZM14.1892 24.0484H9.20963V24.2484H14.1892V24.0484ZM9.20963 24.0484C8.53969 24.0484 7.95369 23.502 7.95156 22.7901L7.75156 22.7907C7.75403 23.6164 8.43306 24.2484 9.20963 24.2484V24.0484ZM7.95156 22.7904V17.8108H7.75156V22.7904H7.95156ZM7.95156 17.8108C7.95156 17.1402 8.49241 16.5527 9.20963 16.5527V16.3527C8.37703 16.3527 7.75156 17.0348 7.75156 17.8108H7.95156ZM9.20963 16.5527H14.1892V16.3527H9.20963V16.5527ZM22.7904 16.5527C23.4603 16.5527 24.0463 17.0987 24.0484 17.8111L24.2484 17.8105C24.246 16.9843 23.5669 16.3527 22.7904 16.3527V16.5527ZM24.0484 17.8108V22.7904H24.2484V17.8108H24.0484ZM24.0484 22.7904C24.0484 23.461 23.5092 24.0484 22.7904 24.0484V24.2484C23.6247 24.2484 24.2484 23.5663 24.2484 22.7904H24.0484ZM22.7904 24.0484H17.8108V24.2484H22.7904V24.0484ZM17.8108 24.0484C17.1408 24.0484 16.5548 23.502 16.5527 22.7901L16.3527 22.7907C16.3552 23.6164 17.0342 24.2484 17.8108 24.2484V24.0484ZM16.5527 22.7904V17.8108H16.3527V22.7904H16.5527ZM16.5527 17.8108C16.5527 17.1402 17.0935 16.5527 17.8108 16.5527V16.3527C16.9782 16.3527 16.3527 17.0348 16.3527 17.8108H16.5527ZM17.8108 16.5527H22.7904V16.3527H17.8108V16.5527Z" fill="black"/>
</svg>
