<svg width="21" height="21" viewBox="0 0 21 21" fill="none" xmlns="http://www.w3.org/2000/svg">
<path fill-rule="evenodd" clip-rule="evenodd" d="M2.13066 18.7724V18.8693H2.2276H19.8061C20.0551 18.8693 20.2932 18.9678 20.4692 19.1438C20.6445 19.3191 20.7438 19.558 20.7438 19.8062C20.7438 20.0551 20.6445 20.2932 20.4692 20.4693C20.2932 20.6445 20.0551 20.7438 19.8061 20.7438H1.193C0.944836 20.7438 0.706739 20.6445 0.530697 20.4693C0.354635 20.2932 0.256149 20.0551 0.256149 19.8062V1.193C0.256149 0.944816 0.354635 0.705939 0.530697 0.530687C0.706739 0.354655 0.944836 0.256149 1.193 0.256149C1.44197 0.256149 1.68006 0.354655 1.8561 0.530687C2.03137 0.705949 2.13065 0.944826 2.13065 1.193L2.13066 18.7724Z" fill="#717171"/>
<path d="M2.13066 18.7724H2.38681H2.13066ZM2.13066 18.8693H1.87451V19.1255H2.13066V18.8693ZM20.4692 19.1438L20.6504 18.9627L20.6503 18.9627L20.4692 19.1438ZM20.4692 20.4693L20.6499 20.6509L20.6508 20.65L20.4692 20.4693ZM0.530697 20.4693L0.349571 20.6504L0.350006 20.6509L0.530697 20.4693ZM0.530697 0.530687L0.711404 0.712229L0.711817 0.711817L0.530697 0.530687ZM1.8561 0.530687L1.67498 0.711817V0.711817L1.8561 0.530687ZM2.13065 1.193H1.8745V1.193L2.13065 1.193ZM1.87451 18.7724V18.8693H2.38681V18.7724H1.87451ZM2.13066 19.1255H2.2276V18.6132H2.13066V19.1255ZM2.2276 19.1255H19.8061V18.6132H2.2276V19.1255ZM19.8061 19.1255C19.9873 19.1255 20.1602 19.197 20.2881 19.325L20.6503 18.9627C20.4262 18.7386 20.123 18.6132 19.8061 18.6132V19.1255ZM20.2881 19.3249C20.4155 19.4523 20.4876 19.6262 20.4876 19.8062H20.9999C20.9999 19.4899 20.8735 19.1859 20.6504 18.9627L20.2881 19.3249ZM20.4876 19.8062C20.4876 19.9868 20.4156 20.1601 20.2877 20.2886L20.6508 20.65C20.8734 20.4264 20.9999 20.1235 20.9999 19.8062H20.4876ZM20.2886 20.2877C20.1601 20.4156 19.9868 20.4877 19.8061 20.4877V21C20.1235 21 20.4263 20.8734 20.6499 20.6509L20.2886 20.2877ZM19.8061 20.4877H1.193V21H19.8061V20.4877ZM1.193 20.4877C1.0133 20.4877 0.839955 20.4157 0.711388 20.2877L0.350006 20.6509C0.573522 20.8733 0.876374 21 1.193 21V20.4877ZM0.711822 20.2882C0.583867 20.1602 0.512299 19.9873 0.512299 19.8062H0C0 20.123 0.125402 20.4263 0.349572 20.6504L0.711822 20.2882ZM0.512299 19.8062V1.193H0V19.8062H0.512299ZM0.512299 1.193C0.512299 1.01244 0.583999 0.839048 0.711404 0.712229L0.34999 0.349144C0.12527 0.57283 0 0.877192 0 1.193H0.512299ZM0.711817 0.711817C0.839846 0.583794 1.0128 0.512299 1.193 0.512299V0C0.876869 0 0.573631 0.125515 0.349577 0.349556L0.711817 0.711817ZM1.193 0.512299C1.37412 0.512299 1.54703 0.583875 1.67498 0.711817L2.03722 0.349556C1.81308 0.125434 1.50982 0 1.193 0V0.512299ZM1.67498 0.711817C1.80234 0.839171 1.8745 1.01295 1.8745 1.193H2.3868C2.3868 0.876706 2.2604 0.572727 2.03722 0.349556L1.67498 0.711817ZM1.8745 1.193L1.87451 18.7724H2.38681L2.3868 1.193L1.8745 1.193Z" fill="white"/>
<path fill-rule="evenodd" clip-rule="evenodd" d="M7.30416 15.1001H7.30337V15.1102C7.30337 15.4956 7.15059 15.8655 6.87759 16.1377C6.60537 16.4108 6.23544 16.5643 5.84921 16.5643C5.46377 16.5643 5.09383 16.4108 4.82162 16.1377C4.54863 15.8655 4.39505 15.4955 4.39505 15.1102C4.39505 14.7239 4.54862 14.354 4.82162 14.0817C5.09382 13.8088 5.46377 13.656 5.84921 13.656H5.88954L5.91824 13.6273L9.02043 10.5251L9.04834 10.4964V10.4569C9.04834 10.0706 9.20191 9.70067 9.47491 9.42845C9.74713 9.1555 10.1171 9.0027 10.5025 9.0027C10.8887 9.0027 11.2587 9.1555 11.5309 9.42845C11.8039 9.70067 11.9567 10.0706 11.9567 10.4569V10.4964L11.9846 10.5243L13.7738 12.3446L13.8025 12.3733H13.8428H14.008H14.0483L14.077 12.3454L17.8098 8.61183L17.8423 8.58004L17.8377 8.53427C17.833 8.48851 17.833 8.44355 17.8377 8.39776H17.8385V8.38845C17.8385 8.10072 17.9237 7.81998 18.0835 7.58035C18.2433 7.34147 18.4705 7.15534 18.7358 7.04522C19.0018 6.9351 19.2942 6.90639 19.5757 6.96223C19.858 7.01806 20.117 7.15689 20.3202 7.36007C20.5242 7.56326 20.6622 7.82229 20.7188 8.10461C20.7747 8.3869 20.746 8.6793 20.6359 8.94453C20.5257 9.21054 20.3396 9.43777 20.0999 9.59752C19.8611 9.75727 19.5803 9.84267 19.2926 9.84267H19.2523L19.2236 9.87135L15.4599 13.6661L15.4312 13.6948V13.7343V13.8173C15.4312 14.2027 15.2784 14.5727 15.0054 14.8457C14.7332 15.1179 14.3632 15.2715 13.977 15.2715C13.5915 15.2715 13.2216 15.1179 12.9494 14.8457C12.6764 14.5727 12.5228 14.2027 12.5228 13.8173V13.8165V13.8158V13.815V13.8142V13.8135V13.8127V13.8119V13.8111V13.8103V13.8096V13.8088V13.8081V13.8073V13.8065V13.8057V13.8049V13.8042V13.8034V13.8026V13.8019V13.8011V13.8003V13.7996V13.7988V13.798V13.7972V13.7964V13.7957V13.7949V13.7942V13.7934V13.7926V13.7918V13.791V13.7903V13.7895V13.7887V13.7879V13.7872V13.7864V13.7857V13.7849V13.7841V13.7833V13.7825V13.7818V13.781V13.7802V13.7794V13.7786V13.7779V13.7772V13.7764V13.7756V13.7748V13.774V13.7733V13.7725V13.7717V13.7709V13.7701V13.7694V13.7686V13.7679V13.7671V13.7663V13.7655V13.7647V13.764V13.7633V13.7625V13.7617V13.7609V13.7601V13.7594V13.7586V13.7578V13.7571V13.7562V13.7555V13.7547V13.754V13.7532V13.7524V13.7516V13.7508V13.7501V13.7493V13.7485V13.7478V13.747V13.7462V13.7455V13.7447V13.7439V13.7432V13.7424V13.7416V13.7408V13.74V13.7393V13.7385V13.7377V13.737V13.7362V13.7354V13.7346V13.6951L12.4949 13.6664L10.8298 12.0013L10.8011 11.9733H10.7616H10.5235H10.2854H10.2458L10.2171 12.0013L7.33211 14.8864L7.29954 14.9189L7.30419 14.9647C7.30883 15.0097 7.30883 15.0554 7.30419 15.1004L7.30416 15.1001Z" fill="#FCAF17"/>
<path fill-rule="evenodd" clip-rule="evenodd" d="M14.581 1.1732H14.0614C14.1454 1.29309 14.21 1.4267 14.2561 1.57147C14.2672 1.60551 14.2774 1.64059 14.2857 1.6766H14.581C14.6872 1.6766 14.7878 1.71706 14.8542 1.81206C14.9133 1.89601 14.9308 2.00107 14.9308 2.10342V2.16426C14.9308 2.26648 14.9133 2.37162 14.8542 2.45556C14.7878 2.55055 14.6872 2.59101 14.581 2.59101H14.2848C14.2478 2.74235 14.1906 2.88892 14.1149 3.02987C13.9654 3.31209 13.7162 3.53235 13.384 3.69548C13.0702 3.84675 12.6585 3.92143 12.1592 3.92971C12.2109 3.97678 12.2626 4.02835 12.3124 4.08463L14.2857 6.14318C14.3069 6.16541 14.3254 6.18752 14.3401 6.20865C14.354 6.22632 14.3724 6.25387 14.3844 6.28623C14.4001 6.33219 14.4029 6.38574 14.4029 6.42818C14.4029 6.56827 14.294 6.64486 14.2165 6.68174L14.2045 6.68637C14.1131 6.72134 13.9885 6.73239 13.8501 6.73239H13.7476C13.6415 6.73239 13.539 6.71855 13.443 6.69095L13.4393 6.69001C13.3406 6.65857 13.2547 6.607 13.1846 6.53232L10.7877 4.02929C10.7194 3.94628 10.6594 3.87166 10.6086 3.80526L10.604 3.79971C10.544 3.71397 10.5006 3.6173 10.5006 3.51304V3.42546C10.5006 3.31384 10.5339 3.20229 10.6271 3.12304C10.7157 3.04842 10.8301 3.02532 10.9418 3.02532H12.053C12.281 3.02532 12.4758 2.9848 12.6428 2.90827C12.8126 2.83069 12.9409 2.73038 13.0332 2.60962C13.0369 2.60314 13.0415 2.59758 13.0461 2.59103H10.8495C10.7434 2.59103 10.6428 2.55057 10.5763 2.45558C10.5173 2.37163 10.5006 2.2665 10.5006 2.16428V2.10344C10.5006 2.00108 10.5173 1.89602 10.5763 1.81208C10.6428 1.71708 10.7434 1.67662 10.8495 1.67662H13.0581C13.0138 1.59546 12.9575 1.53177 12.8911 1.48199L12.8883 1.4802C12.6964 1.33264 12.4324 1.2516 12.0807 1.2516H10.9418C10.8264 1.2516 10.7092 1.22479 10.6206 1.14092C10.5311 1.05605 10.5006 0.93992 10.5006 0.824723V0.684631C10.5006 0.569373 10.5311 0.454054 10.6206 0.369238C10.7092 0.285423 10.8264 0.258615 10.9418 0.258615H14.581C14.6872 0.258615 14.7878 0.299136 14.8542 0.393273C14.9133 0.477088 14.9308 0.583146 14.9308 0.684631V0.746272C14.9308 0.847756 14.9133 0.953754 14.8542 1.03775C14.7878 1.1317 14.6872 1.17321 14.581 1.17321L14.581 1.1732Z" fill="#717171"/>
</svg>
