<svg width="232" height="200" viewBox="0 0 232 200" fill="none" xmlns="http://www.w3.org/2000/svg">
<g clip-path="url(#clip0_118_56027)">
<path d="M218.615 25.5111C219.434 25.0998 219.767 24.1023 219.355 23.2817C218.944 22.4611 217.946 22.1305 217.126 22.5418C216.307 22.9531 215.977 23.9505 216.386 24.7712C216.797 25.5918 217.795 25.9224 218.615 25.5111Z" fill="#F59D1B"/>
<path d="M196.666 22.9298C199.466 20.958 203.265 21.5346 203.265 21.5346C203.265 21.5346 202.525 25.3072 199.725 27.279C196.925 29.2509 193.124 28.6743 193.124 28.6743C193.124 28.6743 193.863 24.9017 196.666 22.9298Z" fill="#EF781C"/>
<path d="M190.75 15.3616C191.855 11.7696 195.539 9.71509 195.539 9.71509C195.539 9.71509 197.432 13.4839 196.329 17.0759C195.224 20.6679 191.54 22.7223 191.54 22.7223C191.54 22.7223 189.647 18.9535 190.75 15.3616Z" fill="#666666"/>
<path d="M27.1176 61.4501C29.7102 64.6866 29.2989 69.3241 29.2989 69.3241C29.2989 69.3241 24.6845 68.7129 22.0919 65.4765C19.4993 62.24 19.9106 57.6025 19.9106 57.6025C19.9106 57.6025 24.525 58.2137 27.1176 61.4501Z" fill="#666666"/>
<path d="M17.9157 67.2176C22.0478 67.5827 25.1112 71.0882 25.1112 71.0882C25.1112 71.0882 21.477 73.9999 17.3469 73.6328C13.2148 73.2676 10.1514 69.7621 10.1514 69.7621C10.1514 69.7621 13.7856 66.8505 17.9157 67.2176Z" fill="#ED6D1E"/>
<path d="M187.658 199.343C187.137 200.056 186.137 200.213 185.424 199.692C184.711 199.172 184.554 198.172 185.075 197.459C185.596 196.746 186.595 196.589 187.308 197.109C188.021 197.63 188.179 198.63 187.658 199.343Z" fill="#F59D1B"/>
<path d="M230.994 120.867C231.575 120.202 231.507 119.191 230.842 118.611C230.177 118.03 229.168 118.097 228.586 118.762C228.006 119.427 228.073 120.436 228.738 121.017C229.403 121.597 230.414 121.53 230.994 120.865V120.867Z" fill="#F59D1B"/>
<path d="M2.80209 109.385C3.3825 108.72 3.31523 107.711 2.65026 107.129C1.98529 106.549 0.976307 106.616 0.393979 107.281C-0.186428 107.946 -0.119162 108.955 0.545807 109.537C1.21078 110.118 2.21976 110.05 2.80209 109.385Z" fill="#F59D1B"/>
<path d="M76.0669 52.6503C76.6473 51.9853 76.58 50.9764 75.915 50.394C75.2501 49.8117 74.2411 49.8809 73.6588 50.5459C73.0783 51.2108 73.1456 52.2198 73.8106 52.8021C74.4755 53.3825 75.4845 53.3153 76.0669 52.6503Z" fill="#F59D1B"/>
<path d="M195.355 191.707C198.211 193.929 198.805 197.945 198.805 197.945C198.805 197.945 194.765 198.364 191.909 196.145C189.053 193.923 188.459 189.906 188.459 189.906C188.459 189.906 192.499 189.487 195.355 191.707Z" fill="#666666"/>
</g>
<defs>
<clipPath id="clip0_118_56027">
<rect width="231.388" height="200" fill="white"/>
</clipPath>
</defs>
</svg>
