<svg width="20" height="20" viewBox="0 0 20 20" fill="none" xmlns="http://www.w3.org/2000/svg">
<rect x="1.14258" y="8.76746" width="3.42857" height="10.2857" fill="#FCAF17"/>
<path fill-rule="evenodd" clip-rule="evenodd" d="M18.1129 14.6868H15.2863C14.9662 14.6868 14.7067 14.4256 14.7067 14.1067C14.7067 13.7854 14.9662 13.5263 15.2863 13.5263H18.1129C18.516 13.5263 18.8418 13.1966 18.8418 12.7963C18.8418 12.3937 18.5132 12.0684 18.1129 12.0684C17.7929 12.0684 17.5334 11.8071 17.5334 11.4881C17.5334 11.167 17.7929 10.9079 18.1129 10.9079C19.1537 10.9079 20.0011 11.7559 20.0011 12.7963C20.0039 13.8391 19.1565 14.6869 18.1129 14.6869V14.6868Z" fill="#717171"/>
<path fill-rule="evenodd" clip-rule="evenodd" d="M17.7985 17.2962H14.9452C14.6251 17.2962 14.3657 17.0375 14.3657 16.7174C14.3657 16.3991 14.6251 16.1388 14.9452 16.1388H17.7985C18.2014 16.1388 18.5269 15.812 18.5269 15.4128C18.5269 15.0133 18.1986 14.6847 17.7985 14.6847C17.4784 14.6847 17.219 14.4262 17.219 14.1059C17.219 13.7858 17.4784 13.5273 17.7985 13.5273C18.8387 13.5273 19.686 14.373 19.686 15.4128C19.686 16.4505 18.8387 17.2962 17.7985 17.2962V17.2962Z" fill="#717171"/>
<path fill-rule="evenodd" clip-rule="evenodd" d="M11.4799 19.9237C10.9008 19.9237 10.2883 19.8832 9.6209 19.7996C8.90088 19.7118 8.2001 19.611 7.52991 19.3605C7.26503 19.262 6.99481 19.1248 6.70513 18.9427C6.66921 18.9214 6.63331 18.8999 6.59761 18.8742C6.4127 18.7587 6.25555 18.6558 6.08988 18.6065C6.03752 18.5893 5.93832 18.5917 5.83335 18.5957C5.79486 18.5957 5.75618 18.598 5.72027 18.598L5.12445 18.6023C5.12167 18.6023 5.12167 18.6023 5.11911 18.6023C4.80186 18.6023 4.54255 18.3451 4.53977 18.0282C4.53699 17.7069 4.79353 17.4457 5.11355 17.4435L5.70937 17.437C5.73973 17.437 5.77287 17.437 5.80323 17.4349C5.9796 17.4285 6.20042 17.4241 6.43473 17.497C6.74642 17.5954 6.99483 17.7539 7.21546 17.8954C7.24859 17.9169 7.28173 17.9382 7.31743 17.9597C7.54639 18.1031 7.7422 18.2017 7.93546 18.2746C8.48702 18.4822 9.0884 18.5679 9.76159 18.6494C10.4981 18.7414 11.1518 18.778 11.7668 18.7607H11.7916H17.1624C17.5652 18.7607 17.8906 18.4309 17.8906 18.0304C17.8906 17.6277 17.5624 17.302 17.1624 17.302C16.8424 17.302 16.5831 17.0408 16.5831 16.7214C16.5831 16.4003 16.8424 16.1411 17.1624 16.1411C18.2023 16.1411 19.0493 16.9893 19.0493 18.0304C19.0493 19.0735 18.2023 19.9215 17.1624 19.9215H11.7863C11.6841 19.9237 11.5849 19.9237 11.48 19.9237L11.4799 19.9237Z" fill="#717171"/>
<path fill-rule="evenodd" clip-rule="evenodd" d="M17.6117 12.0624H15.4628C15.1428 12.0624 14.8835 11.8039 14.8835 11.4831C14.8835 11.1648 15.1428 10.9039 15.4628 10.9039H17.6117C18.0142 10.9039 18.3398 10.5768 18.3398 10.1771C18.3398 9.773 18.0116 9.4482 17.6117 9.4482H12.0811C11.7611 9.4482 11.5018 9.18949 11.5018 8.86878C11.5018 8.3622 11.6065 7.87921 11.8163 7.43234C11.9073 7.23563 12.0038 7.04554 12.0976 6.86158C12.2825 6.49608 12.4589 6.14998 12.5831 5.78641C12.8864 4.91 13.1293 3.6616 12.5886 2.64855C12.5803 2.63759 12.572 2.627 12.5638 2.61424C12.4065 2.40056 12.1998 2.24441 12.0038 2.18229C11.7308 2.10127 11.4466 2.18867 11.3116 2.39622C11.2425 2.50312 11.2342 2.65493 11.2453 2.91352C11.2618 3.33042 11.2453 3.70855 11.1929 4.06345C11.0826 4.80528 10.8564 5.46379 10.5197 6.0172C10.5061 6.07294 10.4841 6.12434 10.4537 6.17335C10.4317 6.20971 10.2827 6.44699 10.0289 6.78912V6.79105C10.0261 6.79551 10.0261 6.79743 10.0234 6.79743C9.24265 7.84515 7.4664 9.86511 5.20446 10.1602C4.88721 10.2009 4.59756 9.97827 4.55629 9.65986C4.51482 9.34336 4.73821 9.05504 5.05544 9.01194C6.85117 8.78128 8.35998 7.07986 9.05517 6.16035C9.05794 6.15409 9.0635 6.14771 9.06606 6.14133C9.08275 6.11569 9.10754 6.07499 9.14347 6.01962C9.21507 5.91031 9.32539 5.73527 9.47717 5.50666C9.76405 5.06833 9.95708 4.52732 10.0482 3.8989C10.0896 3.61478 10.1033 3.30913 10.0896 2.9647C10.0757 2.59716 10.0813 2.16967 10.3434 1.76782C10.7598 1.1264 11.5818 0.846261 12.3458 1.07728C12.7817 1.20982 13.19 1.51127 13.4961 1.92372C13.5265 1.96429 13.5513 2.00077 13.5761 2.03712C13.5844 2.04771 13.5899 2.06276 13.5981 2.07348C14.1994 3.17417 14.2298 4.58932 13.6836 6.16698C13.532 6.60519 13.3306 7.00282 13.1348 7.38528C13.041 7.56911 12.9527 7.7444 12.87 7.92389C12.8148 8.04162 12.7706 8.16551 12.7377 8.28974H17.617C18.6571 8.28974 19.5038 9.13618 19.5038 10.1772C19.5038 11.216 18.6543 12.0624 17.6117 12.0624L17.6117 12.0624Z" fill="#717171"/>
<path fill-rule="evenodd" clip-rule="evenodd" d="M1.15879 18.6492H4.54309V9.03182H1.15879V18.6492ZM5.12225 19.8079H0.579372C0.259361 19.8079 7.8896e-05 19.5495 7.8896e-05 19.2288V8.45279C7.8896e-05 8.1322 0.25937 7.8735 0.579372 7.8735H5.12225C5.44201 7.8735 5.70132 8.1322 5.70132 8.45279V19.2288C5.70132 19.5495 5.44201 19.8079 5.12225 19.8079Z" fill="#717171"/>
</svg>
