<svg width="27" height="21" viewBox="0 0 27 21" fill="none" xmlns="http://www.w3.org/2000/svg">
<path d="M9.64321 5.61091L7.71464 11.3966L20.0575 11.7824L16.9718 5.61091H9.64321Z" fill="#FCAF17" stroke="#FCAF17"/>
<path fill-rule="evenodd" clip-rule="evenodd" d="M14.6876 18.5592L16.7254 13.2559H19.9809H23.2373L25.2751 18.5592H14.6876ZM1.72772 18.5592L3.76548 13.2559H7.02192H10.2775L12.3152 18.5592H1.72772ZM13.5012 17.1013L12.0243 13.2559H14.979L13.5012 17.1013ZM10.2449 6.32163H16.756L18.7938 11.6249H16.5812H10.4207H8.20809L10.2449 6.32163ZM26.9057 18.2602L24.7057 12.5347C24.4955 11.9901 23.9627 11.625 23.3792 11.625H20.5396L18.2254 5.60317C18.017 5.05681 17.4843 4.69075 16.8989 4.69075H10.0997C9.5144 4.69075 8.98254 5.05681 8.77414 5.60135L6.4591 11.625H3.62126C3.03775 11.625 2.50588 11.9901 2.29476 12.5356L0.0948033 18.2611C-0.0737324 18.6969 -0.0148288 19.1889 0.249744 19.574C0.515226 19.96 0.951961 20.191 1.4204 20.191H13.5002H25.5801C26.0485 20.191 26.4852 19.96 26.7507 19.574C27.0153 19.1889 27.0733 18.6969 26.9057 18.2602L26.9057 18.2602Z" fill="#717171"/>
<path fill-rule="evenodd" clip-rule="evenodd" d="M6.62827 4.35841C6.77982 4.48414 6.96204 4.54475 7.14335 4.54475C7.37789 4.54475 7.61062 4.44344 7.77029 4.24806C8.05624 3.90071 8.00663 3.38784 7.66114 3.10201L7.02969 2.58099C6.68239 2.29334 6.17092 2.34491 5.88766 2.69134C5.60171 3.03869 5.65132 3.55156 5.99772 3.83739L6.62827 4.35841Z" fill="#717171"/>
<path fill-rule="evenodd" clip-rule="evenodd" d="M19.8601 4.54445C20.0415 4.54445 20.2237 4.48386 20.3752 4.35817L21.0058 3.83732C21.3522 3.55247 21.4009 3.03885 21.1159 2.69162C20.8326 2.3462 20.3211 2.29465 19.9729 2.5813L19.3423 3.10216C18.9959 3.38699 18.9472 3.90063 19.2323 4.24785C19.3928 4.44317 19.6256 4.54445 19.8601 4.54445H19.8601Z" fill="#717171"/>
<path fill-rule="evenodd" clip-rule="evenodd" d="M22.4927 9.79025H23.3895C23.8407 9.79025 24.2065 9.42369 24.2065 8.97162C24.2065 8.51956 23.8407 8.15299 23.3895 8.15299H22.4927C22.0415 8.15299 21.6757 8.51954 21.6757 8.97162C21.6757 9.42368 22.0415 9.79025 22.4927 9.79025Z" fill="#717171"/>
<path fill-rule="evenodd" clip-rule="evenodd" d="M3.61344 9.79025H4.5103C4.96146 9.79025 5.32729 9.42369 5.32729 8.97162C5.32729 8.51956 4.96147 8.15299 4.5103 8.15299H3.61344C3.16229 8.15299 2.79645 8.51954 2.79645 8.97162C2.79645 9.42368 3.16228 9.79025 3.61344 9.79025Z" fill="#717171"/>
<path fill-rule="evenodd" clip-rule="evenodd" d="M13.5013 2.37508C13.9498 2.37508 14.3135 2.00919 14.3135 1.55795V0.817079C14.3135 0.365847 13.9498 -5.34765e-05 13.5013 -5.34765e-05C13.0529 -5.34765e-05 12.6892 0.365834 12.6892 0.817079V1.55703C12.6892 2.00827 13.0529 2.37507 13.5013 2.37507V2.37508Z" fill="#717171"/>
</svg>
