<svg xmlns="http://www.w3.org/2000/svg" width="24" height="24" viewBox="0 0 24 24">
  <g id="Group_643" data-name="Group 643" transform="translate(-16 -14)">
    <g id="Rectangle_163" data-name="Rectangle 163" transform="translate(16 14)" stroke="#000" stroke-width="1" opacity="0">
      <rect width="24" height="24" stroke="none"/>
      <rect x="0.5" y="0.5" width="23" height="23" fill="none"/>
    </g>
    <g id="view" transform="translate(19.663 -71.255)">
      <path id="Path_1092" data-name="Path 1092" d="M8.337,102.644c-3.121,0-6.108-2.3-8.081-4.679a1.116,1.116,0,0,1,0-1.422A16.706,16.706,0,0,1,3.18,93.777c3.5-2.545,6.812-2.55,10.315,0a17.025,17.025,0,0,1,2.923,2.766,1.116,1.116,0,0,1,0,1.422c-1.972,2.383-4.959,4.679-8.081,4.679Zm0-9.754c-3.457,0-6.454,3.3-7.29,4.307a.089.089,0,0,0,0,.113c.836,1.01,3.833,4.307,7.29,4.307s6.454-3.3,7.29-4.307a.09.09,0,0,0,0-.113c-.836-1.01-3.833-4.307-7.29-4.307Z"/>
      <path id="Path_1093" data-name="Path 1093" d="M151.579,154.8a3.52,3.52,0,1,1,3.757-3.512A3.645,3.645,0,0,1,151.579,154.8Zm0-6.021a2.514,2.514,0,1,0,2.683,2.509A2.6,2.6,0,0,0,151.579,148.779Z" transform="translate(-143.242 -54.034)"/>
    </g>
  </g>
</svg>
