<svg width="20" height="19" viewBox="0 0 20 19" fill="none" xmlns="http://www.w3.org/2000/svg">
<rect x="1.14255" y="7.77007" width="3.42849" height="10.2855" fill="#FCAF17"/>
<path fill-rule="evenodd" clip-rule="evenodd" d="M18.112 13.6893H15.2854C14.9654 13.6893 14.7059 13.428 14.7059 13.1091C14.7059 12.7879 14.9654 12.5288 15.2854 12.5288H18.112C18.515 12.5288 18.8408 12.1991 18.8408 11.7988C18.8408 11.3962 18.5123 11.0709 18.112 11.0709C17.792 11.0709 17.5325 10.8096 17.5325 10.4906C17.5325 10.1695 17.792 9.91044 18.112 9.91044C19.1527 9.91044 20.0001 10.7584 20.0001 11.7988C20.0029 12.8416 19.1555 13.6893 18.112 13.6893V13.6893Z" fill="#717171"/>
<path fill-rule="evenodd" clip-rule="evenodd" d="M17.7981 16.2986H14.9449C14.6247 16.2986 14.3653 16.04 14.3653 15.7199C14.3653 15.4016 14.6247 15.1412 14.9449 15.1412H17.7981C18.201 15.1412 18.5264 14.8145 18.5264 14.4153C18.5264 14.0158 18.1982 13.6871 17.7981 13.6871C17.4779 13.6871 17.2185 13.4287 17.2185 13.1084C17.2185 12.7883 17.4779 12.5298 17.7981 12.5298C18.8382 12.5298 19.6855 13.3754 19.6855 14.4153C19.6855 15.4529 18.8382 16.2986 17.7981 16.2986V16.2986Z" fill="#717171"/>
<path fill-rule="evenodd" clip-rule="evenodd" d="M11.4794 18.9261C10.9003 18.9261 10.2878 18.8855 9.62042 18.8019C8.90042 18.7141 8.19966 18.6134 7.52949 18.3628C7.26461 18.2644 6.9944 18.1271 6.70472 17.9451C6.66881 17.9238 6.63291 17.9023 6.5972 17.8766C6.4123 17.761 6.25516 17.6581 6.08949 17.6089C6.03712 17.5917 5.93793 17.5941 5.83296 17.5981C5.79447 17.5981 5.75579 17.6003 5.71988 17.6003L5.12408 17.6047C5.1213 17.6047 5.1213 17.6047 5.11874 17.6047C4.8015 17.6047 4.5422 17.3475 4.53942 17.0306C4.53664 16.7093 4.79317 16.4481 5.11319 16.4459L5.70899 16.4394C5.73934 16.4394 5.77248 16.4394 5.80285 16.4373C5.97921 16.4309 6.20003 16.4265 6.43433 16.4994C6.74601 16.5978 6.99442 16.7563 7.21504 16.8978C7.24816 16.9193 7.28131 16.9406 7.31701 16.9621C7.54597 17.1055 7.74177 17.2041 7.93503 17.2769C8.48657 17.4845 9.08794 17.5703 9.76111 17.6517C10.4976 17.7438 11.1513 17.7803 11.7663 17.7631H11.7911H17.1618C17.5645 17.7631 17.8899 17.4333 17.8899 17.0328C17.8899 16.6301 17.5618 16.3044 17.1618 16.3044C16.8418 16.3044 16.5825 16.0432 16.5825 15.7239C16.5825 15.4028 16.8418 15.1435 17.1618 15.1435C18.2016 15.1435 19.0486 15.9917 19.0486 17.0328C19.0486 18.0759 18.2016 18.9239 17.1618 18.9239H11.7858C11.6836 18.9261 11.5844 18.9261 11.4794 18.9261L11.4794 18.9261Z" fill="#717171"/>
<path fill-rule="evenodd" clip-rule="evenodd" d="M17.6118 11.0649H15.4629C15.1429 11.0649 14.8836 10.8065 14.8836 10.4856C14.8836 10.1674 15.1429 9.90648 15.4629 9.90648H17.6118C18.0143 9.90648 18.3398 9.57939 18.3398 9.17972C18.3398 8.7756 18.0117 8.4508 17.6118 8.4508H12.0813C11.7613 8.4508 11.502 8.19209 11.502 7.8714C11.502 7.36483 11.6068 6.88184 11.8165 6.43499C11.9075 6.23828 12.0039 6.0482 12.0978 5.86425C12.2827 5.49876 12.4591 5.15266 12.5833 4.7891C12.8866 3.91271 13.1294 2.66434 12.5888 1.65132C12.5805 1.64036 12.5721 1.62977 12.564 1.61701C12.4067 1.40333 12.2 1.24719 12.004 1.18507C11.731 1.10405 11.4469 1.19145 11.3118 1.39899C11.2427 1.50589 11.2344 1.6577 11.2455 1.91628C11.262 2.33317 11.2455 2.71129 11.1931 3.06619C11.0828 3.80799 10.8567 4.46648 10.52 5.01989C10.5063 5.07563 10.4843 5.12703 10.4539 5.17603C10.4319 5.21239 10.2829 5.44967 10.0291 5.79179V5.79371C10.0264 5.79817 10.0264 5.80009 10.0236 5.80009C9.24292 6.84779 7.4667 8.86771 5.20482 9.16276C4.88758 9.20345 4.59794 8.98086 4.55667 8.66245C4.5152 8.34597 4.73858 8.05765 5.0558 8.01455C6.85149 7.78389 8.36026 6.08252 9.05543 5.16303C9.05821 5.15677 9.06377 5.15039 9.06633 5.14401C9.08302 5.11837 9.1078 5.07768 9.14373 5.0223C9.21533 4.913 9.32565 4.73796 9.47742 4.50935C9.7643 4.07104 9.95732 3.53004 10.0484 2.90163C10.0899 2.61753 10.1036 2.31188 10.0899 1.96746C10.076 1.59993 10.0815 1.17245 10.3436 0.770608C10.76 0.129206 11.582 -0.150928 12.346 0.0800846C12.7819 0.212627 13.1901 0.514063 13.4963 0.926503C13.5266 0.967074 13.5514 1.00355 13.5762 1.0399C13.5846 1.0505 13.5901 1.06554 13.5983 1.07626C14.1996 2.17693 14.2299 3.59204 13.6838 5.16966C13.5322 5.60786 13.3308 6.00548 13.135 6.38794C13.0412 6.57176 12.9529 6.74704 12.8702 6.92653C12.815 7.04426 12.7707 7.16814 12.7378 7.29237H17.6171C18.6571 7.29237 19.5038 8.13879 19.5038 9.17974C19.5038 10.2185 18.6543 11.0649 17.6118 11.0649L17.6118 11.0649Z" fill="#717171"/>
<path fill-rule="evenodd" clip-rule="evenodd" d="M1.15869 17.6516H4.5429V8.03448H1.15869V17.6516ZM5.12205 18.8103H0.579279C0.259275 18.8103 0 18.5519 0 18.2312V7.45545C0 7.13488 0.259285 6.87617 0.579279 6.87617H5.12205C5.44179 6.87617 5.7011 7.13488 5.7011 7.45545V18.2312C5.7011 18.5519 5.44179 18.8103 5.12205 18.8103Z" fill="#717171"/>
</svg>
