<svg width="24" height="24" viewBox="0 0 24 24" fill="none" xmlns="http://www.w3.org/2000/svg">
<path opacity="0.01" d="M0.5 23.5V0.5H23.5V23.5H0.5Z" fill="black" stroke="black"/>
<path fill-rule="evenodd" clip-rule="evenodd" d="M10.2113 13.0519L13.052 10.2112C12.7421 10.0282 12.3854 9.91589 12.0001 9.91589C10.8509 9.91589 9.91597 10.8509 9.91597 12C9.91597 12.3853 10.0283 12.7421 10.2113 13.0519V13.0519ZM8.13576 15.1276L9.45486 13.8085C9.09053 13.2973 8.87392 12.6741 8.87392 12C8.87392 10.2762 10.2763 8.87384 12.0001 8.87384C12.6741 8.87384 13.2974 9.09046 13.8085 9.45465L14.8752 8.38799C14.0324 8.0505 13.0748 7.8318 12.0001 7.8318C7.83774 7.8318 5.41524 11.0589 4.79783 11.9992C5.1899 12.5934 6.31687 14.0976 8.13577 15.1276H8.13576ZM18.0997 6.63709L6.63717 18.0996C6.53544 18.2013 6.40206 18.2523 6.26881 18.2523C6.13556 18.2523 6.00218 18.2013 5.90045 18.0996C5.69686 17.896 5.69686 17.5663 5.90045 17.3629L7.35879 15.9045C5.00116 14.4812 3.8032 12.3861 3.72934 12.2531C3.64181 12.0956 3.64181 11.9042 3.72934 11.7468C3.84175 11.5446 6.54586 6.78975 12.0001 6.78975C13.4103 6.78975 14.6319 7.11148 15.6761 7.58718L17.363 5.90037C17.5665 5.69678 17.8962 5.69678 18.0997 5.90037C18.3031 6.10396 18.3033 6.43364 18.0997 6.6371V6.63709ZM20.2708 11.7469C20.2067 11.6316 19.2978 10.039 17.5211 8.68928L16.7629 9.4475C18.0584 10.4001 18.8793 11.511 19.2024 12.0008C18.5849 12.9411 16.1624 16.1682 12.0001 16.1682C11.3759 16.1682 10.7955 16.0883 10.2493 15.9609L9.39312 16.8171C10.1803 17.0585 11.0454 17.2102 12.0001 17.2102C17.4543 17.2102 20.1584 12.4554 20.2708 12.2531C20.3583 12.0956 20.3583 11.9044 20.2708 11.7469V11.7469ZM14.07 12.1404L15.0169 11.1934C15.0858 11.4512 15.1262 11.7207 15.1262 12C15.1262 13.7238 13.7239 15.1261 12.0001 15.1261C11.7208 15.1261 11.4513 15.0857 11.1935 15.0168L12.1405 14.0699C13.1759 13.9993 13.9994 13.1758 14.07 12.1404Z" fill="black"/>
</svg>
