<svg width="22" height="19" viewBox="0 0 22 19" fill="none" xmlns="http://www.w3.org/2000/svg">
<ellipse cx="6.3236" cy="2.70127" rx="5.15974" ry="1.82108" fill="#FCAF17"/>
<path d="M11.8876 2.70127C11.8876 3.77408 9.39635 4.64376 6.32321 4.64376C3.25006 4.64376 0.758785 3.77408 0.758785 2.70127M11.8876 2.70127C11.8876 1.62847 9.39635 0.758785 6.32321 0.758785C3.25006 0.758785 0.758785 1.62847 0.758785 2.70127M11.8876 2.70127V4.15814M0.758785 2.70127V14.3562C0.758785 15.429 3.25006 16.2987 6.32321 16.2987M6.32321 8.52874C6.15269 8.52874 5.98396 8.52606 5.81735 8.52082C2.98126 8.4316 0.758785 7.59953 0.758785 6.58625M6.32321 12.4137C3.25006 12.4137 0.758785 11.544 0.758785 10.4712M20.993 9.01436C20.993 10.0872 18.5018 10.9569 15.4286 10.9569C12.3555 10.9569 9.8642 10.0872 9.8642 9.01436M20.993 9.01436C20.993 7.94156 18.5018 7.07187 15.4286 7.07187C12.3555 7.07187 9.8642 7.94156 9.8642 9.01436M20.993 9.01436V16.2987C20.993 17.3715 18.5018 18.2412 15.4286 18.2412C12.3555 18.2412 9.8642 17.3715 9.8642 16.2987V9.01436M20.993 12.6565C20.993 13.7293 18.5018 14.599 15.4286 14.599C12.3555 14.599 9.8642 13.7293 9.8642 12.6565" stroke="#717171" stroke-width="1.5" stroke-linecap="round" stroke-linejoin="round"/>
</svg>
