<svg width="13" height="13" viewBox="0 0 13 13" fill="none" xmlns="http://www.w3.org/2000/svg">
<g opacity="0.4">
<path d="M0.66848 13C0.497238 13 0.325996 12.9349 0.195892 12.8038C-0.0652972 12.5426 -0.0652972 12.1192 0.195892 11.858L11.858 0.195892C12.1192 -0.0652972 12.5426 -0.0652972 12.8038 0.195892C13.065 0.457081 13.065 0.880533 12.8038 1.14189L1.14189 12.8038C1.0108 12.9341 0.839559 13 0.66848 13Z" fill="black"/>
<path d="M12.3314 13C12.1601 13 11.9891 12.9349 11.8588 12.8038L0.195892 1.14189C-0.0652972 0.880533 -0.0652972 0.457081 0.195892 0.195892C0.457081 -0.0652972 0.880533 -0.0652972 1.14189 0.195892L12.8038 11.858C13.065 12.1192 13.065 12.5426 12.8038 12.8038C12.6727 12.9341 12.5016 13 12.3314 13Z" fill="black"/>
</g>
</svg>
