<svg width="24" height="24" viewBox="0 0 24 24" fill="none" xmlns="http://www.w3.org/2000/svg">
<g clip-path="url(#clip0_530_56068)">
<rect x="10.1992" y="10.1997" width="3.6" height="11.4" fill="#FCAF17"/>
<path d="M13.999 8.99902H9.99902C9.73381 8.99902 9.47945 9.10438 9.29192 9.29192C9.10438 9.47945 8.99902 9.73381 8.99902 9.99902V21.999C8.99902 22.2642 9.10438 22.5186 9.29192 22.7061C9.47945 22.8937 9.73381 22.999 9.99902 22.999H13.999C14.2642 22.999 14.5186 22.8937 14.7061 22.7061C14.8937 22.5186 14.999 22.2642 14.999 21.999V9.99902C14.999 9.73381 14.8937 9.47945 14.7061 9.29192C14.5186 9.10438 14.2642 8.99902 13.999 8.99902ZM12.999 20.999H10.999V10.999H12.999V20.999ZM21.999 0.999023H17.999C17.7338 0.999023 17.4795 1.10438 17.2919 1.29192C17.1044 1.47945 16.999 1.73381 16.999 1.99902V21.999C16.999 22.2642 17.1044 22.5186 17.2919 22.7061C17.4795 22.8937 17.7338 22.999 17.999 22.999H21.999C22.2642 22.999 22.5186 22.8937 22.7061 22.7061C22.8937 22.5186 22.999 22.2642 22.999 21.999V1.99902C22.999 1.73381 22.8937 1.47945 22.7061 1.29192C22.5186 1.10438 22.2642 0.999023 21.999 0.999023ZM20.999 20.999H18.999V2.99902H20.999V20.999ZM5.99902 14.999H1.99902C1.73381 14.999 1.47945 15.1044 1.29192 15.2919C1.10438 15.4795 0.999023 15.7338 0.999023 15.999V21.999C0.999023 22.2642 1.10438 22.5186 1.29192 22.7061C1.47945 22.8937 1.73381 22.999 1.99902 22.999H5.99902C6.26424 22.999 6.51859 22.8937 6.70613 22.7061C6.89367 22.5186 6.99902 22.2642 6.99902 21.999V15.999C6.99902 15.7338 6.89367 15.4795 6.70613 15.2919C6.51859 15.1044 6.26424 14.999 5.99902 14.999ZM4.99902 20.999H2.99902V16.999H4.99902V20.999Z" fill="#717171" stroke="white" stroke-width="0.5"/>
</g>
<defs>
<clipPath id="clip0_530_56068">
<rect width="24" height="24" fill="white"/>
</clipPath>
</defs>
</svg>
