<svg width="23" height="15" viewBox="0 0 23 15" fill="none" xmlns="http://www.w3.org/2000/svg">
<path fill-rule="evenodd" clip-rule="evenodd" d="M21.85 8.66004C21.545 8.66004 21.253 8.54004 21.037 8.31995C20.822 8.09998 20.7 7.81006 20.7 7.5V4.47998L13.4684 11.82C13.3616 11.9301 13.2344 12.02 13.0943 12.08C12.9542 12.14 12.8039 12.1701 12.6521 12.1701C12.5003 12.1701 12.3501 12.14 12.2099 12.08C12.0698 12.02 11.9427 11.9301 11.8358 11.82L8.05309 7.97998L1.97079 14.16C1.75429 14.38 1.46069 14.5 1.15449 14.5C0.84828 14.5 0.55459 14.38 0.33808 14.16C0.12158 13.9399 -2e-05 13.64 -2e-05 13.33C-2e-05 13.02 0.12158 12.72 0.33808 12.5L7.23669 5.49999C7.34359 5.39 7.47079 5.31005 7.61089 5.24999C7.75099 5.18993 7.90129 5.16002 8.05309 5.16002C8.20479 5.16002 8.35509 5.18993 8.49519 5.24999C8.63529 5.31005 8.76249 5.39 8.86939 5.49999L12.6521 9.34997L19.079 2.82994H16.101C15.796 2.82994 15.504 2.70994 15.288 2.48997C15.073 2.27 14.9516 1.97996 14.9516 1.67002C14.9516 1.35996 15.073 1.06003 15.288 0.83994C15.504 0.61997 15.796 0.49997 16.101 0.49997H21.85C22 0.49997 22.149 0.53 22.287 0.58994C22.568 0.70994 22.791 0.939921 22.908 1.21994C22.967 1.35995 22.998 1.50998 23 1.67001V7.49998C23 7.81004 22.879 8.09996 22.663 8.31993C22.448 8.54002 22.155 8.66002 21.85 8.66002L21.85 8.66004Z" fill="#8C8C8C"/>
</svg>
