<svg width="264" height="264" viewBox="0 0 264 264" fill="none" xmlns="http://www.w3.org/2000/svg">
<g clip-path="url(#clip0_118_53879)">
<path d="M234.615 54.5108C235.434 54.0996 235.767 53.1021 235.355 52.2815C234.944 51.4608 233.946 51.1303 233.126 51.5415C232.307 51.9528 231.977 52.9503 232.386 53.7709C232.797 54.5916 233.795 54.9221 234.615 54.5108Z" fill="#F59D1B"/>
<path d="M212.666 51.9298C215.466 49.958 219.265 50.5346 219.265 50.5346C219.265 50.5346 218.525 54.3072 215.725 56.279C212.925 58.2509 209.124 57.6743 209.124 57.6743C209.124 57.6743 209.863 53.9017 212.666 51.9298Z" fill="#EF781C"/>
<path d="M206.75 44.3613C207.855 40.7693 211.539 38.7148 211.539 38.7148C211.539 38.7148 213.432 42.4836 212.329 46.0756C211.224 49.6676 207.54 51.7221 207.54 51.7221C207.54 51.7221 205.647 47.9533 206.75 44.3613Z" fill="#666666"/>
<path d="M43.1177 90.4501C45.7103 93.6866 45.299 98.3241 45.299 98.3241C45.299 98.3241 40.6846 97.7129 38.092 94.4765C35.4994 91.24 35.9106 86.6025 35.9106 86.6025C35.9106 86.6025 40.5251 87.2137 43.1177 90.4501Z" fill="#666666"/>
<path d="M33.9157 96.2176C38.0478 96.5827 41.1112 100.088 41.1112 100.088C41.1112 100.088 37.477 103 33.3469 102.633C29.2148 102.268 26.1514 98.7621 26.1514 98.7621C26.1514 98.7621 29.7856 95.8505 33.9157 96.2176Z" fill="#ED6D1E"/>
<path d="M203.658 228.343C203.137 229.056 202.137 229.213 201.424 228.692C200.711 228.172 200.554 227.172 201.075 226.459C201.596 225.746 202.595 225.589 203.308 226.109C204.021 226.63 204.179 227.63 203.658 228.343Z" fill="#F59D1B"/>
<path d="M246.994 149.867C247.575 149.202 247.507 148.191 246.842 147.611C246.177 147.03 245.168 147.097 244.586 147.762C244.006 148.427 244.073 149.436 244.738 150.017C245.403 150.597 246.414 150.53 246.994 149.865V149.867Z" fill="#F59D1B"/>
<path d="M18.8021 138.385C19.3825 137.72 19.3152 136.711 18.6503 136.129C17.9853 135.549 16.9763 135.616 16.394 136.281C15.8136 136.946 15.8808 137.955 16.5458 138.537C17.2108 139.118 18.2198 139.05 18.8021 138.385Z" fill="#F59D1B"/>
<path d="M72.0669 31.6503C72.6473 30.9853 72.58 29.9764 71.915 29.394C71.2501 28.8117 70.2411 28.8809 69.6588 29.5459C69.0783 30.2108 69.1456 31.2198 69.8106 31.8021C70.4755 32.3825 71.4845 32.3153 72.0669 31.6503Z" fill="#F59D1B"/>
<path d="M211.355 220.707C214.211 222.929 214.805 226.946 214.805 226.946C214.805 226.946 210.765 227.365 207.909 225.145C205.053 222.923 204.459 218.906 204.459 218.906C204.459 218.906 208.499 218.487 211.355 220.707Z" fill="#666666"/>
</g>
<path d="M187.142 76.1841C187.142 75.443 186.544 74.8423 185.806 74.8423C185.068 74.8423 184.469 75.443 184.469 76.1841V89.8343C184.469 90.5754 185.068 91.1762 185.806 91.1762C186.544 91.1762 187.142 90.5754 187.142 89.8343V76.1841Z" fill="#382A73"/>
<path d="M187.142 97.2071C187.142 96.466 186.544 95.8652 185.806 95.8652C185.068 95.8652 184.469 96.466 184.469 97.2071V119.997C184.469 120.738 185.068 121.339 185.806 121.339C186.544 121.339 187.142 120.738 187.142 119.997V97.2071Z" fill="#382A73"/>
<path d="M177.387 34.0698H81.6155C77.723 34.0698 74.5676 37.2351 74.5676 41.1397V241.567C74.5676 245.471 77.723 248.637 81.6155 248.637H177.387C181.279 248.637 184.435 245.471 184.435 241.567V41.1397C184.435 37.2351 181.279 34.0698 177.387 34.0698Z" fill="#FFE9C2"/>
<path d="M144.302 179.409H115.46C111.344 179.409 108.007 182.756 108.007 186.884V186.886C108.007 191.015 111.344 194.362 115.46 194.362H144.302C148.418 194.362 151.755 191.015 151.755 186.886V186.884C151.755 182.756 148.418 179.409 144.302 179.409Z" fill="#FCAF17"/>
<path d="M151.757 187.539L151.5 179.541C151.498 179.469 151.556 179.409 151.628 179.409C151.699 179.409 151.757 179.466 151.757 179.537V187.539Z" fill="#FCAF17"/>
<path d="M151.524 194.362C151.399 194.362 151.296 194.262 151.292 194.137L150.833 179.756C150.827 179.566 150.979 179.409 151.17 179.409C151.351 179.409 151.5 179.553 151.506 179.735L151.757 187.539V194.129C151.757 194.258 151.653 194.362 151.524 194.362Z" fill="#FCAF17"/>
<path d="M150.95 194.362C150.768 194.362 150.618 194.217 150.612 194.035L150.156 179.757C150.15 179.567 150.303 179.409 150.494 179.409C150.677 179.409 150.826 179.554 150.832 179.736L151.288 194.013C151.294 194.204 151.141 194.362 150.95 194.362Z" fill="#FCAF17"/>
<path d="M150.274 194.362C150.091 194.362 149.942 194.217 149.936 194.035L149.48 179.757C149.474 179.567 149.627 179.409 149.818 179.409C150 179.409 150.15 179.554 150.156 179.736L150.611 194.013C150.618 194.204 150.465 194.362 150.274 194.362Z" fill="#FCAF17"/>
<path d="M149.597 194.362C149.415 194.362 149.265 194.217 149.259 194.035L148.804 179.757C148.798 179.567 148.951 179.409 149.142 179.409C149.324 179.409 149.474 179.554 149.479 179.736L149.935 194.013C149.941 194.204 149.788 194.362 149.597 194.362Z" fill="#FCAF17"/>
<path d="M148.921 194.362C148.739 194.362 148.589 194.217 148.583 194.035L148.127 179.757C148.121 179.567 148.274 179.409 148.465 179.409C148.648 179.409 148.797 179.554 148.803 179.736L149.259 194.013C149.265 194.204 149.112 194.362 148.921 194.362Z" fill="#FCAF17"/>
<path d="M148.245 194.362C148.062 194.362 147.913 194.217 147.907 194.035L147.451 179.757C147.445 179.567 147.598 179.409 147.789 179.409C147.971 179.409 148.121 179.554 148.127 179.736L148.582 194.013C148.589 194.204 148.436 194.362 148.245 194.362Z" fill="#FCAF17"/>
<path d="M147.568 194.362C147.386 194.362 147.236 194.217 147.231 194.035L146.775 179.757C146.769 179.567 146.922 179.409 147.113 179.409C147.295 179.409 147.445 179.554 147.45 179.736L147.906 194.013C147.912 194.204 147.759 194.362 147.568 194.362Z" fill="#FCAF17"/>
<path d="M146.892 194.362C146.71 194.362 146.56 194.217 146.554 194.035L146.098 179.757C146.092 179.567 146.245 179.409 146.436 179.409C146.619 179.409 146.768 179.554 146.774 179.736L147.23 194.013C147.236 194.204 147.083 194.362 146.892 194.362Z" fill="#FCAF17"/>
<path d="M146.216 194.362C146.033 194.362 145.884 194.217 145.878 194.035L145.422 179.757C145.416 179.567 145.569 179.409 145.76 179.409C145.942 179.409 146.092 179.554 146.098 179.736L146.553 194.013C146.56 194.204 146.407 194.362 146.216 194.362Z" fill="#FCAF17"/>
<path d="M145.539 194.362C145.357 194.362 145.207 194.217 145.202 194.035L144.746 179.757C144.74 179.567 144.893 179.409 145.084 179.409C145.266 179.409 145.416 179.554 145.421 179.736L145.877 194.013C145.883 194.204 145.73 194.362 145.539 194.362Z" fill="#FCAF17"/>
<path d="M144.863 194.362C144.681 194.362 144.531 194.217 144.525 194.035L144.069 179.757C144.063 179.567 144.216 179.409 144.407 179.409C144.59 179.409 144.739 179.554 144.745 179.736L145.201 194.013C145.207 194.204 145.054 194.362 144.863 194.362Z" fill="#FCAF17"/>
<path d="M144.188 194.362C144.006 194.362 143.857 194.218 143.851 194.036L143.393 179.757C143.387 179.567 143.54 179.409 143.731 179.409C143.913 179.409 144.063 179.554 144.069 179.736L144.525 194.014C144.531 194.205 144.378 194.362 144.188 194.362Z" fill="#FCAF17"/>
<path d="M143.512 194.362C143.33 194.362 143.18 194.217 143.175 194.035L142.717 179.758C142.711 179.567 142.864 179.409 143.055 179.409C143.237 179.409 143.387 179.553 143.393 179.736L143.85 194.013C143.856 194.204 143.703 194.362 143.512 194.362Z" fill="#FCAF17"/>
<path d="M142.836 194.362C142.654 194.362 142.504 194.217 142.498 194.035L142.041 179.758C142.034 179.567 142.187 179.409 142.378 179.409C142.561 179.409 142.71 179.553 142.716 179.736L143.174 194.013C143.18 194.204 143.027 194.362 142.836 194.362Z" fill="#FCAF17"/>
<path d="M142.16 194.362C141.977 194.362 141.828 194.217 141.822 194.035L141.366 179.756C141.36 179.566 141.513 179.409 141.703 179.409C141.885 179.409 142.034 179.553 142.04 179.735L142.498 194.013C142.504 194.204 142.351 194.362 142.16 194.362Z" fill="#FCAF17"/>
<path d="M141.483 194.362C141.301 194.362 141.152 194.217 141.146 194.035L140.69 179.757C140.684 179.567 140.837 179.409 141.028 179.409C141.21 179.409 141.36 179.554 141.366 179.736L141.821 194.013C141.827 194.204 141.674 194.362 141.483 194.362Z" fill="#FCAF17"/>
<path d="M140.807 194.362C140.625 194.362 140.475 194.217 140.469 194.035L140.014 179.757C140.008 179.567 140.161 179.409 140.351 179.409C140.534 179.409 140.683 179.554 140.689 179.736L141.145 194.013C141.151 194.204 140.998 194.362 140.807 194.362Z" fill="#FCAF17"/>
<path d="M140.131 194.362C139.948 194.362 139.799 194.217 139.793 194.035L139.337 179.757C139.331 179.567 139.484 179.409 139.675 179.409C139.858 179.409 140.007 179.554 140.013 179.736L140.469 194.013C140.475 194.204 140.322 194.362 140.131 194.362Z" fill="#FCAF17"/>
<path d="M139.455 194.362C139.272 194.362 139.122 194.217 139.117 194.035L138.661 179.757C138.655 179.567 138.808 179.409 138.999 179.409C139.181 179.409 139.331 179.554 139.337 179.736L139.792 194.013C139.798 194.204 139.645 194.362 139.455 194.362Z" fill="#FCAF17"/>
<path d="M138.778 194.362C138.596 194.362 138.446 194.217 138.44 194.035L137.985 179.757C137.979 179.567 138.132 179.409 138.322 179.409C138.505 179.409 138.654 179.554 138.66 179.736L139.116 194.013C139.122 194.204 138.969 194.362 138.778 194.362Z" fill="#FCAF17"/>
<path d="M138.102 194.362C137.919 194.362 137.77 194.217 137.764 194.035L137.308 179.757C137.302 179.567 137.455 179.409 137.646 179.409C137.829 179.409 137.978 179.554 137.984 179.736L138.44 194.013C138.446 194.204 138.293 194.362 138.102 194.362Z" fill="#FCAF17"/>
<path d="M137.426 194.362C137.243 194.362 137.094 194.217 137.088 194.035L136.632 179.757C136.626 179.567 136.779 179.409 136.97 179.409C137.152 179.409 137.302 179.554 137.308 179.736L137.763 194.013C137.769 194.204 137.616 194.362 137.426 194.362Z" fill="#FCAF17"/>
<path d="M136.749 194.362C136.567 194.362 136.417 194.217 136.411 194.035L135.956 179.757C135.95 179.567 136.103 179.409 136.293 179.409C136.476 179.409 136.625 179.554 136.631 179.736L137.087 194.013C137.093 194.204 136.94 194.362 136.749 194.362Z" fill="#FCAF17"/>
<path d="M136.073 194.362C135.89 194.362 135.741 194.217 135.735 194.035L135.279 179.757C135.273 179.567 135.426 179.409 135.617 179.409C135.8 179.409 135.949 179.554 135.955 179.736L136.411 194.013C136.417 194.204 136.264 194.362 136.073 194.362Z" fill="#FCAF17"/>
<path d="M135.398 194.362C135.216 194.362 135.067 194.218 135.061 194.036L134.603 179.757C134.597 179.567 134.75 179.409 134.941 179.409C135.123 179.409 135.273 179.554 135.279 179.736L135.734 194.014C135.74 194.205 135.588 194.362 135.398 194.362Z" fill="#FCAF17"/>
<path d="M134.722 194.362C134.54 194.362 134.39 194.217 134.384 194.035L133.927 179.758C133.921 179.567 134.074 179.409 134.265 179.409C134.447 179.409 134.596 179.553 134.602 179.736L135.06 194.013C135.066 194.204 134.913 194.362 134.722 194.362Z" fill="#FCAF17"/>
<path d="M134.046 194.362C133.863 194.362 133.714 194.217 133.708 194.035L133.25 179.758C133.244 179.567 133.397 179.409 133.588 179.409C133.771 179.409 133.92 179.553 133.926 179.736L134.384 194.013C134.39 194.204 134.237 194.362 134.046 194.362Z" fill="#FCAF17"/>
<path d="M133.37 194.362C133.187 194.362 133.038 194.217 133.032 194.035L132.576 179.756C132.57 179.566 132.723 179.409 132.913 179.409C133.095 179.409 133.244 179.553 133.25 179.735L133.707 194.013C133.714 194.204 133.561 194.362 133.37 194.362Z" fill="#FCAF17"/>
<path d="M132.693 194.362C132.511 194.362 132.361 194.217 132.356 194.035L131.9 179.757C131.894 179.567 132.047 179.409 132.238 179.409C132.42 179.409 132.57 179.554 132.575 179.736L133.031 194.013C133.037 194.204 132.884 194.362 132.693 194.362Z" fill="#FCAF17"/>
<path d="M132.017 194.362C131.835 194.362 131.685 194.217 131.679 194.035L131.223 179.757C131.217 179.567 131.37 179.409 131.561 179.409C131.744 179.409 131.893 179.554 131.899 179.736L132.355 194.013C132.361 194.204 132.208 194.362 132.017 194.362Z" fill="#FCAF17"/>
<path d="M131.341 194.362C131.158 194.362 131.009 194.217 131.003 194.035L130.547 179.757C130.541 179.567 130.694 179.409 130.885 179.409C131.067 179.409 131.217 179.554 131.223 179.736L131.678 194.013C131.685 194.204 131.532 194.362 131.341 194.362Z" fill="#FCAF17"/>
<path d="M130.664 194.362C130.482 194.362 130.332 194.217 130.327 194.035L129.871 179.757C129.865 179.567 130.018 179.409 130.209 179.409C130.391 179.409 130.541 179.554 130.546 179.736L131.002 194.013C131.008 194.204 130.855 194.362 130.664 194.362Z" fill="#FCAF17"/>
<path d="M129.988 194.362C129.806 194.362 129.656 194.217 129.65 194.035L129.194 179.757C129.188 179.567 129.341 179.409 129.532 179.409C129.715 179.409 129.864 179.554 129.87 179.736L130.326 194.013C130.332 194.204 130.179 194.362 129.988 194.362Z" fill="#FCAF17"/>
<path d="M129.312 194.362C129.129 194.362 128.98 194.217 128.974 194.035L128.518 179.757C128.512 179.567 128.665 179.409 128.856 179.409C129.038 179.409 129.188 179.554 129.194 179.736L129.65 194.013C129.656 194.204 129.503 194.362 129.312 194.362Z" fill="#FCAF17"/>
<path d="M128.635 194.362C128.453 194.362 128.303 194.217 128.298 194.035L127.842 179.757C127.836 179.567 127.989 179.409 128.18 179.409C128.362 179.409 128.512 179.554 128.517 179.736L128.973 194.013C128.979 194.204 128.826 194.362 128.635 194.362Z" fill="#FCAF17"/>
<path d="M127.959 194.362C127.777 194.362 127.627 194.217 127.621 194.035L127.165 179.757C127.159 179.567 127.312 179.409 127.503 179.409C127.686 179.409 127.835 179.554 127.841 179.736L128.297 194.013C128.303 194.204 128.15 194.362 127.959 194.362Z" fill="#FCAF17"/>
<path d="M127.283 194.362C127.1 194.362 126.951 194.217 126.945 194.035L126.489 179.757C126.483 179.567 126.636 179.409 126.827 179.409C127.009 179.409 127.159 179.554 127.165 179.736L127.621 194.013C127.627 194.204 127.474 194.362 127.283 194.362Z" fill="#FCAF17"/>
<path d="M126.606 194.362C126.424 194.362 126.274 194.217 126.269 194.035L125.813 179.757C125.807 179.567 125.96 179.409 126.151 179.409C126.333 179.409 126.483 179.554 126.488 179.736L126.944 194.013C126.95 194.204 126.797 194.362 126.606 194.362Z" fill="#FCAF17"/>
<path d="M125.931 194.362C125.749 194.362 125.6 194.218 125.594 194.036L125.137 179.757C125.13 179.567 125.283 179.409 125.474 179.409C125.657 179.409 125.806 179.554 125.812 179.736L126.268 194.014C126.274 194.205 126.121 194.362 125.931 194.362Z" fill="#FCAF17"/>
<path d="M125.256 194.362C125.073 194.362 124.924 194.217 124.918 194.035L124.46 179.758C124.454 179.567 124.607 179.409 124.798 179.409C124.98 179.409 125.13 179.553 125.136 179.736L125.594 194.013C125.6 194.204 125.447 194.362 125.256 194.362Z" fill="#FCAF17"/>
<path d="M124.579 194.362C124.397 194.362 124.247 194.217 124.242 194.035L123.784 179.758C123.778 179.567 123.931 179.409 124.122 179.409C124.304 179.409 124.454 179.553 124.46 179.736L124.917 194.013C124.923 194.204 124.77 194.362 124.579 194.362Z" fill="#FCAF17"/>
<path d="M123.903 194.362C123.721 194.362 123.571 194.217 123.565 194.035L123.11 179.756C123.104 179.566 123.256 179.409 123.446 179.409C123.628 179.409 123.777 179.553 123.783 179.735L124.241 194.013C124.247 194.204 124.094 194.362 123.903 194.362Z" fill="#FCAF17"/>
<path d="M123.227 194.362C123.044 194.362 122.895 194.217 122.889 194.035L122.433 179.757C122.427 179.567 122.58 179.409 122.771 179.409C122.954 179.409 123.103 179.554 123.109 179.736L123.565 194.013C123.571 194.204 123.418 194.362 123.227 194.362Z" fill="#FCAF17"/>
<path d="M122.551 194.362C122.368 194.362 122.219 194.217 122.213 194.035L121.757 179.757C121.751 179.567 121.904 179.409 122.095 179.409C122.277 179.409 122.427 179.554 122.433 179.736L122.888 194.013C122.894 194.204 122.741 194.362 122.551 194.362Z" fill="#FCAF17"/>
<path d="M121.874 194.362C121.692 194.362 121.542 194.217 121.536 194.035L121.081 179.757C121.075 179.567 121.228 179.409 121.418 179.409C121.601 179.409 121.75 179.554 121.756 179.736L122.212 194.013C122.218 194.204 122.065 194.362 121.874 194.362Z" fill="#FCAF17"/>
<path d="M121.198 194.362C121.015 194.362 120.866 194.217 120.86 194.035L120.404 179.757C120.398 179.567 120.551 179.409 120.742 179.409C120.925 179.409 121.074 179.554 121.08 179.736L121.536 194.013C121.542 194.204 121.389 194.362 121.198 194.362Z" fill="#FCAF17"/>
<path d="M120.522 194.362C120.339 194.362 120.19 194.217 120.184 194.035L119.728 179.757C119.722 179.567 119.875 179.409 120.066 179.409C120.248 179.409 120.398 179.554 120.404 179.736L120.859 194.013C120.865 194.204 120.712 194.362 120.522 194.362Z" fill="#FCAF17"/>
<path d="M119.845 194.362C119.663 194.362 119.513 194.217 119.507 194.035L119.052 179.757C119.046 179.567 119.199 179.409 119.389 179.409C119.572 179.409 119.721 179.554 119.727 179.736L120.183 194.013C120.189 194.204 120.036 194.362 119.845 194.362Z" fill="#FCAF17"/>
<path d="M119.169 194.362C118.986 194.362 118.837 194.217 118.831 194.035L118.375 179.757C118.369 179.567 118.522 179.409 118.713 179.409C118.896 179.409 119.045 179.554 119.051 179.736L119.507 194.013C119.513 194.204 119.36 194.362 119.169 194.362Z" fill="#FCAF17"/>
<path d="M118.493 194.362C118.31 194.362 118.161 194.217 118.155 194.035L117.699 179.757C117.693 179.567 117.846 179.409 118.037 179.409C118.219 179.409 118.369 179.554 118.375 179.736L118.83 194.013C118.836 194.204 118.683 194.362 118.493 194.362Z" fill="#FCAF17"/>
<path d="M117.816 194.362C117.634 194.362 117.484 194.217 117.478 194.035L117.023 179.757C117.017 179.567 117.17 179.409 117.361 179.409C117.543 179.409 117.693 179.554 117.698 179.736L118.154 194.013C118.16 194.204 118.007 194.362 117.816 194.362Z" fill="#FCAF17"/>
<path d="M117.14 194.362C116.957 194.362 116.808 194.217 116.802 194.035L116.346 179.757C116.34 179.567 116.493 179.409 116.684 179.409C116.867 179.409 117.016 179.554 117.022 179.736L117.478 194.013C117.484 194.204 117.331 194.362 117.14 194.362Z" fill="#FCAF17"/>
<path d="M116.465 194.362C116.283 194.362 116.134 194.218 116.128 194.036L115.67 179.757C115.664 179.567 115.817 179.409 116.008 179.409C116.19 179.409 116.34 179.554 116.346 179.736L116.801 194.014C116.808 194.205 116.655 194.362 116.465 194.362Z" fill="#FCAF17"/>
<path d="M115.789 194.362C115.607 194.362 115.457 194.217 115.451 194.035L114.994 179.758C114.988 179.567 115.141 179.409 115.332 179.409C115.514 179.409 115.664 179.553 115.669 179.736L116.127 194.013C116.133 194.204 115.98 194.362 115.789 194.362Z" fill="#FCAF17"/>
<path d="M115.113 194.362C114.931 194.362 114.781 194.217 114.775 194.035L114.317 179.758C114.311 179.567 114.464 179.409 114.655 179.409C114.838 179.409 114.987 179.553 114.993 179.736L115.451 194.013C115.457 194.204 115.304 194.362 115.113 194.362Z" fill="#FCAF17"/>
<path d="M114.437 194.362C114.254 194.362 114.105 194.217 114.099 194.035L113.643 179.756C113.637 179.566 113.79 179.409 113.98 179.409C114.162 179.409 114.311 179.553 114.317 179.735L114.774 194.013C114.781 194.204 114.628 194.362 114.437 194.362Z" fill="#FCAF17"/>
<path d="M113.76 194.362C113.578 194.362 113.428 194.217 113.423 194.035L112.967 179.757C112.961 179.567 113.114 179.409 113.305 179.409C113.487 179.409 113.637 179.554 113.643 179.736L114.098 194.013C114.104 194.204 113.951 194.362 113.76 194.362Z" fill="#FCAF17"/>
<path d="M113.084 194.362C112.902 194.362 112.752 194.217 112.746 194.035L112.29 179.757C112.284 179.567 112.437 179.409 112.628 179.409C112.811 179.409 112.96 179.554 112.966 179.736L113.422 194.013C113.428 194.204 113.275 194.362 113.084 194.362Z" fill="#FCAF17"/>
<path d="M112.408 194.362C112.225 194.362 112.076 194.217 112.07 194.035L111.614 179.757C111.608 179.567 111.761 179.409 111.952 179.409C112.135 179.409 112.284 179.554 112.29 179.736L112.746 194.013C112.752 194.204 112.599 194.362 112.408 194.362Z" fill="#FCAF17"/>
<path d="M111.731 194.362C111.549 194.362 111.399 194.217 111.394 194.035L110.938 179.757C110.932 179.567 111.085 179.409 111.276 179.409C111.458 179.409 111.608 179.554 111.614 179.736L112.069 194.013C112.075 194.204 111.922 194.362 111.731 194.362Z" fill="#FCAF17"/>
<path d="M111.055 194.362C110.873 194.362 110.723 194.217 110.717 194.035L110.262 179.757C110.255 179.567 110.408 179.409 110.599 179.409C110.782 179.409 110.931 179.554 110.937 179.736L111.393 194.013C111.399 194.204 111.246 194.362 111.055 194.362Z" fill="#FCAF17"/>
<path d="M110.379 194.362C110.196 194.362 110.047 194.217 110.041 194.035L109.585 179.757C109.579 179.567 109.732 179.409 109.923 179.409C110.106 179.409 110.255 179.554 110.261 179.736L110.717 194.013C110.723 194.204 110.57 194.362 110.379 194.362Z" fill="#FCAF17"/>
<path d="M109.702 194.362C109.52 194.362 109.37 194.217 109.365 194.035L108.909 179.757C108.903 179.567 109.056 179.409 109.247 179.409C109.429 179.409 109.579 179.554 109.585 179.736L110.04 194.013C110.046 194.204 109.893 194.362 109.702 194.362Z" fill="#FCAF17"/>
<path d="M108.46 179.409C108.704 179.409 108.904 179.602 108.912 179.847L109.353 193.668C109.365 194.048 109.06 194.362 108.68 194.362C108.309 194.362 108.007 194.061 108.007 193.689V179.861C108.007 179.611 108.21 179.409 108.46 179.409Z" fill="#FCAF17"/>
<path d="M174.816 133.166H84.8366C82.7515 133.166 81.0612 134.862 81.0612 136.953V145.79C81.0612 147.882 82.7515 149.577 84.8366 149.577H174.816C176.902 149.577 178.592 147.882 178.592 145.79V136.953C178.592 134.862 176.902 133.166 174.816 133.166Z" fill="white"/>
<path d="M174.816 154.311H84.8366C82.7515 154.311 81.0612 156.007 81.0612 158.098V166.935C81.0612 169.027 82.7515 170.722 84.8366 170.722H174.816C176.902 170.722 178.592 169.027 178.592 166.935V158.098C178.592 156.007 176.902 154.311 174.816 154.311Z" fill="white"/>
<path d="M89.0851 164.885C90.3014 164.885 91.2875 163.896 91.2875 162.676C91.2875 161.455 90.3014 160.466 89.0851 160.466C87.8688 160.466 86.8828 161.455 86.8828 162.676C86.8828 163.896 87.8688 164.885 89.0851 164.885Z" fill="#666666"/>
<path d="M97.2631 164.885C98.4795 164.885 99.4655 163.896 99.4655 162.676C99.4655 161.455 98.4795 160.466 97.2631 160.466C96.0468 160.466 95.0608 161.455 95.0608 162.676C95.0608 163.896 96.0468 164.885 97.2631 164.885Z" fill="#666666"/>
<path d="M105.443 164.885C106.66 164.885 107.646 163.896 107.646 162.676C107.646 161.455 106.66 160.466 105.443 160.466C104.227 160.466 103.241 161.455 103.241 162.676C103.241 163.896 104.227 164.885 105.443 164.885Z" fill="#666666"/>
<path d="M113.623 164.885C114.84 164.885 115.826 163.896 115.826 162.676C115.826 161.455 114.84 160.466 113.623 160.466C112.407 160.466 111.421 161.455 111.421 162.676C111.421 163.896 112.407 164.885 113.623 164.885Z" fill="#666666"/>
<path d="M121.804 164.885C123.02 164.885 124.006 163.896 124.006 162.676C124.006 161.455 123.02 160.466 121.804 160.466C120.587 160.466 119.601 161.455 119.601 162.676C119.601 163.896 120.587 164.885 121.804 164.885Z" fill="#666666"/>
<path d="M129.984 164.885C131.2 164.885 132.186 163.896 132.186 162.676C132.186 161.455 131.2 160.466 129.984 160.466C128.768 160.466 127.781 161.455 127.781 162.676C127.781 163.896 128.768 164.885 129.984 164.885Z" fill="#666666"/>
<path d="M138.164 164.885C139.38 164.885 140.366 163.896 140.366 162.676C140.366 161.455 139.38 160.466 138.164 160.466C136.948 160.466 135.962 161.455 135.962 162.676C135.962 163.896 136.948 164.885 138.164 164.885Z" fill="#666666"/>
<path d="M130 67C116.74 67 106 77.7428 106 91.0053C106 104.268 116.74 115 130 115C143.259 115 154 104.257 154 91.0053C154 77.7534 143.249 67 130 67ZM130 74.1794C134.385 74.1794 137.937 77.7323 137.937 82.1179C137.937 86.5036 134.385 90.0564 130 90.0564C125.615 90.0564 122.063 86.5036 122.063 82.1179C122.063 77.7323 125.615 74.1794 130 74.1794ZM130 108.727C125.626 108.727 121.62 107.135 118.532 104.5C117.784 103.857 117.341 102.918 117.341 101.927C117.341 97.4784 120.935 93.9255 125.383 93.9255H134.617C139.064 93.9255 142.648 97.4889 142.648 101.927C142.648 102.918 142.216 103.857 141.468 104.5C138.379 107.135 134.374 108.727 130 108.727Z" fill="#FFD787"/>
<path d="M156.014 215.316C157.247 215.653 162.247 215.076 167.698 213.854C169.99 216.527 175.375 220.613 186.988 220.909C204.35 221.353 203.197 219.801 203.197 219.801C205.581 218.444 209.074 211.112 212.235 203.336C214.555 205.47 220.955 211.241 223.15 212.027C225.849 212.995 231.061 213.188 232.989 209.32C234.918 205.449 231.639 199.062 231.639 199.062C231.639 199.062 227.587 188.806 222.378 179.905C220.325 176.394 218.78 174.537 217.663 173.578C217.233 173.092 216.674 172.717 216.032 172.51L202.593 167.938L181.227 169.61C180.403 169.674 179.645 170.014 179.056 170.548C177.723 170.96 175.429 172.33 171.644 176.227C164.314 183.775 154.86 200.03 153.51 206.028C152.159 212.027 153.895 214.736 156.016 215.316H156.014Z" fill="white"/>
<path d="M204.723 218.487C204.693 218.487 204.661 218.476 204.635 218.457C204.575 218.41 204.564 218.32 204.611 218.26C206.527 215.838 209.048 210.799 212.102 203.282L212.179 203.096L212.329 203.233C214.166 204.923 218.739 209.058 221.571 210.977C221.635 211.02 221.652 211.108 221.61 211.172C221.567 211.237 221.479 211.254 221.415 211.211C218.643 209.33 214.217 205.348 212.289 203.577C209.258 211.014 206.749 216.012 204.834 218.436C204.806 218.47 204.765 218.489 204.725 218.489L204.723 218.487Z" fill="#5C49D8"/>
<path d="M232.48 210.29C232.45 210.29 232.422 210.282 232.397 210.262C232.334 210.215 232.322 210.127 232.367 210.065C232.553 209.814 232.718 209.541 232.861 209.253C234.736 205.492 231.545 199.186 231.513 199.124C231.468 199.008 227.399 188.763 222.256 179.973C220.49 176.953 218.913 174.836 217.571 173.683C217.136 173.193 216.593 172.837 215.989 172.642L210.508 170.776C210.435 170.75 210.394 170.671 210.42 170.598C210.446 170.525 210.525 170.484 210.598 170.51L216.077 172.373C216.728 172.584 217.312 172.966 217.768 173.481C219.12 174.64 220.717 176.781 222.5 179.83C227.654 188.638 231.729 198.903 231.769 199.006C231.898 199.257 235.053 205.49 233.114 209.378C232.964 209.681 232.788 209.966 232.593 210.23C232.566 210.267 232.523 210.288 232.48 210.288V210.29Z" fill="#5C49D8"/>
<path d="M216.591 238.926C217.168 238.926 219.292 238.346 227.973 237.764C236.654 237.185 241.863 238.539 241.863 238.539C241.863 238.539 244.757 239.701 244.757 242.604C244.757 245.506 243.021 247.441 241.09 247.829C239.162 248.216 228.55 248.991 225.464 248.604C222.378 248.218 215.818 246.67 214.082 244.927C212.346 243.183 216.591 238.928 216.591 238.928V238.926Z" fill="#382A73"/>
<path d="M208.575 198.042H201.052C199.986 198.042 199.38 197.211 199.697 196.187L204.979 179.125C205.296 178.101 206.418 177.27 207.484 177.27H215.007C216.073 177.27 216.678 178.101 216.362 179.125L211.079 196.187C210.763 197.211 209.641 198.042 208.575 198.042Z" fill="#382A73"/>
<path d="M180.129 218.607L203.278 219.769C203.278 219.769 219.482 212.609 224.884 211.641C230.286 210.672 233.758 211.061 236.266 214.737C238.775 218.414 237.809 224.992 233.373 229.057C228.936 233.121 218.519 238.151 218.519 238.151C218.519 238.151 202.507 244.536 196.72 245.697C190.933 246.859 190.16 246.859 190.16 246.859C190.16 246.859 188.232 247.634 187.459 238.344C186.686 229.057 183.6 232.152 183.6 232.152C183.6 232.152 180.129 218.026 180.129 218.607Z" fill="#FCAF17"/>
<path d="M177.428 247.245C177.428 247.245 165.275 242.408 160.643 234.473C156.014 226.538 155.821 221.121 157.172 217.25C158.522 213.379 166.046 212.413 166.046 212.413C166.046 212.413 169.712 211.834 177.813 215.509C185.916 219.187 209.065 232.925 209.065 232.925L213.117 235.441C213.117 235.441 214.275 238.151 211.381 242.022C208.487 245.893 205.208 245.504 205.208 245.504L188.039 240.085L184.373 242.019L182.057 246.663L177.428 247.243V247.245Z" fill="#FCAF17"/>
<path d="M185.916 241.066C185.916 241.066 182.057 239.892 175.499 239.892C168.941 239.892 163.152 240.283 161.609 241.653C160.066 243.022 159.1 245.369 160.066 247.127C161.031 248.888 162.931 250.992 168.939 251.039C176.285 251.097 178.971 251.234 184.565 249.083C190.16 246.932 189.002 243.02 189.002 243.02L185.916 241.064V241.066Z" fill="#382A73"/>
<path d="M188.039 239.699L183.859 240.731C183.859 240.731 183.022 243.183 184.373 245.118C185.723 247.052 186.494 247.827 186.494 247.827L192.281 246.472C192.281 246.472 190.393 245.083 189.002 242.99C187.459 240.667 188.037 239.701 188.037 239.701L188.039 239.699Z" fill="#FCC5B6"/>
<path d="M212.346 234.475L221.027 239.119C221.027 239.119 222.57 241.442 221.605 243.376C220.64 245.311 219.289 246.279 219.289 246.279L209.643 243.763C209.643 243.763 211.186 242.988 212.344 239.699C213.502 236.41 212.344 234.473 212.344 234.473L212.346 234.475Z" fill="#FCC5B6"/>
<path d="M218.134 193.643L216.71 186.584L212.177 184.43L206.366 184.325C206.024 184.319 205.797 184.68 205.949 184.987C206.285 185.667 206.976 186.096 207.732 186.094L210.36 186.088L213.213 186.998L208.937 187.569L206.242 189.237C205.63 189.615 205.414 190.405 205.746 191.043L206.394 192.293L206.623 194.287L207.616 195.382C208.143 195.962 208.924 196.241 209.699 196.123L210.405 196.015L211.957 198.285C212.988 199.058 215.109 200.384 216.344 200.019C218.112 199.496 219.118 197.632 218.587 195.861L218.129 193.641L218.134 193.643Z" fill="#FCB19C"/>
<path d="M191.703 194.418L195.138 190.038L198.148 187.477C198.364 187.292 198.606 187.138 198.863 187.02L202.418 185.375L202.426 185.439C202.572 186.637 201.977 187.88 200.9 188.621L198.638 190.182L203.903 189.179L207.946 187.163C208.633 186.766 209.459 186.792 210.031 187.232C210.658 187.713 211.011 188.46 210.996 189.278L210.968 190.978C210.949 192.123 210.409 193.254 209.493 194.066L205.613 197.505C205.178 197.889 204.671 198.186 204.128 198.368L193.403 201.526C192.499 201.793 191.526 201.464 190.965 200.702C189.901 199.253 189.843 197.293 190.821 195.783L191.703 194.422V194.418Z" fill="#FCC5B6"/>
<path d="M200.787 192.293C200.722 192.293 200.665 192.25 200.65 192.185C200.632 192.11 200.677 192.033 200.754 192.016L203.856 191.271C204.534 191.112 205.181 190.843 205.773 190.476L209.829 187.651C209.894 187.606 209.981 187.623 210.024 187.685C210.069 187.75 210.052 187.838 209.988 187.881L205.925 190.71C205.3 191.099 204.628 191.378 203.92 191.543L200.821 192.288C200.81 192.29 200.799 192.293 200.789 192.293H200.787Z" fill="#1A1A1A"/>
<path d="M201.551 194.761C201.489 194.761 201.433 194.72 201.416 194.658C201.394 194.583 201.437 194.506 201.512 194.484L204.209 193.707C204.778 193.54 205.322 193.293 205.825 192.975L210.285 189.692C210.347 189.645 210.435 189.66 210.482 189.722C210.529 189.785 210.514 189.873 210.452 189.92L205.983 193.207C205.45 193.544 204.883 193.802 204.288 193.978L201.589 194.755C201.576 194.759 201.564 194.761 201.551 194.761Z" fill="#1A1A1A"/>
<path d="M202.174 197.026C202.116 197.026 202.06 196.99 202.041 196.932C202.015 196.859 202.056 196.777 202.129 196.754L204.682 195.873C205.39 195.62 206.045 195.247 206.625 194.766L210.574 191.481C210.634 191.431 210.722 191.44 210.771 191.5C210.82 191.56 210.812 191.648 210.752 191.698L206.803 194.982C206.197 195.487 205.514 195.876 204.772 196.14L202.218 197.02C202.203 197.024 202.188 197.028 202.174 197.028V197.026Z" fill="#1A1A1A"/>
<path d="M194.287 163.929L192.052 169.765C191.703 170.673 191.577 171.654 191.678 172.622C192.011 175.774 194.794 178.078 197.942 177.811C199.102 177.713 200.125 177.008 200.633 175.956L205.039 166.817L194.287 163.929Z" fill="#FCC5B6"/>
<path d="M201.35 244.291C201.35 244.291 201.332 244.291 201.324 244.289C192.341 242.563 168.729 230.849 168.492 230.731C168.423 230.697 168.393 230.613 168.428 230.542C168.462 230.473 168.545 230.443 168.616 230.478C168.854 230.596 192.431 242.294 201.375 244.012C201.452 244.027 201.502 244.1 201.487 244.177C201.474 244.244 201.416 244.291 201.35 244.291Z" fill="white"/>
<path d="M211.381 234.035C211.358 234.035 211.336 234.029 211.315 234.018L185.272 219.698C185.203 219.662 185.18 219.576 185.216 219.507C185.252 219.438 185.338 219.412 185.407 219.451L211.45 233.771C211.518 233.808 211.542 233.894 211.505 233.962C211.48 234.009 211.432 234.035 211.381 234.035Z" fill="white"/>
<path d="M203.665 228.81C203.612 228.81 203.563 228.78 203.539 228.73C203.505 228.659 203.535 228.576 203.605 228.541L219.424 220.995C219.495 220.963 219.578 220.99 219.61 221.061C219.645 221.132 219.615 221.216 219.544 221.25L203.725 228.797C203.706 228.805 203.685 228.81 203.665 228.81Z" fill="white"/>
<path d="M197.491 223.198C197.433 223.198 197.379 223.161 197.358 223.103C197.332 223.03 197.371 222.948 197.443 222.923C200.104 221.969 204.136 219.855 204.177 219.835C204.245 219.799 204.331 219.827 204.367 219.896C204.404 219.964 204.376 220.05 204.307 220.087C204.267 220.108 200.217 222.231 197.538 223.191C197.523 223.198 197.506 223.2 197.491 223.2V223.198Z" fill="white"/>
<path d="M161.801 199.397C161.737 199.397 161.677 199.351 161.664 199.285C161.649 199.21 161.696 199.135 161.773 199.117C161.91 199.09 175.561 196.217 182.999 194.86L187.243 194.085H190.162C190.239 194.083 190.303 194.145 190.303 194.225C190.303 194.304 190.241 194.366 190.162 194.366H187.269L183.05 195.137C175.617 196.492 161.97 199.364 161.833 199.394C161.825 199.394 161.814 199.397 161.803 199.397H161.801Z" fill="#1A1A1A"/>
<path d="M173.571 211.973C173.507 211.973 173.451 211.93 173.434 211.866C173.415 211.791 173.462 211.713 173.536 211.696C180.368 210.03 189.627 205.457 190.256 205.144L192.166 202.273C192.208 202.209 192.296 202.189 192.36 202.235C192.425 202.277 192.442 202.365 192.399 202.43L190.449 205.363L190.415 205.38C190.318 205.429 180.672 210.245 173.601 211.971C173.59 211.973 173.579 211.975 173.566 211.975L173.571 211.973Z" fill="#1A1A1A"/>
<path d="M172.606 197.074C172.576 197.074 172.543 197.063 172.518 197.044C172.456 196.996 172.447 196.906 172.494 196.846L178.859 188.718C178.907 188.655 178.994 188.645 179.056 188.694C179.118 188.741 179.129 188.832 179.08 188.892L172.715 197.02C172.687 197.054 172.646 197.074 172.603 197.074H172.606Z" fill="#1A1A1A"/>
<path d="M229.708 198.621C229.683 198.621 229.655 198.615 229.631 198.598C225.976 196.215 222.633 195.216 222.356 195.137H219.097C219.02 195.137 218.956 195.075 218.956 194.995C218.956 194.916 219.018 194.854 219.097 194.854L222.414 194.858C222.449 194.869 225.952 195.86 229.783 198.359C229.847 198.402 229.867 198.488 229.824 198.555C229.798 198.596 229.751 198.619 229.706 198.619L229.708 198.621Z" fill="#1A1A1A"/>
<path d="M214.082 203.654C214.016 203.654 213.956 203.605 213.943 203.536L213.365 200.054C213.352 199.976 213.404 199.903 213.481 199.893C213.556 199.88 213.631 199.931 213.641 200.009L214.219 203.491C214.232 203.568 214.181 203.641 214.104 203.652C214.095 203.652 214.089 203.652 214.08 203.652L214.082 203.654Z" fill="#1A1A1A"/>
<path d="M212.049 162.242C212.567 161.325 212.856 160.297 213.14 159.281C213.279 158.785 213.419 158.287 213.558 157.791C213.723 157.205 213.887 156.604 213.832 155.996C213.772 155.346 213.436 154.713 212.892 154.35C212.348 153.987 211.604 153.929 211.036 154.253C210.6 154.504 210.307 154.938 210.031 155.359C209.641 155.949 209.251 156.542 208.864 157.132C208.475 157.725 208.079 158.33 207.882 159.011C207.561 160.125 207.803 161.323 208.151 162.429C208.295 162.879 208.462 163.335 208.774 163.687C209.971 165.029 211.452 163.294 212.047 162.24L212.049 162.242Z" fill="#5C49D8"/>
<path d="M212.657 152.254C211.944 150.74 210.281 149.924 208.667 149.512C205.457 148.69 201.962 149.04 198.974 150.483C197.914 150.996 196.898 151.655 196.161 152.576C194.736 154.36 194.537 156.842 193.484 158.858C193.238 158.695 192.955 158.583 192.664 158.544C191.872 158.439 191.063 158.808 190.526 159.401C189.989 159.994 189.7 160.784 189.604 161.578C189.49 162.501 189.636 163.497 190.209 164.229C190.999 165.236 192.371 165.522 193.63 165.739C193.099 168.002 193.895 170.43 195.158 172.308C196.645 174.522 198.848 175.907 201.459 176.422C203.822 176.888 205.936 175.932 207.332 173.996C208.556 172.296 209.089 170.204 209.596 168.169C210.694 163.77 211.79 159.369 212.888 154.97C213.108 154.09 213.044 153.074 212.657 152.256V152.254Z" fill="#FCC5B6"/>
<path d="M200.553 159.393C200.269 159.358 199.978 159.335 199.736 159.367C199.494 159.399 199.31 159.502 199.331 159.648C199.357 159.841 199.714 160.041 200.065 160.181C200.891 160.511 201.827 160.689 202.728 160.822C203.16 160.887 203.642 160.941 203.914 160.822C204.145 160.722 204.147 160.509 203.941 160.32C203.798 160.187 203.567 160.125 203.334 160.047C202.42 159.745 201.51 159.509 200.555 159.393H200.553Z" fill="#5C49D8"/>
<path d="M209.951 161.054C210.221 161.153 210.491 161.267 210.69 161.411C210.889 161.555 211.007 161.737 210.921 161.866C210.807 162.038 210.399 162.059 210.022 162.029C209.134 161.958 208.22 161.69 207.357 161.398C206.942 161.258 206.491 161.084 206.304 160.846C206.146 160.642 206.242 160.442 206.512 160.359C206.702 160.301 206.936 160.348 207.178 160.385C208.13 160.524 209.048 160.722 209.951 161.056V161.054Z" fill="#5C49D8"/>
<path d="M201.099 163.081C200.996 163.517 200.701 163.82 200.44 163.757C200.179 163.695 200.053 163.292 200.155 162.856C200.258 162.42 200.553 162.117 200.814 162.18C201.076 162.242 201.202 162.645 201.099 163.081Z" fill="#1A1A1A"/>
<path d="M207.884 164.766C207.781 165.202 207.486 165.505 207.225 165.443C206.963 165.38 206.837 164.977 206.94 164.541C207.043 164.105 207.338 163.802 207.599 163.865C207.86 163.927 207.987 164.33 207.884 164.766Z" fill="#1A1A1A"/>
<path d="M203.321 170.739C203.321 170.739 203.301 170.739 203.291 170.737C201.853 170.462 200.583 169.397 200.061 168.023C200.031 167.944 200.07 167.854 200.151 167.824C200.23 167.791 200.32 167.832 200.35 167.914C200.836 169.189 202.013 170.177 203.349 170.432C203.432 170.447 203.488 170.529 203.471 170.612C203.456 170.688 203.391 170.739 203.319 170.739H203.321Z" fill="black"/>
<path d="M200.341 176.167C200.331 176.167 200.318 176.167 200.305 176.163C198.571 175.755 196.953 174.825 195.748 173.546C194.173 171.873 193.27 169.591 193.27 167.289C193.27 167.203 193.338 167.135 193.424 167.135C193.51 167.135 193.578 167.203 193.578 167.289C193.578 169.514 194.449 171.716 195.971 173.333C197.133 174.567 198.698 175.467 200.374 175.862C200.457 175.881 200.508 175.965 200.489 176.049C200.472 176.12 200.408 176.169 200.339 176.169L200.341 176.167Z" fill="black"/>
<path d="M193.356 160.363C193.433 160.355 193.51 160.327 193.587 160.271C194.374 159.71 195.036 158.701 195.654 157.965C196.348 157.141 197.454 157.068 198.15 156.247C198.496 155.837 198.417 154.669 198.777 154.272C198.933 154.1 199.567 153.22 199.787 153.22C202.554 153.493 204.913 154.704 207.595 155.438C208.935 155.805 210.506 155.786 211.985 156.037C212.633 156.147 213.389 156.565 213.881 156.071C214.3 155.653 214.696 155.206 215.024 154.712C215.383 154.169 215.662 153.568 215.777 152.924C216.075 151.288 215.326 149.663 214.598 148.169C214.033 147.007 212.742 145.502 211.58 144.937C210.493 144.411 209.177 144.6 208.064 144.13C207.237 143.78 206.561 143.082 205.684 142.898C204.727 142.696 203.772 143.147 202.852 143.48C201.384 144.01 199.815 144.259 198.257 144.207C197.375 144.177 196.489 144.055 195.611 144.139C194.734 144.222 193.829 144.553 193.287 145.253C192.63 146.101 192.643 147.278 192.268 148.282C191.859 149.371 191.005 150.227 190.443 151.245C189.786 152.434 190.323 153.978 190.096 155.318C189.995 155.917 189.895 156.544 190.077 157.123C190.323 157.911 191.033 158.448 191.701 158.929C192.166 159.264 191.855 159.421 192.32 159.753C192.636 159.981 192.992 160.4 193.353 160.361L193.356 160.363Z" fill="#333333"/>
<path d="M205.226 163.517C205.275 163.74 205.399 163.942 205.508 164.146C205.808 164.698 206.03 165.286 206.167 165.891C206.199 166.031 206.225 166.177 206.187 166.312C206.133 166.497 205.968 166.63 205.801 166.733C205.311 167.038 204.731 167.193 204.164 167.343C204.021 167.381 203.852 167.414 203.734 167.323C203.61 167.231 203.61 167.055 203.633 166.909C203.74 166.222 204.081 165.591 204.205 164.908C204.305 164.348 204.258 163.764 204.369 163.206C204.406 163.027 204.459 162.847 204.579 162.708C204.699 162.568 204.898 162.478 205.086 162.523C205.266 162.566 205.41 162.757 205.339 162.922C205.251 163.128 205.174 163.281 205.228 163.517H205.226Z" fill="#FCC5B6"/>
<path d="M204.07 167.68C204.01 167.68 203.954 167.645 203.929 167.587C203.894 167.51 203.929 167.418 204.006 167.384L205.609 166.662C205.992 166.49 206.176 166.046 206.024 165.651L205.189 163.47C205.059 163.128 205.106 162.746 205.315 162.448C205.365 162.377 205.461 162.362 205.532 162.411C205.602 162.461 205.617 162.557 205.568 162.628C205.418 162.843 205.384 163.115 205.478 163.36L206.313 165.541C206.523 166.089 206.268 166.705 205.735 166.946L204.132 167.667C204.11 167.676 204.089 167.68 204.068 167.68H204.07Z" fill="black"/>
<path d="M193.762 158.852C194.075 158.974 194.383 159.146 194.573 159.423C194.798 159.745 194.835 160.164 194.8 160.554C194.766 160.947 194.661 161.355 194.389 161.643C194.141 161.907 193.781 162.042 193.424 162.087C192.797 162.167 192.14 161.984 191.641 161.593C191.414 161.415 191.213 161.183 191.158 160.902C191.1 160.606 191.207 160.305 191.314 160.024C191.429 159.719 190.939 159.3 191.055 158.996C191.13 158.798 191.791 158.65 192.022 158.596C192.555 158.47 193.266 158.659 193.76 158.852H193.762Z" fill="#FCC5B6"/>
<path d="M191.699 162.83C191.686 162.83 191.671 162.83 191.658 162.824C191.577 162.8 191.528 162.716 191.551 162.632C191.808 161.694 192.581 160.934 193.52 160.696C193.602 160.674 193.687 160.724 193.709 160.808C193.73 160.891 193.679 160.975 193.597 160.997C192.765 161.209 192.078 161.883 191.849 162.714C191.83 162.783 191.767 162.828 191.699 162.828V162.83Z" fill="black"/>
<path d="M197.3 180.826C196.016 180.826 194.734 180.523 193.608 179.909C191.134 178.561 189.503 175.759 189.546 172.933C189.546 172.856 189.61 172.805 189.689 172.794C189.766 172.794 189.828 172.858 189.828 172.938C189.786 175.66 191.361 178.361 193.743 179.66C196.127 180.959 199.244 180.815 201.497 179.299C201.561 179.256 201.649 179.273 201.692 179.338C201.735 179.402 201.718 179.49 201.653 179.533C200.38 180.39 198.839 180.826 197.302 180.826H197.3Z" fill="#1A1A1A"/>
<path d="M162.139 220.239C162.118 220.239 162.095 220.232 162.073 220.222C162.005 220.185 161.979 220.099 162.015 220.031C162.91 218.36 163.967 216.767 165.153 215.294C165.202 215.234 165.29 215.224 165.35 215.273C165.41 215.322 165.421 215.41 165.371 215.47C164.194 216.93 163.15 218.508 162.261 220.164C162.236 220.211 162.189 220.239 162.137 220.239H162.139Z" fill="white"/>
<path d="M236.604 216.574C236.589 216.574 236.572 216.572 236.557 216.566L233.229 215.364C233.156 215.338 233.118 215.256 233.146 215.183C233.171 215.11 233.253 215.072 233.325 215.099L236.654 216.302C236.726 216.327 236.765 216.409 236.737 216.482C236.716 216.54 236.662 216.574 236.604 216.574Z" fill="white"/>
<path d="M172.633 246.659C172.593 246.659 172.552 246.644 172.522 246.614C172.49 246.584 172.471 246.543 172.471 246.498L172.377 243.398C172.374 243.312 172.439 243.237 172.524 243.228L182.076 242.288C182.168 242.284 182.248 242.346 182.256 242.436C182.265 242.526 182.198 242.608 182.108 242.616L172.71 243.539L172.794 246.318L182.179 245.948C182.271 245.948 182.346 246.015 182.35 246.107C182.355 246.197 182.284 246.275 182.192 246.279L172.64 246.655C172.64 246.655 172.635 246.655 172.633 246.655V246.659Z" fill="white"/>
<path d="M163.511 248.843C163.456 248.843 163.4 248.813 163.37 248.761C162.167 246.709 162.306 243.935 163.706 242.013C163.76 241.94 163.862 241.923 163.937 241.977C164.01 242.03 164.027 242.133 163.974 242.209C162.647 244.027 162.516 246.653 163.655 248.594C163.7 248.673 163.674 248.774 163.597 248.819C163.571 248.834 163.541 248.843 163.514 248.843H163.511Z" fill="white"/>
<path d="M230.573 244.053C228.221 244.053 225.53 244.029 224.221 243.934C224.131 243.928 224.062 243.849 224.069 243.758C224.075 243.668 224.154 243.6 224.244 243.606C226.622 243.776 233.569 243.713 234.738 243.7L234.652 240.551L224.041 240.366C223.951 240.366 223.878 240.289 223.88 240.199C223.88 240.109 223.955 240.036 224.045 240.036C224.045 240.036 224.045 240.036 224.047 240.036L234.815 240.225C234.903 240.225 234.973 240.298 234.976 240.386L235.07 243.861C235.07 243.907 235.055 243.95 235.025 243.98C234.995 244.012 234.952 244.029 234.907 244.031C234.866 244.031 232.882 244.055 230.571 244.055L230.573 244.053Z" fill="white"/>
<path d="M241.732 245.526C241.7 245.526 241.67 245.517 241.643 245.498C241.568 245.446 241.546 245.345 241.598 245.268C242.597 243.759 242.571 241.67 241.538 240.184C241.486 240.109 241.503 240.006 241.578 239.954C241.653 239.901 241.756 239.92 241.807 239.995C242.918 241.588 242.944 243.832 241.872 245.45C241.839 245.498 241.788 245.523 241.735 245.523L241.732 245.526Z" fill="white"/>
<g opacity="0.2">
<path d="M152.812 253.1C211.238 253.1 258.602 251.758 258.602 250.103C258.602 248.448 211.238 247.106 152.812 247.106C94.3859 247.106 47.0221 248.448 47.0221 250.103C47.0221 251.758 94.3859 253.1 152.812 253.1Z" fill="#E1E1E1"/>
</g>
<defs>
<clipPath id="clip0_118_53879">
<rect width="231.388" height="200" fill="white" transform="translate(16 29)"/>
</clipPath>
</defs>
</svg>
