<svg width="24" height="24" viewBox="0 0 24 24" fill="none" xmlns="http://www.w3.org/2000/svg">
<g clip-path="url(#clip0_260_6510)">
<path d="M17.0105 13.951C16.6529 13.9596 16.3896 13.5659 16.5343 13.2385C16.7045 12.8179 17.3168 12.8175 17.4867 13.2385C17.6316 13.5658 17.3681 13.9597 17.0105 13.951Z" fill="black"/>
<path d="M22.0544 12.9131H21.5289C21.2944 12.0158 20.9077 11.1861 20.3752 10.438L22.4004 8.04365C22.5736 7.83896 22.5609 7.5357 22.3714 7.34611C21.3594 6.33414 19.8188 6.08333 18.5381 6.72205L17.9103 7.03511C17.6668 6.90509 17.4161 6.78425 17.1602 6.67298C17.0277 6.99518 16.8612 7.29989 16.6651 7.58267C17.0026 7.72558 17.3303 7.88701 17.643 8.06522C17.7925 8.15034 17.9745 8.15544 18.1284 8.07862L18.9982 7.64482C19.7381 7.27589 20.6036 7.33725 21.2754 7.77695L19.3219 10.0865C19.1628 10.2745 19.159 10.5488 19.3127 10.7412C19.9639 11.5564 20.4019 12.4954 20.6147 13.5323C20.6639 13.7721 20.875 13.9443 21.1198 13.9443H22.0544C22.5583 13.9443 22.9683 14.3543 22.9683 14.8582V16.2877C22.9683 16.7916 22.5583 17.2016 22.0544 17.2016C21.9328 17.2016 20.8609 17.2018 20.6719 17.2099C20.4753 17.2183 20.3006 17.3378 20.2216 17.518C19.7512 18.5912 19.0075 19.5468 18.1276 20.2089C17.9988 20.3057 17.9228 20.4571 17.9219 20.6182C17.921 20.7852 17.92 21.423 17.9191 22.0546C17.9197 22.8647 16.9185 23.2726 16.3445 22.7123C16.1803 22.548 16.0899 22.3296 16.0901 22.0973C16.0904 21.7987 16.0906 21.5615 16.0909 21.4824C16.0981 21.099 15.6673 20.8407 15.3327 21.0259C14.1557 21.6987 11.2759 21.699 10.0982 21.0265C9.93841 20.9416 9.74572 20.9465 9.59052 21.0396C9.43528 21.1328 9.34037 21.3006 9.34037 21.4817V22.098C9.34037 22.5773 8.95053 22.9672 8.47136 22.9672C7.95268 22.9916 7.50955 22.5763 7.51034 22.0549C7.50922 21.373 7.50781 20.6482 7.50669 20.3812C7.50599 20.209 7.41932 20.0485 7.2757 19.9534C2.17481 16.5648 3.17858 9.89093 8.76351 7.58047C8.56806 7.2983 8.40208 6.99433 8.26991 6.67298C4.94668 8.11724 2.84579 11.0541 2.91009 14.2868C2.47259 14.1912 2.06795 13.9744 1.73829 13.6522C1.28303 13.2071 1.03226 12.6201 1.03226 11.9992C1.03226 11.7145 0.801417 11.4836 0.51667 11.4836C0.231923 11.4836 0.00107815 11.7145 0.00107815 11.9992C-0.0337477 13.6612 1.36515 15.1816 3.00979 15.3481C3.35969 17.4163 4.59711 19.33 6.47649 20.656C6.47743 21.0037 6.47841 21.5424 6.4793 22.0566C6.55875 24.5138 10.0872 24.6956 10.3661 22.2442C11.689 22.674 13.7419 22.674 15.0646 22.244C15.1197 23.2244 16.0222 24.0408 17.0053 23.9984C18.0764 23.9984 18.9489 23.1271 18.9504 22.0561C18.951 21.6074 18.9517 21.1556 18.9524 20.8726C19.7991 20.1836 20.5224 19.2632 21.0253 18.2358C21.3176 18.2337 21.7456 18.2328 22.0545 18.2328C23.127 18.2328 23.9996 17.3603 23.9996 16.2877V14.8582C23.9995 13.7857 23.127 12.9131 22.0544 12.9131Z" fill="#717171" stroke="#717171"/>
<path d="M16.2888 9.65581H9.1413C8.85655 9.65581 8.62571 9.42497 8.62571 9.14022C8.62571 8.85547 8.85655 8.62463 9.1413 8.62463H16.2888C16.5736 8.62463 16.8044 8.85547 16.8044 9.14022C16.8044 9.42497 16.5736 9.65581 16.2888 9.65581Z" fill="#717171" stroke="#717171"/>
<path d="M12.7151 6.29676C11.9187 6.29676 11.27 5.64808 11.27 4.85171C11.27 4.05533 11.9187 3.40662 12.7151 3.40662C13.5114 3.40662 14.1602 4.05533 14.1602 4.85171C14.1602 5.64808 13.5115 6.29676 12.7151 6.29676ZM12.7151 3.4378C11.935 3.4378 11.3012 4.07165 11.3012 4.85171C11.3012 5.63181 11.935 6.26557 12.7151 6.26557C13.4951 6.26557 14.129 5.63181 14.129 4.85171C14.129 4.07166 13.4952 3.4378 12.7151 3.4378Z" fill="#FCAF17" stroke="#FCAF17"/>
<path d="M9.74404 8.62463H12.7147C10.6343 8.62463 8.94178 6.93213 8.94178 4.85177C8.94178 3.8413 9.33569 2.88492 10.051 2.15864C10.7671 1.43161 11.7131 1.03118 12.7147 1.03118C13.7163 1.03118 14.6623 1.43161 15.3784 2.15864C16.0937 2.88492 16.4876 3.8413 16.4876 4.85177C16.4876 6.93213 14.7951 8.62463 12.7147 8.62463H15.6853C16.8012 7.74414 17.5187 6.38021 17.5187 4.85177C17.5187 3.56888 17.0196 2.35546 16.1131 1.43508C15.2017 0.509639 13.9948 0 12.7147 0C11.4346 0 10.2277 0.509639 9.31629 1.43508C8.40983 2.35546 7.9106 3.56883 7.9106 4.85177C7.91065 6.38021 8.62816 7.74414 9.74404 8.62463Z" fill="#FCAF17" stroke="#FCAF17"/>
</g>
<defs>
<clipPath id="clip0_260_6510">
<rect width="24" height="24" fill="white"/>
</clipPath>
</defs>
</svg>
