<svg width="14" height="14" viewBox="0 0 14 14" fill="none" xmlns="http://www.w3.org/2000/svg">
<path opacity="0.01" fill-rule="evenodd" clip-rule="evenodd" d="M9.17187e-05 14V0H14.0001V14H9.17187e-05Z" fill="#A9BACB"/>
<path fill-rule="evenodd" clip-rule="evenodd" d="M10.7413 8.06054L7.14766 12.6801C7.10986 12.7245 7.0545 12.7501 6.99621 12.7501C6.93792 12.7501 6.88256 12.7245 6.84476 12.6801L3.25108 8.06054C3.20536 8.0028 3.19687 7.92394 3.22927 7.85779C3.26189 7.7919 3.32901 7.75016 3.40253 7.75H10.5899C10.6634 7.75015 10.7305 7.7919 10.7632 7.85779C10.7955 7.92394 10.7871 8.0028 10.7413 8.06054H10.7413Z" fill="black"/>
<path opacity="0.4" fill-rule="evenodd" clip-rule="evenodd" d="M10.7414 5.93856L7.14783 1.31903C7.11003 1.27466 7.05467 1.2491 6.99638 1.2491C6.93809 1.2491 6.88273 1.27466 6.84493 1.31903L3.25131 5.93856C3.20559 5.9963 3.1971 6.07516 3.2295 6.14131C3.26212 6.20719 3.32924 6.24894 3.40276 6.2491H10.59C10.6635 6.24895 10.7306 6.2072 10.7633 6.14132C10.7957 6.07517 10.7872 5.99631 10.7415 5.93857L10.7414 5.93856Z" fill="black"/>
</svg>
