<svg width="16" height="24" viewBox="0 0 16 24" fill="none" xmlns="http://www.w3.org/2000/svg">
<path opacity="0.01" fill-rule="evenodd" clip-rule="evenodd" d="M0 24V0H16V24H0Z" fill="black"/>
<path fill-rule="evenodd" clip-rule="evenodd" d="M14.6322 11.1711C14.6322 10.9511 14.5454 10.7403 14.3894 10.5848C14.2342 10.4293 14.0232 10.342 13.8036 10.342C13.5831 10.342 13.373 10.4293 13.217 10.5848C13.0618 10.7403 12.9742 10.9511 12.9742 11.1711C12.9742 12.4904 12.4505 13.7557 11.5177 14.6886C10.5841 15.6215 9.3193 16.1456 7.99968 16.1456C6.68004 16.1456 5.4153 15.6215 4.48247 14.6886C3.54964 13.7557 3.0251 12.4904 3.0251 11.1711C3.0251 10.9511 2.93758 10.7403 2.78236 10.5848C2.62718 10.4293 2.41624 10.342 2.19578 10.342C1.97605 10.342 1.76518 10.4293 1.60996 10.5848C1.45395 10.7403 1.36719 10.9511 1.36719 11.1711C1.36881 12.7855 1.95859 14.3441 3.0275 15.5545C4.09565 16.7645 5.56891 17.5437 7.17029 17.7459V19.4619H5.51239C5.29272 19.4619 5.08179 19.5495 4.92657 19.7047C4.77056 19.8607 4.68304 20.0708 4.68304 20.2913C4.68304 20.511 4.77056 20.7219 4.92657 20.8771C5.08178 21.0331 5.29272 21.1199 5.51239 21.1199H10.4869C10.7066 21.1199 10.9175 21.0331 11.0735 20.8771C11.2288 20.7219 11.3163 20.511 11.3163 20.2913C11.3163 20.0708 11.2288 19.8607 11.0735 19.7047C10.9175 19.5495 10.7066 19.4619 10.4869 19.4619H8.82904V17.7459C10.4304 17.5437 11.9037 16.7645 12.9726 15.5545C14.0407 14.3441 14.6313 12.7855 14.6321 11.1711H14.6322ZM6.34179 6.19652C6.34179 5.75678 6.51608 5.33501 6.82729 5.02404C7.13848 4.71307 7.56029 4.53836 7.99968 4.53836C8.43984 4.53836 8.86168 4.71307 9.17207 5.02404C9.48332 5.33501 9.6576 5.75677 9.6576 6.19652V11.1711C9.6576 11.6109 9.48331 12.0327 9.17207 12.3436C8.86168 12.6546 8.43983 12.8292 7.99968 12.8292C7.56029 12.8292 7.13847 12.6546 6.82729 12.3436C6.51607 12.0327 6.34179 11.6109 6.34179 11.1711V6.19652ZM7.99969 14.4875C8.87921 14.4875 9.72287 14.1381 10.3445 13.5161C10.9669 12.8942 11.3163 12.0507 11.3163 11.1711V6.19652C11.3163 5.31695 10.9669 4.47342 10.3445 3.85148C9.72287 3.22955 8.87921 2.88013 7.99969 2.88013C7.12017 2.88013 6.27651 3.22955 5.65487 3.85148C5.03243 4.47342 4.68307 5.31695 4.68307 6.19652V11.1711C4.68307 12.0507 5.03244 12.8942 5.65487 13.5161C6.27651 14.1381 7.12017 14.4875 7.99969 14.4875Z" fill="black"/>
</svg>
