<svg width="24" height="24" viewBox="0 0 24 24" fill="none" xmlns="http://www.w3.org/2000/svg">
<g clip-path="url(#clip0_260_6427)">
<path d="M11.25 20.25L9.75 23.25H3V22.875L4.5 20.25H4.875H6.375H11.25Z" fill="#FCAF17"/>
<path d="M18 20.25L16.5 23.25L15 20.25H18Z" fill="#FCAF17"/>
<path d="M15 20.25L16.5 23.25H9.75L11.25 20.25H11.625H13.125H15Z" fill="#FCAF17"/>
<path d="M23.25 22.875V23.25H16.5L18 20.25H19.875H21.75L23.25 22.875Z" fill="#FCAF17"/>
<path d="M14.625 17.25L13.125 20.25H11.625H11.25H6.375L7.125 18.75L7.875 17.25H14.625Z" fill="#FCAF17"/>
<path d="M18.375 17.25L19.875 20.25H18H15H13.125L14.625 17.25H15.375H16.5H18.375Z" fill="#FCAF17"/>
<path d="M10.5 11.5688V11.625C10.5 12.0375 10.3312 12.4125 10.0612 12.6863C9.7875 12.9563 9.4125 13.125 9 13.125C8.17125 13.125 7.5 12.4538 7.5 11.625V11.5688C7.5 11.3588 7.545 11.1525 7.6275 10.9575L9 7.875L10.3725 10.9575C10.455 11.1525 10.5 11.3588 10.5 11.5688Z" fill="#FCAF17"/>
<path d="M21.9675 19.875H20.1068L18.6068 16.875H16.875V16.125C17.2886 16.125 17.625 15.7886 17.625 15.375V14.625C17.625 14.2114 17.2886 13.875 16.875 13.875V11.625C17.2886 11.625 17.625 11.2886 17.625 10.875V10.125C17.625 9.71138 17.2886 9.375 16.875 9.375V7.125C17.2886 7.125 17.625 6.78862 17.625 6.375V5.625C17.625 5.21138 17.2886 4.875 16.875 4.875V2.625C17.2886 2.625 17.625 2.28863 17.625 1.875V1.125C17.625 0.711375 17.2886 0.375 16.875 0.375H1.125C0.711375 0.375 0.375 0.711375 0.375 1.125V1.875C0.375 2.28863 0.711375 2.625 1.125 2.625V4.875C0.711375 4.875 0.375 5.21138 0.375 5.625V6.375C0.375 6.78862 0.711375 7.125 1.125 7.125V9.375C0.711375 9.375 0.375 9.71138 0.375 10.125V10.875C0.375 11.2886 0.711375 11.625 1.125 11.625V13.875C0.711375 13.875 0.375 14.2114 0.375 14.625V15.375C0.375 15.7886 0.711375 16.125 1.125 16.125V18.375C0.711375 18.375 0.375 18.7114 0.375 19.125V19.875C0.375 20.2886 0.711375 20.625 1.125 20.625H3.85388L2.625 22.7752V23.625H23.625V22.7752L21.9675 19.875ZM19.2682 19.875H17.7682H15.2318H13.7318L14.8568 17.625H15.375H18.1432L19.2682 19.875ZM8.10675 17.625H14.0182L12.8932 19.875H11.625H11.0182H6.98175L8.10675 17.625ZM11.625 20.625H12.5182H14.7682L15.8932 22.875H10.3568L11.4818 20.625H11.625ZM15.6068 20.625H17.3932L16.5 22.4115L15.6068 20.625ZM16.125 13.875H11.9666C12.633 13.2885 13.1231 12.51 13.3519 11.625H16.125V13.875ZM5.25 10.5C5.25 8.43225 6.93225 6.75 9 6.75C11.0677 6.75 12.75 8.43225 12.75 10.5C12.75 12.5677 11.0677 14.25 9 14.25C6.93225 14.25 5.25 12.5677 5.25 10.5ZM16.875 10.875H13.4809C13.4914 10.7509 13.5 10.6267 13.5 10.5C13.5 10.3733 13.4914 10.2491 13.4809 10.125H16.875V10.875ZM16.125 9.375H13.3519C13.1228 8.49038 12.633 7.7115 11.9666 7.125H16.125V9.375ZM1.125 1.125H16.875L16.8754 1.875H1.125V1.125ZM1.875 2.625H16.125V4.875H1.875V2.625ZM1.125 5.625H16.875V6.375H10.7929C10.2431 6.135 9.6375 6 9 6C8.3625 6 7.75687 6.135 7.20712 6.375H1.125V5.625ZM1.875 7.125H6.03338C5.367 7.7115 4.87688 8.49038 4.64813 9.375H1.875V7.125ZM1.125 10.125H4.51912C4.50863 10.2491 4.5 10.3733 4.5 10.5C4.5 10.6267 4.50863 10.7509 4.51912 10.875H1.125V10.125ZM1.875 11.625H4.64813C4.87725 12.51 5.367 13.2885 6.03338 13.875H1.875V11.625ZM1.125 14.625H7.20675C7.7565 14.865 8.3625 15 9 15C9.6375 15 10.2431 14.865 10.7933 14.625H16.875V15.375H1.125V14.625ZM1.875 16.125H16.125V16.875H15.375H14.3932H7.64325L6.89325 18.375H1.875V16.125ZM1.125 19.875V19.125H6.51825L6.14325 19.875H4.875H4.2825H1.125ZM4.7175 20.625H4.875H10.6432L9.51825 22.875H3.432L4.7175 20.625ZM17.1068 22.875L18.2318 20.625H20.4818H21.5325L22.818 22.875H17.1068Z" fill="#717171" stroke="#717171" stroke-width="0.3"/>
<path d="M10.875 11.625V11.5684C10.875 11.3048 10.8206 11.0486 10.7134 10.8068L9 6.95175L7.28662 10.8068C7.17937 11.0483 7.125 11.3048 7.125 11.5684V11.625C7.125 12.6589 7.96613 13.5 9 13.5C10.0339 13.5 10.875 12.6589 10.875 11.625ZM7.875 11.625V11.5684C7.875 11.4101 7.90762 11.2564 7.97175 11.1116L9 8.79825L10.0279 11.1113C10.0924 11.2564 10.125 11.4101 10.125 11.5684V11.625C10.125 12.2453 9.62025 12.75 9 12.75C8.37975 12.75 7.875 12.2453 7.875 11.625Z" fill="#717171" stroke="#717171" stroke-width="0.3"/>
</g>
<defs>
<clipPath id="clip0_260_6427">
<rect width="24" height="24" fill="white"/>
</clipPath>
</defs>
</svg>
