<svg width="18" height="18" viewBox="0 0 18 18" fill="none" xmlns="http://www.w3.org/2000/svg">
<path opacity="0.01" fill-rule="evenodd" clip-rule="evenodd" d="M9.00018 18C4.02962 18 0.00018 13.9706 0.00018 9C0.00018 4.02944 4.02962 0 9.00018 0C13.9707 0 18.0002 4.02944 18.0002 9C18.0002 13.9706 13.9707 18 9.00018 18Z" fill="black"/>
<path d="M9.00012 17.5C4.3057 17.5 0.50012 13.6944 0.50012 9C0.50012 4.30558 4.3057 0.5 9.00012 0.5C13.6945 0.5 17.5001 4.30558 17.5001 9C17.5001 13.6944 13.6945 17.5 9.00012 17.5Z" fill="white" stroke="#FCAF17"/>
<path opacity="0.3" fill-rule="evenodd" clip-rule="evenodd" d="M9.00012 12C7.34327 12 6.00012 10.6569 6.00012 9C6.00012 7.34315 7.34327 6 9.00012 6C10.657 6 12.0001 7.34315 12.0001 9C12.0001 10.6569 10.657 12 9.00012 12Z" fill="black"/>
</svg>
