<svg width="26" height="20" viewBox="0 0 26 20" fill="none" xmlns="http://www.w3.org/2000/svg">
<rect x="1.4629" y="2.18043" width="2.1943" height="9.50865" fill="#FCAF17"/>
<rect x="21.943" y="4.37466" width="2.1943" height="14.6287" fill="#FCAF17"/>
<rect x="8.04595" y="8.03191" width="2.1943" height="10.2401" fill="#FCAF17"/>
<rect x="15.36" y="4.37466" width="2.1943" height="2.1943" fill="#FCAF17"/>
<path fill-rule="evenodd" clip-rule="evenodd" d="M17.065 5.99994H15.565V4.49998H17.065V5.99994ZM17.8155 3.00008H17.0651V0.750405C17.0651 0.335971 16.7291 0 16.3155 0C15.901 0 15.565 0.335971 15.565 0.750405V3.00008H14.8154C14.401 3.00008 14.065 3.33597 14.065 3.75041V6.75041C14.065 7.16408 14.401 7.50005 14.8154 7.50005H15.565V9.75049C15.565 10.1641 15.901 10.5001 16.3155 10.5001C16.7291 10.5001 17.0651 10.1641 17.0651 9.75049V7.50005H17.8155C18.2291 7.50005 18.5651 7.16408 18.5651 6.75041V3.75041C18.5651 3.33597 18.2291 3.00008 17.8155 3.00008Z" fill="#717171"/>
<path fill-rule="evenodd" clip-rule="evenodd" d="M3.00072 11.0001H1.50069V2.50004H3.00072V11.0001ZM3.75045 1.00001H0.750405C0.336008 1.00001 0 1.33598 0 1.75041V11.7505C0 12.1641 0.336008 12.5001 0.750405 12.5001H1.50001V17.7505C1.50001 18.1642 1.83602 18.5001 2.24962 18.5001C2.66403 18.5001 3.00004 18.1642 3.00004 17.7505V12.5001H3.75045C4.16404 12.5001 4.50005 12.1641 4.50005 11.7505V1.75041C4.50005 1.33598 4.16404 1.00001 3.75045 1.00001Z" fill="#717171"/>
<path fill-rule="evenodd" clip-rule="evenodd" d="M24.1012 18.5H22.6012V4.99991H24.1012V18.5ZM24.8508 3.4999H21.8508C21.4372 3.4999 21.1012 3.83587 21.1012 4.24954V19.2496C21.1012 19.664 21.4372 20 21.8508 20H24.8508C25.2652 20 25.6013 19.664 25.6013 19.2496V4.24954C25.6013 3.83587 25.2652 3.4999 24.8508 3.4999Z" fill="#717171"/>
<path fill-rule="evenodd" clip-rule="evenodd" d="M10.034 17.5503H8.53395V9.04953H10.034V17.5503ZM10.7829 7.55032H10.0333V5.29996C10.0333 4.88553 9.69728 4.55032 9.28287 4.55032C8.86926 4.55032 8.53327 4.88553 8.53327 5.29996V7.55032H7.78285C7.36925 7.55032 7.03325 7.88561 7.03325 8.29996V18.3001C7.03325 18.7145 7.36925 19.0497 7.78285 19.0497H10.7829C11.1973 19.0497 11.5333 18.7145 11.5333 18.3001V8.29996C11.5333 7.88561 11.1973 7.55032 10.7829 7.55032Z" fill="#717171"/>
</svg>
