<svg width="201" height="173" viewBox="0 0 201 173" fill="none" xmlns="http://www.w3.org/2000/svg">
<path d="M189.104 22.0669C189.813 21.7111 190.099 20.8479 189.743 20.1389C189.387 19.4299 188.524 19.1436 187.815 19.4994C187.106 19.8552 186.82 20.7184 187.176 21.4274C187.531 22.1364 188.395 22.4227 189.104 22.0669Z" fill="#F59D1B"/>
<path d="M170.116 19.8349C172.539 18.13 175.826 18.6286 175.826 18.6286C175.826 18.6286 175.186 21.892 172.764 23.5977C170.341 25.3025 167.053 24.804 167.053 24.804C167.053 24.804 167.693 21.5406 170.116 19.8349Z" fill="#EF781C"/>
<path d="M165 13.2873C165.955 10.1804 169.141 8.4036 169.141 8.4036C169.141 8.4036 170.779 11.6636 169.825 14.7705C168.87 17.8774 165.683 19.6542 165.683 19.6542C165.683 19.6542 164.045 16.3942 165 13.2873Z" fill="#241A44"/>
<path d="M23.4571 53.1543C25.6999 55.9542 25.3435 59.9654 25.3435 59.9654C25.3435 59.9654 21.3516 59.4367 19.1088 56.6368C16.866 53.8369 17.2224 49.8257 17.2224 49.8257C17.2224 49.8257 21.2144 50.3544 23.4571 53.1543Z" fill="#241A44"/>
<path d="M15.4975 58.1435C19.0712 58.4597 21.7222 61.4913 21.7222 61.4913C21.7222 61.4913 18.5793 64.0093 15.0065 63.6931C11.4328 63.3769 8.78176 60.3452 8.78176 60.3452C8.78176 60.3452 11.9246 57.8273 15.4975 58.1435Z" fill="#ED6D1E"/>
<path d="M162.325 172.432C161.874 173.049 161.009 173.184 160.392 172.734C159.775 172.284 159.639 171.419 160.089 170.802C160.539 170.185 161.404 170.049 162.022 170.499C162.639 170.949 162.775 171.814 162.325 172.432Z" fill="#F59D1B"/>
<path d="M199.811 104.55C200.313 103.975 200.254 103.102 199.679 102.599C199.104 102.097 198.23 102.156 197.728 102.731C197.225 103.306 197.284 104.18 197.86 104.682C198.435 105.184 199.308 105.125 199.811 104.55Z" fill="#F59D1B"/>
<path d="M2.42423 94.618C2.92667 94.0429 2.86774 93.1693 2.29259 92.6669C1.71744 92.1644 0.843887 92.2234 0.341448 92.7985C-0.160991 93.3737 -0.102049 94.2472 0.473096 94.7497C1.04824 95.2521 1.92179 95.1931 2.42423 94.618Z" fill="#F59D1B"/>
<path d="M48.4986 2.29255C49.001 1.7174 48.9421 0.843844 48.3669 0.341405C47.7918 -0.161034 46.9182 -0.102092 46.4158 0.473054C45.9134 1.0482 45.9723 1.92175 46.5474 2.42419C47.1226 2.92663 47.9961 2.86769 48.4986 2.29255Z" fill="#F59D1B"/>
<path d="M168.982 165.828C171.454 167.749 171.966 171.224 171.966 171.224C171.966 171.224 168.471 171.586 166 169.665C163.529 167.744 163.017 164.269 163.017 164.269C163.017 164.269 166.511 163.907 168.982 165.828Z" fill="#241A44"/>
</svg>
