<svg width="24" height="24" viewBox="0 0 24 24" fill="none" xmlns="http://www.w3.org/2000/svg">
<path opacity="0.01" d="M0.25 23.75V0.25H23.75V23.75H0.25Z" fill="black" stroke="black" stroke-width="0.5"/>
<path fill-rule="evenodd" clip-rule="evenodd" d="M17.4576 20.2229C16.2539 20.2229 15.2746 19.2436 15.2746 18.0399C15.2746 16.8361 16.2539 15.8568 17.4576 15.8568C18.6614 15.8568 19.6407 16.8361 19.6407 18.0399C19.6407 19.2436 18.6614 20.2229 17.4576 20.2229ZM6.54221 14.7288C5.33846 14.7288 4.35912 13.7495 4.35912 12.5458C4.35912 11.342 5.33845 10.3627 6.54221 10.3627C7.74596 10.3627 8.7253 11.342 8.7253 12.5458C8.7253 13.7495 7.74597 14.7288 6.54221 14.7288ZM17.4576 3.77703C18.6614 3.77703 19.6407 4.75636 19.6407 5.96012C19.6407 7.16387 18.6614 8.14321 17.4576 8.14321C16.2539 8.14321 15.2746 7.16388 15.2746 5.96012C15.2746 4.75637 16.2539 3.77703 17.4576 3.77703ZM17.4576 14.7652C16.3793 14.7652 15.4212 15.2892 14.8242 16.0959L9.68411 13.4691C9.77035 13.1761 9.81684 12.8663 9.81684 12.5458C9.81684 12.1117 9.73173 11.6971 9.57765 11.3177L14.9648 8.08095C15.5658 8.78645 16.4603 9.23475 17.4576 9.23475C19.2633 9.23475 20.7323 7.76575 20.7323 5.96012C20.7323 4.15449 19.2633 2.68549 17.4576 2.68549C15.652 2.68549 14.183 4.15449 14.183 5.96012C14.183 6.37745 14.2616 6.7767 14.4046 7.14408L9.00401 10.3889C8.40337 9.70418 7.52246 9.27113 6.54221 9.27113C4.73658 9.27113 3.26758 10.7401 3.26758 12.5458C3.26758 14.3514 4.73658 15.8204 6.54221 15.8204C7.63819 15.8204 8.61003 15.2791 9.20474 14.4499L14.3299 17.0691C14.2345 17.3759 14.183 17.702 14.183 18.0399C14.183 19.8455 15.652 21.3145 17.4576 21.3145C19.2633 21.3145 20.7323 19.8455 20.7323 18.0399C20.7323 16.2342 19.2633 14.7652 17.4576 14.7652V14.7652Z" fill="black"/>
<path d="M17.4576 14.7652V15.0152H17.7076V14.7652H17.4576ZM14.8242 16.0959L14.7104 16.3185L14.8991 16.4149L15.0251 16.2446L14.8242 16.0959ZM9.68411 13.4691L9.44428 13.3985L9.38574 13.5973L9.57034 13.6917L9.68411 13.4691ZM9.57765 11.3177L9.44889 11.1034L9.26554 11.2135L9.34602 11.4117L9.57765 11.3177ZM14.9648 8.08095L15.1551 7.91882L15.0177 7.75752L14.836 7.86665L14.9648 8.08095ZM14.4046 7.14408L14.5334 7.35837L14.714 7.24983L14.6376 7.05342L14.4046 7.14408ZM9.00401 10.3889L8.81607 10.5537L8.95377 10.7107L9.13276 10.6032L9.00401 10.3889ZM9.20474 14.4499L9.3185 14.2273L9.12695 14.1294L9.00159 14.3042L9.20474 14.4499ZM14.3299 17.0691L14.5686 17.1433L14.6311 16.9423L14.4437 16.8465L14.3299 17.0691ZM17.4576 14.7652V14.5152H17.2076V14.7652H17.4576ZM17.4576 19.9729C16.392 19.9729 15.5246 19.1055 15.5246 18.0399H15.0246C15.0246 19.3817 16.1158 20.4729 17.4576 20.4729V19.9729ZM15.5246 18.0399C15.5246 16.9742 16.392 16.1068 17.4576 16.1068V15.6068C16.1158 15.6068 15.0246 16.698 15.0246 18.0399H15.5246ZM17.4576 16.1068C18.5233 16.1068 19.3907 16.9742 19.3907 18.0399H19.8907C19.8907 16.698 18.7995 15.6068 17.4576 15.6068V16.1068ZM19.3907 18.0399C19.3907 19.1055 18.5233 19.9729 17.4576 19.9729V20.4729C18.7995 20.4729 19.8907 19.3817 19.8907 18.0399H19.3907ZM6.54221 14.4788C5.47653 14.4788 4.60912 13.6114 4.60912 12.5458H4.10912C4.10912 13.8876 5.20039 14.9788 6.54221 14.9788V14.4788ZM4.60912 12.5458C4.60912 11.4801 5.47652 10.6127 6.54221 10.6127V10.1127C5.20038 10.1127 4.10912 11.2039 4.10912 12.5458H4.60912ZM6.54221 10.6127C7.60789 10.6127 8.4753 11.4801 8.4753 12.5458H8.9753C8.9753 11.2039 7.88403 10.1127 6.54221 10.1127V10.6127ZM8.4753 12.5458C8.4753 13.6114 7.6079 14.4788 6.54221 14.4788V14.9788C7.88404 14.9788 8.9753 13.8876 8.9753 12.5458H8.4753ZM17.4576 4.02703C18.5233 4.02703 19.3907 4.89443 19.3907 5.96012H19.8907C19.8907 4.61828 18.7995 3.52703 17.4576 3.52703V4.02703ZM19.3907 5.96012C19.3907 7.0258 18.5233 7.89321 17.4576 7.89321V8.39321C18.7995 8.39321 19.8907 7.30194 19.8907 5.96012H19.3907ZM17.4576 7.89321C16.392 7.89321 15.5246 7.0258 15.5246 5.96012H15.0246C15.0246 7.30195 16.1158 8.39321 17.4576 8.39321V7.89321ZM15.5246 5.96012C15.5246 4.89444 16.392 4.02703 17.4576 4.02703V3.52703C16.1158 3.52703 15.0246 4.6183 15.0246 5.96012H15.5246ZM17.4576 14.5152C16.2965 14.5152 15.2652 15.0798 14.6232 15.9471L15.0251 16.2446C15.5772 15.4987 16.4622 15.0152 17.4576 15.0152V14.5152ZM14.938 15.8733L9.79787 13.2465L9.57034 13.6917L14.7104 16.3185L14.938 15.8733ZM9.92393 13.5397C10.0168 13.2242 10.0668 12.8906 10.0668 12.5458H9.56684C9.56684 12.842 9.52389 13.128 9.44428 13.3985L9.92393 13.5397ZM10.0668 12.5458C10.0668 12.0787 9.97523 11.6323 9.80928 11.2236L9.34602 11.4117C9.48823 11.762 9.56684 12.1446 9.56684 12.5458H10.0668ZM9.7064 11.532L15.0935 8.29524L14.836 7.86665L9.44889 11.1034L9.7064 11.532ZM14.7745 8.24308C15.4208 9.00173 16.3837 9.48475 17.4576 9.48475V8.98475C16.5369 8.98475 15.7109 8.57116 15.1551 7.91882L14.7745 8.24308ZM17.4576 9.48475C19.4013 9.48475 20.9823 7.90382 20.9823 5.96012H20.4823C20.4823 7.62767 19.1252 8.98475 17.4576 8.98475V9.48475ZM20.9823 5.96012C20.9823 4.01641 19.4013 2.43549 17.4576 2.43549V2.93549C19.1252 2.93549 20.4823 4.29256 20.4823 5.96012H20.9823ZM17.4576 2.43549C15.5139 2.43549 13.933 4.01641 13.933 5.96012H14.433C14.433 4.29256 15.7901 2.93549 17.4576 2.93549V2.43549ZM13.933 5.96012C13.933 6.40908 14.0176 6.83904 14.1716 7.23473L14.6376 7.05342C14.5056 6.71435 14.433 6.34581 14.433 5.96012H13.933ZM14.2758 6.92978L8.87526 10.1746L9.13276 10.6032L14.5334 7.35837L14.2758 6.92978ZM9.19194 10.224C8.54604 9.48771 7.59771 9.02113 6.54221 9.02113V9.52113C7.44721 9.52113 8.2607 9.92064 8.81607 10.5537L9.19194 10.224ZM6.54221 9.02113C4.59851 9.02113 3.01758 10.6021 3.01758 12.5458H3.51758C3.51758 10.8782 4.87465 9.52113 6.54221 9.52113V9.02113ZM3.01758 12.5458C3.01758 14.4895 4.59851 16.0704 6.54221 16.0704V15.5704C4.87465 15.5704 3.51758 14.2133 3.51758 12.5458H3.01758ZM6.54221 16.0704C7.72244 16.0704 8.76842 15.4872 9.40789 14.5956L9.00159 14.3042C8.45164 15.071 7.55394 15.5704 6.54221 15.5704V16.0704ZM9.09097 14.6725L14.2161 17.2917L14.4437 16.8465L9.3185 14.2273L9.09097 14.6725ZM14.0912 16.9948C13.9884 17.3254 13.933 17.6765 13.933 18.0399H14.433C14.433 17.7275 14.4806 17.4265 14.5686 17.1433L14.0912 16.9948ZM13.933 18.0399C13.933 19.9836 15.5139 21.5645 17.4576 21.5645V21.0645C15.7901 21.0645 14.433 19.7074 14.433 18.0399H13.933ZM17.4576 21.5645C19.4013 21.5645 20.9823 19.9836 20.9823 18.0399H20.4823C20.4823 19.7074 19.1252 21.0645 17.4576 21.0645V21.5645ZM20.9823 18.0399C20.9823 16.0962 19.4013 14.5152 17.4576 14.5152V15.0152C19.1252 15.0152 20.4823 16.3723 20.4823 18.0399H20.9823ZM17.2076 14.7652V14.7652H17.7076V14.7652H17.2076Z" fill="black"/>
</svg>
