<svg width="20" height="21" viewBox="0 0 20 21" fill="none" xmlns="http://www.w3.org/2000/svg">
<path fill-rule="evenodd" clip-rule="evenodd" d="M14.7592 16.8599L11.6772 11.4999H17.8402C17.7062 12.56 17.3652 13.5699 16.8362 14.4899C16.3072 15.41 15.6012 16.2199 14.7592 16.8599H14.7592ZM9.95821 18.4999C7.94521 18.4899 6.01119 17.7099 4.54921 16.31C3.0862 14.92 2.20219 13.02 2.07619 10.9999C1.95021 8.97991 2.5902 6.98992 3.86919 5.41997C5.14721 3.85991 6.96819 2.83989 8.96419 2.56987V10.4999C8.96819 10.6199 8.9912 10.7399 9.03319 10.8499V10.93V10.9999L13.0092 17.8699C12.0452 18.29 11.0072 18.4999 9.95821 18.4999ZM10.9522 2.56988C12.7012 2.78997 14.3272 3.59991 15.5742 4.84991C16.8212 6.09991 17.6182 7.73992 17.8402 9.49993H10.9522V2.56988ZM9.95821 0.499934C8.4352 0.499934 6.93221 0.849914 5.5642 1.51995C4.1972 2.19988 3.00222 3.17998 2.07122 4.38995C1.1412 5.59991 0.500209 7.00995 0.198199 8.51995C-0.104811 10.02 -0.0598012 11.5699 0.329209 13.05C0.717209 14.53 1.4392 15.9 2.43819 17.06C3.43721 18.2199 4.68721 19.1299 6.09121 19.7199C7.4952 20.31 9.0162 20.5699 10.5362 20.4799C12.0562 20.3899 13.5352 19.9499 14.8582 19.1899H14.9282H14.9782C16.8912 18.0899 18.3892 16.3899 19.2362 14.3499C20.0832 12.3 20.2302 10.03 19.6562 7.88994C19.0812 5.74993 17.8172 3.86992 16.0622 2.52995C14.3072 1.18986 12.1602 0.479904 9.95823 0.499924L9.95821 0.499934Z" fill="#8C8C8C"/>
</svg>
