<svg width="27" height="27" viewBox="0 0 27 27" fill="none" xmlns="http://www.w3.org/2000/svg">
<path d="M3.78423 26.4864L2.25017 17.282L14.0114 19.8388L24.2385 17.282L22.7044 26.4864H3.78423Z" fill="#FCAF17"/>
<path d="M24.6271 16.8978L23.6041 25.0306C23.5626 25.3765 23.3942 25.6948 23.1321 25.9258C22.8699 26.1557 22.5321 26.2814 22.1837 26.2792H4.80734C4.45782 26.2814 4.12003 26.1557 3.85791 25.9258C3.59688 25.6948 3.42845 25.3765 3.38691 25.0306L2.36395 16.8978" stroke="#717171" stroke-width="1.4" stroke-linecap="round" stroke-linejoin="round"/>
<path d="M19.3542 1.96435L18.8477 2.47021L18.848 2.47059L19.3542 1.96435ZM7.6472 1.96435L8.15339 2.47059L8.15377 2.47021L7.6472 1.96435ZM6.39871 6.39683H5.68281C5.68281 6.79221 6.00333 7.11273 6.39871 7.11273V6.39683ZM20.6027 6.39683V7.11273C20.998 7.11273 21.3186 6.79221 21.3186 6.39683H20.6027ZM25.3177 16.6657L25.5442 17.3448L25.5457 17.3443L25.3177 16.6657ZM18.8836 18.8112L19.1097 19.4904L19.1101 19.4903L18.8836 18.8112ZM8.11826 18.8112L7.8918 19.4903L7.89214 19.4904L8.11826 18.8112ZM1.68417 16.6657L1.45766 17.3448L1.45771 17.3448L1.68417 16.6657ZM0.961926 16.1181L1.55383 15.7154L1.55376 15.7153L0.961926 16.1181ZM0.718018 15.2457L1.43296 15.2827C1.4336 15.2704 1.43392 15.258 1.43392 15.2457H0.718018ZM0.718018 6.39678V5.68088C0.322638 5.68088 0.00211977 6.0014 0.00211977 6.39678H0.718018ZM26.2839 6.39678H26.9998C26.9998 6.0014 26.6793 5.68088 26.2839 5.68088V6.39678ZM26.2839 15.3171H25.568L25.568 15.3196L26.2839 15.3171ZM26.0187 16.1469L26.6001 16.5646L26.6002 16.5644L26.0187 16.1469ZM21.3186 4.97684C21.3186 3.65646 20.7934 2.391 19.8604 1.4581L18.848 2.47059C19.5129 3.13535 19.8868 4.03675 19.8868 4.97684H21.3186ZM19.8608 1.45848C18.9274 0.523784 17.6617 -3.74285e-05 16.3417 -3.74285e-05V1.43176C17.2822 1.43176 18.1832 1.80485 18.8477 2.47021L19.8608 1.45848ZM16.3417 -3.74285e-05H10.6597V1.43176H16.3417V-3.74285e-05ZM10.6597 -3.74285e-05C9.34084 -3.74285e-05 8.0741 0.523706 7.14063 1.45848L8.15377 2.47021C8.81815 1.8049 9.72018 1.43176 10.6597 1.43176V-3.74285e-05ZM7.14101 1.4581C6.20801 2.391 5.68281 3.65644 5.68281 4.97684H7.11461C7.11461 4.03677 7.48853 3.13538 8.15339 2.47059L7.14101 1.4581ZM5.68281 4.97684V6.39683H7.11461V4.97684H5.68281ZM6.39871 7.11273H20.6027V5.68093H6.39871V7.11273ZM21.3186 6.39683V4.97684H19.8868V6.39683H21.3186ZM25.0912 15.9866L18.6571 18.132L19.1101 19.4903L25.5442 17.3448L25.0912 15.9866ZM18.6575 18.1319C15.3103 19.2462 11.6916 19.2462 8.34438 18.1319L7.89214 19.4904C11.5329 20.7024 15.469 20.7024 19.1097 19.4904L18.6575 18.1319ZM8.34472 18.132L1.91063 15.9866L1.45771 17.3448L7.8918 19.4903L8.34472 18.132ZM1.91068 15.9866C1.76679 15.9386 1.64111 15.8437 1.55383 15.7154L0.370018 16.5208C0.632193 16.9062 1.01356 17.1967 1.45766 17.3448L1.91068 15.9866ZM1.55376 15.7153C1.46731 15.5883 1.42498 15.4371 1.43296 15.2827L0.00307401 15.2088C-0.0209893 15.6744 0.107169 16.1346 0.370095 16.5209L1.55376 15.7153ZM1.43392 15.2457V6.39678H0.00211977V15.2457H1.43392ZM0.718018 7.11268H26.2839V5.68088H0.718018V7.11268ZM25.568 6.39678V15.3171H26.9998V6.39678H25.568ZM25.568 15.3196C25.5685 15.4665 25.5226 15.6103 25.4371 15.7295L26.6002 16.5644C26.8619 16.1999 27.0014 15.762 26.9998 15.3145L25.568 15.3196ZM25.4373 15.7292C25.3501 15.8505 25.2281 15.9406 25.0897 15.9871L25.5457 17.3443C25.9719 17.2012 26.3399 16.9268 26.6001 16.5646L25.4373 15.7292Z" fill="#717171"/>
<path fill-rule="evenodd" clip-rule="evenodd" d="M12.0801 13.4988H14.9201H12.0801Z" fill="white" stroke="black"/>
</svg>
