<svg width="32" height="28" viewBox="0 0 32 28" fill="none" xmlns="http://www.w3.org/2000/svg">
<path d="M26.956 10.9529C26.956 10.479 26.5718 10.0948 26.0979 10.0948C25.6241 10.0948 25.2399 10.479 25.2399 10.9529H26.956ZM25.2399 26.7131C25.2399 27.187 25.6241 27.5712 26.0979 27.5712C26.5718 27.5712 26.956 27.187 26.956 26.7131H25.2399ZM6.76204 10.9529C6.76204 10.479 6.37788 10.0948 5.904 10.0948C5.43012 10.0948 5.04596 10.479 5.04596 10.9529H6.76204ZM5.04596 26.7131C5.04596 27.187 5.43012 27.5712 5.904 27.5712C6.37788 27.5712 6.76204 27.187 6.76204 26.7131H5.04596ZM0.858137 25.8587C0.384256 25.8587 9.85558e-05 26.2429 9.85558e-05 26.7168C9.85558e-05 27.1906 0.384256 27.5748 0.858137 27.5748V25.8587ZM31.1418 27.5748C31.6157 27.5748 31.9999 27.1906 31.9999 26.7168C31.9999 26.2429 31.6157 25.8587 31.1418 25.8587V27.5748ZM0.858137 10.9529L0.382173 10.239C0.0675714 10.4487 -0.072655 10.8397 0.0369171 11.2016C0.146489 11.5634 0.48003 11.811 0.858137 11.811V10.9529ZM16 0.858014L16.476 0.14409C16.1877 -0.0480628 15.8123 -0.0480628 15.524 0.14409L16 0.858014ZM31.1419 10.9529V11.811C31.52 11.811 31.8535 11.5634 31.9631 11.2016C32.0727 10.8397 31.9324 10.4487 31.6178 10.239L31.1419 10.9529ZM16.8586 10.9529C16.8586 10.479 16.4744 10.0948 16.0005 10.0948C15.5267 10.0948 15.1425 10.479 15.1425 10.9529H16.8586ZM15.1425 26.7131C15.1425 27.187 15.5267 27.5712 16.0005 27.5712C16.4744 27.5712 16.8586 27.187 16.8586 26.7131H15.1425ZM25.2399 10.9529V26.7131H26.956V10.9529H25.2399ZM26.956 26.7131V10.9529H25.2399V26.7131H26.956ZM5.04596 10.9529V26.7131H6.76204V10.9529H5.04596ZM6.76204 26.7131V10.9529H5.04596V26.7131H6.76204ZM0.858137 27.5748H31.1418V25.8587H0.858137V27.5748ZM31.1418 25.8587H0.858137V27.5748H31.1418V25.8587ZM1.3341 11.6668L16.476 1.57194L15.524 0.14409L0.382173 10.239L1.3341 11.6668ZM15.524 1.57194L30.6659 11.6668L31.6178 10.239L16.476 0.14409L15.524 1.57194ZM31.1419 10.0949H0.858137V11.811H31.1419V10.0949ZM15.1425 10.9529V26.7131H16.8586V10.9529H15.1425Z" fill="#717171"/>
<path d="M21.0291 11.4595V26.2006" stroke="#717171" stroke-width="1.7" stroke-linecap="round" stroke-linejoin="round"/>
<path d="M10.9729 11.4595V26.2006" stroke="#717171" stroke-width="1.7" stroke-linecap="round" stroke-linejoin="round"/>
</svg>
