<svg width="18" height="18" viewBox="0 0 18 18" fill="none" xmlns="http://www.w3.org/2000/svg">
<path opacity="0.01" fill-rule="evenodd" clip-rule="evenodd" d="M9.00006 18C4.0295 18 6e-05 13.9706 6e-05 9C6e-05 4.02944 4.0295 0 9.00006 0C13.9706 0 18.0001 4.02944 18.0001 9C18.0001 13.9706 13.9706 18 9.00006 18Z" fill="black"/>
<path d="M4 17.5C2.067 17.5 0.5 15.933 0.5 14V4C0.5 2.067 2.067 0.5 4 0.5H14C15.933 0.5 17.5 2.067 17.5 4V14C17.5 15.933 15.933 17.5 14 17.5H4Z" fill="white" stroke="#FCAF17"/>
</svg>
