<svg width="24" height="24" viewBox="0 0 24 24" fill="none" xmlns="http://www.w3.org/2000/svg">
<path d="M6 13.9998C6 15.6567 5.32843 16.9998 4.5 16.9998C3.67157 16.9998 2.5 15.6567 2.5 13.9998C2.5 12.343 3.67157 10.9998 4.5 10.9998C5.32843 10.9998 6 12.343 6 13.9998Z" fill="#FCAF17"/>
<path d="M21.2263 14.7139C21.2263 15.8184 20.3284 17.5001 19.5 17.5001C18.6716 17.5001 18.2263 15.8184 18.2263 14.7139C18.2263 13.6093 18.6716 10.5001 19.5 10.5001C20.3284 10.5001 21.2263 13.6093 21.2263 14.7139Z" fill="#FCAF17"/>
<path d="M19.892 10.0941H19.838V8.75994C19.838 4.47425 16.3895 1 12.1355 1C7.8815 1 4.43304 4.47425 4.43304 8.75994V10.0941H4.10874C2.91958 10.0941 2.0007 11.156 2.0007 12.3813V15.7847C1.97075 16.9723 2.90209 17.9595 4.08086 17.9896L6.10867 17.9902C6.39194 17.9768 6.60848 17.7037 6.59513 17.4183C6.59622 17.4286 6.59467 17.4081 6.59513 17.4183V10.7475C6.59513 10.4208 6.40596 10.094 6.10867 10.094H5.51409V8.75988C5.51409 5.07572 8.47861 2.08906 12.1355 2.08906C15.7924 2.08906 18.7569 5.07572 18.7569 8.75988V10.094H18.1623C17.865 10.094 17.6759 10.4208 17.6759 10.7475V17.4183C17.6457 17.7024 17.8498 17.9574 18.1318 17.9878C18.1419 17.9889 18.1521 17.9896 18.1623 17.9901H18.7839L18.7299 18.0718C17.9189 19.1576 16.6463 19.7936 15.2975 19.7871C15.0023 18.3284 13.5891 17.3871 12.1412 17.6846C10.9031 17.939 10.0104 19.0314 10.0004 20.3045C10.0152 21.7976 11.2209 23.0001 12.703 23C13.4367 22.988 14.136 22.6847 14.6489 22.1559C14.9949 21.7989 15.2216 21.342 15.2975 20.849C16.9866 20.8554 18.5795 20.0581 19.5947 18.698L20.1082 17.9356C21.2703 17.8539 22 17.1188 22 16.0569V12.6534C22.0001 11.4827 21.1352 10.0941 19.892 10.0941ZM5.51409 16.901H4.10874C3.52678 16.8868 3.06649 16.4 3.08066 15.8137C3.08092 15.804 3.08129 15.7944 3.08175 15.7847V12.3812C3.08175 11.755 3.51416 11.1832 4.10874 11.1832H5.51409V16.901ZM13.8652 21.3936C13.5657 21.7208 13.1448 21.9082 12.7031 21.911C11.8238 21.8969 11.1102 21.19 11.0815 20.3045C11.0811 19.4173 11.7948 18.6978 12.6754 18.6974C13.556 18.6971 14.2702 19.416 14.2706 20.3032C14.2931 20.7075 14.146 21.104 13.8652 21.3936ZM20.919 16.057C20.919 16.7921 20.2163 16.901 19.892 16.901H18.7569V11.1832H19.892C20.4866 11.1832 20.919 12.0273 20.919 12.6535V16.057Z" fill="#717171"/>
<path fill-rule="evenodd" clip-rule="evenodd" d="M4.08008 17.9897C2.90131 17.9595 1.96997 16.9723 1.99992 15.7847V12.3813C1.99992 11.156 2.9188 10.0941 4.10796 10.0941H4.43226V8.75995C4.43226 4.47426 7.88072 1.00001 12.1347 1.00001C16.3887 1.00001 19.8372 4.47426 19.8372 8.75995V10.0941H19.8912C21.1345 10.0941 21.9993 11.4827 21.9992 12.6534V16.0569C21.9992 17.1188 21.2695 17.8539 20.1074 17.9356L19.5939 18.698C18.5787 20.0581 16.9858 20.8554 15.2967 20.849C15.2209 21.3421 14.9941 21.799 14.6481 22.1559C14.1353 22.6847 13.4359 22.988 12.7022 23C11.2201 23.0001 10.0144 21.7976 9.99962 20.3045C10.0096 19.0314 10.9023 17.939 12.1405 17.6846C13.5883 17.3871 15.0015 18.3285 15.2967 19.7871C16.5525 19.7931 17.7421 19.2423 18.5547 18.2901C18.6149 18.2195 18.6731 18.1467 18.7291 18.0718L18.7831 17.9901H18.1615C18.1574 17.9899 18.1532 17.9897 18.1491 17.9894C18.143 17.989 18.137 17.9884 18.131 17.9878C17.849 17.9574 17.6449 17.7024 17.6751 17.4184V10.7475C17.6751 10.4208 17.8643 10.0941 18.1615 10.0941H18.7561V8.7599C18.7561 5.07573 15.7916 2.08908 12.1347 2.08908C8.47783 2.08908 5.5133 5.07573 5.5133 8.7599V10.0941H6.10789C6.40518 10.0941 6.59435 10.4208 6.59435 10.7475V17.4184C6.59912 17.5202 6.5746 17.6205 6.52821 17.708C6.52757 17.7092 6.52693 17.7104 6.52629 17.7116C6.44228 17.8673 6.28867 17.9816 6.10789 17.9902L4.08008 17.9897ZM6.89471 17.4244C6.90386 17.8432 6.58784 18.2678 6.12206 18.2898L6.11494 18.2902L4.0724 18.2896C2.72726 18.2552 1.66798 17.1304 1.69992 15.7811V12.3813C1.69992 11.0195 2.72529 9.79411 4.10796 9.79411H4.13226V8.75995C4.13226 4.31068 7.71293 0.700012 12.1347 0.700012C16.5565 0.700012 20.1372 4.31068 20.1372 8.75995V9.80956C20.768 9.88947 21.2871 10.2709 21.6511 10.7543C22.0604 11.2978 22.2992 12.0005 22.2992 12.6534V16.0569C22.2992 16.6597 22.0904 17.1879 21.7009 17.5763C21.3436 17.9326 20.8523 18.1534 20.2769 18.221L19.8386 18.8716L19.8343 18.8775C18.8122 20.2468 17.2347 21.0766 15.5427 21.1445C15.4273 21.6027 15.1938 22.024 14.8635 22.3647C14.2956 22.9503 13.5206 23.2867 12.7071 23.3L12.7023 23.3001C11.0536 23.3002 9.71604 21.963 9.69963 20.3075L9.69958 20.3021C9.71066 18.8891 10.7018 17.6739 12.0801 17.3908C13.6092 17.0765 15.1007 18.0035 15.5302 19.4814C16.5228 19.4277 17.4565 19.0005 18.1489 18.2901H18.1477C18.1314 18.2894 18.1151 18.2878 18.0988 18.286C17.6562 18.2383 17.3378 17.8438 17.3751 17.4042V10.7475C17.3751 10.5308 17.4368 10.3064 17.5598 10.128C17.6849 9.94655 17.8899 9.79406 18.1615 9.79406H18.4561V8.7599C18.4561 5.23931 15.6238 2.38908 12.1347 2.38908C8.64562 2.38908 5.8133 5.23931 5.8133 8.7599V9.79406H6.10789C6.37951 9.79406 6.58455 9.94658 6.70961 10.128C6.8326 10.3065 6.89435 10.5309 6.89435 10.7475V17.4059L6.89454 17.4099L6.89472 17.417L6.89471 17.4244ZM3.08097 15.7847C3.08051 15.7944 3.08014 15.804 3.07988 15.8137C3.06571 16.4 3.526 16.8868 4.10796 16.9011H5.5133V11.1832H4.10796C3.51338 11.1832 3.08097 11.755 3.08097 12.3812V15.7847ZM5.2133 11.4832H4.10796C3.7306 11.4832 3.38097 11.8639 3.38097 12.3812V15.7919L3.38063 15.7991L3.3798 15.8209C3.37979 15.8211 3.3798 15.8207 3.3798 15.8209C3.36998 16.2422 3.69945 16.5891 4.11194 16.6011H5.2133V11.4832ZM13.649 21.1848C13.8711 20.9557 13.9882 20.6411 13.9703 20.3199L13.9698 20.3116L13.9698 20.3034C13.9695 19.5797 13.3876 18.9971 12.6747 18.9974C11.9635 18.9977 11.383 19.5782 11.3807 20.2996C11.4067 21.0237 11.9895 21.5978 12.7037 21.611C13.0604 21.6078 13.4005 21.4561 13.6431 21.1911L13.649 21.1848ZM12.7023 21.911C11.823 21.8969 11.1094 21.19 11.0807 20.3045C11.0804 19.4173 11.794 18.6978 12.6746 18.6974C13.5553 18.6971 14.2694 19.416 14.2698 20.3032C14.2923 20.7075 14.1452 21.104 13.8644 21.3936C13.5649 21.7208 13.1441 21.9082 12.7023 21.911ZM20.3816 16.4919C20.5123 16.4199 20.6182 16.304 20.6182 16.057V12.6535C20.6182 12.4005 20.528 12.0879 20.3739 11.8436C20.2149 11.5913 20.0377 11.4832 19.8912 11.4832H19.0561V16.6011H19.8912C20.0302 16.6011 20.2287 16.5761 20.3816 16.4919ZM19.8912 16.9011C20.2155 16.9011 20.9182 16.7921 20.9182 16.057V12.6535C20.9182 12.0273 20.4858 11.1832 19.8912 11.1832H18.7561V16.9011H19.8912Z" fill="#717171"/>
</svg>
