<svg width="24" height="24" viewBox="0 0 24 24" fill="none" xmlns="http://www.w3.org/2000/svg">
<path opacity="0.01" d="M0.25 23.75V0.25H23.75V23.75H0.25Z" fill="black" stroke="black" stroke-width="0.5"/>
<g clip-path="url(#clip0_530_16262)">
<path opacity="0.91" d="M12 2C6.47757 2 2 6.47757 2 12C2 17.5224 6.47757 22 12 22C17.5224 22 22 17.5224 22 12C22 6.47757 17.5231 2 12 2ZM12 20.5002C7.30586 20.5002 3.49979 16.6948 3.49979 12C3.49979 7.30516 7.30586 3.49979 12 3.49979C16.6941 3.49979 20.5002 7.30516 20.5002 12C20.5002 16.6948 16.6948 20.5002 12 20.5002Z" fill="black"/>
<path opacity="0.91" d="M16 11.2504H12.7501V8.00055C12.7501 7.5864 12.414 7.25031 11.9999 7.25031C11.5858 7.25031 11.2497 7.5864 11.2497 8.00055V11.2504H7.99976C7.58561 11.2504 7.24951 11.5865 7.24951 12.0007C7.24951 12.4148 7.58561 12.7509 7.99976 12.7509H11.2497V16.0008C11.2497 16.415 11.5858 16.7511 11.9999 16.7511C12.414 16.7511 12.7501 16.415 12.7501 16.0008V12.7509H16C16.4142 12.7509 16.7503 12.4148 16.7503 12.0007C16.7503 11.5865 16.4142 11.2504 16 11.2504Z" fill="black"/>
</g>
<defs>
<clipPath id="clip0_530_16262">
<rect width="20" height="20" fill="white" transform="translate(2 2)"/>
</clipPath>
</defs>
</svg>
