<svg width="21" height="21" viewBox="0 0 21 21" fill="none" xmlns="http://www.w3.org/2000/svg">
<path opacity="0.01" fill-rule="evenodd" clip-rule="evenodd" d="M0.155065 20.8444V0.155571H20.8439V20.8444H0.155065Z" fill="black" stroke="black" stroke-width="0.3"/>
<path fill-rule="evenodd" clip-rule="evenodd" d="M14.4425 15.0319C13.3553 15.9545 11.9752 16.46 10.5494 16.4577C9.12941 16.4582 7.75562 15.9532 6.67386 15.0333L15.1349 6.57229C17.2797 9.09957 16.9697 12.8871 14.4425 15.0319ZM6.65634 5.86787C7.74347 4.94525 9.12355 4.4398 10.5494 4.44207C11.9694 4.44162 13.3432 4.94654 14.4249 5.86643L5.96393 14.3275C3.81908 11.8002 4.12911 8.0127 6.65635 5.86787H6.65634ZM10.5494 3.44074C6.67834 3.44074 3.54024 6.57883 3.54024 10.4499C3.54024 14.3209 6.67834 17.459 10.5494 17.459C14.4204 17.459 17.5585 14.3209 17.5585 10.4499C17.5544 6.58057 14.4187 3.44487 10.5494 3.44074Z" fill="black"/>
<path d="M14.4425 15.0319L14.5429 15.1502V15.1502L14.4425 15.0319ZM10.5494 16.4577L10.5497 16.3025H10.5494L10.5494 16.4577ZM6.67386 15.0333L6.56414 14.9236L6.44519 15.0426L6.57334 15.1516L6.67386 15.0333ZM15.1349 6.57229L15.2532 6.47189L15.1443 6.34351L15.0252 6.46257L15.1349 6.57229ZM6.65634 5.86787L6.55594 5.74956L6.23371 6.02304H6.65634V5.86787ZM10.5494 4.44207L10.5491 4.59723L10.5494 4.59723L10.5494 4.44207ZM14.4249 5.86643L14.5347 5.97615L14.6536 5.8572L14.5255 5.74822L14.4249 5.86643ZM5.96393 14.3275L5.84562 14.4279L5.95458 14.5562L6.07365 14.4372L5.96393 14.3275ZM6.65635 5.86787L6.75676 5.98617L7.07899 5.7127H6.65635V5.86787ZM10.5494 3.44074L10.5495 3.28557H10.5494V3.44074ZM17.5585 10.4499H17.7137V10.4497L17.5585 10.4499ZM14.342 14.9136C13.283 15.8124 11.9386 16.3048 10.5497 16.3025L10.5492 16.6129C12.0119 16.6152 13.4276 16.0967 14.5429 15.1502L14.342 14.9136ZM10.5494 16.3025C9.16621 16.303 7.82806 15.8112 6.77438 14.9151L6.57334 15.1516C7.68317 16.0953 9.09261 16.6133 10.5495 16.6129L10.5494 16.3025ZM6.78358 15.1431L15.2446 6.68201L15.0252 6.46257L6.56414 14.9236L6.78358 15.1431ZM15.0166 6.6727C17.106 9.13464 16.804 12.8242 14.342 14.9136L14.5429 15.1502C17.1354 12.9499 17.4535 9.06451 15.2532 6.47189L15.0166 6.6727ZM6.75675 5.98617C7.81577 5.08741 9.16017 4.59502 10.5491 4.59723L10.5496 4.2869C9.08693 4.28458 7.67117 4.80309 6.55594 5.74956L6.75675 5.98617ZM10.5494 4.59723C11.9326 4.5968 13.2707 5.08862 14.3244 5.98464L14.5255 5.74822C13.4156 4.80447 12.0062 4.28644 10.5493 4.2869L10.5494 4.59723ZM14.3152 5.75671L5.85421 14.2177L6.07365 14.4372L14.5347 5.97615L14.3152 5.75671ZM6.08223 14.227C3.99284 11.7651 4.29485 8.07556 6.75676 5.98617L6.55595 5.74956C3.96337 7.94985 3.64533 11.8352 5.84562 14.4279L6.08223 14.227ZM6.65635 5.7127H6.65634V6.02304H6.65635V5.7127ZM10.5494 3.28557C6.59264 3.28557 3.38507 6.49314 3.38507 10.4499H3.69541C3.69541 6.66453 6.76403 3.5959 10.5494 3.5959V3.28557ZM3.38507 10.4499C3.38507 14.4066 6.59264 17.6142 10.5494 17.6142V17.3038C6.76403 17.3038 3.69541 14.2352 3.69541 10.4499H3.38507ZM10.5494 17.6142C14.5061 17.6142 17.7137 14.4066 17.7137 10.4499H17.4033C17.4033 14.2352 14.3347 17.3038 10.5494 17.3038V17.6142ZM17.7137 10.4497C17.7095 6.49484 14.5044 3.2898 10.5495 3.28557L10.5492 3.5959C14.333 3.59995 17.3993 6.6663 17.4033 10.45L17.7137 10.4497Z" fill="black"/>
</svg>
