<svg width="22" height="29" viewBox="0 0 22 29" fill="none" xmlns="http://www.w3.org/2000/svg">
<path fill-rule="evenodd" clip-rule="evenodd" d="M13.2186 18.5323H12.6005C12.7004 18.6771 12.7773 18.8385 12.8322 19.0133C12.8454 19.0544 12.8574 19.0968 12.8673 19.1403H13.2186C13.3449 19.1403 13.4646 19.1892 13.5436 19.3039C13.6138 19.4052 13.6347 19.5321 13.6347 19.6557V19.7292C13.6347 19.8527 13.6138 19.9796 13.5436 20.081C13.4646 20.1958 13.3449 20.2446 13.2186 20.2446H12.8662C12.8223 20.4273 12.7543 20.6044 12.6642 20.7746C12.4864 21.1154 12.19 21.3814 11.7948 21.5785C11.4215 21.7611 10.9318 21.8513 10.3379 21.8613C10.3994 21.9181 10.4608 21.9804 10.5201 22.0484L12.8674 24.5344C12.8926 24.5612 12.9145 24.588 12.9321 24.6135C12.9486 24.6348 12.9705 24.6681 12.9848 24.7072C13.0035 24.7627 13.0068 24.8273 13.0068 24.8786C13.0068 25.0478 12.8772 25.1403 12.785 25.1848L12.7707 25.1904C12.662 25.2326 12.5138 25.246 12.3492 25.246H12.2273C12.101 25.246 11.9792 25.2292 11.865 25.1959L11.8606 25.1948C11.7431 25.1568 11.641 25.0945 11.5576 25.0043L8.70648 21.9815C8.62526 21.8813 8.55389 21.7912 8.49349 21.711L8.488 21.7042C8.41663 21.6007 8.36504 21.4839 8.36504 21.3581V21.2523C8.36504 21.1175 8.40458 20.9828 8.51547 20.887C8.62085 20.7969 8.75698 20.7691 8.88981 20.7691H10.2116C10.4828 20.7691 10.7144 20.7201 10.9132 20.6277C11.1151 20.534 11.2677 20.4128 11.3775 20.267C11.3819 20.2592 11.3874 20.2524 11.3929 20.2445H8.78002C8.65379 20.2445 8.53411 20.1957 8.45504 20.081C8.38481 19.9796 8.36503 19.8527 8.36503 19.7292V19.6557C8.36503 19.5321 8.38483 19.4052 8.45504 19.3039C8.53411 19.1891 8.65379 19.1402 8.78002 19.1402H11.4072C11.3545 19.0422 11.2875 18.9654 11.2085 18.9052L11.2052 18.903C10.9768 18.7248 10.6628 18.6269 10.2445 18.6269H8.8898C8.75255 18.6269 8.61314 18.5946 8.50773 18.4933C8.40125 18.3908 8.36502 18.2506 8.36502 18.1115V17.9423C8.36502 17.8031 8.40125 17.6638 8.50773 17.5614C8.61313 17.4601 8.75254 17.4278 8.8898 17.4278H13.2186C13.3449 17.4278 13.4646 17.4767 13.5436 17.5904C13.6138 17.6916 13.6347 17.8197 13.6347 17.9423V18.0167C13.6347 18.1392 13.6138 18.2673 13.5436 18.3687C13.4646 18.4821 13.3449 18.5323 13.2186 18.5323V18.5323Z" fill="#FCAF17"/>
<path fill-rule="evenodd" clip-rule="evenodd" d="M17.9044 8.97841C17.0428 8.97841 16.2253 9.30759 15.6039 9.87635C14.9817 9.30758 14.1643 8.97841 13.3027 8.97841C12.4403 8.97841 11.6237 9.30759 11.0014 9.87635C10.3801 9.30758 9.56261 8.97841 8.70102 8.97841C7.83859 8.97841 7.02114 9.30759 6.39893 9.87635C5.77755 9.30758 4.96011 8.97841 4.09767 8.97841C3.64607 8.97841 3.20636 9.06872 2.80063 9.23709C3.65032 5.4477 7.00501 2.61125 11.0014 2.61125C14.997 2.61125 18.3517 5.4477 19.2014 9.23709C18.7957 9.06872 18.3568 8.97841 17.9044 8.97841H17.9044ZM15.2037 25.1268C12.8863 27.4726 9.11479 27.4726 6.79741 25.1268C4.48003 22.781 4.48003 18.9632 6.79741 16.6174C7.9561 15.4437 9.47811 14.8576 11.001 14.8576C12.523 14.8576 14.045 15.4437 15.2037 16.6174C17.5219 18.9632 17.5219 22.781 15.2037 25.1268H15.2037ZM11.0004 1C5.48622 1 1 5.54122 1 11.1232V11.1515C1 11.5185 1.24447 11.8389 1.59505 11.9318C1.94563 12.0236 2.31404 11.8656 2.49061 11.545C2.81571 10.9555 3.43113 10.5895 4.09665 10.5895C4.76215 10.5895 5.37758 10.9555 5.70268 11.545C5.84358 11.7994 6.11015 11.9575 6.39874 11.9575C6.68652 11.9575 6.95222 11.7994 7.09312 11.545C7.41909 10.9555 8.03451 10.5895 8.69915 10.5895C9.301 10.5895 9.86125 10.8902 10.2042 11.3835V13.2894C8.54722 13.4664 6.93777 14.1951 5.67127 15.4779C2.73252 18.4519 2.73252 23.2914 5.67127 26.2662C7.14067 27.7536 9.07012 28.4968 11.0004 28.4968C12.9299 28.4968 14.8593 27.7536 16.3287 26.2662C19.2675 23.2914 19.2675 18.4519 16.3287 15.4779C15.0622 14.1951 13.4528 13.4664 11.7958 13.2894V11.3843C12.1388 10.8902 12.699 10.5895 13.3017 10.5895C13.9672 10.5895 14.5826 10.9555 14.9077 11.545C15.0486 11.7994 15.3143 11.9575 15.6021 11.9575C15.8907 11.9575 16.1564 11.7994 16.2973 11.545C16.6224 10.9555 17.2378 10.5895 17.9034 10.5895C18.5689 10.5895 19.1843 10.9555 19.5094 11.545C19.6529 11.8037 19.9211 11.9575 20.2046 11.9575C20.2708 11.9575 20.3387 11.9489 20.4049 11.9318C20.7555 11.8389 21 11.5184 21 11.1515V11.1232C21.0009 5.54122 16.5146 1 11.0004 1H11.0004Z" fill="#717171"/>
<path d="M15.6039 9.87635L15.4353 10.0609L15.6041 10.2152L15.7727 10.0608L15.6039 9.87635ZM11.0014 9.87635L10.8326 10.0608L11.0013 10.2152L11.1701 10.0609L11.0014 9.87635ZM6.39893 9.87635L6.23013 10.0608L6.39881 10.2152L6.5676 10.0609L6.39893 9.87635ZM2.80063 9.23709L2.55668 9.18239L2.45121 9.65276L2.89645 9.468L2.80063 9.23709ZM19.2014 9.23709L19.1056 9.468L19.5509 9.65275L19.4454 9.18239L19.2014 9.23709ZM15.2037 25.1268L15.3815 25.3025L15.8021 24.8768H15.2037V25.1268ZM6.79741 16.6174L6.97526 16.7931L6.97532 16.793L6.79741 16.6174ZM15.2037 16.6174L15.0257 16.793L15.0258 16.7931L15.2037 16.6174ZM15.2037 25.1268L15.0258 24.9511L14.6051 25.3768H15.2037V25.1268ZM1.59505 11.9318L1.53107 12.1734L1.53169 12.1736L1.59505 11.9318ZM2.49061 11.545L2.2717 11.4243L2.27163 11.4244L2.49061 11.545ZM5.70268 11.545L5.48376 11.6657L5.48399 11.6661L5.70268 11.545ZM7.09312 11.545L7.31181 11.6661L7.3119 11.666L7.09312 11.545ZM10.2042 11.3835H10.4542V11.3052L10.4095 11.2408L10.2042 11.3835ZM10.2042 13.2894L10.2307 13.538L10.4542 13.5141V13.2894H10.2042ZM5.67127 15.4779L5.8491 15.6536L5.84918 15.6535L5.67127 15.4779ZM5.67127 26.2662L5.84912 26.0905L5.84912 26.0905L5.67127 26.2662ZM16.3287 26.2662L16.1509 26.0905L16.1508 26.0905L16.3287 26.2662ZM16.3287 15.4779L16.1508 15.6535L16.1509 15.6536L16.3287 15.4779ZM11.7958 13.2894H11.5458V13.5141L11.7693 13.538L11.7958 13.2894ZM11.7958 11.3843L11.5904 11.2418L11.5458 11.3061V11.3843H11.7958ZM14.9077 11.545L14.6888 11.6657L14.689 11.6661L14.9077 11.545ZM16.2973 11.545L16.516 11.6661L16.5162 11.6657L16.2973 11.545ZM19.5094 11.545L19.2905 11.6657L19.2908 11.6662L19.5094 11.545ZM20.4049 11.9318L20.4676 12.1738L20.4689 12.1734L20.4049 11.9318ZM21 11.1232L20.75 11.1231V11.1232H21ZM17.9044 8.72841C16.9787 8.72841 16.1015 9.08205 15.4351 9.69193L15.7727 10.0608C16.3492 9.53313 17.1068 9.22841 17.9044 9.22841V8.72841ZM15.7726 9.69182C15.1055 9.08205 14.2284 8.72841 13.3027 8.72841V9.22841C14.1002 9.22841 14.8579 9.53311 15.4353 10.0609L15.7726 9.69182ZM13.3027 8.72841C12.3762 8.72841 11.4998 9.08208 10.8328 9.69182L11.1701 10.0609C11.7475 9.5331 12.5043 9.22841 13.3027 9.22841V8.72841ZM11.1702 9.69194C10.5039 9.08203 9.62664 8.72841 8.70102 8.72841V9.22841C9.49859 9.22841 10.2562 9.53312 10.8326 10.0608L11.1702 9.69194ZM8.70102 8.72841C7.77456 8.72841 6.89735 9.08204 6.23025 9.69182L6.5676 10.0609C7.14493 9.53314 7.90262 9.22841 8.70102 9.22841V8.72841ZM6.56773 9.69194C5.90139 9.08201 5.0241 8.72841 4.09767 8.72841V9.22841C4.89611 9.22841 5.65372 9.53315 6.23013 10.0608L6.56773 9.69194ZM4.09767 8.72841C3.61264 8.72841 3.1404 8.82542 2.7048 9.00618L2.89645 9.468C3.27232 9.31202 3.67951 9.22841 4.09767 9.22841V8.72841ZM3.04457 9.29179C3.8697 5.61194 7.12668 2.86125 11.0014 2.86125V2.36125C6.88334 2.36125 3.43094 5.28347 2.55668 9.18239L3.04457 9.29179ZM11.0014 2.86125C14.8753 2.86125 18.1323 5.61192 18.9575 9.29179L19.4454 9.18239C18.5711 5.28348 15.1187 2.36125 11.0014 2.36125V2.86125ZM19.2973 9.00618C18.8617 8.82543 18.3903 8.72841 17.9044 8.72841V9.22841C18.3233 9.22841 18.7297 9.31201 19.1056 9.468L19.2973 9.00618ZM17.9044 8.72841H17.9044V9.22841H17.9044V8.72841ZM15.0258 24.9511C12.8063 27.1978 9.19477 27.1978 6.97526 24.9511L6.61956 25.3025C9.03481 27.7474 12.9663 27.7474 15.3815 25.3025L15.0258 24.9511ZM6.97526 24.9511C4.75408 22.7027 4.75408 19.0416 6.97526 16.7931L6.61956 16.4417C4.20598 18.8849 4.20598 22.8593 6.61956 25.3025L6.97526 24.9511ZM6.97532 16.793C8.08526 15.6687 9.54239 15.1076 11.001 15.1076V14.6076C9.41382 14.6076 7.82694 15.2186 6.61949 16.4418L6.97532 16.793ZM11.001 15.1076C12.4587 15.1076 13.9158 15.6687 15.0257 16.793L15.3816 16.4418C14.1741 15.2187 12.5873 14.6076 11.001 14.6076V15.1076ZM15.0258 16.7931C17.2478 19.0416 17.2478 22.7026 15.0258 24.9511L15.3815 25.3025C17.796 22.8593 17.796 18.8849 15.3815 16.4417L15.0258 16.7931ZM15.2037 25.3768H15.2037V24.8768H15.2037V25.3768ZM11.0004 0.75C5.34529 0.75 0.75 5.40603 0.75 11.1232H1.25C1.25 5.67641 5.62716 1.25 11.0004 1.25V0.75ZM0.75 11.1232V11.1515H1.25V11.1232H0.75ZM0.75 11.1515C0.75 11.63 1.06904 12.0511 1.53107 12.1734L1.65904 11.6901C1.41989 11.6268 1.25 11.4069 1.25 11.1515H0.75ZM1.53169 12.1736C1.99362 12.2946 2.47807 12.086 2.70959 11.6656L2.27163 11.4244C2.15002 11.6452 1.89764 11.7526 1.65842 11.6899L1.53169 12.1736ZM2.70953 11.6657C2.99125 11.1549 3.52345 10.8395 4.09665 10.8395V10.3395C3.33882 10.3395 2.64018 10.7561 2.2717 11.4243L2.70953 11.6657ZM4.09665 10.8395C4.66984 10.8395 5.20204 11.1549 5.48376 11.6657L5.92159 11.4243C5.55311 10.7561 4.85446 10.3395 4.09665 10.3395V10.8395ZM5.48399 11.6661C5.66844 11.9991 6.01822 12.2075 6.39874 12.2075V11.7075C6.20207 11.7075 6.01872 11.5996 5.92137 11.4239L5.48399 11.6661ZM6.39874 12.2075C6.77889 12.2075 7.12757 11.9987 7.31181 11.6661L6.87443 11.4239C6.77686 11.6 6.59415 11.7075 6.39874 11.7075V12.2075ZM7.3119 11.666C7.59456 11.1548 8.12694 10.8395 8.69915 10.8395V10.3395C7.94208 10.3395 7.24362 10.7562 6.87434 11.424L7.3119 11.666ZM8.69915 10.8395C9.217 10.8395 9.70147 11.0984 9.9989 11.5262L10.4095 11.2408C10.021 10.6821 9.38501 10.3395 8.69915 10.3395V10.8395ZM9.95418 11.3835V13.2894H10.4542V11.3835H9.95418ZM10.1776 13.0408C8.46534 13.2237 6.8018 13.9769 5.49337 15.3022L5.84918 15.6535C7.07374 14.4132 8.6291 13.7091 10.2307 13.538L10.1776 13.0408ZM5.49344 15.3022C2.45845 18.3736 2.45848 23.3697 5.49342 26.4418L5.84912 26.0905C3.00656 23.2131 3.00659 18.5303 5.8491 15.6536L5.49344 15.3022ZM5.49342 26.4418C7.01153 27.9786 9.0058 28.7468 11.0004 28.7468V28.2468C9.13444 28.2468 7.26981 27.5286 5.84912 26.0905L5.49342 26.4418ZM11.0004 28.7468C12.9942 28.7468 14.9885 27.9786 16.5066 26.4418L16.1508 26.0905C14.7302 27.5286 12.8655 28.2468 11.0004 28.2468V28.7468ZM16.5066 26.4418C19.5415 23.3697 19.5415 18.3736 16.5065 15.3022L16.1509 15.6536C18.9934 18.5302 18.9934 23.2131 16.1509 26.0905L16.5066 26.4418ZM16.5066 15.3023C15.1982 13.9769 13.5347 13.2237 11.8223 13.0408L11.7693 13.538C13.3709 13.709 14.9262 14.4132 16.1508 15.6535L16.5066 15.3023ZM12.0458 13.2894V11.3843H11.5458V13.2894H12.0458ZM12.0012 11.5269C12.2986 11.0984 12.783 10.8395 13.3017 10.8395V10.3395C12.615 10.3395 11.9789 10.6821 11.5904 11.2418L12.0012 11.5269ZM13.3017 10.8395C13.8749 10.8395 14.4071 11.1549 14.6888 11.6657L15.1266 11.4243C14.7582 10.7561 14.0595 10.3395 13.3017 10.3395V10.8395ZM14.689 11.6661C14.8733 11.9987 15.222 12.2075 15.6021 12.2075V11.7075C15.4067 11.7075 15.224 11.6 15.1264 11.4239L14.689 11.6661ZM15.6021 12.2075C15.9829 12.2075 16.3317 11.9989 16.516 11.6661L16.0786 11.4239C15.9811 11.5999 15.7985 11.7075 15.6021 11.7075V12.2075ZM16.5162 11.6657C16.7979 11.1549 17.3302 10.8395 17.9034 10.8395V10.3395C17.1455 10.3395 16.4469 10.7561 16.0784 11.4243L16.5162 11.6657ZM17.9034 10.8395C18.4766 10.8395 19.0088 11.1549 19.2905 11.6657L19.7283 11.4243C19.3598 10.7561 18.6612 10.3395 17.9034 10.3395V10.8395ZM19.2908 11.6662C19.4784 12.0047 19.8306 12.2075 20.2046 12.2075V11.7075C20.0116 11.7075 19.8273 11.6027 19.728 11.4238L19.2908 11.6662ZM20.2046 12.2075C20.2922 12.2075 20.3812 12.1962 20.4676 12.1738L20.3423 11.6897C20.2963 11.7016 20.2494 11.7075 20.2046 11.7075V12.2075ZM20.4689 12.1734C20.9309 12.0511 21.25 11.63 21.25 11.1515H20.75C20.75 11.4069 20.5801 11.6268 20.341 11.6901L20.4689 12.1734ZM21.25 11.1515V11.1232H20.75V11.1515H21.25ZM21.25 11.1232C21.2509 5.40603 16.6556 0.75 11.0004 0.75V1.25C16.3737 1.25 20.7508 5.67641 20.75 11.1231L21.25 11.1232ZM11.0004 0.75H11.0004V1.25H11.0004V0.75Z" fill="white"/>
<path fill-rule="evenodd" clip-rule="evenodd" d="M9.95799 5.49368C9.95799 4.91091 10.4247 4.43848 11.0004 4.43848C11.5761 4.43848 12.0428 4.91091 12.0428 5.49368C12.0428 6.07646 11.5761 6.54888 11.0004 6.54888C10.4247 6.54888 9.95799 6.07646 9.95799 5.49368Z" fill="#FCAF17"/>
</svg>
