<svg width="16" height="16" viewBox="0 0 16 16" fill="none" xmlns="http://www.w3.org/2000/svg">
<path opacity="0.01" fill-rule="evenodd" clip-rule="evenodd" d="M-0.00018 16V0H15.9998V16H-0.00018Z" fill="black"/>
<path fill-rule="evenodd" clip-rule="evenodd" d="M4.37702 8.72172L5.8352 10.1799L3.96459 10.5923L4.37702 8.72172ZM8.81051 3.93472L10.6222 5.74641L6.42437 9.92949L4.61268 8.13252L8.81051 3.93472ZM10.1214 3.13935C10.8291 3.13929 11.4029 3.71299 11.4029 4.42071C11.4029 4.42564 11.4029 4.43058 11.4028 4.43551C11.4077 4.77267 11.2747 5.09719 11.0346 5.33398L9.22293 3.50755C9.46161 3.27037 9.7849 3.13786 10.1214 3.13935H10.1214ZM3.58165 11.2699H3.64057L6.48332 10.6512C6.53869 10.642 6.59 10.6164 6.6306 10.5776L11.447 5.76112C11.7989 5.41004 11.9952 4.93251 11.992 4.4355C11.9927 3.93463 11.797 3.45347 11.447 3.09514C11.096 2.7433 10.6184 2.54699 10.1214 2.55018C9.62122 2.54575 9.14144 2.74832 8.79579 3.10989L3.99405 7.92632C3.9517 7.9604 3.92083 8.00667 3.90567 8.05888L3.28707 10.9016C3.27018 11.0037 3.303 11.1077 3.37545 11.1815C3.42983 11.237 3.50395 11.2688 3.58165 11.2699V11.2699Z" fill="black"/>
<path d="M4.37702 8.72172L4.44773 8.65101L4.31866 8.52194L4.27937 8.70019L4.37702 8.72172ZM5.8352 10.1799L5.85673 10.2776L6.03498 10.2383L5.90591 10.1092L5.8352 10.1799ZM3.96459 10.5923L3.86694 10.5708L3.83322 10.7237L3.98612 10.69L3.96459 10.5923ZM8.81051 3.93472L8.88122 3.86401L8.81051 3.7933L8.7398 3.86401L8.81051 3.93472ZM10.6222 5.74641L10.6928 5.81725L10.7637 5.74654L10.6929 5.6757L10.6222 5.74641ZM6.42437 9.92949L6.35395 10.0005L6.42453 10.0705L6.49496 10.0003L6.42437 9.92949ZM4.61268 8.13252L4.54197 8.06181L4.47097 8.13281L4.54226 8.20352L4.61268 8.13252ZM10.1214 3.13935V3.23935H10.1214L10.1214 3.13935ZM11.4029 4.42071H11.5029V4.4207L11.4029 4.42071ZM11.4028 4.43551L11.3028 4.4345L11.3029 4.43694L11.4028 4.43551ZM11.0346 5.33398L10.9636 5.4044L11.0339 5.47521L11.1048 5.40517L11.0346 5.33398ZM9.22293 3.50755L9.15244 3.43662L9.08157 3.50704L9.15193 3.57797L9.22293 3.50755ZM10.1214 3.13935L10.121 3.23935H10.1214V3.13935ZM3.58165 11.2699V11.1699H3.48165V11.2699H3.58165ZM3.64057 11.2699V11.3699H3.65132L3.66183 11.3676L3.64057 11.2699ZM6.48332 10.6512L6.46687 10.5525L6.46206 10.5535L6.48332 10.6512ZM6.6306 10.5776L6.69968 10.6499L6.70131 10.6483L6.6306 10.5776ZM11.447 5.76112L11.3764 5.69033L11.3763 5.69041L11.447 5.76112ZM11.992 4.4355L11.892 4.43537L11.892 4.43614L11.992 4.4355ZM11.447 3.09514L11.5186 3.02526L11.5178 3.02451L11.447 3.09514ZM10.1214 2.55018L10.1205 2.65019L10.1221 2.65018L10.1214 2.55018ZM8.79579 3.10989L8.86662 3.18051L8.86807 3.17899L8.79579 3.10989ZM3.99405 7.92632L4.05712 8.0047L4.06487 7.99692L3.99405 7.92632ZM3.90567 8.05888L3.80941 8.03093L3.80796 8.03762L3.90567 8.05888ZM3.28707 10.9016L3.18923 10.8803L3.18841 10.8853L3.28707 10.9016ZM3.37545 11.1815L3.44686 11.1115L3.44683 11.1115L3.37545 11.1815ZM3.58165 11.2699L3.58023 11.3699L3.68165 11.3713V11.2699H3.58165ZM4.30631 8.79243L5.76449 10.2506L5.90591 10.1092L4.44773 8.65101L4.30631 8.79243ZM5.81367 10.0822L3.94306 10.4947L3.98612 10.69L5.85673 10.2776L5.81367 10.0822ZM4.06224 10.6139L4.47467 8.74325L4.27937 8.70019L3.86694 10.5708L4.06224 10.6139ZM8.7398 4.00543L10.5515 5.81712L10.6929 5.6757L8.88122 3.86401L8.7398 4.00543ZM10.5516 5.67558L6.35378 9.85866L6.49496 10.0003L10.6928 5.81725L10.5516 5.67558ZM6.49479 9.85849L4.6831 8.06152L4.54226 8.20352L6.35395 10.0005L6.49479 9.85849ZM4.68339 8.20323L8.88122 4.00543L8.7398 3.86401L4.54197 8.06181L4.68339 8.20323ZM10.1214 3.23935C10.7739 3.2393 11.3029 3.76822 11.3029 4.42072L11.5029 4.4207C11.5029 3.65776 10.8844 3.03929 10.1214 3.03935L10.1214 3.23935ZM11.3029 4.42071C11.3029 4.42524 11.3029 4.42984 11.3029 4.4345L11.5028 4.43653C11.5029 4.43133 11.5029 4.42604 11.5029 4.42071H11.3029ZM11.3029 4.43694C11.3073 4.74685 11.185 5.04514 10.9644 5.26279L11.1048 5.40517C11.3643 5.14924 11.508 4.79849 11.5028 4.43408L11.3029 4.43694ZM11.1056 5.26356L9.29393 3.43713L9.15193 3.57797L10.9636 5.4044L11.1056 5.26356ZM9.29342 3.57848C9.51326 3.36003 9.81103 3.23798 10.121 3.23935L10.1218 3.03935C9.75877 3.03774 9.40996 3.18072 9.15244 3.43662L9.29342 3.57848ZM10.1214 3.23935H10.1214V3.03935H10.1214V3.23935ZM3.58165 11.3699H3.64057V11.1699H3.58165V11.3699ZM3.66183 11.3676L6.50458 10.7489L6.46206 10.5535L3.61931 11.1721L3.66183 11.3676ZM6.49974 10.7499C6.5749 10.7373 6.64455 10.7025 6.69966 10.6499L6.56154 10.5053C6.53545 10.5302 6.50248 10.5467 6.46689 10.5526L6.49974 10.7499ZM6.70131 10.6483L11.5177 5.83183L11.3763 5.69041L6.55989 10.5069L6.70131 10.6483ZM11.5177 5.83191C11.8885 5.46191 12.0953 4.95865 12.092 4.43487L11.892 4.43614C11.895 4.90637 11.7093 5.35817 11.3764 5.69033L11.5177 5.83191ZM12.092 4.43563C12.0927 3.9086 11.8868 3.40231 11.5186 3.02527L11.3755 3.16501C11.7072 3.50463 11.8926 3.96066 11.892 4.43537L12.092 4.43563ZM11.5178 3.02451C11.1478 2.65371 10.6446 2.44682 10.1208 2.45018L10.1221 2.65018C10.5923 2.64716 11.0441 2.83289 11.3762 3.16577L11.5178 3.02451ZM10.1223 2.45018C9.5945 2.44551 9.08824 2.65926 8.72351 3.04079L8.86807 3.17899C9.19464 2.83738 9.64794 2.64599 10.1205 2.65018L10.1223 2.45018ZM8.72497 3.03929L3.92323 7.85572L4.06487 7.99692L8.86661 3.18049L8.72497 3.03929ZM3.93136 7.84841C3.87305 7.89533 3.83052 7.95906 3.80964 8.031L4.0017 8.08677C4.01113 8.05429 4.03035 8.02547 4.05674 8.00423L3.93136 7.84841ZM3.80796 8.03762L3.18936 10.8804L3.38478 10.9229L4.00338 8.08014L3.80796 8.03762ZM3.18841 10.8853C3.16631 11.0188 3.20925 11.1549 3.30407 11.2515L3.44683 11.1115C3.39674 11.0604 3.37405 10.9885 3.38573 10.918L3.18841 10.8853ZM3.30403 11.2515C3.37687 11.3258 3.47614 11.3684 3.58023 11.3699L3.58307 11.1699C3.53176 11.1691 3.48279 11.1482 3.44686 11.1115L3.30403 11.2515ZM3.68165 11.2699V11.2699H3.48165V11.2699H3.68165Z" fill="black"/>
<path fill-rule="evenodd" clip-rule="evenodd" d="M12.9336 12.8613H3.06711C2.90445 12.8613 2.77259 12.993 2.77259 13.1555C2.77259 13.318 2.90446 13.4497 3.06711 13.4497H12.9336C13.0962 13.4497 13.2281 13.318 13.2281 13.1555C13.2281 12.993 13.0962 12.8613 12.9336 12.8613H12.9336Z" fill="black" stroke="black" stroke-width="0.2"/>
</svg>
