<svg width="22" height="22" viewBox="0 0 22 22" fill="none" xmlns="http://www.w3.org/2000/svg">
<rect x="1" y="11.9437" width="3.42848" height="9.14261" fill="#FCAF17"/>
<circle cx="15.5715" cy="5.37263" r="3.14277" fill="#FCAF17"/>
<path d="M1.10887 20.453L0.44043 20.7932L0.440711 20.7937L1.10887 20.453ZM1.54609 20.8903L1.20527 21.5584L1.20599 21.5587L1.54609 20.8903ZM4.4538 20.8903L4.7939 21.5587L4.79457 21.5584L4.4538 20.8903ZM4.89105 20.453L5.5592 20.7937L5.55952 20.7931L4.89105 20.453ZM4.89105 12.5452L5.56003 12.2062L5.55916 12.2044L4.89105 12.5452ZM4.4538 12.1087L4.11175 12.7762L4.11523 12.778L4.4538 12.1087ZM1.54609 12.1087L1.88471 12.778L1.88814 12.7762L1.54609 12.1087ZM1.10887 12.5452L0.440745 12.2045L0.439932 12.2061L1.10887 12.5452ZM5.00007 18.3366C4.58585 18.3366 4.25007 18.6724 4.25007 19.0866C4.25007 19.5008 4.58585 19.8366 5.00007 19.8366V18.3366ZM8.61875 19.2081L8.43989 19.9365L8.4418 19.9369L8.61875 19.2081ZM11.3772 19.8778L11.5553 19.1493L11.5542 19.149L11.3772 19.8778ZM13.2034 19.9206L13.0602 19.1844L13.06 19.1844L13.2034 19.9206ZM16.2528 19.3273L16.3961 20.0635L16.3961 20.0635L16.2528 19.3273ZM18.3806 18.2196L18.9036 18.7572L18.9036 18.7572L18.3806 18.2196ZM20.5375 16.1211L20.0151 15.583L20.0145 15.5836L20.5375 16.1211ZM20.5375 13.9522L21.0606 13.4147L21.0605 13.4146L20.5375 13.9522ZM18.4773 13.8097L18.9193 14.4156L18.9194 14.4156L18.4773 13.8097ZM15.9626 15.6442L15.5206 15.0383L15.52 15.0388L15.9626 15.6442ZM12.2854 15.2992C11.8712 15.2992 11.5354 15.6349 11.5354 16.0492C11.5354 16.4634 11.8712 16.7992 12.2854 16.7992V15.2992ZM14.2144 12.7215L14.0371 13.4502L14.0374 13.4503L14.2144 12.7215ZM11.8287 12.141L12.006 11.4122L12.0047 11.4119L11.8287 12.141ZM7.93177 12.798L8.22118 13.4899C8.22873 13.4867 8.23623 13.4834 8.24367 13.48L7.93177 12.798ZM4.71066 13.3323C4.32853 13.4921 4.14832 13.9315 4.30815 14.3136C4.46799 14.6958 4.90734 14.876 5.28947 14.7161L4.71066 13.3323ZM12.9637 7.96228C13.301 7.72182 13.3795 7.25348 13.139 6.91621C12.8986 6.57893 12.4302 6.50044 12.093 6.74089L12.9637 7.96228ZM12.8335 3.04504C13.0529 3.39634 13.5156 3.50322 13.8669 3.28376C14.2182 3.06431 14.3251 2.60162 14.1056 2.25032L12.8335 3.04504ZM0.250115 13.5997V19.3993H1.75012V13.5997H0.250115ZM0.250115 19.3993C0.250115 19.6671 0.249534 19.9129 0.266191 20.1171C0.283562 20.3301 0.323327 20.563 0.44043 20.7932L1.77731 20.1129C1.78566 20.1293 1.77104 20.1155 1.76123 19.9952C1.7507 19.8661 1.75012 19.6918 1.75012 19.3993H0.250115ZM0.440711 20.7937C0.608632 21.1231 0.876272 21.3905 1.20527 21.5584L1.8869 20.2222C1.8395 20.198 1.80112 20.1596 1.77703 20.1124L0.440711 20.7937ZM1.20599 21.5587C1.43613 21.6758 1.66908 21.7156 1.88207 21.733C2.08631 21.7496 2.33208 21.749 2.59982 21.749V20.249C2.30735 20.249 2.13312 20.2485 2.00399 20.2379C1.88361 20.2281 1.8698 20.2135 1.88618 20.2218L1.20599 21.5587ZM2.59982 21.749H3.40007V20.249H2.59982V21.749ZM3.40007 21.749C3.66748 21.749 3.9132 21.7496 4.11752 21.733C4.33039 21.7156 4.56363 21.6759 4.7939 21.5587L4.1137 20.2218C4.13022 20.2134 4.11633 20.2281 3.99566 20.2379C3.86641 20.2485 3.69215 20.249 3.40007 20.249V21.749ZM4.79457 21.5584C5.12363 21.3906 5.39128 21.1231 5.5592 20.7937L4.22289 20.1124C4.1988 20.1596 4.16044 20.198 4.11303 20.2222L4.79457 21.5584ZM5.55952 20.7931C5.67659 20.563 5.71633 20.3301 5.7337 20.1171C5.75035 19.9129 5.74977 19.6671 5.74977 19.3993H4.24977C4.24977 19.6918 4.24919 19.8661 4.23866 19.9952C4.22884 20.1156 4.21423 20.1294 4.22257 20.113L5.55952 20.7931ZM5.74977 19.3993V13.5997H4.24977V19.3993H5.74977ZM5.74977 13.5997C5.74977 13.3319 5.75035 13.0862 5.7337 12.8819C5.71633 12.6687 5.67659 12.4361 5.56003 12.2062L4.22207 12.8843C4.21422 12.8688 4.22885 12.8833 4.23866 13.0037C4.24919 13.133 4.24977 13.3072 4.24977 13.5997H5.74977ZM5.55916 12.2044C5.39137 11.8755 5.12341 11.607 4.79237 11.4395L4.11523 12.778C4.16065 12.801 4.1987 12.8385 4.22293 12.886L5.55916 12.2044ZM4.79585 11.4413C4.5651 11.323 4.33126 11.2829 4.11795 11.2654C3.91337 11.2486 3.66739 11.2492 3.40007 11.2492V12.7492C3.69224 12.7492 3.86624 12.7498 3.99522 12.7604C4.11547 12.7703 4.12874 12.7849 4.11175 12.7762L4.79585 11.4413ZM3.40007 11.2492H2.59982V12.7492H3.40007V11.2492ZM2.59982 11.2492C2.33216 11.2492 2.08614 11.2486 1.88162 11.2654C1.6682 11.2829 1.43465 11.3231 1.20404 11.4413L1.88814 12.7762C1.87128 12.7848 1.88448 12.7702 2.00443 12.7604C2.13329 12.7498 2.30726 12.7492 2.59982 12.7492V11.2492ZM1.20747 11.4395C0.876496 11.607 0.608538 11.8755 0.440747 12.2045L1.77699 12.886C1.80121 12.8385 1.83927 12.8009 1.8847 12.778L1.20747 11.4395ZM0.439932 12.2061C0.323318 12.4361 0.283566 12.6687 0.266189 12.8819C0.249535 13.0862 0.250115 13.3319 0.250115 13.5997H1.75012C1.75012 13.3072 1.7507 13.133 1.76123 13.0037C1.77104 12.8834 1.78567 12.8689 1.7778 12.8844L0.439932 12.2061ZM18.2501 5.4998C18.2501 7.01809 17.0186 8.24921 15.4999 8.24921V9.74921C17.8466 9.74921 19.7501 7.84694 19.7501 5.4998H18.2501ZM15.4999 8.24921C13.9812 8.24921 12.7497 7.01807 12.7497 5.4998H11.2497C11.2497 7.84693 13.1532 9.74921 15.4999 9.74921V8.24921ZM12.7497 5.4998C12.7497 3.98063 13.9813 2.74961 15.4999 2.74961V1.24961C13.1531 1.24961 11.2497 3.15199 11.2497 5.4998H12.7497ZM15.4999 2.74961C17.0185 2.74961 18.2501 3.98063 18.2501 5.4998H19.7501C19.7501 3.152 17.8467 1.24961 15.4999 1.24961V2.74961ZM5.00007 19.8366H7.61002V18.3366H5.00007V19.8366ZM7.61002 19.8366C7.89097 19.8366 8.16915 19.87 8.43989 19.9365L8.79762 18.4797C8.40837 18.3842 8.01003 18.3366 7.61002 18.3366V19.8366ZM8.4418 19.9369L11.2003 20.6067L11.5542 19.149L8.79571 18.4793L8.4418 19.9369ZM11.1991 20.6064C11.9034 20.7785 12.6363 20.7952 13.3468 20.6567L13.06 19.1844C12.5616 19.2815 12.048 19.2697 11.5553 19.1493L11.1991 20.6064ZM13.3466 20.6568L16.3961 20.0635L16.1096 18.5911L13.0602 19.1844L13.3466 20.6568ZM16.3961 20.0635C17.3427 19.8793 18.2163 19.4259 18.9036 18.7572L17.8576 17.6821C17.3824 18.1444 16.7739 18.4619 16.1096 18.5911L16.3961 20.0635ZM18.9036 18.7572L21.0605 16.6587L20.0145 15.5836L17.8576 17.6821L18.9036 18.7572ZM21.0599 16.6593C21.9802 15.7659 21.9792 14.3088 21.0606 13.4147L20.0144 14.4897C20.3287 14.7956 20.3277 15.2795 20.0151 15.583L21.0599 16.6593ZM21.0605 13.4146C20.2427 12.619 18.9559 12.5321 18.0352 13.2039L18.9194 14.4156C19.2527 14.1724 19.7238 14.2069 20.0145 14.4898L21.0605 13.4146ZM18.0353 13.2038L15.5206 15.0383L16.4046 16.2501L18.9193 14.4156L18.0353 13.2038ZM15.52 15.0388C15.2904 15.2066 15.0072 15.2992 14.7139 15.2992V16.7992C15.3206 16.7992 15.9148 16.6082 16.4053 16.2496L15.52 15.0388ZM14.7139 15.2992H12.2854V16.7992H14.7139V15.2992ZM12.2854 16.7992H13.8312V15.2992H12.2854V16.7992ZM13.8312 16.7992C15.0964 16.7992 16.1576 15.7965 16.1576 14.5155H14.6576C14.6576 14.9293 14.3074 15.2992 13.8312 15.2992V16.7992ZM16.1576 14.5155V14.2087H14.6576V14.5155H16.1576ZM16.1576 14.2087C16.1576 13.1468 15.4167 12.2416 14.3914 11.9927L14.0374 13.4503C14.4146 13.5419 14.6576 13.8637 14.6576 14.2087H16.1576ZM14.3917 11.9928L12.006 11.4123L11.6514 12.8697L14.0371 13.4502L14.3917 11.9928ZM12.0047 11.4119C11.5594 11.3044 11.1028 11.2492 10.6429 11.2492V12.7492C10.9826 12.7492 11.321 12.79 11.6527 12.87L12.0047 11.4119ZM10.6429 11.2492C10.016 11.2492 9.22669 11.494 8.67267 11.6926C8.37861 11.7979 8.11753 11.9029 7.93007 11.9814C7.83609 12.0207 7.75996 12.0537 7.70669 12.0771C7.68005 12.0889 7.65908 12.0982 7.64441 12.1048C7.63707 12.1081 7.63131 12.1107 7.62719 12.1126C7.62514 12.1135 7.62349 12.1142 7.62227 12.1148C7.62166 12.1151 7.62115 12.1153 7.62075 12.1155C7.62055 12.1156 7.62038 12.1157 7.62023 12.1157C7.62016 12.1158 7.62007 12.1158 7.62003 12.1158C7.61995 12.1159 7.61987 12.1159 7.93177 12.798C8.24367 13.48 8.24361 13.4801 8.24355 13.4801C8.24354 13.4801 8.24349 13.4801 8.24347 13.4801C8.24343 13.4801 8.24342 13.4802 8.24343 13.4801C8.24346 13.4801 8.24359 13.4801 8.24382 13.48C8.24428 13.4798 8.24515 13.4794 8.24643 13.4788C8.24899 13.4776 8.25315 13.4757 8.25884 13.4732C8.27023 13.4681 8.28773 13.4603 8.31073 13.4501C8.35675 13.4299 8.42462 13.4005 8.50945 13.365C8.67964 13.2937 8.91551 13.1989 9.17869 13.1046C9.73913 12.9038 10.3054 12.7492 10.6429 12.7492V11.2492ZM7.64237 12.1061L4.71066 13.3323L5.28947 14.7161L8.22118 13.4899L7.64237 12.1061ZM12.093 6.74089C11.6437 7.0612 11.0945 7.24955 10.4989 7.24955V8.74955C11.4167 8.74955 12.2685 8.4579 12.9637 7.96228L12.093 6.74089ZM10.4989 7.24955C8.9805 7.24955 7.74946 6.01872 7.74946 4.49941H6.24946C6.24946 6.84696 8.15188 8.74955 10.4989 8.74955V7.24955ZM7.74946 4.49941C7.74946 2.98086 8.98041 1.74994 10.4989 1.74994V0.249938C8.15198 0.249938 6.24946 2.15243 6.24946 4.49941H7.74946ZM10.4989 1.74994C11.4829 1.74994 12.3468 2.26605 12.8335 3.04504L14.1056 2.25032C13.3563 1.0508 12.0213 0.249938 10.4989 0.249938V1.74994Z" fill="#717171"/>
</svg>
