<svg width="21" height="21" viewBox="0 0 21 21" fill="none" xmlns="http://www.w3.org/2000/svg">
<path d="M16.5693 12.0412L18.9982 10.095V18.2693L16.5693 20.2155V12.0412Z" fill="#FCAF17"/>
<path fill-rule="evenodd" clip-rule="evenodd" d="M12.0957 15.2614C12.039 15.2228 11.9768 15.1921 11.9113 15.1692C11.8507 15.1385 11.7845 15.1172 11.7167 15.1078C11.5521 15.0747 11.3819 15.0826 11.2212 15.1314C11.0605 15.1795 10.9139 15.2662 10.795 15.3843C10.6075 15.5805 10.5019 15.8405 10.498 16.1115C10.4964 16.2447 10.5208 16.377 10.5697 16.5007C10.6256 16.6252 10.7012 16.7394 10.795 16.8387C10.8942 16.9293 11.0085 17.0018 11.1329 17.0537C11.2559 17.1081 11.3882 17.1357 11.5221 17.1357C11.6561 17.1357 11.7885 17.1081 11.9113 17.0537C12.0358 17.0018 12.1501 16.9293 12.2493 16.8387C12.3439 16.7433 12.4195 16.6299 12.4707 16.5046C12.5212 16.3801 12.5472 16.2462 12.5464 16.1115C12.5424 15.8405 12.4368 15.5805 12.2493 15.3843C12.2005 15.3402 12.1493 15.2992 12.0957 15.2614ZM18.6923 17.6715C18.6923 17.9434 18.5844 18.2041 18.3921 18.3955C18.1999 18.5878 17.9399 18.6957 17.6681 18.6957C17.3963 18.6957 17.1363 18.5878 16.9441 18.3955C16.7519 18.2041 16.6439 17.9434 16.6439 17.6715V12.5505H18.6923L18.6923 17.6715ZM3.32846 18.6957C3.05663 18.6957 2.79667 18.5877 2.60441 18.3955C2.41218 18.204 2.30427 17.9433 2.30427 17.6714V3.05613L4.35269 4.22373C4.51103 4.30645 4.68672 4.3498 4.86477 4.3498C5.04282 4.3498 5.21853 4.30644 5.37685 4.22373L8.44946 2.46209L11.522 4.22373C11.6804 4.30645 11.8561 4.3498 12.0342 4.3498C12.2122 4.3498 12.3879 4.30644 12.5463 4.22373L14.5947 3.05613V17.6714C14.5978 18.0212 14.66 18.3671 14.779 18.6957H3.32846ZM19.7159 10.502H16.6433V1.28417C16.644 1.1038 16.5968 0.926516 16.507 0.769739C16.4171 0.613771 16.2872 0.483742 16.1311 0.393184C15.9751 0.303303 15.7987 0.25605 15.6191 0.25605C15.4394 0.25605 15.263 0.303303 15.107 0.393184L12.0344 2.15477L8.96174 0.393184C8.80577 0.303303 8.62929 0.25605 8.44966 0.25605C8.27003 0.25605 8.09355 0.303303 7.93758 0.393184L4.86497 2.15477L1.79239 0.393184C1.63639 0.303303 1.45991 0.25605 1.28025 0.25605C1.10062 0.25605 0.924138 0.303303 0.76817 0.393184C0.612172 0.483742 0.482173 0.613771 0.392353 0.769739C0.302533 0.926516 0.25528 1.1038 0.25606 1.28417V17.6714C0.25606 18.4868 0.579897 19.2676 1.15579 19.8443C1.73248 20.4202 2.51404 20.744 3.32867 20.744H17.6675C18.4821 20.744 19.2637 20.4202 19.8403 19.8443C20.4162 19.2676 20.7401 18.4868 20.7401 17.6714V11.5262C20.7401 11.2544 20.6321 10.9944 20.4399 10.8021C20.2477 10.6099 19.9877 10.502 19.7159 10.502L19.7159 10.502ZM9.44931 15.0873H5.37678C5.105 15.0873 4.845 15.1952 4.65277 15.3875C4.46054 15.5797 4.35263 15.8397 4.35263 16.1115C4.35263 16.3833 4.46054 16.6441 4.65277 16.8355C4.845 17.0277 5.105 17.1357 5.37678 17.1357H9.44931C9.72114 17.1357 9.9811 17.0277 10.1734 16.8355C10.3656 16.6441 10.4735 16.3833 10.4735 16.1115C10.4735 15.8397 10.3656 15.5797 10.1734 15.3875C9.9811 15.1952 9.72113 15.0873 9.44931 15.0873ZM11.8161 12.0707H5.37678C5.105 12.0707 4.845 12.1786 4.65277 12.3708C4.46054 12.5631 4.35263 12.823 4.35263 13.0949C4.35263 13.3667 4.46054 13.6274 4.65277 13.8189C4.845 14.0111 5.105 14.119 5.37678 14.119H11.8161C12.0879 14.119 12.3479 14.0111 12.5401 13.8189C12.7323 13.6274 12.8403 13.3667 12.8403 13.0949C12.8403 12.823 12.7323 12.5631 12.5401 12.3708C12.3479 12.1786 12.0879 12.0707 11.8161 12.0707Z" fill="#717171"/>
<path d="M12.0957 15.2614L12.2433 15.0521L12.2398 15.0497L12.0957 15.2614ZM11.9113 15.1692L11.7955 15.3976L11.8108 15.4053L11.8269 15.411L11.9113 15.1692ZM11.7167 15.1078L11.6663 15.3588L11.6738 15.3603L11.6814 15.3614L11.7167 15.1078ZM11.2212 15.1314L11.2945 15.3768L11.2957 15.3764L11.2212 15.1314ZM10.795 15.3843L10.6145 15.2026L10.6099 15.2074L10.795 15.3843ZM10.498 16.1115L10.2419 16.1078L10.2419 16.1084L10.498 16.1115ZM10.5697 16.5007L10.3313 16.5949L10.3361 16.6057L10.5697 16.5007ZM10.795 16.8387L10.6089 17.0145L10.6154 17.0214L10.6223 17.0277L10.795 16.8387ZM11.1329 17.0537L11.2365 16.8195L11.2316 16.8174L11.1329 17.0537ZM11.9113 17.0537L11.8127 16.8174L11.8078 16.8196L11.9113 17.0537ZM12.2493 16.8387L12.4222 17.028L12.4311 17.019L12.2493 16.8387ZM12.4707 16.5046L12.7077 16.6015L12.708 16.6008L12.4707 16.5046ZM12.5464 16.1115L12.8024 16.11L12.8024 16.1077L12.5464 16.1115ZM12.2493 15.3843L12.4344 15.2074L12.4279 15.2006L12.421 15.1943L12.2493 15.3843ZM18.6923 17.6715L18.4362 17.6715V17.6715H18.6923ZM18.3921 18.3955L18.2115 18.2141L18.2111 18.2145L18.3921 18.3955ZM16.9441 18.3955L17.1252 18.2145L17.1248 18.2141L16.9441 18.3955ZM16.6439 12.5505V12.2945H16.3879V12.5505H16.6439ZM18.6923 12.5505L18.9484 12.5505L18.9484 12.2945H18.6923V12.5505ZM2.60441 18.3955L2.78548 18.2144L2.78509 18.214L2.60441 18.3955ZM2.30427 3.05613L2.43107 2.83368L2.04822 2.61546V3.05613H2.30427ZM4.35269 4.22373L4.22581 4.44633L4.23414 4.45068L4.35269 4.22373ZM5.37685 4.22373L5.4955 4.45085L5.5042 4.44586L5.37685 4.22373ZM8.44946 2.46209L8.57681 2.23996L8.44946 2.16694L8.3221 2.23996L8.44946 2.46209ZM11.522 4.22373L11.3946 4.44603L11.4035 4.45069L11.522 4.22373ZM12.5463 4.22373L12.6649 4.45085L12.6731 4.44618L12.5463 4.22373ZM14.5947 3.05613H14.8507V2.61546L14.4679 2.83368L14.5947 3.05613ZM14.5947 17.6714H14.3386L14.3386 17.6737L14.5947 17.6714ZM14.779 18.6957V18.9517H15.144L15.0198 18.6085L14.779 18.6957ZM19.7159 10.502L19.8218 10.2689L19.7713 10.2459H19.7159V10.502ZM16.6433 10.502H16.3872V10.758H16.6433V10.502ZM16.6433 1.28417L16.3872 1.28307V1.28417H16.6433ZM16.507 0.769739L16.7291 0.642464L16.7288 0.641957L16.507 0.769739ZM16.1311 0.393184L16.2597 0.171737L16.259 0.171324L16.1311 0.393184ZM15.107 0.393184L15.2343 0.615317L15.2348 0.615044L15.107 0.393184ZM12.0344 2.15477L11.907 2.3769L12.0344 2.44991L12.1617 2.3769L12.0344 2.15477ZM8.96174 0.393184L8.83389 0.615033L8.83438 0.615317L8.96174 0.393184ZM7.93758 0.393184L8.06493 0.615317L8.06542 0.615033L7.93758 0.393184ZM4.86497 2.15477L4.73761 2.3769L4.86497 2.44991L4.99232 2.3769L4.86497 2.15477ZM1.79239 0.393184L1.66456 0.615044L1.66504 0.615316L1.79239 0.393184ZM0.76817 0.393184L0.640323 0.171334L0.63962 0.171741L0.76817 0.393184ZM0.392353 0.769739L0.170466 0.641957L0.170182 0.642454L0.392353 0.769739ZM0.25606 1.28417H0.512112L0.512108 1.28306L0.25606 1.28417ZM1.15579 19.8443L0.974606 20.0252L0.974858 20.0255L1.15579 19.8443ZM19.8403 19.8443L20.0213 20.0255L20.0215 20.0252L19.8403 19.8443ZM20.4399 10.8021L20.621 10.6211L20.621 10.6211L20.4399 10.8021ZM19.7159 10.502L19.6099 10.7351L19.6604 10.7581H19.7159V10.502ZM4.65277 16.8355L4.83383 16.6544L4.83344 16.6541L4.65277 16.8355ZM10.1734 16.8355L9.99267 16.6541L9.99232 16.6544L10.1734 16.8355ZM10.1734 15.3875L10.3544 15.2064L10.3544 15.2064L10.1734 15.3875ZM4.65277 12.3708L4.47172 12.1898L4.47169 12.1898L4.65277 12.3708ZM4.65277 13.8189L4.83383 13.6378L4.83348 13.6375L4.65277 13.8189ZM12.5401 13.8189L12.3594 13.6375L12.3591 13.6378L12.5401 13.8189ZM12.5401 12.3708L12.7212 12.1898L12.7212 12.1897L12.5401 12.3708ZM12.2398 15.0497C12.1633 14.9977 12.0808 14.9572 11.9958 14.9275L11.8269 15.411C11.8727 15.427 11.9147 15.4479 11.9516 15.4731L12.2398 15.0497ZM12.0272 14.9409C11.9422 14.8978 11.849 14.8677 11.7521 14.8542L11.6814 15.3614C11.72 15.3668 11.7591 15.3791 11.7955 15.3976L12.0272 14.9409ZM11.7672 14.8567C11.5614 14.8154 11.3483 14.8252 11.1467 14.8865L11.2957 15.3764C11.4156 15.34 11.5428 15.334 11.6663 15.3588L11.7672 14.8567ZM11.1478 14.8861C10.9471 14.9461 10.7637 15.0545 10.6145 15.2027L10.9755 15.566C11.0642 15.4778 11.1738 15.4129 11.2945 15.3768L11.1478 14.8861ZM10.6099 15.2074C10.3774 15.4507 10.2468 15.7727 10.242 16.1078L10.754 16.1152C10.757 15.9083 10.8376 15.7103 10.9801 15.5613L10.6099 15.2074ZM10.2419 16.1084C10.2399 16.2749 10.2705 16.4402 10.3315 16.5948L10.8078 16.4067C10.7711 16.3138 10.7528 16.2145 10.754 16.1146L10.2419 16.1084ZM10.3361 16.6057C10.4034 16.7555 10.4949 16.8938 10.6089 17.0145L10.9811 16.6628C10.9076 16.585 10.8477 16.4949 10.8032 16.3958L10.3361 16.6057ZM10.6223 17.0277C10.7437 17.1385 10.8831 17.2269 11.0343 17.29L11.2316 16.8174C11.1339 16.7767 11.0448 16.72 10.9677 16.6496L10.6223 17.0277ZM11.0294 17.2879C11.1853 17.3569 11.3529 17.3918 11.5221 17.3918V16.8797C11.4235 16.8797 11.3265 16.8593 11.2365 16.8196L11.0294 17.2879ZM11.5221 17.3918C11.6913 17.3918 11.859 17.3569 12.0149 17.2879L11.8078 16.8196C11.7179 16.8593 11.6208 16.8797 11.5221 16.8797V17.3918ZM12.01 17.29C12.1613 17.2269 12.3006 17.1385 12.4219 17.0278L12.0767 16.6495C11.9995 16.72 11.9104 16.7767 11.8127 16.8174L12.01 17.29ZM12.4311 17.019C12.5491 16.9001 12.6436 16.7583 12.7077 16.6015L12.2337 16.4077C12.1954 16.5014 12.1387 16.5866 12.0675 16.6584L12.4311 17.019ZM12.708 16.6008C12.7709 16.4456 12.8034 16.2785 12.8024 16.11L12.2903 16.113C12.2909 16.2139 12.2714 16.3147 12.2334 16.4084L12.708 16.6008ZM12.8024 16.1077C12.7975 15.7727 12.6669 15.4507 12.4344 15.2074L12.0642 15.5612C12.2067 15.7103 12.2873 15.9083 12.2903 16.1152L12.8024 16.1077ZM12.421 15.1943C12.3646 15.1434 12.3054 15.096 12.2433 15.0522L11.9481 15.4706C11.9932 15.5024 12.0364 15.537 12.0777 15.5743L12.421 15.1943ZM18.4362 17.6715C18.4362 17.8756 18.3552 18.071 18.2115 18.2141L18.5728 18.577C18.8135 18.3373 18.9483 18.0111 18.9483 17.6715H18.4362ZM18.2111 18.2145C18.0667 18.3589 17.8719 18.4397 17.6681 18.4397V18.9518C18.008 18.9518 18.333 18.8168 18.5732 18.5766L18.2111 18.2145ZM17.6681 18.4397C17.4644 18.4397 17.2695 18.3589 17.1252 18.2145L16.763 18.5766C17.0031 18.8168 17.3283 18.9518 17.6681 18.9518V18.4397ZM17.1248 18.2141C16.981 18.071 16.9 17.8756 16.9 17.6715H16.3879C16.3879 18.0112 16.5227 18.3373 16.7634 18.577L17.1248 18.2141ZM16.9 17.6715V12.5505H16.3879V17.6715H16.9ZM16.6439 12.8066H18.6923V12.2945H16.6439V12.8066ZM18.4363 12.5505L18.4362 17.6715L18.9483 17.6715L18.9484 12.5505L18.4363 12.5505ZM3.32846 18.4396C3.1247 18.4396 2.92983 18.3588 2.78548 18.2144L2.42334 18.5765C2.66351 18.8167 2.98856 18.9517 3.32846 18.9517V18.4396ZM2.78509 18.214C2.64135 18.0709 2.56032 17.8755 2.56032 17.6714H2.04822C2.04822 18.0111 2.18302 18.3372 2.42374 18.5769L2.78509 18.214ZM2.56032 17.6714V3.05613H2.04822V17.6714H2.56032ZM2.17747 3.27858L4.22589 4.44618L4.47948 4.00128L2.43107 2.83368L2.17747 3.27858ZM4.23414 4.45068C4.42881 4.55238 4.64513 4.60585 4.86477 4.60585V4.09375C4.7283 4.09375 4.59326 4.06052 4.47124 3.99678L4.23414 4.45068ZM4.86477 4.60585C5.0844 4.60585 5.30076 4.55237 5.49541 4.45068L5.25829 3.99678C5.13631 4.06051 5.00124 4.09375 4.86477 4.09375V4.60585ZM5.5042 4.44586L8.57681 2.68422L8.3221 2.23996L5.24949 4.0016L5.5042 4.44586ZM8.3221 2.68422L11.3947 4.44586L11.6494 4.0016L8.57681 2.23996L8.3221 2.68422ZM11.4035 4.45069C11.5982 4.55238 11.8145 4.60585 12.0342 4.60585V4.09375C11.8977 4.09375 11.7626 4.06052 11.6406 3.99677L11.4035 4.45069ZM12.0342 4.60585C12.2538 4.60585 12.4701 4.55236 12.6648 4.4507L12.4277 3.99676C12.3057 4.06052 12.1706 4.09375 12.0342 4.09375V4.60585ZM12.6731 4.44618L14.7215 3.27858L14.4679 2.83368L12.4195 4.00128L12.6731 4.44618ZM14.3386 3.05613V17.6714H14.8507V3.05613H14.3386ZM14.3386 17.6737C14.342 18.0524 14.4094 18.427 14.5382 18.7828L15.0198 18.6085C14.9107 18.3072 14.8536 17.9901 14.8507 17.6691L14.3386 17.6737ZM14.779 18.4396H3.32846V18.9517H14.779V18.4396ZM19.7159 10.2459H16.6433V10.758H19.7159V10.2459ZM16.8993 10.502V1.28417H16.3872V10.502H16.8993ZM16.8993 1.28526C16.9003 1.05937 16.8411 0.837879 16.7291 0.642465L16.2848 0.897013C16.3525 1.01515 16.3878 1.14822 16.3872 1.28307L16.8993 1.28526ZM16.7288 0.641957C16.6165 0.446844 16.4542 0.284638 16.2597 0.171738L16.0026 0.61463C16.1201 0.682847 16.2178 0.780699 16.2851 0.897521L16.7288 0.641957ZM16.259 0.171324C16.0642 0.0590967 15.8437 0 15.6191 0V0.512101C15.7537 0.512101 15.8861 0.54751 16.0033 0.615044L16.259 0.171324ZM15.6191 0C15.3945 0 15.1739 0.0590929 14.9791 0.171324L15.2348 0.615044C15.352 0.547513 15.4844 0.512101 15.6191 0.512101V0ZM14.9796 0.171051L11.907 1.93263L12.1617 2.3769L15.2343 0.615316L14.9796 0.171051ZM12.1617 1.93263L9.08909 0.17105L8.83438 0.615317L11.907 2.3769L12.1617 1.93263ZM9.08958 0.171335C8.89481 0.0590912 8.67425 0 8.44966 0V0.512101C8.58432 0.512101 8.71673 0.547515 8.83389 0.615033L9.08958 0.171335ZM8.44966 0C8.22506 0 8.0045 0.0590913 7.80973 0.171335L8.06542 0.615033C8.18259 0.547515 8.31499 0.512101 8.44966 0.512101V0ZM7.81023 0.171051L4.73762 1.93263L4.99232 2.3769L8.06493 0.615317L7.81023 0.171051ZM4.99232 1.93263L1.91974 0.171051L1.66504 0.615316L4.73761 2.3769L4.99232 1.93263ZM1.92022 0.171324C1.72542 0.0590909 1.50487 0 1.28025 0V0.512101C1.41495 0.512101 1.54736 0.547515 1.66456 0.615044L1.92022 0.171324ZM1.28025 0C1.05566 0 0.835097 0.0590912 0.640323 0.171335L0.896016 0.615033C1.01318 0.547515 1.14558 0.512101 1.28025 0.512101V0ZM0.63962 0.171741C0.445144 0.284637 0.282833 0.446839 0.170467 0.641957L0.61424 0.897521C0.681513 0.780704 0.779199 0.682848 0.89672 0.614626L0.63962 0.171741ZM0.170182 0.642454C0.058223 0.837874 -0.000964087 1.05938 1.18737e-05 1.28527L0.512108 1.28306C0.511525 1.14822 0.546844 1.01516 0.614525 0.897024L0.170182 0.642454ZM9.49283e-06 1.28417V17.6714H0.51211V1.28417H9.49283e-06ZM9.49283e-06 17.6714C9.49283e-06 18.5548 0.350873 19.4006 0.974606 20.0252L1.33697 19.6634C0.808921 19.1346 0.51211 18.4188 0.51211 17.6714H9.49283e-06ZM0.974858 20.0255C1.59948 20.6492 2.44609 21 3.32867 21V20.4879C2.58198 20.4879 1.86547 20.1911 1.33672 19.6631L0.974858 20.0255ZM3.32867 21H17.6675V20.4879H3.32867V21ZM17.6675 21C18.55 21 19.3966 20.6492 20.0213 20.0255L19.6594 19.6631C19.1307 20.1911 18.4142 20.4879 17.6675 20.4879V21ZM20.0215 20.0252C20.6453 19.4006 20.9961 18.5548 20.9961 17.6714H20.484C20.484 18.4188 20.1872 19.1346 19.6592 19.6634L20.0215 20.0252ZM20.9961 17.6714V11.5262H20.484V17.6714H20.9961ZM20.9961 11.5262C20.9961 11.1863 20.8611 10.8613 20.621 10.6211L20.2588 10.9832C20.4032 11.1276 20.484 11.3225 20.484 11.5262H20.9961ZM20.621 10.6211C20.3808 10.381 20.0557 10.246 19.7159 10.246V10.7581C19.9196 10.7581 20.1145 10.8389 20.2588 10.9832L20.621 10.6211ZM19.8218 10.2689L19.8218 10.2689L19.6099 10.7351L19.6099 10.7351L19.8218 10.2689ZM9.44931 14.8312H5.37678V15.3433H9.44931V14.8312ZM5.37678 14.8312C5.0369 14.8312 4.71183 14.9663 4.47172 15.2064L4.83383 15.5685C4.97817 15.4242 5.1731 15.3433 5.37678 15.3433V14.8312ZM4.47172 15.2064C4.23157 15.4466 4.09658 15.7716 4.09658 16.1115H4.60868C4.60868 15.9077 4.68951 15.7128 4.83383 15.5685L4.47172 15.2064ZM4.09658 16.1115C4.09658 16.451 4.23137 16.7772 4.4721 17.0169L4.83344 16.6541C4.68971 16.5109 4.60868 16.3155 4.60868 16.1115H4.09658ZM4.47172 17.0165C4.71183 17.2567 5.0369 17.3917 5.37678 17.3917V16.8796C5.1731 16.8796 4.97817 16.7988 4.83383 16.6544L4.47172 17.0165ZM5.37678 17.3917H9.44931V16.8796H5.37678V17.3917ZM9.44931 17.3917C9.78925 17.3917 10.1143 17.2567 10.3544 17.0166L9.99232 16.6544C9.84793 16.7988 9.65303 16.8796 9.44931 16.8796V17.3917ZM10.3541 17.0169C10.5947 16.7772 10.7296 16.451 10.7296 16.1115H10.2175C10.2175 16.3155 10.1364 16.5109 9.99267 16.6541L10.3541 17.0169ZM10.7296 16.1115C10.7296 15.7716 10.5945 15.4465 10.3544 15.2064L9.99229 15.5685C10.1366 15.7128 10.2175 15.9078 10.2175 16.1115H10.7296ZM10.3544 15.2064C10.1143 14.9663 9.78924 14.8312 9.44931 14.8312V15.3433C9.65303 15.3433 9.84793 15.4242 9.99232 15.5685L10.3544 15.2064ZM11.8161 11.8146H5.37678V12.3267H11.8161V11.8146ZM5.37678 11.8146C5.03694 11.8146 4.71186 11.9496 4.47172 12.1898L4.83383 12.5519C4.97814 12.4075 5.17306 12.3267 5.37678 12.3267V11.8146ZM4.47169 12.1898C4.23158 12.43 4.09658 12.755 4.09658 13.0949H4.60868C4.60868 12.8911 4.6895 12.6962 4.83385 12.5518L4.47169 12.1898ZM4.09658 13.0949C4.09658 13.4344 4.23139 13.7605 4.47206 14.0003L4.83348 13.6375C4.68969 13.4943 4.60868 13.2989 4.60868 13.0949H4.09658ZM4.47172 14C4.71186 14.2401 5.03694 14.3751 5.37678 14.3751V13.863C5.17306 13.863 4.97814 13.7822 4.83383 13.6378L4.47172 14ZM5.37678 14.3751H11.8161V13.863H5.37678V14.3751ZM11.8161 14.3751C12.156 14.3751 12.481 14.2401 12.7212 14L12.3591 13.6378C12.2147 13.7822 12.0198 13.863 11.8161 13.863V14.3751ZM12.7208 14.0003C12.9615 13.7606 13.0963 13.4345 13.0963 13.0949H12.5842C12.5842 13.2989 12.5032 13.4943 12.3594 13.6375L12.7208 14.0003ZM13.0963 13.0949C13.0963 12.7549 12.9613 12.43 12.7212 12.1898L12.359 12.5518C12.5034 12.6962 12.5842 12.8911 12.5842 13.0949H13.0963ZM12.7212 12.1897C12.481 11.9496 12.156 11.8146 11.8161 11.8146V12.3267C12.0198 12.3267 12.2147 12.4075 12.3591 12.5519L12.7212 12.1897Z" fill="white"/>
<path fill-rule="evenodd" clip-rule="evenodd" d="M10.1485 5.84164H9.62915C9.7131 5.96148 9.77768 6.09503 9.8238 6.23974C9.8349 6.27376 9.84502 6.30883 9.85334 6.34483H10.1485C10.2546 6.34483 10.3552 6.38527 10.4216 6.48022C10.4807 6.56413 10.4982 6.66916 10.4982 6.77146V6.83227C10.4982 6.93445 10.4807 7.03954 10.4216 7.12344C10.3552 7.2184 10.2546 7.25884 10.1485 7.25884H9.8524C9.8155 7.41011 9.75832 7.55662 9.68264 7.69751C9.53322 7.97961 9.28413 8.19978 8.952 8.36283C8.63833 8.51404 8.22686 8.58869 7.72776 8.59696C7.77942 8.64401 7.8311 8.69556 7.88089 8.75181L9.85334 10.8095C9.87456 10.8317 9.89299 10.8538 9.90773 10.8749C9.92161 10.8926 9.94005 10.9201 9.95204 10.9525C9.96773 10.9984 9.97049 11.0519 9.97049 11.0944C9.97049 11.2344 9.86165 11.3109 9.78413 11.3478L9.77214 11.3524C9.68082 11.3874 9.55627 11.3984 9.41789 11.3984H9.31549C9.20939 11.3984 9.10698 11.3846 9.01103 11.357L9.00734 11.3561C8.90864 11.3246 8.82281 11.2731 8.75269 11.1985L6.35683 8.6965C6.28857 8.61352 6.2286 8.53894 6.17785 8.47257L6.17324 8.46701C6.11327 8.38131 6.06991 8.28469 6.06991 8.18048V8.09292C6.06991 7.98136 6.10313 7.86985 6.19631 7.79064C6.28487 7.71605 6.39927 7.69296 6.5109 7.69296H7.62165C7.84953 7.69296 8.04419 7.65246 8.21118 7.57596C8.38091 7.49841 8.50914 7.39815 8.60141 7.27744C8.6051 7.27096 8.6097 7.26541 8.61433 7.25886H6.41863C6.31256 7.25886 6.21198 7.21842 6.14556 7.12346C6.08655 7.03955 6.06992 6.93447 6.06992 6.83229V6.77148C6.06992 6.66917 6.08655 6.56414 6.14556 6.48024C6.21199 6.38529 6.31257 6.34485 6.41863 6.34485H8.62633C8.58204 6.26372 8.52575 6.20006 8.45935 6.1503L8.45655 6.14851C8.26469 6.00101 8.00081 5.92001 7.64933 5.92001H6.5109C6.39556 5.92001 6.27841 5.89321 6.18984 5.80937C6.10036 5.72454 6.06992 5.60846 6.06992 5.49331V5.35328C6.06992 5.23807 6.10036 5.12281 6.18984 5.03803C6.27841 4.95425 6.39556 4.92745 6.5109 4.92745H10.1485C10.2546 4.92745 10.3552 4.96795 10.4216 5.06205C10.4807 5.14583 10.4982 5.25184 10.4982 5.35328V5.4149C10.4982 5.51634 10.4807 5.62229 10.4216 5.70625C10.3552 5.80015 10.2546 5.84165 10.1485 5.84165L10.1485 5.84164Z" fill="#717171"/>
</svg>
