<svg width="24" height="24" viewBox="0 0 24 24" fill="none" xmlns="http://www.w3.org/2000/svg">
<path opacity="0.01" d="M0.5 23.5V0.5H23.5V23.5H0.5Z" fill="#080808" stroke="#020202"/>
<path fill-rule="evenodd" clip-rule="evenodd" d="M5.63526 7.41748C5.63526 6.91411 6.04606 6.50331 6.54943 6.50331H7.37103V7.0819C7.37103 7.40013 7.63138 7.66049 7.94962 7.66049C8.26785 7.66049 8.52821 7.40013 8.52821 7.0819V6.50331H15.4714V7.0819C15.4714 7.40013 15.7318 7.66049 16.05 7.66049C16.3683 7.66049 16.6286 7.40013 16.6286 7.0819V6.50331H17.4502C17.9536 6.50331 18.3644 6.91411 18.3644 7.41748V17.7397C18.3644 18.2431 17.9536 18.6539 17.4502 18.6539H6.54943C6.04606 18.6539 5.63526 18.2431 5.63526 17.7397V7.41748ZM6.54943 19.8111H17.4503C18.593 19.8111 19.5217 18.8825 19.5217 17.7397V7.41748C19.5217 6.27474 18.593 5.34608 17.4503 5.34608H16.6287V4.76749C16.6287 4.44926 16.3683 4.1889 16.05 4.1889C15.7318 4.1889 15.4714 4.44926 15.4714 4.76749V5.34608H8.52826V4.76749C8.52826 4.44926 8.26786 4.1889 7.94962 4.1889C7.63139 4.1889 7.37103 4.44926 7.37103 4.76749V5.34608H6.54943C5.40669 5.34608 4.47803 6.27474 4.47803 7.41748V17.7397C4.47803 18.8825 5.40669 19.8111 6.54943 19.8111Z" fill="black"/>
<path fill-rule="evenodd" clip-rule="evenodd" d="M7.94956 10.1191C7.94956 9.71786 8.27257 9.39259 8.67104 9.39259C9.0695 9.39259 9.39253 9.71785 9.39253 10.1191C9.39253 10.5203 9.06951 10.8456 8.67104 10.8456C8.27258 10.8456 7.94956 10.5203 7.94956 10.1191Z" fill="black"/>
<path fill-rule="evenodd" clip-rule="evenodd" d="M11.134 10.1191C11.134 9.71786 11.457 9.39259 11.8555 9.39259C12.2539 9.39259 12.5769 9.71785 12.5769 10.1191C12.5769 10.5203 12.2539 10.8456 11.8555 10.8456C11.457 10.8456 11.134 10.5203 11.134 10.1191Z" fill="black"/>
<path fill-rule="evenodd" clip-rule="evenodd" d="M14.3189 10.1191C14.3189 9.71786 14.6419 9.39259 15.0404 9.39259C15.4388 9.39259 15.7619 9.71785 15.7619 10.1191C15.7619 10.5203 15.4388 10.8456 15.0404 10.8456C14.6419 10.8456 14.3189 10.5203 14.3189 10.1191Z" fill="black"/>
<path fill-rule="evenodd" clip-rule="evenodd" d="M7.94956 13.0101C7.94956 12.6116 8.27257 12.2886 8.67104 12.2886C9.0695 12.2886 9.39253 12.6116 9.39253 13.0101C9.39253 13.4086 9.06951 13.7316 8.67104 13.7316C8.27258 13.7316 7.94956 13.4086 7.94956 13.0101Z" fill="black"/>
<path fill-rule="evenodd" clip-rule="evenodd" d="M11.134 13.0101C11.134 12.6116 11.457 12.2886 11.8555 12.2886C12.2539 12.2886 12.5769 12.6116 12.5769 13.0101C12.5769 13.4086 12.2539 13.7316 11.8555 13.7316C11.457 13.7316 11.134 13.4086 11.134 13.0101Z" fill="black"/>
<path fill-rule="evenodd" clip-rule="evenodd" d="M14.3189 13.0101C14.3189 12.6116 14.6419 12.2886 15.0404 12.2886C15.4388 12.2886 15.7619 12.6116 15.7619 13.0101C15.7619 13.4086 15.4388 13.7316 15.0404 13.7316C14.6419 13.7316 14.3189 13.4086 14.3189 13.0101Z" fill="black"/>
<path fill-rule="evenodd" clip-rule="evenodd" d="M7.94956 15.9061C7.94956 15.5076 8.27257 15.1846 8.67104 15.1846C9.0695 15.1846 9.39253 15.5076 9.39253 15.9061C9.39253 16.3046 9.06951 16.6276 8.67104 16.6276C8.27258 16.6276 7.94956 16.3046 7.94956 15.9061Z" fill="black"/>
<path fill-rule="evenodd" clip-rule="evenodd" d="M11.134 15.9061C11.134 15.5076 11.457 15.1846 11.8555 15.1846C12.2539 15.1846 12.5769 15.5076 12.5769 15.9061C12.5769 16.3046 12.2539 16.6276 11.8555 16.6276C11.457 16.6276 11.134 16.3046 11.134 15.9061Z" fill="black"/>
<path fill-rule="evenodd" clip-rule="evenodd" d="M14.3189 15.9061C14.3189 15.5076 14.6419 15.1846 15.0404 15.1846C15.4388 15.1846 15.7619 15.5076 15.7619 15.9061C15.7619 16.3046 15.4388 16.6276 15.0404 16.6276C14.6419 16.6276 14.3189 16.3046 14.3189 15.9061Z" fill="black"/>
</svg>
