<svg width="22" height="18" viewBox="0 0 22 18" fill="none" xmlns="http://www.w3.org/2000/svg">
<rect x="17.8216" y="5.88575" width="2.27338" height="9.66185" fill="#FCAF17"/>
<path d="M3.61297 15.5476V13.2742L18.9583 13.2742V15.5476L3.61297 15.5476Z" fill="#FCAF17"/>
<path d="M21.2329 5.70719V15.6602C21.2329 15.9538 21.1169 16.235 20.9096 16.4423C20.7023 16.6497 20.4204 16.7658 20.1277 16.7658H3.5446" stroke="#717171" stroke-width="1.5" stroke-linecap="round" stroke-linejoin="round"/>
<path fill-rule="evenodd" clip-rule="evenodd" d="M1.87273 11.8259H15.1407C15.7519 11.8259 16.247 11.3308 16.247 10.7203V1.87289C16.247 1.26246 15.7519 0.76729 15.1407 0.76729H1.87273C1.26242 0.76729 0.767348 1.26246 0.767348 1.87289V10.7203C0.767348 11.3308 1.26242 11.8259 1.87273 11.8259Z" stroke="#717171" stroke-width="1.5" stroke-linecap="round" stroke-linejoin="round"/>
<path fill-rule="evenodd" clip-rule="evenodd" d="M10.3068 3.91043H9.81684C9.89604 4.02375 9.95696 4.15002 10.0005 4.28686C10.0109 4.31902 10.0205 4.35218 10.0283 4.38622H10.3068C10.4069 4.38622 10.5018 4.42446 10.5644 4.51424C10.6201 4.59358 10.6367 4.69288 10.6367 4.78961V4.84712C10.6367 4.94373 10.6201 5.0431 10.5644 5.12243C10.5018 5.21222 10.4069 5.25046 10.3068 5.25046H10.0274C9.99263 5.39349 9.93869 5.53202 9.8673 5.66524C9.72634 5.93197 9.49135 6.14015 9.17802 6.29433C8.88211 6.43731 8.49394 6.50788 8.0231 6.51571C8.07183 6.5602 8.12058 6.60894 8.16756 6.66213L10.0283 8.60774C10.0484 8.62875 10.0657 8.64965 10.0796 8.66962C10.0927 8.68632 10.1101 8.71236 10.1214 8.74295C10.1362 8.78638 10.1389 8.837 10.1389 8.8771C10.1389 9.00951 10.0362 9.0819 9.96305 9.11675L9.95173 9.12113C9.86558 9.15418 9.74808 9.16462 9.61754 9.16462H9.52093C9.42084 9.16462 9.32423 9.15155 9.23371 9.12545L9.23023 9.12457C9.13712 9.09486 9.05615 9.04611 8.99 8.97553L6.72977 6.60983C6.66538 6.53137 6.6088 6.46084 6.56093 6.39809L6.55658 6.39284C6.50001 6.31181 6.4591 6.22044 6.4591 6.1219V6.03912C6.4591 5.93363 6.49044 5.8282 6.57835 5.75329C6.66189 5.68277 6.76981 5.66094 6.87512 5.66094H7.92299C8.13797 5.66094 8.32161 5.62264 8.47915 5.55031C8.63927 5.47698 8.76023 5.38218 8.84728 5.26805C8.85076 5.26192 8.8551 5.25667 8.85947 5.25048H6.78808C6.68801 5.25048 6.59313 5.21224 6.53046 5.12245C6.4748 5.04311 6.45911 4.94375 6.45911 4.84714V4.78963C6.45911 4.69289 6.4748 4.59359 6.53046 4.51426C6.59314 4.42448 6.68802 4.38623 6.78808 4.38623H8.87079C8.82901 4.30952 8.7759 4.24933 8.71326 4.20228L8.71062 4.20059C8.52963 4.06112 8.28068 3.98453 7.9491 3.98453H6.87512C6.76632 3.98453 6.6558 3.95919 6.57224 3.87992C6.48783 3.79971 6.45911 3.68995 6.45911 3.58107V3.44867C6.45911 3.33973 6.48783 3.23074 6.57224 3.15058C6.6558 3.07136 6.76632 3.04602 6.87512 3.04602H10.3068C10.4069 3.04602 10.5018 3.08432 10.5644 3.17329C10.6201 3.25251 10.6367 3.35275 10.6367 3.44867V3.50693C10.6367 3.60284 10.6201 3.70303 10.5644 3.78241C10.5018 3.8712 10.4069 3.91044 10.3068 3.91044L10.3068 3.91043Z" fill="#717171"/>
</svg>
