<svg width="24" height="24" viewBox="0 0 24 24" fill="none" xmlns="http://www.w3.org/2000/svg">
<path d="M9.00003 9.99997H10C10.2652 9.99997 10.5196 9.89461 10.7071 9.70708C10.8947 9.51954 11 9.26519 11 8.99997C11 8.73475 10.8947 8.4804 10.7071 8.29286C10.5196 8.10533 10.2652 7.99997 10 7.99997H9.00003C8.73481 7.99997 8.48046 8.10533 8.29292 8.29286C8.10539 8.4804 8.00003 8.73475 8.00003 8.99997C8.00003 9.26519 8.10539 9.51954 8.29292 9.70708C8.48046 9.89461 8.73481 9.99997 9.00003 9.99997ZM9.00003 12C8.73481 12 8.48046 12.1053 8.29292 12.2929C8.10539 12.4804 8.00003 12.7348 8.00003 13C8.00003 13.2652 8.10539 13.5195 8.29292 13.7071C8.48046 13.8946 8.73481 14 9.00003 14H15C15.2652 14 15.5196 13.8946 15.7071 13.7071C15.8947 13.5195 16 13.2652 16 13C16 12.7348 15.8947 12.4804 15.7071 12.2929C15.5196 12.1053 15.2652 12 15 12H9.00003ZM20 8.93997C19.9896 8.8481 19.9695 8.7576 19.94 8.66997V8.57997C19.8919 8.47715 19.8278 8.38263 19.75 8.29997L13.75 2.29997C13.6674 2.22219 13.5729 2.15805 13.47 2.10997C13.4402 2.10573 13.4099 2.10573 13.38 2.10997C13.2784 2.05171 13.1663 2.01431 13.05 1.99997H7.00003C6.20438 1.99997 5.44132 2.31604 4.87871 2.87865C4.3161 3.44126 4.00003 4.20432 4.00003 4.99997V19C4.00003 19.7956 4.3161 20.5587 4.87871 21.1213C5.44132 21.6839 6.20438 22 7.00003 22H17C17.7957 22 18.5587 21.6839 19.1214 21.1213C19.684 20.5587 20 19.7956 20 19V8.99997V8.93997ZM14 5.40997L16.59 7.99997H15C14.7348 7.99997 14.4805 7.89461 14.2929 7.70708C14.1054 7.51954 14 7.26519 14 6.99997V5.40997ZM18 19C18 19.2652 17.8947 19.5195 17.7071 19.7071C17.5196 19.8946 17.2652 20 17 20H7.00003C6.73481 20 6.48046 19.8946 6.29292 19.7071C6.10539 19.5195 6.00003 19.2652 6.00003 19V4.99997C6.00003 4.73475 6.10539 4.4804 6.29292 4.29286C6.48046 4.10533 6.73481 3.99997 7.00003 3.99997H12V6.99997C12 7.79562 12.3161 8.55868 12.8787 9.12129C13.4413 9.6839 14.2044 9.99997 15 9.99997H18V19ZM9.00003 16C8.73481 16 8.48046 16.1053 8.29292 16.2929C8.10539 16.4804 8.00003 16.7348 8.00003 17C8.00003 17.2652 8.10539 17.5195 8.29292 17.7071C8.48046 17.8946 8.73481 18 9.00003 18H15C15.2652 18 15.5196 17.8946 15.7071 17.7071C15.8947 17.5195 16 17.2652 16 17C16 16.7348 15.8947 16.4804 15.7071 16.2929C15.5196 16.1053 15.2652 16 15 16H9.00003Z" fill="#717171"/>
<path d="M9.00003 9.99997H10C10.2652 9.99997 10.5196 9.89461 10.7071 9.70708C10.8947 9.51954 11 9.26519 11 8.99997C11 8.73475 10.8947 8.4804 10.7071 8.29286C10.5196 8.10533 10.2652 7.99997 10 7.99997H9.00003C8.73481 7.99997 8.48046 8.10533 8.29292 8.29286C8.10539 8.4804 8.00003 8.73475 8.00003 8.99997C8.00003 9.26519 8.10539 9.51954 8.29292 9.70708C8.48046 9.89461 8.73481 9.99997 9.00003 9.99997ZM9.00003 12C8.73481 12 8.48046 12.1053 8.29292 12.2929C8.10539 12.4804 8.00003 12.7348 8.00003 13C8.00003 13.2652 8.10539 13.5195 8.29292 13.7071C8.48046 13.8946 8.73481 14 9.00003 14H15C15.2652 14 15.5196 13.8946 15.7071 13.7071C15.8947 13.5195 16 13.2652 16 13C16 12.7348 15.8947 12.4804 15.7071 12.2929C15.5196 12.1053 15.2652 12 15 12H9.00003ZM20 8.93997C19.9896 8.8481 19.9695 8.7576 19.94 8.66997V8.57997C19.8919 8.47715 19.8278 8.38263 19.75 8.29997L13.75 2.29997C13.6674 2.22219 13.5729 2.15805 13.47 2.10997C13.4402 2.10573 13.4099 2.10573 13.38 2.10997C13.2784 2.05171 13.1663 2.01431 13.05 1.99997H7.00003C6.20438 1.99997 5.44132 2.31604 4.87871 2.87865C4.3161 3.44126 4.00003 4.20432 4.00003 4.99997V19C4.00003 19.7956 4.3161 20.5587 4.87871 21.1213C5.44132 21.6839 6.20438 22 7.00003 22H17C17.7957 22 18.5587 21.6839 19.1214 21.1213C19.684 20.5587 20 19.7956 20 19V8.99997V8.93997ZM14 5.40997L16.59 7.99997H15C14.7348 7.99997 14.4805 7.89461 14.2929 7.70708C14.1054 7.51954 14 7.26519 14 6.99997V5.40997ZM18 19C18 19.2652 17.8947 19.5195 17.7071 19.7071C17.5196 19.8946 17.2652 20 17 20H7.00003C6.73481 20 6.48046 19.8946 6.29292 19.7071C6.10539 19.5195 6.00003 19.2652 6.00003 19V4.99997C6.00003 4.73475 6.10539 4.4804 6.29292 4.29286C6.48046 4.10533 6.73481 3.99997 7.00003 3.99997H12V6.99997C12 7.79562 12.3161 8.55868 12.8787 9.12129C13.4413 9.6839 14.2044 9.99997 15 9.99997H18V19ZM9.00003 16C8.73481 16 8.48046 16.1053 8.29292 16.2929C8.10539 16.4804 8.00003 16.7348 8.00003 17C8.00003 17.2652 8.10539 17.5195 8.29292 17.7071C8.48046 17.8946 8.73481 18 9.00003 18H15C15.2652 18 15.5196 17.8946 15.7071 17.7071C15.8947 17.5195 16 17.2652 16 17C16 16.7348 15.8947 16.4804 15.7071 16.2929C15.5196 16.1053 15.2652 16 15 16H9.00003Z" stroke="#F5F5F5"/>
<path d="M13.1702 4C13.1702 4 17.3881 8.13396 17.9408 8.48264C17.9821 8.47988 18.0029 8.48491 18 8.5C17.9977 8.51216 17.9772 8.50562 17.9408 8.48264C17.444 8.51588 13.9927 9.67762 13.5 8C12.9664 6.18302 13.1702 4 13.1702 4Z" fill="#FCAF17"/>
</svg>
