<svg width="17" height="18" viewBox="0 0 17 18" fill="none" xmlns="http://www.w3.org/2000/svg">
<path fill-rule="evenodd" clip-rule="evenodd" d="M13.7902 10.1899L4.13024 15.8101C3.91424 15.9301 3.66924 16 3.42023 16C3.17124 16 2.92723 15.93 2.71024 15.8101C2.49424 15.6801 2.31524 15.5 2.19024 15.29C2.06623 15.07 2.00024 14.83 2.00024 14.58V3.42005C2.00024 3.17005 2.06623 2.92005 2.19024 2.70997C2.31524 2.49 2.49424 2.31007 2.71024 2.18995C2.92823 2.06995 3.17223 2.00001 3.42023 2.00001C3.66924 2.00001 3.91223 2.06996 4.13024 2.18995L13.7902 7.77003C14.0062 7.89003 14.1862 8.06996 14.3102 8.29005C14.4352 8.50001 14.5012 8.75001 14.5012 9.00001C14.5012 9.25001 14.4352 9.49 14.3102 9.70997C14.1862 9.92005 14.0062 10.1 13.7902 10.23V10.1899ZM14.7902 6L5.13024 0.45996C4.60723 0.16003 4.01424 0 3.41123 0C2.80724 0 2.21523 0.16003 1.69423 0.46997C1.17223 0.77002 0.741228 1.20996 0.444228 1.72998C0.147228 2.26001 -0.00677155 2.84998 0.000228446 3.45996V14.58C0.000228446 15.49 0.361218 16.36 1.00223 17C1.64324 17.64 2.51323 18 3.42023 18C4.02123 18 4.61022 17.84 5.13024 17.54L14.7902 12C15.3092 11.7 15.7402 11.27 16.0402 10.75C16.3392 10.23 16.4972 9.64001 16.4972 9.04004C16.4972 8.43994 16.3392 7.84998 16.0402 7.32996C15.7402 6.81006 15.3092 6.38001 14.7902 6.07996V6Z" fill="#8C8C8C"/>
</svg>
