<svg width="86" height="46" viewBox="0 0 86 46" fill="none" xmlns="http://www.w3.org/2000/svg">
<g filter="url(#filter0_d_0_72)">
<path d="M79 0H7C3.68629 0 1 2.68629 1 6V38C1 41.3137 3.68629 44 7 44H79C82.3137 44 85 41.3137 85 38V6C85 2.68629 82.3137 0 79 0Z" fill="#FCFFFF"/>
</g>
<path d="M79 0H7C3.68629 0 1 2.68629 1 6V38C1 41.3137 3.68629 44 7 44H79C82.3137 44 85 41.3137 85 38V6C85 2.68629 82.3137 0 79 0Z" fill="#EAEBEE"/>
<path d="M50 21H37V23H50V21Z" fill="#252525"/>
<defs>
<filter id="filter0_d_0_72" x="0" y="0" width="86" height="46" filterUnits="userSpaceOnUse" color-interpolation-filters="sRGB">
<feFlood flood-opacity="0" result="BackgroundImageFix"/>
<feColorMatrix in="SourceAlpha" type="matrix" values="0 0 0 0 0 0 0 0 0 0 0 0 0 0 0 0 0 0 127 0" result="hardAlpha"/>
<feOffset dy="1"/>
<feGaussianBlur stdDeviation="0.5"/>
<feColorMatrix type="matrix" values="0 0 0 0 0 0 0 0 0 0 0 0 0 0 0 0 0 0 0.36 0"/>
<feBlend mode="normal" in2="BackgroundImageFix" result="effect1_dropShadow_0_72"/>
<feBlend mode="normal" in="SourceGraphic" in2="effect1_dropShadow_0_72" result="shape"/>
</filter>
</defs>
</svg>
