<svg width="24" height="24" viewBox="0 0 24 24" fill="none" xmlns="http://www.w3.org/2000/svg">
<path d="M10.125 6.75H13.875L15 10.5H9L10.125 6.75Z" fill="#FCAF17"/>
<path d="M22.5623 15.3625C22.4713 15.0683 22.1989 14.8678 21.8906 14.8678H20.0498L18.7968 10.8217C18.7057 10.5275 18.4334 10.327 18.1251 10.327H16.2842L15.0312 6.28085C14.9401 5.98666 14.6677 5.78613 14.3594 5.78613H9.64064C9.33234 5.78613 9.06 5.98666 8.96892 6.28085L7.7159 10.327H5.87503C5.56673 10.327 5.29439 10.5275 5.20331 10.8217L3.95029 14.8678H2.10937C1.80107 14.8678 1.52873 15.0683 1.43765 15.3625L0.0314012 19.9033C-0.0345988 20.1164 0.00472936 20.348 0.137245 20.5275C0.269761 20.7071 0.479808 20.813 0.70312 20.813H23.2969C23.5202 20.813 23.7302 20.7071 23.8627 20.5275C23.9953 20.348 24.0346 20.1163 23.9686 19.9033L22.5623 15.3625ZM18.5778 14.8678H12.9534L13.9248 11.7313H17.6065L18.5778 14.8678ZM15.7656 17.7343L15.3128 16.2722H16.2184L15.7656 17.7343ZM12 13.1935L11.5472 11.7313H12.4528L12 13.1935ZM10.1592 7.19046H13.8409L14.8122 10.3269H9.18782L10.1592 7.19046ZM6.39351 11.7313H10.0753L11.0466 14.8678H5.42217L6.39351 11.7313ZM8.23439 17.7343L7.78157 16.2722H8.6872L8.23439 17.7343ZM1.65656 19.4086L2.6279 16.2722H6.30965L7.281 19.4086H1.65656ZM9.18782 19.4086L10.1592 16.2722H13.8409L14.8122 19.4086H9.18782ZM16.719 19.4086L17.6904 16.2722H21.3721L22.3435 19.4086H16.719Z" fill="#717171"/>
<path d="M1.30312 5.93189H1.60195V6.56972C1.60195 6.95752 1.91677 7.27191 2.30508 7.27191C2.69339 7.27191 3.0082 6.95752 3.0082 6.56972V5.93189H3.30703C3.69534 5.93189 4.01016 5.6175 4.01016 5.2297C4.01016 4.84191 3.69534 4.52752 3.30703 4.52752H3.0082V3.88969C3.0082 3.50189 2.69339 3.1875 2.30508 3.1875C1.91677 3.1875 1.60195 3.50189 1.60195 3.88969V4.52752H1.30312C0.914812 4.52752 0.6 4.84191 0.6 5.2297C0.6 5.6175 0.914812 5.93189 1.30312 5.93189Z" fill="#717171"/>
<path d="M20.693 7.67213H20.9918V8.30995C20.9918 8.69775 21.3066 9.01214 21.6949 9.01214C22.0832 9.01214 22.398 8.69775 22.398 8.30995V7.67213H22.6969C23.0852 7.67213 23.4 7.35773 23.4 6.96994C23.4 6.58214 23.0852 6.26775 22.6969 6.26775H22.398V5.62992C22.398 5.24213 22.0832 4.92773 21.6949 4.92773C21.3066 4.92773 20.9918 5.24213 20.9918 5.62992V6.26775H20.693C20.3047 6.26775 19.9898 6.58214 19.9898 6.96994C19.9898 7.35773 20.3047 7.67213 20.693 7.67213Z" fill="#717171"/>
</svg>
