<svg width="22" height="22" viewBox="0 0 22 22" fill="none" xmlns="http://www.w3.org/2000/svg">
<path d="M3.4002 21.1585L2.2002 13.9585L11.4002 15.9585L19.4002 13.9585L18.2002 21.1585H3.4002Z" fill="#FCAF17"/>
<path d="M19.704 13.6577L18.9038 20.0195C18.8713 20.29 18.7396 20.539 18.5346 20.7197C18.3295 20.8996 18.0652 20.9979 17.7927 20.9962H4.20031C3.9269 20.9979 3.66267 20.8996 3.45763 20.7197C3.25344 20.539 3.12169 20.29 3.0892 20.0195L2.289 13.6577" stroke="#717171" stroke-width="1.4" stroke-linecap="round" stroke-linejoin="round"/>
<path d="M15.579 1.97679L15.0837 2.47143L15.0841 2.4718L15.579 1.97679ZM6.42139 1.97679L6.91634 2.47179L6.91671 2.47142L6.42139 1.97679ZM5.44479 5.44403H4.74479C4.74479 5.83063 5.05819 6.14403 5.44479 6.14403V5.44403ZM16.5556 5.44403V6.14403C16.9422 6.14403 17.2556 5.83063 17.2556 5.44403H16.5556ZM20.2442 13.4768L20.4656 14.1409L20.4671 14.1404L20.2442 13.4768ZM15.2112 15.1551L15.4323 15.8193L15.4327 15.8191L15.2112 15.1551ZM6.79021 15.1551L6.56878 15.8191L6.56911 15.8193L6.79021 15.1551ZM1.75725 13.4768L1.53577 14.1409L1.53582 14.1409L1.75725 13.4768ZM1.19228 13.0485L1.77105 12.6547L1.77097 12.6546L1.19228 13.0485ZM1.00149 12.3661L1.70056 12.4022C1.70118 12.3902 1.70149 12.3781 1.70149 12.3661H1.00149ZM1.00149 5.44414V4.74414C0.614893 4.74414 0.301492 5.05754 0.301492 5.44414H1.00149ZM21 5.44414H21.7C21.7 5.05754 21.3866 4.74414 21 4.74414V5.44414ZM21 12.4219H20.3L20.3 12.4244L21 12.4219ZM20.7925 13.071L21.361 13.4795L21.3612 13.4792L20.7925 13.071ZM17.2556 4.33327C17.2556 3.26324 16.83 2.23776 16.074 1.48179L15.0841 2.4718C15.5779 2.96557 15.8556 3.63508 15.8556 4.33327H17.2556ZM16.0743 1.48216C15.3179 0.724675 14.2922 0.300187 13.2225 0.300187V1.70019C13.9211 1.70019 14.5903 1.9773 15.0837 2.47143L16.0743 1.48216ZM13.2225 0.300187H8.77787V1.70019H13.2225V0.300187ZM8.77787 0.300187C7.70913 0.300187 6.68258 0.724602 5.92607 1.48216L6.91671 2.47142C7.4101 1.97735 8.08004 1.70019 8.77787 1.70019V0.300187ZM5.92644 1.48179C5.1704 2.23776 4.74479 3.26322 4.74479 4.33327H6.14479C6.14479 3.63511 6.42249 2.9656 6.91634 2.47179L5.92644 1.48179ZM4.74479 4.33327V5.44403H6.14479V4.33327H4.74479ZM5.44479 6.14403H16.5556V4.74403H5.44479V6.14403ZM17.2556 5.44403V4.33327H15.8556V5.44403H17.2556ZM20.0228 12.8128L14.9898 14.491L15.4327 15.8191L20.4656 14.1409L20.0228 12.8128ZM14.9901 14.4909C12.4005 15.353 9.6009 15.353 7.01131 14.4909L6.56911 15.8193C9.44575 16.7769 12.5557 16.7769 15.4323 15.8193L14.9901 14.4909ZM7.01164 14.491L1.97868 12.8128L1.53582 14.1409L6.56878 15.8191L7.01164 14.491ZM1.97873 12.8128C1.89553 12.7851 1.82222 12.73 1.77105 12.6547L0.613522 13.4422C0.835706 13.7688 1.15903 14.0152 1.53577 14.1409L1.97873 12.8128ZM1.77097 12.6546C1.72061 12.5806 1.69589 12.4926 1.70056 12.4022L0.302425 12.33C0.28203 12.7246 0.390671 13.1148 0.613598 13.4423L1.77097 12.6546ZM1.70149 12.3661V5.44414H0.301492V12.3661H1.70149ZM1.00149 6.14414H21V4.74414H1.00149V6.14414ZM20.3 5.44414V12.4219H21.7V5.44414H20.3ZM20.3 12.4244C20.3003 12.5099 20.2735 12.5937 20.2239 12.6628L21.3612 13.4792C21.5831 13.1701 21.7013 12.7988 21.7 12.4194L20.3 12.4244ZM20.224 12.6626C20.1728 12.734 20.1014 12.7864 20.0213 12.8133L20.4671 14.1404C20.8286 14.0189 21.1406 13.7863 21.361 13.4795L20.224 12.6626Z" fill="#717171"/>
<path fill-rule="evenodd" clip-rule="evenodd" d="M9.88934 10.9993H12.1109H9.88934Z" fill="white" stroke="black"/>
</svg>
