<svg width="24" height="24" viewBox="0 0 24 24" fill="none" xmlns="http://www.w3.org/2000/svg">
<ellipse cx="12" cy="19" rx="3" ry="2" fill="#FCAF17"/>
<path fill-rule="evenodd" clip-rule="evenodd" d="M8.75533 3.92422C8.9074 2.28433 10.302 1 12 1C13.698 1 15.0926 2.28434 15.2447 3.92422C17.9048 5.13812 19.7528 7.799 19.7528 10.8889V14.3983C19.7528 14.7318 19.8868 15.0516 20.1252 15.2874L21.7038 16.8485C21.993 17.1345 22.0795 17.5646 21.923 17.9382C21.7665 18.3119 21.3977 18.5556 20.9887 18.5556H16.382V18.6667C16.382 21.0599 14.4201 23 12 23C9.57988 23 7.61799 21.0599 7.61799 18.6667V18.5556H3.01126C2.60226 18.5556 2.23352 18.3119 2.07701 17.9382C1.92049 17.5646 2.007 17.1345 2.29621 16.8485L3.87478 15.2874C4.11325 15.0516 4.24721 14.7318 4.24721 14.3983V10.8889C4.24721 7.799 6.09518 5.13812 8.75533 3.92422ZM9.64046 18.5556V18.6667C9.64046 19.9553 10.6969 21 12 21C13.3031 21 14.3595 19.9553 14.3595 18.6667V18.5556H9.64046ZM12 3C11.3174 3 10.764 3.54721 10.764 4.22222V4.60157C10.764 5.02539 10.4939 5.40318 10.0898 5.54441C7.8628 6.3228 6.26968 8.42315 6.26968 10.8889V14.3983C6.26968 15.1952 5.97441 15.9619 5.44378 16.5556H18.5562C18.0256 15.9619 17.7303 15.1952 17.7303 14.3983V10.8889C17.7303 8.42315 16.1372 6.3228 13.9102 5.54441C13.5061 5.40318 13.236 5.02539 13.236 4.60157V4.22222C13.236 3.54721 12.6826 3 12 3Z" fill="#717171"/>
</svg>
