<svg width="157" height="140" viewBox="0 0 157 140" fill="none" xmlns="http://www.w3.org/2000/svg">
<path d="M134.666 133.365C132.089 134.882 129.201 136.113 126.044 137.086C118.101 139.562 108.531 140.406 98.1821 139.819C84.2513 139.018 73.2367 136.47 64.5155 132.692C58.258 129.973 53.1891 126.638 49.0841 122.846C33.9211 108.893 31.7272 88.9709 31.2174 72.8131C30.2267 40.8128 44.5534 30.3801 69.2021 28.691C93.8501 27.0164 81.8586 59.346 106.847 70.7948C131.82 82.2443 144.478 78.8667 147.818 105.142C149.517 118.609 144.222 127.825 134.666 133.364L134.666 133.365Z" fill="#FCAF17"/>
<path d="M115.8 138.719C111.599 108.758 100.034 105.835 84.0257 101.791C77.106 100.044 69.2638 98.0619 60.7376 93.6777C30.7858 78.2787 41.4399 52.7704 46.5602 40.5108L47.1985 40.7842C41.7728 53.7726 31.6743 77.9496 61.0509 93.0538C69.5089 97.4014 77.3098 99.3728 84.1932 101.111C100.463 105.222 112.217 108.192 116.484 138.62L115.799 138.718L115.8 138.719Z" fill="#F9F3FF"/>
<path d="M64.5154 132.693C58.2579 129.974 53.1891 126.639 49.0841 122.847L54.0391 100.593C64.2326 110.296 64.9259 125.137 64.5154 132.693Z" fill="#FCAF17"/>
<path d="M56.9554 107.247V122.646C56.9554 130.861 51.1794 137.773 43.5199 139.433C42.3733 139.691 41.1839 139.82 39.9662 139.82H16.9885C7.64496 139.82 0 132.092 0 122.646V107.247C0 103.068 1.50056 99.218 3.99255 96.2414C7.10682 92.4775 11.7789 90.0735 16.9892 90.0735H39.9669C49.3111 90.0735 56.9561 97.8016 56.9561 107.247H56.9554Z" fill="#FFE8A6"/>
<path d="M47.4697 113.043V128.457C47.4697 132.622 45.9829 136.457 43.5199 139.433C42.3733 139.691 41.1839 139.82 39.9662 139.82H16.9885C7.64496 139.82 0 132.092 0 122.646V107.247C0 103.068 1.50056 99.2181 3.99255 96.2415C5.12541 95.9981 6.28583 95.8698 7.48976 95.8698H30.4812C39.8255 95.8698 47.4704 103.598 47.4704 113.043H47.4697Z" fill="#EAC365"/>
<path d="M30.2238 63.7908C26.7702 60.3758 36.8121 52.0495 41.6249 53.6712C46.437 55.2922 33.6783 67.2058 30.2238 63.7908Z" fill="#447770"/>
<path d="M22.5999 63.4941C19.5639 65.1656 12.7436 57.9845 12.5144 56.0108C12.2845 54.0372 6.09079 53.4382 6.00449 50.1435C5.91818 46.8487 10.9624 47.5306 6.50274 43.9653C2.04239 40.3992 2.86194 34.6023 9.92161 35.3618C16.982 36.1206 22.3294 46.1926 23.3672 53.9727C24.0809 59.3239 23.0691 63.236 22.5999 63.4948V63.4941Z" fill="#447770"/>
<path d="M27.3554 58.8913C19.3935 59.5841 19.3405 45.2306 22.0254 43.9425C23.7777 43.1016 25.0672 44.2497 25.6561 42.7277C26.6678 40.1111 21.2799 35.4299 22.9523 33.1271C24.6248 30.8243 28.5745 35.5252 30.9548 34.361C33.3359 33.1968 31.3102 27.1256 36.2608 25.4628C41.2115 23.8008 41.2144 35.4255 38.3924 43.8237C35.6596 51.9587 31.1013 58.5651 27.3546 58.8913H27.3554Z" fill="#578E87"/>
<path d="M33.3026 89.9275C27.8196 91.3725 22.2402 91.3256 16.5737 89.9275L14.7403 71.7477H35.0214L33.3026 89.9275Z" fill="#896A6A"/>
<path d="M35.3361 67.8107H14.2659C13.5541 67.8107 12.9771 68.394 12.9771 69.1135V73.34C12.9771 74.0596 13.5541 74.6428 14.2659 74.6428H35.3361C36.0479 74.6428 36.6249 74.0596 36.6249 73.34V69.1135C36.6249 68.394 36.0479 67.8107 35.3361 67.8107Z" fill="#B59191"/>
<path d="M15.0325 74.6429L15.2791 77.0909L34.4245 78.0564L34.7472 74.6429H15.0325Z" fill="#755252"/>
<path d="M35.6762 67.8768C35.6762 68.2199 31.3725 68.4919 25.8794 68.5205H23.7559C23.6144 68.5205 23.4585 68.5205 23.3171 68.5065C18.051 68.4779 13.9874 68.2059 13.9874 67.8768C13.9874 67.5476 17.9371 67.2756 23.1191 67.2323C23.2605 67.2184 23.4165 67.2184 23.5579 67.2323C23.9829 67.2184 24.4072 67.2184 24.8322 67.2184H25.9084C31.3871 67.2609 35.677 67.5476 35.677 67.8768H35.6762Z" fill="#755252"/>
<path d="M27.8376 68.319C27.8253 68.319 27.8144 68.3175 27.8021 68.3146C27.686 68.2948 27.607 68.1834 27.628 68.0661C28.5143 62.8827 33.0819 60.533 33.1276 60.511C33.2357 60.4597 33.3626 60.5029 33.4141 60.6078C33.4663 60.7156 33.4235 60.8439 33.3191 60.8974C33.2749 60.9194 28.8979 63.1782 28.0486 68.1394C28.0305 68.2457 27.9406 68.3197 27.8383 68.3197L27.8376 68.319Z" fill="#3D5452"/>
<path d="M23.7559 68.5206C23.6145 68.5206 23.4586 68.5206 23.3172 68.5067C23.2751 68.1489 23.204 67.7339 23.1192 67.2332C22.6093 64.3849 21.2219 59.2617 17.4563 52.6355C17.3998 52.5212 17.428 52.3921 17.5274 52.3349C17.6406 52.2778 17.7682 52.3064 17.8248 52.4207C21.6469 59.1473 23.0488 64.3563 23.5587 67.2332C23.6435 67.7339 23.7146 68.1636 23.7567 68.5213L23.7559 68.5206Z" fill="#3D5452"/>
<path d="M33.4969 38.2519C27.14 46.9822 26.0644 61.0497 25.9085 67.2177C25.8947 67.7045 25.8802 68.1334 25.8802 68.5198H25.4552C25.4552 68.1334 25.469 67.7038 25.469 67.2177C25.6394 61.0065 26.7295 46.8099 33.1567 37.9938C33.2271 37.8934 33.3547 37.8794 33.4541 37.9505C33.5389 38.0224 33.5672 38.1507 33.4961 38.2511L33.4969 38.2519Z" fill="#3D5452"/>
<path d="M156.996 126.26C156.898 127.031 155.003 130.075 151.189 130.378C147.488 130.684 144.604 131.19 143.371 131.311C142.123 131.432 141.664 130.106 141.124 128.636C140.88 127.987 140.344 127.105 139.792 126.322C139.406 125.714 139.005 125.177 138.756 124.844C138.59 124.626 138.493 124.495 138.493 124.495L142.431 120.372C142.431 120.372 142.845 120.995 143.341 121.763C143.768 122.443 144.278 123.226 144.622 123.804C144.815 124.094 144.966 124.34 145.049 124.484C145.503 125.237 149.489 126.44 152.173 125.987C154.844 125.52 157.096 125.489 156.997 126.259L156.996 126.26Z" fill="#FEA587"/>
<path d="M136.492 87.2824C135.317 87.9694 132.485 85.4363 122.66 86.9532C112.834 88.4701 109.168 90.3162 109.168 90.3162C109.168 90.3162 119.828 93.6938 126.822 106.646C131.692 115.647 133.816 127.168 134.665 133.365C132.088 134.882 129.2 136.113 126.043 137.086C123.509 127.984 116.501 103.626 113.669 101.436C110.172 98.7312 99.5115 101.436 88.1858 100.248C76.8602 99.0743 66.6949 89.1424 64.2029 82.5734C61.6972 76.0044 60.0407 80.2119 55.5383 77.8652C51.0366 75.5037 44.8777 61.1927 48.0492 39.1389C48.0492 39.1389 72.0321 41.3281 74.8635 48.0547C77.6949 54.7953 89.6864 67.5894 97.3451 70.7954C105.005 73.9868 134.65 82.4019 134.65 82.4019C134.65 82.4019 137.651 86.6094 136.491 87.2824H136.492Z" fill="#FCAF17"/>
<path d="M144.621 123.804C144.086 124.453 142.69 125.716 139.791 126.322C139.405 125.714 139.004 125.177 138.755 124.844L143.34 121.763C143.767 122.443 144.277 123.226 144.621 123.804Z" fill="#FC9B81"/>
<path d="M136.838 86.6343C135.996 86.9913 135.449 86.6519 132.952 85.333C130.441 84.014 126.64 83.5302 125.27 83.4055C123.898 83.2809 123.778 82.1049 123.583 81.0565C123.478 80.5683 122.855 78.9678 122.246 77.4253C122.002 76.8197 121.772 76.2141 121.568 75.7097C121.187 74.8013 120.902 74.1371 120.902 74.1371L125.774 71.6202C125.774 71.6202 125.917 72.4245 126.237 73.489C126.451 74.2082 126.733 75.0579 127.088 75.8373C127.443 76.6019 127.869 77.3109 128.37 77.8072C130.11 79.4986 137.02 81.9422 137.247 83.5067C137.474 85.0705 137.665 86.2626 136.838 86.6343Z" fill="#FEA587"/>
<path d="M127.088 75.8381C126.356 76.3975 124.84 77.2428 122.246 77.4254C122.002 76.8198 121.772 76.2142 121.568 75.7098L126.237 73.4898C126.451 74.2091 126.733 75.0588 127.088 75.8381Z" fill="#FC9B81"/>
<path d="M135.137 122.674C135.353 120.596 142.27 116.517 142.852 117.896C143.435 119.274 136.749 122.927 136.702 122.926C136.655 122.925 135.137 122.675 135.137 122.675V122.674Z" fill="#2F3C5B"/>
<path d="M118.329 73.1225C118.734 71.4246 125.938 69.0704 126.638 69.5462C127.338 70.0221 120.385 73.4334 120.385 73.4334L118.329 73.1225Z" fill="#2C3A56"/>
<path d="M122.433 88.1556C122.419 88.8426 121.499 97.9871 121.499 97.9871C121.499 97.9871 98.5642 99.7188 79.1541 91.633C77.7238 91.0464 76.3081 90.3881 74.9207 89.6725C74.8504 89.6439 74.7793 89.6153 74.7082 89.5721L74.722 89.5574C74.9483 89.3859 77.2988 87.6256 80.5973 85.5075C86.8977 81.443 96.6517 76.0192 101.465 77.8513C108.912 80.671 122.432 87.4826 122.432 88.1556H122.433Z" fill="#333333"/>
<path d="M71.3228 27.9124C78.2432 32.0232 90.2586 43.3034 90.2586 43.3034C90.2586 43.3034 93.3192 50.5644 88.3221 53.3739C86.2624 54.5322 74.4631 48.4039 71.7717 45.2308C69.0803 42.0578 71.3228 27.9124 71.3228 27.9124Z" fill="#FFE8E6"/>
<path d="M89.2548 52.211C89.3454 52.2125 89.4912 52.1751 89.674 52.0988C89.9844 52.0043 90.4239 51.7924 90.9541 51.5417C96.4131 48.7183 112.084 37.9939 112.084 37.9939L108.88 34.3736C108.88 34.3736 97.6264 39.5738 89.2903 42.9257C89.1445 42.9829 89.0343 43.0416 88.8885 43.079C88.6688 43.175 88.4483 43.3312 88.2633 43.5482C88.1705 43.6464 88.0965 43.7454 88.0218 43.8642V43.884C86.6018 46.1596 87.4938 52.2198 89.254 52.211H89.2548Z" fill="#FEA587"/>
<path d="M98.1646 75.8079C99.6731 76.6921 101.106 77.5946 102.452 78.5147C101.456 79.3637 100.432 80.1635 99.3801 80.9253C96.7358 82.8329 93.8863 84.4862 90.8895 85.8388C88.969 86.7003 86.9833 87.4349 84.9525 88.0529C84.2824 88.2523 83.5927 88.4422 82.9037 88.613C82.3387 88.7567 81.7745 88.8916 81.2008 89.0155C80.923 89.0778 80.646 89.1306 80.3689 89.1739C78.7052 89.5097 77.0523 89.6856 75.3255 89.8279C75.1275 89.7186 74.9005 89.6724 74.7119 89.5632C73.5043 88.877 72.4396 88.2025 71.5838 87.5705L78.3418 78.7925L83.1793 72.4934L85.1491 69.9281C85.7743 70.1414 86.3893 70.3643 86.9956 70.5777C87.7811 70.8709 88.5382 71.1642 89.2852 71.4758C92.4735 72.7566 95.3448 74.1855 97.9485 75.6774C97.9673 75.6877 97.9768 75.6972 97.9768 75.6972C98.0428 75.7368 98.0993 75.7669 98.1653 75.8064L98.1646 75.8079Z" fill="#333333"/>
<path d="M85.4922 77.0792C88.2337 79.4502 92.3067 81.2941 92.3067 81.2941C92.3067 81.2941 94.8161 79.1555 98.1639 75.8124C102.425 71.4824 108.062 65.1707 111.426 58.7587C117.609 46.9286 108.803 36.4227 108.803 36.4227C95.7771 45.6508 89.4463 54.8026 86.5264 60.376C84.7938 63.7089 84.2716 65.7646 84.2716 65.7646C84.2716 65.7646 87.9138 66.6957 83.7218 71.5579C83.4636 71.868 83.2831 72.1796 83.1801 72.4927C82.647 74.0176 83.8248 75.6518 85.4929 77.0785L85.4922 77.0792Z" fill="#333333"/>
<path d="M89.291 71.4833C88.5549 73.4012 87.2523 75.2905 85.4827 77.0794C85.2985 77.2509 85.1005 77.4372 84.9017 77.6373C83.1321 79.2971 81.6316 82.4174 80.5981 85.5084C79.8336 87.7694 79.3238 90.0025 79.1541 91.6338C77.7239 91.0473 76.3081 90.3889 74.9207 89.6734C74.8504 89.6448 74.7793 89.6015 74.7227 89.559H74.7089C73.5057 88.872 72.444 88.1997 71.5802 87.57L78.3476 78.7971L83.1749 72.5002C83.2743 72.1856 83.4578 71.8704 83.713 71.5559C85.6952 69.2663 85.9215 67.8491 85.6241 66.9906C85.2985 66.0177 84.265 65.7596 84.265 65.7596C84.265 65.7596 84.7886 63.7134 86.53 60.3783C90.0126 63.8417 90.735 67.7061 89.2903 71.484L89.291 71.4833Z" fill="black"/>
<path d="M48.4314 35.079L51.468 40.5439C51.468 40.5439 57.281 53.0029 60.7064 62.9407C61.114 64.1086 61.5216 65.2575 61.8726 66.3256C62.4463 68.0082 62.8662 69.5698 62.9402 70.8895C62.9837 71.7561 63.0845 72.6432 63.2441 73.531C64.3312 80.2979 67.1786 88.2496 74.7061 89.5656C74.7061 89.5656 74.5088 80.3441 81.9115 75.4804C92.9775 68.1849 86.5278 60.3828 86.5278 60.3828C86.5278 60.3828 84.4833 60.9664 82.1588 58.1335C79.7698 55.2222 79.7597 51.8145 79.7597 51.8145C79.7597 51.8145 82.1088 47.7257 79.8859 44.6561C77.6441 41.5666 76.1559 38.766 75.0484 37.546C73.9612 36.307 71.3256 27.9184 71.3256 27.9184C69.4929 26.9997 65.166 26.2922 61.4556 26.9931C52.3956 28.6992 48.4299 35.0797 48.4299 35.0797L48.4314 35.079Z" fill="#FFE8E6"/>
<path d="M52.2658 31.0958C52.2658 31.0958 58.474 36.6178 64.4661 35.6237C64.4857 35.6237 64.5249 35.6046 64.5445 35.6053C65.0906 35.5166 65.6382 35.3693 66.1872 35.1435C71.1654 33.1478 68.1853 27.8025 67.7124 27.007C67.6747 26.9476 67.6558 26.9073 67.6558 26.9073C67.6558 26.9073 64.9202 26.4447 63.2049 26.5913C61.4897 26.7379 57.7336 27.8699 57.7336 27.8699C53.6155 29.6449 52.2666 31.0958 52.2666 31.0958H52.2658Z" fill="#FEA587"/>
<path d="M119.149 43.1684C119.38 43.587 119.611 44.0144 119.832 44.4426L127.002 72.5426C126.174 76.9693 120.569 75.984 120.437 76.3608C119.39 74.7046 112.893 59.1319 111.967 57.6414C111.652 57.1538 111.355 56.6868 111.077 56.2286C110.428 55.2059 109.844 54.2704 109.334 53.4522C107.397 50.3642 106.911 47.1185 107.058 44.2028C107.117 43.0862 107.268 42.0298 107.467 41.0415C107.666 40.0048 107.93 39.0561 108.194 38.213C108.396 37.5517 108.606 36.9491 108.797 36.4322V36.4227C108.797 36.4227 108.797 36.4227 108.806 36.4227C108.893 36.3662 109.461 36.0686 110.274 35.8611C111.72 35.4828 113.96 35.4168 115.646 37.6338L115.655 37.6434C115.674 37.6632 115.692 37.6925 115.711 37.7116C116.911 39.3413 118.06 41.183 119.15 43.1676L119.149 43.1684Z" fill="#333333"/>
<path d="M80.0149 51.5152L79.6175 51.2527C81.4691 48.392 80.5683 45.2028 80.5589 45.1713L81.0158 45.0342C81.0564 45.172 81.9913 48.4638 80.0149 51.5144V51.5152Z" fill="#898484"/>
<path d="M78.4499 42.5013C76.1552 40.1508 73.7314 36.5298 73.7075 36.4924C73.6748 36.4264 72.4223 33.5525 71.4903 30.8076L71.9422 30.6514C72.8662 33.3758 74.1107 36.2321 74.123 36.2607C74.1274 36.2607 76.5265 39.8436 78.7886 42.1618L78.4506 42.5005L78.4499 42.5013Z" fill="#898484"/>
<path d="M118.19 40.5175V40.5255C118.19 40.5966 118.196 40.6597 118.193 40.7235V40.7315C117.937 40.8276 117.724 40.8158 117.57 40.7594C117.328 40.6956 117.198 40.5497 117.198 40.5497C116.583 40.0065 114.361 36.7879 114.225 36.5871L114.216 36.5797C114.216 36.5797 114.301 36.9837 114.642 37.9492C115.027 39.0534 115.522 40.3217 115.522 40.3217C115.302 40.9845 114.61 40.5439 114.61 40.5439C114.198 40.1633 113.832 38.843 112.765 37.4163C112.093 36.5137 111.148 36.0497 110.58 36.1677C110.519 36.1816 110.465 36.2022 110.405 36.2315C110.061 36.3994 109.711 36.8525 109.555 37.3664C109.465 37.6523 109.446 37.9551 109.52 38.241C109.569 38.4265 109.6 38.59 109.614 38.7469C109.735 39.7814 109.243 40.2242 108.87 40.1729C108.806 40.1633 108.705 39.9111 108.592 39.5416C108.452 39.0556 108.302 38.3649 108.204 37.7403C108.17 37.5453 108.143 37.3503 108.127 37.1772C108.11 36.9888 108.079 36.8253 108.056 36.6692C107.86 35.6582 107.514 35.3165 108.299 34.6633C108.314 34.6538 108.419 34.5746 108.434 34.5651C108.434 34.5651 111.568 33.0687 113.1 33.6911C114.632 34.3136 115.76 36.4874 116.331 37.4786C116.798 38.2821 117.85 39.972 118.19 40.5175H118.19Z" fill="#FEA587"/>
<path d="M61.8726 66.3256C62.4463 68.0082 62.8662 69.5698 62.9402 70.8894C62.9837 71.756 63.0845 72.6431 63.2441 73.531C63.4986 73.4569 63.7728 73.3433 64.0288 73.1908C67.2547 71.2421 71.6999 61.9582 76.3053 53.5036L61.8726 66.3256Z" fill="#E5DBDA"/>
<path d="M50.581 33.3509C43.9783 34.8245 46.6668 58.7456 52.4943 65.6841C52.9048 68.5697 56.6914 72.896 62.5515 70.2545C65.0761 69.1167 62.2396 63.4824 61.5426 59.695C61.5426 59.695 56.2562 54.1832 56.1612 46.1963C56.0212 34.4169 50.5818 33.3509 50.5818 33.3509H50.581Z" fill="#FFE8E6"/>
<path d="M60.7419 57.7485L60.2654 57.7405C60.2886 56.4127 57.6356 54.6488 56.6115 54.0813L56.4897 54.0146L56.4882 53.8738C56.4868 53.7397 56.3098 40.5423 52.0134 37.6735L52.2759 37.2718C56.5883 40.1501 56.9365 52.2103 56.9633 53.7294C57.6371 54.1202 60.7716 56.0271 60.7419 57.75V57.7485Z" fill="#898484"/>
<path d="M52.2383 65.5747C52.2354 65.4625 52.1774 62.7822 53.7294 60.288L54.1327 60.5453C52.6611 62.9097 52.7133 65.5351 52.7148 65.5615L52.2383 65.5754V65.5747Z" fill="#898484"/>
<path d="M90.3115 32.6382L85.0744 41.9066L78.2243 41.4865L83.2627 32.1712C83.4077 31.9029 83.6942 31.7445 83.9959 31.765L90.0663 32.1771C90.2919 32.1925 90.4232 32.441 90.3115 32.6389V32.6382Z" fill="#2A2A5B"/>
<path d="M61.5608 68.0455C61.5782 68.0638 61.5963 68.0829 61.5963 68.0829C61.7421 68.0491 61.8697 67.9963 62.0343 67.9076C62.0713 67.89 62.1439 67.8915 62.1801 67.8739C62.2896 67.8028 62.3992 67.7683 62.5087 67.7148C62.9119 67.4655 63.3333 67.1987 63.7931 66.8218C68.4224 63.2602 76.2306 53.1238 79.6937 46.848C79.7662 46.8312 82.8682 45.1823 84.9453 42.4719C84.9453 42.4719 86.5822 40.9074 86.8128 40.1603C86.8904 39.8685 87.4844 38.6903 87.4844 38.6903C87.4844 38.6903 87.8819 36.9249 87.8848 36.76C87.85 36.6859 87.496 36.8494 87.1987 37.2658C87.05 37.4645 86.2268 39.0144 86.2268 39.0144L84.9692 40.2285L85.9034 38.6515C86.0354 38.3604 86.9586 36.3443 86.9601 36.2893C86.9427 36.2343 86.6011 36.1177 86.0869 36.4931C85.7554 36.7805 85.3819 37.4146 85.1941 37.7776C85.0824 37.9403 84.9533 38.0847 84.8423 38.1925L83.3831 39.6933L84.5406 37.7138C84.5965 37.6412 84.6342 37.5503 84.6719 37.4777C84.8619 36.9865 85.5436 35.3135 85.4174 35.2563C84.9692 34.9733 83.9249 36.6764 83.7566 36.9484C83.7377 36.9843 83.7015 37.0026 83.6826 37.0385C80.6474 40.6112 79.3035 40.2101 78.9235 40.1661L79.9345 38.3157C79.9345 38.3157 79.3978 38.2922 78.9227 38.5224C78.447 38.7886 77.4976 39.4983 77.3221 40.2277C76.8717 42.1244 77.2808 42.8663 76.2596 44.2769C69.4487 53.3679 65.5838 54.6905 60.3902 58.3892C60.1886 58.5322 60.0225 58.6759 59.8571 58.8196C59.802 58.8555 59.7469 58.9273 59.6548 58.9809C59.4336 59.1781 59.2305 59.3943 59.0825 59.593C55.771 63.4354 61.0241 67.6518 61.5608 68.0462V68.0455Z" fill="#FEA587"/>
<path d="M111.662 57.3642C111.623 57.3085 107.849 51.7424 108.908 45.5737L109.376 45.6558C108.352 51.6317 112.015 57.0343 112.051 57.0878L111.662 57.3642H111.662Z" fill="#323F63"/>
<path d="M97.8506 75.9078C97.7288 75.8323 94.8597 74.0493 93.8153 71.4268L94.2562 71.2464C95.2411 73.7186 98.0682 75.4789 98.0965 75.4965L97.8506 75.9085V75.9078Z" fill="#323F63"/>
<path d="M78.5094 49.2931C78.5043 49.2931 78.4985 49.2917 78.4941 49.2917C77.4418 49.1766 76.665 48.7528 76.1864 48.0321C75.2218 46.5797 75.8092 44.4632 75.8346 44.3737C75.8564 44.296 75.9441 44.2505 76.0116 44.274C76.0885 44.296 76.1334 44.3767 76.1102 44.4529C76.1051 44.4734 75.5365 46.5314 76.4264 47.8686C76.855 48.5145 77.5614 48.8958 78.5231 49.0006C78.6029 49.0087 78.6595 49.0812 78.6515 49.1604C78.6435 49.2359 78.5812 49.2917 78.5079 49.2917L78.5094 49.2931Z" fill="#FFF099"/>
<path d="M73.3136 84.732L72.8371 84.71C72.8495 84.4255 73.1824 77.6908 77.2445 75.5537C80.5532 73.8118 86.0064 69.7032 85.4588 65.3579L85.9324 65.2977C86.5126 69.9063 80.8824 74.1813 77.4643 75.9804C73.6443 77.9907 73.3165 84.6638 73.3136 84.7327V84.732Z" fill="#898484"/>
<path d="M70.562 82.6914C70.5591 82.6409 70.3357 77.6547 74.358 75.0733L74.6126 75.481C70.8318 77.9084 71.0356 82.6181 71.0385 82.6643L70.5627 82.6914H70.562Z" fill="#898484"/>
<path d="M82.8602 66.9722L82.4678 66.6987C82.4758 66.6863 83.2917 65.434 82.982 62.7067L83.4556 62.6525C83.7885 65.5792 82.8979 66.9179 82.8602 66.9722Z" fill="#898484"/>
<path d="M70.0658 3.53025C78.6391 8.64101 73.3701 22.3237 73.3701 22.3237C73.3701 22.3237 66.0878 21.2152 63.6168 18.504C61.1466 15.7928 70.0651 3.53025 70.0651 3.53025H70.0658Z" fill="#1E1B38"/>
<path d="M59.839 21.5567C58.9274 21.0831 53.3044 22.9812 53.3044 22.9812C53.3044 22.9812 47.9056 8.64386 55.6006 2.7677C63.2963 -3.10846 58.5053 14.2737 58.5053 14.2737L59.839 21.556V21.5567Z" fill="#1E1B38"/>
<path d="M56.7429 29.2891C56.7429 29.2891 65.4569 33.688 65.6745 28.1718C65.6745 28.1718 65.5091 27.5802 65.2756 26.4621L65.2016 26.1073C65.1791 25.998 65.1668 25.8727 65.1472 25.7766C65.087 25.4188 65.0957 25.1894 65.1233 24.9841C65.1334 24.8968 65.1566 24.8059 65.1639 24.7048C65.1711 24.6036 65.1806 24.5163 65.182 24.3873L65.1646 24.2341C65.1574 24.0647 65.145 23.8682 65.1508 23.6959L65.1421 23.6549C65.1117 23.3052 65.0943 22.9525 65.0986 22.5669C65.0914 22.127 65.1146 21.6945 65.1342 21.2487C65.1363 21.1915 65.1574 21.1585 65.1516 21.1307C65.2009 20.6219 65.2691 20.1373 65.3836 19.671C65.9762 17.0375 60.515 15.5786 57.7213 15.0199C57.1034 14.8953 56.6348 14.8095 56.3716 14.7655C56.2251 14.7398 56.1417 14.7435 56.1417 14.7435C56.1837 14.8769 56.2091 15.0001 56.2345 15.1225C56.3484 15.668 56.4833 16.1805 56.5638 16.7047C56.6515 17.1277 56.7262 17.5529 56.8009 17.9789L56.8321 18.1292C56.8778 18.3477 57.1976 18.4642 57.3572 18.6871L57.3601 18.701C57.379 18.7252 57.4014 18.7633 57.4101 18.8044C57.6618 19.6057 57.7416 21.4115 57.759 21.4936C57.7626 21.5786 57.7764 21.6468 57.7641 21.7201C57.7786 21.7883 57.7894 21.8426 57.7844 21.8865C57.7989 22.0258 57.8141 22.1651 57.8156 22.3074L57.8243 22.3484C57.8272 22.3624 57.833 22.3895 57.8221 22.4056C57.891 27.1043 56.7422 29.2876 56.7422 29.2876L56.7429 29.2891Z" fill="#FEA587"/>
<g style="mix-blend-mode:multiply">
<path d="M57.8228 22.4071C58.9578 23.391 61.7327 25.5494 65.1479 25.7767C65.0877 25.4189 65.0964 25.1894 65.124 24.9841C65.1341 24.8969 65.1573 24.806 65.1646 24.7048C65.1718 24.6036 65.1813 24.5164 65.1827 24.3874L65.1653 24.2341C65.1581 24.0648 65.1457 23.8683 65.1515 23.696L57.9968 18.4379L57.3137 18.5405C57.3354 18.5787 57.347 18.6329 57.3586 18.6879L57.3615 18.7018C57.3804 18.726 57.4029 18.7641 57.4116 18.8052C57.6632 19.6065 57.743 21.4123 57.7604 21.4944C57.764 21.5794 57.7778 21.6476 57.7655 21.7209C57.78 21.7891 57.7909 21.8433 57.7858 21.8873C57.8003 22.0266 57.8155 22.1659 57.817 22.3082L57.8257 22.3492C57.8286 22.3631 57.8344 22.3903 57.8235 22.4064L57.8228 22.4071Z" fill="#F2BDBD"/>
</g>
<path d="M54.8246 15.2817C55.0044 15.5845 55.1937 15.8719 55.3808 16.1461C55.5273 16.3507 55.6709 16.5428 55.8247 16.7202C56.5761 17.7136 57.4079 18.5325 58.242 19.1154C58.6351 19.3852 59.018 19.6058 59.3879 19.7627C59.9449 20.0113 60.4765 20.1337 60.9457 20.086C61.1097 20.0641 61.2765 20.0553 61.4375 20.0208C65.6077 19.3162 70.9935 14.2385 70.9935 14.2385C71.5142 13.0662 71.879 11.9533 72.0749 10.9019C72.4839 8.75749 72.2736 6.8755 71.6085 5.3007L71.6034 5.27578C71.3619 4.73765 71.0704 4.20978 70.7367 3.73031L70.7244 3.73324C70.5525 3.46857 70.3437 3.21124 70.1275 2.9825C70.1072 2.94731 70.0775 2.92751 70.0594 2.90552L70.047 2.90845C69.2594 2.0536 68.2752 1.37251 67.1627 0.887903C64.4908 -0.299793 61.1118 -0.340849 58.2093 1.03746C57.5479 1.34832 56.9148 1.73249 56.3222 2.1863C51.3955 5.92168 52.4529 11.3711 54.8231 15.2832L54.8246 15.2817Z" fill="#1E1B38"/>
<path d="M72.0712 10.9048C72.1561 11.3696 72.2213 11.8791 72.2474 12.4143C72.3098 13.6753 71.9675 14.7472 71.9849 16.5456C71.9922 16.8946 72.0103 17.2751 72.0444 17.6988C72.1343 18.8044 71.8768 20.1109 71.3518 21.3719C70.6287 23.0449 69.4298 24.6285 67.8865 25.5281C66.9835 26.045 64.3356 25.5853 61.8269 23.9225C60.2328 22.866 58.4363 19.995 58.1005 19.2348C57.603 18.0625 57.3484 16.6666 57.1185 15.407C56.1249 10.0939 57.7807 4.68257 63.6879 4.38125C63.9933 4.36438 64.3283 4.36218 64.6598 4.38418C66.9451 4.50588 69.5618 5.47363 71.0421 8.00225C71.5207 8.79405 71.8739 9.76547 72.0712 10.904V10.9048Z" fill="#FEA587"/>
<path d="M58.7097 16.0046C58.7097 16.0046 57.5196 13.6681 55.3982 15.0618C53.1543 16.5362 57.6654 20.9226 58.7504 19.0787C59.6366 17.5728 58.7105 16.0046 58.7105 16.0046H58.7097Z" fill="#FEA587"/>
<path d="M57.9969 17.0756C57.1396 15.3975 55.993 15.242 55.6477 15.8806C55.3018 16.5184 55.4294 16.8652 56.2526 16.9796C57.0758 17.094 56.6544 17.918 57.3557 18.069C58.0571 18.2201 58.3203 17.7091 57.9969 17.0756Z" fill="#E55841"/>
<path d="M56.0465 15.2971C56.114 15.3088 56.1938 15.3183 56.2605 15.33C56.5419 15.3748 56.8335 15.4048 57.1199 15.4092C57.8147 15.4452 58.5284 15.385 59.2652 15.2538C59.9905 15.1255 60.7303 14.9422 61.4592 14.7083C64.5887 13.6753 67.5905 11.7787 68.9939 10.5492C70.0223 9.63571 70.6584 8.7662 71.0435 8.00299C71.8224 6.51397 71.6404 5.45165 71.6084 5.30062L71.6034 5.27569C71.6034 5.27569 70.7722 4.52202 69.3188 3.76981C68.8409 3.53081 68.2984 3.29253 67.6993 3.09239C66.169 2.52713 64.279 2.16936 62.1322 2.44282C62.0082 2.46921 61.8718 2.49854 61.7449 2.51247C56.0197 3.46922 52.6429 14.646 56.0458 15.2978L56.0465 15.2971Z" fill="#1E1B38"/>
<path d="M70.5576 6.2297C69.495 8.3089 67.6674 9.90203 65.7404 11.1454C63.78 12.3595 61.6586 13.3192 59.4096 13.7914C61.42 12.6872 63.3956 11.622 65.2907 10.4226C67.1865 9.21947 68.9642 7.89248 70.5576 6.2297Z" fill="#363366"/>
<path d="M67.7255 13.6754C67.2287 13.7692 66.7928 13.8088 66.3758 13.9796C66.1597 14.0346 65.9573 14.1329 65.7492 14.2274C65.5432 14.3257 65.3278 14.4254 65.108 14.5478C65.5417 13.616 66.8262 13.1805 67.7255 13.6754Z" fill="#1E1B38"/>
<path d="M70.187 13.9319C70.3712 13.9173 70.546 13.9151 70.7128 13.9356C70.8811 13.9488 71.0385 13.995 71.2016 14.0133L71.6723 14.1482C71.829 14.1959 71.9849 14.2633 72.1561 14.3359C71.8188 14.5273 71.4475 14.4818 71.1088 14.4298C70.7774 14.3278 70.4459 14.2149 70.187 13.9319Z" fill="#1E1B38"/>
<path d="M68.4406 20.5817L68.3485 20.3823C68.4849 20.3171 68.6437 20.3303 68.8069 20.3413C69.068 20.3603 69.3225 20.3794 69.4951 20.1074C69.6387 19.886 69.5401 19.3838 69.4139 18.7467C69.2841 18.089 69.1231 17.2708 69.134 16.3427L69.353 16.3456C69.3407 17.2511 69.5002 18.056 69.6279 18.7049C69.7686 19.4175 69.8701 19.9314 69.6794 20.2284C69.4335 20.6074 69.0745 20.5788 68.7909 20.5619C68.6546 20.5524 68.5247 20.5414 68.4406 20.5825V20.5817Z" fill="#4C2B29"/>
<path d="M62.8292 8.67915C62.3382 9.63224 61.5614 10.3441 60.7492 10.9526C59.9166 11.5392 59.0223 12.0436 57.9888 12.2782C58.6742 11.4658 59.456 10.8515 60.2567 10.2591C61.0712 9.68136 61.882 9.1425 62.8299 8.67915H62.8292Z" fill="#363366"/>
<path d="M57.4522 20.0854L57.3129 18.9204L57.9976 18.8353L58.1368 20.0003L57.4522 20.0854Z" fill="#FFFA5A"/>
<path d="M67.352 16.7986C67.3447 17.215 67.1554 17.5493 66.9292 17.5449C66.7029 17.5405 66.5252 17.1996 66.5324 16.7832C66.5397 16.3667 66.729 16.0324 66.9553 16.0368C67.1816 16.0412 67.3592 16.3821 67.352 16.7986Z" fill="#4C2B29"/>
<path d="M71.2386 16.8904C71.2314 17.3068 71.0421 17.6411 70.8158 17.6367C70.5895 17.6323 70.4118 17.2921 70.4198 16.8757C70.427 16.4593 70.6163 16.125 70.8426 16.1293C71.0689 16.1337 71.2466 16.4747 71.2393 16.8904H71.2386Z" fill="#4C2B29"/>
<path d="M84.2298 32.0144L84.2162 32.2332L89.7898 32.5857L89.8034 32.3669L84.2298 32.0144Z" fill="#464687"/>
<path d="M81.7171 35.944L81.5249 35.8377L83.0154 33.1024L83.2076 33.2094L81.7171 35.944Z" fill="#464687"/>
<path d="M81.0333 36.7173L80.2382 38.1805L80.4302 38.2871L81.2253 36.8239L81.0333 36.7173Z" fill="#464687"/>
<path d="M88.7971 33.864C88.8123 34.0422 88.5389 34.2123 88.1864 34.2438C87.8339 34.2753 87.5351 34.1558 87.5199 33.9776C87.5047 33.7995 87.7781 33.6294 88.1306 33.5986C88.4831 33.5671 88.7819 33.6866 88.7971 33.8647V33.864Z" fill="#17173A"/>
<path d="M117.351 97.88C121.239 104.139 137.481 125.396 137.481 125.396C140.851 125.111 143.142 123.928 144.004 121.557C144.004 121.557 130.282 89.6512 125.446 87.5434C120.611 85.4356 109.286 80.5587 105.177 79.7266C101.069 78.8945 117.351 97.88 117.351 97.88H117.351Z" fill="#333333"/>
<path d="M118.329 73.1225C123.206 72.8945 126.676 69.5909 126.676 69.5909L127.662 72.8908C127.662 72.8908 127.292 74.926 124.024 76.0668C120.756 77.2076 119.706 76.4942 119.706 76.4942L118.329 73.1225Z" fill="#5A688E"/>
<path d="M135.137 122.674C139.922 121.696 142.852 117.896 142.852 117.896L144.325 121.005C144.325 121.005 144.268 123.073 141.21 124.705C138.153 126.337 137.007 125.794 137.007 125.794L135.137 122.674Z" fill="#5A688E"/>
<path d="M117.587 97.9035L117.113 97.8573C117.309 95.8639 118.096 94.5054 118.13 94.4482L118.538 94.6946C118.531 94.707 117.771 96.0237 117.587 97.9043V97.9035Z" fill="#323F63"/>
<path d="M56.9379 29.4607L56.7269 29.4057L57.0598 28.0809L57.2708 28.1359L56.9379 29.4607Z" fill="#4C2B29"/>
<path d="M65.5149 27.5575L65.182 26.652L65.388 26.5751L65.7202 27.4805L65.5149 27.5575Z" fill="#4C2B29"/>
<path d="M58.7076 34.8596L58.6213 34.6572C58.9056 34.5304 61.4324 33.4277 62.125 33.5986C62.8191 33.7694 63.1976 33.9791 63.2143 33.9871L63.1084 34.1814C63.1041 34.1785 62.7349 33.9761 62.0735 33.8126C62.0358 33.8046 61.9894 33.7987 61.9371 33.7987C61.2511 33.7987 59.4103 34.548 58.7083 34.8596H58.7076Z" fill="#4C2B29"/>
<path d="M66.7638 32.328L66.5557 32.2621C66.7718 31.5619 68.5008 30.3214 68.5741 30.2686L68.701 30.449C68.2165 30.795 66.9263 31.8053 66.7638 32.328Z" fill="#4C2B29"/>
<path d="M69.5168 22.2759L69.3275 22.1666C68.8829 22.9467 68.1446 23.0251 67.9408 23.0317C67.9408 23.0317 67.9365 23.0317 67.9336 23.0317C67.9263 23.0317 67.9198 23.0317 67.914 23.0317C67.9082 23.0317 67.9017 23.0317 67.8944 23.0317C67.8915 23.0317 67.8886 23.0317 67.8871 23.031C67.6833 23.0251 66.9443 22.9467 66.4997 22.1666L66.3104 22.2759C66.8072 23.1454 67.6282 23.2422 67.8777 23.2517C67.8821 23.2524 67.8922 23.2524 67.9075 23.2524C67.9096 23.2524 67.9118 23.2524 67.914 23.2524C67.9162 23.2524 67.9183 23.2524 67.9205 23.2524H67.9502C68.1997 23.2429 69.0207 23.1454 69.5175 22.2759H69.5168Z" fill="#E55841"/>
</svg>
