<svg width="42" height="46" viewBox="0 0 42 46" fill="none" xmlns="http://www.w3.org/2000/svg">
<g filter="url(#filter0_d_118_54542)">
<path d="M16.999 6C16.2439 6 15.4942 6.09317 14.7699 6.27743C14.4861 6.34945 14.3145 6.63745 14.3865 6.92128C14.4585 7.20506 14.7487 7.37452 15.0304 7.30354C15.6689 7.14152 16.3318 7.05893 16.999 7.05893C21.3788 7.05893 24.941 10.6212 24.941 15.001C24.941 15.2933 25.1782 15.5305 25.4705 15.5305C25.7628 15.5305 26 15.2933 26 15.001C26 10.0377 21.9623 6 16.999 6Z" fill="#FCAF17"/>
<path d="M13.2037 7.40614C13.0576 7.15517 12.7346 7.06939 12.4794 7.21657C11.8038 7.61154 11.1758 8.09973 10.6156 8.66734C8.96685 10.3341 8.03818 12.5801 8.00006 14.9934C7.99584 15.2857 8.22879 15.5261 8.5221 15.5303C8.52423 15.5303 8.52741 15.5303 8.53059 15.5303C8.81863 15.5303 9.05476 15.2995 9.05898 15.0093C9.09288 12.8703 9.91251 10.8826 11.3685 9.41071C11.8641 8.90877 12.4179 8.47886 13.0141 8.13045C13.2661 7.98327 13.3509 7.65924 13.2037 7.40614Z" fill="#FCAF17"/>
<path d="M22.1879 10.4825C20.8769 8.97988 18.9856 8.11792 16.999 8.11792C15.1522 8.11792 13.4209 8.84224 12.1226 10.1564C10.8286 11.4631 10.117 13.2305 10.117 15.1589C10.1201 16.2983 9.76433 17.6643 9.12683 18.9764L8.82925 19.5058C8.68629 19.761 8.77629 20.083 9.03152 20.227C9.11412 20.2736 9.20307 20.2958 9.29098 20.2958C9.47628 20.2958 9.65632 20.1984 9.75266 20.0258L10.065 19.4688C10.7967 17.963 11.1801 16.472 11.1759 15.1314C11.1759 13.5102 11.7784 12.0086 12.8744 10.9009C13.9736 9.78903 15.4371 9.17694 16.999 9.17694C18.6795 9.17694 20.2807 9.90657 21.3894 11.1794C21.581 11.3996 21.9167 11.4219 22.137 11.2302C22.3573 11.0374 22.3795 10.7028 22.1879 10.4825Z" fill="#FCAF17"/>
<path d="M24.8669 21.1048L24.2696 19.1511C23.9339 17.6188 23.9053 16.1564 23.8874 15.2817L23.8821 15.0011C23.8821 14.2164 23.7497 13.4455 23.4892 12.7095C23.3917 12.4342 23.0921 12.2902 22.8135 12.3876C22.5382 12.4851 22.3942 12.7869 22.4916 13.0633C22.7119 13.6849 22.8231 14.3372 22.8231 15.0149L22.8294 15.3029C22.8485 16.2157 22.8781 17.7438 23.2466 19.418L23.8524 21.413C23.9212 21.6417 24.1319 21.7879 24.3596 21.7879C24.4105 21.7879 24.4623 21.7805 24.5142 21.7656C24.7938 21.6798 24.9516 21.3854 24.8669 21.1048Z" fill="#FCAF17"/>
<path d="M23.322 23.5507L22.8296 21.974C21.956 19.2461 21.7929 16.1794 21.7643 15.0008C21.7643 12.3736 19.6263 10.2356 16.9991 10.2356C14.3718 10.2356 12.2349 12.4064 12.2349 15.093C12.237 15.6499 12.1343 18.5928 9.89778 21.8183C9.73045 22.0587 9.79081 22.3891 10.0302 22.5553C10.2695 22.7216 10.6009 22.6623 10.7672 22.4229C13.1244 19.0248 13.297 15.9507 13.2938 15.076C13.2938 12.9909 14.9563 11.2956 16.999 11.2956C19.0428 11.2956 20.7053 12.9581 20.7053 15.0146C20.7435 16.5522 20.9394 19.5426 21.8204 22.2948L22.3096 23.8652C22.3806 24.0918 22.5892 24.2369 22.8158 24.2369C22.8677 24.2369 22.9206 24.2295 22.9736 24.2136C23.2532 24.1257 23.4088 23.8292 23.322 23.5507Z" fill="#FCAF17"/>
<path d="M19.6463 15.0011C19.6463 13.5419 18.4581 12.3538 16.9989 12.3538C15.5397 12.3538 14.3516 13.5419 14.3516 15.0213C14.358 15.196 14.4755 19.3555 11.1123 23.7321C10.9344 23.964 10.9778 24.2965 11.2097 24.4744C11.4427 24.6534 11.7742 24.6079 11.9521 24.377C15.5451 19.7007 15.4158 15.1716 15.4095 15.0011C15.4095 14.1254 16.1221 13.4127 16.9979 13.4127C17.8737 13.4127 18.5863 14.1254 18.5874 15.0128C18.6022 15.6058 18.6054 20.9556 14.4712 26.3265C14.2933 26.5584 14.3357 26.891 14.5676 27.0689C14.665 27.143 14.7783 27.179 14.8906 27.179C15.0494 27.179 15.2061 27.1081 15.3099 26.9725C19.6738 21.305 19.6611 15.6184 19.6463 15.0011Z" fill="#FCAF17"/>
<path d="M17.5263 14.9775C17.5126 14.6863 17.2838 14.4544 16.9746 14.4724C16.6834 14.4851 16.4568 14.7319 16.4684 15.0241C16.4684 15.0315 16.4981 15.8067 16.3011 17.0319C16.2556 17.321 16.4525 17.5932 16.7405 17.6397C16.7691 17.6439 16.7977 17.6461 16.8253 17.6461C17.0805 17.6461 17.306 17.4608 17.3473 17.2013C17.5634 15.8575 17.5284 15.0125 17.5263 14.9775Z" fill="#FCAF17"/>
<path d="M16.4876 18.7443C16.2059 18.6607 15.9126 18.8216 15.8289 19.1011C15.1671 21.3366 14.0658 23.4269 12.5578 25.3161C12.3757 25.5448 12.4127 25.8773 12.6415 26.0605C12.7389 26.1389 12.8554 26.1759 12.9719 26.1759C13.1275 26.1759 13.281 26.1081 13.3859 25.9768C14.9796 23.9817 16.1434 21.7696 16.8454 19.4029C16.9281 19.1223 16.7682 18.8269 16.4876 18.7443Z" fill="#FCAF17"/>
<path d="M21.6192 25.0885L20.9806 23.0606C20.7265 22.3003 20.4893 21.4966 20.4882 21.4934C20.4247 21.2784 20.2341 21.127 20.0107 21.1143C19.7819 21.0985 19.5796 21.2297 19.4928 21.4362C19.4812 21.4638 18.3015 24.2372 16.9492 26.3656C16.7925 26.6124 16.8656 26.9396 17.1123 27.0963C17.2002 27.1524 17.2987 27.1789 17.3961 27.1789C17.5718 27.1789 17.7423 27.0921 17.843 26.9332C18.6615 25.6445 19.4049 24.163 19.8899 23.1327C19.9174 23.2174 19.946 23.3032 19.9746 23.3879L20.6089 25.4062C20.6968 25.6847 20.9912 25.8415 21.2729 25.7525C21.5514 25.6645 21.707 25.3681 21.6192 25.0885Z" fill="#FCAF17"/>
</g>
<defs>
<filter id="filter0_d_118_54542" x="-3" y="-1.41064" width="48" height="48" filterUnits="userSpaceOnUse" color-interpolation-filters="sRGB">
<feFlood flood-opacity="0" result="BackgroundImageFix"/>
<feColorMatrix in="SourceAlpha" type="matrix" values="0 0 0 0 0 0 0 0 0 0 0 0 0 0 0 0 0 0 127 0" result="hardAlpha"/>
<feOffset dx="4" dy="6"/>
<feGaussianBlur stdDeviation="6"/>
<feColorMatrix type="matrix" values="0 0 0 0 0 0 0 0 0 0 0 0 0 0 0 0 0 0 0.08 0"/>
<feBlend mode="normal" in2="BackgroundImageFix" result="effect1_dropShadow_118_54542"/>
<feBlend mode="normal" in="SourceGraphic" in2="effect1_dropShadow_118_54542" result="shape"/>
</filter>
</defs>
</svg>
