<svg width="22" height="22" viewBox="0 0 22 22" fill="none" xmlns="http://www.w3.org/2000/svg">
<path d="M17.4163 6.41667H16.4997V5.5C16.4997 4.77065 16.2099 4.07118 15.6942 3.55546C15.1785 3.03973 14.479 2.75 13.7497 2.75H4.58301C3.85366 2.75 3.15419 3.03973 2.63846 3.55546C2.12274 4.07118 1.83301 4.77065 1.83301 5.5V16.5C1.83301 17.2293 2.12274 17.9288 2.63846 18.4445C3.15419 18.9603 3.85366 19.25 4.58301 19.25H17.4163C18.1457 19.25 18.8452 18.9603 19.3609 18.4445C19.8766 17.9288 20.1663 17.2293 20.1663 16.5V9.16667C20.1663 8.43732 19.8766 7.73785 19.3609 7.22212C18.8452 6.7064 18.1457 6.41667 17.4163 6.41667ZM4.58301 4.58333H13.7497C13.9928 4.58333 14.2259 4.67991 14.3979 4.85182C14.5698 5.02373 14.6663 5.25688 14.6663 5.5V6.41667H4.58301C4.33989 6.41667 4.10673 6.32009 3.93483 6.14818C3.76292 5.97627 3.66634 5.74312 3.66634 5.5C3.66634 5.25688 3.76292 5.02373 3.93483 4.85182C4.10673 4.67991 4.33989 4.58333 4.58301 4.58333ZM18.333 13.75H17.4163C17.1732 13.75 16.9401 13.6534 16.7682 13.4815C16.5963 13.3096 16.4997 13.0764 16.4997 12.8333C16.4997 12.5902 16.5963 12.3571 16.7682 12.1852C16.9401 12.0132 17.1732 11.9167 17.4163 11.9167H18.333V13.75ZM18.333 10.0833H17.4163C16.687 10.0833 15.9875 10.3731 15.4718 10.8888C14.9561 11.4045 14.6663 12.104 14.6663 12.8333C14.6663 13.5627 14.9561 14.2622 15.4718 14.7779C15.9875 15.2936 16.687 15.5833 17.4163 15.5833H18.333V16.5C18.333 16.7431 18.2364 16.9763 18.0645 17.1482C17.8926 17.3201 17.6595 17.4167 17.4163 17.4167H4.58301C4.33989 17.4167 4.10673 17.3201 3.93483 17.1482C3.76292 16.9763 3.66634 16.7431 3.66634 16.5V8.09417C3.96084 8.19777 4.27082 8.25046 4.58301 8.25H17.4163C17.6595 8.25 17.8926 8.34658 18.0645 8.51849C18.2364 8.69039 18.333 8.92355 18.333 9.16667V10.0833Z" fill="black"/>
</svg>
