<svg width="32" height="32" viewBox="0 0 32 32" fill="none" xmlns="http://www.w3.org/2000/svg">
<circle cx="10.8008" cy="10" r="2" fill="#FCAF17"/>
<path d="M10.3444 14.3424C11.1355 14.3424 11.9088 14.1078 12.5666 13.6683C13.2244 13.2288 13.7371 12.604 14.0399 11.8731C14.3426 11.1422 14.4218 10.338 14.2675 9.56205C14.1132 8.78613 13.7322 8.07339 13.1728 7.51398C12.6134 6.95457 11.9006 6.57361 11.1247 6.41927C10.3488 6.26493 9.54453 6.34414 8.81363 6.64689C8.08273 6.94964 7.45801 7.46233 7.01849 8.12013C6.57896 8.77793 6.34436 9.55129 6.34436 10.3424C6.34552 11.4029 6.76732 12.4197 7.51722 13.1696C8.26711 13.9195 9.28385 14.3413 10.3444 14.3424ZM10.3444 9.00908C10.6081 9.00908 10.8659 9.08728 11.0851 9.23378C11.3044 9.38029 11.4753 9.58853 11.5762 9.83217C11.6771 10.0758 11.7035 10.3439 11.6521 10.6025C11.6006 10.8612 11.4736 11.0987 11.2872 11.2852C11.1007 11.4717 10.8631 11.5987 10.6045 11.6501C10.3458 11.7016 10.0778 11.6752 9.83412 11.5742C9.59048 11.4733 9.38225 11.3024 9.23574 11.0832C9.08923 10.8639 9.01103 10.6061 9.01103 10.3424C9.01127 9.98886 9.15182 9.64986 9.40182 9.39986C9.65181 9.14987 9.99081 9.00931 10.3444 9.00908ZM21.6569 17.6549C20.8657 17.6549 20.0924 17.8895 19.4346 18.329C18.7768 18.7686 18.2641 19.3933 17.9614 20.1242C17.6586 20.8551 17.5794 21.6594 17.7337 22.4353C17.8881 23.2112 18.269 23.9239 18.8284 24.4833C19.3879 25.0428 20.1006 25.4237 20.8765 25.5781C21.6524 25.7324 22.4567 25.6532 23.1876 25.3504C23.9185 25.0477 24.5432 24.535 24.9827 23.8772C25.4223 23.2194 25.6569 22.446 25.6569 21.6549C25.6557 20.5944 25.2339 19.5777 24.484 18.8278C23.7341 18.0779 22.7174 17.6561 21.6569 17.6549ZM21.6569 22.9883C21.3932 22.9883 21.1354 22.9101 20.9161 22.7635C20.6968 22.617 20.5259 22.4088 20.425 22.1652C20.3241 21.9215 20.2977 21.6534 20.3492 21.3948C20.4006 21.1362 20.5276 20.8986 20.7141 20.7121C20.9005 20.5256 21.1381 20.3987 21.3967 20.3472C21.6554 20.2958 21.9235 20.3222 22.1671 20.4231C22.4107 20.524 22.619 20.6949 22.7655 20.9142C22.912 21.1334 22.9902 21.3912 22.9902 21.6549C22.99 22.0085 22.8494 22.3475 22.5994 22.5975C22.3494 22.8475 22.0104 22.988 21.6569 22.9883ZM26.2766 5.72266C26.1528 5.59882 26.0059 5.50058 25.8441 5.43356C25.6824 5.36653 25.509 5.33203 25.3339 5.33203C25.1588 5.33203 24.9854 5.36653 24.8237 5.43356C24.6619 5.50058 24.515 5.59882 24.3912 5.72266L5.72454 24.3893C5.59946 24.5128 5.50005 24.6599 5.43202 24.822C5.36399 24.984 5.32868 25.158 5.32813 25.3338C5.32758 25.5095 5.3618 25.6837 5.42882 25.8462C5.49583 26.0087 5.59433 26.1564 5.71863 26.2807C5.84293 26.4049 5.99058 26.5034 6.15309 26.5704C6.3156 26.6375 6.48975 26.6717 6.66553 26.6711C6.84132 26.6706 7.01525 26.6352 7.17733 26.5672C7.33941 26.4992 7.48644 26.3997 7.60995 26.2747L26.2766 7.608C26.4004 7.48422 26.4987 7.33727 26.5657 7.17552C26.6327 7.01378 26.6672 6.84041 26.6672 6.66533C26.6672 6.49025 26.6327 6.31688 26.5657 6.15514C26.4987 5.99339 26.4004 5.84644 26.2766 5.72266Z" fill="#717171"/>
</svg>
