<svg width="24" height="24" viewBox="0 0 24 24" fill="none" xmlns="http://www.w3.org/2000/svg">
<path d="M20.5 12.0001C19.5 12.5001 10.0001 12.5001 11.957 8.20666C13.9139 3.91326 12.5001 4.4571 12.5001 4.00006C12.5001 3.54301 16.0735 4.50006 17 4.50006C17.9265 4.50006 21.5 11.5001 20.5 12.0001Z" fill="#FCAF17"/>
<path d="M12 1.99998C10.4679 1.99721 8.95563 2.34652 7.57994 3.02095C6.20425 3.69538 5.00193 4.6769 4.06577 5.88974C3.12962 7.10258 2.48466 8.51432 2.18069 10.016C1.87672 11.5176 1.92187 13.0691 2.31264 14.5505C2.70341 16.0319 3.42936 17.4038 4.43445 18.5601C5.43955 19.7165 6.69691 20.6264 8.10948 21.2197C9.52206 21.813 11.0521 22.0738 12.5814 21.982C14.1108 21.8901 15.5986 21.4481 16.93 20.69H17H17.05C18.9753 19.594 20.4821 17.8897 21.334 15.8447C22.1858 13.7997 22.3345 11.5297 21.7566 9.39101C21.1788 7.25235 19.9071 5.36611 18.1412 4.02839C16.3753 2.69067 14.2152 1.9772 12 1.99998ZM13 4.06998C14.76 4.29317 16.3959 5.09507 17.6504 6.34957C18.9049 7.60406 19.7068 9.23996 19.93 11H13V4.06998ZM12 20C9.97451 19.9862 8.02966 19.2045 6.55794 17.8128C5.08622 16.4211 4.1972 14.5229 4.0703 12.5014C3.9434 10.4798 4.58806 8.48537 5.87418 6.92054C7.1603 5.35571 8.99214 4.33699 11 4.06998V12C11.0039 12.1197 11.0276 12.238 11.07 12.35V12.43V12.5L15.07 19.37C14.0997 19.7853 13.0554 19.9996 12 20ZM16.83 18.36L13.73 13H19.93C19.7954 14.0546 19.4519 15.0717 18.9196 15.9921C18.3873 16.9124 17.677 17.7174 16.83 18.36Z" fill="#717171"/>
</svg>
