<svg width="23" height="14" viewBox="0 0 23 14" fill="none" xmlns="http://www.w3.org/2000/svg">
<path fill-rule="evenodd" clip-rule="evenodd" d="M21.85 8.16004C21.545 8.16004 21.253 8.04004 21.037 7.81995C20.822 7.59998 20.7 7.31006 20.7 7V3.97998L13.4684 11.32C13.3616 11.4301 13.2344 11.52 13.0943 11.58C12.9542 11.64 12.8039 11.6701 12.6521 11.6701C12.5003 11.6701 12.3501 11.64 12.2099 11.58C12.0698 11.52 11.9427 11.4301 11.8358 11.32L8.05309 7.47998L1.97079 13.66C1.75429 13.88 1.46069 14 1.15449 14C0.84828 14 0.55459 13.88 0.33808 13.66C0.12158 13.4399 -2e-05 13.14 -2e-05 12.83C-2e-05 12.52 0.12158 12.22 0.33808 12L7.23669 4.99999C7.34359 4.89 7.47079 4.81005 7.61089 4.74999C7.75099 4.68993 7.90129 4.66002 8.05309 4.66002C8.20479 4.66002 8.35509 4.68993 8.49519 4.74999C8.63529 4.81005 8.76249 4.89 8.86939 4.99999L12.6521 8.84997L19.079 2.32994H16.101C15.796 2.32994 15.504 2.20994 15.288 1.98997C15.073 1.77 14.9516 1.47996 14.9516 1.17002C14.9516 0.859961 15.073 0.560031 15.288 0.33994C15.504 0.11997 15.796 -3e-05 16.101 -3e-05H21.85C22 -3e-05 22.149 0.03 22.287 0.0899401C22.568 0.20994 22.791 0.439921 22.908 0.719941C22.967 0.859951 22.998 1.00998 23 1.17001V6.99998C23 7.31004 22.879 7.59996 22.663 7.81993C22.448 8.04002 22.155 8.16002 21.85 8.16002L21.85 8.16004Z" fill="#8C8C8C"/>
</svg>
