<svg width="30" height="30" viewBox="0 0 30 30" fill="none" xmlns="http://www.w3.org/2000/svg">
<rect x="5.99853" y="9.31695" width="3.00049" height="14.0023" fill="#FCAF17"/>
<rect x="12.9997" y="13.3176" width="3.00049" height="10.0016" fill="#FCAF17"/>
<rect x="20.0008" y="17.3182" width="3.00049" height="6.00098" fill="#FCAF17"/>
<path fill-rule="evenodd" clip-rule="evenodd" d="M22.0328 7.08802H23.7897C24.275 7.08802 24.6685 6.69445 24.6685 6.20909V4.45309C24.6685 3.96782 24.275 3.57424 23.7897 3.57424C23.3043 3.57424 22.9108 3.96781 22.9108 4.45309V5.33113H22.0328C21.5474 5.33113 21.1549 5.72461 21.1549 6.20909C21.1549 6.69445 21.5474 7.08802 22.0328 7.08802Z" fill="#717171"/>
<path fill-rule="evenodd" clip-rule="evenodd" d="M29.7418 26.7417L27.984 24.9839C27.6409 24.6407 27.085 24.6407 26.7419 24.9839C26.3978 25.3269 26.3978 25.8829 26.7419 26.226L26.9988 26.4838H3.51575V3.00112L3.77355 3.2579C3.94515 3.4295 4.17013 3.51575 4.39509 3.51575C4.61917 3.51575 4.84419 3.4295 5.01574 3.2579C5.35978 2.91489 5.35978 2.35891 5.01574 2.01581L3.25794 0.258023C2.91484 -0.0860564 2.3589 -0.0860564 2.01579 0.258023L0.257993 2.01581C-0.0860455 2.35891 -0.0860455 2.91489 0.257993 3.2579C0.601101 3.6011 1.15708 3.6011 1.50019 3.2579L1.75799 3.00112V27.3622C1.75799 27.8479 2.15172 28.2416 2.63733 28.2416H26.9988L26.7418 28.4995C26.3987 28.8425 26.3987 29.3985 26.7418 29.7416C26.9134 29.9132 27.1384 29.9993 27.3634 29.9993C27.5875 29.9993 27.8124 29.9132 27.984 29.7416L29.7418 27.9838C30.0859 27.6407 30.0859 27.0847 29.7418 26.7417L29.7418 26.7417Z" fill="#717171"/>
<path fill-rule="evenodd" clip-rule="evenodd" d="M7.08756 9.57339H8.84654V23.0522H7.08756V9.57339ZM6.20902 24.6687H9.72519C10.2109 24.6687 10.6037 24.3072 10.6037 23.8604V8.76514C10.6037 8.31832 10.2109 7.95686 9.72519 7.95686H6.20902C5.72332 7.95686 5.33046 8.31832 5.33046 8.76514V23.8604C5.33046 24.3072 5.72332 24.6687 6.20902 24.6687Z" fill="#717171"/>
<path fill-rule="evenodd" clip-rule="evenodd" d="M14.1204 14.1203H15.8794V22.9115H14.1204V14.1203ZM13.2419 24.6688H16.7581C17.2438 24.6688 17.6366 24.2759 17.6366 23.79V13.2417C17.6366 12.7561 17.2438 12.3632 16.7581 12.3632H13.2419C12.7562 12.3632 12.3633 12.7561 12.3633 13.2417V23.79C12.3633 24.2759 12.7562 24.6688 13.2419 24.6688Z" fill="#717171"/>
<path fill-rule="evenodd" clip-rule="evenodd" d="M22.9123 22.9115H21.1533V18.5265H22.9123V22.9115ZM20.2748 16.7695C19.7891 16.7695 19.3962 17.1623 19.3962 17.648V23.7902C19.3962 24.2759 19.7891 24.6688 20.2748 24.6688H23.791C24.2767 24.6688 24.6695 24.2759 24.6695 23.7902V17.648C24.6695 17.1623 24.2767 16.7695 23.791 16.7695H20.2748Z" fill="#717171"/>
<path fill-rule="evenodd" clip-rule="evenodd" d="M23.7899 1.81476C26.2137 1.81476 28.1855 3.78663 28.1855 6.20941C28.1855 8.63315 26.2137 10.605 23.7899 10.605C21.3661 10.605 19.3943 8.63315 19.3943 6.20941C19.3943 3.78663 21.3661 1.81476 23.7899 1.81476ZM23.7899 12.3632C27.1832 12.3632 29.9427 9.60274 29.9427 6.20939C29.9427 2.81701 27.1832 0.0566498 23.7899 0.0566498C20.3966 0.0566498 17.6371 2.81701 17.6371 6.20939C17.6371 9.60274 20.3966 12.3632 23.7899 12.3632Z" fill="#717171"/>
</svg>
