<svg width="20" height="20" viewBox="0 0 20 20" fill="none" xmlns="http://www.w3.org/2000/svg">
<path fill-rule="evenodd" clip-rule="evenodd" d="M14.759 16.3602L11.6771 11.0003H17.84C17.706 12.0603 17.365 13.0702 16.836 13.9902C16.307 14.9103 15.601 15.7202 14.759 16.3602H14.759ZM9.95809 18.0002C7.94511 17.9902 6.01112 17.2102 4.54915 15.8103C3.08616 14.4203 2.20216 12.5203 2.07616 10.5003C1.95018 8.4803 2.59017 6.49033 3.86914 4.9204C5.14715 3.36036 6.9681 2.34035 8.96408 2.07034V10.0003C8.96808 10.1203 8.99109 10.2403 9.03308 10.3503V10.4303V10.5003L13.009 17.3702C12.0451 17.7902 11.0071 18.0002 9.95809 18.0002ZM10.9521 2.07035C12.701 2.29043 14.327 3.10036 15.574 4.35035C16.821 5.60033 17.618 7.24032 17.84 9.00031H10.9521V2.07035ZM9.95809 0.000422045C8.4351 0.000422045 6.93212 0.350398 5.56413 1.02043C4.19715 1.70035 3.00218 2.68044 2.07119 3.89039C1.14118 5.10034 0.500203 6.51036 0.198196 8.02034C-0.10481 9.52033 -0.0598004 11.0702 0.329205 12.5503C0.7172 14.0303 1.43918 15.4003 2.43816 16.5603C3.43717 17.7202 4.68715 18.6302 6.09113 19.2202C7.49511 19.8102 9.01609 20.0701 10.5361 19.9802C12.0561 19.8902 13.535 19.4501 14.858 18.6901H14.928H14.978C16.891 17.5902 18.389 15.8902 19.236 13.8502C20.083 11.8003 20.23 9.53033 19.656 7.39034C19.081 5.25036 17.817 3.37037 16.062 2.03042C14.3071 0.690344 12.1601 -0.0196077 9.95811 0.000412045L9.95809 0.000422045Z" fill="#8C8C8C"/>
</svg>
