<svg width="24" height="24" viewBox="0 0 24 24" fill="none" xmlns="http://www.w3.org/2000/svg">
<rect x="3" y="9.60004" width="1.8" height="1.8" fill="#FCAF17"/>
<rect x="11.25" y="3.75" width="1.8" height="1.8" fill="#FCAF17"/>
<rect x="19.2" y="6.60004" width="1.8" height="1.8" fill="#FCAF17"/>
<path d="M20 20V13M12 20V10M4.00003 20L4.00003 16M13.4067 5.0275L18.5751 6.96567M10.7988 5.40092L5.20026 9.59983M21.0607 6.43934C21.6465 7.02513 21.6465 7.97487 21.0607 8.56066C20.4749 9.14645 19.5252 9.14645 18.9394 8.56066C18.3536 7.97487 18.3536 7.02513 18.9394 6.43934C19.5252 5.85355 20.4749 5.85355 21.0607 6.43934ZM5.06069 9.43934C5.64648 10.0251 5.64648 10.9749 5.06069 11.5607C4.4749 12.1464 3.52516 12.1464 2.93937 11.5607C2.35358 10.9749 2.35358 10.0251 2.93937 9.43934C3.52516 8.85355 4.4749 8.85355 5.06069 9.43934ZM13.0607 3.43934C13.6465 4.02513 13.6465 4.97487 13.0607 5.56066C12.4749 6.14645 11.5252 6.14645 10.9394 5.56066C10.3536 4.97487 10.3536 4.02513 10.9394 3.43934C11.5252 2.85355 12.4749 2.85355 13.0607 3.43934Z" stroke="#717171" stroke-width="1.7" stroke-linecap="round" stroke-linejoin="round"/>
</svg>
