<svg width="22" height="22" viewBox="0 0 22 22" fill="none" xmlns="http://www.w3.org/2000/svg">
<path fill-rule="evenodd" clip-rule="evenodd" d="M21.2323 11C21.2323 16.6516 16.6514 21.2324 10.9999 21.2324C5.34841 21.2324 0.767502 16.6516 0.767502 11C0.767502 5.34853 5.34841 0.767627 10.9999 0.767627C16.6514 0.767627 21.2323 5.34853 21.2323 11Z" stroke="#717171" stroke-width="1.5" stroke-linecap="round" stroke-linejoin="round"/>
<path d="M11.7681 14.6481C11.7681 14.2242 11.4244 13.8805 11.0005 13.8805C10.5765 13.8805 10.2329 14.2242 10.2329 14.6481H11.7681ZM10.2329 15.7427C10.2329 16.1666 10.5765 16.5103 11.0005 16.5103C11.4244 16.5103 11.7681 16.1666 11.7681 15.7427H10.2329ZM11.7681 6.25633C11.7681 5.83239 11.4244 5.48872 11.0005 5.48872C10.5765 5.48872 10.2329 5.83239 10.2329 6.25633H11.7681ZM10.2329 7.35092C10.2329 7.77486 10.5765 8.11852 11.0005 8.11852C11.4244 8.11852 11.7681 7.77486 11.7681 7.35092H10.2329ZM9.21367 12.9457C9.21367 12.5218 8.87 12.1781 8.44606 12.1781C8.02212 12.1781 7.67845 12.5218 7.67845 12.9457H9.21367ZM12.7869 9.05336C12.7869 9.47729 13.1305 9.82096 13.5545 9.82096C13.9784 9.82096 14.3221 9.47729 14.3221 9.05336H12.7869ZM10.2329 14.6481V15.7427H11.7681V14.6481H10.2329ZM10.2329 6.25633V7.35092H11.7681V6.25633H10.2329ZM7.67845 12.9457C7.67845 14.31 8.78464 15.416 10.1492 15.416V13.8808C9.63223 13.8808 9.21367 13.4619 9.21367 12.9457H7.67845ZM10.1492 15.416H11.7298V13.8808H10.1492V15.416ZM11.7298 15.416C13.1613 15.416 14.3221 14.2552 14.3221 12.8237H12.7869C12.7869 13.4074 12.3135 13.8808 11.7298 13.8808V15.416ZM14.3221 12.8237C14.3221 11.3919 13.1611 10.2319 11.7298 10.2319V11.7672C12.3138 11.7672 12.7869 12.2403 12.7869 12.8237H14.3221ZM11.7298 10.2319H10.2707V11.7672H11.7298V10.2319ZM10.2707 10.2319C9.68682 10.2319 9.21367 9.75874 9.21367 9.17541H7.67845C7.67845 10.6072 8.83953 11.7672 10.2707 11.7672V10.2319ZM9.21367 9.17541C9.21367 8.59181 9.68709 8.11838 10.2707 8.11838V6.58316C8.83924 6.58316 7.67845 7.7439 7.67845 9.17541H9.21367ZM10.2707 8.11838H11.8519V6.58316H10.2707V8.11838ZM11.8519 8.11838C12.3682 8.11838 12.7869 8.53708 12.7869 9.05336H14.3221C14.3221 7.68921 13.2161 6.58316 11.8519 6.58316V8.11838Z" fill="#FCAF17"/>
</svg>
