<svg width="35" height="35" viewBox="0 0 35 35" fill="none" xmlns="http://www.w3.org/2000/svg">
<path d="M27.5061 20.0408L31.5104 16.8322V30.3083L27.5061 33.5169V20.0408Z" fill="#FCAF17"/>
<path fill-rule="evenodd" clip-rule="evenodd" d="M20.1311 25.3496C20.0376 25.2859 19.9351 25.2353 19.8272 25.1976C19.7272 25.1469 19.6181 25.1119 19.5064 25.0963C19.2349 25.0417 18.9544 25.0548 18.6894 25.1353C18.4244 25.2145 18.1829 25.3574 17.9868 25.5522C17.6776 25.8757 17.5036 26.3043 17.4971 26.751C17.4945 26.9706 17.5347 27.1887 17.6153 27.3927C17.7075 27.5979 17.8322 27.7862 17.9868 27.9498C18.1504 28.0992 18.3387 28.2188 18.5439 28.3044C18.7466 28.394 18.9648 28.4395 19.1855 28.4395C19.4064 28.4395 19.6246 28.394 19.8272 28.3044C20.0324 28.2188 20.2207 28.0992 20.3844 27.9498C20.5402 27.7927 20.6649 27.6056 20.7494 27.3991C20.8325 27.1939 20.8754 26.9731 20.8741 26.751C20.8675 26.3043 20.6935 25.8756 20.3844 25.5522C20.3039 25.4795 20.2195 25.4119 20.1311 25.3496ZM31.0055 29.3229C31.0055 29.7711 30.8276 30.2009 30.5107 30.5165C30.1937 30.8335 29.7652 31.0114 29.317 31.0114C28.869 31.0114 28.4403 30.8335 28.1234 30.5165C27.8065 30.2009 27.6286 29.771 27.6286 29.3229V20.8804H31.0055L31.0055 29.3229ZM5.67666 31.0114C5.22853 31.0114 4.79996 30.8335 4.48301 30.5165C4.1661 30.2009 3.98819 29.771 3.98819 29.3229V5.22812L7.3652 7.15302C7.62625 7.28938 7.91588 7.36086 8.20942 7.36086C8.50295 7.36086 8.79263 7.28936 9.05363 7.15302L14.1191 4.24878L19.1846 7.15302C19.4457 7.28938 19.7353 7.36086 20.0289 7.36086C20.3224 7.36086 20.612 7.28936 20.8731 7.15302L24.2501 5.22812V29.3229C24.2553 29.8996 24.3579 30.4697 24.554 31.0114H5.67666ZM32.6933 17.5033H27.6278V2.30678C27.6291 2.00942 27.5512 1.71716 27.4031 1.45869C27.2551 1.20157 27.0408 0.987202 26.7836 0.837907C26.5264 0.68973 26.2355 0.611829 25.9394 0.611829C25.6432 0.611829 25.3523 0.68973 25.0951 0.837907L20.0297 3.74205L14.9641 0.837907C14.707 0.68973 14.416 0.611829 14.1199 0.611829C13.8238 0.611829 13.5328 0.68973 13.2757 0.837907L8.2102 3.74205L3.14476 0.837907C2.88758 0.68973 2.59663 0.611829 2.30044 0.611829C2.00431 0.611829 1.71336 0.68973 1.45623 0.837907C1.19905 0.987202 0.984739 1.20157 0.836662 1.45869C0.688586 1.71716 0.610685 2.00942 0.611969 2.30678V29.3227C0.611969 30.667 1.14585 31.9542 2.09526 32.9049C3.04598 33.8543 4.33446 34.3882 5.67746 34.3882H29.3163C30.6593 34.3882 31.9478 33.8543 32.8986 32.9049C33.848 31.9542 34.3818 30.667 34.3818 29.3227V19.1918C34.3818 18.7436 34.2039 18.3151 33.887 17.9981C33.5701 17.6812 33.1414 17.5033 32.6934 17.5033L32.6933 17.5033ZM15.768 25.0625H9.05407C8.606 25.0625 8.17737 25.2405 7.86046 25.5574C7.54355 25.8743 7.36564 26.3029 7.36564 26.751C7.36564 27.1991 7.54355 27.629 7.86046 27.9446C8.17737 28.2615 8.606 28.4395 9.05407 28.4395H15.768C16.2162 28.4395 16.6447 28.2615 16.9617 27.9446C17.2785 27.629 17.4565 27.1991 17.4565 26.751C17.4565 26.3029 17.2785 25.8743 16.9617 25.5574C16.6447 25.2405 16.2161 25.0625 15.768 25.0625ZM19.6698 20.0891H9.05407C8.606 20.0891 8.17737 20.267 7.86046 20.5839C7.54355 20.9009 7.36564 21.3294 7.36564 21.7776C7.36564 22.2257 7.54355 22.6555 7.86046 22.9712C8.17737 23.2881 8.606 23.466 9.05407 23.466H19.6698C20.118 23.466 20.5465 23.2881 20.8635 22.9712C21.1804 22.6555 21.3583 22.2257 21.3583 21.7776C21.3583 21.3294 21.1804 20.9009 20.8635 20.5839C20.5465 20.267 20.118 20.0891 19.6698 20.0891Z" fill="#717171"/>
<path d="M20.1311 25.3496L20.4839 24.8495L20.4754 24.8437L20.1311 25.3496ZM19.8272 25.1976L19.5504 25.7433L19.5869 25.7618L19.6254 25.7752L19.8272 25.1976ZM19.5064 25.0963L19.3858 25.6961L19.4037 25.6998L19.4218 25.7023L19.5064 25.0963ZM18.6894 25.1353L18.8647 25.7215L18.8674 25.7207L18.6894 25.1353ZM17.9868 25.5522L17.5556 25.1182L17.55 25.1237L17.5445 25.1294L17.9868 25.5522ZM17.4971 26.751L16.8853 26.7422L16.8853 26.7436L17.4971 26.751ZM17.6153 27.3927L17.0462 27.6174L17.0514 27.6306L17.0572 27.6435L17.6153 27.3927ZM17.9868 27.9498L17.542 28.37L17.5575 28.3864L17.5742 28.4016L17.9868 27.9498ZM18.5439 28.3044L18.7914 27.7447L18.7796 27.7398L18.5439 28.3044ZM19.8272 28.3044L19.5915 27.7396L19.5797 27.7449L19.8272 28.3044ZM20.3844 27.9498L20.7969 28.4017L20.8081 28.3915L20.8188 28.3807L20.3844 27.9498ZM20.7494 27.3991L21.3157 27.6306L21.3164 27.6289L20.7494 27.3991ZM20.8741 26.751L21.4859 26.7474L21.4859 26.7421L20.8741 26.751ZM20.3844 25.5522L20.8267 25.1295L20.8112 25.1132L20.7945 25.0981L20.3844 25.5522ZM31.0055 29.3229H30.3937H31.0055ZM30.5107 30.5165L30.079 30.0829L30.078 30.0839L30.5107 30.5165ZM28.1234 30.5165L28.5562 30.0839L28.5552 30.0829L28.1234 30.5165ZM27.6286 20.8804V20.2686H27.0167V20.8804H27.6286ZM31.0055 20.8804H31.6174L31.6174 20.2686H31.0055V20.8804ZM4.48301 30.5165L4.91569 30.0839L4.91475 30.0829L4.48301 30.5165ZM3.98819 5.22812L4.29118 4.69655L3.37633 4.17509V5.22812H3.98819ZM7.3652 7.15302L7.06221 7.68458L7.07196 7.69014L7.08191 7.69534L7.3652 7.15302ZM9.05363 7.15302L9.33694 7.69533L9.34756 7.68978L9.35796 7.68382L9.05363 7.15302ZM14.1191 4.24878L14.4235 3.71798L14.1191 3.54349L13.8148 3.71798L14.1191 4.24878ZM19.1846 7.15302L18.8802 7.68382L18.8907 7.68979L18.9013 7.69536L19.1846 7.15302ZM20.8731 7.15302L21.1563 7.69537L21.1663 7.69016L21.1761 7.68458L20.8731 7.15302ZM24.2501 5.22812H24.862V4.17509L23.9471 4.69655L24.2501 5.22812ZM24.2501 29.3229H23.6382L23.6383 29.3284L24.2501 29.3229ZM24.554 31.0114V31.6232H25.4263L25.1293 30.8031L24.554 31.0114ZM32.6933 17.5033L32.9465 16.9462L32.8259 16.8914H32.6933V17.5033ZM27.6278 17.5033H27.016V18.1151H27.6278V17.5033ZM27.6278 2.30678L27.016 2.30417V2.30678H27.6278ZM27.4031 1.45869L27.9341 1.15456L27.9334 1.15335L27.4031 1.45869ZM26.7836 0.837907L27.0907 0.30874L27.089 0.307754L26.7836 0.837907ZM25.0951 0.837907L25.3994 1.36871L25.4006 1.36806L25.0951 0.837907ZM20.0297 3.74205L19.7253 4.27285L20.0297 4.44732L20.334 4.27285L20.0297 3.74205ZM14.9641 0.837907L14.6586 1.36804L14.6598 1.36871L14.9641 0.837907ZM13.2757 0.837907L13.58 1.36871L13.5812 1.36803L13.2757 0.837907ZM8.2102 3.74205L7.90588 4.27285L8.2102 4.44733L8.51452 4.27285L8.2102 3.74205ZM3.14476 0.837907L2.8393 1.36806L2.84043 1.36871L3.14476 0.837907ZM1.45623 0.837907L1.15073 0.307777L1.14905 0.308751L1.45623 0.837907ZM0.836662 1.45869L0.306444 1.15335L0.305764 1.15454L0.836662 1.45869ZM0.611969 2.30678H1.22383L1.22382 2.30413L0.611969 2.30678ZM2.09526 32.9049L1.66231 33.3373L1.66291 33.3379L2.09526 32.9049ZM32.8986 32.9049L33.3309 33.3379L33.3315 33.3373L32.8986 32.9049ZM33.887 17.9981L34.3197 17.5655L34.3196 17.5654L33.887 17.9981ZM32.6934 17.5033L32.4402 18.0603L32.5608 18.1151H32.6934V17.5033ZM7.86046 27.9446L8.29311 27.512L8.29219 27.5111L7.86046 27.9446ZM16.9617 27.9446L16.5299 27.5111L16.5291 27.5119L16.9617 27.9446ZM16.9617 25.5574L17.3944 25.1248L17.3943 25.1247L16.9617 25.5574ZM7.86046 20.5839L7.42782 20.1513L7.42775 20.1513L7.86046 20.5839ZM7.86046 22.9712L8.29311 22.5386L8.29227 22.5377L7.86046 22.9712ZM20.8635 22.9712L20.4317 22.5378L20.4309 22.5385L20.8635 22.9712ZM20.8635 20.5839L21.2962 20.1514L21.2961 20.1512L20.8635 20.5839ZM20.4754 24.8437C20.3346 24.748 20.1837 24.674 20.029 24.62L19.6254 25.7752C19.6864 25.7966 19.7405 25.8238 19.7869 25.8554L20.4754 24.8437ZM20.104 24.6519C19.946 24.5718 19.7721 24.5156 19.5909 24.4903L19.4218 25.7023C19.4641 25.7082 19.5084 25.722 19.5504 25.7433L20.104 24.6519ZM19.627 24.4964C19.2572 24.4221 18.874 24.4397 18.5114 24.5499L18.8674 25.7207C19.0348 25.6698 19.2127 25.6613 19.3858 25.6961L19.627 24.4964ZM18.5141 24.5491C18.1536 24.6569 17.8238 24.8516 17.5556 25.1182L18.418 25.9863C18.5419 25.8632 18.6953 25.7722 18.8647 25.7215L18.5141 24.5491ZM17.5445 25.1294C17.1278 25.5654 16.894 26.1422 16.8853 26.7422L18.1089 26.7599C18.1132 26.4663 18.2275 26.1859 18.4291 25.975L17.5445 25.1294ZM16.8853 26.7436C16.8817 27.0428 16.9366 27.3398 17.0462 27.6174L18.1844 27.1679C18.1329 27.0377 18.1072 26.8984 18.1089 26.7584L16.8853 26.7436ZM17.0572 27.6435C17.1767 27.9093 17.3391 28.1552 17.542 28.37L18.4316 27.5296C18.3253 27.4171 18.2384 27.2865 18.1734 27.1419L17.0572 27.6435ZM17.5742 28.4016C17.7906 28.5993 18.039 28.7567 18.3083 28.8691L18.7796 27.7398C18.6385 27.6809 18.5102 27.5992 18.3994 27.498L17.5742 28.4016ZM18.2965 28.864C18.5779 28.9884 18.8805 29.0514 19.1855 29.0514V27.8277C19.0491 27.8277 18.9153 27.7996 18.7914 27.7448L18.2965 28.864ZM19.1855 29.0514C19.4906 29.0514 19.7933 28.9885 20.0747 28.864L19.5797 27.7449C19.4559 27.7996 19.3221 27.8277 19.1855 27.8277V29.0514ZM20.0629 28.8691C20.3322 28.7567 20.5805 28.5992 20.7969 28.4017L19.9719 27.4979C19.861 27.5992 19.7326 27.6809 19.5915 27.7398L20.0629 28.8691ZM20.8188 28.3807C21.0306 28.1672 21.2005 27.9126 21.3157 27.6306L20.183 27.1676C20.1294 27.2987 20.0499 27.4182 19.95 27.519L20.8188 28.3807ZM21.3164 27.6289C21.4293 27.3503 21.4877 27.0503 21.4859 26.7474L20.2622 26.7546C20.2631 26.896 20.2357 27.0375 20.1823 27.1693L21.3164 27.6289ZM21.4859 26.7421C21.4771 26.1422 21.2434 25.5654 20.8267 25.1295L19.9421 25.975C20.1436 26.1859 20.258 26.4663 20.2623 26.76L21.4859 26.7421ZM20.7945 25.0981C20.6961 25.0093 20.5925 24.9263 20.4839 24.8496L19.7784 25.8495C19.8464 25.8975 19.9117 25.9497 19.9743 26.0063L20.7945 25.0981ZM30.3937 29.3229C30.3937 29.6091 30.28 29.8827 30.079 30.0829L30.9424 30.95C31.3752 30.5191 31.6174 29.933 31.6174 29.3229H30.3937ZM30.078 30.0839C29.8755 30.2864 29.6025 30.3995 29.317 30.3995V31.6232C29.9278 31.6232 30.5119 31.3806 30.9434 30.9491L30.078 30.0839ZM29.317 30.3995C29.0316 30.3995 28.7585 30.2863 28.5562 30.0839L27.6907 30.949C28.1221 31.3806 28.7064 31.6232 29.317 31.6232V30.3995ZM28.5552 30.0829C28.3541 29.8827 28.2404 29.6091 28.2404 29.3229H27.0167C27.0167 29.933 27.259 30.5191 27.6917 30.95L28.5552 30.0829ZM28.2404 29.3229V20.8804H27.0167V29.3229H28.2404ZM27.6286 21.4923H31.0055V20.2686H27.6286V21.4923ZM30.3937 20.8804L30.3937 29.3229L31.6174 29.3229L31.6174 20.8804L30.3937 20.8804ZM5.67666 30.3995C5.39119 30.3995 5.11816 30.2864 4.91569 30.0839L4.05033 30.9491C4.48177 31.3806 5.06586 31.6232 5.67666 31.6232V30.3995ZM4.91475 30.0829C4.7137 29.8827 4.60004 29.6091 4.60004 29.3229H3.37633C3.37633 29.9329 3.61849 30.519 4.05126 30.95L4.91475 30.0829ZM4.60004 29.3229V5.22812H3.37633V29.3229H4.60004ZM3.6852 5.75969L7.06221 7.68458L7.6682 6.62145L4.29118 4.69655L3.6852 5.75969ZM7.08191 7.69534C7.42977 7.87705 7.81652 7.97271 8.20942 7.97271V6.749C8.01525 6.749 7.82273 6.70171 7.6485 6.6107L7.08191 7.69534ZM8.20942 7.97271C8.60231 7.97271 8.98911 7.87703 9.33694 7.69533L8.77032 6.6107C8.59615 6.70169 8.40359 6.749 8.20942 6.749V7.97271ZM9.35796 7.68382L14.4234 4.77958L13.8148 3.71798L8.7493 6.62222L9.35796 7.68382ZM13.8148 4.77958L18.8802 7.68382L19.4889 6.62222L14.4235 3.71798L13.8148 4.77958ZM18.9013 7.69536C19.2492 7.87705 19.6359 7.97271 20.0289 7.97271V6.749C19.8347 6.749 19.6421 6.70171 19.4678 6.61067L18.9013 7.69536ZM20.0289 7.97271C20.4218 7.97271 20.8085 7.87702 21.1563 7.69537L20.5899 6.61066C20.4155 6.70171 20.223 6.749 20.0289 6.749V7.97271ZM21.1761 7.68458L24.5531 5.75969L23.9471 4.69655L20.5701 6.62145L21.1761 7.68458ZM23.6382 5.22812V29.3229H24.862V5.22812H23.6382ZM23.6383 29.3284C23.6441 29.9741 23.759 30.6129 23.9787 31.2197L25.1293 30.8031C24.9568 30.3266 24.8665 29.825 24.8619 29.3174L23.6383 29.3284ZM24.554 30.3995H5.67666V31.6232H24.554V30.3995ZM32.6933 16.8914H27.6278V18.1151H32.6933V16.8914ZM28.2397 17.5033V2.30678H27.016V17.5033H28.2397ZM28.2397 2.30939C28.2414 1.90327 28.135 1.50535 27.9341 1.15456L26.8722 1.76283C26.9674 1.92897 27.0168 2.11558 27.016 2.30417L28.2397 2.30939ZM27.9334 1.15335C27.7314 0.802679 27.4399 0.511424 27.0907 0.308743L26.4764 1.36707C26.6416 1.46298 26.7787 1.60045 26.8729 1.76404L27.9334 1.15335ZM27.089 0.307754C26.7392 0.106178 26.343 -2.49207e-05 25.9394 -2.49207e-05V1.22368C26.128 1.22368 26.3136 1.27328 26.4781 1.36806L27.089 0.307754ZM25.9394 -2.49207e-05C25.5358 -2.49207e-05 25.1395 0.106169 24.7896 0.307754L25.4006 1.36806C25.565 1.27329 25.7507 1.22368 25.9394 1.22368V-2.49207e-05ZM24.7908 0.307103L19.7253 3.21124L20.334 4.27285L25.3994 1.36871L24.7908 0.307103ZM20.334 3.21124L15.2684 0.3071L14.6598 1.36871L19.7253 4.27285L20.334 3.21124ZM15.2696 0.307779C14.9198 0.106165 14.5235 -2.49207e-05 14.1199 -2.49207e-05V1.22368C14.3086 1.22368 14.4942 1.2733 14.6586 1.36803L15.2696 0.307779ZM14.1199 -2.49207e-05C13.7163 -2.49207e-05 13.32 0.106165 12.9702 0.307779L13.5812 1.36803C13.7456 1.2733 13.9312 1.22368 14.1199 1.22368V-2.49207e-05ZM12.9714 0.307101L7.90588 3.21124L8.51452 4.27285L13.58 1.36871L12.9714 0.307101ZM8.51452 3.21124L3.44908 0.307103L2.84043 1.36871L7.90588 4.27285L8.51452 3.21124ZM3.45021 0.307754C3.10033 0.106164 2.70408 -2.49207e-05 2.30044 -2.49207e-05V1.22368C2.48919 1.22368 2.67483 1.2733 2.8393 1.36806L3.45021 0.307754ZM2.30044 -2.49207e-05C1.89686 -2.49207e-05 1.50059 0.106165 1.15073 0.307779L1.76173 1.36803C1.92613 1.2733 2.11175 1.22368 2.30044 1.22368V-2.49207e-05ZM1.14905 0.308751C0.799927 0.511422 0.508399 0.802667 0.306445 1.15335L1.36688 1.76404C1.46108 1.60047 1.59818 1.46298 1.76341 1.36706L1.14905 0.308751ZM0.305764 1.15454C0.104785 1.50534 -0.00163383 1.90328 0.000120896 2.30942L1.22382 2.30413C1.223 2.11557 1.27239 1.92898 1.36756 1.76285L0.305764 1.15454ZM0.000115182 2.30678V29.3227H1.22382V2.30678H0.000115182ZM0.000115182 29.3227C0.000115182 30.8295 0.598574 32.2721 1.66231 33.3373L2.5282 32.4726C1.69312 31.6363 1.22382 30.5046 1.22382 29.3227H0.000115182ZM1.66291 33.3379C2.72819 34.4017 4.1721 35 5.67746 35V33.7763C4.49682 33.7763 3.36378 33.307 2.5276 32.472L1.66291 33.3379ZM5.67746 35H29.3163V33.7763H5.67746V35ZM29.3163 35C30.8217 35 32.2656 34.4017 33.3309 33.3379L32.4662 32.472C31.63 33.307 30.497 33.7763 29.3163 33.7763V35ZM33.3315 33.3373C34.3952 32.2721 34.9937 30.8295 34.9937 29.3227H33.77C33.77 30.5045 33.3007 31.6363 32.4656 32.4726L33.3315 33.3373ZM34.9937 29.3227V19.1918H33.77V29.3227H34.9937ZM34.9937 19.1918C34.9937 18.5809 34.751 17.9969 34.3197 17.5655L33.4543 18.4307C33.6568 18.6333 33.77 18.9063 33.77 19.1918H34.9937ZM34.3196 17.5654C33.8882 17.134 33.3041 16.8914 32.6934 16.8914V18.1151C32.9788 18.1151 33.2519 18.2283 33.4543 18.4307L34.3196 17.5654ZM32.9465 16.9463L32.9465 16.9462L32.4401 18.0603L32.4402 18.0603L32.9465 16.9463ZM15.768 24.4506H9.05407V25.6743H15.768V24.4506ZM9.05407 24.4506C8.44327 24.4506 7.85915 24.6934 7.42782 25.1247L8.29311 25.99C8.49559 25.7876 8.76873 25.6743 9.05407 25.6743V24.4506ZM7.42782 25.1247C6.99642 25.5561 6.75379 26.1403 6.75379 26.751H7.9775C7.9775 26.4656 8.09069 26.1925 8.29311 25.99L7.42782 25.1247ZM6.75379 26.751C6.75379 27.361 6.99593 27.9472 7.42873 28.3782L8.29219 27.5111C8.09118 27.3109 7.9775 27.0372 7.9775 26.751H6.75379ZM7.42782 28.3773C7.85915 28.8086 8.44327 29.0514 9.05407 29.0514V27.8277C8.76873 27.8277 8.49559 27.7144 8.29311 27.512L7.42782 28.3773ZM9.05407 29.0514H15.768V27.8277H9.05407V29.0514ZM15.768 29.0514C16.3789 29.0514 16.9629 28.8086 17.3943 28.3773L16.5291 27.5119C16.3265 27.7145 16.0534 27.8277 15.768 27.8277V29.0514ZM17.3935 28.3781C17.8261 27.9472 18.0684 27.361 18.0684 26.751H16.8446C16.8446 27.0371 16.731 27.3109 16.5299 27.5111L17.3935 28.3781ZM18.0684 26.751C18.0684 26.1403 17.8257 25.5561 17.3944 25.1248L16.529 25.99C16.7314 26.1925 16.8446 26.4656 16.8446 26.751H18.0684ZM17.3943 25.1247C16.9629 24.6934 16.3789 24.4506 15.768 24.4506V25.6743C16.0534 25.6743 16.3265 25.7875 16.5291 25.9901L17.3943 25.1247ZM19.6698 19.4772H9.05407V20.7009H19.6698V19.4772ZM9.05407 19.4772C8.44337 19.4772 7.85922 19.7199 7.42782 20.1513L8.29311 21.0165C8.49553 20.8141 8.76863 20.7009 9.05407 20.7009V19.4772ZM7.42775 20.1513C6.99644 20.5828 6.75379 21.1668 6.75379 21.7776H7.9775C7.9775 21.4921 8.09067 21.2191 8.29318 21.0165L7.42775 20.1513ZM6.75379 21.7776C6.75379 22.3876 6.99597 22.9737 7.42865 23.4047L8.29227 22.5377C8.09113 22.3374 7.9775 22.0637 7.9775 21.7776H6.75379ZM7.42782 23.4039C7.85922 23.8353 8.44337 24.0779 9.05407 24.0779V22.8542C8.76863 22.8542 8.49553 22.741 8.29311 22.5386L7.42782 23.4039ZM9.05407 24.0779H19.6698V22.8542H9.05407V24.0779ZM19.6698 24.0779C20.2806 24.0779 20.8647 23.8352 21.2961 23.4039L20.4309 22.5385C20.2284 22.741 19.9553 22.8542 19.6698 22.8542V24.0779ZM21.2953 23.4047C21.7279 22.9737 21.9702 22.3877 21.9702 21.7776H20.7465C20.7465 22.0637 20.6328 22.3374 20.4317 22.5378L21.2953 23.4047ZM21.9702 21.7776C21.9702 21.1667 21.7274 20.5828 21.2962 20.1514L20.4308 21.0164C20.6333 21.2191 20.7465 21.4921 20.7465 21.7776H21.9702ZM21.2961 20.1512C20.8647 19.7199 20.2806 19.4772 19.6698 19.4772V20.7009C19.9553 20.7009 20.2284 20.8141 20.4309 21.0166L21.2961 20.1512Z" fill="white"/>
<path fill-rule="evenodd" clip-rule="evenodd" d="M16.9205 9.82045H16.0642C16.2026 10.018 16.3091 10.2382 16.3851 10.4768C16.4034 10.5328 16.4201 10.5907 16.4338 10.65H16.9205C17.0954 10.65 17.2612 10.7167 17.3707 10.8732C17.468 11.0115 17.4969 11.1847 17.4969 11.3533V11.4536C17.4969 11.6221 17.468 11.7953 17.3707 11.9336C17.2612 12.0902 17.0954 12.1568 16.9205 12.1568H16.4323C16.3714 12.4062 16.2772 12.6478 16.1524 12.88C15.9061 13.3451 15.4954 13.7081 14.9479 13.9769C14.4308 14.2262 13.7524 14.3492 12.9296 14.3629C13.0148 14.4404 13.1 14.5254 13.182 14.6181L16.4338 18.0104C16.4688 18.047 16.4992 18.0835 16.5235 18.1183C16.5464 18.1474 16.5768 18.1928 16.5965 18.2461C16.6224 18.3219 16.627 18.4101 16.627 18.48C16.627 18.7109 16.4475 18.8371 16.3197 18.8979L16.3 18.9055C16.1494 18.9631 15.9441 18.9814 15.7159 18.9814H15.5471C15.3722 18.9814 15.2034 18.9586 15.0452 18.9131L15.0391 18.9115C14.8764 18.8597 14.7349 18.7747 14.6193 18.6517L10.6695 14.527C10.5569 14.3902 10.4581 14.2672 10.3744 14.1578L10.3668 14.1486C10.268 14.0073 10.1965 13.848 10.1965 13.6762V13.5319C10.1965 13.348 10.2512 13.1642 10.4049 13.0336C10.5509 12.9106 10.7394 12.8725 10.9235 12.8725H12.7547C13.1303 12.8725 13.4513 12.8058 13.7266 12.6796C14.0064 12.5518 14.2178 12.3865 14.3699 12.1875C14.376 12.1768 14.3836 12.1677 14.3912 12.1569H10.7714C10.5965 12.1569 10.4307 12.0902 10.3212 11.9337C10.2239 11.7953 10.1965 11.6221 10.1965 11.4536V11.3534C10.1965 11.1847 10.2239 11.0116 10.3212 10.8732C10.4307 10.7167 10.5965 10.65 10.7714 10.65H14.411C14.338 10.5163 14.2452 10.4113 14.1357 10.3293L14.1311 10.3264C13.8148 10.0832 13.3797 9.94964 12.8003 9.94964H10.9235C10.7333 9.94964 10.5402 9.90546 10.3942 9.76725C10.2467 9.6274 10.1965 9.43603 10.1965 9.2462V9.01534C10.1965 8.82541 10.2467 8.63538 10.3942 8.49561C10.5402 8.35749 10.7333 8.31332 10.9235 8.31332H16.9205C17.0954 8.31332 17.2612 8.38009 17.3707 8.53522C17.468 8.67334 17.4969 8.84811 17.4969 9.01534V9.11692C17.4969 9.28415 17.468 9.45883 17.3707 9.59724C17.2612 9.75205 17.0954 9.82046 16.9205 9.82046L16.9205 9.82045Z" fill="#717171"/>
</svg>
