<svg width="21" height="19" viewBox="0 0 21 19" fill="none" xmlns="http://www.w3.org/2000/svg">
<path d="M13.0331 9.3405L6.04424 5.50202L8.28066 3.58278L15.549 7.96962V13.179L13.3126 14.2757L13.0331 9.3405Z" fill="#FCAF17"/>
<path fill-rule="evenodd" clip-rule="evenodd" d="M13.5551 14.3196V9.52825C13.5551 9.35797 13.4643 9.19727 13.3172 9.12182L6.38302 5.18068L7.92652 4.20733L14.6159 8.00657C15.2336 8.3904 14.9735 8.3559 15.061 8.83836V13.3746L13.5551 14.3196ZM15.9985 7.93103C15.9981 7.93103 15.9978 7.92146 15.9972 7.92146C15.9945 7.90265 15.9909 7.88386 15.9858 7.8647C15.9857 7.8647 15.9856 7.8647 15.9856 7.8647C15.9808 7.84578 15.9746 7.82709 15.9677 7.80805C15.9657 7.80805 15.9636 7.79894 15.9615 7.79894C15.956 7.77967 15.9499 7.77045 15.9433 7.76087C15.9405 7.7513 15.9377 7.7513 15.9346 7.74195C15.9329 7.74195 15.9316 7.74195 15.9299 7.73249C15.9229 7.72292 15.9154 7.71357 15.9076 7.70411C15.9062 7.70411 15.905 7.70411 15.9035 7.69465C15.8917 7.6853 15.8791 7.66627 15.8657 7.65692C15.8633 7.65692 15.8605 7.64746 15.8579 7.64746C15.8464 7.63789 15.8344 7.62854 15.8219 7.61908C15.8187 7.61908 15.8156 7.60962 15.8122 7.60962C15.7955 7.60016 15.7782 7.58124 15.7603 7.5719L8.8301 3.64045L12.8202 1.12639L19.5097 4.92551L16.6924 6.7025C16.4725 6.8347 16.4065 7.12762 16.545 7.34497C16.6833 7.57189 16.9738 7.63789 17.1937 7.49621L20.6758 5.30368C20.8158 5.21865 20.8992 5.05806 20.8955 4.89725C20.8917 4.7272 20.8014 4.57583 20.6576 4.50027L13.0403 0.162277C12.8896 0.0772481 12.704 0.0868312 12.5572 0.181424L7.66709 3.25282C7.66614 3.25282 7.6651 3.26228 7.66416 3.26228L5.22056 4.79342C5.21943 4.80277 5.21829 4.80277 5.21716 4.80277L0.323822 7.88385C0.183761 7.96888 0.100405 8.12 0.104185 8.29028C0.107871 8.45075 0.198126 8.60199 0.341967 8.68702L7.9593 13.0156C8.03151 13.0626 8.11165 13.0817 8.19179 13.0817C8.27893 13.0817 8.36597 13.0533 8.44243 13.006L11.9246 10.8134C12.1444 10.6717 12.2105 10.3882 12.072 10.1615C11.9337 9.94394 11.6431 9.87783 11.4233 10.0197L8.17942 12.061L1.48996 8.2619L5.48018 5.74796L12.6148 9.80215V15.1705C12.6148 15.3404 12.7079 15.5009 12.8578 15.586C12.9286 15.6239 13.007 15.6427 13.0851 15.6427C13.1724 15.6427 13.2594 15.6144 13.3358 15.5672L15.7825 14.0266C15.9192 13.9416 16.0022 13.7905 16.0022 13.6298V7.98768C16.0022 7.98768 16.0018 7.97811 16.0017 7.97811C16.0014 7.9593 16.0004 7.94973 15.9985 7.93104L15.9985 7.93103Z" fill="#717171"/>
<path d="M13.5551 14.3196H13.4512V14.5076L13.6104 14.4077L13.5551 14.3196ZM13.3172 9.12182L13.2657 9.21229L13.2697 9.21433L13.3172 9.12182ZM6.38302 5.18068L6.32756 5.09274L6.18077 5.18531L6.33164 5.27106L6.38302 5.18068ZM7.92652 4.20733L7.97786 4.11694L7.92373 4.08619L7.87106 4.1194L7.92652 4.20733ZM14.6159 8.00657L14.6708 7.9182L14.6672 7.91617L14.6159 8.00657ZM15.061 8.83836H15.165V8.82902L15.1633 8.81982L15.061 8.83836ZM15.061 13.3746L15.1163 13.4626L15.165 13.432V13.3746H15.061ZM15.9985 7.93103L16.0688 7.8544L16.039 7.82707H15.9985V7.93103ZM15.9972 7.92146L15.8943 7.93645L15.9073 8.02542H15.9972V7.92146ZM15.9858 7.8647L16.0862 7.83794L16.0657 7.76074H15.9858V7.8647ZM15.9856 7.8647L15.8848 7.89036L15.9048 7.96866H15.9856V7.8647ZM15.9677 7.80805L16.0654 7.7726L16.0406 7.70409H15.9677V7.80805ZM15.9615 7.79894L15.8615 7.82738L15.883 7.9029H15.9615V7.79894ZM15.9433 7.76087L15.8437 7.79039L15.8484 7.80631L15.8578 7.81997L15.9433 7.76087ZM15.9346 7.74195L16.0333 7.70914L16.0096 7.63799H15.9346V7.74195ZM15.9299 7.73249L16.0322 7.71409L16.028 7.69055L16.0139 7.67122L15.9299 7.73249ZM15.9076 7.70411L15.988 7.63823L15.9568 7.60015H15.9076V7.70411ZM15.9035 7.69465L16.0064 7.67924L16.0003 7.63861L15.968 7.61312L15.9035 7.69465ZM15.8657 7.65692L15.9254 7.57181L15.8986 7.55296H15.8657V7.65692ZM15.8579 7.64746L15.7915 7.72745L15.8204 7.75142H15.8579V7.64746ZM15.8219 7.61908L15.8847 7.53625L15.8569 7.51512H15.8219V7.61908ZM15.8122 7.60962L15.7611 7.70011L15.7849 7.71358H15.8122V7.60962ZM15.7603 7.5719L15.7089 7.66238L15.7123 7.66411L15.7603 7.5719ZM8.8301 3.64045L8.77468 3.55249L8.62766 3.64513L8.7788 3.73087L8.8301 3.64045ZM12.8202 1.12639L12.8716 1.03599L12.8175 1.00526L12.7648 1.03843L12.8202 1.12639ZM19.5097 4.92551L19.5651 5.01344L19.712 4.92084L19.561 4.83511L19.5097 4.92551ZM16.6924 6.7025L16.746 6.79162L16.7479 6.79043L16.6924 6.7025ZM16.545 7.34497L16.6337 7.29084L16.6327 7.28912L16.545 7.34497ZM17.1937 7.49621L17.1383 7.40823L17.1374 7.40882L17.1937 7.49621ZM20.6758 5.30368L20.6218 5.21482L20.6204 5.2157L20.6758 5.30368ZM20.8955 4.89725L20.7915 4.89956L20.7915 4.89969L20.8955 4.89725ZM20.6576 4.50027L20.6061 4.59067L20.6092 4.59231L20.6576 4.50027ZM13.0403 0.162277L13.0918 0.0719379L13.0914 0.0717283L13.0403 0.162277ZM12.5572 0.181424L12.6125 0.269467L12.6135 0.268808L12.5572 0.181424ZM7.66709 3.25282V3.35678H7.69703L7.72238 3.34085L7.66709 3.25282ZM7.66416 3.26228V3.15832H7.63428L7.60896 3.17418L7.66416 3.26228ZM5.22056 4.79342L5.16536 4.70532L5.12333 4.73166L5.11736 4.7809L5.22056 4.79342ZM5.21716 4.80277V4.69881H5.18715L5.16176 4.71479L5.21716 4.80277ZM0.323822 7.88385L0.377779 7.97273L0.379215 7.97182L0.323822 7.88385ZM0.104185 8.29028L0.000250418 8.29259L0.000252253 8.29266L0.104185 8.29028ZM0.341967 8.68702L0.289057 8.77653L0.290605 8.77741L0.341967 8.68702ZM7.9593 13.0156L8.01618 12.9283L8.01067 12.9252L7.9593 13.0156ZM8.44243 13.006L8.49713 13.0944L8.49782 13.094L8.44243 13.006ZM11.9246 10.8134L11.98 10.9014L11.9809 10.9008L11.9246 10.8134ZM12.072 10.1615L12.1607 10.1073L12.1597 10.1057L12.072 10.1615ZM11.4233 10.0197L11.4787 10.1077L11.4797 10.1071L11.4233 10.0197ZM8.17942 12.061L8.12808 12.1514L8.18216 12.1821L8.23479 12.149L8.17942 12.061ZM1.48996 8.2619L1.43455 8.17394L1.28759 8.26652L1.43862 8.3523L1.48996 8.2619ZM5.48018 5.74796L5.53154 5.65757L5.47743 5.62682L5.42477 5.66L5.48018 5.74796ZM12.6148 9.80215H12.7187V9.74165L12.6661 9.71176L12.6148 9.80215ZM12.8578 15.586L12.8064 15.6765L12.8088 15.6777L12.8578 15.586ZM13.3358 15.5672L13.3904 15.6557L13.3912 15.6552L13.3358 15.5672ZM15.7825 14.0266L15.7276 13.9383L15.7271 13.9387L15.7825 14.0266ZM16.0022 7.98768H16.1063L16.1061 7.98257L16.0022 7.98768ZM16.0017 7.97811L15.8977 7.97968L15.8993 8.08207H16.0017V7.97811ZM15.9985 7.93104L16.102 7.92058L16.098 7.88117L16.0688 7.85441L15.9985 7.93104ZM13.6591 14.3196V9.52825H13.4512V14.3196H13.6591ZM13.6591 9.52825C13.6591 9.3228 13.5497 9.12423 13.3646 9.02931L13.2697 9.21433C13.3789 9.2703 13.4512 9.39314 13.4512 9.52825H13.6591ZM13.3685 9.03144L6.43439 5.0903L6.33164 5.27106L13.2658 9.2122L13.3685 9.03144ZM6.43847 5.26862L7.98197 4.29527L7.87106 4.1194L6.32756 5.09274L6.43847 5.26862ZM7.87518 4.29773L14.5645 8.09697L14.6672 7.91617L7.97786 4.11694L7.87518 4.29773ZM14.561 8.09488C14.7149 8.19048 14.8074 8.25605 14.8637 8.30741C14.9176 8.35668 14.9307 8.38605 14.936 8.40898C14.9436 8.44148 14.9403 8.47434 14.9375 8.55525C14.9349 8.63041 14.9351 8.72663 14.9587 8.85691L15.1633 8.81982C15.1432 8.70886 15.1431 8.62848 15.1453 8.56241C15.1474 8.50211 15.1542 8.42914 15.1386 8.36197C15.1208 8.28524 15.0776 8.22112 15.0038 8.15383C14.9324 8.08862 14.8258 8.01458 14.6707 7.91827L14.561 8.09488ZM14.957 8.83836V13.3746H15.165V8.83836H14.957ZM15.0057 13.2865L13.4999 14.2316L13.6104 14.4077L15.1163 13.4626L15.0057 13.2865ZM15.9985 7.82707C16.0216 7.82707 16.0405 7.83461 16.054 7.84311C16.0667 7.85113 16.075 7.86026 16.0798 7.86628C16.0848 7.87254 16.0882 7.87822 16.0902 7.88208C16.0924 7.8861 16.0939 7.8896 16.0949 7.89217C16.0969 7.89716 16.0981 7.90128 16.0987 7.90358C16.0994 7.9061 16.0999 7.90819 16.1002 7.90959C16.1007 7.9123 16.1011 7.91442 16.1012 7.91539C16.1014 7.91652 16.1015 7.91737 16.1015 7.91781C16.1016 7.91884 16.1017 7.91961 16.1015 7.91755C16.1015 7.91694 16.1014 7.9159 16.1013 7.91478C16.1012 7.91375 16.101 7.91196 16.1007 7.90989C16.1006 7.90883 16.1004 7.90732 16.1001 7.90556C16.0998 7.90396 16.0993 7.90108 16.0985 7.89757C16.0981 7.89577 16.0974 7.89319 16.0964 7.89015C16.0955 7.88734 16.0939 7.88257 16.0912 7.87693C16.0898 7.87402 16.0878 7.8702 16.0851 7.86592C16.0825 7.86174 16.0785 7.85602 16.0727 7.84995C16.067 7.84395 16.0582 7.83608 16.0457 7.82952C16.0328 7.82267 16.0162 7.8175 15.9972 7.8175V8.02542C15.9782 8.02542 15.9617 8.02026 15.9487 8.01342C15.9363 8.00687 15.9275 7.99901 15.9218 7.99303C15.9161 7.98698 15.9121 7.98127 15.9094 7.97713C15.9068 7.97287 15.9048 7.96908 15.9034 7.96621C15.9008 7.96064 15.8992 7.95596 15.8983 7.95324C15.8974 7.9503 15.8967 7.94785 15.8963 7.94618C15.8956 7.94293 15.8951 7.94037 15.8949 7.93913C15.8947 7.93773 15.8945 7.93663 15.8945 7.93602C15.8944 7.93537 15.8943 7.93489 15.8943 7.93464C15.8943 7.93438 15.8942 7.93422 15.8942 7.9342C15.8942 7.93417 15.8942 7.93421 15.8943 7.93435C15.8943 7.93449 15.8943 7.93467 15.8943 7.93494C15.8943 7.93528 15.8946 7.93845 15.8949 7.94127C15.895 7.94215 15.8952 7.94342 15.8954 7.94491C15.8956 7.94624 15.8959 7.94868 15.8966 7.95166C15.8969 7.95318 15.8974 7.95539 15.8981 7.95801C15.8987 7.96042 15.8999 7.96463 15.902 7.96968C15.903 7.97229 15.9046 7.97582 15.9067 7.97986C15.9088 7.98375 15.9121 7.98946 15.9171 7.99573C15.9219 8.00178 15.9303 8.01091 15.943 8.01895C15.9565 8.02745 15.9755 8.035 15.9985 8.035V7.82707ZM16.1001 7.90647C16.0969 7.88459 16.0926 7.86176 16.0862 7.83794L15.8853 7.89146C15.8892 7.90596 15.892 7.92071 15.8943 7.93645L16.1001 7.90647ZM15.9858 7.76074C15.9858 7.76074 15.9858 7.76074 15.9858 7.76074C15.9858 7.76074 15.9858 7.76074 15.9858 7.76074C15.9858 7.76074 15.9858 7.76074 15.9858 7.76074H15.9858C15.9858 7.76074 15.9858 7.76074 15.9858 7.76074C15.9858 7.76074 15.9858 7.76074 15.9858 7.76074C15.9858 7.76074 15.9858 7.76074 15.9858 7.76074H15.9858H15.9858C15.9858 7.76074 15.9858 7.76074 15.9858 7.76074C15.9858 7.76074 15.9858 7.76074 15.9858 7.76074C15.9858 7.76074 15.9858 7.76074 15.9858 7.76074H15.9858H15.9858C15.9858 7.76074 15.9858 7.76074 15.9858 7.76074C15.9858 7.76074 15.9858 7.76074 15.9858 7.76074C15.9858 7.76074 15.9858 7.76074 15.9858 7.76074H15.9858H15.9858C15.9858 7.76074 15.9858 7.76074 15.9858 7.76074C15.9858 7.76074 15.9858 7.76074 15.9858 7.76074C15.9858 7.76074 15.9858 7.76074 15.9858 7.76074H15.9858H15.9858C15.9857 7.76074 15.9857 7.76074 15.9857 7.76074C15.9857 7.76074 15.9857 7.76074 15.9857 7.76074C15.9857 7.76074 15.9857 7.76074 15.9857 7.76074C15.9857 7.76074 15.9857 7.76074 15.9857 7.76074H15.9857C15.9857 7.76074 15.9857 7.76074 15.9857 7.76074C15.9857 7.76074 15.9857 7.76074 15.9857 7.76074C15.9857 7.76074 15.9857 7.76074 15.9857 7.76074C15.9857 7.76074 15.9857 7.76074 15.9857 7.76074H15.9857H15.9857C15.9857 7.76074 15.9857 7.76074 15.9857 7.76074C15.9857 7.76074 15.9857 7.76074 15.9857 7.76074C15.9857 7.76074 15.9857 7.76074 15.9857 7.76074C15.9857 7.76074 15.9857 7.76074 15.9857 7.76074H15.9857H15.9857C15.9857 7.76074 15.9857 7.76074 15.9857 7.76074C15.9857 7.76074 15.9857 7.76074 15.9857 7.76074C15.9857 7.76074 15.9857 7.76074 15.9857 7.76074C15.9857 7.76074 15.9857 7.76074 15.9857 7.76074H15.9857H15.9857C15.9857 7.76074 15.9857 7.76074 15.9857 7.76074C15.9857 7.76074 15.9857 7.76074 15.9857 7.76074C15.9857 7.76074 15.9857 7.76074 15.9857 7.76074C15.9857 7.76074 15.9857 7.76074 15.9857 7.76074C15.9857 7.76074 15.9857 7.76074 15.9857 7.76074H15.9857H15.9857C15.9857 7.76074 15.9857 7.76074 15.9857 7.76074C15.9857 7.76074 15.9857 7.76074 15.9857 7.76074C15.9857 7.76074 15.9857 7.76074 15.9857 7.76074C15.9857 7.76074 15.9857 7.76074 15.9857 7.76074C15.9857 7.76074 15.9857 7.76074 15.9857 7.76074C15.9857 7.76074 15.9857 7.76074 15.9857 7.76074H15.9857H15.9857H15.9857C15.9857 7.76074 15.9857 7.76074 15.9857 7.76074C15.9857 7.76074 15.9857 7.76074 15.9857 7.76074C15.9857 7.76074 15.9857 7.76074 15.9857 7.76074C15.9857 7.76074 15.9857 7.76074 15.9857 7.76074C15.9857 7.76074 15.9857 7.76074 15.9857 7.76074C15.9857 7.76074 15.9857 7.76074 15.9857 7.76074C15.9857 7.76074 15.9857 7.76074 15.9857 7.76074H15.9857H15.9857H15.9857H15.9857H15.9857C15.9857 7.76074 15.9857 7.76074 15.9857 7.76074C15.9857 7.76074 15.9857 7.76074 15.9857 7.76074C15.9857 7.76074 15.9857 7.76074 15.9857 7.76074C15.9857 7.76074 15.9857 7.76074 15.9857 7.76074C15.9857 7.76074 15.9857 7.76074 15.9857 7.76074C15.9857 7.76074 15.9857 7.76074 15.9857 7.76074C15.9857 7.76074 15.9857 7.76074 15.9857 7.76074C15.9857 7.76074 15.9857 7.76074 15.9857 7.76074C15.9857 7.76074 15.9857 7.76074 15.9857 7.76074C15.9857 7.76074 15.9857 7.76074 15.9857 7.76074C15.9857 7.76074 15.9857 7.76074 15.9857 7.76074C15.9857 7.76074 15.9857 7.76074 15.9857 7.76074C15.9857 7.76074 15.9857 7.76074 15.9857 7.76074C15.9857 7.76074 15.9857 7.76074 15.9857 7.76074C15.9857 7.76074 15.9857 7.76074 15.9857 7.76074C15.9857 7.76074 15.9857 7.76074 15.9857 7.76074C15.9857 7.76074 15.9857 7.76074 15.9857 7.76074C15.9857 7.76074 15.9857 7.76074 15.9857 7.76074C15.9857 7.76074 15.9857 7.76074 15.9857 7.76074C15.9857 7.76074 15.9857 7.76074 15.9857 7.76074C15.9857 7.76074 15.9857 7.76074 15.9857 7.76074H15.9857H15.9857H15.9857H15.9857C15.9857 7.76074 15.9857 7.76074 15.9857 7.76074C15.9857 7.76074 15.9857 7.76074 15.9857 7.76074C15.9857 7.76074 15.9857 7.76074 15.9857 7.76074C15.9857 7.76074 15.9857 7.76074 15.9857 7.76074C15.9857 7.76074 15.9857 7.76074 15.9857 7.76074C15.9857 7.76074 15.9857 7.76074 15.9857 7.76074H15.9857H15.9857C15.9857 7.76074 15.9857 7.76074 15.9857 7.76074C15.9857 7.76074 15.9857 7.76074 15.9857 7.76074C15.9857 7.76074 15.9857 7.76074 15.9857 7.76074C15.9857 7.76074 15.9857 7.76074 15.9857 7.76074H15.9857H15.9857C15.9857 7.76074 15.9857 7.76074 15.9857 7.76074C15.9857 7.76074 15.9857 7.76074 15.9857 7.76074C15.9857 7.76074 15.9857 7.76074 15.9857 7.76074H15.9857C15.9857 7.76074 15.9857 7.76074 15.9857 7.76074C15.9857 7.76074 15.9857 7.76074 15.9857 7.76074C15.9857 7.76074 15.9857 7.76074 15.9857 7.76074H15.9857C15.9857 7.76074 15.9857 7.76074 15.9857 7.76074C15.9857 7.76074 15.9857 7.76074 15.9857 7.76074H15.9857C15.9857 7.76074 15.9857 7.76074 15.9856 7.76074C15.9856 7.76074 15.9856 7.76074 15.9856 7.76074H15.9856C15.9856 7.76074 15.9856 7.76074 15.9856 7.76074H15.9856C15.9856 7.76074 15.9856 7.76074 15.9856 7.76074C15.9856 7.76074 15.9856 7.76074 15.9856 7.76074H15.9856C15.9856 7.76074 15.9856 7.76074 15.9856 7.76074H15.9856C15.9856 7.76074 15.9856 7.76074 15.9856 7.76074H15.9856C15.9856 7.76074 15.9856 7.76074 15.9856 7.76074H15.9856C15.9856 7.76074 15.9856 7.76074 15.9856 7.76074C15.9856 7.76074 15.9856 7.76074 15.9856 7.76074H15.9856C15.9856 7.76074 15.9856 7.76074 15.9856 7.76074C15.9856 7.76074 15.9856 7.76074 15.9856 7.76074H15.9856C15.9856 7.76074 15.9856 7.76074 15.9856 7.76074C15.9856 7.76074 15.9856 7.76074 15.9856 7.76074H15.9856H15.9856C15.9856 7.76074 15.9856 7.76074 15.9856 7.76074C15.9856 7.76074 15.9856 7.76074 15.9856 7.76074C15.9856 7.76074 15.9856 7.76074 15.9856 7.76074C15.9856 7.76074 15.9856 7.76074 15.9856 7.76074C15.9856 7.76074 15.9856 7.76074 15.9856 7.76074H15.9856H15.9856C15.9856 7.76074 15.9856 7.76074 15.9856 7.76074C15.9856 7.76074 15.9856 7.76074 15.9856 7.76074C15.9856 7.76074 15.9856 7.76074 15.9856 7.76074C15.9856 7.76074 15.9856 7.76074 15.9856 7.76074C15.9856 7.76074 15.9856 7.76074 15.9856 7.76074H15.9856C15.9856 7.76074 15.9856 7.76074 15.9856 7.76074C15.9856 7.76074 15.9856 7.76074 15.9856 7.76074H15.9856C15.9856 7.76074 15.9856 7.76074 15.9856 7.76074H15.9856C15.9856 7.76074 15.9856 7.76074 15.9856 7.76074C15.9856 7.76074 15.9856 7.76074 15.9856 7.76074C15.9856 7.76074 15.9856 7.76074 15.9856 7.76074H15.9856H15.9856H15.9856C15.9856 7.76074 15.9856 7.76074 15.9856 7.76074C15.9856 7.76074 15.9856 7.76074 15.9856 7.76074H15.9856C15.9856 7.76074 15.9856 7.76074 15.9856 7.76074C15.9856 7.76074 15.9856 7.76074 15.9856 7.76074C15.9856 7.76074 15.9856 7.76074 15.9856 7.76074C15.9856 7.76074 15.9856 7.76074 15.9856 7.76074H15.9856C15.9856 7.76074 15.9856 7.76074 15.9856 7.76074C15.9856 7.76074 15.9856 7.76074 15.9856 7.76074C15.9856 7.76074 15.9856 7.76074 15.9856 7.76074C15.9856 7.76074 15.9856 7.76074 15.9856 7.76074C15.9856 7.76074 15.9856 7.76074 15.9856 7.76074C15.9856 7.76074 15.9856 7.76074 15.9856 7.76074H15.9856C15.9856 7.76074 15.9856 7.76074 15.9856 7.76074C15.9856 7.76074 15.9856 7.76074 15.9856 7.8647C15.9856 7.96866 15.9856 7.96866 15.9856 7.96866C15.9856 7.96866 15.9856 7.96866 15.9856 7.96866H15.9856C15.9856 7.96866 15.9856 7.96866 15.9856 7.96866C15.9856 7.96866 15.9856 7.96866 15.9856 7.96866C15.9856 7.96866 15.9856 7.96866 15.9856 7.96866C15.9856 7.96866 15.9856 7.96866 15.9856 7.96866C15.9856 7.96866 15.9856 7.96866 15.9856 7.96866C15.9856 7.96866 15.9856 7.96866 15.9856 7.96866H15.9856C15.9856 7.96866 15.9856 7.96866 15.9856 7.96866C15.9856 7.96866 15.9856 7.96866 15.9856 7.96866C15.9856 7.96866 15.9856 7.96866 15.9856 7.96866C15.9856 7.96866 15.9856 7.96866 15.9856 7.96866H15.9856C15.9856 7.96866 15.9856 7.96866 15.9856 7.96866C15.9856 7.96866 15.9856 7.96866 15.9856 7.96866H15.9856H15.9856H15.9856C15.9856 7.96866 15.9856 7.96866 15.9856 7.96866C15.9856 7.96866 15.9856 7.96866 15.9856 7.96866C15.9856 7.96866 15.9856 7.96866 15.9856 7.96866H15.9856C15.9856 7.96866 15.9856 7.96866 15.9856 7.96866H15.9856C15.9856 7.96866 15.9856 7.96866 15.9856 7.96866C15.9856 7.96866 15.9856 7.96866 15.9856 7.96866H15.9856C15.9856 7.96866 15.9856 7.96866 15.9856 7.96866C15.9856 7.96866 15.9856 7.96866 15.9856 7.96866C15.9856 7.96866 15.9856 7.96866 15.9856 7.96866C15.9856 7.96866 15.9856 7.96866 15.9856 7.96866C15.9856 7.96866 15.9856 7.96866 15.9856 7.96866H15.9856H15.9856C15.9856 7.96866 15.9856 7.96866 15.9856 7.96866C15.9856 7.96866 15.9856 7.96866 15.9856 7.96866C15.9856 7.96866 15.9856 7.96866 15.9856 7.96866C15.9856 7.96866 15.9856 7.96866 15.9856 7.96866C15.9856 7.96866 15.9856 7.96866 15.9856 7.96866H15.9856H15.9856C15.9856 7.96866 15.9856 7.96866 15.9856 7.96866C15.9856 7.96866 15.9856 7.96866 15.9856 7.96866H15.9856C15.9856 7.96866 15.9856 7.96866 15.9856 7.96866C15.9856 7.96866 15.9856 7.96866 15.9856 7.96866H15.9856C15.9856 7.96866 15.9856 7.96866 15.9856 7.96866C15.9856 7.96866 15.9856 7.96866 15.9856 7.96866H15.9856C15.9856 7.96866 15.9856 7.96866 15.9856 7.96866H15.9856C15.9856 7.96866 15.9856 7.96866 15.9856 7.96866H15.9856C15.9856 7.96866 15.9856 7.96866 15.9856 7.96866H15.9856C15.9856 7.96866 15.9856 7.96866 15.9856 7.96866C15.9856 7.96866 15.9856 7.96866 15.9856 7.96866H15.9856C15.9856 7.96866 15.9856 7.96866 15.9856 7.96866H15.9856C15.9856 7.96866 15.9856 7.96866 15.9856 7.96866C15.9857 7.96866 15.9857 7.96866 15.9857 7.96866H15.9857C15.9857 7.96866 15.9857 7.96866 15.9857 7.96866C15.9857 7.96866 15.9857 7.96866 15.9857 7.96866H15.9857C15.9857 7.96866 15.9857 7.96866 15.9857 7.96866C15.9857 7.96866 15.9857 7.96866 15.9857 7.96866C15.9857 7.96866 15.9857 7.96866 15.9857 7.96866H15.9857C15.9857 7.96866 15.9857 7.96866 15.9857 7.96866C15.9857 7.96866 15.9857 7.96866 15.9857 7.96866C15.9857 7.96866 15.9857 7.96866 15.9857 7.96866H15.9857H15.9857C15.9857 7.96866 15.9857 7.96866 15.9857 7.96866C15.9857 7.96866 15.9857 7.96866 15.9857 7.96866C15.9857 7.96866 15.9857 7.96866 15.9857 7.96866C15.9857 7.96866 15.9857 7.96866 15.9857 7.96866H15.9857H15.9857C15.9857 7.96866 15.9857 7.96866 15.9857 7.96866C15.9857 7.96866 15.9857 7.96866 15.9857 7.96866C15.9857 7.96866 15.9857 7.96866 15.9857 7.96866C15.9857 7.96866 15.9857 7.96866 15.9857 7.96866C15.9857 7.96866 15.9857 7.96866 15.9857 7.96866C15.9857 7.96866 15.9857 7.96866 15.9857 7.96866H15.9857H15.9857H15.9857H15.9857C15.9857 7.96866 15.9857 7.96866 15.9857 7.96866C15.9857 7.96866 15.9857 7.96866 15.9857 7.96866C15.9857 7.96866 15.9857 7.96866 15.9857 7.96866C15.9857 7.96866 15.9857 7.96866 15.9857 7.96866C15.9857 7.96866 15.9857 7.96866 15.9857 7.96866C15.9857 7.96866 15.9857 7.96866 15.9857 7.96866C15.9857 7.96866 15.9857 7.96866 15.9857 7.96866C15.9857 7.96866 15.9857 7.96866 15.9857 7.96866C15.9857 7.96866 15.9857 7.96866 15.9857 7.96866C15.9857 7.96866 15.9857 7.96866 15.9857 7.96866C15.9857 7.96866 15.9857 7.96866 15.9857 7.96866C15.9857 7.96866 15.9857 7.96866 15.9857 7.96866C15.9857 7.96866 15.9857 7.96866 15.9857 7.96866C15.9857 7.96866 15.9857 7.96866 15.9857 7.96866C15.9857 7.96866 15.9857 7.96866 15.9857 7.96866C15.9857 7.96866 15.9857 7.96866 15.9857 7.96866C15.9857 7.96866 15.9857 7.96866 15.9857 7.96866C15.9857 7.96866 15.9857 7.96866 15.9857 7.96866C15.9857 7.96866 15.9857 7.96866 15.9857 7.96866C15.9857 7.96866 15.9857 7.96866 15.9857 7.96866C15.9857 7.96866 15.9857 7.96866 15.9857 7.96866H15.9857H15.9857H15.9857H15.9857H15.9857C15.9857 7.96866 15.9857 7.96866 15.9857 7.96866C15.9857 7.96866 15.9857 7.96866 15.9857 7.96866C15.9857 7.96866 15.9857 7.96866 15.9857 7.96866C15.9857 7.96866 15.9857 7.96866 15.9857 7.96866C15.9857 7.96866 15.9857 7.96866 15.9857 7.96866C15.9857 7.96866 15.9857 7.96866 15.9857 7.96866C15.9857 7.96866 15.9857 7.96866 15.9857 7.96866H15.9857H15.9857H15.9857C15.9857 7.96866 15.9857 7.96866 15.9857 7.96866C15.9857 7.96866 15.9857 7.96866 15.9857 7.96866C15.9857 7.96866 15.9857 7.96866 15.9857 7.96866C15.9857 7.96866 15.9857 7.96866 15.9857 7.96866C15.9857 7.96866 15.9857 7.96866 15.9857 7.96866C15.9857 7.96866 15.9857 7.96866 15.9857 7.96866H15.9857H15.9857C15.9857 7.96866 15.9857 7.96866 15.9857 7.96866C15.9857 7.96866 15.9857 7.96866 15.9857 7.96866C15.9857 7.96866 15.9857 7.96866 15.9857 7.96866C15.9857 7.96866 15.9857 7.96866 15.9857 7.96866C15.9857 7.96866 15.9857 7.96866 15.9857 7.96866H15.9857H15.9857C15.9857 7.96866 15.9857 7.96866 15.9857 7.96866C15.9857 7.96866 15.9857 7.96866 15.9857 7.96866C15.9857 7.96866 15.9857 7.96866 15.9857 7.96866C15.9857 7.96866 15.9857 7.96866 15.9857 7.96866H15.9857H15.9857C15.9857 7.96866 15.9857 7.96866 15.9857 7.96866C15.9857 7.96866 15.9857 7.96866 15.9857 7.96866C15.9857 7.96866 15.9857 7.96866 15.9857 7.96866C15.9857 7.96866 15.9857 7.96866 15.9857 7.96866H15.9857H15.9857C15.9857 7.96866 15.9857 7.96866 15.9857 7.96866C15.9857 7.96866 15.9857 7.96866 15.9857 7.96866C15.9857 7.96866 15.9857 7.96866 15.9857 7.96866C15.9857 7.96866 15.9857 7.96866 15.9857 7.96866H15.9857C15.9857 7.96866 15.9857 7.96866 15.9857 7.96866C15.9857 7.96866 15.9857 7.96866 15.9857 7.96866C15.9857 7.96866 15.9857 7.96866 15.9857 7.96866C15.9857 7.96866 15.9857 7.96866 15.9858 7.96866H15.9858H15.9858C15.9858 7.96866 15.9858 7.96866 15.9858 7.96866C15.9858 7.96866 15.9858 7.96866 15.9858 7.96866C15.9858 7.96866 15.9858 7.96866 15.9858 7.96866H15.9858H15.9858C15.9858 7.96866 15.9858 7.96866 15.9858 7.96866C15.9858 7.96866 15.9858 7.96866 15.9858 7.96866C15.9858 7.96866 15.9858 7.96866 15.9858 7.96866H15.9858H15.9858C15.9858 7.96866 15.9858 7.96866 15.9858 7.96866C15.9858 7.96866 15.9858 7.96866 15.9858 7.96866C15.9858 7.96866 15.9858 7.96866 15.9858 7.96866H15.9858H15.9858C15.9858 7.96866 15.9858 7.96866 15.9858 7.96866C15.9858 7.96866 15.9858 7.96866 15.9858 7.96866C15.9858 7.96866 15.9858 7.96866 15.9858 7.96866H15.9858C15.9858 7.96866 15.9858 7.96866 15.9858 7.96866C15.9858 7.96866 15.9858 7.96866 15.9858 7.96866C15.9858 7.96866 15.9858 7.96866 15.9858 7.96866V7.76074ZM16.0863 7.83904C16.0804 7.81561 16.073 7.79343 16.0654 7.7726L15.87 7.84351C15.8762 7.86076 15.8812 7.87595 15.8848 7.89036L16.0863 7.83904ZM15.9677 7.70409C15.988 7.70409 16.0046 7.71001 16.0162 7.71618C16.0274 7.72213 16.0352 7.72895 16.0399 7.73356C16.0447 7.73832 16.0482 7.74267 16.0503 7.74559C16.0525 7.74861 16.0542 7.75121 16.0552 7.75298C16.0573 7.75635 16.0585 7.75896 16.0589 7.75959C16.0592 7.76029 16.0595 7.76087 16.059 7.75997C16.0589 7.75955 16.058 7.75775 16.0571 7.75579C16.0561 7.75392 16.0542 7.75014 16.0515 7.74573C16.0501 7.74344 16.0481 7.74036 16.0455 7.73691C16.0429 7.73356 16.039 7.72887 16.0338 7.72386C16.0286 7.71899 16.0204 7.7122 16.009 7.7064C15.9972 7.7004 15.981 7.69498 15.9615 7.69498V7.9029C15.9422 7.9029 15.9262 7.89756 15.9147 7.89169C15.9036 7.88602 15.8956 7.87943 15.8908 7.8748C15.8857 7.87005 15.8821 7.86566 15.8799 7.86265C15.8775 7.85955 15.8758 7.85687 15.8746 7.855C15.8724 7.85144 15.871 7.84866 15.8706 7.84786C15.8702 7.84696 15.8699 7.84631 15.8702 7.84702C15.8703 7.84726 15.8711 7.84898 15.872 7.85075C15.8728 7.85245 15.8746 7.85606 15.8771 7.86028C15.8785 7.86248 15.8804 7.86546 15.8829 7.86883C15.8853 7.87209 15.889 7.87675 15.894 7.88176C15.899 7.88662 15.9071 7.89364 15.9185 7.89972C15.9303 7.90602 15.9471 7.91201 15.9677 7.91201V7.70409ZM16.0615 7.7705C16.0518 7.73639 16.0391 7.71666 16.0289 7.70177L15.8578 7.81997C15.8607 7.82417 15.8606 7.82416 15.8603 7.82362C15.8599 7.82279 15.8604 7.82348 15.8615 7.82738L16.0615 7.7705ZM16.043 7.73135C16.0409 7.72438 16.0384 7.71755 16.0352 7.71077C16.0321 7.70417 16.029 7.69917 16.028 7.69751C16.0268 7.69554 16.0283 7.69789 16.0297 7.70063C16.0314 7.70391 16.0325 7.70688 16.0333 7.70914L15.836 7.77477C15.8383 7.7817 15.841 7.78817 15.8441 7.79438C15.847 7.80005 15.8499 7.80475 15.8501 7.80514C15.8506 7.80585 15.8489 7.80323 15.8472 7.79961C15.8454 7.79582 15.8443 7.79258 15.8437 7.79039L16.043 7.73135ZM15.9346 7.63799C15.931 7.63799 15.95 7.63689 15.9703 7.6446C15.9954 7.65413 16.0112 7.67115 16.0199 7.68479C16.0272 7.69619 16.0301 7.70603 16.0309 7.70873C16.032 7.71235 16.0323 7.71457 16.0322 7.71409L15.8276 7.75089C15.8281 7.75399 15.8314 7.77597 15.8447 7.79675C15.8541 7.81157 15.8707 7.82919 15.8965 7.83901C15.908 7.84334 15.918 7.84486 15.9245 7.84546C15.9278 7.84576 15.9304 7.84585 15.932 7.84589C15.9328 7.8459 15.9335 7.84591 15.9339 7.84591C15.9343 7.84591 15.9346 7.84591 15.9346 7.84591V7.63799ZM16.0139 7.67122C16.005 7.65906 15.9958 7.64772 15.988 7.63823L15.8272 7.76999C15.8349 7.77943 15.8408 7.78678 15.8459 7.79376L16.0139 7.67122ZM15.9076 7.60015C15.9042 7.60015 15.9257 7.59881 15.9484 7.60878C15.9748 7.62037 15.9893 7.63967 15.9963 7.65216C16.0024 7.6631 16.0048 7.67227 16.0054 7.67461C16.0062 7.67788 16.0064 7.67981 16.0064 7.67924L15.8007 7.71006C15.8012 7.71333 15.8037 7.73377 15.8149 7.7537C15.8225 7.76737 15.8377 7.78726 15.8648 7.79915C15.8772 7.80459 15.8883 7.80663 15.896 7.80746C15.8997 7.80786 15.9027 7.80798 15.9046 7.80803C15.9055 7.80806 15.9063 7.80807 15.9068 7.80807C15.907 7.80807 15.9072 7.80807 15.9074 7.80807C15.9075 7.80807 15.9076 7.80807 15.9076 7.80807V7.60015ZM15.968 7.61312C15.9709 7.61537 15.9719 7.61663 15.9702 7.61484C15.9685 7.61302 15.9668 7.61114 15.9629 7.60671C15.9596 7.60305 15.9547 7.59751 15.9491 7.59193C15.9436 7.58642 15.9356 7.57892 15.9254 7.57181L15.806 7.74203C15.8026 7.7396 15.8011 7.73798 15.8021 7.73897C15.803 7.73987 15.8045 7.74143 15.8075 7.74486C15.8099 7.74753 15.8145 7.75275 15.8189 7.75741C15.8233 7.76212 15.8303 7.76925 15.839 7.77618L15.968 7.61312ZM15.8657 7.55296C15.8826 7.55296 15.8968 7.55707 15.9075 7.56184C15.918 7.56647 15.9257 7.57199 15.9307 7.57614C15.9359 7.58036 15.9397 7.58433 15.9422 7.58716C15.9447 7.59005 15.9467 7.59258 15.948 7.59437C15.9504 7.59775 15.952 7.60042 15.9524 7.60109C15.9528 7.6018 15.9532 7.60242 15.9526 7.60143C15.9523 7.60095 15.9513 7.59903 15.95 7.59692C15.9488 7.59488 15.9464 7.59094 15.943 7.58642C15.9412 7.58407 15.9388 7.58104 15.9357 7.57771C15.9326 7.57444 15.9283 7.57017 15.9227 7.56577C15.9171 7.56141 15.909 7.55603 15.8984 7.55163C15.8876 7.54712 15.8739 7.5435 15.8579 7.5435V7.75142C15.8423 7.75142 15.8288 7.74788 15.8184 7.74351C15.8081 7.73925 15.8004 7.73407 15.7951 7.72997C15.7898 7.72583 15.7858 7.72188 15.7831 7.71896C15.7804 7.716 15.7783 7.71337 15.7768 7.71146C15.7741 7.70783 15.7723 7.70492 15.7718 7.704C15.7712 7.70299 15.7708 7.70226 15.7712 7.70296C15.7713 7.70315 15.7723 7.70495 15.7733 7.70677C15.7744 7.70855 15.7766 7.71225 15.7797 7.71652C15.7813 7.71875 15.7836 7.72169 15.7865 7.72494C15.7893 7.72813 15.7934 7.73241 15.7989 7.73689C15.8042 7.7413 15.8123 7.74702 15.823 7.7518C15.834 7.7567 15.8486 7.76088 15.8657 7.76088V7.55296ZM15.9243 7.56748C15.9111 7.55655 15.8978 7.54618 15.8847 7.53625L15.7591 7.70192C15.7709 7.7109 15.7816 7.71923 15.7915 7.72745L15.9243 7.56748ZM15.8219 7.51512C15.8477 7.51512 15.8668 7.52466 15.8772 7.53143C15.8826 7.53493 15.8868 7.53839 15.8898 7.5411C15.8928 7.54383 15.8952 7.54631 15.8969 7.54816C15.9 7.5517 15.9021 7.55457 15.9028 7.55547C15.9034 7.55639 15.9039 7.55714 15.9033 7.55623C15.903 7.55584 15.9017 7.55385 15.9002 7.5517C15.8986 7.54959 15.8957 7.5456 15.8916 7.5411C15.8894 7.53876 15.8866 7.53585 15.8831 7.53275C15.8796 7.52967 15.875 7.52593 15.8691 7.52222C15.8577 7.51498 15.8381 7.50566 15.8122 7.50566V7.71358C15.7872 7.71358 15.7684 7.70456 15.7578 7.69784C15.7524 7.69439 15.7481 7.69096 15.7451 7.68824C15.742 7.6855 15.7396 7.683 15.7378 7.68111C15.7346 7.67749 15.7324 7.67454 15.7317 7.67353C15.7309 7.67249 15.7304 7.67168 15.7309 7.67248C15.7311 7.67274 15.7324 7.67468 15.7338 7.6767C15.7353 7.67872 15.7382 7.68262 15.7421 7.68704C15.7442 7.68934 15.7469 7.69223 15.7504 7.69532C15.7538 7.69839 15.7584 7.70217 15.7642 7.70593C15.7754 7.71321 15.7953 7.72304 15.8219 7.72304V7.51512ZM15.8634 7.51913C15.8651 7.52008 15.8651 7.52029 15.8627 7.51844C15.8602 7.5165 15.8575 7.51433 15.8525 7.51024C15.8451 7.5042 15.8283 7.4901 15.8083 7.47968L15.7123 7.66411C15.7104 7.66313 15.7101 7.66277 15.7121 7.66421C15.7141 7.66566 15.7166 7.66765 15.7209 7.6712C15.7246 7.67418 15.7305 7.6791 15.7365 7.68366C15.7426 7.68832 15.751 7.69444 15.7611 7.70011L15.8634 7.51913ZM15.8116 7.48147L8.8814 3.55003L8.7788 3.73087L15.709 7.66232L15.8116 7.48147ZM8.88552 3.72841L12.8756 1.21435L12.7648 1.03843L8.77468 3.55249L8.88552 3.72841ZM12.7689 1.21679L19.4583 5.01591L19.561 4.83511L12.8716 1.03599L12.7689 1.21679ZM19.4542 4.83758L16.6369 6.61457L16.7479 6.79043L19.5651 5.01344L19.4542 4.83758ZM16.6388 6.6134C16.3676 6.77643 16.2882 7.13532 16.4573 7.40083L16.6327 7.28912C16.5249 7.11993 16.5773 6.89298 16.746 6.7916L16.6388 6.6134ZM16.4562 7.39909C16.6248 7.67559 16.9806 7.75712 17.25 7.58361L17.1374 7.40882C16.9669 7.51866 16.7419 7.4682 16.6337 7.29085L16.4562 7.39909ZM17.2491 7.58419L20.7312 5.39165L20.6204 5.2157L17.1383 7.40824L17.2491 7.58419ZM20.7298 5.39253C20.9029 5.28738 21.004 5.09121 20.9994 4.8948L20.7915 4.89969C20.7945 5.02491 20.7287 5.14991 20.6218 5.21483L20.7298 5.39253ZM20.9994 4.89494C20.9948 4.68961 20.8854 4.50252 20.7059 4.40824L20.6092 4.59231C20.7174 4.64915 20.7885 4.76479 20.7915 4.89956L20.9994 4.89494ZM20.709 4.40994L13.0918 0.0719387L12.9889 0.252615L20.6061 4.59061L20.709 4.40994ZM13.0914 0.0717283C12.9052 -0.0333199 12.6782 -0.0202627 12.5009 0.0940399L12.6135 0.268808C12.7297 0.193925 12.874 0.187816 12.9893 0.252825L13.0914 0.0717283ZM12.5019 0.0933878L7.61179 3.16478L7.72238 3.34085L12.6125 0.269461L12.5019 0.0933878ZM7.66709 3.14886C7.64449 3.14886 7.62612 3.1561 7.61335 3.16379C7.60116 3.17114 7.59297 3.17948 7.58818 3.18502C7.58321 3.19079 7.57977 3.19606 7.57759 3.1997C7.57534 3.20347 7.57367 3.20679 7.57252 3.20926C7.57029 3.21405 7.56884 3.21808 7.56806 3.22041C7.5672 3.22295 7.56657 3.2251 7.56616 3.2266C7.56536 3.22949 7.5648 3.23195 7.56453 3.23317C7.56423 3.23449 7.56397 3.23574 7.56388 3.2362C7.56372 3.23693 7.56374 3.23685 7.56378 3.23664C7.56381 3.23653 7.56412 3.23511 7.56468 3.2331C7.56497 3.23205 7.56547 3.2303 7.56621 3.22812C7.56687 3.22615 7.56819 3.22244 7.57031 3.2179C7.5714 3.21557 7.573 3.21236 7.5752 3.20869C7.57731 3.20516 7.5807 3.19997 7.58561 3.19427C7.59033 3.1888 7.59847 3.18051 7.6106 3.1732C7.62331 3.16554 7.64162 3.15832 7.66416 3.15832V3.36624C7.68675 3.36624 7.70512 3.35899 7.71789 3.3513C7.73008 3.34396 7.73828 3.33562 7.74306 3.33007C7.74803 3.32431 7.75148 3.31903 7.75365 3.3154C7.75591 3.31162 7.75757 3.30831 7.75872 3.30584C7.76096 3.30105 7.7624 3.29701 7.76319 3.29469C7.76404 3.29215 7.76467 3.28999 7.76508 3.2885C7.76588 3.28561 7.76644 3.28315 7.76671 3.28193C7.76701 3.28061 7.76727 3.27935 7.76737 3.2789C7.76752 3.27817 7.7675 3.27824 7.76746 3.27845C7.76743 3.27857 7.76712 3.27999 7.76657 3.28199C7.76628 3.28305 7.76577 3.2848 7.76504 3.28697C7.76437 3.28894 7.76305 3.29266 7.76093 3.29719C7.75984 3.29953 7.75824 3.30273 7.75604 3.3064C7.75393 3.30994 7.75055 3.31513 7.74563 3.32082C7.74091 3.3263 7.73278 3.33459 7.72064 3.3419C7.70793 3.34955 7.68962 3.35678 7.66709 3.35678V3.14886ZM7.60896 3.17418L5.16536 4.70532L5.27576 4.88151L7.71936 3.35037L7.60896 3.17418ZM5.11736 4.7809C5.11728 4.78151 5.11745 4.77984 5.11809 4.7769C5.11852 4.77487 5.12034 4.76648 5.12533 4.7562C5.13058 4.74539 5.14345 4.72408 5.17041 4.71019C5.19559 4.69723 5.22005 4.69881 5.21716 4.69881V4.90673C5.21716 4.90673 5.2172 4.90673 5.21724 4.90673C5.21728 4.90673 5.21734 4.90673 5.21742 4.90673C5.21757 4.90673 5.21781 4.90673 5.2181 4.90672C5.21867 4.90672 5.21959 4.90671 5.22071 4.90667C5.22293 4.9066 5.2265 4.90642 5.23085 4.90586C5.24004 4.90468 5.25238 4.90185 5.2656 4.89505C5.29314 4.88087 5.30657 4.85897 5.31238 4.847C5.3215 4.82821 5.32334 4.80946 5.32376 4.80594L5.11736 4.7809ZM5.16176 4.71479L0.268429 7.79587L0.379215 7.97182L5.27255 4.89074L5.16176 4.71479ZM0.269872 7.79498C0.0975508 7.89959 -0.00434118 8.08577 0.000250449 8.29259L0.208121 8.28797C0.205152 8.15424 0.269972 8.03816 0.377771 7.97271L0.269872 7.79498ZM0.000252253 8.29266C0.00479679 8.49053 0.115614 8.67398 0.289065 8.77652L0.39487 8.59753C0.280639 8.53 0.210946 8.41098 0.208119 8.28789L0.000252253 8.29266ZM0.290605 8.77741L7.90794 13.1059L8.01067 12.9252L0.393329 8.59663L0.290605 8.77741ZM7.90253 13.1027C7.99429 13.1625 8.09493 13.1856 8.19179 13.1856V12.9777C8.12837 12.9777 8.06872 12.9628 8.01607 12.9285L7.90253 13.1027ZM8.19179 13.1856C8.30129 13.1856 8.40702 13.1501 8.49712 13.0944L8.38773 12.9176C8.32492 12.9564 8.25657 12.9777 8.19179 12.9777V13.1856ZM8.49782 13.094L11.98 10.9014L11.8692 10.7255L8.38704 12.918L8.49782 13.094ZM11.9809 10.9008C12.2482 10.7284 12.3286 10.3821 12.1607 10.1073L11.9833 10.2157C12.0924 10.3943 12.0406 10.6149 11.8682 10.7261L11.9809 10.9008ZM12.1597 10.1057C11.9907 9.83984 11.6356 9.75896 11.3669 9.93239L11.4797 10.1071C11.6507 9.9967 11.8766 10.048 11.9843 10.2173L12.1597 10.1057ZM11.3679 9.93175L8.12405 11.973L8.23479 12.149L11.4787 10.1077L11.3679 9.93175ZM8.23076 11.9706L1.5413 8.1715L1.43862 8.3523L8.12808 12.1514L8.23076 11.9706ZM1.54538 8.34986L5.5356 5.83592L5.42477 5.66L1.43455 8.17394L1.54538 8.34986ZM5.42882 5.83835L12.5634 9.89254L12.6661 9.71176L5.53154 5.65757L5.42882 5.83835ZM12.5108 9.80215V15.1705H12.7187V9.80215H12.5108ZM12.5108 15.1705C12.5108 15.378 12.6241 15.5729 12.8064 15.6764L12.9091 15.4956C12.7916 15.4289 12.7187 15.3028 12.7187 15.1705H12.5108ZM12.8088 15.6777C12.8951 15.7238 12.9904 15.7466 13.0851 15.7466V15.5387C13.0236 15.5387 12.9621 15.5239 12.9067 15.4943L12.8088 15.6777ZM13.0851 15.7466C13.1946 15.7466 13.3003 15.7113 13.3904 15.6557L13.2811 15.4788C13.2185 15.5175 13.1501 15.5387 13.0851 15.5387V15.7466ZM13.3912 15.6552L15.8379 14.1146L15.7271 13.9387L13.2804 15.4793L13.3912 15.6552ZM15.8374 14.1149C16.005 14.0107 16.1062 13.826 16.1062 13.6298H15.8983C15.8983 13.755 15.8335 13.8725 15.7276 13.9383L15.8374 14.1149ZM16.1062 13.6298V7.98768H15.8983V13.6298H16.1062ZM16.0022 7.98768C16.1061 7.98257 16.1061 7.98257 16.1061 7.98257C16.1061 7.98257 16.1061 7.98257 16.1061 7.98257C16.1061 7.98257 16.1061 7.98256 16.1061 7.98256C16.1061 7.98256 16.1061 7.98256 16.1061 7.98255C16.1061 7.98255 16.1061 7.98254 16.1061 7.98252C16.1061 7.9825 16.1061 7.98247 16.1061 7.98243C16.1061 7.98234 16.106 7.98223 16.106 7.98208C16.106 7.9818 16.106 7.98139 16.106 7.9809C16.1059 7.97994 16.1059 7.97862 16.1058 7.97727C16.1057 7.976 16.1056 7.97439 16.1055 7.97296C16.1055 7.97236 16.1054 7.97115 16.1053 7.96984C16.1053 7.9694 16.1051 7.96765 16.1049 7.9655C16.1048 7.96484 16.1044 7.96159 16.1036 7.95753C16.1033 7.95619 16.1021 7.9502 16.0995 7.94288C16.0984 7.93991 16.0949 7.93047 16.0878 7.91988C16.0851 7.9159 16.0579 7.87415 16.0017 7.87415V8.08207C15.9728 8.08207 15.9511 8.07035 15.9385 8.0607C15.9265 8.05149 15.9192 8.04172 15.9155 8.03634C15.9084 8.02575 15.9049 8.01632 15.9039 8.01335C15.9012 8.00604 15.9 8.00007 15.8998 7.99875C15.899 7.99472 15.8986 7.99153 15.8985 7.99094C15.8983 7.98892 15.8981 7.98738 15.8981 7.9872C15.8981 7.98641 15.898 7.98595 15.898 7.98625C15.8981 7.98662 15.8981 7.9874 15.8982 7.98852C15.8982 7.98956 15.8983 7.99064 15.8983 7.99147C15.8983 7.99188 15.8984 7.99222 15.8984 7.99246C15.8984 7.99258 15.8984 7.99267 15.8984 7.99272C15.8984 7.99275 15.8984 7.99277 15.8984 7.99279C15.8984 7.99279 15.8984 7.9928 15.8984 7.9928C15.8984 7.9928 15.8984 7.9928 15.8984 7.9928C15.8984 7.9928 15.8984 7.9928 15.8984 7.9928V7.9928C15.8984 7.9928 15.8984 7.9928 16.0022 7.98768ZM16.1056 7.97654C16.1053 7.95317 16.1039 7.94003 16.102 7.92058L15.8951 7.94151C15.8969 7.95942 15.8975 7.96543 15.8977 7.97968L16.1056 7.97654ZM16.0688 7.85441L16.0688 7.8544L15.9283 8.00767L15.9283 8.00768L16.0688 7.85441Z" fill="#717171"/>
<path fill-rule="evenodd" clip-rule="evenodd" d="M20.175 7.33221L16.6927 9.52428C16.4729 9.65657 16.4069 9.94942 16.5452 10.1668C16.6347 10.3179 16.7875 10.3936 16.9438 10.3936C17.0294 10.3936 17.1162 10.3652 17.194 10.3179L20.6762 8.12587C20.8961 7.98412 20.9621 7.70061 20.8236 7.47385C20.6853 7.25654 20.3947 7.19045 20.175 7.33221Z" fill="#717171" stroke="#717171" stroke-width="0.2"/>
<path fill-rule="evenodd" clip-rule="evenodd" d="M11.4232 12.842L8.17931 14.883L0.806766 10.6971C0.581079 10.5648 0.293677 10.6405 0.165334 10.8672C0.0369905 11.094 0.115905 11.3869 0.341876 11.5097L7.9593 15.8374C8.03141 15.8845 8.11155 15.9035 8.19169 15.9035C8.27883 15.9035 8.36587 15.8751 8.44233 15.8279L11.9245 13.6357C12.1444 13.5034 12.2104 13.2105 12.0719 12.9932C11.9336 12.7665 11.6431 12.7003 11.4232 12.842Z" fill="#717171" stroke="#717171" stroke-width="0.2"/>
<path fill-rule="evenodd" clip-rule="evenodd" d="M20.175 10.1584L16.6927 12.3501C16.4729 12.4919 16.4069 12.7753 16.5452 13.0021C16.6347 13.1437 16.7875 13.2193 16.9438 13.2193C17.0294 13.2193 17.1162 13.191 17.194 13.1437L20.6762 10.9519C20.8961 10.8102 20.9621 10.5268 20.8236 10.3094C20.6853 10.0827 20.3947 10.0166 20.175 10.1584Z" fill="#717171" stroke="#717171" stroke-width="0.2"/>
<path fill-rule="evenodd" clip-rule="evenodd" d="M11.4232 15.6677L8.17931 17.7087L0.806766 13.5228C0.581079 13.3905 0.293677 13.4661 0.165334 13.6929C0.0369905 13.9197 0.115905 14.2125 0.341876 14.3353L7.9593 18.663C8.03141 18.7102 8.11155 18.7291 8.19169 18.7291C8.27883 18.7291 8.36587 18.7007 8.44233 18.6536L11.9245 16.4614C12.1444 16.3291 12.2104 16.0362 12.0719 15.8189C11.9336 15.5921 11.6431 15.5259 11.4232 15.6677Z" fill="#717171" stroke="#717171" stroke-width="0.2"/>
</svg>
