<svg width="27" height="27" viewBox="0 0 27 27" fill="none" xmlns="http://www.w3.org/2000/svg">
<path d="M21.1338 15.4386L24.1888 12.9906V23.272L21.1338 25.72V15.4386Z" fill="#FCAF17"/>
<path fill-rule="evenodd" clip-rule="evenodd" d="M15.5075 19.4887C15.4362 19.4402 15.3579 19.4015 15.2756 19.3728C15.1993 19.3341 15.1161 19.3074 15.0309 19.2955C14.8238 19.2539 14.6097 19.2638 14.4076 19.3253C14.2054 19.3857 14.0211 19.4947 13.8715 19.6433C13.6356 19.8901 13.5029 20.2171 13.4979 20.558C13.4959 20.7255 13.5266 20.8919 13.5881 21.0475C13.6584 21.2041 13.7536 21.3477 13.8715 21.4726C13.9963 21.5865 14.14 21.6777 14.2966 21.7431C14.4512 21.8114 14.6177 21.8462 14.7861 21.8462C14.9546 21.8462 15.1211 21.8114 15.2756 21.7431C15.4322 21.6777 15.5759 21.5865 15.7007 21.4726C15.8196 21.3527 15.9148 21.2099 15.9792 21.0524C16.0426 20.8958 16.0753 20.7274 16.0743 20.5579C16.0693 20.2171 15.9366 19.8901 15.7007 19.6433C15.6393 19.5879 15.5749 19.5363 15.5075 19.4887ZM23.8038 22.5205C23.8038 22.8624 23.668 23.1904 23.4262 23.4311C23.1844 23.673 22.8574 23.8087 22.5156 23.8087C22.1737 23.8087 21.8467 23.673 21.6049 23.4311C21.3631 23.1904 21.2274 22.8624 21.2274 22.5205V16.0795H23.8038L23.8038 22.5205ZM4.47956 23.8086C4.13767 23.8086 3.8107 23.6729 3.56888 23.431C3.3271 23.1903 3.19137 22.8623 3.19137 22.5204V4.13768L5.76781 5.60625C5.96697 5.71028 6.18794 5.76482 6.41189 5.76482C6.63584 5.76482 6.85684 5.71027 7.05597 5.60625L10.9206 3.3905L14.7852 5.60625C14.9844 5.71028 15.2054 5.76482 15.4294 5.76482C15.6533 5.76482 15.8742 5.71027 16.0734 5.60625L18.6499 4.13768V22.5204C18.6538 22.9604 18.7321 23.3954 18.8817 23.8086H4.47956ZM25.0915 13.5025H21.2269V1.90857C21.2279 1.6817 21.1684 1.45872 21.0555 1.26153C20.9425 1.06536 20.779 0.901817 20.5828 0.787915C20.3866 0.674865 20.1646 0.615432 19.9387 0.615432C19.7128 0.615432 19.4908 0.674865 19.2946 0.787915L15.43 3.00358L11.5653 0.787915C11.3691 0.674865 11.1472 0.615432 10.9212 0.615432C10.6953 0.615432 10.4733 0.674865 10.2772 0.787915L6.41252 3.00358L2.54792 0.787915C2.35171 0.674865 2.12974 0.615432 1.90377 0.615432C1.67783 0.615432 1.45586 0.674865 1.25969 0.787915C1.06348 0.901817 0.899968 1.06536 0.786995 1.26153C0.674022 1.45872 0.614589 1.6817 0.615569 1.90857V22.5199C0.615569 23.5456 1.02288 24.5276 1.74722 25.253C2.47256 25.9773 3.45559 26.3846 4.48021 26.3846H22.5151C23.5397 26.3846 24.5228 25.9773 25.2481 25.253C25.9725 24.5276 26.3798 23.5456 26.3798 22.5199V14.7907C26.3798 14.4488 26.244 14.1219 26.0022 13.88C25.7604 13.6382 25.4334 13.5025 25.0916 13.5025L25.0915 13.5025ZM12.1786 19.2697H7.05627C6.71442 19.2697 6.38741 19.4055 6.14562 19.6473C5.90384 19.8891 5.76811 20.2161 5.76811 20.5579C5.76811 20.8998 5.90384 21.2278 6.14562 21.4686C6.38741 21.7104 6.71442 21.8462 7.05627 21.8462H12.1786C12.5205 21.8462 12.8474 21.7104 13.0893 21.4686C13.331 21.2278 13.4668 20.8998 13.4668 20.5579C13.4668 20.2161 13.331 19.8891 13.0893 19.6473C12.8474 19.4055 12.5205 19.2697 12.1786 19.2697ZM15.1554 15.4751H7.05627C6.71442 15.4751 6.38741 15.6109 6.14562 15.8526C5.90384 16.0945 5.76811 16.4214 5.76811 16.7634C5.76811 17.1052 5.90384 17.4332 6.14562 17.674C6.38741 17.9158 6.71442 18.0515 7.05627 18.0515H15.1554C15.4973 18.0515 15.8243 17.9158 16.0661 17.674C16.3078 17.4332 16.4436 17.1052 16.4436 16.7634C16.4436 16.4214 16.3078 16.0945 16.0661 15.8526C15.8243 15.6109 15.4973 15.4751 15.1554 15.4751Z" fill="#717171"/>
<path d="M15.5075 19.4887L15.8624 18.9857L15.8538 18.9799L15.5075 19.4887ZM15.2756 19.3728L14.9972 19.9217L15.0339 19.9403L15.0727 19.9538L15.2756 19.3728ZM15.0309 19.2955L14.9095 19.8989L14.9276 19.9025L14.9458 19.9051L15.0309 19.2955ZM14.4076 19.3253L14.5839 19.9149L14.5866 19.9141L14.4076 19.3253ZM13.8715 19.6433L13.4377 19.2067L13.4321 19.2123L13.4266 19.2181L13.8715 19.6433ZM13.4979 20.558L12.8825 20.549L12.8825 20.5505L13.4979 20.558ZM13.5881 21.0475L13.0157 21.2736L13.0209 21.2868L13.0267 21.2998L13.5881 21.0475ZM13.8715 21.4726L13.4241 21.8952L13.4397 21.9117L13.4565 21.927L13.8715 21.4726ZM14.2966 21.7431L14.5455 21.1801L14.5336 21.1751L14.2966 21.7431ZM15.2756 21.7431L15.0385 21.175L15.0267 21.1802L15.2756 21.7431ZM15.7007 21.4726L16.1157 21.9271L16.1269 21.9168L16.1377 21.906L15.7007 21.4726ZM15.9792 21.0524L16.5489 21.2853L16.5496 21.2835L15.9792 21.0524ZM16.0743 20.5579L16.6898 20.5543L16.6897 20.549L16.0743 20.5579ZM15.7007 19.6433L16.1457 19.2181L16.13 19.2017L16.1133 19.1866L15.7007 19.6433ZM23.8038 22.5205L23.1883 22.5205V22.5205H23.8038ZM23.4262 23.4311L22.992 22.995L22.991 22.996L23.4262 23.4311ZM21.6049 23.4311L22.0402 22.996L22.0392 22.995L21.6049 23.4311ZM21.2274 16.0795V15.464H20.6119V16.0795H21.2274ZM23.8038 16.0795L24.4192 16.0795L24.4192 15.464H23.8038V16.0795ZM3.56888 23.431L4.00411 22.9959L4.00317 22.9949L3.56888 23.431ZM3.19137 4.13768L3.49614 3.60298L2.57591 3.07845V4.13768H3.19137ZM5.76781 5.60625L5.46303 6.14094L5.47284 6.14653L5.48285 6.15176L5.76781 5.60625ZM7.05597 5.60625L7.34094 6.15175L7.35163 6.14617L7.36209 6.14017L7.05597 5.60625ZM10.9206 3.3905L11.2267 2.85658L10.9206 2.68106L10.6145 2.85658L10.9206 3.3905ZM14.7852 5.60625L14.4791 6.14017L14.4896 6.14619L14.5003 6.15178L14.7852 5.60625ZM16.0734 5.60625L16.3583 6.1518L16.3684 6.14655L16.3782 6.14094L16.0734 5.60625ZM18.6499 4.13768H19.2653V3.07845L18.3451 3.60298L18.6499 4.13768ZM18.6499 22.5204H18.0344L18.0344 22.5259L18.6499 22.5204ZM18.8817 23.8086V24.4241H19.7591L19.4604 23.5991L18.8817 23.8086ZM25.0915 13.5025L25.3462 12.9422L25.2249 12.887H25.0915V13.5025ZM21.2269 13.5025H20.6114V14.1179H21.2269V13.5025ZM21.2269 1.90857L20.6114 1.90594V1.90857H21.2269ZM21.0555 1.26153L21.5895 0.95561L21.5888 0.954392L21.0555 1.26153ZM20.5828 0.787915L20.8918 0.255632L20.89 0.254639L20.5828 0.787915ZM19.2946 0.787915L19.6007 1.32185L19.6018 1.32119L19.2946 0.787915ZM15.43 3.00358L15.1239 3.53751L15.43 3.71301L15.7361 3.53751L15.43 3.00358ZM11.5653 0.787915L11.258 1.32117L11.2592 1.32185L11.5653 0.787915ZM10.2772 0.787915L10.5833 1.32185L10.5845 1.32116L10.2772 0.787915ZM6.41252 3.00358L6.10641 3.53751L6.41252 3.71301L6.71863 3.53751L6.41252 3.00358ZM2.54792 0.787915L2.24067 1.32119L2.24181 1.32184L2.54792 0.787915ZM1.25969 0.787915L0.952386 0.254663L0.950697 0.255643L1.25969 0.787915ZM0.786995 1.26153L0.253655 0.954391L0.252971 0.955585L0.786995 1.26153ZM0.615569 1.90857H1.23103L1.23102 1.90591L0.615569 1.90857ZM1.74722 25.253L1.31172 25.6878L1.31233 25.6885L1.74722 25.253ZM25.2481 25.253L25.683 25.6885L25.6836 25.6878L25.2481 25.253ZM26.0022 13.88L26.4375 13.4449L26.4374 13.4448L26.0022 13.88ZM25.0916 13.5025L24.8369 14.0628L24.9583 14.118H25.0916V13.5025ZM6.14562 21.4686L6.58082 21.0334L6.5799 21.0325L6.14562 21.4686ZM13.0893 21.4686L12.6549 21.0325L12.6541 21.0333L13.0893 21.4686ZM13.0893 19.6473L13.5245 19.2121L13.5244 19.2121L13.0893 19.6473ZM6.14562 15.8526L5.71043 15.4174L5.71036 15.4175L6.14562 15.8526ZM6.14562 17.674L6.58082 17.2388L6.57998 17.238L6.14562 17.674ZM16.0661 17.674L15.6317 17.238L15.6309 17.2388L16.0661 17.674ZM16.0661 15.8526L16.5014 15.4176L16.5013 15.4174L16.0661 15.8526ZM15.8538 18.9799C15.735 18.899 15.608 18.837 15.4786 18.7918L15.0727 19.9538C15.1078 19.9661 15.1373 19.9813 15.1613 19.9975L15.8538 18.9799ZM15.554 18.8239C15.4194 18.7556 15.271 18.7076 15.1159 18.6859L14.9458 19.9051C14.9612 19.9072 14.9793 19.9126 14.9972 19.9217L15.554 18.8239ZM15.1522 18.6921C14.8461 18.6306 14.5289 18.6451 14.2286 18.7364L14.5866 19.9141C14.6906 19.8825 14.8014 19.8771 14.9095 19.8989L15.1522 18.6921ZM14.2312 18.7356C13.9329 18.8248 13.66 18.986 13.4377 19.2067L14.3053 20.0799C14.3823 20.0035 14.4779 19.9466 14.5839 19.9149L14.2312 18.7356ZM13.4266 19.2181C13.0825 19.578 12.8897 20.0541 12.8825 20.549L14.1133 20.5669C14.116 20.3801 14.1888 20.2022 14.3164 20.0686L13.4266 19.2181ZM12.8825 20.5505C12.8795 20.7981 12.9249 21.0438 13.0157 21.2736L14.1605 20.8214C14.1283 20.7399 14.1123 20.6528 14.1133 20.5654L12.8825 20.5505ZM13.0267 21.2998C13.1245 21.5173 13.2576 21.7189 13.4241 21.8952L14.3189 21.0499C14.2496 20.9765 14.1924 20.8908 14.1495 20.7952L13.0267 21.2998ZM13.4565 21.927C13.6344 22.0895 13.8385 22.2188 14.0595 22.311L14.5336 21.1751C14.4415 21.1367 14.3582 21.0836 14.2865 21.0181L13.4565 21.927ZM14.0477 22.306C14.2815 22.4094 14.5328 22.4616 14.7861 22.4616V21.2307C14.7025 21.2307 14.6209 21.2135 14.5455 21.1802L14.0477 22.306ZM14.7861 22.4616C15.0393 22.4616 15.2907 22.4094 15.5246 22.3059L15.0267 21.1802C14.9514 21.2135 14.8698 21.2307 14.7861 21.2307V22.4616ZM15.5127 22.3111C15.7337 22.2188 15.9378 22.0895 16.1157 21.9271L15.2858 21.018C15.214 21.0836 15.1307 21.1367 15.0386 21.1751L15.5127 22.3111ZM16.1377 21.906C16.3129 21.7294 16.4534 21.5187 16.5489 21.2853L15.4095 20.8195C15.3761 20.9012 15.3264 20.976 15.2638 21.0392L16.1377 21.906ZM16.5496 21.2835C16.6429 21.0532 16.6913 20.805 16.6898 20.5543L15.4589 20.5616C15.4594 20.6498 15.4423 20.7385 15.4088 20.8212L16.5496 21.2835ZM16.6897 20.549C16.6825 20.0541 16.4897 19.578 16.1457 19.2181L15.2558 20.0686C15.3835 20.2021 15.4562 20.3801 15.4589 20.5669L16.6897 20.549ZM16.1133 19.1866C16.0338 19.1148 15.9502 19.0478 15.8623 18.9858L15.1527 19.9916C15.1996 20.0247 15.2448 20.0609 15.2882 20.1001L16.1133 19.1866ZM23.1883 22.5205C23.1883 22.6996 23.1172 22.8703 22.992 22.995L23.8605 23.8673C24.2188 23.5104 24.4192 23.0253 24.4192 22.5205H23.1883ZM22.991 22.996C22.8643 23.1227 22.6938 23.1933 22.5156 23.1933V24.4242C23.0211 24.4242 23.5045 24.2233 23.8615 23.8663L22.991 22.996ZM22.5156 23.1933C22.3373 23.1933 22.1667 23.1226 22.0402 22.996L21.1696 23.8662C21.5266 24.2234 22.0101 24.4242 22.5156 24.4242V23.1933ZM22.0392 22.995C21.9139 22.8703 21.8428 22.6995 21.8428 22.5205H20.6119C20.6119 23.0253 20.8123 23.5104 21.1706 23.8672L22.0392 22.995ZM21.8428 22.5205V16.0795H20.6119V22.5205H21.8428ZM21.2274 16.6949H23.8038V15.464H21.2274V16.6949ZM23.1883 16.0794L23.1883 22.5205L24.4192 22.5205L24.4192 16.0795L23.1883 16.0794ZM4.47956 23.1932C4.30129 23.1932 4.13077 23.1226 4.00411 22.9959L3.13365 23.8662C3.49063 24.2232 3.97404 24.4241 4.47956 24.4241V23.1932ZM4.00317 22.9949C3.87793 22.8702 3.80682 22.6994 3.80682 22.5204H2.57591C2.57591 23.0252 2.77627 23.5103 3.13459 23.8671L4.00317 22.9949ZM3.80682 22.5204V4.13768H2.57591V22.5204H3.80682ZM2.88659 4.67237L5.46303 6.14094L6.07259 5.07155L3.49614 3.60298L2.88659 4.67237ZM5.48285 6.15176C5.76934 6.30141 6.08799 6.38027 6.41189 6.38027V5.14936C6.28789 5.14936 6.16461 5.11915 6.05277 5.06073L5.48285 6.15176ZM6.41189 6.38027C6.73578 6.38027 7.05448 6.3014 7.34094 6.15175L6.77099 5.06074C6.6592 5.11914 6.53589 5.14936 6.41189 5.14936V6.38027ZM7.36209 6.14017L11.2267 3.92443L10.6145 2.85658L6.74985 5.07232L7.36209 6.14017ZM10.6145 3.92443L14.4791 6.14017L15.0913 5.07232L11.2267 2.85658L10.6145 3.92443ZM14.5003 6.15178C14.7868 6.30141 15.1054 6.38027 15.4294 6.38027V5.14936C15.3053 5.14936 15.182 5.11915 15.0701 5.06071L14.5003 6.15178ZM15.4294 6.38027C15.7533 6.38027 16.0719 6.30138 16.3583 6.1518L15.7885 5.0607C15.6766 5.11916 15.5533 5.14936 15.4294 5.14936V6.38027ZM16.3782 6.14094L18.9547 4.67237L18.3451 3.60298L15.7687 5.07155L16.3782 6.14094ZM18.0344 4.13768V22.5204H19.2653V4.13768H18.0344ZM18.0344 22.5259C18.039 23.0354 18.1297 23.5394 18.303 24.0182L19.4604 23.5991C19.3345 23.2514 19.2686 22.8854 19.2653 22.5149L18.0344 22.5259ZM18.8817 23.1932H4.47956V24.4241H18.8817V23.1932ZM25.0915 12.887H21.2269V14.1179H25.0915V12.887ZM21.8424 13.5025V1.90857H20.6114V13.5025H21.8424ZM21.8424 1.91119C21.8438 1.57492 21.7557 1.24567 21.5895 0.955611L20.5214 1.56746C20.5812 1.67178 20.612 1.78848 20.6115 1.90594L21.8424 1.91119ZM21.5888 0.954392C21.4217 0.664127 21.1805 0.423238 20.8918 0.255634L20.2738 1.32019C20.3775 1.3804 20.4634 1.4666 20.5221 1.56868L21.5888 0.954392ZM20.89 0.254639C20.6006 0.0878767 20.2727 -2.50675e-05 19.9387 -2.50675e-05V1.23089C20.0565 1.23089 20.1726 1.26185 20.2755 1.32119L20.89 0.254639ZM19.9387 -2.50675e-05C19.6047 -2.50675e-05 19.2768 0.0878675 18.9873 0.254639L19.6018 1.32119C19.7048 1.26186 19.8209 1.23089 19.9387 1.23089V-2.50675e-05ZM18.9885 0.253985L15.1239 2.46965L15.7361 3.53751L19.6007 1.32184L18.9885 0.253985ZM15.7361 2.46965L11.8714 0.253982L11.2592 1.32185L15.1239 3.53751L15.7361 2.46965ZM11.8726 0.254665C11.5832 0.0878634 11.2552 -2.50675e-05 10.9212 -2.50675e-05V1.23089C11.0391 1.23089 11.1551 1.26187 11.258 1.32116L11.8726 0.254665ZM10.9212 -2.50675e-05C10.5872 -2.50675e-05 10.2593 0.0878637 9.96986 0.254665L10.5845 1.32116C10.6874 1.26187 10.8034 1.23089 10.9212 1.23089V-2.50675e-05ZM9.97105 0.253983L6.10641 2.46965L6.71863 3.53751L10.5833 1.32185L9.97105 0.253983ZM6.71864 2.46965L2.85403 0.253985L2.24181 1.32184L6.10641 3.53751L6.71864 2.46965ZM2.85517 0.254639C2.56571 0.0878628 2.23781 -2.50675e-05 1.90377 -2.50675e-05V1.23089C2.02166 1.23089 2.13771 1.26187 2.24067 1.32119L2.85517 0.254639ZM1.90377 -2.50675e-05C1.56975 -2.50675e-05 1.24183 0.0878636 0.952387 0.254665L1.56699 1.32116C1.66988 1.26187 1.78591 1.23089 1.90377 1.23089V-2.50675e-05ZM0.950697 0.255643C0.661999 0.423235 0.420823 0.664114 0.253656 0.954392L1.32033 1.56868C1.37911 1.46661 1.46495 1.3804 1.56868 1.32019L0.950697 0.255643ZM0.252971 0.955585C0.0867839 1.24566 -0.00133512 1.57494 0.000117817 1.91123L1.23102 1.90591C1.23051 1.78847 1.26126 1.67179 1.32102 1.56748L0.252971 0.955585ZM0.00011207 1.90857V22.5199H1.23103V1.90857H0.00011207ZM0.00011207 22.5199C0.00011207 23.709 0.472388 24.8473 1.31172 25.6878L2.18272 24.8181C1.57338 24.2079 1.23103 23.3822 1.23103 22.5199H0.00011207ZM1.31233 25.6885C2.1529 26.5279 3.29226 27 4.48021 27V25.7691C3.61891 25.7691 2.79223 25.4267 2.18211 24.8175L1.31233 25.6885ZM4.48021 27H22.5151V25.7691H4.48021V27ZM22.5151 27C23.7031 27 24.8424 26.5279 25.683 25.6885L24.8132 24.8175C24.2031 25.4267 23.3764 25.7691 22.5151 25.7691V27ZM25.6836 25.6878C26.5229 24.8473 26.9952 23.709 26.9952 22.5199H25.7643C25.7643 23.3821 25.422 24.2079 24.8126 24.8181L25.6836 25.6878ZM26.9952 22.5199V14.7907H25.7643V22.5199H26.9952ZM26.9952 14.7907C26.9952 14.2851 26.7943 13.8018 26.4375 13.4449L25.567 14.3151C25.6937 14.4419 25.7643 14.6125 25.7643 14.7907H26.9952ZM26.4374 13.4448C26.0805 13.0879 25.597 12.887 25.0916 12.887V14.118C25.2698 14.118 25.4404 14.1886 25.567 14.3152L26.4374 13.4448ZM25.3462 12.9422L25.3462 12.9422L24.8369 14.0628L24.8369 14.0628L25.3462 12.9422ZM12.1786 18.6542H7.05627V19.8852H12.1786V18.6542ZM7.05627 18.6542C6.55074 18.6542 6.06731 18.8552 5.71043 19.2121L6.58082 20.0825C6.7075 19.9558 6.87811 19.8852 7.05627 19.8852V18.6542ZM5.71043 19.2121C5.35349 19.569 5.15265 20.0525 5.15265 20.5579H6.38357C6.38357 20.3797 6.4542 20.2091 6.58082 20.0825L5.71043 19.2121ZM5.15265 20.5579C5.15265 21.0626 5.353 21.5478 5.71135 21.9047L6.5799 21.0325C6.45469 20.9078 6.38357 20.7369 6.38357 20.5579H5.15265ZM5.71043 21.9038C6.06731 22.2606 6.55074 22.4616 7.05627 22.4616V21.2307C6.87811 21.2307 6.7075 21.1601 6.58082 21.0334L5.71043 21.9038ZM7.05627 22.4616H12.1786V21.2307H7.05627V22.4616ZM12.1786 22.4616C12.6842 22.4616 13.1675 22.2606 13.5244 21.9038L12.6541 21.0333C12.5273 21.1601 12.3568 21.2307 12.1786 21.2307V22.4616ZM13.5236 21.9046C13.8818 21.5478 14.0822 21.0627 14.0822 20.5579H12.8513C12.8513 20.7369 12.7802 20.9078 12.6549 21.0325L13.5236 21.9046ZM14.0822 20.5579C14.0822 20.0524 13.8813 19.569 13.5245 19.2121L12.654 20.0824C12.7807 20.2091 12.8513 20.3797 12.8513 20.5579H14.0822ZM13.5244 19.2121C13.1675 18.8552 12.6842 18.6542 12.1786 18.6542V19.8852C12.3568 19.8852 12.5274 19.9558 12.6541 20.0825L13.5244 19.2121ZM15.1554 14.8597H7.05627V16.0906H15.1554V14.8597ZM7.05627 14.8597C6.55083 14.8597 6.06738 15.0605 5.71043 15.4174L6.58082 16.2878C6.70743 16.1612 6.87801 16.0906 7.05627 16.0906V14.8597ZM5.71036 15.4175C5.35351 15.7745 5.15265 16.2578 5.15265 16.7634H6.38357C6.38357 16.5851 6.45418 16.4145 6.58089 16.2878L5.71036 15.4175ZM5.15265 16.7634C5.15265 17.2681 5.35304 17.7532 5.71127 18.11L6.57998 17.238C6.45465 17.1131 6.38357 16.9423 6.38357 16.7634H5.15265ZM5.71043 18.1092C6.06738 18.4661 6.55083 18.667 7.05627 18.667V17.4361C6.87801 17.4361 6.70743 17.3654 6.58082 17.2388L5.71043 18.1092ZM7.05627 18.667H15.1554V17.4361H7.05627V18.667ZM15.1554 18.667C15.6609 18.667 16.1443 18.4661 16.5013 18.1092L15.6309 17.2388C15.5042 17.3654 15.3337 17.4361 15.1554 17.4361V18.667ZM16.5005 18.11C16.8586 17.7532 17.0591 17.2682 17.0591 16.7634H15.8281C15.8281 16.9423 15.7571 17.1131 15.6317 17.238L16.5005 18.11ZM17.0591 16.7634C17.0591 16.2578 16.8581 15.7745 16.5014 15.4176L15.6308 16.2877C15.7575 16.4145 15.8281 16.5851 15.8281 16.7634H17.0591ZM16.5013 15.4174C16.1443 15.0605 15.6609 14.8597 15.1554 14.8597V16.0906C15.3337 16.0906 15.5042 16.1612 15.6309 16.2879L16.5013 15.4174Z" fill="white"/>
<path fill-rule="evenodd" clip-rule="evenodd" d="M13.0581 7.64079H12.4048C12.5104 7.79152 12.5917 7.9595 12.6497 8.14151C12.6636 8.1843 12.6763 8.22841 12.6868 8.27368H13.0581C13.1915 8.27368 13.3181 8.32455 13.4016 8.44398C13.4758 8.54952 13.4979 8.68162 13.4979 8.81029V8.88678C13.4979 9.0153 13.4758 9.14748 13.4016 9.25301C13.3181 9.37244 13.1915 9.42331 13.0581 9.42331H12.6856C12.6392 9.61357 12.5673 9.79784 12.4721 9.97505C12.2842 10.3299 11.9709 10.6068 11.5531 10.8119C11.1586 11.0021 10.6411 11.0959 10.0133 11.1064C10.0783 11.1655 10.1433 11.2304 10.2059 11.3011L12.6868 13.8892C12.7135 13.9171 12.7367 13.9449 12.7552 13.9715C12.7727 13.9937 12.7959 14.0284 12.811 14.069C12.8307 14.1268 12.8342 14.1942 12.8342 14.2475C12.8342 14.4236 12.6973 14.5199 12.5998 14.5663L12.5847 14.5721C12.4698 14.6161 12.3132 14.63 12.1391 14.63H12.0103C11.8769 14.63 11.7481 14.6126 11.6274 14.5779L11.6227 14.5767C11.4986 14.5372 11.3906 14.4723 11.3024 14.3784L8.289 11.2316C8.20315 11.1272 8.12772 11.0334 8.06389 10.9499L8.05809 10.9429C7.98266 10.8351 7.92812 10.7136 7.92812 10.5825V10.4724C7.92812 10.3321 7.96991 10.1918 8.08711 10.0922C8.1985 9.99837 8.34238 9.96933 8.48278 9.96933H9.87986C10.1665 9.96933 10.4113 9.91838 10.6214 9.82217C10.8348 9.72463 10.9961 9.59852 11.1122 9.44671C11.1168 9.43855 11.1226 9.43156 11.1284 9.42333H8.36673C8.23332 9.42333 8.10681 9.37247 8.02327 9.25303C7.94905 9.14749 7.92813 9.01532 7.92813 8.88681V8.81031C7.92813 8.68163 7.94905 8.54954 8.02327 8.44401C8.10683 8.32458 8.23333 8.27371 8.36673 8.27371H11.1435C11.0878 8.17167 11.017 8.0916 10.9335 8.02902L10.93 8.02676C10.6887 7.84125 10.3567 7.73936 9.91467 7.73936H8.48278C8.33772 7.73936 8.19037 7.70565 8.07897 7.6002C7.96642 7.49351 7.92813 7.34751 7.92813 7.20268V7.02655C7.92813 6.88164 7.96642 6.73666 8.07897 6.63003C8.19037 6.52465 8.33772 6.49095 8.48278 6.49095H13.0581C13.1915 6.49095 13.3181 6.54189 13.4016 6.66025C13.4758 6.76562 13.4979 6.89896 13.4979 7.02655V7.10405C13.4979 7.23164 13.4758 7.3649 13.4016 7.4705C13.3181 7.58861 13.1915 7.6408 13.0581 7.6408L13.0581 7.64079Z" fill="#717171"/>
</svg>
