<svg width="13" height="12" viewBox="0 0 13 12" fill="none" xmlns="http://www.w3.org/2000/svg">
<path fill-rule="evenodd" clip-rule="evenodd" d="M12.5324 4.99284L9.75661 7.68279L10.4121 11.482C10.4406 11.6482 10.372 11.8161 10.2348 11.9153C10.1572 11.9716 10.065 11.9999 9.97273 11.9999C9.90187 11.9999 9.83057 11.9831 9.76551 11.949L6.33338 10.1552L2.90168 11.9485C2.75196 12.0274 2.56969 12.0145 2.43245 11.9148C2.29519 11.8156 2.22658 11.6477 2.25509 11.4816L2.91059 7.68234L0.134409 4.99283C0.0132016 4.87499 -0.0309126 4.69867 0.0216679 4.53874C0.0742484 4.37882 0.213733 4.26142 0.381724 4.23706L4.21804 3.6833L5.93367 0.226942C6.08384 -0.0756334 6.58293 -0.0756334 6.73311 0.226942L8.44872 3.6833L12.285 4.23706C12.453 4.26142 12.5925 4.37838 12.6451 4.53874C12.6977 4.69911 12.6536 4.87455 12.5324 4.99283V4.99284Z" fill="#FCAF17"/>
</svg>
