<svg width="24" height="24" viewBox="0 0 24 24" fill="none" xmlns="http://www.w3.org/2000/svg">
<g opacity="0.4">
<path opacity="0.01" fill-rule="evenodd" clip-rule="evenodd" d="M0 24V0H24V24H0Z" fill="#FCAF17"/>
<path fill-rule="evenodd" clip-rule="evenodd" d="M6.28865 18.3663C6.12093 18.3663 5.95321 18.3025 5.82578 18.1741C5.56996 17.9183 5.56996 17.5036 5.82578 17.2478L17.2479 5.82559C17.5037 5.56977 17.9185 5.56977 18.1743 5.82559C18.4301 6.08141 18.4301 6.49615 18.1743 6.75212L6.75232 18.1741C6.62393 18.3017 6.45621 18.3663 6.28865 18.3663V18.3663Z" fill="black"/>
<path fill-rule="evenodd" clip-rule="evenodd" d="M17.7116 18.3663C17.5439 18.3663 17.3763 18.3025 17.2487 18.1741L5.82578 6.75212C5.56996 6.49614 5.56996 6.0814 5.82578 5.82559C6.0816 5.56977 6.49634 5.56977 6.75231 5.82559L18.1743 17.2478C18.4301 17.5036 18.4301 17.9183 18.1743 18.1741C18.0459 18.3017 17.8783 18.3663 17.7116 18.3663L17.7116 18.3663Z" fill="black"/>
</g>
</svg>
