<svg width="22" height="22" viewBox="0 0 22 22" fill="none" xmlns="http://www.w3.org/2000/svg">
<path fill-rule="evenodd" clip-rule="evenodd" d="M2.82853 19.0719V19.1664H2.92315H20.0797C20.3227 19.1664 20.555 19.2626 20.7269 19.4343C20.8979 19.6055 20.9948 19.8386 20.9948 20.0808C20.9948 20.3238 20.8979 20.5562 20.7269 20.728C20.555 20.899 20.3227 20.9959 20.0797 20.9959H1.91338C1.67118 20.9959 1.4388 20.899 1.26698 20.728C1.09514 20.5562 0.999023 20.3238 0.999023 20.0808V1.91448C0.999023 1.67226 1.09514 1.43911 1.26698 1.26807C1.4388 1.09626 1.67118 1.00012 1.91338 1.00012C2.15638 1.00012 2.38875 1.09626 2.56056 1.26807C2.73163 1.43912 2.82852 1.67227 2.82852 1.91448L2.82853 19.0719Z" fill="#717171"/>
<path d="M2.82853 19.0719H3.07853H2.82853ZM2.82853 19.1664H2.57853V19.4164H2.82853V19.1664ZM20.7269 19.4343L20.9037 19.2576L20.9036 19.2575L20.7269 19.4343ZM20.7269 20.728L20.9032 20.9052L20.904 20.9044L20.7269 20.728ZM1.26698 20.728L1.0902 20.9048L1.09063 20.9052L1.26698 20.728ZM1.26698 1.26807L1.44335 1.44525L1.44375 1.44485L1.26698 1.26807ZM2.56056 1.26807L2.38379 1.44485V1.44485L2.56056 1.26807ZM2.82852 1.91448H2.57852V1.91448L2.82852 1.91448ZM2.57853 19.0719V19.1664H3.07853V19.0719H2.57853ZM2.82853 19.4164H2.92315V18.9164H2.82853V19.4164ZM2.92315 19.4164H20.0797V18.9164H2.92315V19.4164ZM20.0797 19.4164C20.2564 19.4164 20.4252 19.4863 20.5501 19.6111L20.9036 19.2575C20.6849 19.0388 20.3889 18.9164 20.0797 18.9164V19.4164ZM20.5501 19.6111C20.6744 19.7355 20.7448 19.9051 20.7448 20.0808H21.2448C21.2448 19.7721 21.1215 19.4754 20.9037 19.2576L20.5501 19.6111ZM20.7448 20.0808C20.7448 20.2571 20.6745 20.4262 20.5497 20.5516L20.904 20.9044C21.1213 20.6861 21.2448 20.3905 21.2448 20.0808H20.7448ZM20.5505 20.5508C20.4251 20.6756 20.2559 20.7459 20.0797 20.7459V21.2459C20.3894 21.2459 20.685 21.1224 20.9032 20.9052L20.5505 20.5508ZM20.0797 20.7459H1.91338V21.2459H20.0797V20.7459ZM1.91338 20.7459C1.738 20.7459 1.56881 20.6757 1.44333 20.5508L1.09063 20.9052C1.30878 21.1223 1.60436 21.2459 1.91338 21.2459V20.7459ZM1.44376 20.5512C1.31887 20.4264 1.24902 20.2576 1.24902 20.0808H0.749023C0.749023 20.39 0.871415 20.686 1.0902 20.9048L1.44376 20.5512ZM1.24902 20.0808V1.91448H0.749023V20.0808H1.24902ZM1.24902 1.91448C1.24902 1.73826 1.319 1.56903 1.44335 1.44525L1.09061 1.09088C0.871286 1.3092 0.749023 1.60625 0.749023 1.91448H1.24902ZM1.44375 1.44485C1.56871 1.3199 1.73751 1.25012 1.91338 1.25012V0.750122C1.60484 0.750122 1.30888 0.872624 1.09021 1.09129L1.44375 1.44485ZM1.91338 1.25012C2.09015 1.25012 2.25891 1.31998 2.38379 1.44485L2.73733 1.09129C2.51858 0.872545 2.2226 0.750122 1.91338 0.750122V1.25012ZM2.38379 1.44485C2.5081 1.56915 2.57852 1.73875 2.57852 1.91448H3.07852C3.07852 1.60578 2.95516 1.3091 2.73733 1.09129L2.38379 1.44485ZM2.57852 1.91448L2.57853 19.0719H3.07853L3.07852 1.91448L2.57852 1.91448Z" fill="white"/>
<path fill-rule="evenodd" clip-rule="evenodd" d="M7.87783 15.4877H7.87706V15.4976C7.87706 15.8737 7.72795 16.2348 7.4615 16.5005C7.19582 16.7669 6.83477 16.9168 6.45781 16.9168C6.08162 16.9168 5.72056 16.7669 5.45489 16.5005C5.18845 16.2348 5.03856 15.8737 5.03856 15.4976C5.03856 15.1205 5.18844 14.7595 5.45489 14.4938C5.72055 14.2274 6.08162 14.0783 6.45781 14.0783H6.49717L6.52518 14.0503L9.5529 11.0225L9.58014 10.9945V10.956C9.58014 10.579 9.73002 10.2179 9.99647 9.95222C10.2621 9.68582 10.6232 9.53669 10.9994 9.53669C11.3763 9.53669 11.7374 9.68582 12.0031 9.95222C12.2695 10.2179 12.4186 10.579 12.4186 10.956V10.9945L12.4459 11.0218L14.1921 12.7983L14.2201 12.8264H14.2595H14.4207H14.4601L14.4881 12.7991L18.1312 9.1552L18.163 9.12418L18.1585 9.07951C18.1539 9.03484 18.1539 8.99097 18.1585 8.94627H18.1592V8.93719C18.1592 8.65637 18.2425 8.38236 18.3984 8.14849C18.5543 7.91535 18.7761 7.73368 19.035 7.62621C19.2946 7.51873 19.58 7.49071 19.8547 7.5452C20.1303 7.5997 20.3831 7.73519 20.5814 7.9335C20.7805 8.13181 20.9152 8.38462 20.9705 8.66016C21.025 8.93568 20.997 9.22106 20.8895 9.47992C20.782 9.73955 20.6003 9.96132 20.3664 10.1172C20.1333 10.2731 19.8593 10.3565 19.5785 10.3565H19.5391L19.5111 10.3845L15.8377 14.0881L15.8097 14.1161V14.1547V14.2357C15.8097 14.6119 15.6606 14.973 15.3942 15.2394C15.1285 15.5051 14.7674 15.655 14.3905 15.655C14.0143 15.655 13.6532 15.5051 13.3875 15.2394C13.1211 14.973 12.9712 14.6119 12.9712 14.2357V14.2349V14.2342V14.2334V14.2327V14.232V14.2312V14.2304V14.2296V14.2289V14.2282V14.2274V14.2267V14.2259V14.2251V14.2244V14.2236V14.2229V14.2221V14.2214V14.2206V14.2198V14.2191V14.2184V14.2176V14.2168V14.2161V14.2153V14.2146V14.2138V14.2131V14.2123V14.2116V14.2108V14.2101V14.2093V14.2086V14.2078V14.2071V14.2063V14.2056V14.2048V14.204V14.2033V14.2025V14.2018V14.201V14.2003V14.1995V14.1988V14.198V14.1973V14.1965V14.1958V14.195V14.1943V14.1935V14.1928V14.192V14.1913V14.1905V14.1897V14.189V14.1882V14.1875V14.1867V14.186V14.1852V14.1844V14.1837V14.183V14.1822V14.1815V14.1807V14.1799V14.1792V14.1784V14.1777V14.177V14.1761V14.1754V14.1746V14.1739V14.1732V14.1724V14.1716V14.1708V14.1701V14.1694V14.1686V14.1679V14.1671V14.1663V14.1656V14.1648V14.1641V14.1634V14.1626V14.1618V14.161V14.1603V14.1596V14.1588V14.158V14.1573V14.1565V14.1558V14.155V14.1164L12.944 14.0884L11.3189 12.4633L11.2908 12.436H11.2523H11.0199H10.7875H10.7489L10.7209 12.4633L7.90511 15.2791L7.87332 15.3109L7.87786 15.3555C7.88239 15.3994 7.88239 15.4441 7.87786 15.488L7.87783 15.4877Z" fill="#FCAF17"/>
<path fill-rule="evenodd" clip-rule="evenodd" d="M14.9805 1.89516H14.4733C14.5553 2.01217 14.6184 2.14257 14.6634 2.28387C14.6742 2.31709 14.6841 2.35133 14.6922 2.38647H14.9805C15.0841 2.38647 15.1823 2.42596 15.2471 2.51868C15.3048 2.60061 15.3219 2.70315 15.3219 2.80304V2.86242C15.3219 2.96219 15.3048 3.06481 15.2471 3.14673C15.1823 3.23944 15.0841 3.27893 14.9805 3.27893H14.6913C14.6553 3.42664 14.5995 3.56969 14.5256 3.70725C14.3797 3.9827 14.1365 4.19767 13.8122 4.35688C13.5059 4.50453 13.1041 4.57741 12.6168 4.58549C12.6672 4.63143 12.7177 4.68176 12.7663 4.73669L14.6922 6.74582C14.713 6.76752 14.731 6.7891 14.7454 6.80972C14.7589 6.82697 14.7769 6.85385 14.7886 6.88544C14.8039 6.93029 14.8066 6.98256 14.8066 7.02398C14.8066 7.16071 14.7004 7.23546 14.6247 7.27145L14.613 7.27597C14.5238 7.3101 14.4022 7.32088 14.2671 7.32088H14.1671C14.0635 7.32088 13.9635 7.30738 13.8698 7.28044L13.8662 7.27953C13.7698 7.24884 13.686 7.19851 13.6176 7.12562L11.2782 4.68268C11.2116 4.60166 11.153 4.52883 11.1034 4.46403L11.0989 4.45861C11.0404 4.37493 10.998 4.28058 10.998 4.17883V4.09334C10.998 3.98441 11.0305 3.87553 11.1215 3.79818C11.2079 3.72536 11.3196 3.70281 11.4286 3.70281H12.5132C12.7357 3.70281 12.9258 3.66326 13.0888 3.58857C13.2545 3.51285 13.3797 3.41495 13.4698 3.2971C13.4734 3.29077 13.4779 3.28534 13.4825 3.27895H11.3385C11.235 3.27895 11.1368 3.23946 11.0719 3.14675C11.0143 3.06482 10.9981 2.96221 10.9981 2.86244V2.80306C10.9981 2.70316 11.0143 2.60062 11.0719 2.5187C11.1368 2.42598 11.235 2.38649 11.3385 2.38649H13.4942C13.4509 2.30728 13.396 2.24512 13.3311 2.19654L13.3284 2.19479C13.1411 2.05077 12.8834 1.97167 12.5402 1.97167H11.4286C11.316 1.97167 11.2016 1.94551 11.1152 1.86365C11.0278 1.78082 10.9981 1.66748 10.9981 1.55505V1.41832C10.9981 1.30583 11.0278 1.19328 11.1152 1.1105C11.2016 1.02869 11.316 1.00253 11.4286 1.00253H14.9805C15.0841 1.00253 15.1823 1.04208 15.2471 1.13395C15.3048 1.21576 15.3219 1.31927 15.3219 1.41832V1.47848C15.3219 1.57753 15.3048 1.68098 15.2471 1.76296C15.1823 1.85465 15.0841 1.89517 14.9805 1.89517L14.9805 1.89516Z" fill="#717171"/>
</svg>
