<svg width="24" height="24" viewBox="0 0 24 24" fill="none" xmlns="http://www.w3.org/2000/svg">
<path d="M12.9964 11.0032L13.0034 4.92919C13.0034 4.66289 12.8977 4.40749 12.7094 4.21919C12.5211 4.03089 12.2657 3.9251 11.9994 3.9251C11.7331 3.9251 11.4777 4.03089 11.2894 4.21919C11.1011 4.40749 10.9953 4.66289 10.9953 4.92919L11.0023 11.0032L4.92829 10.9962C4.66199 10.9962 4.40659 11.102 4.21829 11.2903C4.02998 11.4786 3.9242 11.734 3.9242 12.0003C3.9242 12.2666 4.02998 12.522 4.21829 12.7103C4.40659 12.8986 4.66199 13.0043 4.92829 13.0043L11.0023 12.9973L10.9953 19.0713C10.9947 19.2033 11.0203 19.3341 11.0706 19.4562C11.1209 19.5783 11.1948 19.6892 11.2881 19.7825C11.3815 19.8759 11.4924 19.9498 11.6145 20.0001C11.7365 20.0504 11.8673 20.076 11.9994 20.0754C12.1314 20.076 12.2622 20.0504 12.3842 20.0001C12.5063 19.9498 12.6172 19.8759 12.7106 19.7825C12.8039 19.6892 12.8778 19.5783 12.9281 19.4562C12.9784 19.3341 13.004 19.2033 13.0034 19.0713L12.9964 12.9973L19.0704 13.0043C19.2024 13.0049 19.3332 12.9793 19.4553 12.929C19.5774 12.8788 19.6883 12.8048 19.7816 12.7115C19.875 12.6181 19.9489 12.5072 19.9992 12.3851C20.0495 12.2631 20.0751 12.1323 20.0745 12.0003C20.0751 11.8682 20.0495 11.7374 19.9992 11.6154C19.9489 11.4933 19.875 11.3824 19.7816 11.2891C19.6883 11.1957 19.5774 11.1218 19.4553 11.0715C19.3332 11.0212 19.2024 10.9956 19.0704 10.9962L12.9964 11.0032Z" fill="white"/>
</svg>
