<svg width="22" height="18" viewBox="0 0 22 18" fill="none" xmlns="http://www.w3.org/2000/svg">
<rect x="17.668" y="6" width="2.22226" height="9.44462" fill="#FCAF17"/>
<path d="M3.77832 15.4446V13.2223H18.7786V15.4446L3.77832 15.4446Z" fill="#FCAF17"/>
<path d="M21.0021 5.82545V15.5547C21.0021 15.8417 20.8887 16.1165 20.6861 16.3192C20.4834 16.5219 20.2079 16.6354 19.9217 16.6354H3.71148" stroke="#717171" stroke-width="1.5" stroke-linecap="round" stroke-linejoin="round"/>
<path fill-rule="evenodd" clip-rule="evenodd" d="M2.0772 11.8066H15.0469C15.6443 11.8066 16.1283 11.3226 16.1283 10.7258V2.07737C16.1283 1.48066 15.6443 0.996621 15.0469 0.996621H2.0772C1.48062 0.996621 0.996678 1.48066 0.996678 2.07737V10.7258C0.996678 11.3226 1.48062 11.8066 2.0772 11.8066Z" stroke="#717171" stroke-width="1.5" stroke-linecap="round" stroke-linejoin="round"/>
<path fill-rule="evenodd" clip-rule="evenodd" d="M10.3217 4.06909H9.84271C9.92013 4.17986 9.97968 4.3033 10.0222 4.43706C10.0324 4.4685 10.0418 4.50092 10.0494 4.53418H10.3217C10.4195 4.53418 10.5123 4.57156 10.5735 4.65933C10.6279 4.73689 10.6441 4.83396 10.6441 4.92851V4.98472C10.6441 5.07916 10.6279 5.1763 10.5735 5.25385C10.5123 5.34161 10.4195 5.37899 10.3217 5.37899H10.0486C10.0145 5.51881 9.96182 5.65422 9.89203 5.78445C9.75424 6.04519 9.52453 6.24869 9.21826 6.3994C8.92899 6.53916 8.54955 6.60815 8.08929 6.6158C8.13693 6.65928 8.18459 6.70693 8.23051 6.75892L10.0494 8.66079C10.069 8.68133 10.086 8.70176 10.0996 8.72128C10.1124 8.73761 10.1294 8.76306 10.1405 8.79296C10.1549 8.83542 10.1575 8.8849 10.1575 8.9241C10.1575 9.05353 10.0571 9.12429 9.98563 9.15836L9.97457 9.16264C9.89035 9.19494 9.77549 9.20515 9.64789 9.20515H9.55345C9.45561 9.20515 9.36118 9.19237 9.27269 9.16687L9.26928 9.16601C9.17827 9.13696 9.09912 9.08931 9.03446 9.02032L6.82505 6.7078C6.7621 6.6311 6.7068 6.56217 6.66 6.50082L6.65575 6.49569C6.60045 6.41648 6.56046 6.32717 6.56046 6.23085V6.14992C6.56046 6.0468 6.5911 5.94374 6.67703 5.87052C6.7587 5.80159 6.86419 5.78024 6.96713 5.78024H7.99144C8.20158 5.78024 8.38109 5.7428 8.53509 5.6721C8.69161 5.60043 8.80986 5.50775 8.89495 5.39619C8.89835 5.3902 8.90259 5.38506 8.90686 5.37901H6.88204C6.78423 5.37901 6.69147 5.34163 6.63022 5.25387C6.5758 5.17631 6.56047 5.07918 6.56047 4.98474V4.92853C6.56047 4.83396 6.5758 4.7369 6.63022 4.65935C6.69148 4.57158 6.78424 4.5342 6.88204 4.5342H8.91793C8.87709 4.45921 8.82517 4.40038 8.76394 4.35438L8.76136 4.35273C8.58444 4.2164 8.34109 4.14153 8.01696 4.14153H6.96713C6.86077 4.14153 6.75274 4.11676 6.67106 4.03927C6.58854 3.96086 6.56047 3.85357 6.56047 3.74714V3.61771C6.56047 3.51123 6.58854 3.40469 6.67106 3.32633C6.75274 3.24889 6.86077 3.22412 6.96713 3.22412H10.3217C10.4195 3.22412 10.5123 3.26156 10.5735 3.34853C10.6279 3.42597 10.6441 3.52395 10.6441 3.61771V3.67466C10.6441 3.76842 10.6279 3.86635 10.5735 3.94396C10.5123 4.03075 10.4195 4.0691 10.3217 4.0691L10.3217 4.06909Z" fill="#717171"/>
</svg>
