<svg width="36" height="27" viewBox="0 0 36 27" fill="none" xmlns="http://www.w3.org/2000/svg">
<path fill-rule="evenodd" clip-rule="evenodd" d="M25.0615 24.8645V23.8842C25.0615 23.3104 24.5966 22.8463 24.0231 22.8463C23.4497 22.8463 22.9847 23.3104 22.9847 23.8842V24.8645C18.6594 24.3838 15.2158 20.9401 14.7354 16.6148H15.7158C16.2893 16.6148 16.7542 16.1505 16.7542 15.5768C16.7542 15.0031 16.2893 14.5389 15.7158 14.5389H14.7354C15.2158 10.2136 18.6595 6.76992 22.9847 6.2892V7.26947C22.9847 7.84324 23.4497 8.3074 24.0231 8.3074C24.5966 8.3074 25.0615 7.84324 25.0615 7.26947V6.2892C29.3868 6.76992 32.8305 10.2136 33.3109 14.5389H32.3305C31.757 14.5389 31.2921 15.0031 31.2921 15.5768C31.2921 16.1505 31.757 16.6148 32.3305 16.6148H33.3109C32.8305 20.9401 29.3868 24.3838 25.0615 24.8645ZM22.9855 3.11576C22.9855 2.54305 23.4514 2.07783 24.024 2.07783C24.5965 2.07783 25.0624 2.54305 25.0624 3.11576C25.0624 3.68846 24.5965 4.15368 24.024 4.15368C23.4514 4.15368 22.9855 3.68846 22.9855 3.11576ZM26.8141 4.49927C27.0218 4.08282 27.1393 3.61322 27.1393 3.11581C27.1393 1.39791 25.7418 0 24.0241 0C22.3063 0 20.9088 1.39791 20.9088 3.11581C20.9088 3.61322 21.0263 4.08282 21.234 4.49927C16.2798 5.74757 12.6015 10.2402 12.6015 15.5769C12.6015 21.8749 17.7257 27 24.0241 27C30.3225 27 35.4467 21.8749 35.4467 15.5769C35.4467 10.2402 31.7683 5.74755 26.8141 4.49927Z" fill="#717171"/>
<path fill-rule="evenodd" clip-rule="evenodd" d="M9.21436 14.5393H3.77101C3.04363 14.5393 2.45407 15.0031 2.45407 15.5765C2.45407 16.1497 3.04365 16.6135 3.77101 16.6135H9.21436C9.9416 16.6135 10.5313 16.1497 10.5313 15.5765C10.5313 15.0031 9.9416 14.5393 9.21436 14.5393Z" fill="#FCAF17"/>
<path fill-rule="evenodd" clip-rule="evenodd" d="M9.49169 19.4464H1.0393C0.46532 19.4464 6.88065e-05 19.9138 6.88065e-05 20.4917C6.88065e-05 21.0696 0.46532 21.5369 1.0393 21.5369H9.49169C10.0656 21.5369 10.5309 21.0696 10.5309 20.4917C10.5309 19.9138 10.0656 19.4464 9.49169 19.4464Z" fill="#717171"/>
<path fill-rule="evenodd" clip-rule="evenodd" d="M9.49169 9.63239H1.0393C0.46532 9.63239 6.88065e-05 10.0961 6.88065e-05 10.6696C6.88065e-05 11.243 0.46532 11.7068 1.0393 11.7068H9.49169C10.0656 11.7068 10.5309 11.243 10.5309 10.6696C10.5309 10.0961 10.0656 9.63239 9.49169 9.63239Z" fill="#717171"/>
<path fill-rule="evenodd" clip-rule="evenodd" d="M28.1787 14.5384H25.0641V11.424C25.0641 10.8503 24.5994 10.3864 24.026 10.3864C23.4526 10.3864 22.9878 10.8503 22.9878 11.424V15.5759C22.9878 16.1494 23.4525 16.6135 24.026 16.6135H28.1787C28.752 16.6135 29.2168 16.1494 29.2168 15.5759C29.2168 15.0024 28.752 14.5384 28.1787 14.5384Z" fill="#FCAF17"/>
</svg>
