<svg width="16" height="16" viewBox="0 0 16 16" fill="none" xmlns="http://www.w3.org/2000/svg">
<path d="M8.00006 10.6667C7.86821 10.6667 7.73931 10.7058 7.62968 10.779C7.52005 10.8523 7.4346 10.9564 7.38414 11.0782C7.33368 11.2 7.32048 11.3341 7.3462 11.4634C7.37193 11.5927 7.43542 11.7115 7.52866 11.8048C7.62189 11.898 7.74068 11.9615 7.87 11.9872C7.99932 12.0129 8.13337 11.9997 8.25518 11.9493C8.377 11.8988 8.48112 11.8134 8.55437 11.7037C8.62763 11.5941 8.66673 11.4652 8.66673 11.3334C8.66673 11.1565 8.59649 10.987 8.47146 10.8619C8.34644 10.7369 8.17687 10.6667 8.00006 10.6667ZM15.1134 11.6467L9.74673 2.31335C9.57326 2.00236 9.31992 1.74332 9.01286 1.563C8.70579 1.38267 8.35616 1.2876 8.00006 1.2876C7.64396 1.2876 7.29433 1.38267 6.98726 1.563C6.6802 1.74332 6.42686 2.00236 6.25339 2.31335L0.92006 11.6467C0.74059 11.9494 0.644155 12.294 0.640489 12.6459C0.636824 12.9978 0.726058 13.3444 0.899184 13.6507C1.07231 13.9571 1.3232 14.2123 1.62652 14.3907C1.92984 14.5691 2.27485 14.6643 2.62673 14.6667H13.3734C13.7281 14.6702 14.0773 14.5793 14.3853 14.4033C14.6933 14.2273 14.949 13.9726 15.126 13.6652C15.3031 13.3579 15.3953 13.009 15.3931 12.6542C15.3908 12.2995 15.2943 11.9518 15.1134 11.6467ZM13.9601 12.98C13.9016 13.084 13.8164 13.1704 13.7132 13.2302C13.61 13.29 13.4927 13.321 13.3734 13.32H2.62673C2.50747 13.321 2.39013 13.29 2.28694 13.2302C2.18375 13.1704 2.0985 13.084 2.04006 12.98C1.98155 12.8787 1.95074 12.7637 1.95074 12.6467C1.95074 12.5297 1.98155 12.4147 2.04006 12.3134L7.37339 2.98002C7.42934 2.87082 7.51434 2.77917 7.61902 2.71518C7.72371 2.65119 7.84403 2.61733 7.96673 2.61733C8.08942 2.61733 8.20974 2.65119 8.31443 2.71518C8.41912 2.77917 8.50411 2.87082 8.56006 2.98002L13.9267 12.3134C13.9929 12.4132 14.0309 12.5291 14.0367 12.6488C14.0426 12.7684 14.0161 12.8875 13.9601 12.9934V12.98ZM8.00006 5.33335C7.82325 5.33335 7.65368 5.40359 7.52866 5.52861C7.40363 5.65364 7.33339 5.82321 7.33339 6.00002V8.66669C7.33339 8.8435 7.40363 9.01307 7.52866 9.13809C7.65368 9.26311 7.82325 9.33335 8.00006 9.33335C8.17687 9.33335 8.34644 9.26311 8.47146 9.13809C8.59649 9.01307 8.66673 8.8435 8.66673 8.66669V6.00002C8.66673 5.82321 8.59649 5.65364 8.47146 5.52861C8.34644 5.40359 8.17687 5.33335 8.00006 5.33335Z" fill="#E62F2F"/>
</svg>
