<svg width="24" height="24" viewBox="0 0 24 24" fill="none" xmlns="http://www.w3.org/2000/svg">
<path d="M20.1748 11.5422C20.1751 11.5578 20.1749 11.5717 20.1745 11.584C20.1563 11.5885 20.1361 11.5932 20.1136 11.598C20.0103 11.62 19.875 11.6413 19.7098 11.6598C19.38 11.6969 18.9531 11.7205 18.4665 11.722C17.4918 11.7252 16.308 11.6398 15.2226 11.4116C14.1191 11.1796 13.1968 10.8159 12.669 10.3174C12.415 10.0776 12.265 9.81884 12.2132 9.53351C12.161 9.24633 12.1991 8.881 12.412 8.41403C12.9075 7.32698 13.1991 6.52591 13.352 5.92581C13.5031 5.33251 13.5304 4.89199 13.4489 4.54909C13.4384 4.5052 13.4264 4.46375 13.4131 4.42458C13.6758 4.45959 13.9834 4.51107 14.3138 4.57072C14.5379 4.61116 14.7827 4.65732 15.0261 4.70321C15.3031 4.75542 15.5781 4.80728 15.8187 4.84997C16.2385 4.92448 16.6477 4.98929 16.9315 4.99885C16.9673 5.02385 17.0224 5.07054 17.0965 5.14783C17.253 5.31104 17.4466 5.56034 17.6644 5.88198C18.0975 6.52155 18.5883 7.39053 19.0231 8.28178C19.4588 9.17506 19.8271 10.0679 20.0248 10.7554C20.1249 11.1037 20.172 11.3685 20.1748 11.5422ZM16.9044 4.9822C16.9044 4.98208 16.9059 4.98274 16.9091 4.98451C16.906 4.98319 16.9044 4.98231 16.9044 4.9822Z" fill="#FCAF17" stroke="black"/>
<path d="M12 1.99998C10.4679 1.99721 8.95565 2.34652 7.57996 3.02095C6.20428 3.69538 5.00196 4.6769 4.0658 5.88974C3.12964 7.10258 2.48469 8.51432 2.18072 10.016C1.87675 11.5176 1.92189 13.0691 2.31266 14.5505C2.70344 16.0319 3.42938 17.4038 4.43448 18.5601C5.43957 19.7165 6.69693 20.6264 8.10951 21.2197C9.52208 21.813 11.0521 22.0738 12.5815 21.982C14.1108 21.8901 15.5986 21.4481 16.93 20.69H17H17.05C18.9753 19.594 20.4821 17.8897 21.334 15.8447C22.1858 13.7997 22.3345 11.5297 21.7566 9.39101C21.1788 7.25235 19.9071 5.36611 18.1412 4.02839C16.3754 2.69067 14.2153 1.9772 12 1.99998ZM13 4.06998C14.76 4.29317 16.3959 5.09507 17.6504 6.34957C18.9049 7.60406 19.7068 9.23996 19.93 11H13V4.06998ZM12 20C9.97453 19.9862 8.02968 19.2045 6.55796 17.8128C5.08624 16.4211 4.19723 14.5229 4.07033 12.5014C3.94342 10.4798 4.58808 8.48537 5.87421 6.92054C7.16033 5.35571 8.99216 4.33699 11 4.06998V12C11.004 12.1197 11.0276 12.238 11.07 12.35V12.43V12.5L15.07 19.37C14.0998 19.7853 13.0554 19.9996 12 20ZM16.83 18.36L13.73 13H19.93C19.7954 14.0546 19.4519 15.0717 18.9196 15.9921C18.3874 16.9124 17.677 17.7174 16.83 18.36Z" fill="#717171"/>
</svg>
