<svg width="18" height="18" viewBox="0 0 18 18" fill="none" xmlns="http://www.w3.org/2000/svg">
<path opacity="0.01" fill-rule="evenodd" clip-rule="evenodd" d="M9.00006 18C4.0295 18 6e-05 13.9706 6e-05 9C6e-05 4.02944 4.0295 0 9.00006 0C13.9706 0 18.0001 4.02944 18.0001 9C18.0001 13.9706 13.9706 18 9.00006 18Z" fill="black"/>
<path d="M4 17.5C2.067 17.5 0.5 15.933 0.5 14V4C0.5 2.067 2.067 0.5 4 0.5H14C15.933 0.5 17.5 2.067 17.5 4V14C17.5 15.933 15.933 17.5 14 17.5H4Z" fill="white" stroke="#FCAF17"/>
<path opacity="0.01" fill-rule="evenodd" clip-rule="evenodd" d="M9.00006 18C4.0295 18 6e-05 13.9706 6e-05 9C6e-05 4.02944 4.0295 0 9.00006 0C13.9706 0 18.0001 4.02944 18.0001 9C18.0001 13.9706 13.9706 18 9.00006 18Z" fill="black"/>
<path d="M4 17.5C2.067 17.5 0.5 15.933 0.5 14V4C0.5 2.067 2.067 0.5 4 0.5H14C15.933 0.5 17.5 2.067 17.5 4V14C17.5 15.933 15.933 17.5 14 17.5H4Z" fill="white" stroke="#FCAF17"/>
<path fill-rule="evenodd" clip-rule="evenodd" d="M12.6339 6.3966C12.8848 6.647 12.8848 7.05288 12.6339 7.30315L8.32602 11.6035C8.07518 11.8538 7.6687 11.8538 7.41786 11.6035L5.36713 9.5563C5.11628 9.30603 5.11628 8.90015 5.36713 8.64987C5.61784 8.39948 6.02445 8.39948 6.27517 8.64987L7.87189 10.2437L11.7258 6.3966C11.9766 6.14634 12.3832 6.14634 12.6339 6.3966H12.6339Z" fill="black"/>
</svg>
