<svg width="40" height="40" viewBox="0 0 40 40" fill="none" xmlns="http://www.w3.org/2000/svg">
<path d="M20 39.5C9.23046 39.5 0.500016 30.7695 0.500016 20C0.500016 9.23042 9.23046 0.49997 20 0.49997C30.7696 0.49997 39.5 9.23042 39.5 20C39.5 30.7695 30.7696 39.5 20 39.5Z" fill="#4CB748" stroke="#4CB748"/>
<path fill-rule="evenodd" clip-rule="evenodd" d="M28.2943 14.0467C28.8668 14.6192 28.8668 15.5473 28.2943 16.1196L18.4616 25.9529C17.8891 26.5252 16.9613 26.5252 16.3887 25.9529L11.708 21.2717C11.1354 20.6995 11.1354 19.7714 11.708 19.1991C12.2802 18.6265 13.2083 18.6265 13.7805 19.1991L17.425 22.8437L26.2214 14.0467C26.794 13.4744 27.722 13.4744 28.2943 14.0467Z" fill="white"/>
</svg>
