<svg width="32" height="32" viewBox="0 0 32 32" fill="none" xmlns="http://www.w3.org/2000/svg">
<rect x="13.5996" y="13.5996" width="4.8" height="15.2" fill="#FCAF17"/>
<path d="M18.6654 11.9987H13.332C12.9784 11.9987 12.6393 12.1392 12.3892 12.3892C12.1392 12.6393 11.9987 12.9784 11.9987 13.332V29.332C11.9987 29.6857 12.1392 30.0248 12.3892 30.2748C12.6393 30.5249 12.9784 30.6654 13.332 30.6654H18.6654C19.019 30.6654 19.3581 30.5249 19.6082 30.2748C19.8582 30.0248 19.9987 29.6857 19.9987 29.332V13.332C19.9987 12.9784 19.8582 12.6393 19.6082 12.3892C19.3581 12.1392 19.019 11.9987 18.6654 11.9987ZM17.332 27.9987H14.6654V14.6654H17.332V27.9987ZM29.332 1.33203H23.9987C23.6451 1.33203 23.3059 1.47251 23.0559 1.72256C22.8058 1.9726 22.6654 2.31174 22.6654 2.66536V29.332C22.6654 29.6857 22.8058 30.0248 23.0559 30.2748C23.3059 30.5249 23.6451 30.6654 23.9987 30.6654H29.332C29.6857 30.6654 30.0248 30.5249 30.2748 30.2748C30.5249 30.0248 30.6654 29.6857 30.6654 29.332V2.66536C30.6654 2.31174 30.5249 1.9726 30.2748 1.72256C30.0248 1.47251 29.6857 1.33203 29.332 1.33203ZM27.9987 27.9987H25.332V3.9987H27.9987V27.9987ZM7.9987 19.9987H2.66536C2.31174 19.9987 1.9726 20.1392 1.72256 20.3892C1.47251 20.6393 1.33203 20.9784 1.33203 21.332V29.332C1.33203 29.6857 1.47251 30.0248 1.72256 30.2748C1.9726 30.5249 2.31174 30.6654 2.66536 30.6654H7.9987C8.35232 30.6654 8.69146 30.5249 8.94151 30.2748C9.19155 30.0248 9.33203 29.6857 9.33203 29.332V21.332C9.33203 20.9784 9.19155 20.6393 8.94151 20.3892C8.69146 20.1392 8.35232 19.9987 7.9987 19.9987ZM6.66536 27.9987H3.9987V22.6654H6.66536V27.9987Z" fill="#717171"/>
</svg>
