<svg width="20" height="20" viewBox="0 0 20 20" fill="none" xmlns="http://www.w3.org/2000/svg">
<path opacity="0.01" fill-rule="evenodd" clip-rule="evenodd" d="M10 20C4.47715 20 0 15.5228 0 10C0 4.47715 4.47715 0 10 0C15.5228 0 20 4.47715 20 10C20 15.5228 15.5228 20 10 20Z" fill="#4CB748"/>
<path fill-rule="evenodd" clip-rule="evenodd" d="M15.8189 10C15.8189 6.78337 13.2158 4.18069 9.99954 4.18069C6.78288 4.18069 4.1802 6.7838 4.1802 10C4.1802 13.2167 6.78331 15.8194 9.99954 15.8194C13.2162 15.8194 15.8189 13.2163 15.8189 10ZM16.8965 10C16.8965 13.8123 13.8113 16.897 9.99954 16.897C6.18723 16.897 3.10254 13.8118 3.10254 10C3.10254 6.18772 6.18775 3.10303 9.99954 3.10303C13.8118 3.10303 16.8965 6.18824 16.8965 10ZM13.0483 7.81157C13.2588 8.02205 13.2588 8.36324 13.0483 8.57361L9.43356 12.1885C9.22308 12.3989 8.882 12.3989 8.67152 12.1885L6.95074 10.4676C6.74026 10.2572 6.74026 9.91606 6.95074 9.70568C7.16111 9.4952 7.5023 9.4952 7.71268 9.70568L9.05249 11.0455L12.2863 7.81157C12.4968 7.6012 12.838 7.6012 13.0483 7.81157Z" fill="#4CB748"/>
</svg>
