<svg width="27" height="21" viewBox="0 0 27 21" fill="none" xmlns="http://www.w3.org/2000/svg">
<path fill-rule="evenodd" clip-rule="evenodd" d="M18.9852 18.8374V18.1047C18.9852 17.6758 18.6376 17.3289 18.209 17.3289C17.7804 17.3289 17.4328 17.6758 17.4328 18.1047V18.8374C14.1999 18.4781 11.6259 15.9041 11.2668 12.6711H11.9996C12.4283 12.6711 12.7758 12.3241 12.7758 11.8953C12.7758 11.4664 12.4283 11.1195 11.9996 11.1195H11.2668C11.6259 7.8865 14.1999 5.31247 17.4328 4.95315V5.68586C17.4328 6.11473 17.7804 6.46167 18.209 6.46167C18.6376 6.46167 18.9852 6.11473 18.9852 5.68586V4.95315C22.2181 5.31247 24.7922 7.8865 25.1512 11.1195H24.4184C23.9898 11.1195 23.6422 11.4664 23.6422 11.8953C23.6422 12.3241 23.9898 12.6711 24.4184 12.6711H25.1512C24.7922 15.9041 22.2181 18.4781 18.9852 18.8374ZM17.4333 2.58122C17.4333 2.15314 17.7816 1.80541 18.2095 1.80541C18.6375 1.80541 18.9857 2.15314 18.9857 2.58122C18.9857 3.00929 18.6375 3.35703 18.2095 3.35703C17.7816 3.35703 17.4333 3.00929 17.4333 2.58122ZM20.2953 3.6153C20.4505 3.30401 20.5384 2.953 20.5384 2.58121C20.5384 1.29715 19.4938 0.252267 18.2098 0.252267C16.9259 0.252267 15.8813 1.29715 15.8813 2.58121C15.8813 2.953 15.9691 3.30401 16.1244 3.6153C12.4213 4.54835 9.67189 7.90642 9.67189 11.8954C9.67189 16.6029 13.502 20.4337 18.2098 20.4337C22.9176 20.4337 26.7478 16.6029 26.7478 11.8954C26.7478 7.90642 23.9983 4.54833 20.2953 3.6153Z" fill="#717171"/>
<path d="M18.9852 18.8374H18.7329V19.1193L19.0131 19.0882L18.9852 18.8374ZM17.4328 18.8374L17.405 19.0882L17.6851 19.1193V18.8374H17.4328ZM11.2668 12.6711V12.4188H10.985L11.0161 12.6989L11.2668 12.6711ZM11.2668 11.1195L11.0161 11.0916L10.985 11.3718H11.2668V11.1195ZM17.4328 4.95315H17.6851V4.67129L17.405 4.70242L17.4328 4.95315ZM18.9852 4.95315L19.0131 4.70242L18.7329 4.67129V4.95315H18.9852ZM25.1512 11.1195V11.3718H25.433L25.4019 11.0916L25.1512 11.1195ZM25.1512 12.6711L25.4019 12.6989L25.433 12.4188H25.1512V12.6711ZM20.2953 3.6153L20.0695 3.50271L19.9296 3.78331L20.2337 3.85992L20.2953 3.6153ZM16.1244 3.6153L16.186 3.85992L16.4901 3.78331L16.3501 3.50271L16.1244 3.6153ZM19.2375 18.8374V18.1047H18.7329V18.8374H19.2375ZM19.2375 18.1047C19.2375 17.5362 18.7767 17.0766 18.209 17.0766V17.5812C18.4985 17.5812 18.7329 17.8153 18.7329 18.1047H19.2375ZM18.209 17.0766C17.6413 17.0766 17.1806 17.5362 17.1806 18.1047H17.6851C17.6851 17.8153 17.9195 17.5812 18.209 17.5812V17.0766ZM17.1806 18.1047V18.8374H17.6851V18.1047H17.1806ZM17.4607 18.5867C14.345 18.2404 11.8636 15.759 11.5175 12.6433L11.0161 12.6989C11.3882 16.0492 14.0547 18.7158 17.405 19.0882L17.4607 18.5867ZM11.2668 12.9234H11.9996V12.4188H11.2668V12.9234ZM11.9996 12.9234C12.5674 12.9234 13.028 12.4636 13.028 11.8953H12.5235C12.5235 12.1846 12.2891 12.4188 11.9996 12.4188V12.9234ZM13.028 11.8953C13.028 11.3269 12.5674 10.8672 11.9996 10.8672V11.3718C12.2892 11.3718 12.5235 11.6059 12.5235 11.8953H13.028ZM11.9996 10.8672H11.2668V11.3718H11.9996V10.8672ZM11.5175 11.1473C11.8636 8.03162 14.345 5.55016 17.4607 5.20387L17.405 4.70242C14.0548 5.07478 11.3882 7.74138 11.0161 11.0916L11.5175 11.1473ZM17.1806 4.95315V5.68586H17.6851V4.95315H17.1806ZM17.1806 5.68586C17.1806 6.25427 17.6413 6.71394 18.209 6.71394V6.2094C17.9195 6.2094 17.6851 5.9752 17.6851 5.68586H17.1806ZM18.209 6.71394C18.7767 6.71394 19.2375 6.25427 19.2375 5.68586H18.7329C18.7329 5.9752 18.4985 6.2094 18.209 6.2094V6.71394ZM19.2375 5.68586V4.95315H18.7329V5.68586H19.2375ZM18.9573 5.20387C22.073 5.55016 24.5545 8.03163 24.9005 11.1473L25.4019 11.0916C25.0299 7.74138 22.3633 5.07478 19.0131 4.70242L18.9573 5.20387ZM25.1512 10.8672H24.4184V11.3718H25.1512V10.8672ZM24.4184 10.8672C23.8507 10.8672 23.39 11.3269 23.39 11.8953H23.8945C23.8945 11.6059 24.1289 11.3718 24.4184 11.3718V10.8672ZM23.39 11.8953C23.39 12.4636 23.8507 12.9234 24.4184 12.9234V12.4188C24.1289 12.4188 23.8945 12.1846 23.8945 11.8953H23.39ZM24.4184 12.9234H25.1512V12.4188H24.4184V12.9234ZM24.9005 12.6433C24.5545 15.759 22.073 18.2404 18.9573 18.5867L19.0131 19.0882C22.3633 18.7158 25.0299 16.0492 25.4019 12.6989L24.9005 12.6433ZM17.6856 2.58122C17.6856 2.29265 17.9207 2.05768 18.2095 2.05768V1.55314C17.6424 1.55314 17.1811 2.01364 17.1811 2.58122H17.6856ZM18.2095 2.05768C18.4983 2.05768 18.7334 2.29265 18.7334 2.58122H19.238C19.238 2.01364 18.7766 1.55314 18.2095 1.55314V2.05768ZM18.7334 2.58122C18.7334 2.86978 18.4983 3.10476 18.2095 3.10476V3.60929C18.7766 3.60929 19.238 3.14879 19.238 2.58122H18.7334ZM18.2095 3.10476C17.9207 3.10476 17.6856 2.86978 17.6856 2.58122H17.1811C17.1811 3.14879 17.6424 3.60929 18.2095 3.60929V3.10476ZM20.5211 3.72788C20.6932 3.38262 20.7906 2.99318 20.7906 2.58121H20.2861C20.2861 2.91283 20.2078 3.2254 20.0695 3.50271L20.5211 3.72788ZM20.7906 2.58121C20.7906 1.15788 19.6332 0 18.2098 0V0.504535C19.3544 0.504535 20.2861 1.43642 20.2861 2.58121H20.7906ZM18.2098 0C16.7865 0 15.629 1.15788 15.629 2.58121H16.1336C16.1336 1.43642 17.0653 0.504535 18.2098 0.504535V0ZM15.629 2.58121C15.629 2.99318 15.7265 3.38263 15.8986 3.72788L16.3501 3.50271C16.2118 3.2254 16.1336 2.91283 16.1336 2.58121H15.629ZM16.0627 3.37067C12.2505 4.33123 9.41962 7.78784 9.41962 11.8954H9.92416C9.92416 8.02499 12.5921 4.76546 16.186 3.85992L16.0627 3.37067ZM9.41962 11.8954C9.41962 16.7422 13.3627 20.6859 18.2098 20.6859V20.1814C13.6414 20.1814 9.92416 16.4636 9.92416 11.8954H9.41962ZM18.2098 20.6859C23.057 20.6859 27 16.7422 27 11.8954H26.4955C26.4955 16.4636 22.7783 20.1814 18.2098 20.1814V20.6859ZM27 11.8954C27 7.78784 24.1691 4.33122 20.3569 3.37067L20.2337 3.85992C23.8275 4.76545 26.4955 8.02499 26.4955 11.8954H27Z" fill="white"/>
<path fill-rule="evenodd" clip-rule="evenodd" d="M7.13982 11.1197H3.07112C2.52744 11.1197 2.08677 11.4664 2.08677 11.895C2.08677 12.3234 2.52745 12.6701 3.07112 12.6701H7.13982C7.68339 12.6701 8.12417 12.3234 8.12417 11.895C8.12417 11.4664 7.68339 11.1197 7.13982 11.1197Z" fill="#FCAF17" stroke="white" stroke-width="0.5"/>
<path fill-rule="evenodd" clip-rule="evenodd" d="M7.34699 14.7879H1.02916C0.600137 14.7879 0.25238 15.1372 0.25238 15.5692C0.25238 16.0011 0.600137 16.3504 1.02916 16.3504H7.34699C7.77594 16.3504 8.12377 16.0011 8.12377 15.5692C8.12377 15.1372 7.77593 14.7879 7.34699 14.7879Z" fill="#717171" stroke="white" stroke-width="0.5"/>
<path fill-rule="evenodd" clip-rule="evenodd" d="M7.34699 7.4521H1.02916C0.600137 7.4521 0.25238 7.79872 0.25238 8.22736C0.25238 8.656 0.600137 9.00262 1.02916 9.00262H7.34699C7.77594 9.00262 8.12377 8.656 8.12377 8.22736C8.12377 7.79872 7.77593 7.4521 7.34699 7.4521Z" fill="#717171" stroke="white" stroke-width="0.5"/>
<path fill-rule="evenodd" clip-rule="evenodd" d="M21.3149 11.1191H18.9869V8.79111C18.9869 8.36233 18.6395 8.01561 18.2109 8.01561C17.7823 8.01561 17.4349 8.36233 17.4349 8.79111V11.8946C17.4349 12.3232 17.7823 12.6701 18.2109 12.6701H21.3149C21.7434 12.6701 22.0909 12.3232 22.0909 11.8946C22.0909 11.4659 21.7434 11.1191 21.3149 11.1191Z" fill="#FCAF17"/>
</svg>
