<svg width="360" height="48" viewBox="0 0 360 48" fill="none" xmlns="http://www.w3.org/2000/svg">
<path opacity="0.2" fill-rule="evenodd" clip-rule="evenodd" d="M0 48V47H360V48H0Z" fill="#414141"/>
<mask id="mask0_530_37675" style="mask-type:luminance" maskUnits="userSpaceOnUse" x="0" y="0" width="360" height="32">
<path fill-rule="evenodd" clip-rule="evenodd" d="M0 32V0H360V32H0Z" fill="white"/>
</mask>
<g mask="url(#mask0_530_37675)">
<path d="M32 31.5C23.4396 31.5 16.5 24.5604 16.5 16C16.5 7.43959 23.4396 0.5 32 0.5H60C68.5604 0.5 75.5 7.43959 75.5 16C75.5 24.5604 68.5604 31.5 60 31.5H32Z" stroke="#FCAF17"/>
<path d="M46.9696 22H46.0696C45.9656 22 45.8816 21.974 45.8176 21.922C45.7536 21.87 45.7056 21.804 45.6736 21.724L44.8696 19.648H41.0116L40.2076 21.724C40.1796 21.796 40.1316 21.86 40.0636 21.916C39.9956 21.972 39.9116 22 39.8116 22H38.9116L42.3496 13.402H43.5316L46.9696 22ZM41.3356 18.808H44.5456L43.1956 15.31C43.1076 15.094 43.0216 14.824 42.9376 14.5C42.8936 14.664 42.8496 14.816 42.8056 14.956C42.7656 15.092 42.7256 15.212 42.6856 15.316L41.3356 18.808ZM49.0718 13.162V22H48.0038V13.162H49.0718ZM52.1421 13.162V22H51.0741V13.162H52.1421Z" fill="black"/>
<path fill-rule="evenodd" clip-rule="evenodd" d="M104 32C95.1634 32 88 24.8366 88 16C88 7.16344 95.1634 0 104 0H172C180.837 0 188 7.16344 188 16C188 24.8366 180.837 32 172 32H104Z" fill="#FCAF17"/>
<path d="M111.899 13.384V22H110.783V15.868C110.783 15.776 110.785 15.678 110.789 15.574C110.797 15.47 110.805 15.364 110.813 15.256L107.945 20.518C107.845 20.714 107.691 20.812 107.483 20.812H107.303C107.095 20.812 106.943 20.714 106.847 20.518L103.925 15.238C103.949 15.462 103.961 15.672 103.961 15.868V22H102.839V13.384H103.787C103.899 13.384 103.985 13.396 104.045 13.42C104.109 13.44 104.169 13.5 104.225 13.6L107.105 18.76C107.161 18.864 107.213 18.974 107.261 19.09C107.309 19.206 107.355 19.322 107.399 19.438C107.483 19.202 107.581 18.974 107.693 18.754L110.519 13.6C110.571 13.5 110.627 13.44 110.687 13.42C110.751 13.396 110.839 13.384 110.951 13.384H111.899ZM118.755 15.904V22H118.053C117.893 22 117.789 21.922 117.741 21.766L117.657 21.154C117.525 21.294 117.387 21.422 117.243 21.538C117.099 21.654 116.945 21.754 116.781 21.838C116.617 21.918 116.443 21.98 116.259 22.024C116.075 22.072 115.877 22.096 115.665 22.096C115.329 22.096 115.033 22.04 114.777 21.928C114.525 21.816 114.313 21.66 114.141 21.46C113.969 21.256 113.839 21.012 113.751 20.728C113.663 20.444 113.619 20.13 113.619 19.786V15.904H114.795V19.786C114.795 20.222 114.895 20.562 115.095 20.806C115.295 21.046 115.601 21.166 116.013 21.166C116.313 21.166 116.593 21.096 116.853 20.956C117.113 20.812 117.357 20.616 117.585 20.368V15.904H118.755ZM122.296 22.096C121.804 22.096 121.424 21.958 121.156 21.682C120.892 21.406 120.76 21.012 120.76 20.5V16.852H120.052C119.984 16.852 119.926 16.832 119.878 16.792C119.834 16.748 119.812 16.684 119.812 16.6V16.126L120.802 15.988L121.066 14.17C121.082 14.102 121.112 14.05 121.156 14.014C121.204 13.974 121.264 13.954 121.336 13.954H121.93V16H123.658V16.852H121.93V20.422C121.93 20.662 121.988 20.842 122.104 20.962C122.224 21.078 122.376 21.136 122.56 21.136C122.668 21.136 122.76 21.122 122.836 21.094C122.916 21.066 122.984 21.036 123.04 21.004C123.096 20.968 123.144 20.936 123.184 20.908C123.224 20.88 123.26 20.866 123.292 20.866C123.332 20.866 123.362 20.876 123.382 20.896C123.406 20.912 123.43 20.94 123.454 20.98L123.802 21.544C123.61 21.72 123.382 21.856 123.118 21.952C122.854 22.048 122.58 22.096 122.296 22.096ZM129.806 15.904V22H129.104C128.944 22 128.84 21.922 128.792 21.766L128.708 21.154C128.576 21.294 128.438 21.422 128.294 21.538C128.15 21.654 127.996 21.754 127.832 21.838C127.668 21.918 127.494 21.98 127.31 22.024C127.126 22.072 126.928 22.096 126.716 22.096C126.38 22.096 126.084 22.04 125.828 21.928C125.576 21.816 125.364 21.66 125.192 21.46C125.02 21.256 124.89 21.012 124.802 20.728C124.714 20.444 124.67 20.13 124.67 19.786V15.904H125.846V19.786C125.846 20.222 125.946 20.562 126.146 20.806C126.346 21.046 126.652 21.166 127.064 21.166C127.364 21.166 127.644 21.096 127.904 20.956C128.164 20.812 128.408 20.616 128.636 20.368V15.904H129.806ZM134.715 19.294C134.239 19.31 133.835 19.348 133.503 19.408C133.171 19.464 132.901 19.54 132.693 19.636C132.485 19.732 132.335 19.846 132.243 19.978C132.151 20.106 132.105 20.25 132.105 20.41C132.105 20.562 132.129 20.694 132.177 20.806C132.229 20.914 132.297 21.004 132.381 21.076C132.469 21.144 132.571 21.194 132.687 21.226C132.803 21.258 132.929 21.274 133.065 21.274C133.245 21.274 133.409 21.256 133.557 21.22C133.709 21.184 133.851 21.134 133.983 21.07C134.115 21.002 134.241 20.92 134.361 20.824C134.481 20.728 134.599 20.618 134.715 20.494V19.294ZM131.283 16.756C131.623 16.432 131.991 16.19 132.387 16.03C132.787 15.87 133.225 15.79 133.701 15.79C134.049 15.79 134.357 15.848 134.625 15.964C134.893 16.076 135.119 16.234 135.303 16.438C135.487 16.642 135.625 16.886 135.717 17.17C135.813 17.454 135.861 17.768 135.861 18.112V22H135.339C135.223 22 135.135 21.982 135.075 21.946C135.015 21.906 134.967 21.834 134.931 21.73L134.805 21.196C134.649 21.34 134.495 21.468 134.343 21.58C134.191 21.688 134.031 21.782 133.863 21.862C133.699 21.938 133.523 21.996 133.335 22.036C133.147 22.076 132.939 22.096 132.711 22.096C132.471 22.096 132.245 22.064 132.033 22C131.825 21.932 131.643 21.83 131.487 21.694C131.331 21.558 131.207 21.388 131.115 21.184C131.027 20.98 130.983 20.742 130.983 20.47C130.983 20.23 131.047 20 131.175 19.78C131.307 19.556 131.519 19.356 131.811 19.18C132.107 19.004 132.491 18.86 132.963 18.748C133.439 18.636 134.023 18.572 134.715 18.556V18.112C134.715 17.652 134.617 17.308 134.421 17.08C134.225 16.852 133.937 16.738 133.557 16.738C133.301 16.738 133.085 16.77 132.909 16.834C132.737 16.898 132.587 16.97 132.459 17.05C132.335 17.126 132.225 17.196 132.129 17.26C132.037 17.324 131.941 17.356 131.841 17.356C131.761 17.356 131.691 17.334 131.631 17.29C131.575 17.246 131.529 17.194 131.493 17.134L131.283 16.756ZM138.627 13.144V22H137.451V13.144H138.627ZM144.858 14.422V17.308H148.314V18.346H144.858V22H143.574V13.384H148.914V14.422H144.858ZM154.744 15.904V22H154.042C153.882 22 153.778 21.922 153.73 21.766L153.646 21.154C153.514 21.294 153.376 21.422 153.232 21.538C153.088 21.654 152.934 21.754 152.77 21.838C152.606 21.918 152.432 21.98 152.248 22.024C152.064 22.072 151.866 22.096 151.654 22.096C151.318 22.096 151.022 22.04 150.766 21.928C150.514 21.816 150.302 21.66 150.13 21.46C149.958 21.256 149.828 21.012 149.74 20.728C149.652 20.444 149.608 20.13 149.608 19.786V15.904H150.784V19.786C150.784 20.222 150.884 20.562 151.084 20.806C151.284 21.046 151.59 21.166 152.002 21.166C152.302 21.166 152.582 21.096 152.842 20.956C153.102 20.812 153.346 20.616 153.574 20.368V15.904H154.744ZM157.475 16.75C157.607 16.61 157.745 16.482 157.889 16.366C158.033 16.25 158.185 16.152 158.345 16.072C158.509 15.988 158.683 15.924 158.867 15.88C159.055 15.832 159.255 15.808 159.467 15.808C159.803 15.808 160.097 15.864 160.349 15.976C160.605 16.088 160.819 16.246 160.991 16.45C161.163 16.65 161.293 16.892 161.381 17.176C161.469 17.46 161.513 17.774 161.513 18.118V22H160.337V18.118C160.337 17.682 160.237 17.344 160.037 17.104C159.837 16.86 159.531 16.738 159.119 16.738C158.819 16.738 158.537 16.81 158.273 16.954C158.013 17.094 157.771 17.286 157.547 17.53V22H156.377V15.904H157.079C157.243 15.904 157.345 15.982 157.385 16.138L157.475 16.75ZM167.022 17.38C166.83 17.128 166.622 16.952 166.398 16.852C166.178 16.752 165.93 16.702 165.654 16.702C165.118 16.702 164.702 16.896 164.406 17.284C164.114 17.668 163.968 18.23 163.968 18.97C163.968 19.358 164 19.69 164.064 19.966C164.132 20.238 164.228 20.462 164.352 20.638C164.48 20.81 164.636 20.938 164.82 21.022C165.004 21.102 165.212 21.142 165.444 21.142C165.784 21.142 166.078 21.066 166.326 20.914C166.574 20.762 166.806 20.548 167.022 20.272V17.38ZM168.198 13.144V22H167.49C167.326 22 167.224 21.922 167.184 21.766L167.082 21.064C166.822 21.372 166.526 21.62 166.194 21.808C165.866 21.992 165.486 22.084 165.054 22.084C164.706 22.084 164.39 22.016 164.106 21.88C163.826 21.744 163.586 21.546 163.386 21.286C163.186 21.022 163.032 20.696 162.924 20.308C162.816 19.92 162.762 19.474 162.762 18.97C162.762 18.518 162.822 18.098 162.942 17.71C163.062 17.322 163.236 16.986 163.464 16.702C163.692 16.418 163.968 16.196 164.292 16.036C164.616 15.872 164.982 15.79 165.39 15.79C165.758 15.79 166.07 15.85 166.326 15.97C166.586 16.09 166.818 16.26 167.022 16.48V13.144H168.198ZM173.424 16.954C173.392 17.006 173.358 17.044 173.322 17.068C173.286 17.088 173.24 17.098 173.184 17.098C173.12 17.098 173.048 17.076 172.968 17.032C172.892 16.988 172.798 16.94 172.686 16.888C172.578 16.836 172.45 16.788 172.302 16.744C172.154 16.7 171.978 16.678 171.774 16.678C171.606 16.678 171.452 16.7 171.312 16.744C171.176 16.784 171.06 16.842 170.964 16.918C170.868 16.99 170.794 17.078 170.742 17.182C170.69 17.282 170.664 17.39 170.664 17.506C170.664 17.658 170.708 17.784 170.796 17.884C170.888 17.984 171.006 18.07 171.15 18.142C171.298 18.214 171.464 18.28 171.648 18.34C171.836 18.396 172.026 18.456 172.218 18.52C172.414 18.584 172.604 18.658 172.788 18.742C172.976 18.822 173.142 18.924 173.286 19.048C173.434 19.168 173.552 19.314 173.64 19.486C173.732 19.658 173.778 19.868 173.778 20.116C173.778 20.4 173.726 20.664 173.622 20.908C173.522 21.148 173.372 21.356 173.172 21.532C172.976 21.708 172.732 21.846 172.44 21.946C172.148 22.046 171.814 22.096 171.438 22.096C171.018 22.096 170.63 22.026 170.274 21.886C169.918 21.746 169.62 21.568 169.38 21.352L169.656 20.902C169.688 20.846 169.728 20.804 169.776 20.776C169.824 20.744 169.888 20.728 169.968 20.728C170.044 20.728 170.122 20.756 170.202 20.812C170.282 20.868 170.378 20.93 170.49 20.998C170.602 21.062 170.738 21.122 170.898 21.178C171.058 21.23 171.258 21.256 171.498 21.256C171.698 21.256 171.872 21.232 172.02 21.184C172.168 21.132 172.29 21.064 172.386 20.98C172.486 20.892 172.56 20.792 172.608 20.68C172.656 20.568 172.68 20.45 172.68 20.326C172.68 20.166 172.634 20.034 172.542 19.93C172.454 19.822 172.336 19.73 172.188 19.654C172.044 19.578 171.878 19.512 171.69 19.456C171.502 19.4 171.31 19.34 171.114 19.276C170.918 19.212 170.726 19.138 170.538 19.054C170.35 18.97 170.182 18.864 170.034 18.736C169.89 18.608 169.772 18.452 169.68 18.268C169.592 18.084 169.548 17.86 169.548 17.596C169.548 17.36 169.596 17.134 169.692 16.918C169.792 16.702 169.934 16.512 170.118 16.348C170.306 16.184 170.536 16.054 170.808 15.958C171.084 15.858 171.398 15.808 171.75 15.808C172.154 15.808 172.518 15.872 172.842 16C173.17 16.128 173.45 16.304 173.682 16.528L173.424 16.954Z" fill="black"/>
<path d="M216 31.5C207.44 31.5 200.5 24.5604 200.5 16C200.5 7.43959 207.44 0.5 216 0.5H276C284.56 0.5 291.5 7.43959 291.5 16C291.5 24.5604 284.56 31.5 276 31.5H216Z" stroke="#FCAF17"/>
<path d="M223.684 22H222.52V13.402H223.684V22ZM225.815 22V15.922H226.451C226.603 15.922 226.699 15.996 226.739 16.144L226.823 16.804C227.087 16.512 227.381 16.276 227.705 16.096C228.033 15.916 228.411 15.826 228.839 15.826C229.171 15.826 229.463 15.882 229.715 15.994C229.971 16.102 230.183 16.258 230.351 16.462C230.523 16.662 230.653 16.904 230.741 17.188C230.829 17.472 230.873 17.786 230.873 18.13V22H229.805V18.13C229.805 17.67 229.699 17.314 229.487 17.062C229.279 16.806 228.959 16.678 228.527 16.678C228.211 16.678 227.915 16.754 227.639 16.906C227.367 17.058 227.115 17.264 226.883 17.524V22H225.815ZM235.963 16.924C235.915 17.012 235.841 17.056 235.741 17.056C235.681 17.056 235.613 17.034 235.537 16.99C235.461 16.946 235.367 16.898 235.255 16.846C235.147 16.79 235.017 16.74 234.865 16.696C234.713 16.648 234.533 16.624 234.325 16.624C234.145 16.624 233.983 16.648 233.839 16.696C233.695 16.74 233.571 16.802 233.467 16.882C233.367 16.962 233.289 17.056 233.233 17.164C233.181 17.268 233.155 17.382 233.155 17.506C233.155 17.662 233.199 17.792 233.287 17.896C233.379 18 233.499 18.09 233.647 18.166C233.795 18.242 233.963 18.31 234.151 18.37C234.339 18.426 234.531 18.488 234.727 18.556C234.927 18.62 235.121 18.692 235.309 18.772C235.497 18.852 235.665 18.952 235.813 19.072C235.961 19.192 236.079 19.34 236.167 19.516C236.259 19.688 236.305 19.896 236.305 20.14C236.305 20.42 236.255 20.68 236.155 20.92C236.055 21.156 235.907 21.362 235.711 21.538C235.515 21.71 235.275 21.846 234.991 21.946C234.707 22.046 234.379 22.096 234.007 22.096C233.583 22.096 233.199 22.028 232.855 21.892C232.511 21.752 232.219 21.574 231.979 21.358L232.231 20.95C232.263 20.898 232.301 20.858 232.345 20.83C232.389 20.802 232.447 20.788 232.519 20.788C232.591 20.788 232.667 20.816 232.747 20.872C232.827 20.928 232.923 20.99 233.035 21.058C233.151 21.126 233.289 21.188 233.449 21.244C233.613 21.3 233.817 21.328 234.061 21.328C234.269 21.328 234.451 21.302 234.607 21.25C234.763 21.194 234.893 21.12 234.997 21.028C235.101 20.936 235.177 20.83 235.225 20.71C235.277 20.59 235.303 20.462 235.303 20.326C235.303 20.158 235.257 20.02 235.165 19.912C235.077 19.8 234.959 19.706 234.811 19.63C234.663 19.55 234.493 19.482 234.301 19.426C234.113 19.366 233.919 19.304 233.719 19.24C233.523 19.176 233.329 19.104 233.137 19.024C232.949 18.94 232.781 18.836 232.633 18.712C232.485 18.588 232.365 18.436 232.273 18.256C232.185 18.072 232.141 17.85 232.141 17.59C232.141 17.358 232.189 17.136 232.285 16.924C232.381 16.708 232.521 16.52 232.705 16.36C232.889 16.196 233.115 16.066 233.383 15.97C233.651 15.874 233.957 15.826 234.301 15.826C234.701 15.826 235.059 15.89 235.375 16.018C235.695 16.142 235.971 16.314 236.203 16.534L235.963 16.924ZM238.611 15.922V19.798C238.611 20.258 238.717 20.614 238.929 20.866C239.141 21.118 239.461 21.244 239.889 21.244C240.201 21.244 240.495 21.17 240.771 21.022C241.047 20.874 241.301 20.668 241.533 20.404V15.922H242.601V22H241.965C241.813 22 241.717 21.926 241.677 21.778L241.593 21.124C241.329 21.416 241.033 21.652 240.705 21.832C240.377 22.008 240.001 22.096 239.577 22.096C239.245 22.096 238.951 22.042 238.695 21.934C238.443 21.822 238.231 21.666 238.059 21.466C237.887 21.266 237.757 21.024 237.669 20.74C237.585 20.456 237.543 20.142 237.543 19.798V15.922H238.611ZM244.355 22V15.922H244.967C245.083 15.922 245.163 15.944 245.207 15.988C245.251 16.032 245.281 16.108 245.297 16.216L245.369 17.164C245.577 16.74 245.833 16.41 246.137 16.174C246.445 15.934 246.805 15.814 247.217 15.814C247.385 15.814 247.537 15.834 247.673 15.874C247.809 15.91 247.935 15.962 248.051 16.03L247.913 16.828C247.885 16.928 247.823 16.978 247.727 16.978C247.671 16.978 247.585 16.96 247.469 16.924C247.353 16.884 247.191 16.864 246.983 16.864C246.611 16.864 246.299 16.972 246.047 17.188C245.799 17.404 245.591 17.718 245.423 18.13V22H244.355ZM253.436 22H252.962C252.858 22 252.774 21.984 252.71 21.952C252.646 21.92 252.604 21.852 252.584 21.748L252.464 21.184C252.304 21.328 252.148 21.458 251.996 21.574C251.844 21.686 251.684 21.782 251.516 21.862C251.348 21.938 251.168 21.996 250.976 22.036C250.788 22.076 250.578 22.096 250.346 22.096C250.11 22.096 249.888 22.064 249.68 22C249.476 21.932 249.298 21.832 249.146 21.7C248.994 21.568 248.872 21.402 248.78 21.202C248.692 20.998 248.648 20.758 248.648 20.482C248.648 20.242 248.714 20.012 248.846 19.792C248.978 19.568 249.19 19.37 249.482 19.198C249.778 19.026 250.164 18.886 250.64 18.778C251.116 18.666 251.698 18.602 252.386 18.586V18.112C252.386 17.64 252.284 17.284 252.08 17.044C251.88 16.8 251.582 16.678 251.186 16.678C250.926 16.678 250.706 16.712 250.526 16.78C250.35 16.844 250.196 16.918 250.064 17.002C249.936 17.082 249.824 17.156 249.728 17.224C249.636 17.288 249.544 17.32 249.452 17.32C249.38 17.32 249.316 17.302 249.26 17.266C249.208 17.226 249.166 17.178 249.134 17.122L248.942 16.78C249.278 16.456 249.64 16.214 250.028 16.054C250.416 15.894 250.846 15.814 251.318 15.814C251.658 15.814 251.96 15.87 252.224 15.982C252.488 16.094 252.71 16.25 252.89 16.45C253.07 16.65 253.206 16.892 253.298 17.176C253.39 17.46 253.436 17.772 253.436 18.112V22ZM250.664 21.346C250.852 21.346 251.024 21.328 251.18 21.292C251.336 21.252 251.482 21.198 251.618 21.13C251.758 21.058 251.89 20.972 252.014 20.872C252.142 20.772 252.266 20.658 252.386 20.53V19.264C251.894 19.28 251.476 19.32 251.132 19.384C250.788 19.444 250.508 19.524 250.292 19.624C250.076 19.724 249.918 19.842 249.818 19.978C249.722 20.114 249.674 20.266 249.674 20.434C249.674 20.594 249.7 20.732 249.752 20.848C249.804 20.964 249.874 21.06 249.962 21.136C250.05 21.208 250.154 21.262 250.274 21.298C250.394 21.33 250.524 21.346 250.664 21.346ZM255.054 22V15.922H255.69C255.842 15.922 255.938 15.996 255.978 16.144L256.062 16.804C256.326 16.512 256.62 16.276 256.944 16.096C257.272 15.916 257.65 15.826 258.078 15.826C258.41 15.826 258.702 15.882 258.954 15.994C259.21 16.102 259.422 16.258 259.59 16.462C259.762 16.662 259.892 16.904 259.98 17.188C260.068 17.472 260.112 17.786 260.112 18.13V22H259.044V18.13C259.044 17.67 258.938 17.314 258.726 17.062C258.518 16.806 258.198 16.678 257.766 16.678C257.45 16.678 257.154 16.754 256.878 16.906C256.606 17.058 256.354 17.264 256.122 17.524V22H255.054ZM265.868 17.002C265.836 17.046 265.804 17.08 265.772 17.104C265.74 17.128 265.694 17.14 265.634 17.14C265.574 17.14 265.508 17.116 265.436 17.068C265.368 17.016 265.28 16.96 265.172 16.9C265.064 16.84 264.932 16.786 264.776 16.738C264.624 16.686 264.436 16.66 264.212 16.66C263.916 16.66 263.654 16.714 263.426 16.822C263.198 16.926 263.006 17.078 262.85 17.278C262.698 17.478 262.582 17.72 262.502 18.004C262.426 18.288 262.388 18.606 262.388 18.958C262.388 19.326 262.43 19.654 262.514 19.942C262.598 20.226 262.716 20.466 262.868 20.662C263.02 20.854 263.204 21.002 263.42 21.106C263.64 21.206 263.886 21.256 264.158 21.256C264.418 21.256 264.632 21.226 264.8 21.166C264.968 21.102 265.108 21.032 265.22 20.956C265.332 20.88 265.424 20.812 265.496 20.752C265.568 20.688 265.64 20.656 265.712 20.656C265.804 20.656 265.872 20.69 265.916 20.758L266.216 21.148C265.952 21.472 265.622 21.71 265.226 21.862C264.83 22.01 264.412 22.084 263.972 22.084C263.592 22.084 263.238 22.014 262.91 21.874C262.586 21.734 262.304 21.532 262.064 21.268C261.824 21 261.634 20.672 261.494 20.284C261.358 19.896 261.29 19.454 261.29 18.958C261.29 18.506 261.352 18.088 261.476 17.704C261.604 17.32 261.788 16.99 262.028 16.714C262.272 16.434 262.572 16.216 262.928 16.06C263.284 15.904 263.692 15.826 264.152 15.826C264.576 15.826 264.952 15.896 265.28 16.036C265.608 16.172 265.898 16.366 266.15 16.618L265.868 17.002ZM269.729 15.826C270.093 15.826 270.429 15.888 270.737 16.012C271.045 16.132 271.311 16.308 271.535 16.54C271.759 16.768 271.933 17.052 272.057 17.392C272.185 17.728 272.249 18.112 272.249 18.544C272.249 18.712 272.231 18.824 272.195 18.88C272.159 18.936 272.091 18.964 271.991 18.964H267.947C267.955 19.348 268.007 19.682 268.103 19.966C268.199 20.25 268.331 20.488 268.499 20.68C268.667 20.868 268.867 21.01 269.099 21.106C269.331 21.198 269.591 21.244 269.879 21.244C270.147 21.244 270.377 21.214 270.569 21.154C270.765 21.09 270.933 21.022 271.073 20.95C271.213 20.878 271.329 20.812 271.421 20.752C271.517 20.688 271.599 20.656 271.667 20.656C271.755 20.656 271.823 20.69 271.871 20.758L272.171 21.148C272.039 21.308 271.881 21.448 271.697 21.568C271.513 21.684 271.315 21.78 271.103 21.856C270.895 21.932 270.679 21.988 270.455 22.024C270.231 22.064 270.009 22.084 269.789 22.084C269.369 22.084 268.981 22.014 268.625 21.874C268.273 21.73 267.967 21.522 267.707 21.25C267.451 20.974 267.251 20.634 267.107 20.23C266.963 19.826 266.891 19.362 266.891 18.838C266.891 18.414 266.955 18.018 267.083 17.65C267.215 17.282 267.403 16.964 267.647 16.696C267.891 16.424 268.189 16.212 268.541 16.06C268.893 15.904 269.289 15.826 269.729 15.826ZM269.753 16.612C269.237 16.612 268.831 16.762 268.535 17.062C268.239 17.358 268.055 17.77 267.983 18.298H271.289C271.289 18.05 271.255 17.824 271.187 17.62C271.119 17.412 271.019 17.234 270.887 17.086C270.755 16.934 270.593 16.818 270.401 16.738C270.213 16.654 269.997 16.612 269.753 16.612Z" fill="black"/>
<path d="M320 31.5C311.44 31.5 304.5 24.5604 304.5 16C304.5 7.43959 311.44 0.5 320 0.5H360C368.56 0.5 375.5 7.43959 375.5 16C375.5 24.5604 368.56 31.5 360 31.5H320Z" stroke="#FCAF17"/>
<path d="M325.211 17.704C325.211 18.348 325.109 18.934 324.905 19.462C324.701 19.99 324.413 20.442 324.041 20.818C323.669 21.194 323.223 21.486 322.703 21.694C322.183 21.898 321.607 22 320.975 22H317.759V13.402H320.975C321.607 13.402 322.183 13.506 322.703 13.714C323.223 13.918 323.669 14.21 324.041 14.59C324.413 14.966 324.701 15.418 324.905 15.946C325.109 16.474 325.211 17.06 325.211 17.704ZM324.017 17.704C324.017 17.176 323.945 16.704 323.801 16.288C323.657 15.872 323.453 15.52 323.189 15.232C322.925 14.944 322.605 14.724 322.229 14.572C321.853 14.42 321.435 14.344 320.975 14.344H318.929V21.058H320.975C321.435 21.058 321.853 20.982 322.229 20.83C322.605 20.678 322.925 20.46 323.189 20.176C323.453 19.888 323.657 19.536 323.801 19.12C323.945 18.704 324.017 18.232 324.017 17.704ZM329.032 15.826C329.396 15.826 329.732 15.888 330.04 16.012C330.348 16.132 330.614 16.308 330.838 16.54C331.062 16.768 331.236 17.052 331.36 17.392C331.488 17.728 331.552 18.112 331.552 18.544C331.552 18.712 331.534 18.824 331.498 18.88C331.462 18.936 331.394 18.964 331.294 18.964H327.25C327.258 19.348 327.31 19.682 327.406 19.966C327.502 20.25 327.634 20.488 327.802 20.68C327.97 20.868 328.17 21.01 328.402 21.106C328.634 21.198 328.894 21.244 329.182 21.244C329.45 21.244 329.68 21.214 329.872 21.154C330.068 21.09 330.236 21.022 330.376 20.95C330.516 20.878 330.632 20.812 330.724 20.752C330.82 20.688 330.902 20.656 330.97 20.656C331.058 20.656 331.126 20.69 331.174 20.758L331.474 21.148C331.342 21.308 331.184 21.448 331 21.568C330.816 21.684 330.618 21.78 330.406 21.856C330.198 21.932 329.982 21.988 329.758 22.024C329.534 22.064 329.312 22.084 329.092 22.084C328.672 22.084 328.284 22.014 327.928 21.874C327.576 21.73 327.27 21.522 327.01 21.25C326.754 20.974 326.554 20.634 326.41 20.23C326.266 19.826 326.194 19.362 326.194 18.838C326.194 18.414 326.258 18.018 326.386 17.65C326.518 17.282 326.706 16.964 326.95 16.696C327.194 16.424 327.492 16.212 327.844 16.06C328.196 15.904 328.592 15.826 329.032 15.826ZM329.056 16.612C328.54 16.612 328.134 16.762 327.838 17.062C327.542 17.358 327.358 17.77 327.286 18.298H330.592C330.592 18.05 330.558 17.824 330.49 17.62C330.422 17.412 330.322 17.234 330.19 17.086C330.058 16.934 329.896 16.818 329.704 16.738C329.516 16.654 329.3 16.612 329.056 16.612ZM332.919 24.058V15.922H333.555C333.707 15.922 333.803 15.996 333.843 16.144L333.933 16.864C334.193 16.548 334.489 16.294 334.821 16.102C335.157 15.91 335.543 15.814 335.979 15.814C336.327 15.814 336.643 15.882 336.927 16.018C337.211 16.15 337.453 16.348 337.653 16.612C337.853 16.872 338.007 17.196 338.115 17.584C338.223 17.972 338.277 18.418 338.277 18.922C338.277 19.37 338.217 19.788 338.097 20.176C337.977 20.56 337.805 20.894 337.581 21.178C337.357 21.458 337.081 21.68 336.753 21.844C336.429 22.004 336.063 22.084 335.655 22.084C335.279 22.084 334.957 22.022 334.689 21.898C334.425 21.774 334.191 21.598 333.987 21.37V24.058H332.919ZM335.625 16.678C335.277 16.678 334.971 16.758 334.707 16.918C334.447 17.078 334.207 17.304 333.987 17.596V20.536C334.183 20.8 334.397 20.986 334.629 21.094C334.865 21.202 335.127 21.256 335.415 21.256C335.979 21.256 336.413 21.054 336.717 20.65C337.021 20.246 337.173 19.67 337.173 18.922C337.173 18.526 337.137 18.186 337.065 17.902C336.997 17.618 336.897 17.386 336.765 17.206C336.633 17.022 336.471 16.888 336.279 16.804C336.087 16.72 335.869 16.678 335.625 16.678ZM342 15.826C342.444 15.826 342.844 15.9 343.2 16.048C343.56 16.196 343.864 16.406 344.112 16.678C344.364 16.95 344.556 17.28 344.688 17.668C344.824 18.052 344.892 18.482 344.892 18.958C344.892 19.438 344.824 19.87 344.688 20.254C344.556 20.638 344.364 20.966 344.112 21.238C343.864 21.51 343.56 21.72 343.2 21.868C342.844 22.012 342.444 22.084 342 22.084C341.556 22.084 341.154 22.012 340.794 21.868C340.438 21.72 340.134 21.51 339.882 21.238C339.63 20.966 339.436 20.638 339.3 20.254C339.164 19.87 339.096 19.438 339.096 18.958C339.096 18.482 339.164 18.052 339.3 17.668C339.436 17.28 339.63 16.95 339.882 16.678C340.134 16.406 340.438 16.196 340.794 16.048C341.154 15.9 341.556 15.826 342 15.826ZM342 21.25C342.6 21.25 343.048 21.05 343.344 20.65C343.64 20.246 343.788 19.684 343.788 18.964C343.788 18.24 343.64 17.676 343.344 17.272C343.048 16.868 342.6 16.666 342 16.666C341.696 16.666 341.432 16.718 341.208 16.822C340.984 16.926 340.796 17.076 340.644 17.272C340.496 17.468 340.384 17.71 340.308 17.998C340.236 18.282 340.2 18.604 340.2 18.964C340.2 19.324 340.236 19.646 340.308 19.93C340.384 20.214 340.496 20.454 340.644 20.65C340.796 20.842 340.984 20.99 341.208 21.094C341.432 21.198 341.696 21.25 342 21.25ZM349.688 16.924C349.64 17.012 349.566 17.056 349.466 17.056C349.406 17.056 349.338 17.034 349.262 16.99C349.186 16.946 349.092 16.898 348.98 16.846C348.872 16.79 348.742 16.74 348.59 16.696C348.438 16.648 348.258 16.624 348.05 16.624C347.87 16.624 347.708 16.648 347.564 16.696C347.42 16.74 347.296 16.802 347.192 16.882C347.092 16.962 347.014 17.056 346.958 17.164C346.906 17.268 346.88 17.382 346.88 17.506C346.88 17.662 346.924 17.792 347.012 17.896C347.104 18 347.224 18.09 347.372 18.166C347.52 18.242 347.688 18.31 347.876 18.37C348.064 18.426 348.256 18.488 348.452 18.556C348.652 18.62 348.846 18.692 349.034 18.772C349.222 18.852 349.39 18.952 349.538 19.072C349.686 19.192 349.804 19.34 349.892 19.516C349.984 19.688 350.03 19.896 350.03 20.14C350.03 20.42 349.98 20.68 349.88 20.92C349.78 21.156 349.632 21.362 349.436 21.538C349.24 21.71 349 21.846 348.716 21.946C348.432 22.046 348.104 22.096 347.732 22.096C347.308 22.096 346.924 22.028 346.58 21.892C346.236 21.752 345.944 21.574 345.704 21.358L345.956 20.95C345.988 20.898 346.026 20.858 346.07 20.83C346.114 20.802 346.172 20.788 346.244 20.788C346.316 20.788 346.392 20.816 346.472 20.872C346.552 20.928 346.648 20.99 346.76 21.058C346.876 21.126 347.014 21.188 347.174 21.244C347.338 21.3 347.542 21.328 347.786 21.328C347.994 21.328 348.176 21.302 348.332 21.25C348.488 21.194 348.618 21.12 348.722 21.028C348.826 20.936 348.902 20.83 348.95 20.71C349.002 20.59 349.028 20.462 349.028 20.326C349.028 20.158 348.982 20.02 348.89 19.912C348.802 19.8 348.684 19.706 348.536 19.63C348.388 19.55 348.218 19.482 348.026 19.426C347.838 19.366 347.644 19.304 347.444 19.24C347.248 19.176 347.054 19.104 346.862 19.024C346.674 18.94 346.506 18.836 346.358 18.712C346.21 18.588 346.09 18.436 345.998 18.256C345.91 18.072 345.866 17.85 345.866 17.59C345.866 17.358 345.914 17.136 346.01 16.924C346.106 16.708 346.246 16.52 346.43 16.36C346.614 16.196 346.84 16.066 347.108 15.97C347.376 15.874 347.682 15.826 348.026 15.826C348.426 15.826 348.784 15.89 349.1 16.018C349.42 16.142 349.696 16.314 349.928 16.534L349.688 16.924ZM352.599 15.922V22H351.531V15.922H352.599ZM352.839 14.014C352.839 14.118 352.817 14.216 352.773 14.308C352.733 14.396 352.677 14.476 352.605 14.548C352.537 14.616 352.457 14.67 352.365 14.71C352.273 14.75 352.175 14.77 352.071 14.77C351.967 14.77 351.869 14.75 351.777 14.71C351.689 14.67 351.609 14.616 351.537 14.548C351.469 14.476 351.415 14.396 351.375 14.308C351.335 14.216 351.315 14.118 351.315 14.014C351.315 13.91 351.335 13.812 351.375 13.72C351.415 13.624 351.469 13.542 351.537 13.474C351.609 13.402 351.689 13.346 351.777 13.306C351.869 13.266 351.967 13.246 352.071 13.246C352.175 13.246 352.273 13.266 352.365 13.306C352.457 13.346 352.537 13.402 352.605 13.474C352.677 13.542 352.733 13.624 352.773 13.72C352.817 13.812 352.839 13.91 352.839 14.014ZM356.323 22.096C355.843 22.096 355.473 21.962 355.213 21.694C354.957 21.426 354.829 21.04 354.829 20.536V16.816H354.097C354.033 16.816 353.979 16.798 353.935 16.762C353.891 16.722 353.869 16.662 353.869 16.582V16.156L354.865 16.03L355.111 14.152C355.119 14.092 355.145 14.044 355.189 14.008C355.233 13.968 355.289 13.948 355.357 13.948H355.897V16.042H357.637V16.816H355.897V20.464C355.897 20.72 355.959 20.91 356.083 21.034C356.207 21.158 356.367 21.22 356.563 21.22C356.675 21.22 356.771 21.206 356.851 21.178C356.935 21.146 357.007 21.112 357.067 21.076C357.127 21.04 357.177 21.008 357.217 20.98C357.261 20.948 357.299 20.932 357.331 20.932C357.387 20.932 357.437 20.966 357.481 21.034L357.793 21.544C357.609 21.716 357.387 21.852 357.127 21.952C356.867 22.048 356.599 22.096 356.323 22.096ZM362.438 16.924C362.39 17.012 362.316 17.056 362.216 17.056C362.156 17.056 362.088 17.034 362.012 16.99C361.936 16.946 361.842 16.898 361.73 16.846C361.622 16.79 361.492 16.74 361.34 16.696C361.188 16.648 361.008 16.624 360.8 16.624C360.62 16.624 360.458 16.648 360.314 16.696C360.17 16.74 360.046 16.802 359.942 16.882C359.842 16.962 359.764 17.056 359.708 17.164C359.656 17.268 359.63 17.382 359.63 17.506C359.63 17.662 359.674 17.792 359.762 17.896C359.854 18 359.974 18.09 360.122 18.166C360.27 18.242 360.438 18.31 360.626 18.37C360.814 18.426 361.006 18.488 361.202 18.556C361.402 18.62 361.596 18.692 361.784 18.772C361.972 18.852 362.14 18.952 362.288 19.072C362.436 19.192 362.554 19.34 362.642 19.516C362.734 19.688 362.78 19.896 362.78 20.14C362.78 20.42 362.73 20.68 362.63 20.92C362.53 21.156 362.382 21.362 362.186 21.538C361.99 21.71 361.75 21.846 361.466 21.946C361.182 22.046 360.854 22.096 360.482 22.096C360.058 22.096 359.674 22.028 359.33 21.892C358.986 21.752 358.694 21.574 358.454 21.358L358.706 20.95C358.738 20.898 358.776 20.858 358.82 20.83C358.864 20.802 358.922 20.788 358.994 20.788C359.066 20.788 359.142 20.816 359.222 20.872C359.302 20.928 359.398 20.99 359.51 21.058C359.626 21.126 359.764 21.188 359.924 21.244C360.088 21.3 360.292 21.328 360.536 21.328C360.744 21.328 360.926 21.302 361.082 21.25C361.238 21.194 361.368 21.12 361.472 21.028C361.576 20.936 361.652 20.83 361.7 20.71C361.752 20.59 361.778 20.462 361.778 20.326C361.778 20.158 361.732 20.02 361.64 19.912C361.552 19.8 361.434 19.706 361.286 19.63C361.138 19.55 360.968 19.482 360.776 19.426C360.588 19.366 360.394 19.304 360.194 19.24C359.998 19.176 359.804 19.104 359.612 19.024C359.424 18.94 359.256 18.836 359.108 18.712C358.96 18.588 358.84 18.436 358.748 18.256C358.66 18.072 358.616 17.85 358.616 17.59C358.616 17.358 358.664 17.136 358.76 16.924C358.856 16.708 358.996 16.52 359.18 16.36C359.364 16.196 359.59 16.066 359.858 15.97C360.126 15.874 360.432 15.826 360.776 15.826C361.176 15.826 361.534 15.89 361.85 16.018C362.17 16.142 362.446 16.314 362.678 16.534L362.438 16.924Z" fill="black"/>
</g>
</svg>
