<svg width="20" height="20" viewBox="0 0 20 20" fill="none" xmlns="http://www.w3.org/2000/svg">
<path opacity="0.01" fill-rule="evenodd" clip-rule="evenodd" d="M10.0001 20.0001C4.47727 20.0001 0.00012 15.523 0.00012 10.0001C0.00012 4.47727 4.47727 0.00012 10.0001 0.00012C15.523 0.00012 20.0001 4.47727 20.0001 10.0001C20.0001 15.523 15.523 20.0001 10.0001 20.0001Z" fill="#D1596B"/>
<path fill-rule="evenodd" clip-rule="evenodd" d="M10.0001 4.14699C13.2326 4.14699 15.8531 6.76749 15.8531 10.0001C15.8531 13.2326 13.2326 15.8531 10.0001 15.8531C6.7675 15.8531 4.147 13.2326 4.147 10.0001C4.147 6.76749 6.7675 4.14699 10.0001 4.14699ZM5.15385 14.8463C5.78296 15.4753 6.51578 15.9693 7.33203 16.3146C8.17764 16.6723 9.07528 16.8536 10.0001 16.8536C10.9248 16.8536 11.8225 16.6723 12.6681 16.3146C13.4843 15.9694 14.2172 15.4753 14.8463 14.8463C15.4754 14.2171 15.9694 13.4843 16.3146 12.6681C16.6723 11.8224 16.8537 10.9248 16.8537 10.0001C16.8537 9.07525 16.6723 8.17761 16.3146 7.33202C15.9694 6.51577 15.4754 5.78294 14.8463 5.15384C14.2172 4.52473 13.4843 4.03071 12.6681 3.68548C11.8225 3.3278 10.9248 3.14648 10.0001 3.14648C9.07528 3.14648 8.17764 3.32783 7.33203 3.68548C6.51578 4.03071 5.78295 4.52476 5.15385 5.15384C4.52474 5.78292 4.03072 6.51577 3.68546 7.332C3.32783 8.17761 3.14648 9.07525 3.14648 10.0001C3.14648 10.9248 3.32783 11.8225 3.68549 12.6681C4.03072 13.4843 4.52477 14.2171 5.15385 14.8463Z" fill="#D1596B"/>
<path fill-rule="evenodd" clip-rule="evenodd" d="M10 4.15863C8.43973 4.15863 6.97284 4.76625 5.86954 5.86953C4.76626 6.97283 4.15864 8.43972 4.15864 10C4.15864 11.5603 4.76626 13.0272 5.86954 14.1304C6.97282 15.2337 8.43973 15.8413 10 15.8413C11.5603 15.8413 13.0272 15.2337 14.1305 14.1304C15.2338 13.0272 15.8414 11.5603 15.8414 10C15.8414 8.43972 15.2338 6.97281 14.1305 5.86953C13.0272 4.76623 11.5603 4.15863 10 4.15863ZM10 15.8647C8.4335 15.8647 6.96072 15.2547 5.85303 14.147C4.74534 13.0393 4.13529 11.5665 4.13529 10C4.13529 8.43349 4.74532 6.96071 5.85303 5.85302C6.96072 4.74533 8.4335 4.13528 10 4.13528C11.5665 4.13528 13.0393 4.74533 14.147 5.85302C15.2547 6.96074 15.8647 8.43349 15.8647 10C15.8647 11.5665 15.2547 13.0393 14.147 14.147C13.0393 15.2547 11.5665 15.8647 10 15.8647H10ZM10 3.15811C9.07683 3.15811 8.18073 3.33913 7.33655 3.69618C6.52173 4.04083 5.79011 4.53401 5.16208 5.16204C4.53402 5.7901 4.04084 6.52169 3.69619 7.33649C3.33914 8.18069 3.15812 9.07682 3.15812 10C3.15812 10.9231 3.33914 11.8193 3.69619 12.6635C4.04084 13.4783 4.53402 14.2099 5.16208 14.8379C5.79009 15.4659 6.52168 15.9591 7.33655 16.3038C8.18064 16.6608 9.07676 16.8419 10 16.8419C10.9233 16.8419 11.8194 16.6608 12.6635 16.3038C13.4783 15.9591 14.2099 15.4659 14.838 14.8379C15.466 14.2098 15.9592 13.4782 16.3038 12.6635C16.6609 11.8193 16.8419 10.9232 16.8419 10C16.8419 9.07682 16.6609 8.1807 16.3038 7.33654C15.9592 6.52176 15.466 5.79017 14.838 5.16207C14.2099 4.53404 13.4783 4.04085 12.6635 3.69621C11.8193 3.33914 10.9232 3.15811 10 3.15811ZM10 16.8652C9.07361 16.8652 8.17445 16.6836 7.32744 16.3253C6.50979 15.9795 5.7757 15.4846 5.14557 14.8545C4.51539 14.2243 4.02052 13.4901 3.67471 12.6725C3.31642 11.8255 3.13477 10.9263 3.13477 10C3.13477 9.0737 3.31642 8.17449 3.67469 7.32742C4.0205 6.50982 4.51539 5.77573 5.14555 5.14555C5.77571 4.51537 6.50982 4.0205 7.32742 3.67469C8.1745 3.31643 9.07368 3.13477 10 3.13477C10.9264 3.13477 11.8256 3.31642 12.6726 3.67471C13.4902 4.02052 14.2243 4.51541 14.8545 5.14557C15.4847 5.7758 15.9795 6.50989 16.3253 7.32744C16.6836 8.17452 16.8653 9.0737 16.8653 10C16.8653 10.9263 16.6836 11.8255 16.3253 12.6726C15.9795 13.4902 15.4847 14.2242 14.8545 14.8545C14.2243 15.4846 13.4902 15.9795 12.6726 16.3254C11.8256 16.6836 10.9264 16.8652 10 16.8652L10 16.8652Z" fill="#D1596B"/>
<path fill-rule="evenodd" clip-rule="evenodd" d="M7.45092 12.549C7.54872 12.6468 7.67686 12.6957 7.80505 12.6957C7.93321 12.6957 8.06137 12.6468 8.15917 12.549L10.0002 10.7079L11.8413 12.549C11.9391 12.6468 12.0672 12.6957 12.1954 12.6957C12.3236 12.6957 12.4517 12.6468 12.5495 12.549C12.7451 12.3534 12.7451 12.0363 12.5495 11.8407L10.7084 9.99968L12.5495 8.15861C12.7451 7.96302 12.7451 7.64591 12.5495 7.45036C12.354 7.25477 12.0368 7.25477 11.8413 7.45036L10.0002 9.29143L8.15913 7.45036C7.96354 7.25477 7.64644 7.25477 7.45087 7.45036C7.25529 7.64592 7.25529 7.96301 7.45087 8.15861L9.29198 9.99968L7.45087 11.8407C7.25532 12.0363 7.25532 12.3534 7.45092 12.549Z" fill="#D1596B"/>
<path fill-rule="evenodd" clip-rule="evenodd" d="M10.0001 10.6906L11.8474 12.5378C11.9396 12.6301 12.0623 12.681 12.1928 12.681C12.3233 12.681 12.446 12.6301 12.5383 12.5378C12.6306 12.4456 12.6814 12.3229 12.6814 12.1924C12.6814 12.0619 12.6306 11.9392 12.5383 11.8469L10.691 9.99962L12.5383 8.15235C12.6305 8.06008 12.6814 7.93737 12.6814 7.80686C12.6814 7.67635 12.6305 7.55369 12.5383 7.4614C12.446 7.36913 12.3233 7.3183 12.1928 7.3183C12.0623 7.3183 11.9396 7.36913 11.8474 7.4614L10.0001 9.30866L8.15281 7.4614C8.06054 7.36913 7.93783 7.3183 7.80732 7.3183C7.67681 7.3183 7.55415 7.36913 7.46186 7.4614C7.27138 7.65191 7.27138 7.96184 7.46186 8.15235L9.30913 9.99962L7.46186 11.8469C7.36959 11.9392 7.31876 12.0619 7.31876 12.1924C7.31876 12.3229 7.36959 12.4456 7.46186 12.5378C7.55416 12.6301 7.67683 12.681 7.80735 12.681C7.93786 12.681 8.06054 12.6301 8.15284 12.5378L10.0001 10.6906ZM12.1928 12.7043C12.0561 12.7043 11.9275 12.6511 11.8308 12.5543L10.0001 10.7236L8.16935 12.5543C8.07266 12.6511 7.94408 12.7043 7.80735 12.7043C7.6706 12.7043 7.54203 12.6511 7.44534 12.5543C7.34866 12.4576 7.29541 12.3291 7.29541 12.1924C7.29541 12.0556 7.34866 11.9271 7.44534 11.8304L9.27612 9.99963L7.44534 8.16887C7.24577 7.96925 7.24577 7.64449 7.44534 7.44487C7.54203 7.34818 7.67059 7.29492 7.80735 7.29492C7.94408 7.29492 8.07265 7.34817 8.16935 7.44487L10.0001 9.27565L11.8309 7.44487C11.9276 7.34818 12.0561 7.29492 12.1929 7.29492C12.3296 7.29492 12.4581 7.34817 12.5548 7.44487C12.6515 7.54158 12.7048 7.67014 12.7048 7.80687C12.7048 7.94362 12.6515 8.07217 12.5548 8.16887L10.7241 9.99963L12.5549 11.8304C12.6516 11.9271 12.7048 12.0556 12.7048 12.1924C12.7048 12.3291 12.6516 12.4576 12.5549 12.5543C12.4581 12.651 12.3296 12.7043 12.1928 12.7043Z" fill="#D1596B"/>
</svg>
