<svg width="23" height="18" viewBox="0 0 23 18" fill="none" xmlns="http://www.w3.org/2000/svg">
<path d="M3.38538 12.0798L0.0300683 10.0271L14.1224 10.0271L17.4777 12.0798L3.38538 12.0798Z" fill="#FCAF17"/>
<path d="M0.872481 13.9273C0.390679 13.9273 0.000100203 14.3179 0.000100203 14.7997C0.000100203 15.2815 0.390679 15.672 0.872481 15.672V13.9273ZM8.99769 15.672C9.4795 15.672 9.87008 15.2815 9.87008 14.7997C9.87008 14.3179 9.4795 13.9273 8.99769 13.9273V15.672ZM14.258 14.1867C13.9175 13.8458 13.3652 13.8455 13.0243 14.1859C12.6834 14.5264 12.683 15.0788 13.0235 15.4197L14.258 14.1867ZM15.3449 17.7441C15.6854 18.085 16.2377 18.0853 16.5786 17.7449C16.9195 17.4044 16.9199 16.852 16.5794 16.5111L15.3449 17.7441ZM13.0235 14.1867C12.683 14.5276 12.6834 15.08 13.0243 15.4205C13.3652 15.7609 13.9175 15.7606 14.258 15.4197L13.0235 14.1867ZM16.5794 13.0953C16.9199 12.7544 16.9195 12.202 16.5786 11.8615C16.2377 11.5211 15.6854 11.5214 15.3449 11.8623L16.5794 13.0953ZM0.872481 6.96638C0.390679 6.96638 0.000100203 7.35696 0.000100203 7.83876C0.000100203 8.32056 0.390679 8.71114 0.872481 8.71114V6.96638ZM20.746 8.85732L20.1291 9.4742L20.1292 9.4743L20.746 8.85732ZM20.746 13.7846L21.3628 14.4016L21.3628 14.4016L20.746 13.7846ZM13.6407 13.9308C13.1589 13.9308 12.7684 14.3214 12.7684 14.8032C12.7684 15.285 13.1589 15.6756 13.6407 15.6756V13.9308ZM0.872481 -2.50814e-05C0.390679 -2.50814e-05 0.000100203 0.390553 0.000100203 0.872356C0.000100203 1.35416 0.390679 1.74474 0.872481 1.74474V-2.50814e-05ZM21.7659 1.74474C22.2477 1.74474 22.6383 1.35416 22.6383 0.872356C22.6383 0.390553 22.2477 -2.50814e-05 21.7659 -2.50814e-05V1.74474ZM0.872481 15.672H8.99769V13.9273H0.872481V15.672ZM13.0235 15.4197L15.3449 17.7441L16.5794 16.5111L14.258 14.1867L13.0235 15.4197ZM14.258 15.4197L16.5794 13.0953L15.3449 11.8623L13.0235 14.1867L14.258 15.4197ZM0.872481 8.71114H18.2837V6.96638H0.872481V8.71114ZM18.2837 8.71114C18.9767 8.71114 19.6403 8.98541 20.1291 9.4742L21.3628 8.24044C20.5456 7.42327 19.4378 6.96638 18.2837 6.96638V8.71114ZM20.1292 9.4743C20.6183 9.96314 20.8936 10.6289 20.8936 11.3209H22.6383C22.6383 10.1672 22.1799 9.05722 21.3627 8.24034L20.1292 9.4743ZM20.8936 11.3209C20.8936 12.0129 20.6183 12.6787 20.1292 13.1677L21.3628 14.4016C22.1799 13.5846 22.6383 12.4746 22.6383 11.3209H20.8936ZM20.1292 13.1677C19.6403 13.6565 18.9767 13.9308 18.2837 13.9308V15.6756C19.4379 15.6756 20.5457 15.2185 21.3628 14.4016L20.1292 13.1677ZM18.2837 13.9308H13.6407V15.6756H18.2837V13.9308ZM0.872481 1.74474H21.7659V-2.50814e-05H0.872481V1.74474Z" fill="#717171"/>
</svg>
