<svg width="25" height="25" viewBox="0 0 25 25" fill="none" xmlns="http://www.w3.org/2000/svg">
<path opacity="0.01" fill-rule="evenodd" clip-rule="evenodd" d="M0.255102 24.7449V0.255102H24.7449V24.7449H0.255102Z" fill="#080808" stroke="black" stroke-width="0.5"/>
<path fill-rule="evenodd" clip-rule="evenodd" d="M3.87217 4.48847V8.80106H5.10434V5.10456H8.80084V3.87238H4.48825C4.14771 3.87238 3.87217 4.14793 3.87217 4.48847Z" fill="#080808" stroke="black" stroke-width="0.5"/>
<path fill-rule="evenodd" clip-rule="evenodd" d="M20.5114 3.87238H16.1988V5.10456H19.8954V8.80106H21.1276V4.48847C21.1276 4.14793 20.852 3.87238 20.5114 3.87238Z" fill="#080808" stroke="black" stroke-width="0.5"/>
<path fill-rule="evenodd" clip-rule="evenodd" d="M19.8953 19.8956H16.1988V21.1277H20.5114C20.8519 21.1277 21.1275 20.8522 21.1275 20.5117V16.1991H19.8953V19.8956Z" fill="#080808" stroke="black" stroke-width="0.5"/>
<path fill-rule="evenodd" clip-rule="evenodd" d="M5.10434 16.1991H3.87217V20.5116C3.87217 20.8522 4.14771 21.1277 4.48825 21.1277H8.80084V19.8955H5.10434V16.1991Z" fill="#080808" stroke="black" stroke-width="0.5"/>
</svg>
