<svg width="16" height="24" viewBox="0 0 16 24" fill="none" xmlns="http://www.w3.org/2000/svg">
<path opacity="0.01" fill-rule="evenodd" clip-rule="evenodd" d="M0 24V0H16V24H0Z" fill="black"/>
<path fill-rule="evenodd" clip-rule="evenodd" d="M8 7C8.552 7 9 6.5523 9 6C9 5.4477 8.552 5 8 5C7.448 5 7 5.4477 7 6C7 6.5523 7.448 7 8 7Z" fill="black" stroke="black" stroke-linecap="round" stroke-linejoin="round"/>
<path fill-rule="evenodd" clip-rule="evenodd" d="M8 13C8.552 13 9 12.5523 9 12C9 11.4477 8.552 11 8 11C7.448 11 7 11.4477 7 12C7 12.5523 7.448 13 8 13Z" fill="black" stroke="black" stroke-linecap="round" stroke-linejoin="round"/>
<path fill-rule="evenodd" clip-rule="evenodd" d="M8 19C8.552 19 9 18.5523 9 18C9 17.4477 8.552 17 8 17C7.448 17 7 17.4477 7 18C7 18.5523 7.448 19 8 19Z" fill="black" stroke="black" stroke-linecap="round" stroke-linejoin="round"/>
</svg>
