<svg width="24" height="24" viewBox="0 0 24 24" fill="none" xmlns="http://www.w3.org/2000/svg">
<path d="M11.6806 15.7828L11.6806 15.7827L11.6742 15.7801C11.5703 15.7399 11.4754 15.6796 11.3948 15.6027L7.39601 11.6039C7.3167 11.5246 7.25379 11.4305 7.21086 11.3268C7.16794 11.2232 7.14585 11.1122 7.14585 11C7.14585 10.8878 7.16794 10.7768 7.21086 10.6732C7.25379 10.5695 7.3167 10.4754 7.39601 10.3961C7.47532 10.3168 7.56947 10.2538 7.67309 10.2109C7.77672 10.168 7.88778 10.1459 7.99994 10.1459C8.1121 10.1459 8.22317 10.168 8.32679 10.2109C8.43033 10.2538 8.52441 10.3167 8.60369 10.3959C8.60375 10.3959 8.60381 10.396 8.60388 10.3961L10.8936 12.6958L11.1499 12.9533V12.59V3C11.1499 2.77457 11.2395 2.55837 11.3989 2.39896C11.5583 2.23955 11.7745 2.15 11.9999 2.15C12.2254 2.15 12.4416 2.23955 12.601 2.39896C12.7604 2.55837 12.8499 2.77457 12.8499 3V12.59V12.9533L13.1062 12.6958L15.396 10.3961C15.3961 10.396 15.3961 10.3959 15.3962 10.3959C15.5564 10.2358 15.7735 10.1459 15.9999 10.1459C16.2265 10.1459 16.4437 10.2359 16.6039 10.3961C16.764 10.5562 16.854 10.7735 16.854 11C16.854 11.2265 16.764 11.4438 16.6039 11.6039L12.6051 15.6027C12.5245 15.6796 12.4296 15.7399 12.3257 15.7801L12.3257 15.78L12.3193 15.7828C12.2187 15.8273 12.1099 15.8502 11.9999 15.8502C11.89 15.8502 11.7812 15.8273 11.6806 15.7828Z" fill="#FCAF17" stroke="white" stroke-width="0.3"/>
<path d="M20.399 14.399C20.5584 14.2396 20.7746 14.15 21 14.15C21.2254 14.15 21.4416 14.2396 21.601 14.399C21.7604 14.5584 21.85 14.7746 21.85 15V19C21.85 19.7559 21.5497 20.4808 21.0153 21.0153C20.4808 21.5497 19.7559 21.85 19 21.85H5C4.24413 21.85 3.51922 21.5497 2.98475 21.0153C2.45027 20.4808 2.15 19.7559 2.15 19V15C2.15 14.7746 2.23955 14.5584 2.39896 14.399C2.55837 14.2396 2.77457 14.15 3 14.15C3.22543 14.15 3.44163 14.2396 3.60104 14.399C3.76045 14.5584 3.85 14.7746 3.85 15V19C3.85 19.305 3.97116 19.5975 4.18683 19.8132C4.40249 20.0288 4.695 20.15 5 20.15H19C19.305 20.15 19.5975 20.0288 19.8132 19.8132C20.0288 19.5975 20.15 19.305 20.15 19V15C20.15 14.7746 20.2396 14.5584 20.399 14.399Z" fill="#5D5D5D" stroke="white" stroke-width="0.3"/>
</svg>
