<svg width="22" height="20" viewBox="0 0 22 20" fill="none" xmlns="http://www.w3.org/2000/svg">
<path d="M13.4364 9.88455L6.71387 6.19231L8.86509 4.34619L15.8566 8.5659V13.5768L13.7053 14.6317L13.4364 9.88455Z" fill="#FCAF17"/>
<path fill-rule="evenodd" clip-rule="evenodd" d="M13.9386 14.674V10.0652C13.9386 9.90135 13.8512 9.74678 13.7097 9.6742L7.03974 5.88321L8.52444 4.94695L14.9589 8.60144C15.5532 8.97064 15.303 8.93746 15.3871 9.40155V13.7649L13.9386 14.674ZM16.2889 8.52878C16.2885 8.52878 16.2882 8.51957 16.2877 8.51957C16.285 8.50148 16.2816 8.4834 16.2767 8.46498C16.2766 8.46498 16.2765 8.46498 16.2765 8.46498C16.2718 8.44678 16.2659 8.4288 16.2593 8.41049C16.2574 8.41049 16.2553 8.40172 16.2533 8.40172C16.248 8.38319 16.2422 8.37431 16.2358 8.36511C16.2331 8.3559 16.2305 8.3559 16.2275 8.34691C16.2258 8.34691 16.2246 8.34691 16.2229 8.33781C16.2162 8.3286 16.2089 8.31961 16.2015 8.31051C16.2001 8.31051 16.1989 8.31051 16.1976 8.30141C16.1862 8.29242 16.174 8.27411 16.1612 8.26512C16.1588 8.26512 16.1562 8.25602 16.1537 8.25602C16.1426 8.24681 16.131 8.23782 16.119 8.22872C16.1159 8.22872 16.1129 8.21962 16.1097 8.21962C16.0937 8.21052 16.077 8.19232 16.0597 8.18333L9.3936 4.40166L13.2317 1.98338L19.6663 5.63777L16.9564 7.34705C16.7448 7.47422 16.6814 7.75598 16.8145 7.96505C16.9476 8.18333 17.227 8.24681 17.4385 8.11053L20.788 6.00152C20.9227 5.91973 21.0029 5.76526 20.9993 5.61058C20.9957 5.44701 20.9088 5.30141 20.7705 5.22873L13.4434 1.056C13.2984 0.974207 13.1199 0.983426 12.9787 1.07441L8.27489 4.0288C8.27398 4.0288 8.27298 4.0379 8.27207 4.0379L5.92157 5.5107C5.92048 5.51969 5.91939 5.51969 5.9183 5.51969L1.21139 8.48339C1.07666 8.56518 0.996482 8.71055 1.00012 8.87434C1.00366 9.0287 1.09048 9.17418 1.22884 9.25597L8.55598 13.4196C8.62543 13.4649 8.70252 13.4832 8.77961 13.4832C8.86343 13.4832 8.94715 13.4559 9.02069 13.4104L12.3702 11.3014C12.5816 11.165 12.6452 10.8923 12.512 10.6743C12.3789 10.465 12.0995 10.4014 11.888 10.5379L8.76771 12.5014L2.3331 8.84704L6.1713 6.42888L13.0341 10.3286V15.4924C13.0341 15.6559 13.1236 15.8102 13.2678 15.8921C13.336 15.9285 13.4113 15.9466 13.4865 15.9466C13.5704 15.9466 13.6542 15.9194 13.7276 15.8741L16.0811 14.3922C16.2127 14.3104 16.2925 14.165 16.2925 14.0104V8.58327C16.2925 8.58327 16.292 8.57406 16.2919 8.57406C16.2917 8.55597 16.2908 8.54677 16.2889 8.52879L16.2889 8.52878Z" fill="#717171"/>
<path d="M13.9386 14.674H13.8386V14.8548L13.9918 14.7587L13.9386 14.674ZM13.7097 9.6742L13.6602 9.76122L13.6641 9.76319L13.7097 9.6742ZM7.03974 5.88321L6.9864 5.79863L6.8452 5.88767L6.99033 5.97015L7.03974 5.88321ZM8.52444 4.94695L8.57383 4.85999L8.52175 4.83042L8.4711 4.86236L8.52444 4.94695ZM14.9589 8.60144L15.0118 8.51644L15.0083 8.51449L14.9589 8.60144ZM15.3871 9.40155H15.4871V9.39256L15.4855 9.38371L15.3871 9.40155ZM15.3871 13.7649L15.4403 13.8496L15.4871 13.8202V13.7649H15.3871ZM16.2889 8.52878L16.3565 8.45507L16.3278 8.42878H16.2889V8.52878ZM16.2877 8.51957L16.1887 8.534L16.2012 8.61957H16.2877V8.51957ZM16.2767 8.46498L16.3733 8.43923L16.3535 8.36498H16.2767V8.46498ZM16.2765 8.46498L16.1796 8.48966L16.1988 8.56498H16.2765V8.46498ZM16.2593 8.41049L16.3533 8.37638L16.3294 8.31049H16.2593V8.41049ZM16.2533 8.40172L16.1571 8.42908L16.1778 8.50172H16.2533V8.40172ZM16.2358 8.36511L16.1399 8.3935L16.1445 8.40881L16.1536 8.42195L16.2358 8.36511ZM16.2275 8.34691L16.3224 8.31534L16.2996 8.24691H16.2275V8.34691ZM16.2229 8.33781L16.3213 8.32011L16.3173 8.29746L16.3037 8.27887L16.2229 8.33781ZM16.2015 8.31051L16.2788 8.24714L16.2488 8.21051H16.2015V8.31051ZM16.1976 8.30141L16.2965 8.28659L16.2906 8.2475L16.2596 8.22298L16.1976 8.30141ZM16.1612 8.26512L16.2186 8.18325L16.1928 8.16512H16.1612V8.26512ZM16.1537 8.25602L16.0898 8.33295L16.1175 8.35602H16.1537V8.25602ZM16.119 8.22872L16.1794 8.14904L16.1526 8.12872H16.119V8.22872ZM16.1097 8.21962L16.0605 8.30666L16.0834 8.31962H16.1097V8.21962ZM16.0597 8.18333L16.0104 8.27036L16.0136 8.27203L16.0597 8.18333ZM9.3936 4.40166L9.34029 4.31705L9.19887 4.40616L9.34425 4.48864L9.3936 4.40166ZM13.2317 1.98338L13.2811 1.89642L13.229 1.86686L13.1784 1.89877L13.2317 1.98338ZM19.6663 5.63777L19.7197 5.72235L19.8609 5.63327L19.7157 5.55081L19.6663 5.63777ZM16.9564 7.34705L17.0079 7.43278L17.0097 7.43163L16.9564 7.34705ZM16.8145 7.96505L16.8999 7.91298L16.8989 7.91132L16.8145 7.96505ZM17.4385 8.11053L17.3853 8.0259L17.3844 8.02646L17.4385 8.11053ZM20.788 6.00152L20.7361 5.91605L20.7347 5.9169L20.788 6.00152ZM20.9993 5.61058L20.8993 5.6128L20.8993 5.61293L20.9993 5.61058ZM20.7705 5.22873L20.721 5.31567L20.724 5.31726L20.7705 5.22873ZM13.4434 1.056L13.4929 0.9691L13.4926 0.968898L13.4434 1.056ZM12.9787 1.07441L13.0319 1.1591L13.0329 1.15847L12.9787 1.07441ZM8.27489 4.0288V4.1288H8.30369L8.32808 4.11348L8.27489 4.0288ZM8.27207 4.0379V3.9379H8.24333L8.21898 3.95316L8.27207 4.0379ZM5.92157 5.5107L5.86847 5.42597L5.82805 5.4513L5.8223 5.49866L5.92157 5.5107ZM5.9183 5.51969V5.41969H5.88944L5.86502 5.43507L5.9183 5.51969ZM1.21139 8.48339L1.26329 8.56889L1.26467 8.56802L1.21139 8.48339ZM1.00012 8.87434L0.900143 8.87656L0.900145 8.87664L1.00012 8.87434ZM1.22884 9.25597L1.17795 9.34207L1.17944 9.34291L1.22884 9.25597ZM8.55598 13.4196L8.61068 13.3357L8.60538 13.3327L8.55598 13.4196ZM9.02069 13.4104L9.07331 13.4954L9.07398 13.495L9.02069 13.4104ZM12.3702 11.3014L12.4235 11.386L12.4244 11.3854L12.3702 11.3014ZM12.512 10.6743L12.5973 10.6222L12.5964 10.6206L12.512 10.6743ZM11.888 10.5379L11.9413 10.6226L11.9423 10.6219L11.888 10.5379ZM8.76771 12.5014L8.71832 12.5884L8.77034 12.6179L8.82097 12.5861L8.76771 12.5014ZM2.3331 8.84704L2.2798 8.76243L2.13844 8.85149L2.28372 8.934L2.3331 8.84704ZM6.1713 6.42888L6.22071 6.34193L6.16865 6.31236L6.118 6.34427L6.1713 6.42888ZM13.0341 10.3286H13.1341V10.2704L13.0835 10.2417L13.0341 10.3286ZM13.2678 15.8921L13.2184 15.9791L13.2207 15.9804L13.2678 15.8921ZM13.7276 15.8741L13.7802 15.9591L13.7809 15.9587L13.7276 15.8741ZM16.0811 14.3922L16.0283 14.3072L16.0278 14.3075L16.0811 14.3922ZM16.2925 8.58327H16.3926L16.3924 8.57835L16.2925 8.58327ZM16.2919 8.57406L16.192 8.57557L16.1934 8.67407H16.2919V8.57406ZM16.2889 8.52879L16.3884 8.51873L16.3846 8.48082L16.3565 8.45508L16.2889 8.52879ZM14.0386 14.674V10.0652H13.8386V14.674H14.0386ZM14.0386 10.0652C14.0386 9.86752 13.9334 9.67652 13.7553 9.58522L13.6641 9.76319C13.7691 9.81703 13.8386 9.93519 13.8386 10.0652H14.0386ZM13.7591 9.58727L7.08915 5.79627L6.99033 5.97015L13.6603 9.76114L13.7591 9.58727ZM7.09308 5.9678L8.57778 5.03153L8.4711 4.86236L6.9864 5.79863L7.09308 5.9678ZM8.47505 5.0339L14.9096 8.6884L15.0083 8.51449L8.57383 4.85999L8.47505 5.0339ZM14.9062 8.68638C15.0542 8.77834 15.1432 8.84142 15.1973 8.89082C15.2492 8.93821 15.2618 8.96647 15.2669 8.98852C15.2742 9.01978 15.271 9.05139 15.2683 9.12922C15.2659 9.20152 15.266 9.29407 15.2887 9.41938L15.4855 9.38371C15.4662 9.27698 15.466 9.19965 15.4682 9.13611C15.4702 9.0781 15.4767 9.00792 15.4617 8.94331C15.4446 8.8695 15.403 8.80782 15.3321 8.74309C15.2634 8.68037 15.1608 8.60915 15.0117 8.5165L14.9062 8.68638ZM15.2871 9.40155V13.7649H15.4871V9.40155H15.2871ZM15.334 13.6802L13.8855 14.5893L13.9918 14.7587L15.4403 13.8496L15.334 13.6802ZM16.2889 8.42878C16.3111 8.42878 16.3293 8.43604 16.3423 8.4442C16.3545 8.45193 16.3625 8.4607 16.3671 8.4665C16.3719 8.47252 16.3751 8.47798 16.3771 8.4817C16.3792 8.48556 16.3806 8.48893 16.3816 8.4914C16.3836 8.4962 16.3847 8.50016 16.3853 8.50238C16.386 8.5048 16.3864 8.50681 16.3867 8.50815C16.3872 8.51077 16.3875 8.5128 16.3877 8.51374C16.3878 8.51482 16.3879 8.51564 16.388 8.51606C16.3881 8.51705 16.3881 8.5178 16.388 8.51582C16.3879 8.51523 16.3878 8.51422 16.3877 8.51315C16.3877 8.51216 16.3875 8.51043 16.3872 8.50845C16.3871 8.50743 16.3869 8.50598 16.3866 8.50428C16.3864 8.50274 16.3859 8.49997 16.3851 8.49659C16.3847 8.49486 16.384 8.49238 16.3831 8.48946C16.3822 8.48675 16.3806 8.48216 16.3781 8.47674C16.3767 8.47394 16.3748 8.47027 16.3722 8.46615C16.3697 8.46213 16.3658 8.45663 16.3603 8.45078C16.3548 8.44501 16.3463 8.43744 16.3343 8.43113C16.3219 8.42455 16.306 8.41957 16.2877 8.41957V8.61957C16.2694 8.61957 16.2535 8.61461 16.241 8.60803C16.2291 8.60173 16.2206 8.59417 16.2152 8.58842C16.2096 8.58259 16.2058 8.57711 16.2032 8.57312C16.2006 8.56903 16.1988 8.56538 16.1974 8.56262C16.1949 8.55726 16.1934 8.55275 16.1925 8.55015C16.1916 8.54732 16.191 8.54495 16.1906 8.54335C16.1899 8.54022 16.1894 8.53776 16.1893 8.53657C16.189 8.53522 16.1889 8.53417 16.1888 8.53358C16.1887 8.53296 16.1887 8.53249 16.1887 8.53225C16.1886 8.532 16.1886 8.53184 16.1886 8.53183C16.1886 8.5318 16.1886 8.53184 16.1886 8.53198C16.1886 8.53211 16.1887 8.53228 16.1887 8.53254C16.1887 8.53286 16.1889 8.53591 16.1893 8.53862C16.1894 8.53948 16.1895 8.5407 16.1897 8.54213C16.1899 8.54341 16.1902 8.54576 16.1908 8.54862C16.1911 8.55009 16.1916 8.55221 16.1923 8.55473C16.1929 8.55704 16.1941 8.5611 16.1961 8.56596C16.1971 8.56847 16.1985 8.57187 16.2006 8.57575C16.2026 8.57949 16.2058 8.58498 16.2106 8.59102C16.2153 8.59683 16.2233 8.60562 16.2355 8.61335C16.2485 8.62153 16.2668 8.62878 16.2889 8.62878V8.42878ZM16.3866 8.50515C16.3835 8.48411 16.3794 8.46215 16.3733 8.43923L16.18 8.49072C16.1837 8.50466 16.1865 8.51886 16.1887 8.534L16.3866 8.50515ZM16.2767 8.36498C16.2767 8.36498 16.2767 8.36498 16.2767 8.36498C16.2767 8.36498 16.2767 8.36498 16.2767 8.36498C16.2767 8.36498 16.2767 8.36498 16.2767 8.36498H16.2767C16.2767 8.36498 16.2767 8.36498 16.2767 8.36498C16.2767 8.36498 16.2767 8.36498 16.2767 8.36498C16.2767 8.36498 16.2767 8.36498 16.2767 8.36498H16.2767H16.2766C16.2766 8.36498 16.2766 8.36498 16.2766 8.36498C16.2766 8.36498 16.2766 8.36498 16.2766 8.36498C16.2766 8.36498 16.2766 8.36498 16.2766 8.36498H16.2766H16.2766C16.2766 8.36498 16.2766 8.36498 16.2766 8.36498C16.2766 8.36498 16.2766 8.36498 16.2766 8.36498C16.2766 8.36498 16.2766 8.36498 16.2766 8.36498H16.2766H16.2766C16.2766 8.36498 16.2766 8.36498 16.2766 8.36498C16.2766 8.36498 16.2766 8.36498 16.2766 8.36498C16.2766 8.36498 16.2766 8.36498 16.2766 8.36498H16.2766H16.2766C16.2766 8.36498 16.2766 8.36498 16.2766 8.36498C16.2766 8.36498 16.2766 8.36498 16.2766 8.36498C16.2766 8.36498 16.2766 8.36498 16.2766 8.36498C16.2766 8.36498 16.2766 8.36498 16.2766 8.36498H16.2766C16.2766 8.36498 16.2766 8.36498 16.2766 8.36498C16.2766 8.36498 16.2766 8.36498 16.2766 8.36498C16.2766 8.36498 16.2766 8.36498 16.2766 8.36498C16.2766 8.36498 16.2766 8.36498 16.2766 8.36498H16.2766H16.2766C16.2766 8.36498 16.2766 8.36498 16.2766 8.36498C16.2766 8.36498 16.2766 8.36498 16.2766 8.36498C16.2766 8.36498 16.2766 8.36498 16.2766 8.36498C16.2766 8.36498 16.2766 8.36498 16.2766 8.36498H16.2766H16.2766C16.2766 8.36498 16.2766 8.36498 16.2766 8.36498C16.2766 8.36498 16.2766 8.36498 16.2766 8.36498C16.2766 8.36498 16.2766 8.36498 16.2766 8.36498C16.2766 8.36498 16.2766 8.36498 16.2766 8.36498H16.2766H16.2766C16.2766 8.36498 16.2766 8.36498 16.2766 8.36498C16.2766 8.36498 16.2766 8.36498 16.2766 8.36498C16.2766 8.36498 16.2766 8.36498 16.2766 8.36498C16.2766 8.36498 16.2766 8.36498 16.2766 8.36498C16.2766 8.36498 16.2766 8.36498 16.2766 8.36498H16.2766H16.2766C16.2766 8.36498 16.2766 8.36498 16.2766 8.36498C16.2766 8.36498 16.2766 8.36498 16.2766 8.36498C16.2766 8.36498 16.2766 8.36498 16.2766 8.36498C16.2766 8.36498 16.2766 8.36498 16.2766 8.36498C16.2766 8.36498 16.2766 8.36498 16.2766 8.36498C16.2766 8.36498 16.2766 8.36498 16.2766 8.36498H16.2766H16.2766H16.2766C16.2766 8.36498 16.2766 8.36498 16.2766 8.36498C16.2766 8.36498 16.2766 8.36498 16.2766 8.36498C16.2766 8.36498 16.2766 8.36498 16.2766 8.36498C16.2766 8.36498 16.2766 8.36498 16.2766 8.36498C16.2766 8.36498 16.2766 8.36498 16.2766 8.36498C16.2766 8.36498 16.2766 8.36498 16.2766 8.36498C16.2766 8.36498 16.2766 8.36498 16.2766 8.36498H16.2766H16.2766H16.2766H16.2766H16.2766C16.2766 8.36498 16.2766 8.36498 16.2766 8.36498C16.2766 8.36498 16.2766 8.36498 16.2766 8.36498C16.2766 8.36498 16.2766 8.36498 16.2766 8.36498C16.2766 8.36498 16.2766 8.36498 16.2766 8.36498C16.2766 8.36498 16.2766 8.36498 16.2766 8.36498C16.2766 8.36498 16.2766 8.36498 16.2766 8.36498C16.2766 8.36498 16.2766 8.36498 16.2766 8.36498C16.2766 8.36498 16.2766 8.36498 16.2766 8.36498C16.2766 8.36498 16.2766 8.36498 16.2766 8.36498C16.2766 8.36498 16.2766 8.36498 16.2766 8.36498C16.2766 8.36498 16.2766 8.36498 16.2766 8.36498C16.2766 8.36498 16.2766 8.36498 16.2766 8.36498C16.2766 8.36498 16.2766 8.36498 16.2766 8.36498C16.2766 8.36498 16.2766 8.36498 16.2766 8.36498C16.2766 8.36498 16.2766 8.36498 16.2766 8.36498C16.2766 8.36498 16.2766 8.36498 16.2766 8.36498C16.2766 8.36498 16.2766 8.36498 16.2766 8.36498C16.2766 8.36498 16.2766 8.36498 16.2766 8.36498C16.2766 8.36498 16.2766 8.36498 16.2766 8.36498C16.2766 8.36498 16.2766 8.36498 16.2766 8.36498C16.2766 8.36498 16.2766 8.36498 16.2766 8.36498H16.2766H16.2766H16.2766H16.2766C16.2766 8.36498 16.2766 8.36498 16.2766 8.36498C16.2766 8.36498 16.2766 8.36498 16.2766 8.36498C16.2766 8.36498 16.2766 8.36498 16.2766 8.36498C16.2766 8.36498 16.2766 8.36498 16.2766 8.36498C16.2766 8.36498 16.2766 8.36498 16.2766 8.36498C16.2766 8.36498 16.2766 8.36498 16.2766 8.36498H16.2766H16.2766C16.2766 8.36498 16.2766 8.36498 16.2766 8.36498C16.2766 8.36498 16.2766 8.36498 16.2766 8.36498C16.2766 8.36498 16.2766 8.36498 16.2766 8.36498C16.2766 8.36498 16.2766 8.36498 16.2766 8.36498H16.2766H16.2765C16.2765 8.36498 16.2765 8.36498 16.2765 8.36498C16.2765 8.36498 16.2765 8.36498 16.2765 8.36498C16.2765 8.36498 16.2765 8.36498 16.2765 8.36498H16.2765C16.2765 8.36498 16.2765 8.36498 16.2765 8.36498C16.2765 8.36498 16.2765 8.36498 16.2765 8.36498C16.2765 8.36498 16.2765 8.36498 16.2765 8.36498H16.2765C16.2765 8.36498 16.2765 8.36498 16.2765 8.36498C16.2765 8.36498 16.2765 8.36498 16.2765 8.36498H16.2765C16.2765 8.36498 16.2765 8.36498 16.2765 8.36498C16.2765 8.36498 16.2765 8.36498 16.2765 8.36498H16.2765C16.2765 8.36498 16.2765 8.36498 16.2765 8.36498H16.2765C16.2765 8.36498 16.2765 8.36498 16.2765 8.36498C16.2765 8.36498 16.2765 8.36498 16.2765 8.36498H16.2765C16.2765 8.36498 16.2765 8.36498 16.2765 8.36498H16.2765C16.2765 8.36498 16.2765 8.36498 16.2765 8.36498H16.2765C16.2765 8.36498 16.2765 8.36498 16.2765 8.36498H16.2765C16.2765 8.36498 16.2765 8.36498 16.2765 8.36498C16.2765 8.36498 16.2765 8.36498 16.2765 8.36498H16.2765C16.2765 8.36498 16.2765 8.36498 16.2765 8.36498C16.2765 8.36498 16.2765 8.36498 16.2765 8.36498H16.2765C16.2765 8.36498 16.2765 8.36498 16.2765 8.36498C16.2765 8.36498 16.2765 8.36498 16.2765 8.36498H16.2765H16.2765C16.2765 8.36498 16.2765 8.36498 16.2765 8.36498C16.2765 8.36498 16.2765 8.36498 16.2765 8.36498C16.2765 8.36498 16.2765 8.36498 16.2765 8.36498C16.2765 8.36498 16.2765 8.36498 16.2765 8.36498C16.2765 8.36498 16.2765 8.36498 16.2765 8.36498H16.2765H16.2765C16.2765 8.36498 16.2765 8.36498 16.2765 8.36498C16.2765 8.36498 16.2765 8.36498 16.2765 8.36498C16.2765 8.36498 16.2765 8.36498 16.2765 8.36498C16.2765 8.36498 16.2765 8.36498 16.2765 8.36498C16.2765 8.36498 16.2765 8.36498 16.2765 8.36498H16.2765C16.2765 8.36498 16.2765 8.36498 16.2765 8.36498C16.2765 8.36498 16.2765 8.36498 16.2765 8.36498H16.2765C16.2765 8.36498 16.2765 8.36498 16.2765 8.36498H16.2765C16.2765 8.36498 16.2765 8.36498 16.2765 8.36498C16.2765 8.36498 16.2765 8.36498 16.2765 8.36498C16.2765 8.36498 16.2765 8.36498 16.2765 8.36498H16.2765H16.2765H16.2765C16.2765 8.36498 16.2765 8.36498 16.2765 8.36498C16.2765 8.36498 16.2765 8.36498 16.2765 8.36498H16.2765C16.2765 8.36498 16.2765 8.36498 16.2765 8.36498C16.2765 8.36498 16.2765 8.36498 16.2765 8.36498C16.2765 8.36498 16.2765 8.36498 16.2765 8.36498C16.2765 8.36498 16.2765 8.36498 16.2765 8.36498H16.2765C16.2765 8.36498 16.2765 8.36498 16.2765 8.36498C16.2765 8.36498 16.2765 8.36498 16.2765 8.36498C16.2765 8.36498 16.2765 8.36498 16.2765 8.36498C16.2765 8.36498 16.2765 8.36498 16.2765 8.36498C16.2765 8.36498 16.2765 8.36498 16.2765 8.36498C16.2765 8.36498 16.2765 8.36498 16.2765 8.36498H16.2765C16.2765 8.36498 16.2765 8.36498 16.2765 8.36498C16.2765 8.36498 16.2765 8.36498 16.2765 8.46498C16.2765 8.56498 16.2765 8.56498 16.2765 8.56498C16.2765 8.56498 16.2765 8.56498 16.2765 8.56498H16.2765C16.2765 8.56498 16.2765 8.56498 16.2765 8.56498C16.2765 8.56498 16.2765 8.56498 16.2765 8.56498C16.2765 8.56498 16.2765 8.56498 16.2765 8.56498C16.2765 8.56498 16.2765 8.56498 16.2765 8.56498C16.2765 8.56498 16.2765 8.56498 16.2765 8.56498C16.2765 8.56498 16.2765 8.56498 16.2765 8.56498H16.2765C16.2765 8.56498 16.2765 8.56498 16.2765 8.56498C16.2765 8.56498 16.2765 8.56498 16.2765 8.56498C16.2765 8.56498 16.2765 8.56498 16.2765 8.56498C16.2765 8.56498 16.2765 8.56498 16.2765 8.56498H16.2765C16.2765 8.56498 16.2765 8.56498 16.2765 8.56498C16.2765 8.56498 16.2765 8.56498 16.2765 8.56498H16.2765H16.2765H16.2765C16.2765 8.56498 16.2765 8.56498 16.2765 8.56498C16.2765 8.56498 16.2765 8.56498 16.2765 8.56498C16.2765 8.56498 16.2765 8.56498 16.2765 8.56498H16.2765C16.2765 8.56498 16.2765 8.56498 16.2765 8.56498H16.2765C16.2765 8.56498 16.2765 8.56498 16.2765 8.56498C16.2765 8.56498 16.2765 8.56498 16.2765 8.56498H16.2765C16.2765 8.56498 16.2765 8.56498 16.2765 8.56498C16.2765 8.56498 16.2765 8.56498 16.2765 8.56498C16.2765 8.56498 16.2765 8.56498 16.2765 8.56498C16.2765 8.56498 16.2765 8.56498 16.2765 8.56498C16.2765 8.56498 16.2765 8.56498 16.2765 8.56498H16.2765H16.2765C16.2765 8.56498 16.2765 8.56498 16.2765 8.56498C16.2765 8.56498 16.2765 8.56498 16.2765 8.56498C16.2765 8.56498 16.2765 8.56498 16.2765 8.56498C16.2765 8.56498 16.2765 8.56498 16.2765 8.56498C16.2765 8.56498 16.2765 8.56498 16.2765 8.56498H16.2765H16.2765C16.2765 8.56498 16.2765 8.56498 16.2765 8.56498C16.2765 8.56498 16.2765 8.56498 16.2765 8.56498H16.2765C16.2765 8.56498 16.2765 8.56498 16.2765 8.56498C16.2765 8.56498 16.2765 8.56498 16.2765 8.56498H16.2765C16.2765 8.56498 16.2765 8.56498 16.2765 8.56498C16.2765 8.56498 16.2765 8.56498 16.2765 8.56498H16.2765C16.2765 8.56498 16.2765 8.56498 16.2765 8.56498H16.2765C16.2765 8.56498 16.2765 8.56498 16.2765 8.56498H16.2765C16.2765 8.56498 16.2765 8.56498 16.2765 8.56498H16.2765C16.2765 8.56498 16.2765 8.56498 16.2765 8.56498C16.2765 8.56498 16.2765 8.56498 16.2765 8.56498H16.2765C16.2765 8.56498 16.2765 8.56498 16.2765 8.56498H16.2765C16.2765 8.56498 16.2765 8.56498 16.2765 8.56498C16.2765 8.56498 16.2765 8.56498 16.2765 8.56498H16.2765C16.2765 8.56498 16.2765 8.56498 16.2765 8.56498C16.2765 8.56498 16.2765 8.56498 16.2765 8.56498H16.2765C16.2765 8.56498 16.2765 8.56498 16.2765 8.56498C16.2765 8.56498 16.2765 8.56498 16.2765 8.56498C16.2765 8.56498 16.2765 8.56498 16.2765 8.56498H16.2765C16.2765 8.56498 16.2765 8.56498 16.2765 8.56498C16.2765 8.56498 16.2765 8.56498 16.2765 8.56498C16.2765 8.56498 16.2765 8.56498 16.2765 8.56498H16.2766H16.2766C16.2766 8.56498 16.2766 8.56498 16.2766 8.56498C16.2766 8.56498 16.2766 8.56498 16.2766 8.56498C16.2766 8.56498 16.2766 8.56498 16.2766 8.56498C16.2766 8.56498 16.2766 8.56498 16.2766 8.56498H16.2766H16.2766C16.2766 8.56498 16.2766 8.56498 16.2766 8.56498C16.2766 8.56498 16.2766 8.56498 16.2766 8.56498C16.2766 8.56498 16.2766 8.56498 16.2766 8.56498C16.2766 8.56498 16.2766 8.56498 16.2766 8.56498C16.2766 8.56498 16.2766 8.56498 16.2766 8.56498C16.2766 8.56498 16.2766 8.56498 16.2766 8.56498H16.2766H16.2766H16.2766H16.2766C16.2766 8.56498 16.2766 8.56498 16.2766 8.56498C16.2766 8.56498 16.2766 8.56498 16.2766 8.56498C16.2766 8.56498 16.2766 8.56498 16.2766 8.56498C16.2766 8.56498 16.2766 8.56498 16.2766 8.56498C16.2766 8.56498 16.2766 8.56498 16.2766 8.56498C16.2766 8.56498 16.2766 8.56498 16.2766 8.56498C16.2766 8.56498 16.2766 8.56498 16.2766 8.56498C16.2766 8.56498 16.2766 8.56498 16.2766 8.56498C16.2766 8.56498 16.2766 8.56498 16.2766 8.56498C16.2766 8.56498 16.2766 8.56498 16.2766 8.56498C16.2766 8.56498 16.2766 8.56498 16.2766 8.56498C16.2766 8.56498 16.2766 8.56498 16.2766 8.56498C16.2766 8.56498 16.2766 8.56498 16.2766 8.56498C16.2766 8.56498 16.2766 8.56498 16.2766 8.56498C16.2766 8.56498 16.2766 8.56498 16.2766 8.56498C16.2766 8.56498 16.2766 8.56498 16.2766 8.56498C16.2766 8.56498 16.2766 8.56498 16.2766 8.56498C16.2766 8.56498 16.2766 8.56498 16.2766 8.56498C16.2766 8.56498 16.2766 8.56498 16.2766 8.56498C16.2766 8.56498 16.2766 8.56498 16.2766 8.56498C16.2766 8.56498 16.2766 8.56498 16.2766 8.56498H16.2766H16.2766H16.2766H16.2766H16.2766C16.2766 8.56498 16.2766 8.56498 16.2766 8.56498C16.2766 8.56498 16.2766 8.56498 16.2766 8.56498C16.2766 8.56498 16.2766 8.56498 16.2766 8.56498C16.2766 8.56498 16.2766 8.56498 16.2766 8.56498C16.2766 8.56498 16.2766 8.56498 16.2766 8.56498C16.2766 8.56498 16.2766 8.56498 16.2766 8.56498C16.2766 8.56498 16.2766 8.56498 16.2766 8.56498H16.2766H16.2766H16.2766C16.2766 8.56498 16.2766 8.56498 16.2766 8.56498C16.2766 8.56498 16.2766 8.56498 16.2766 8.56498C16.2766 8.56498 16.2766 8.56498 16.2766 8.56498C16.2766 8.56498 16.2766 8.56498 16.2766 8.56498C16.2766 8.56498 16.2766 8.56498 16.2766 8.56498C16.2766 8.56498 16.2766 8.56498 16.2766 8.56498H16.2766H16.2766C16.2766 8.56498 16.2766 8.56498 16.2766 8.56498C16.2766 8.56498 16.2766 8.56498 16.2766 8.56498C16.2766 8.56498 16.2766 8.56498 16.2766 8.56498C16.2766 8.56498 16.2766 8.56498 16.2766 8.56498C16.2766 8.56498 16.2766 8.56498 16.2766 8.56498H16.2766H16.2766C16.2766 8.56498 16.2766 8.56498 16.2766 8.56498C16.2766 8.56498 16.2766 8.56498 16.2766 8.56498C16.2766 8.56498 16.2766 8.56498 16.2766 8.56498C16.2766 8.56498 16.2766 8.56498 16.2766 8.56498H16.2766H16.2766C16.2766 8.56498 16.2766 8.56498 16.2766 8.56498C16.2766 8.56498 16.2766 8.56498 16.2766 8.56498C16.2766 8.56498 16.2766 8.56498 16.2766 8.56498C16.2766 8.56498 16.2766 8.56498 16.2766 8.56498H16.2766H16.2766C16.2766 8.56498 16.2766 8.56498 16.2766 8.56498C16.2766 8.56498 16.2766 8.56498 16.2766 8.56498C16.2766 8.56498 16.2766 8.56498 16.2766 8.56498C16.2766 8.56498 16.2766 8.56498 16.2766 8.56498H16.2766C16.2766 8.56498 16.2766 8.56498 16.2766 8.56498C16.2766 8.56498 16.2766 8.56498 16.2766 8.56498C16.2766 8.56498 16.2766 8.56498 16.2766 8.56498C16.2766 8.56498 16.2766 8.56498 16.2766 8.56498H16.2766H16.2766C16.2766 8.56498 16.2766 8.56498 16.2766 8.56498C16.2766 8.56498 16.2766 8.56498 16.2766 8.56498C16.2766 8.56498 16.2766 8.56498 16.2766 8.56498H16.2766H16.2766C16.2766 8.56498 16.2766 8.56498 16.2766 8.56498C16.2766 8.56498 16.2766 8.56498 16.2766 8.56498C16.2766 8.56498 16.2766 8.56498 16.2766 8.56498H16.2766H16.2766C16.2766 8.56498 16.2766 8.56498 16.2766 8.56498C16.2766 8.56498 16.2766 8.56498 16.2766 8.56498C16.2766 8.56498 16.2766 8.56498 16.2766 8.56498H16.2767H16.2767C16.2767 8.56498 16.2767 8.56498 16.2767 8.56498C16.2767 8.56498 16.2767 8.56498 16.2767 8.56498C16.2767 8.56498 16.2767 8.56498 16.2767 8.56498H16.2767C16.2767 8.56498 16.2767 8.56498 16.2767 8.56498C16.2767 8.56498 16.2767 8.56498 16.2767 8.56498C16.2767 8.56498 16.2767 8.56498 16.2767 8.56498V8.36498ZM16.3734 8.44029C16.3676 8.41775 16.3606 8.39642 16.3533 8.37638L16.1653 8.44459C16.1713 8.46118 16.176 8.4758 16.1796 8.48966L16.3734 8.44029ZM16.2593 8.31049C16.2788 8.31049 16.2948 8.31618 16.3059 8.32211C16.3167 8.32784 16.3242 8.3344 16.3287 8.33883C16.3334 8.34341 16.3367 8.3476 16.3387 8.3504C16.3409 8.35331 16.3425 8.35581 16.3435 8.35751C16.3454 8.36075 16.3467 8.36326 16.347 8.36387C16.3473 8.36455 16.3475 8.3651 16.3471 8.36423C16.3469 8.36383 16.3462 8.3621 16.3452 8.36021C16.3443 8.35842 16.3425 8.35478 16.3399 8.35054C16.3385 8.34833 16.3366 8.34537 16.3341 8.34206C16.3316 8.33883 16.3279 8.33432 16.3228 8.32951C16.3179 8.32481 16.31 8.31829 16.299 8.31271C16.2877 8.30693 16.2721 8.30172 16.2533 8.30172V8.50172C16.2347 8.50172 16.2194 8.49658 16.2083 8.49094C16.1976 8.48548 16.19 8.47914 16.1853 8.47469C16.1804 8.47012 16.177 8.4659 16.1748 8.46301C16.1725 8.46002 16.1708 8.45744 16.1697 8.45564C16.1676 8.45222 16.1663 8.44954 16.1659 8.44878C16.1655 8.44791 16.1652 8.44728 16.1655 8.44797C16.1656 8.4482 16.1664 8.44985 16.1672 8.45156C16.168 8.45319 16.1697 8.45666 16.1722 8.46072C16.1734 8.46284 16.1753 8.46571 16.1777 8.46895C16.18 8.47209 16.1835 8.47657 16.1884 8.48139C16.1932 8.48606 16.2009 8.49281 16.2119 8.49866C16.2233 8.50472 16.2395 8.51049 16.2593 8.51049V8.31049ZM16.3495 8.37436C16.3401 8.34155 16.328 8.32257 16.3181 8.30826L16.1536 8.42195C16.1564 8.42599 16.1562 8.42598 16.1559 8.42546C16.1555 8.42466 16.156 8.42533 16.1571 8.42908L16.3495 8.37436ZM16.3317 8.33671C16.3297 8.33 16.3273 8.32343 16.3242 8.31691C16.3212 8.31057 16.3183 8.30576 16.3173 8.30416C16.3162 8.30226 16.3176 8.30452 16.3189 8.30716C16.3205 8.31031 16.3216 8.31316 16.3224 8.31534L16.1326 8.37847C16.1348 8.38514 16.1374 8.39137 16.1404 8.39733C16.1432 8.40279 16.146 8.40731 16.1462 8.40769C16.1466 8.40837 16.145 8.40584 16.1434 8.40237C16.1417 8.39872 16.1406 8.3956 16.1399 8.3935L16.3317 8.33671ZM16.2275 8.24691C16.224 8.24691 16.2422 8.24585 16.2618 8.25327C16.2859 8.26243 16.3011 8.2788 16.3095 8.29192C16.3165 8.30288 16.3193 8.31235 16.3201 8.31495C16.3211 8.31843 16.3214 8.32056 16.3213 8.32011L16.1245 8.3555C16.125 8.35848 16.1282 8.37963 16.1409 8.39962C16.15 8.41387 16.1659 8.43082 16.1908 8.44026C16.2018 8.44443 16.2114 8.44589 16.2178 8.44647C16.2209 8.44676 16.2234 8.44684 16.2249 8.44688C16.2257 8.4469 16.2264 8.4469 16.2268 8.4469C16.2271 8.44691 16.2275 8.44691 16.2275 8.44691V8.24691ZM16.3037 8.27887C16.2952 8.26717 16.2863 8.25626 16.2788 8.24714L16.1241 8.37388C16.1315 8.38295 16.1372 8.39002 16.1421 8.39674L16.3037 8.27887ZM16.2015 8.21051C16.1982 8.21051 16.2189 8.20922 16.2407 8.2188C16.2661 8.22996 16.2801 8.24852 16.2868 8.26054C16.2927 8.27106 16.2949 8.27988 16.2955 8.28213C16.2963 8.28527 16.2965 8.28713 16.2965 8.28659L16.0987 8.31623C16.0991 8.31937 16.1015 8.33904 16.1122 8.3582C16.1196 8.37135 16.1342 8.39049 16.1603 8.40193C16.1722 8.40715 16.1829 8.40912 16.1903 8.40992C16.1939 8.4103 16.1968 8.41042 16.1986 8.41047C16.1995 8.41049 16.2002 8.4105 16.2007 8.4105C16.2009 8.41051 16.2011 8.41051 16.2012 8.41051C16.2014 8.41051 16.2015 8.41051 16.2015 8.41051V8.21051ZM16.2596 8.22298C16.2623 8.22515 16.2633 8.22635 16.2617 8.22464C16.26 8.22288 16.2584 8.22108 16.2547 8.21682C16.2515 8.21329 16.2468 8.20797 16.2414 8.2026C16.2361 8.1973 16.2284 8.19008 16.2186 8.18325L16.1038 8.34698C16.1004 8.34465 16.099 8.34309 16.1 8.34403C16.1009 8.34491 16.1023 8.3464 16.1052 8.34971C16.1075 8.35227 16.1119 8.35729 16.1161 8.36177C16.1204 8.3663 16.1271 8.37317 16.1355 8.37983L16.2596 8.22298ZM16.1612 8.16512C16.1774 8.16512 16.1911 8.16907 16.2014 8.17365C16.2114 8.17811 16.2189 8.18342 16.2237 8.18741C16.2287 8.19147 16.2323 8.19529 16.2347 8.19801C16.2372 8.20079 16.2391 8.20323 16.2403 8.20494C16.2427 8.2082 16.2442 8.21076 16.2446 8.21141C16.245 8.2121 16.2453 8.21269 16.2448 8.21174C16.2445 8.21127 16.2435 8.20943 16.2423 8.20739C16.2411 8.20544 16.2387 8.20165 16.2355 8.1973C16.2338 8.19504 16.2314 8.19212 16.2285 8.18892C16.2256 8.18577 16.2214 8.18166 16.216 8.17743C16.2106 8.17324 16.2028 8.16807 16.1926 8.16383C16.1822 8.15949 16.169 8.15602 16.1537 8.15602V8.35602C16.1386 8.35602 16.1257 8.35261 16.1156 8.34841C16.1058 8.3443 16.0983 8.33932 16.0933 8.33538C16.0881 8.3314 16.0843 8.32759 16.0817 8.32479C16.0791 8.32194 16.0771 8.31941 16.0757 8.31757C16.073 8.31408 16.0714 8.31129 16.0708 8.3104C16.0702 8.30943 16.0698 8.30872 16.0702 8.3094C16.0703 8.30958 16.0713 8.31131 16.0723 8.31306C16.0733 8.31478 16.0755 8.31834 16.0785 8.32245C16.08 8.32459 16.0822 8.32741 16.085 8.33054C16.0877 8.33361 16.0916 8.33773 16.0969 8.34204C16.102 8.34628 16.1098 8.35178 16.1201 8.35638C16.1307 8.36109 16.1447 8.36512 16.1612 8.36512V8.16512ZM16.2175 8.17908C16.2049 8.16856 16.192 8.15859 16.1794 8.14904L16.0586 8.3084C16.07 8.31704 16.0803 8.32505 16.0898 8.33295L16.2175 8.17908ZM16.119 8.12872C16.1438 8.12872 16.1622 8.13789 16.1722 8.1444C16.1774 8.14777 16.1815 8.15109 16.1844 8.1537C16.1873 8.15633 16.1895 8.15871 16.1911 8.1605C16.1942 8.1639 16.1962 8.16666 16.1968 8.16753C16.1974 8.16841 16.1979 8.16914 16.1973 8.16825C16.1971 8.16788 16.1958 8.16597 16.1943 8.16391C16.1928 8.16187 16.19 8.15803 16.186 8.1537C16.184 8.15145 16.1813 8.14866 16.1779 8.14567C16.1746 8.14271 16.1701 8.13911 16.1645 8.13554C16.1535 8.12858 16.1346 8.11962 16.1097 8.11962V8.31962C16.0857 8.31962 16.0676 8.31094 16.0574 8.30447C16.0522 8.30116 16.0481 8.29786 16.0451 8.29524C16.0422 8.2926 16.0398 8.2902 16.0382 8.28838C16.035 8.2849 16.0329 8.28206 16.0322 8.28109C16.0315 8.28009 16.031 8.27931 16.0315 8.28008C16.0317 8.28033 16.0329 8.28219 16.0343 8.28414C16.0357 8.28608 16.0385 8.28984 16.0423 8.29409C16.0443 8.2963 16.0469 8.29907 16.0502 8.30205C16.0535 8.30501 16.0579 8.30864 16.0635 8.31225C16.0743 8.31926 16.0935 8.32872 16.119 8.32872V8.12872ZM16.159 8.13257C16.1606 8.13348 16.1606 8.13368 16.1583 8.13191C16.1558 8.13004 16.1533 8.12796 16.1485 8.12402C16.1414 8.11821 16.1252 8.10465 16.1059 8.09462L16.0136 8.27203C16.0118 8.27108 16.0115 8.27074 16.0134 8.27212C16.0153 8.27352 16.0177 8.27543 16.0219 8.27884C16.0254 8.28171 16.0311 8.28645 16.0369 8.29084C16.0427 8.29531 16.0509 8.3012 16.0605 8.30666L16.159 8.13257ZM16.1091 8.09635L9.44294 4.31468L9.34425 4.48864L16.0104 8.27031L16.1091 8.09635ZM9.44691 4.48627L13.285 2.06799L13.1784 1.89877L9.34029 4.31705L9.44691 4.48627ZM13.1823 2.07033L19.6169 5.72472L19.7157 5.55081L13.2811 1.89642L13.1823 2.07033ZM19.613 5.55318L16.903 7.26247L17.0097 7.43163L19.7197 5.72235L19.613 5.55318ZM16.9048 7.26135C16.644 7.41817 16.5675 7.76338 16.7302 8.01877L16.8989 7.91132C16.7952 7.74858 16.8457 7.53028 17.0079 7.43276L16.9048 7.26135ZM16.7292 8.01711C16.8913 8.28307 17.2336 8.3615 17.4927 8.19459L17.3844 8.02646C17.2204 8.13212 17.0039 8.08359 16.8999 7.91299L16.7292 8.01711ZM17.4918 8.19515L20.8413 6.08614L20.7347 5.9169L17.3853 8.02591L17.4918 8.19515ZM20.8399 6.08699C21.0064 5.98585 21.1037 5.79715 21.0993 5.60822L20.8993 5.61293C20.9021 5.73338 20.8389 5.85362 20.7361 5.91606L20.8399 6.08699ZM21.0993 5.60835C21.0949 5.41085 20.9896 5.23088 20.817 5.1402L20.724 5.31726C20.8281 5.37193 20.8964 5.48316 20.8993 5.6128L21.0993 5.60835ZM20.82 5.14183L13.4929 0.9691L13.3939 1.14289L20.721 5.31562L20.82 5.14183ZM13.4926 0.968898C13.3134 0.867852 13.0951 0.880412 12.9245 0.99036L13.0329 1.15847C13.1446 1.08644 13.2834 1.08056 13.3943 1.1431L13.4926 0.968898ZM12.9255 0.989732L8.2217 3.94411L8.32808 4.11348L13.0319 1.1591L12.9255 0.989732ZM8.27489 3.9288C8.25316 3.9288 8.23549 3.93576 8.2232 3.94316C8.21148 3.95023 8.20359 3.95825 8.199 3.96358C8.19421 3.96913 8.1909 3.9742 8.18881 3.9777C8.18664 3.98133 8.18504 3.98452 8.18393 3.98689C8.18178 3.9915 8.18039 3.99538 8.17963 3.99762C8.17881 4.00006 8.17821 4.00214 8.17781 4.00357C8.17704 4.00636 8.1765 4.00872 8.17624 4.0099C8.17596 4.01116 8.1757 4.01237 8.17561 4.01281C8.17547 4.01351 8.17548 4.01344 8.17553 4.01324C8.17555 4.01313 8.17585 4.01176 8.17638 4.00983C8.17666 4.00882 8.17715 4.00714 8.17786 4.00504C8.1785 4.00315 8.17977 3.99957 8.1818 3.99521C8.18285 3.99296 8.18439 3.98988 8.1865 3.98635C8.18854 3.98295 8.19179 3.97796 8.19652 3.97248C8.20106 3.96721 8.20889 3.95924 8.22056 3.95221C8.23278 3.94485 8.25039 3.9379 8.27207 3.9379V4.1379C8.29381 4.1379 8.31148 4.13093 8.32376 4.12353C8.33549 4.11646 8.34337 4.10844 8.34797 4.10311C8.35275 4.09756 8.35607 4.09249 8.35816 4.08899C8.36033 4.08536 8.36193 4.08217 8.36303 4.0798C8.36519 4.07519 8.36657 4.07131 8.36733 4.06907C8.36815 4.06663 8.36876 4.06455 8.36915 4.06312C8.36992 4.06033 8.37046 4.05797 8.37072 4.0568C8.37101 4.05553 8.37126 4.05432 8.37135 4.05388C8.3715 4.05318 8.37148 4.05325 8.37144 4.05345C8.37141 4.05356 8.37111 4.05493 8.37058 4.05686C8.3703 4.05787 8.36982 4.05956 8.36911 4.06165C8.36847 4.06354 8.3672 4.06712 8.36516 4.07148C8.36411 4.07373 8.36257 4.07681 8.36046 4.08034C8.35843 4.08374 8.35517 4.08873 8.35044 4.09421C8.3459 4.09948 8.33808 4.10745 8.32641 4.11448C8.31418 4.12184 8.29657 4.1288 8.27489 4.1288V3.9288ZM8.21898 3.95316L5.86847 5.42597L5.97467 5.59544L8.32517 4.12263L8.21898 3.95316ZM5.8223 5.49866C5.82223 5.49925 5.82239 5.49764 5.823 5.49481C5.82342 5.49286 5.82517 5.48479 5.82997 5.4749C5.83502 5.46451 5.8474 5.44401 5.87333 5.43065C5.89755 5.41818 5.92108 5.41969 5.9183 5.41969V5.61969C5.9183 5.61969 5.91834 5.61969 5.91837 5.61969C5.91841 5.61969 5.91848 5.61969 5.91855 5.61969C5.9187 5.61969 5.91892 5.61969 5.9192 5.61969C5.91975 5.61969 5.92063 5.61968 5.92172 5.61964C5.92385 5.61957 5.92728 5.6194 5.93147 5.61886C5.94031 5.61772 5.95218 5.61501 5.9649 5.60846C5.99138 5.59482 6.00431 5.57376 6.0099 5.56224C6.01867 5.54417 6.02043 5.52614 6.02084 5.52275L5.8223 5.49866ZM5.86502 5.43507L1.1581 8.39877L1.26467 8.56802L5.97158 5.60432L5.86502 5.43507ZM1.15949 8.39791C0.993737 8.49854 0.895727 8.67762 0.900143 8.87656L1.10009 8.87212C1.09724 8.74348 1.15959 8.63183 1.26328 8.56887L1.15949 8.39791ZM0.900145 8.87664C0.904516 9.06696 1.01111 9.24343 1.17795 9.34205L1.27973 9.16989C1.16985 9.10493 1.10281 8.99044 1.10009 8.87204L0.900145 8.87664ZM1.17944 9.34291L8.50657 13.5065L8.60538 13.3327L1.27825 9.16903L1.17944 9.34291ZM8.50137 13.5034C8.58963 13.5609 8.68644 13.5832 8.77961 13.5832V13.3832C8.7186 13.3832 8.66123 13.3688 8.61058 13.3358L8.50137 13.5034ZM8.77961 13.5832C8.88493 13.5832 8.98664 13.5491 9.07331 13.4954L8.96808 13.3254C8.90766 13.3627 8.84192 13.3832 8.77961 13.3832V13.5832ZM9.07398 13.495L12.4235 11.386L12.3169 11.2168L8.96741 13.3258L9.07398 13.495ZM12.4244 11.3854C12.6815 11.2196 12.7588 10.8865 12.5973 10.6222L12.4267 10.7264C12.5316 10.8982 12.4818 11.1104 12.316 11.2173L12.4244 11.3854ZM12.5964 10.6206C12.4337 10.3649 12.0922 10.2871 11.8338 10.4539L11.9423 10.6219C12.1067 10.5158 12.3241 10.5651 12.4276 10.7279L12.5964 10.6206ZM11.8348 10.4533L8.71445 12.4168L8.82097 12.5861L11.9413 10.6225L11.8348 10.4533ZM8.81709 12.4145L2.38249 8.76009L2.28372 8.934L8.71832 12.5884L8.81709 12.4145ZM2.38641 8.93165L6.22461 6.51349L6.118 6.34427L2.2798 8.76243L2.38641 8.93165ZM6.1219 6.51582L12.9847 10.4156L13.0835 10.2417L6.22071 6.34193L6.1219 6.51582ZM12.9341 10.3286V15.4924H13.1341V10.3286H12.9341ZM12.9341 15.4924C12.9341 15.692 13.0431 15.8795 13.2184 15.9791L13.3172 15.8052C13.2042 15.741 13.1341 15.6197 13.1341 15.4924H12.9341ZM13.2207 15.9804C13.3038 16.0247 13.3954 16.0466 13.4865 16.0466V15.8466C13.4273 15.8466 13.3682 15.8324 13.3149 15.8039L13.2207 15.9804ZM13.4865 16.0466C13.5918 16.0466 13.6935 16.0127 13.7802 15.9591L13.6751 15.789C13.6148 15.8262 13.549 15.8466 13.4865 15.8466V16.0466ZM13.7809 15.9587L16.1344 14.4768L16.0278 14.3075L13.6743 15.7894L13.7809 15.9587ZM16.1339 14.4771C16.2951 14.3768 16.3925 14.1992 16.3925 14.0104H16.1925C16.1925 14.1308 16.1302 14.2439 16.0283 14.3072L16.1339 14.4771ZM16.3925 14.0104V8.58327H16.1925V14.0104H16.3925ZM16.2925 8.58327C16.3924 8.57835 16.3924 8.57835 16.3924 8.57835C16.3924 8.57835 16.3924 8.57835 16.3924 8.57835C16.3924 8.57835 16.3924 8.57835 16.3924 8.57835C16.3924 8.57835 16.3924 8.57834 16.3924 8.57834C16.3924 8.57833 16.3924 8.57832 16.3924 8.57831C16.3924 8.57829 16.3924 8.57826 16.3924 8.57822C16.3924 8.57814 16.3923 8.57803 16.3923 8.57789C16.3923 8.57761 16.3923 8.57722 16.3923 8.57675C16.3922 8.57583 16.3922 8.57456 16.3921 8.57326C16.392 8.57203 16.3919 8.57048 16.3919 8.56911C16.3918 8.56853 16.3917 8.56738 16.3916 8.56611C16.3916 8.56569 16.3915 8.56401 16.3912 8.56193C16.3911 8.5613 16.3908 8.55818 16.39 8.55427C16.3897 8.55298 16.3886 8.54722 16.386 8.54018C16.385 8.53732 16.3817 8.52824 16.3748 8.51806C16.3722 8.51423 16.346 8.47406 16.2919 8.47406V8.67407C16.2641 8.67407 16.2433 8.66279 16.2312 8.65351C16.2196 8.64465 16.2126 8.63525 16.2091 8.63008C16.2022 8.61989 16.1989 8.61082 16.1979 8.60796C16.1953 8.60094 16.1942 8.59519 16.1939 8.59392C16.1932 8.59004 16.1928 8.58697 16.1927 8.5864C16.1925 8.58446 16.1924 8.58298 16.1923 8.58281C16.1923 8.58205 16.1923 8.58161 16.1923 8.5819C16.1923 8.58225 16.1923 8.583 16.1924 8.58408C16.1924 8.58508 16.1925 8.58612 16.1925 8.58692C16.1926 8.58731 16.1926 8.58764 16.1926 8.58787C16.1926 8.58798 16.1926 8.58807 16.1926 8.58812C16.1926 8.58815 16.1926 8.58817 16.1926 8.58818C16.1926 8.58819 16.1926 8.58819 16.1926 8.58819C16.1926 8.58819 16.1926 8.5882 16.1926 8.58819C16.1926 8.58819 16.1926 8.58819 16.1926 8.58819V8.58819C16.1926 8.58819 16.1926 8.58819 16.2925 8.58327ZM16.3919 8.57256C16.3916 8.55008 16.3903 8.53744 16.3884 8.51873L16.1894 8.53886C16.1912 8.55609 16.1917 8.56187 16.192 8.57557L16.3919 8.57256ZM16.3565 8.45508L16.3565 8.45507L16.2214 8.6025L16.2214 8.60251L16.3565 8.45508Z" fill="#717171"/>
<path fill-rule="evenodd" clip-rule="evenodd" d="M20.306 7.95277L16.9564 10.0613C16.7449 10.1886 16.6815 10.4703 16.8146 10.6794C16.9006 10.8248 17.0476 10.8975 17.1979 10.8975C17.2803 10.8975 17.3638 10.8702 17.4386 10.8248L20.7881 8.7162C20.9997 8.57985 21.0631 8.30714 20.9299 8.08901C20.7969 7.87999 20.5174 7.81641 20.306 7.95277Z" fill="#717171" stroke="#717171" stroke-width="0.2"/>
<path fill-rule="evenodd" clip-rule="evenodd" d="M11.8882 13.2527L8.76785 15.2159L1.67618 11.1895C1.45909 11.0622 1.18263 11.135 1.05918 11.3531C0.935728 11.5712 1.01164 11.8529 1.229 11.9711L8.55621 16.1339C8.62558 16.1793 8.70267 16.1975 8.77976 16.1975C8.86357 16.1975 8.9473 16.1702 9.02085 16.1248L12.3704 14.0161C12.5819 13.8889 12.6454 13.6072 12.5122 13.3981C12.3791 13.18 12.0996 13.1163 11.8882 13.2527Z" fill="#717171" stroke="#717171" stroke-width="0.2"/>
<path fill-rule="evenodd" clip-rule="evenodd" d="M20.306 10.6713L16.9564 12.7795C16.7449 12.9159 16.6815 13.1885 16.8146 13.4066C16.9006 13.5428 17.0476 13.6156 17.1979 13.6156C17.2803 13.6156 17.3638 13.5883 17.4386 13.5428L20.7881 11.4346C20.9997 11.2982 21.0631 11.0257 20.9299 10.8166C20.7969 10.5985 20.5174 10.5349 20.306 10.6713Z" fill="#717171" stroke="#717171" stroke-width="0.2"/>
<path fill-rule="evenodd" clip-rule="evenodd" d="M11.8882 15.9707L8.76785 17.9339L1.67618 13.9075C1.45909 13.7802 1.18263 13.853 1.05918 14.0711C0.935728 14.2893 1.01164 14.571 1.229 14.6891L8.55621 18.8519C8.62558 18.8973 8.70267 18.9155 8.77976 18.9155C8.86357 18.9155 8.9473 18.8882 9.02085 18.8428L12.3704 16.7341C12.5819 16.6069 12.6454 16.3252 12.5122 16.1161C12.3791 15.898 12.0996 15.8343 11.8882 15.9707Z" fill="#717171" stroke="#717171" stroke-width="0.2"/>
</svg>
