<svg width="16" height="20" viewBox="0 0 16 20" fill="none" xmlns="http://www.w3.org/2000/svg">
<path opacity="0.01" fill-rule="evenodd" clip-rule="evenodd" d="M10 20C4.47715 20 0 15.5228 0 10C0 4.47715 4.47715 0 10 0C15.5228 0 20 4.47715 20 10C20 15.5228 15.5228 20 10 20Z" fill="#D1596B"/>
<path fill-rule="evenodd" clip-rule="evenodd" d="M10.0001 4.14699C13.2326 4.14699 15.8531 6.76749 15.8531 10.0001C15.8531 13.2326 13.2326 15.8531 10.0001 15.8531C6.7675 15.8531 4.147 13.2326 4.147 10.0001C4.147 6.76749 6.7675 4.14699 10.0001 4.14699ZM5.15385 14.8463C5.78296 15.4753 6.51578 15.9693 7.33203 16.3146C8.17764 16.6723 9.07528 16.8536 10.0001 16.8536C10.9248 16.8536 11.8225 16.6723 12.6681 16.3146C13.4843 15.9694 14.2172 15.4753 14.8463 14.8463C15.4754 14.2171 15.9694 13.4843 16.3146 12.6681C16.6723 11.8224 16.8537 10.9248 16.8537 10.0001C16.8537 9.07525 16.6723 8.17761 16.3146 7.33202C15.9694 6.51577 15.4754 5.78294 14.8463 5.15384C14.2172 4.52473 13.4843 4.03071 12.6681 3.68548C11.8225 3.3278 10.9248 3.14648 10.0001 3.14648C9.07528 3.14648 8.17764 3.32783 7.33203 3.68548C6.51578 4.03071 5.78295 4.52476 5.15385 5.15384C4.52474 5.78292 4.03072 6.51577 3.68546 7.332C3.32783 8.17761 3.14648 9.07525 3.14648 10.0001C3.14648 10.9248 3.32783 11.8225 3.68549 12.6681C4.03072 13.4843 4.52477 14.2171 5.15385 14.8463Z" fill="#D1596B"/>
<path fill-rule="evenodd" clip-rule="evenodd" d="M10 4.15863C8.43973 4.15863 6.97284 4.76625 5.86954 5.86953C4.76626 6.97283 4.15864 8.43972 4.15864 10C4.15864 11.5603 4.76626 13.0272 5.86954 14.1304C6.97282 15.2337 8.43973 15.8413 10 15.8413C11.5603 15.8413 13.0272 15.2337 14.1305 14.1304C15.2338 13.0272 15.8414 11.5603 15.8414 10C15.8414 8.43972 15.2338 6.97281 14.1305 5.86953C13.0272 4.76623 11.5603 4.15863 10 4.15863ZM10 15.8647C8.4335 15.8647 6.96072 15.2547 5.85303 14.147C4.74534 13.0393 4.13529 11.5665 4.13529 10C4.13529 8.43349 4.74532 6.96071 5.85303 5.85302C6.96072 4.74533 8.4335 4.13528 10 4.13528C11.5665 4.13528 13.0393 4.74533 14.147 5.85302C15.2547 6.96074 15.8647 8.43349 15.8647 10C15.8647 11.5665 15.2547 13.0393 14.147 14.147C13.0393 15.2547 11.5665 15.8647 10 15.8647H10ZM10 3.15811C9.07683 3.15811 8.18073 3.33913 7.33655 3.69618C6.52173 4.04083 5.79011 4.53401 5.16208 5.16204C4.53402 5.7901 4.04084 6.52169 3.69619 7.33649C3.33914 8.18069 3.15812 9.07682 3.15812 10C3.15812 10.9231 3.33914 11.8193 3.69619 12.6635C4.04084 13.4783 4.53402 14.2099 5.16208 14.8379C5.79009 15.4659 6.52168 15.9591 7.33655 16.3038C8.18064 16.6608 9.07676 16.8419 10 16.8419C10.9233 16.8419 11.8194 16.6608 12.6635 16.3038C13.4783 15.9591 14.2099 15.4659 14.838 14.8379C15.466 14.2098 15.9592 13.4782 16.3038 12.6635C16.6609 11.8193 16.8419 10.9232 16.8419 10C16.8419 9.07682 16.6609 8.1807 16.3038 7.33654C15.9592 6.52176 15.466 5.79017 14.838 5.16207C14.2099 4.53404 13.4783 4.04085 12.6635 3.69621C11.8193 3.33914 10.9232 3.15811 10 3.15811ZM10 16.8652C9.07361 16.8652 8.17445 16.6836 7.32744 16.3253C6.50979 15.9795 5.7757 15.4846 5.14557 14.8545C4.51539 14.2243 4.02052 13.4901 3.67471 12.6725C3.31642 11.8255 3.13477 10.9263 3.13477 10C3.13477 9.0737 3.31642 8.17449 3.67469 7.32742C4.0205 6.50982 4.51539 5.77573 5.14555 5.14555C5.77571 4.51537 6.50982 4.0205 7.32742 3.67469C8.1745 3.31643 9.07368 3.13477 10 3.13477C10.9264 3.13477 11.8256 3.31642 12.6726 3.67471C13.4902 4.02052 14.2243 4.51541 14.8545 5.14557C15.4847 5.7758 15.9795 6.50989 16.3253 7.32744C16.6836 8.17452 16.8653 9.0737 16.8653 10C16.8653 10.9263 16.6836 11.8255 16.3253 12.6726C15.9795 13.4902 15.4847 14.2242 14.8545 14.8545C14.2243 15.4846 13.4902 15.9795 12.6726 16.3254C11.8256 16.6836 10.9264 16.8652 10 16.8652L10 16.8652Z" fill="#D1596B"/>
<path fill-rule="evenodd" clip-rule="evenodd" d="M7.45031 12.5493C7.54811 12.6471 7.67625 12.696 7.80444 12.696C7.9326 12.696 8.06076 12.6471 8.15856 12.5493L9.99962 10.7083L11.8407 12.5493C11.9385 12.6471 12.0666 12.696 12.1948 12.696C12.323 12.696 12.4511 12.6471 12.5489 12.5493C12.7445 12.3538 12.7445 12.0367 12.5489 11.8411L10.7078 10L12.5489 8.15898C12.7445 7.96339 12.7445 7.64628 12.5489 7.45073C12.3534 7.25514 12.0362 7.25514 11.8407 7.45073L9.99958 9.2918L8.15852 7.45073C7.96293 7.25514 7.64583 7.25514 7.45026 7.45073C7.25468 7.64629 7.25468 7.96338 7.45026 8.15898L9.29137 10L7.45026 11.8411C7.25471 12.0367 7.25471 12.3538 7.45031 12.5493Z" fill="#D1596B"/>
<path fill-rule="evenodd" clip-rule="evenodd" d="M9.99959 10.691L11.8469 12.5383C11.9391 12.6306 12.0618 12.6815 12.1923 12.6815C12.3228 12.6815 12.4455 12.6306 12.5378 12.5383C12.6301 12.4461 12.681 12.3234 12.681 12.1929C12.681 12.0624 12.6301 11.9396 12.5378 11.8474L10.6905 10.0001L12.5378 8.15284C12.63 8.06057 12.6809 7.93786 12.6809 7.80735C12.6809 7.67684 12.63 7.55418 12.5378 7.46189C12.4455 7.36962 12.3228 7.31879 12.1923 7.31879C12.0618 7.31879 11.9391 7.36962 11.8469 7.46189L9.99959 9.30915L8.15232 7.46189C8.06005 7.36962 7.93734 7.31879 7.80683 7.31879C7.67632 7.31879 7.55366 7.36962 7.46137 7.46189C7.27089 7.6524 7.27089 7.96233 7.46137 8.15284L9.30864 10.0001L7.46137 11.8474C7.3691 11.9396 7.31827 12.0624 7.31827 12.1929C7.31827 12.3234 7.3691 12.4461 7.46137 12.5383C7.55367 12.6306 7.67634 12.6815 7.80686 12.6815C7.93737 12.6815 8.06005 12.6306 8.15235 12.5383L9.99959 10.691ZM12.1923 12.7048C12.0556 12.7048 11.927 12.6516 11.8303 12.5548L9.99959 10.7241L8.16886 12.5548C8.07217 12.6516 7.94359 12.7048 7.80686 12.7048C7.67011 12.7048 7.54154 12.6516 7.44485 12.5548C7.34817 12.4581 7.29492 12.3296 7.29492 12.1929C7.29492 12.0561 7.34817 11.9276 7.44485 11.8309L9.27563 10.0001L7.44485 8.16936C7.24528 7.96974 7.24528 7.64498 7.44485 7.44536C7.54154 7.34867 7.6701 7.29541 7.80686 7.29541C7.94359 7.29541 8.07216 7.34866 8.16886 7.44536L9.99961 9.27614L11.8304 7.44536C11.9271 7.34867 12.0556 7.29541 12.1924 7.29541C12.3291 7.29541 12.4576 7.34866 12.5543 7.44536C12.651 7.54207 12.7043 7.67063 12.7043 7.80736C12.7043 7.94411 12.651 8.07266 12.5543 8.16936L10.7236 10.0001L12.5544 11.8309C12.6511 11.9276 12.7043 12.0561 12.7043 12.1929C12.7043 12.3296 12.6511 12.4581 12.5544 12.5548C12.4576 12.6515 12.3291 12.7048 12.1923 12.7048Z" fill="#D1596B"/>
</svg>
