<svg width="255" height="118" viewBox="0 0 255 118" fill="none" xmlns="http://www.w3.org/2000/svg">
<path d="M0 110.52H6.16022H20.1017L36.9613 116.834L52.2 104.656H68.7353L87.2158 95.1835L101.158 99.6941L117.628 95.1835L133.447 56.3147L147.238 70.3758H170.541L182.526 61.0474H191.45L202.401 41.2563L213.353 27.4887L242.557 12" stroke="#4CB748" stroke-width="2"/>
<path fill-rule="evenodd" clip-rule="evenodd" d="M243 16C240.791 16 239 14.2091 239 12C239 9.79086 240.791 8 243 8C245.209 8 247 9.79086 247 12C247 14.2091 245.209 16 243 16Z" fill="black"/>
<path d="M235 12C235 16.4183 238.582 20 243 20C247.418 20 251 16.4183 251 12C251 7.58172 247.418 4 243 4C238.582 4 235 7.58172 235 12Z" stroke="#4CB748" stroke-opacity="0.4" stroke-width="8"/>
</svg>
