<svg width="24" height="24" viewBox="0 0 24 24" fill="none" xmlns="http://www.w3.org/2000/svg">
<path d="M12 22.5L11.7 22.4C8.80005 21.1 6.40005 19.2 4.40005 16.6C3.70005 15.7 3.30005 14.7 3.30005 13.6V1.5L4.40005 2C5.80005 2.6 7.00005 2.9 8.00005 2.9C9.80005 2.9 11.6 1.8 11.6 1.8L12 1.5L12.4 1.7C12.4 1.7 14.3 2.8 16.1 2.8C17.4 2.8 18.6 2.4 19.6 2L20.7001 1.5V13.7C20.7001 14.7 20.4 15.7 19.8 16.6C17.9 19.2 15.4 21.1 12.4 22.4L12 22.5ZM4.90005 3.9V13.5C4.90005 14.2 5.10005 15 5.60005 15.5C7.30005 17.7 9.50005 19.4 12 20.6C14.6 19.4 16.8 17.7 18.4 15.5C18.8 14.9 19 14.3 19 13.6V3.9C18.1 4.2 17.1 4.4 16 4.4C14.3 4.4 12.7 3.7 11.9 3.3C11.2 3.7 9.60005 4.4 7.90005 4.4C6.90005 4.5 5.80005 4.2 4.90005 3.9Z" fill="#717171"/>
<path d="M16.9001 9.59999L15.7001 8.39999L10.9001 13.2L8.3001 10.6L7.1001 11.7L10.9001 15.6L16.9001 9.59999Z" fill="#FCAF17"/>
</svg>
