<svg width="24" height="24" viewBox="0 0 24 24" fill="none" xmlns="http://www.w3.org/2000/svg">
<ellipse cx="12" cy="16.5" rx="3" ry="2.5" fill="#FCAF17"/>
<path d="M22.125 18.75H17.25V10.2787L20.25 7.27875V8.625C20.25 8.72446 20.2895 8.81984 20.3598 8.89017C20.4302 8.96049 20.5255 9 20.625 9C20.7245 9 20.8198 8.96049 20.8902 8.89017C20.9605 8.81984 21 8.72446 21 8.625V6.375C21 6.27554 20.9605 6.18016 20.8902 6.10983C20.8198 6.03951 20.7245 6 20.625 6H18.375C18.2755 6 18.1802 6.03951 18.1098 6.10983C18.0395 6.18016 18 6.27554 18 6.375C18 6.47446 18.0395 6.56984 18.1098 6.64017C18.1802 6.71049 18.2755 6.75 18.375 6.75H19.7213L15.75 10.7213L12.2662 7.23375C12.2314 7.1986 12.1899 7.1707 12.1442 7.15167C12.0985 7.13263 12.0495 7.12283 12 7.12283C11.9505 7.12283 11.9015 7.13263 11.8558 7.15167C11.8101 7.1707 11.7686 7.1986 11.7338 7.23375L3.85875 15.1088C3.78814 15.1794 3.74847 15.2751 3.74847 15.375C3.74847 15.4749 3.78814 15.5706 3.85875 15.6412C3.92936 15.7119 4.02514 15.7515 4.125 15.7515C4.22486 15.7515 4.32064 15.7119 4.39125 15.6412L6.75 13.2787V18.75H2.25V4.875C2.25 4.77554 2.21049 4.68016 2.14016 4.60984C2.06984 4.53951 1.97446 4.5 1.875 4.5C1.77554 4.5 1.68016 4.53951 1.60984 4.60984C1.53951 4.68016 1.5 4.77554 1.5 4.875V19.125C1.5 19.2245 1.53951 19.3198 1.60984 19.3902C1.68016 19.4605 1.77554 19.5 1.875 19.5H22.125C22.2245 19.5 22.3198 19.4605 22.3902 19.3902C22.4605 19.3198 22.5 19.2245 22.5 19.125C22.5 19.0255 22.4605 18.9302 22.3902 18.8598C22.3198 18.7895 22.2245 18.75 22.125 18.75ZM12 18.75C11.555 18.75 11.12 18.618 10.75 18.3708C10.38 18.1236 10.0916 17.7722 9.92127 17.361C9.75097 16.9499 9.70642 16.4975 9.79323 16.061C9.88005 15.6246 10.0943 15.2237 10.409 14.909C10.7237 14.5943 11.1246 14.38 11.561 14.2932C11.9975 14.2064 12.4499 14.251 12.861 14.4213C13.2722 14.5916 13.6236 14.88 13.8708 15.25C14.118 15.62 14.25 16.055 14.25 16.5C14.25 17.0967 14.0129 17.669 13.591 18.091C13.169 18.5129 12.5967 18.75 12 18.75ZM7.5 18.75V12.5287L11.625 8.40375V13.5262C11.0534 13.6002 10.5153 13.8371 10.0748 14.2088C9.63441 14.5805 9.31037 15.0712 9.14147 15.6223C8.97256 16.1733 8.96595 16.7613 9.12241 17.3159C9.27888 17.8706 9.59179 18.3685 10.0238 18.75H7.5ZM15 16.5C14.9993 15.7698 14.7324 15.0648 14.2491 14.5174C13.7658 13.9699 13.0995 13.6175 12.375 13.5262V8.40375L15.4838 11.5162C15.5186 11.5514 15.5601 11.5793 15.6058 11.5983C15.6515 11.6174 15.7005 11.6272 15.75 11.6272C15.7995 11.6272 15.8485 11.6174 15.8942 11.5983C15.9399 11.5793 15.9814 11.5514 16.0162 11.5162L16.5 11.0287V18.75H13.9762C14.2969 18.4692 14.5541 18.1233 14.7306 17.7353C14.9072 17.3474 14.999 16.9262 15 16.5Z" fill="#717171"/>
<path d="M12.75 16.875C12.6758 16.875 12.6033 16.897 12.5417 16.9382C12.48 16.9794 12.4319 17.038 12.4035 17.1065C12.3752 17.175 12.3677 17.2504 12.3822 17.3232C12.3967 17.3959 12.4324 17.4627 12.4848 17.5152C12.5373 17.5676 12.6041 17.6033 12.6768 17.6178C12.7496 17.6323 12.825 17.6248 12.8935 17.5965C12.962 17.5681 13.0206 17.52 13.0618 17.4583C13.103 17.3967 13.125 17.3242 13.125 17.25C13.125 17.1505 13.0855 17.0552 13.0152 16.9848C12.9448 16.9145 12.8495 16.875 12.75 16.875Z" fill="#717171"/>
<path d="M11.25 16.125C11.3495 16.125 11.4448 16.0855 11.5152 16.0152C11.5855 15.9448 11.625 15.8495 11.625 15.75C11.625 15.6505 11.5855 15.5552 11.5152 15.4848C11.4448 15.4145 11.3495 15.375 11.25 15.375C11.1505 15.375 11.0552 15.4145 10.9848 15.4848C10.9145 15.5552 10.875 15.6505 10.875 15.75C10.875 15.8495 10.9145 15.9448 10.9848 16.0152C11.0552 16.0855 11.1505 16.125 11.25 16.125Z" fill="#717171"/>
<path d="M13.0163 15.484C12.9814 15.4488 12.9399 15.4209 12.8942 15.4019C12.8485 15.3828 12.7995 15.373 12.75 15.373C12.7005 15.373 12.6515 15.3828 12.6058 15.4019C12.5601 15.4209 12.5186 15.4488 12.4838 15.484L10.9838 16.984C10.9488 17.0189 10.9211 17.0604 10.9021 17.1061C10.8832 17.1518 10.8735 17.2008 10.8735 17.2502C10.8735 17.2997 10.8832 17.3486 10.9021 17.3943C10.9211 17.44 10.9488 17.4815 10.9838 17.5165C11.0187 17.5514 11.0602 17.5792 11.1059 17.5981C11.1516 17.617 11.2006 17.6268 11.25 17.6268C11.2995 17.6268 11.3484 17.617 11.3941 17.5981C11.4398 17.5792 11.4813 17.5514 11.5163 17.5165L13.0163 16.0165C13.0514 15.9816 13.0793 15.9401 13.0983 15.8944C13.1174 15.8487 13.1272 15.7997 13.1272 15.7502C13.1272 15.7007 13.1174 15.6517 13.0983 15.606C13.0793 15.5603 13.0514 15.5188 13.0163 15.484Z" fill="#717171"/>
</svg>
