<svg width="24" height="24" viewBox="0 0 24 24" fill="none" xmlns="http://www.w3.org/2000/svg">
<g clip-path="url(#clip0_1631_46614)">
<rect x="7.96155" y="11.0771" width="1.15385" height="1.96154" fill="#FCAF17"/>
<rect x="11.4231" y="8.30762" width="1.15385" height="4.73077" fill="#FCAF17"/>
<rect x="14.8846" y="9.46143" width="1.15385" height="3.57692" fill="#FCAF17"/>
<rect x="18.1154" y="7.61523" width="1.15385" height="5.19231" fill="#FCAF17"/>
<path d="M23.0689 14.4916L23.0637 14.483C22.8235 14.1174 22.457 13.8532 22.0342 13.7411C21.6115 13.6289 21.1622 13.6766 20.7724 13.8751L18.3694 15.1043C18.0818 14.7001 17.6584 14.4128 17.1765 14.2948C16.6946 14.1768 16.1863 14.236 15.7444 14.4616L12.7185 16.0126C12.5606 16.0937 12.3854 16.1355 12.2078 16.1344C12.0302 16.1333 11.8555 16.0893 11.6985 16.0062L9.63605 14.9112C8.85551 14.4945 7.97479 14.3023 7.09161 14.3558C6.20844 14.4092 5.35735 14.7064 4.6328 15.2142L4.39955 14.1035C4.38939 14.0551 4.36978 14.0093 4.34185 13.9685C4.31392 13.9278 4.27821 13.8929 4.23678 13.866C4.19534 13.8391 4.14901 13.8207 4.10042 13.8118C4.05184 13.8028 4.00197 13.8036 3.95368 13.814L1.04593 14.4413C0.94912 14.4622 0.864505 14.5205 0.810549 14.6036C0.756592 14.6866 0.737675 14.7876 0.757925 14.8846L2.45105 22.952C2.46831 23.0365 2.51423 23.1126 2.58104 23.1672C2.64786 23.2219 2.73148 23.2518 2.8178 23.252C2.84426 23.2518 2.87064 23.2491 2.89655 23.2437L5.8058 22.6175C5.90275 22.5967 5.98753 22.5383 6.04157 22.4552C6.09561 22.372 6.11453 22.2709 6.09417 22.1738L5.94417 21.4516L6.9383 21.2378C7.22793 21.1761 7.52604 21.1647 7.81955 21.2041L12.4954 21.7167C13.4662 21.8453 14.4504 21.6143 15.2625 21.0672L22.7524 16.0422C22.9973 15.8764 23.1676 15.6212 23.2268 15.3314C23.2859 15.0416 23.2293 14.7401 23.0689 14.4916V14.4916ZM3.10768 22.4292L1.5683 15.0961L3.7433 14.6273L5.2838 21.9608L3.10768 22.4292ZM22.335 15.4205L14.8455 20.4455C14.1812 20.8906 13.3769 21.0774 12.5843 20.9705L7.9088 20.4578C7.53253 20.4075 7.15037 20.4227 6.7793 20.5028L5.78855 20.7158L4.80005 16.0126L5.05618 15.8341C5.66783 15.4039 6.38684 15.1518 7.13323 15.1058C7.87962 15.0599 8.62412 15.2219 9.28392 15.5738L11.3464 16.6688C11.6099 16.809 11.9034 16.8833 12.2019 16.8853C12.5003 16.8873 12.7948 16.817 13.0602 16.6805L16.0875 15.1276C16.3901 14.973 16.7404 14.9404 17.0663 15.0365C17.3921 15.1327 17.6687 15.3502 17.8388 15.6443C17.8889 15.7304 17.9031 15.8328 17.8783 15.9292C17.8534 16.0257 17.7915 16.1085 17.706 16.1596L13.5338 18.6346C12.8042 19.0701 11.9349 19.2078 11.1064 19.019L7.34292 18.119L7.16855 18.8487L10.9358 19.7487C11.9527 19.9817 13.0202 19.8136 13.9163 19.2796L18.0889 16.8046C18.2597 16.702 18.4002 16.5558 18.496 16.3811C18.5918 16.2063 18.6395 16.0093 18.6342 15.8101L21.1125 14.5418C21.337 14.4279 21.5955 14.4004 21.8389 14.4646C22.0823 14.5288 22.2936 14.6803 22.4325 14.8902L22.4367 14.897C22.4906 14.9804 22.5102 15.0816 22.4913 15.1792C22.4723 15.2768 22.4163 15.3632 22.335 15.4205V15.4205Z" fill="#717171"/>
<path d="M3.17763 15.5179L2.4436 15.6719L2.59744 16.4052L3.33146 16.2512L3.17763 15.5179Z" fill="#717171"/>
<path d="M7.875 10.5C7.77554 10.5 7.68016 10.5395 7.60983 10.6098C7.53951 10.6802 7.5 10.7755 7.5 10.875V13.125C7.5 13.2245 7.53951 13.3198 7.60983 13.3902C7.68016 13.4605 7.77554 13.5 7.875 13.5H9.375C9.47446 13.5 9.56984 13.4605 9.64017 13.3902C9.71049 13.3198 9.75 13.2245 9.75 13.125V10.875C9.75 10.7755 9.71049 10.6802 9.64017 10.6098C9.56984 10.5395 9.47446 10.5 9.375 10.5H7.875ZM9 12.75H8.25V11.25H9V12.75Z" fill="#717171"/>
<path d="M11.25 7.875C11.1505 7.875 11.0552 7.91451 10.9848 7.98483C10.9145 8.05516 10.875 8.15054 10.875 8.25V13.125C10.875 13.2245 10.9145 13.3198 10.9848 13.3902C11.0552 13.4605 11.1505 13.5 11.25 13.5H12.75C12.8495 13.5 12.9448 13.4605 13.0152 13.3902C13.0855 13.3198 13.125 13.2245 13.125 13.125V8.25C13.125 8.15054 13.0855 8.05516 13.0152 7.98483C12.9448 7.91451 12.8495 7.875 12.75 7.875H11.25ZM12.375 12.75H11.625V8.625H12.375V12.75Z" fill="#717171"/>
<path d="M14.625 9C14.5255 9 14.4302 9.03951 14.3598 9.10983C14.2895 9.18016 14.25 9.27554 14.25 9.375V13.125C14.25 13.2245 14.2895 13.3198 14.3598 13.3902C14.4302 13.4605 14.5255 13.5 14.625 13.5H16.125C16.2245 13.5 16.3198 13.4605 16.3902 13.3902C16.4605 13.3198 16.5 13.2245 16.5 13.125V9.375C16.5 9.27554 16.4605 9.18016 16.3902 9.10983C16.3198 9.03951 16.2245 9 16.125 9H14.625ZM15.75 12.75H15V9.75H15.75V12.75Z" fill="#717171"/>
<path d="M18 7.125C17.9005 7.125 17.8052 7.16451 17.7348 7.23483C17.6645 7.30516 17.625 7.40054 17.625 7.5V13.125C17.625 13.2245 17.6645 13.3198 17.7348 13.3902C17.8052 13.4605 17.9005 13.5 18 13.5H19.5C19.5995 13.5 19.6948 13.4605 19.7652 13.3902C19.8355 13.3198 19.875 13.2245 19.875 13.125V7.5C19.875 7.40054 19.8355 7.30516 19.7652 7.23483C19.6948 7.16451 19.5995 7.125 19.5 7.125H18ZM19.125 12.75H18.375V7.875H19.125V12.75Z" fill="#717171"/>
<path d="M7.87511 4.65525L10.235 7.01513C10.3053 7.08543 10.4007 7.12492 10.5001 7.12492C10.5995 7.12492 10.6949 7.08543 10.7652 7.01513L15.0001 2.78025L18.11 5.89012C18.1803 5.96043 18.2757 5.99992 18.3751 5.99992C18.4745 5.99992 18.5699 5.96043 18.6402 5.89012L22.5001 2.03025V3H23.2501V1.125C23.2501 1.02554 23.2106 0.930161 23.1403 0.859835C23.07 0.789509 22.9746 0.75 22.8751 0.75H21.0001V1.5H21.9699L18.3751 5.09475L15.2652 1.98488C15.1949 1.91457 15.0995 1.87508 15.0001 1.87508C14.9007 1.87508 14.8053 1.91457 14.735 1.98488L10.5001 6.21975L8.14024 3.85988C8.06991 3.78957 7.97455 3.75008 7.87511 3.75008C7.77567 3.75008 7.68031 3.78957 7.60999 3.85988L2.35999 9.10987L2.89024 9.64013L7.87511 4.65525Z" fill="#717171"/>
</g>
<defs>
<clipPath id="clip0_1631_46614">
<rect width="24" height="24" fill="white"/>
</clipPath>
</defs>
</svg>
