<svg width="28" height="27" viewBox="0 0 28 27" fill="none" xmlns="http://www.w3.org/2000/svg">
<g clip-path="url(#clip0_13594_56367)">
<path d="M27.9833 23.4799C27.584 28.2949 20.5061 27.8973 20.5061 23.0653V15.5411C20.5061 13.7165 19.7812 12.0622 18.6096 10.8681C17.4367 9.6725 15.8172 8.93272 14.0306 8.93272C10.4534 8.93272 7.55519 11.8904 7.55519 15.5411V23.1363C7.55519 27.9896 0.455008 28.4184 0.0181165 23.5836C-0.0556263 22.7657 0.0890765 21.9506 0.532925 21.1668L4.46355 14.2191L7.36735 9.08749C8.62515 6.86388 10.6816 5.58594 12.8619 5.25225C13.1485 5.20682 13.4365 5.17984 13.7245 5.16706H13.7468C13.8386 5.16422 13.9305 5.16138 14.0223 5.16138H14.0306C14.1253 5.16138 14.2226 5.1628 14.3173 5.16706H14.327C14.6192 5.17842 14.91 5.20682 15.198 5.25225C17.3783 5.58594 19.4361 6.8653 20.6939 9.08749L23.5991 14.222L27.4532 21.0348C27.9026 21.8285 28.0515 22.6521 27.9819 23.4799H27.9833Z" fill="url(#paint0_linear_13594_56367)"/>
<path style="mix-blend-mode:overlay" d="M23.6269 14.9533C23.6269 17.8144 22.4248 20.3888 20.5075 22.1793V15.5425C20.5075 13.7179 19.7825 12.0637 18.611 10.8695C17.4381 9.67396 15.8185 8.93418 14.032 8.93418C10.4548 8.93418 7.55655 11.8919 7.55655 15.5425V22.1779C5.64062 20.3873 4.43848 17.8144 4.43848 14.9547C4.43848 14.7076 4.44682 14.4634 4.46491 14.2206L7.36871 9.08895C8.62651 6.86534 10.683 5.5874 12.8632 5.25372C13.1499 5.20828 13.4379 5.1813 13.7259 5.16852H13.7482C13.84 5.16568 13.9318 5.16284 14.0236 5.16284H14.032C14.1266 5.16284 14.224 5.16426 14.3186 5.16852H14.3284C14.6205 5.17988 14.9113 5.20828 15.1994 5.25372C17.3796 5.5874 19.4375 6.86676 20.6953 9.08895L23.6005 14.2234C23.6186 14.4648 23.6269 14.7076 23.6269 14.9533Z" fill="url(#paint1_linear_13594_56367)"/>
<path d="M18.554 5.14284C17.4339 3.88762 15.8185 3.09814 14.0237 3.09814C13.5687 3.09814 13.1248 3.14784 12.6991 3.24723C11.4413 3.52838 10.331 4.20427 9.49335 5.14284L12.0159 1.12159C12.7951 -0.120846 14.4021 -0.330996 15.4623 0.489725C15.6808 0.657277 15.8728 0.867426 16.0328 1.12159L18.5554 5.14284H18.554Z" fill="url(#paint2_linear_13594_56367)"/>
<path d="M18.0085 15.5411V22.9106C18.0085 23.5183 17.8777 24.0976 17.644 24.6173C17.0095 26.0245 15.6181 27.0014 14.0014 27.0014C12.8938 27.0014 11.8934 26.5427 11.1685 25.803C10.445 25.0632 9.99561 24.0394 9.99561 22.912V15.5425C9.99561 13.2834 11.7891 11.4531 14.0014 11.4531C14.096 11.4531 14.1892 11.456 14.281 11.4645C16.3639 11.6093 18.0085 13.38 18.0085 15.5425V15.5411Z" fill="url(#paint3_linear_13594_56367)"/>
<path d="M20.5075 11.7514V15.5412C20.5075 13.7166 19.7826 12.0623 18.611 10.8682C17.4381 9.6726 15.8186 8.93282 14.032 8.93282C10.4548 8.93282 7.55658 11.8905 7.55658 15.5412V11.7514C7.55658 8.50826 9.844 5.81181 12.8633 5.25094C13.2431 5.17852 13.6327 5.1416 14.032 5.1416C14.43 5.1416 14.8195 5.17852 15.1994 5.25094C18.2173 5.81039 20.5075 8.50684 20.5075 11.7514Z" fill="#EF8122"/>
<path style="mix-blend-mode:overlay" d="M18.0085 15.5412V22.9106C18.0085 23.5184 17.8777 24.0977 17.644 24.6174C14.1823 24.0395 11.54 20.9738 11.54 17.2763C11.54 14.9235 12.61 12.8248 14.281 11.4631C16.3639 11.608 18.0085 13.3786 18.0085 15.5412Z" fill="url(#paint4_linear_13594_56367)"/>
<path style="mix-blend-mode:overlay" d="M18.554 5.14286C17.4339 3.88764 15.8186 3.09816 14.0237 3.09816C13.5687 3.09816 13.1249 3.14786 12.6991 3.24725C13.1249 1.92956 14.1586 0.895847 15.4624 0.489746C15.6808 0.657298 15.8728 0.867448 16.0328 1.12162L18.5554 5.14286H18.554Z" fill="url(#paint5_linear_13594_56367)"/>
<path d="M27.9833 23.4799C27.584 28.2949 20.5061 27.8973 20.5061 23.0653V15.5411C20.5061 13.7165 19.7812 12.0622 18.6096 10.8681C17.4367 9.6725 15.8172 8.93272 14.0306 8.93272C10.4534 8.93272 7.55519 11.8904 7.55519 15.5411V23.1363C7.55519 27.9896 0.455008 28.4184 0.0181165 23.5836C-0.0556263 22.7657 0.0890765 21.9506 0.532925 21.1668L4.46355 14.2191L7.36735 9.08749C8.62515 6.86388 10.6816 5.58594 12.8619 5.25225C13.1485 5.20682 13.4365 5.17984 13.7245 5.16706H13.7468C13.8386 5.16422 13.9305 5.16138 14.0223 5.16138H14.0306C14.1253 5.16138 14.2226 5.1628 14.3173 5.16706H14.327C14.6192 5.17842 14.91 5.20682 15.198 5.25225C17.3783 5.58594 19.4361 6.8653 20.6939 9.08749L23.5991 14.222L27.4532 21.0348C27.9026 21.8285 28.0515 22.6521 27.9819 23.4799H27.9833Z" fill="url(#paint6_linear_13594_56367)"/>
<path style="mix-blend-mode:overlay" d="M23.6269 14.9533C23.6269 17.8144 22.4248 20.3888 20.5075 22.1793V15.5425C20.5075 13.7179 19.7825 12.0637 18.611 10.8695C17.4381 9.67396 15.8185 8.93418 14.032 8.93418C10.4548 8.93418 7.55655 11.8919 7.55655 15.5425V22.1779C5.64062 20.3873 4.43848 17.8144 4.43848 14.9547C4.43848 14.7076 4.44682 14.4634 4.46491 14.2206L7.36871 9.08895C8.62651 6.86534 10.683 5.5874 12.8632 5.25372C13.1499 5.20828 13.4379 5.1813 13.7259 5.16852H13.7482C13.84 5.16568 13.9318 5.16284 14.0236 5.16284H14.032C14.1266 5.16284 14.224 5.16426 14.3186 5.16852H14.3284C14.6205 5.17988 14.9113 5.20828 15.1994 5.25372C17.3796 5.5874 19.4375 6.86676 20.6953 9.08895L23.6005 14.2234C23.6186 14.4648 23.6269 14.7076 23.6269 14.9533Z" fill="url(#paint7_linear_13594_56367)"/>
<path d="M18.554 5.14284C17.4339 3.88762 15.8185 3.09814 14.0237 3.09814C13.5687 3.09814 13.1248 3.14784 12.6991 3.24723C11.4413 3.52838 10.331 4.20427 9.49335 5.14284L12.0159 1.12159C12.7951 -0.120846 14.4021 -0.330996 15.4623 0.489725C15.6808 0.657277 15.8728 0.867426 16.0328 1.12159L18.5554 5.14284H18.554Z" fill="url(#paint8_linear_13594_56367)"/>
<path d="M18.0085 15.5411V22.9106C18.0085 23.5183 17.8777 24.0976 17.644 24.6173C17.0095 26.0245 15.6181 27.0014 14.0014 27.0014C12.8938 27.0014 11.8934 26.5427 11.1685 25.803C10.445 25.0632 9.99561 24.0394 9.99561 22.912V15.5425C9.99561 13.2834 11.7891 11.4531 14.0014 11.4531C14.096 11.4531 14.1892 11.456 14.281 11.4645C16.3639 11.6093 18.0085 13.38 18.0085 15.5425V15.5411Z" fill="url(#paint9_linear_13594_56367)"/>
<path d="M20.5075 11.7514V15.5412C20.5075 13.7166 19.7826 12.0623 18.611 10.8682C17.4381 9.6726 15.8186 8.93282 14.032 8.93282C10.4548 8.93282 7.55658 11.8905 7.55658 15.5412V11.7514C7.55658 8.50826 9.844 5.81181 12.8633 5.25094C13.2431 5.17852 13.6327 5.1416 14.032 5.1416C14.43 5.1416 14.8195 5.17852 15.1994 5.25094C18.2173 5.81039 20.5075 8.50684 20.5075 11.7514Z" fill="#EF8122"/>
<path style="mix-blend-mode:overlay" d="M18.0085 15.5412V22.9106C18.0085 23.5184 17.8777 24.0977 17.644 24.6174C14.1823 24.0395 11.54 20.9738 11.54 17.2763C11.54 14.9235 12.61 12.8248 14.281 11.4631C16.3639 11.608 18.0085 13.3786 18.0085 15.5412Z" fill="url(#paint10_linear_13594_56367)"/>
<path style="mix-blend-mode:overlay" d="M18.554 5.14286C17.4339 3.88764 15.8186 3.09816 14.0237 3.09816C13.5687 3.09816 13.1249 3.14786 12.6991 3.24725C13.1249 1.92956 14.1586 0.895847 15.4624 0.489746C15.6808 0.657298 15.8728 0.867448 16.0328 1.12162L18.5554 5.14286H18.554Z" fill="url(#paint11_linear_13594_56367)"/>
</g>
<defs>
<linearGradient id="paint0_linear_13594_56367" x1="14.0014" y1="27.5849" x2="14.0014" y2="0.258353" gradientUnits="userSpaceOnUse">
<stop stop-color="#F79724"/>
<stop offset="1" stop-color="#FCD10C"/>
</linearGradient>
<linearGradient id="paint1_linear_13594_56367" x1="4.35639" y1="13.6682" x2="23.6325" y2="13.6682" gradientUnits="userSpaceOnUse">
<stop stop-color="#010101" stop-opacity="0.7"/>
<stop offset="1" stop-color="white"/>
</linearGradient>
<linearGradient id="paint2_linear_13594_56367" x1="16.5017" y1="1.32464" x2="12.233" y2="7.40758" gradientUnits="userSpaceOnUse">
<stop stop-color="#F79724"/>
<stop offset="1" stop-color="#FCD10C"/>
</linearGradient>
<linearGradient id="paint3_linear_13594_56367" x1="14.0028" y1="11.6391" x2="14.0028" y2="26.7742" gradientUnits="userSpaceOnUse">
<stop stop-color="#F79724"/>
<stop offset="1" stop-color="#FCD10C"/>
</linearGradient>
<linearGradient id="paint4_linear_13594_56367" x1="16.7563" y1="24.9795" x2="13.6146" y2="12.2392" gradientUnits="userSpaceOnUse">
<stop stop-color="#010101" stop-opacity="0.7"/>
<stop offset="1" stop-color="white"/>
</linearGradient>
<linearGradient id="paint5_linear_13594_56367" x1="18.0935" y1="4.99377" x2="13.7612" y2="1.7532" gradientUnits="userSpaceOnUse">
<stop stop-color="#010101" stop-opacity="0.7"/>
<stop offset="1" stop-color="white"/>
</linearGradient>
<linearGradient id="paint6_linear_13594_56367" x1="14.0014" y1="27.5849" x2="14.0014" y2="0.258353" gradientUnits="userSpaceOnUse">
<stop stop-color="#F79724"/>
<stop offset="1" stop-color="#FCD10C"/>
</linearGradient>
<linearGradient id="paint7_linear_13594_56367" x1="4.35639" y1="13.6682" x2="23.6325" y2="13.6682" gradientUnits="userSpaceOnUse">
<stop stop-color="#010101" stop-opacity="0.7"/>
<stop offset="1" stop-color="white"/>
</linearGradient>
<linearGradient id="paint8_linear_13594_56367" x1="16.5017" y1="1.32464" x2="12.233" y2="7.40758" gradientUnits="userSpaceOnUse">
<stop stop-color="#F79724"/>
<stop offset="1" stop-color="#FCD10C"/>
</linearGradient>
<linearGradient id="paint9_linear_13594_56367" x1="14.0028" y1="11.6391" x2="14.0028" y2="26.7742" gradientUnits="userSpaceOnUse">
<stop stop-color="#F79724"/>
<stop offset="1" stop-color="#FCD10C"/>
</linearGradient>
<linearGradient id="paint10_linear_13594_56367" x1="16.7563" y1="24.9795" x2="13.6146" y2="12.2392" gradientUnits="userSpaceOnUse">
<stop stop-color="#010101" stop-opacity="0.7"/>
<stop offset="1" stop-color="white"/>
</linearGradient>
<linearGradient id="paint11_linear_13594_56367" x1="18.0935" y1="4.99377" x2="13.7612" y2="1.7532" gradientUnits="userSpaceOnUse">
<stop stop-color="#010101" stop-opacity="0.7"/>
<stop offset="1" stop-color="white"/>
</linearGradient>
<clipPath id="clip0_13594_56367">
<rect width="28" height="27" fill="white"/>
</clipPath>
</defs>
</svg>
