<svg width="30" height="31" viewBox="0 0 30 31" fill="none" xmlns="http://www.w3.org/2000/svg">
<path d="M21.6665 5.86433C20.0541 2.75967 18.2168 1.08735 15.7871 0.0224609H29.3232C29.6981 0.0299601 29.9906 0.329928 29.9906 0.704887C29.9906 0.809876 29.9606 0.914865 29.9156 1.00485L27.4933 5.59436C27.4109 5.75934 27.2384 5.86433 27.0509 5.86433H21.6665Z" fill="url(#paint0_linear_16215_61585)"/>
<path d="M17.2344 19.7684C17.9168 19.9408 21.149 17.0461 21.9964 13.8965L27.0883 13.9115C27.2758 13.9115 27.4408 14.0165 27.5233 14.1815L29.923 18.801C30.0955 19.1234 29.968 19.5209 29.6455 19.6934C29.548 19.7459 29.4431 19.7684 29.3381 19.7684H17.2344Z" fill="url(#paint1_linear_16215_61585)"/>
<path d="M20.4289 6.32182C18.8316 2.72221 15.3745 0.307467 11.3999 0.0224975H11.2799L10.6275 0H2.97831C2.75334 0 2.54336 0.119987 2.43837 0.322465L0.0761274 4.87447C-0.0888548 5.17444 0.023633 5.5569 0.323601 5.72188C0.413591 5.77438 0.51858 5.79688 0.623568 5.79688H11.8349V4.07206L18.1717 9.76395L11.8349 15.9733V13.896C11.7599 13.9185 2.95582 13.8585 2.95582 13.8585C2.79833 13.8585 2.65585 13.941 2.58086 14.076L0.0836265 18.8305C-0.0813557 19.1304 0.0311324 19.5129 0.3311 19.6779C0.42109 19.7304 0.526079 19.7529 0.631068 19.7529H10.8C13.3572 19.7529 15.8169 19.4379 17.7367 17.7431C17.9242 17.5781 18.1042 17.4056 18.3067 17.2031C19.859 15.6133 20.8564 14.241 21.1864 12.0587C21.2088 11.8862 21.2313 11.7062 21.2463 11.5263C21.2913 11.1288 21.3063 10.7313 21.2988 10.3339C21.2838 8.95403 20.9839 7.58918 20.4289 6.32182Z" fill="url(#paint2_linear_16215_61585)"/>
<path d="M11.7223 30.521C11.6398 30.521 11.5648 30.491 11.5048 30.4385L0.226023 19.5797C0.0160459 19.3847 -0.0289492 19.0698 0.106036 18.8148L2.57327 14.0453C2.65576 13.8803 3.02322 13.7229 3.36818 13.9703L19.469 29.5836C19.7239 29.8311 19.7314 30.2361 19.4839 30.4985C19.364 30.6185 19.199 30.6935 19.034 30.6935L11.7223 30.521Z" fill="url(#paint3_linear_16215_61585)"/>
<defs>
<linearGradient id="paint0_linear_16215_61585" x1="23.395" y1="-0.52198" x2="11.3671" y2="22.3888" gradientUnits="userSpaceOnUse">
<stop stop-color="#FFE900"/>
<stop offset="0.1" stop-color="#FFDE03"/>
<stop offset="0.28" stop-color="#FEC10B"/>
<stop offset="0.51" stop-color="#FE9218"/>
<stop offset="0.78" stop-color="#FD512A"/>
<stop offset="1" stop-color="#FC1939"/>
</linearGradient>
<linearGradient id="paint1_linear_16215_61585" x1="27.8916" y1="10.868" x2="21.5915" y2="23.6121" gradientUnits="userSpaceOnUse">
<stop stop-color="#FFE900"/>
<stop offset="0.1" stop-color="#FFDE03"/>
<stop offset="0.28" stop-color="#FEC10B"/>
<stop offset="0.51" stop-color="#FE9218"/>
<stop offset="0.78" stop-color="#FD512A"/>
<stop offset="1" stop-color="#FC1939"/>
</linearGradient>
<linearGradient id="paint2_linear_16215_61585" x1="13.9533" y1="3.20089" x2="3.21444" y2="21.0992" gradientUnits="userSpaceOnUse">
<stop stop-color="#FFE900"/>
<stop offset="0.14" stop-color="#FFD803"/>
<stop offset="0.41" stop-color="#FEAA0C"/>
<stop offset="0.79" stop-color="#FD621A"/>
<stop offset="1" stop-color="#FD3623"/>
</linearGradient>
<linearGradient id="paint3_linear_16215_61585" x1="1.58336" y1="16.3176" x2="18.1566" y2="32.8908" gradientUnits="userSpaceOnUse">
<stop stop-color="#FFE900"/>
<stop offset="0.14" stop-color="#FFD803"/>
<stop offset="0.41" stop-color="#FEAA0C"/>
<stop offset="0.79" stop-color="#FD621A"/>
<stop offset="1" stop-color="#FD3623"/>
</linearGradient>
</defs>
</svg>
