<svg width="7" height="10" viewBox="0 0 7 10" fill="none" xmlns="http://www.w3.org/2000/svg">
<path d="M1.64296 0.505873C1.51515 0.505051 1.38998 0.542405 1.28352 0.613142C1.17707 0.683879 1.09414 0.784787 1.04538 0.902937C0.996617 1.02109 0.984236 1.15112 1.00981 1.27635C1.03539 1.40158 1.09776 1.51631 1.18895 1.60588L4.58896 5.00587L1.18895 8.4059C1.12933 8.46552 1.08204 8.53628 1.04978 8.61418C1.01751 8.69208 1.0009 8.77556 1.0009 8.85988C1.0009 8.94419 1.01751 9.02771 1.04978 9.1056C1.08204 9.1835 1.12933 9.25427 1.18895 9.31389C1.24857 9.37351 1.31935 9.42081 1.39725 9.45308C1.47515 9.48534 1.55865 9.50194 1.64296 9.50194C1.72728 9.50194 1.81076 9.48534 1.88866 9.45308C1.96656 9.42081 2.03734 9.37351 2.09696 9.31389L5.94896 5.4619C6.00859 5.40228 6.05588 5.33148 6.08815 5.25358C6.12042 5.17569 6.13703 5.0922 6.13703 5.00789C6.13703 4.92357 6.12042 4.84009 6.08815 4.76219C6.05588 4.68429 6.00859 4.61349 5.94896 4.55388L2.09696 0.701887C2.03796 0.640871 1.96746 0.592125 1.88954 0.558485C1.81162 0.524845 1.72783 0.506963 1.64296 0.505873Z" fill="#FCAF17"/>
</svg>
