<svg width="328" height="138" viewBox="0 0 328 138" fill="none" xmlns="http://www.w3.org/2000/svg">
<g clip-path="url(#clip0_4_3247)">
<path d="M297.97 136.71C299.34 66.1 245.25 5.91998 173.96 0.609979C100.16 -4.90002 35.87 50.47 30.37 124.27C30.06 128.45 29.95 132.6 30.02 136.7H297.97V136.71Z" fill="url(#paint0_radial_4_3247)"/>
<path d="M104.16 64.1101C103.23 64.9001 102.31 65.7001 101.41 66.5401C99.09 68.6901 96.9 70.9501 94.83 73.2901C81.58 88.3001 73.56 107.19 72.05 127.39C71.88 129.64 71.8 131.88 71.8 134.1C71.8 134.97 71.83 135.84 71.85 136.71H81.87C81.85 135.84 81.82 134.98 81.82 134.1C81.82 132.12 81.88 130.14 82.03 128.13C83.42 109.52 90.91 92.8401 102.37 79.8601C104.6 77.3401 106.99 74.9601 109.5 72.7201L104.16 64.1001V64.1101Z" fill="#82E05D"/>
<path d="M170.86 42.29C168.56 42.12 166.22 42.03 163.92 42.03C163.88 42.03 163.85 42.03 163.82 42.03C141.87 42.05 120.84 49.87 104.17 64.1L109.51 72.72C124.07 59.82 143.17 52.06 163.82 52.03C163.86 52.03 163.89 52.03 163.92 52.03C165.97 52.03 168.04 52.1 170.12 52.26C189.17 53.68 206.19 61.51 219.29 73.45L224.63 64.84C210.12 52.13 191.54 43.84 170.86 42.29Z" fill="#FBD237"/>
<path d="M232.94 73.0901C230.35 70.1701 227.57 67.4101 224.63 64.8401L219.29 73.4501C221.44 75.4101 223.5 77.4701 225.43 79.6401C238.39 94.2301 246.17 113.38 246.18 134.1C246.18 134.97 246.17 135.84 246.14 136.71H256.15C256.17 135.84 256.2 134.97 256.2 134.1C256.18 110.92 247.45 89.4601 232.93 73.0901H232.94Z" fill="#FA311A"/>
<path d="M43.02 136.71C42.94 132.83 43.04 128.93 43.33 125.01C45.73 92.78 60.54 63.41 85.04 42.32C109.53 21.23 140.77 10.94 173 13.34C205.23 15.74 234.6 30.55 255.69 55.04C275.4 77.93 285.68 106.72 284.98 136.7H297.98C299.46 66 245.33 5.7 173.96 0.379999C100.16 -5.13 35.87 50.24 30.37 124.04C30.05 128.3 29.95 132.52 30.03 136.7H43.02V136.71Z" fill="url(#paint1_linear_4_3247)"/>
<path style="mix-blend-mode:multiply" d="M44.52 136.71C44.44 132.87 44.54 129 44.83 125.12C47.2 93.29 61.83 64.29 86.02 43.46C107.7 24.79 135.33 14.5 163.81 14.5C166.82 14.5 169.87 14.61 172.88 14.84C204.71 17.21 233.71 31.84 254.54 56.03C274.02 78.65 284.17 107.09 283.46 136.71H286.46C287.16 106.37 276.76 77.24 256.81 54.07C235.46 29.28 205.73 14.28 173.1 11.85C170.01 11.62 166.88 11.5 163.8 11.5C134.6 11.5 106.28 22.04 84.05 41.18C59.27 62.53 44.27 92.26 41.84 124.9C41.55 128.85 41.44 132.79 41.52 136.71H44.52Z" fill="url(#paint2_radial_4_3247)"/>
<path style="mix-blend-mode:multiply" opacity="0.5" d="M45.67 136.71C45.59 132.94 45.69 129.15 45.98 125.34C48.33 93.81 62.82 65.09 86.77 44.46C108.24 25.96 135.61 15.78 163.82 15.78C166.8 15.78 169.82 15.89 172.81 16.11C204.34 18.46 233.06 32.9501 253.69 56.9001C272.96 79.2701 283.01 107.4 282.34 136.7H285.31C285.98 106.69 275.68 77.8801 255.94 54.96C234.8 30.41 205.35 15.55 173.03 13.14C169.97 12.91 166.87 12.8 163.82 12.8C134.9 12.8 106.85 23.2401 84.83 42.2001C60.27 63.3501 45.42 92.8 43.01 125.12C42.72 129 42.62 132.87 42.69 136.71H45.66H45.67Z" fill="url(#paint3_radial_4_3247)"/>
<path style="mix-blend-mode:multiply" d="M73.86 136.71C73.83 135.73 73.8 134.75 73.8 133.77C73.8 131.6 73.88 129.41 74.05 127.2C75.52 107.44 83.36 88.97 96.33 74.28C98.36 71.99 100.5 69.78 102.77 67.68C119.47 52.25 141.15 43.74 163.81 43.71C163.85 43.71 163.88 43.71 163.91 43.71C166.16 43.71 168.44 43.79 170.7 43.96C195.02 45.78 216.4 57.14 231.43 74.09C245.63 90.1 254.17 111.1 254.19 133.77C254.19 134.75 254.17 135.73 254.14 136.71H256.16C256.18 135.84 256.21 134.97 256.21 134.1C256.19 110.92 247.46 89.46 232.94 73.09C217.57 55.76 195.73 44.15 170.86 42.29C168.56 42.12 166.22 42.03 163.92 42.03C163.88 42.03 163.85 42.03 163.82 42.03C140.65 42.06 118.49 50.75 101.42 66.53C99.1 68.68 96.91 70.94 94.84 73.28C81.59 88.29 73.57 107.18 72.06 127.38C71.89 129.63 71.81 131.87 71.81 134.09C71.81 134.96 71.84 135.83 71.86 136.7H73.86V136.71Z" fill="url(#paint4_radial_4_3247)"/>
<path style="mix-blend-mode:multiply" d="M62.11 136.71C53.04 133.32 48.19 130.81 48.19 130.81C48.19 130.81 48.06 132.96 48.19 136.71H62.12H62.11Z" fill="url(#paint5_linear_4_3247)"/>
<path style="mix-blend-mode:multiply" d="M281.39 136.71C281.83 130.83 281.69 127.31 281.69 127.31C281.69 127.31 274.83 131.55 262.31 136.71H281.39Z" fill="url(#paint6_linear_4_3247)"/>
<g style="mix-blend-mode:multiply" opacity="0.3">
<path d="M178.9 111.35C176.41 107.44 172.55 104.93 168.35 104.04L163.11 57.3098L160.62 58.2998L158.88 103.64C157.53 104.06 156.74 104.32 155.49 105.12C147.78 110.02 146.1 121.37 150.99 129.08C155.89 136.79 166.11 139.07 173.82 134.17C181.53 129.27 183.81 119.06 178.91 111.35H178.9Z" fill="black"/>
</g>
<path d="M173.88 133.78C166.48 138.48 156.67 136.29 151.97 128.89C147.27 121.49 149.46 111.68 156.86 106.98C164.26 102.28 174.07 104.47 178.77 111.87C183.47 119.27 181.29 129.08 173.88 133.78Z" fill="black"/>
<path d="M163.09 57.1799H166.6L169.33 121.02L159.79 121.55L163.09 57.1799Z" fill="black"/>
<path d="M164.57 57.8699L166.02 57.8899L168.54 119.16L164.69 114.19L164.57 57.8699Z" fill="url(#paint7_linear_4_3247)"/>
<path d="M173.88 129.44C167.88 133.25 159.92 131.48 156.11 125.48C152.3 119.48 154.07 111.52 160.07 107.71C166.07 103.9 174.03 105.67 177.84 111.67C181.65 117.67 179.88 125.63 173.88 129.44Z" fill="url(#paint8_linear_4_3247)"/>
<path style="mix-blend-mode:screen" opacity="0.6" d="M176.55 112.49C174.54 109.33 171.23 107.52 167.77 107.27L165.56 58.0898L166.53 107.25C164.6 107.33 162.66 107.89 160.9 109C155.62 112.36 154.05 119.36 157.41 124.65C160.77 129.94 167.78 131.5 173.06 128.14C178.34 124.78 179.91 117.77 176.55 112.49Z" fill="url(#paint9_radial_4_3247)"/>
<path d="M163.08 105.59C163.08 105.59 151.71 108.67 153.61 120.05C155.51 131.43 165.57 134.22 170.41 132.04C175.24 129.86 179.08 127.27 180.13 122.16C180.13 122.16 180.15 130.59 170.42 134.84C160.69 139.1 148.99 128.61 150.46 119.98C151.93 111.34 155.74 106.85 163.09 105.59H163.08Z" fill="url(#paint10_linear_4_3247)"/>
<path style="mix-blend-mode:screen" d="M286.56 123.3C289.27 121.09 292.08 119.03 294.91 117.13C292.05 83.04 256.4 -2.84999 160.52 1.80001C41.39 7.59001 32.52 122.8 32.52 122.8L40.02 126.8C40.02 126.8 50.02 16.3 160.52 11.3C250.99 7.21001 284.59 94.82 286.52 122.8C286.53 122.97 286.54 123.12 286.56 123.29V123.3Z" fill="url(#paint11_radial_4_3247)"/>
<path d="M254.26 80.6399C254.66 81.1799 255.05 81.7299 255.43 82.2799C254.54 82.8999 253.64 83.5099 252.75 84.1199C253.37 85.0199 253.96 85.9399 254.53 86.8699C255.46 86.3099 256.39 85.7499 257.32 85.1999C257.66 85.7699 258 86.3499 258.32 86.9299C255.8 88.3199 253.29 89.7099 250.78 91.0999C250.51 90.6099 250.23 90.1199 249.94 89.6399C251.02 88.9899 252.1 88.3399 253.18 87.6899C252.63 86.7799 252.06 85.8899 251.46 85.0199C250.42 85.7299 249.38 86.4499 248.35 87.1599C248.03 86.6899 247.7 86.2299 247.35 85.7699C249.66 84.0599 251.96 82.3399 254.27 80.6299L254.26 80.6399Z" fill="#FA311A"/>
<path d="M259.36 88.8999C259.65 89.4799 259.94 90.0699 260.21 90.6599C257.6 91.8599 254.99 93.0599 252.38 94.2599C252.15 93.7599 251.91 93.2599 251.66 92.7699C254.23 91.4799 256.79 90.1899 259.36 88.8999Z" fill="#FA311A"/>
<path d="M262.6 102.11C262.13 101.75 261.65 101.41 261.18 101.07C261.73 100.07 261.84 98.9899 261.5 97.8999C261.21 96.9499 260.67 96.2499 259.91 95.8199C259.15 95.3899 258.4 95.3399 257.65 95.6199C256.87 95.9199 256.33 96.4699 256.01 97.2599C255.68 98.0499 255.65 98.8599 255.92 99.7399C256.09 100.3 256.35 100.75 256.68 101.08C257.02 101.41 257.46 101.64 258.02 101.77C257.8 100.9 257.56 100.04 257.29 99.1799C257.78 99.0299 258.27 98.8799 258.76 98.7199C259.24 100.25 259.64 101.81 259.97 103.38C259.85 103.41 259.74 103.44 259.62 103.46C258.88 103.62 258.14 103.55 257.39 103.3C256.64 103.04 256.02 102.66 255.52 102.13C255.02 101.6 254.65 100.94 254.4 100.14C254.13 99.2799 254.05 98.4599 254.17 97.6499C254.29 96.8399 254.59 96.1099 255.09 95.4399C255.59 94.7699 256.22 94.2599 256.98 93.9299C258.03 93.4899 259.11 93.4899 260.22 93.9999C261.54 94.6099 262.51 95.7699 263.02 97.4199C263.29 98.2799 263.38 99.1399 263.31 99.9599C263.25 100.66 263.01 101.38 262.59 102.1L262.6 102.11Z" fill="#FA311A"/>
<path d="M264.47 104.29C264.59 104.95 264.69 105.61 264.78 106.27C263.71 106.42 262.63 106.57 261.56 106.72C261.71 107.8 261.83 108.88 261.92 109.97C263 109.89 264.08 109.8 265.16 109.72C265.21 110.39 265.25 111.05 265.28 111.72C262.41 111.84 259.54 111.96 256.67 112.08C256.65 111.51 256.61 110.95 256.57 110.38C257.83 110.28 259.08 110.18 260.34 110.09C260.26 109.03 260.14 107.98 259.99 106.93C258.74 107.11 257.49 107.28 256.25 107.46C256.17 106.9 256.08 106.34 255.98 105.78C258.81 105.28 261.64 104.78 264.47 104.28V104.29Z" fill="#FA311A"/>
<path d="M62.05 109.32C62.15 108.65 62.26 107.99 62.38 107.32C64.69 107.75 67 108.19 69.32 108.62C69.47 107.79 69.65 106.96 69.86 106.14C70.37 106.26 70.87 106.39 71.38 106.52C71.05 107.85 70.79 109.2 70.59 110.57C67.75 110.15 64.9 109.74 62.06 109.32H62.05Z" fill="#82E05D"/>
<path d="M64.77 98.1599C65.31 96.7599 66.25 95.7499 67.49 95.1799C68.74 94.6099 69.94 94.6699 71.06 95.2499C72.18 95.8299 72.9 96.7399 73.29 97.9299C73.69 99.1199 73.66 100.25 73.21 101.42C72.74 102.64 71.98 103.52 70.86 104.12C69.75 104.72 68.6 104.9 67.41 104.59C66.62 104.38 65.94 103.96 65.4 103.32C64.86 102.68 64.52 101.89 64.4 100.96C64.28 100.03 64.4 99.0799 64.76 98.1599H64.77ZM66.26 98.7599C65.92 99.6499 65.91 100.5 66.24 101.28C66.56 102.06 67.15 102.57 67.96 102.82C68.87 103.1 69.7 102.96 70.46 102.45C71.05 102.05 71.47 101.52 71.73 100.85C72.02 100.09 72.04 99.3399 71.76 98.5799C71.48 97.8199 70.99 97.2499 70.24 96.8999C69.5 96.5499 68.74 96.5399 67.95 96.8999C67.17 97.2599 66.59 97.8899 66.25 98.7599H66.26Z" fill="#82E05D"/>
<path d="M67.72 92.2999C68.03 91.7199 68.36 91.1499 68.69 90.5799C70.53 91.0799 72.34 91.6299 74.13 92.2299C72.88 90.7699 71.68 89.2599 70.53 87.7099C70.85 87.2499 71.17 86.7999 71.5 86.3499C73.35 86.9299 75.18 87.5599 76.97 88.2599C75.82 86.7599 74.71 85.2299 73.63 83.6599C74.06 83.1599 74.5 82.6599 74.95 82.1699C76.53 84.6999 78.21 87.1399 79.99 89.4899C79.64 89.8999 79.31 90.3199 78.98 90.7499C77.18 90.0399 75.34 89.3999 73.48 88.8199C74.65 90.3899 75.86 91.8999 77.12 93.3699C76.83 93.8099 76.55 94.2599 76.27 94.7099C73.47 93.7899 70.61 92.9899 67.71 92.3099L67.72 92.2999Z" fill="#82E05D"/>
<path d="M130.62 32.2099C131.19 32.0399 131.75 31.8699 132.32 31.6999C133.59 33.4199 134.82 35.1499 136.02 36.9099C136.18 34.7899 136.38 32.6699 136.63 30.5499C137.2 30.4099 137.78 30.2699 138.35 30.1399C139.51 32.8199 140.64 35.5099 141.72 38.2199C141.19 38.3299 140.67 38.4499 140.14 38.5699C139.42 36.8699 138.69 35.1799 137.94 33.4999C137.73 35.4199 137.55 37.3299 137.4 39.2499C136.92 39.3699 136.45 39.4999 135.97 39.6299C134.89 38.0499 133.78 36.4799 132.63 34.9199C132.82 36.7599 133.03 38.5899 133.25 40.4199C132.73 40.5799 132.21 40.7499 131.68 40.9199C131.28 38.0299 130.92 35.1299 130.6 32.2199L130.62 32.2099Z" fill="#FBD237"/>
<path d="M145.72 28.4801C147.05 28.2701 148.27 28.5501 149.33 29.3001C150.39 30.0601 150.98 31.0801 151.12 32.3401C151.26 33.5901 150.93 34.7001 150.15 35.6701C149.38 36.6501 148.39 37.2201 147.15 37.4201C145.85 37.6301 144.71 37.3801 143.67 36.6701C142.64 35.9601 141.98 35.0101 141.73 33.8101C141.56 33.0001 141.62 32.2201 141.91 31.4501C142.2 30.6901 142.68 30.0301 143.37 29.5001C144.05 28.9601 144.84 28.6201 145.72 28.4801ZM145.95 30.0701C145.09 30.2101 144.41 30.6101 143.93 31.2601C143.45 31.9101 143.29 32.6601 143.45 33.5001C143.63 34.4401 144.12 35.1101 144.92 35.5301C145.54 35.8601 146.2 35.9701 146.9 35.8601C147.69 35.7301 148.33 35.3601 148.81 34.7201C149.3 34.0801 149.49 33.3601 149.39 32.5401C149.28 31.7301 148.9 31.0701 148.23 30.5901C147.56 30.1101 146.8 29.9301 145.94 30.0701H145.95Z" fill="#FBD237"/>
<path d="M152.34 27.8499C153.05 27.7799 153.76 27.7199 154.47 27.6599C155.85 27.5499 156.88 27.6599 157.56 27.9299C158.24 28.2099 158.81 28.6899 159.26 29.3699C159.71 30.0499 159.94 30.8599 159.97 31.7999C159.99 32.4599 159.89 33.0799 159.68 33.6399C159.47 34.1999 159.17 34.6799 158.79 35.0599C158.41 35.4399 157.99 35.7199 157.54 35.8799C157.09 36.0499 156.3 36.1599 155.17 36.2499C154.5 36.2999 153.84 36.3599 153.17 36.4199C152.89 33.5599 152.61 30.6999 152.33 27.8399L152.34 27.8499ZM154.26 29.2699C154.41 31.0799 154.55 32.8799 154.7 34.6899C154.96 34.6699 155.22 34.6499 155.48 34.6299C156.25 34.5699 156.81 34.4499 157.14 34.2599C157.48 34.0699 157.75 33.7599 157.95 33.3499C158.16 32.9299 158.24 32.4299 158.22 31.8299C158.18 30.9199 157.88 30.2199 157.3 29.7399C156.78 29.3099 155.96 29.1299 154.86 29.2199C154.66 29.2399 154.46 29.2499 154.26 29.2699Z" fill="#FBD237"/>
<path d="M161.57 27.3399C163.3 27.3199 165.02 27.3399 166.75 27.3899C166.73 27.9199 166.71 28.4599 166.7 28.9899C165.59 28.9499 164.48 28.9299 163.36 28.9299C163.36 29.4499 163.36 29.9699 163.36 30.4899C164.46 30.4899 165.55 30.5099 166.65 30.5499C166.63 31.0699 166.61 31.5999 166.6 32.1299C165.52 32.0899 164.44 32.0699 163.36 32.0699C163.36 32.8299 163.36 33.5799 163.36 34.3399C164.42 34.3399 165.47 34.3599 166.53 34.3999C166.51 34.9399 166.49 35.4699 166.48 36.0099C164.89 35.9599 163.3 35.9399 161.71 35.9599C161.67 33.0899 161.63 30.2099 161.6 27.3399H161.57Z" fill="#FBD237"/>
<path d="M168.56 27.4699C169.2 27.4999 169.83 27.54 170.47 27.58C171.52 27.65 172.25 27.8 172.68 28.01C173.11 28.22 173.44 28.53 173.66 28.95C173.89 29.37 173.97 29.8499 173.92 30.3799C173.86 30.9399 173.67 31.4 173.34 31.75C173.01 32.1 172.56 32.35 171.97 32.49C172.58 33.82 173.15 35.1599 173.71 36.5099C173.11 36.4499 172.5 36.39 171.9 36.33C171.35 35.06 170.78 33.7899 170.19 32.5299C170.14 32.5299 170.08 32.53 170.03 32.52C169.95 33.73 169.87 34.95 169.79 36.16C169.24 36.12 168.68 36.09 168.13 36.06C168.28 33.19 168.42 30.32 168.56 27.45V27.4699ZM170.14 30.94C170.32 30.95 170.51 30.9599 170.69 30.9799C171.25 31.0199 171.63 30.98 171.85 30.86C172.07 30.74 172.2 30.5199 172.22 30.2099C172.24 30.0199 172.2 29.8499 172.1 29.7099C172.01 29.5599 171.87 29.4499 171.7 29.3799C171.53 29.3099 171.2 29.2499 170.73 29.2099C170.57 29.1999 170.41 29.19 170.24 29.18C170.2 29.77 170.16 30.36 170.12 30.95L170.14 30.94Z" fill="#FBD237"/>
<path d="M179.76 28.6099C180.37 28.6999 180.97 28.7999 181.57 28.8999C182.29 31.9399 182.91 34.9799 183.43 38.0199C182.86 37.8999 182.29 37.7899 181.72 37.6799C181.6 37.0599 181.48 36.4299 181.36 35.8099C180.16 35.5899 178.96 35.3999 177.76 35.2199C177.44 35.7699 177.12 36.3199 176.8 36.8799C176.23 36.7999 175.65 36.7299 175.08 36.6599C176.54 33.9399 178.1 31.2499 179.74 28.5999L179.76 28.6099ZM180.31 31.0099C179.74 31.9199 179.18 32.8299 178.63 33.7399C179.43 33.8599 180.23 33.9899 181.02 34.1299C180.79 33.0899 180.55 32.0499 180.3 31.0099H180.31Z" fill="#FBD237"/>
<path d="M185.63 29.6799C187.35 30.0399 189.06 30.4399 190.77 30.8899C190.63 31.4099 190.5 31.9299 190.36 32.4599C189.81 32.3199 189.25 32.1799 188.7 32.0399C188.15 34.3099 187.59 36.5699 187.04 38.8399C186.49 38.7099 185.94 38.5799 185.38 38.4499C185.9 36.1699 186.41 33.8999 186.93 31.6199C186.39 31.4999 185.84 31.3799 185.3 31.2599C185.41 30.7299 185.52 30.1999 185.63 29.6799Z" fill="#FBD237"/>
<path d="M191.98 31.21C193.66 31.67 195.33 32.17 197 32.71C196.84 33.22 196.67 33.73 196.5 34.24C195.43 33.89 194.35 33.56 193.27 33.25C193.13 33.75 192.98 34.25 192.84 34.75C193.9 35.06 194.96 35.39 196.02 35.73C195.86 36.23 195.69 36.73 195.53 37.23C194.49 36.89 193.45 36.57 192.4 36.27C192.19 37 191.98 37.72 191.77 38.45C192.8 38.75 193.82 39.06 194.83 39.39C194.66 39.9 194.5 40.41 194.33 40.92C192.8 40.42 191.26 39.96 189.71 39.54C190.47 36.77 191.22 34 191.98 31.22V31.21Z" fill="#FBD237"/>
</g>
<path opacity="0.2" d="M0 137H328" stroke="black"/>
<defs>
<radialGradient id="paint0_radial_4_3247" cx="0" cy="0" r="1" gradientUnits="userSpaceOnUse" gradientTransform="translate(166.66 76.81) scale(242.12 242.12)">
<stop offset="0.3" stop-color="white"/>
<stop offset="1" stop-color="#B3B5B2"/>
</radialGradient>
<linearGradient id="paint1_linear_4_3247" x1="270.91" y1="230.37" x2="86.91" y2="23.03" gradientUnits="userSpaceOnUse">
<stop offset="0.14" stop-color="#9D9D9D"/>
<stop offset="0.38" stop-color="white"/>
<stop offset="0.5" stop-color="#D6D6D6"/>
<stop offset="0.63" stop-color="#ACACAC"/>
<stop offset="0.7" stop-color="#9D9D9D"/>
<stop offset="0.79" stop-color="#D6D6D6"/>
<stop offset="0.93" stop-color="#ACACAC"/>
<stop offset="1" stop-color="#9D9D9D"/>
</linearGradient>
<radialGradient id="paint2_radial_4_3247" cx="0" cy="0" r="1" gradientUnits="userSpaceOnUse" gradientTransform="translate(168.19 307.81) scale(254.92 254.92)">
<stop stop-color="white"/>
<stop offset="0.25" stop-color="#E2E2E2"/>
<stop offset="0.73" stop-color="#B0B0B0"/>
<stop offset="0.97" stop-color="#9D9D9D"/>
<stop offset="1" stop-color="#9D9D9D"/>
</radialGradient>
<radialGradient id="paint3_radial_4_3247" cx="0" cy="0" r="1" gradientUnits="userSpaceOnUse" gradientTransform="translate(168.393 307.264) scale(253.271 253.271)">
<stop stop-color="white"/>
<stop offset="0.25" stop-color="#E2E2E2"/>
<stop offset="0.73" stop-color="#B0B0B0"/>
<stop offset="0.97" stop-color="#9D9D9D"/>
<stop offset="1" stop-color="#9D9D9D"/>
</radialGradient>
<radialGradient id="paint4_radial_4_3247" cx="0" cy="0" r="1" gradientUnits="userSpaceOnUse" gradientTransform="translate(164 118.44) scale(84.67 84.67)">
<stop stop-color="white"/>
<stop offset="0.25" stop-color="#E2E2E2"/>
<stop offset="0.73" stop-color="#B0B0B0"/>
<stop offset="0.97" stop-color="#9D9D9D"/>
<stop offset="1" stop-color="#9D9D9D"/>
</radialGradient>
<linearGradient id="paint5_linear_4_3247" x1="55.12" y1="259.81" x2="55.12" y2="127.35" gradientUnits="userSpaceOnUse">
<stop offset="0.14" stop-color="#9D9D9D"/>
<stop offset="0.94" stop-color="white"/>
</linearGradient>
<linearGradient id="paint6_linear_4_3247" x1="272.01" y1="259.81" x2="272.01" y2="127.35" gradientUnits="userSpaceOnUse">
<stop offset="0.14" stop-color="#9D9D9D"/>
<stop offset="0.94" stop-color="white"/>
</linearGradient>
<linearGradient id="paint7_linear_4_3247" x1="152.383" y1="65.595" x2="181.261" y2="111.047" gradientUnits="userSpaceOnUse">
<stop offset="0.16" stop-color="#003B2C"/>
<stop offset="1" stop-color="#002C34"/>
</linearGradient>
<linearGradient id="paint8_linear_4_3247" x1="163.726" y1="100.921" x2="169.303" y2="131.144" gradientUnits="userSpaceOnUse">
<stop offset="0.16" stop-color="#003B2C"/>
<stop offset="1" stop-color="#002C34"/>
</linearGradient>
<radialGradient id="paint9_radial_4_3247" cx="0" cy="0" r="1" gradientUnits="userSpaceOnUse" gradientTransform="translate(166.467 131.323) rotate(57.57) scale(73.25)">
<stop offset="0.1" stop-color="#151514"/>
<stop offset="0.13" stop-color="#191917"/>
<stop offset="0.17" stop-color="#272721"/>
<stop offset="0.21" stop-color="#3F3F33"/>
<stop offset="0.26" stop-color="#605F4B"/>
<stop offset="0.3" stop-color="#8A896A"/>
<stop offset="0.35" stop-color="#BDBC8F"/>
<stop offset="0.39" stop-color="#F8F7BB"/>
<stop offset="1" stop-color="#DACEBE"/>
</radialGradient>
<linearGradient id="paint10_linear_4_3247" x1="155.812" y1="108.603" x2="172.007" y2="134.094" gradientUnits="userSpaceOnUse">
<stop/>
<stop offset="0.16" stop-color="#003B2C"/>
<stop offset="0.31" stop-color="#006378"/>
<stop offset="0.59"/>
<stop offset="0.78" stop-color="#002C34"/>
<stop offset="0.85" stop-color="#004656"/>
<stop offset="0.99"/>
</linearGradient>
<radialGradient id="paint11_radial_4_3247" cx="0" cy="0" r="1" gradientUnits="userSpaceOnUse" gradientTransform="translate(161.52 17.8) scale(168.03 168.03)">
<stop/>
<stop offset="0.08"/>
<stop offset="0.52" stop-color="#DACEBE"/>
<stop offset="0.7" stop-color="#F8F8F4"/>
</radialGradient>
<clipPath id="clip0_4_3247">
<rect width="268" height="136.76" fill="white" transform="translate(30)"/>
</clipPath>
</defs>
</svg>
