<svg width="24" height="24" viewBox="0 0 24 24" fill="none" xmlns="http://www.w3.org/2000/svg">
<path d="M8.25 8.62524L10.125 3.75024H14.25L15.75 8.62524L12 19.5002L8.25 8.62524Z" fill="#FCAF17"/>
<path d="M2.49954 9.1687H21.4995M9.99954 3.1687L7.99954 9.1687L11.9995 20.6687L15.9995 9.1687L13.9995 3.1687M12.6141 20.4312L21.5727 9.68085C21.7246 9.49865 21.8005 9.40756 21.8295 9.30587C21.8551 9.21621 21.8551 9.12119 21.8295 9.03153C21.8005 8.92985 21.7246 8.83875 21.5727 8.65655L17.2394 3.45655C17.1512 3.35075 17.1072 3.29784 17.0531 3.25981C17.0052 3.22611 16.9518 3.20108 16.8953 3.18587C16.8314 3.1687 16.7626 3.1687 16.6248 3.1687H7.37424C7.2365 3.1687 7.16764 3.1687 7.10382 3.18587C7.04728 3.20108 6.99385 3.22611 6.94596 3.25981C6.89192 3.29784 6.84783 3.35075 6.75966 3.45655L2.42633 8.65655C2.2745 8.83875 2.19858 8.92984 2.16957 9.03153C2.144 9.12119 2.144 9.21621 2.16957 9.30586C2.19858 9.40755 2.2745 9.49865 2.42633 9.68085L11.385 20.4312C11.596 20.6845 11.7015 20.8111 11.8279 20.8573C11.9387 20.8978 12.0603 20.8978 12.1712 20.8573C12.2975 20.8111 12.4031 20.6845 12.6141 20.4312Z" stroke="#717171" stroke-linecap="round" stroke-linejoin="round"/>
</svg>
