<svg width="20" height="22" viewBox="0 0 20 22" fill="none" xmlns="http://www.w3.org/2000/svg">
<path d="M19.2969 16.096C19.2265 15.5139 18.9442 14.9781 18.5039 14.5908C18.0637 14.2035 17.4963 13.9918 16.9099 13.996C16.8753 13.9963 16.841 13.9897 16.809 13.9766C16.777 13.9634 16.7479 13.9441 16.7234 13.9196C16.6989 13.8951 16.6795 13.866 16.6664 13.834C16.6533 13.802 16.6467 13.7677 16.6469 13.733V9.81304C16.6438 8.42488 16.2191 7.0704 15.4291 5.92895C14.6391 4.78751 13.521 3.91294 12.2229 3.42104C12.2535 3.27129 12.2693 3.11889 12.2699 2.96604C12.2699 2.364 12.0308 1.78662 11.6051 1.36091C11.1794 0.935205 10.602 0.696045 9.99994 0.696045C9.3979 0.696045 8.82051 0.935205 8.39481 1.36091C7.9691 1.78662 7.72994 2.364 7.72994 2.96604C7.73076 3.11438 7.74515 3.26233 7.77294 3.40804C6.47929 3.86705 5.35963 4.71558 4.56795 5.83693C3.77627 6.95829 3.35145 8.29738 3.35194 9.67004V13.728C3.35194 13.7978 3.32423 13.8647 3.27491 13.914C3.22559 13.9633 3.15869 13.991 3.08894 13.991C2.50247 13.9864 1.93483 14.1979 1.4945 14.5853C1.05416 14.9727 0.772004 15.5088 0.701939 16.091C0.670559 16.4142 0.707123 16.7404 0.809284 17.0485C0.911445 17.3567 1.07694 17.6402 1.29515 17.8806C1.51335 18.121 1.77943 18.3131 2.0763 18.4446C2.37317 18.5761 2.69426 18.644 3.01894 18.644H7.02794C7.10963 19.375 7.45786 20.0502 8.00606 20.5405C8.55425 21.0309 9.26394 21.3019 9.99944 21.3019C10.7349 21.3019 11.4446 21.0309 11.9928 20.5405C12.541 20.0502 12.8892 19.375 12.9709 18.644H16.9799C17.3042 18.644 17.6248 18.5762 17.9213 18.445C18.2178 18.3138 18.4836 18.1221 18.7017 17.8823C18.9199 17.6424 19.0855 17.3596 19.188 17.052C19.2905 16.7444 19.3276 16.4188 19.2969 16.096ZM9.99994 2.02604C10.2494 2.02631 10.4886 2.12554 10.665 2.30195C10.8414 2.47836 10.9407 2.71756 10.9409 2.96704C10.9399 3.00932 10.9355 3.05145 10.9279 3.09304C10.701 3.05872 10.4723 3.03768 10.2429 3.03005C9.85177 3.01858 9.46034 3.04066 9.07294 3.09605C9.06533 3.05445 9.06098 3.01232 9.05994 2.97004C9.05967 2.72012 9.15863 2.48031 9.33508 2.3033C9.51152 2.1263 9.75101 2.02657 10.0009 2.02604H9.99994ZM9.99994 19.975C9.617 19.974 9.24607 19.8413 8.94943 19.5991C8.6528 19.3569 8.44854 19.02 8.37094 18.645H11.6279C11.5503 19.0198 11.3462 19.3564 11.0497 19.5984C10.7533 19.8404 10.3826 19.973 9.99994 19.974V19.975ZM17.7179 16.99C17.6247 17.0932 17.5109 17.1755 17.3837 17.2317C17.2565 17.2879 17.119 17.3166 16.9799 17.316H3.01994C2.88093 17.3166 2.74338 17.2878 2.61622 17.2316C2.48907 17.1755 2.37517 17.0932 2.28194 16.99C2.18693 16.8872 2.11517 16.7651 2.07151 16.6321C2.02786 16.4991 2.01334 16.3582 2.02894 16.219C2.06451 15.9644 2.19271 15.7318 2.38901 15.5658C2.58531 15.3997 2.83593 15.3119 3.09294 15.319C3.515 15.3185 3.91963 15.1506 4.21807 14.8522C4.51651 14.5537 4.68441 14.1491 4.68494 13.727V9.67004C4.68547 8.26031 5.24551 6.90841 6.24207 5.9113C7.23862 4.91418 8.5902 4.35337 9.99994 4.35204C10.0659 4.35204 10.1299 4.35204 10.1999 4.35204C11.5902 4.43295 12.8964 5.04413 13.8494 6.05961C14.8023 7.07509 15.3294 8.41746 15.3219 9.81005V13.726C15.3225 14.1481 15.4904 14.5527 15.7888 14.8512C16.0873 15.1496 16.4919 15.3175 16.9139 15.318C17.1709 15.3109 17.4216 15.3987 17.6179 15.5648C17.8142 15.7308 17.9424 15.9634 17.9779 16.218C17.9912 16.3578 17.9749 16.4987 17.9301 16.6317C17.8853 16.7647 17.813 16.8868 17.7179 16.99Z" fill="#414141"/>
</svg>
