<svg width="40" height="40" viewBox="0 0 40 40" fill="none" xmlns="http://www.w3.org/2000/svg">
<circle cx="20" cy="20" r="20" fill="#FCAF17"/>
<g clip-path="url(#clip0_1631_68124)">
<path d="M36.4069 16.6234L28.9204 9.13695C28.6611 8.87763 28.2406 8.8777 27.9812 9.13695L25.399 11.7191L24.8825 11.2026C24.4449 10.7649 23.8612 10.5238 23.2391 10.5238C22.6171 10.5238 22.0334 10.7649 21.5956 11.2026C21.158 11.6403 20.9169 12.224 20.9169 12.8461C20.9169 13.4681 21.158 14.0518 21.5956 14.4895L22.1121 15.006L19.9996 17.1185L17.4174 14.5364C17.2929 14.4119 17.124 14.3419 16.9479 14.3419C16.7718 14.3419 16.6028 14.4119 16.4783 14.5364L15.4923 15.5225C15.3055 15.7094 15.0553 15.8122 14.788 15.8122C14.5206 15.8122 14.2704 15.7093 14.0836 15.5226C13.6952 15.1341 13.6952 14.5022 14.0836 14.1138L15.0697 13.1277C15.329 12.8684 15.329 12.4479 15.0697 12.1885L12.018 9.13688C11.7587 8.87763 11.3382 8.87763 11.0788 9.13688L3.59248 16.6234C3.21044 17.0055 3 17.5149 3 18.0577C3 18.6007 3.21044 19.1101 3.59248 19.4921L18.5654 34.465C18.9474 34.8471 19.4568 35.0575 19.9997 35.0575C20.5425 35.0575 21.0519 34.8471 21.4341 34.465L36.407 19.4921C37.1977 18.7012 37.1977 17.4143 36.4069 16.6234ZM6.02885 20.0501L7.4862 18.593C7.74551 18.3337 7.74551 17.9132 7.4862 17.6538C7.22688 17.3945 6.80647 17.3945 6.54708 17.6538L5.0898 19.1111L4.53159 18.5529C4.40037 18.4217 4.32812 18.2458 4.32812 18.0577C4.32812 17.8696 4.40031 17.6937 4.53159 17.5625L11.5485 10.5457L13.661 12.6582L13.1445 13.1747C12.7068 13.6125 12.4657 14.1961 12.4657 14.8182C12.4658 15.4403 12.7068 16.0239 13.1445 16.4616C13.5822 16.8993 14.1659 17.1403 14.788 17.1403C15.4102 17.1403 15.9938 16.8993 16.4315 16.4616L16.948 15.9451L19.0606 18.0577L16.4784 20.6399C16.3539 20.7645 16.2839 20.9333 16.2839 21.1094C16.2839 21.2855 16.3539 21.4545 16.4784 21.579L17.4644 22.5651C17.4883 22.5888 17.5105 22.6137 17.5315 22.6392C17.5419 22.6521 17.5511 22.6657 17.5609 22.679C17.5705 22.692 17.5807 22.7046 17.5896 22.718C17.6036 22.7392 17.6163 22.7612 17.6286 22.7834C17.6318 22.7892 17.6356 22.7947 17.6387 22.8005C17.7141 22.9426 17.7542 23.1027 17.7542 23.2694C17.7542 23.4361 17.7141 23.5962 17.6387 23.7383C17.6356 23.7441 17.6319 23.7496 17.6287 23.7553C17.6163 23.7776 17.6036 23.7996 17.5896 23.8209C17.5808 23.834 17.5706 23.8466 17.5611 23.8595C17.5513 23.8729 17.542 23.8866 17.5315 23.8996C17.5106 23.9251 17.4883 23.9499 17.4644 23.9737C17.2776 24.1605 17.0275 24.2634 16.7601 24.2634C16.4928 24.2634 16.2427 24.1605 16.0558 23.9737L15.0697 22.9875C14.8104 22.7283 14.3899 22.7283 14.1305 22.9875L11.5484 25.5697L6.02885 20.0501ZM20.495 33.5258C20.3637 33.6569 20.1878 33.7293 19.9996 33.7293C19.8116 33.7293 19.6357 33.657 19.5045 33.5258L12.4876 26.5089L14.6002 24.3963L15.1167 24.9129C15.5543 25.3505 16.138 25.5916 16.76 25.5916C17.3821 25.5916 17.9657 25.3505 18.4035 24.9129C18.4314 24.885 18.4584 24.8565 18.4846 24.8275C18.4918 24.8196 18.4985 24.8113 18.5055 24.8033C18.5244 24.7819 18.5431 24.7604 18.5611 24.7385C18.5679 24.7303 18.574 24.7218 18.5806 24.7135C18.5983 24.6913 18.6159 24.669 18.6327 24.6462C18.6382 24.6388 18.6432 24.6311 18.6486 24.6236C18.6659 24.5995 18.683 24.5754 18.6993 24.5507C18.7033 24.5446 18.707 24.5384 18.711 24.5322C18.728 24.506 18.7447 24.4796 18.7606 24.4529C18.7636 24.4477 18.7664 24.4424 18.7694 24.4372C18.7857 24.4093 18.8015 24.3811 18.8165 24.3526C18.8189 24.3481 18.8211 24.3433 18.8235 24.3387C18.8385 24.3096 18.8531 24.2803 18.8669 24.2507C18.8693 24.2455 18.8714 24.2403 18.8738 24.2352C18.8869 24.2062 18.8998 24.1771 18.9118 24.1476C18.9148 24.1401 18.9175 24.1324 18.9205 24.1249C18.9311 24.0979 18.9415 24.0708 18.9511 24.0434C18.9555 24.031 18.9593 24.0186 18.9634 24.0061C18.9709 23.9837 18.9784 23.9613 18.9851 23.9387C18.9915 23.9175 18.997 23.896 19.0027 23.8747C19.0064 23.8608 19.0105 23.8472 19.0139 23.8334C19.1058 23.4635 19.1058 23.0754 19.014 22.7056C19.0104 22.6911 19.0062 22.6768 19.0023 22.6624C18.9968 22.6416 18.9914 22.6209 18.9853 22.6003C18.9784 22.5771 18.9707 22.5542 18.963 22.5312C18.9591 22.5193 18.9555 22.5074 18.9513 22.4956C18.9415 22.4678 18.931 22.4404 18.9201 22.4129C18.9173 22.4058 18.9148 22.3985 18.9119 22.3914C18.8998 22.3617 18.8869 22.3322 18.8736 22.3031C18.8713 22.2982 18.8693 22.2932 18.867 22.2882C18.8531 22.2582 18.8383 22.2286 18.8231 22.1992C18.8209 22.1949 18.8189 22.1905 18.8166 22.1863C18.8014 22.1573 18.7853 22.1289 18.7689 22.1006C18.766 22.0958 18.7634 22.0909 18.7606 22.0861C18.7446 22.059 18.7278 22.0324 18.7106 22.0059C18.7068 21.9999 18.7032 21.9939 18.6993 21.9881C18.6827 21.9631 18.6654 21.9387 18.6479 21.9143C18.6428 21.9072 18.638 21.8998 18.6327 21.8927C18.6157 21.8696 18.5979 21.847 18.5799 21.8244C18.5736 21.8165 18.5677 21.8084 18.5611 21.8005C18.5431 21.7783 18.5242 21.7568 18.5052 21.7353C18.4983 21.7274 18.4917 21.7193 18.4846 21.7115C18.4583 21.6824 18.4313 21.654 18.4034 21.6261L17.8869 21.1096L19.9996 18.9971L22.5817 21.5793C22.7062 21.7038 22.8752 21.7738 23.0513 21.7738C23.2274 21.7738 23.3963 21.7038 23.5208 21.5793L24.507 20.5931C24.6938 20.4063 24.9439 20.3033 25.2113 20.3033C25.4785 20.3033 25.7287 20.4063 25.9156 20.5931C26.1024 20.78 26.2053 21.0301 26.2053 21.2975C26.2053 21.5648 26.1024 21.8149 25.9155 22.0017L24.9294 22.9879C24.6701 23.2472 24.6701 23.6677 24.9294 23.9271L27.5116 26.5092L20.495 33.5258ZM35.4677 18.5529L28.4508 25.5697L26.3382 23.4572L26.8546 22.9407C27.2924 22.503 27.5335 21.9194 27.5335 21.2974C27.5335 20.6752 27.2924 20.0916 26.8547 19.654C26.417 19.2163 25.8333 18.9751 25.2113 18.9751C24.5892 18.9751 24.0055 19.2163 23.5678 19.654L23.0513 20.1705L20.9388 18.0579L23.5209 15.4757C23.7802 15.2164 23.7802 14.7959 23.5209 14.5366L22.5348 13.5504C22.348 13.3636 22.245 13.1135 22.245 12.8462C22.245 12.5788 22.348 12.3286 22.5348 12.1418C22.7217 11.955 22.9718 11.8521 23.2391 11.8521C23.5065 11.8521 23.7566 11.955 23.9434 12.1418L24.9296 13.128C25.1889 13.3873 25.6094 13.3873 25.8687 13.128L28.4509 10.5458L33.9705 16.0654L32.5132 17.5226C32.2539 17.782 32.2539 18.2024 32.5132 18.4618C32.6429 18.5915 32.8128 18.6563 32.9828 18.6563C33.1528 18.6563 33.3226 18.5915 33.4523 18.4618L34.9096 17.0045L35.4677 17.5626C35.7407 17.8356 35.7407 18.2799 35.4677 18.5529Z" fill="white"/>
<path d="M32.1032 18.8717C31.8439 18.6124 31.4235 18.6124 31.1641 18.8717L31.153 18.8828C30.8937 19.1421 30.8937 19.5626 31.153 19.822C31.2827 19.9516 31.4526 20.0165 31.6225 20.0165C31.7925 20.0165 31.9624 19.9516 32.0921 19.822L32.1032 19.8109C32.3625 19.5516 32.3625 19.1311 32.1032 18.8717Z" fill="white"/>
<path d="M8.84475 16.2922C8.5847 16.0336 8.16429 16.035 7.90563 16.2949L7.89454 16.3061C7.63596 16.5662 7.63722 16.9867 7.89727 17.2453C8.02683 17.374 8.19616 17.4384 8.36543 17.4384C8.53603 17.4384 8.70656 17.3731 8.83638 17.2426L8.84747 17.2314C9.10606 16.9713 9.1048 16.5508 8.84475 16.2922Z" fill="white"/>
</g>
<defs>
<clipPath id="clip0_1631_68124">
<rect width="34" height="34" fill="white" transform="translate(3 5)"/>
</clipPath>
</defs>
</svg>
