<svg width="24" height="24" viewBox="0 0 24 24" fill="none" xmlns="http://www.w3.org/2000/svg">
<path d="M19.4614 4.04297C19.3685 3.95009 19.2583 3.87641 19.137 3.82614C19.0157 3.77587 18.8857 3.75 18.7543 3.75C18.623 3.75 18.493 3.77587 18.3717 3.82614C18.2504 3.87641 18.1401 3.95009 18.0473 4.04297H19.4614ZM19.4614 4.04297C19.5542 4.1358 19.6279 4.24602 19.6782 4.36733C19.7284 4.48864 19.7543 4.61866 19.7543 4.74997C19.7543 4.88128 19.7284 5.01131 19.6782 5.13262C19.6279 5.25393 19.5542 5.36414 19.4614 5.45697V4.04297ZM7.51218 6.35778L7.51208 6.35778C7.20717 6.35799 6.91481 6.4792 6.6992 6.69481C6.4836 6.91041 6.36238 7.20277 6.36218 7.50768V7.50778C6.36218 7.73523 6.42963 7.95757 6.55599 8.14669C6.68235 8.33581 6.86196 8.4832 7.07209 8.57025C7.28223 8.65729 7.51346 8.68006 7.73653 8.63569C7.95961 8.59131 8.16452 8.48179 8.32535 8.32096C8.48618 8.16013 8.59571 7.95522 8.64008 7.73214C8.68446 7.50906 8.66168 7.27783 8.57464 7.0677C8.4876 6.85756 8.3402 6.67796 8.15108 6.55159C7.96197 6.42523 7.73963 6.35778 7.51218 6.35778ZM15.9966 17.1422H15.9967C16.3016 17.142 16.5939 17.0207 16.8095 16.8051C17.0251 16.5895 17.1464 16.2972 17.1466 15.9923V15.9922C17.1466 15.7647 17.0791 15.5424 16.9527 15.3533C16.8264 15.1641 16.6468 15.0167 16.4366 14.9297C16.2265 14.8427 15.9953 14.8199 15.7722 14.8643C15.5491 14.9086 15.3442 15.0182 15.1834 15.179C15.0226 15.3398 14.913 15.5447 14.8687 15.7678C14.8243 15.9909 14.8471 16.2221 14.9341 16.4323C15.0211 16.6424 15.1685 16.822 15.3577 16.9484C15.5468 17.0747 15.7691 17.1422 15.9966 17.1422ZM19.3553 4.14901L19.3553 4.14906C19.4343 4.22796 19.4969 4.32164 19.5396 4.42475C19.5823 4.52785 19.6043 4.63837 19.6043 4.74997C19.6043 4.86158 19.5823 4.97209 19.5396 5.0752C19.4969 5.17831 19.4343 5.27198 19.3553 5.35088L19.3553 5.35091L5.3553 19.3509L5.35464 19.3516C5.2759 19.4313 5.18217 19.4947 5.07885 19.5381C4.97552 19.5814 4.86464 19.604 4.75258 19.6043C4.64052 19.6047 4.5295 19.5829 4.4259 19.5401C4.32231 19.4974 4.22818 19.4346 4.14894 19.3554C4.0697 19.2762 4.00691 19.182 3.96419 19.0784C3.92147 18.9748 3.89965 18.8638 3.9 18.7518C3.90035 18.6397 3.92286 18.5288 3.96623 18.4255C4.0096 18.3222 4.07298 18.2284 4.15271 18.1497L4.15338 18.149L18.1534 4.14904L18.1534 4.14901C18.2323 4.07007 18.326 4.00744 18.4291 3.96472C18.5322 3.92199 18.6427 3.9 18.7543 3.9C18.866 3.9 18.9765 3.92199 19.0796 3.96472C19.1827 4.00744 19.2764 4.07007 19.3553 4.14901ZM9.09555 9.87747C8.62692 10.1906 8.07596 10.3578 7.51234 10.3578C6.75668 10.357 6.03221 10.0564 5.49788 9.52208C4.96355 8.98775 4.663 8.26328 4.66218 7.50762L4.51218 7.50778H4.66218C4.66218 6.94411 4.82933 6.39309 5.14249 5.92441C5.45565 5.45573 5.90076 5.09044 6.42153 4.87473C6.9423 4.65902 7.51534 4.60258 8.06819 4.71255C8.62103 4.82251 9.12885 5.09395 9.52743 5.49253C9.92601 5.89111 10.1974 6.39893 10.3074 6.95178C10.4174 7.50462 10.3609 8.07766 10.1452 8.59843C9.92953 9.1192 9.56423 9.56431 9.09555 9.87747ZM14.4132 13.6225C14.8818 13.3093 15.4328 13.1422 15.9964 13.1422C16.7521 13.143 17.4765 13.4435 18.0109 13.9779C18.5452 14.5122 18.8457 15.2367 18.8466 15.9923C18.8465 16.5559 18.6794 17.1069 18.3662 17.5755C18.0531 18.0442 17.608 18.4095 17.0872 18.6252C16.5664 18.8409 15.9934 18.8974 15.4406 18.7874C14.8877 18.6774 14.3799 18.406 13.9813 18.0074C13.5827 17.6088 13.3113 17.101 13.2013 16.5482C13.0914 15.9953 13.1478 15.4223 13.3635 14.9015C13.5792 14.3807 13.9445 13.9356 14.4132 13.6225Z" fill="#717171" stroke="white" stroke-width="0.3"/>
<circle cx="7.5" cy="7.5" r="1.5" fill="#FCAF17"/>
</svg>
