<?xml version="1.0" encoding="UTF-8"?><svg xmlns="http://www.w3.org/2000/svg" xmlns:xlink="http://www.w3.org/1999/xlink" viewBox="0 0 278.96 284.15"><defs><style>.cls-1{fill:url(#linear-gradient-2);}.cls-2{clip-path:url(#clippath-2);}.cls-3{fill:url(#radial-gradient-2);}.cls-3,.cls-4{fill-rule:evenodd;mix-blend-mode:multiply;opacity:.1;}.cls-5{isolation:isolate;}.cls-6{fill:#17479e;}.cls-7{fill:#f49623;}.cls-4{fill:url(#radial-gradient);}.cls-8{clip-path:url(#clippath-1);}.cls-9{fill:#ed2224;}.cls-10{fill:#1e429b;}.cls-11{clip-path:url(#clippath);}.cls-12{fill:none;}.cls-13{filter:url(#luminosity-noclip);}.cls-14{mask:url(#mask-1);}.cls-15{mask:url(#mask);}.cls-16{fill:url(#linear-gradient);}.cls-17{fill:#f3f3f3;}.cls-18{filter:url(#luminosity-noclip-2);}.cls-19{fill:#4aae48;}.cls-20{fill:#fff;opacity:.65;}</style><clipPath id="clippath"><circle class="cls-12" cx="139.48" cy="144.68" r="139.48"/></clipPath><radialGradient id="radial-gradient" cx="287.69" cy="-358.72" fx="287.69" fy="-358.72" r="351.85" gradientTransform="translate(22.02 291.14) scale(.41)" gradientUnits="userSpaceOnUse"><stop offset="0" stop-color="#fff"/><stop offset=".35" stop-color="#fcfcfc"/><stop offset=".58" stop-color="#f3f3f3"/><stop offset=".66" stop-color="#eee"/><stop offset=".94" stop-color="#000"/></radialGradient><filter id="luminosity-noclip" x="44.24" y="12.01" width="190.49" height="131.19" color-interpolation-filters="sRGB" filterUnits="userSpaceOnUse"><feFlood flood-color="#fff" result="bg"/><feBlend in="SourceGraphic" in2="bg"/></filter><linearGradient id="linear-gradient" x1="139.48" y1="-59.12" x2="139.48" y2="110.14" gradientUnits="userSpaceOnUse"><stop offset="0" stop-color="#fff"/><stop offset=".46" stop-color="#d5d5d5"/><stop offset=".46" stop-color="#d5d5d5"/><stop offset=".54" stop-color="#b0b0b0"/><stop offset=".7" stop-color="#656565"/><stop offset=".84" stop-color="#2e2e2e"/><stop offset=".94" stop-color="#0c0c0c"/><stop offset="1" stop-color="#000"/></linearGradient><mask id="mask" x="44.24" y="12.01" width="190.49" height="131.19" maskUnits="userSpaceOnUse"><g class="cls-13"><path class="cls-16" d="m139.48,143.2c52.45,0,95.25-29.46,95.25-65.59S191.94,12.01,139.48,12.01,44.24,41.47,44.24,77.6s42.79,65.59,95.25,65.59Z"/></g></mask><clipPath id="clippath-1"><rect class="cls-12" x="139.48" width="139.48" height="283.71"/></clipPath><clipPath id="clippath-2"><circle class="cls-12" cx="140.87" cy="144.23" r="139.48"/></clipPath><radialGradient id="radial-gradient-2" cx="291.1" cy="-359.81" fx="291.1" fy="-359.81" r="351.85" xlink:href="#radial-gradient"/><filter id="luminosity-noclip-2" x="45.63" y="11.57" width="190.49" height="131.19" color-interpolation-filters="sRGB" filterUnits="userSpaceOnUse"><feFlood flood-color="#fff" result="bg"/><feBlend in="SourceGraphic" in2="bg"/></filter><linearGradient id="linear-gradient-2" x1="140.88" y1="-59.56" x2="140.88" y2="109.7" xlink:href="#linear-gradient"/><mask id="mask-1" x="45.63" y="11.57" width="190.49" height="131.19" maskUnits="userSpaceOnUse"><g class="cls-18"><path class="cls-1" d="m140.88,142.75c52.45,0,95.25-29.46,95.25-65.59S193.33,11.57,140.88,11.57,45.63,41.02,45.63,77.16s42.79,65.59,95.25,65.59Z"/></g></mask></defs><g class="cls-5"><g id="Layer_2"><g id="Layer_1-2"><g class="cls-11"><rect class="cls-17" x="-69.74" y="69.57" width="418.44" height="21.46"/><rect class="cls-17" x="-69.74" y="241.24" width="418.44" height="21.46"/><rect class="cls-17" x="-69.74" y="26.66" width="418.44" height="21.46"/><rect class="cls-17" x="-69.74" y="112.49" width="418.44" height="21.46"/><rect class="cls-17" x="-69.74" y="198.32" width="418.44" height="21.46"/><rect class="cls-17" x="-69.74" y="155.4" width="418.44" height="21.46"/><rect class="cls-9" x="-69.74" y="176.86" width="418.44" height="21.46"/><rect class="cls-9" x="-69.74" y="262.7" width="418.44" height="21.46"/><rect class="cls-9" x="-69.74" y="219.78" width="418.44" height="21.46"/><rect class="cls-9" x="-69.74" y="133.95" width="418.44" height="21.46"/><rect class="cls-9" x="-69.74" y="5.2" width="418.44" height="21.46"/><rect class="cls-9" x="-69.74" y="91.03" width="418.44" height="21.46"/><rect class="cls-9" x="-69.74" y="48.11" width="418.44" height="21.46"/><rect class="cls-6" x="-69.74" y="5.2" width="212.01" height="150.21"/><polygon class="cls-17" points=".93 26.66 -1 32.59 -7.23 32.59 -2.19 36.25 -4.12 42.18 .93 38.52 5.97 42.18 4.05 36.25 9.09 32.59 2.86 32.59 .93 26.66"/><polygon class="cls-17" points=".93 56.7 -1 62.63 -7.23 62.63 -2.19 66.29 -4.12 72.22 .93 68.56 5.97 72.22 4.05 66.29 9.09 62.63 2.86 62.63 .93 56.7"/><polygon class="cls-17" points=".93 86.74 -1 92.67 -7.23 92.67 -2.19 96.33 -4.12 102.27 .93 98.6 5.97 102.27 4.05 96.33 9.09 92.67 2.86 92.67 .93 86.74"/><polygon class="cls-17" points="2.86 122.71 .93 116.78 -1 122.71 -7.23 122.71 -2.19 126.38 -4.12 132.31 .93 128.64 5.97 132.31 4.05 126.38 9.09 122.71 2.86 122.71"/><polygon class="cls-17" points="18.6 11.63 16.67 17.57 10.43 17.57 15.48 21.23 13.55 27.16 18.6 23.5 23.64 27.16 21.72 21.23 26.76 17.57 20.52 17.57 18.6 11.63"/><polygon class="cls-17" points="18.6 41.68 16.67 47.61 10.43 47.61 15.48 51.27 13.55 57.2 18.6 53.54 23.64 57.2 21.72 51.27 26.76 47.61 20.52 47.61 18.6 41.68"/><polygon class="cls-17" points="18.6 71.72 16.67 77.65 10.43 77.65 15.48 81.31 13.55 87.24 18.6 83.58 23.64 87.24 21.72 81.31 26.76 77.65 20.52 77.65 18.6 71.72"/><polygon class="cls-17" points="18.6 101.76 16.67 107.69 10.43 107.69 15.48 111.36 13.55 117.29 18.6 113.62 23.64 117.29 21.72 111.36 26.76 107.69 20.52 107.69 18.6 101.76"/><polygon class="cls-17" points="20.52 137.73 18.6 131.8 16.67 137.73 10.43 137.73 15.48 141.4 13.55 147.33 18.6 143.66 23.64 147.33 21.72 141.4 26.76 137.73 20.52 137.73"/><polygon class="cls-17" points="36.26 26.66 34.34 32.59 28.1 32.59 33.15 36.25 31.22 42.18 36.26 38.52 41.31 42.18 39.38 36.25 44.43 32.59 38.19 32.59 36.26 26.66"/><polygon class="cls-17" points="36.26 56.7 34.34 62.63 28.1 62.63 33.15 66.29 31.22 72.22 36.26 68.56 41.31 72.22 39.38 66.29 44.43 62.63 38.19 62.63 36.26 56.7"/><polygon class="cls-17" points="36.26 86.74 34.34 92.67 28.1 92.67 33.15 96.33 31.22 102.27 36.26 98.6 41.31 102.27 39.38 96.33 44.43 92.67 38.19 92.67 36.26 86.74"/><polygon class="cls-17" points="38.19 122.71 36.26 116.78 34.34 122.71 28.1 122.71 33.15 126.38 31.22 132.31 36.26 128.64 41.31 132.31 39.38 126.38 44.43 122.71 38.19 122.71"/><polygon class="cls-17" points="53.93 11.63 52 17.57 45.77 17.57 50.81 21.23 48.89 27.16 53.93 23.5 58.98 27.16 57.05 21.23 62.09 17.57 55.86 17.57 53.93 11.63"/><polygon class="cls-17" points="53.93 41.68 52 47.61 45.77 47.61 50.81 51.27 48.89 57.2 53.93 53.54 58.98 57.2 57.05 51.27 62.09 47.61 55.86 47.61 53.93 41.68"/><polygon class="cls-17" points="53.93 71.72 52 77.65 45.77 77.65 50.81 81.31 48.89 87.24 53.93 83.58 58.98 87.24 57.05 81.31 62.09 77.65 55.86 77.65 53.93 71.72"/><polygon class="cls-17" points="53.93 101.76 52 107.69 45.77 107.69 50.81 111.36 48.89 117.29 53.93 113.62 58.98 117.29 57.05 111.36 62.09 107.69 55.86 107.69 53.93 101.76"/><polygon class="cls-17" points="55.86 137.73 53.93 131.8 52 137.73 45.77 137.73 50.81 141.4 48.89 147.33 53.93 143.66 58.98 147.33 57.05 141.4 62.09 137.73 55.86 137.73"/><polygon class="cls-17" points="71.6 26.66 69.67 32.59 63.44 32.59 68.48 36.25 66.55 42.18 71.6 38.52 76.64 42.18 74.72 36.25 79.76 32.59 73.53 32.59 71.6 26.66"/><polygon class="cls-17" points="71.6 56.7 69.67 62.63 63.44 62.63 68.48 66.29 66.55 72.22 71.6 68.56 76.64 72.22 74.72 66.29 79.76 62.63 73.53 62.63 71.6 56.7"/><polygon class="cls-17" points="71.6 86.74 69.67 92.67 63.44 92.67 68.48 96.33 66.55 102.27 71.6 98.6 76.64 102.27 74.72 96.33 79.76 92.67 73.53 92.67 71.6 86.74"/><polygon class="cls-17" points="73.53 122.71 71.6 116.78 69.67 122.71 63.44 122.71 68.48 126.38 66.55 132.31 71.6 128.64 76.64 132.31 74.72 126.38 79.76 122.71 73.53 122.71"/><polygon class="cls-17" points="89.27 11.63 87.34 17.57 81.1 17.57 86.15 21.23 84.22 27.16 89.27 23.5 94.31 27.16 92.38 21.23 97.43 17.57 91.19 17.57 89.27 11.63"/><polygon class="cls-17" points="89.27 41.68 87.34 47.61 81.1 47.61 86.15 51.27 84.22 57.2 89.27 53.54 94.31 57.2 92.38 51.27 97.43 47.61 91.19 47.61 89.27 41.68"/><polygon class="cls-17" points="89.27 71.72 87.34 77.65 81.1 77.65 86.15 81.31 84.22 87.24 89.27 83.58 94.31 87.24 92.38 81.31 97.43 77.65 91.19 77.65 89.27 71.72"/><polygon class="cls-17" points="89.27 101.76 87.34 107.69 81.1 107.69 86.15 111.36 84.22 117.29 89.27 113.62 94.31 117.29 92.38 111.36 97.43 107.69 91.19 107.69 89.27 101.76"/><polygon class="cls-17" points="91.19 137.73 89.27 131.8 87.34 137.73 81.1 137.73 86.15 141.4 84.22 147.33 89.27 143.66 94.31 147.33 92.38 141.4 97.43 137.73 91.19 137.73"/><polygon class="cls-17" points="106.93 26.66 105.01 32.59 98.77 32.59 103.82 36.25 101.89 42.18 106.93 38.52 111.98 42.18 110.05 36.25 115.1 32.59 108.86 32.59 106.93 26.66"/><polygon class="cls-17" points="106.93 56.7 105.01 62.63 98.77 62.63 103.82 66.29 101.89 72.22 106.93 68.56 111.98 72.22 110.05 66.29 115.1 62.63 108.86 62.63 106.93 56.7"/><polygon class="cls-17" points="106.93 86.74 105.01 92.67 98.77 92.67 103.82 96.33 101.89 102.27 106.93 98.6 111.98 102.27 110.05 96.33 115.1 92.67 108.86 92.67 106.93 86.74"/><polygon class="cls-17" points="108.86 122.71 106.93 116.78 105.01 122.71 98.77 122.71 103.82 126.38 101.89 132.31 106.93 128.64 111.98 132.31 110.05 126.38 115.1 122.71 108.86 122.71"/><polygon class="cls-17" points="121.48 21.23 119.56 27.16 124.6 23.5 129.65 27.16 127.72 21.23 132.76 17.57 126.53 17.57 124.6 11.63 122.67 17.57 116.44 17.57 121.48 21.23"/><polygon class="cls-17" points="124.6 41.68 122.67 47.61 116.44 47.61 121.48 51.27 119.56 57.2 124.6 53.54 129.65 57.2 127.72 51.27 132.76 47.61 126.53 47.61 124.6 41.68"/><polygon class="cls-17" points="124.6 71.72 122.67 77.65 116.44 77.65 121.48 81.31 119.56 87.24 124.6 83.58 129.65 87.24 127.72 81.31 132.76 77.65 126.53 77.65 124.6 71.72"/><polygon class="cls-17" points="124.6 101.76 122.67 107.69 116.44 107.69 121.48 111.36 119.56 117.29 124.6 113.62 129.65 117.29 127.72 111.36 132.76 107.69 126.53 107.69 124.6 101.76"/><polygon class="cls-17" points="126.53 137.73 124.6 131.8 122.67 137.73 116.44 137.73 121.48 141.4 119.56 147.33 124.6 143.66 129.65 147.33 127.72 141.4 132.76 137.73 126.53 137.73"/></g><path class="cls-4" d="m278.96,144.67c0,77.03-62.44,139.48-139.47,139.48S0,221.7,0,144.67,62.46,5.2,139.48,5.2s139.47,62.45,139.47,139.47Z"/><g class="cls-15"><path class="cls-20" d="m139.48,142.12c51.58,0,93.66-28.98,93.66-64.51S191.07,13.09,139.48,13.09,45.81,42.07,45.81,77.6s42.08,64.51,93.67,64.51Z"/></g><g class="cls-8"><g class="cls-2"><rect class="cls-7" x="-68.34" y="4.75" width="418.44" height="92.99"/><rect class="cls-17" x="-68.34" y="97.74" width="418.44" height="92.99"/><rect class="cls-19" x="-68.34" y="190.73" width="418.44" height="92.99"/><path class="cls-10" d="m140.87,107.04c-20.54,0-37.19,16.65-37.19,37.19s16.65,37.19,37.19,37.19,37.19-16.65,37.19-37.19-16.65-37.19-37.19-37.19Zm32.01,43.04c-.32,1.75-.77,3.46-1.36,5.1-.82-.32-1.75.07-2.09.89-.34.82.04,1.75.85,2.11-.38.8-.79,1.57-1.23,2.33l-16.35-10.73-6.06-2.59c.16-.31.29-.62.39-.96l6.12,2.45,19.15,3.98-18.57-6.13-6.5-.93c.07-.33.1-.68.11-1.03l6.54.78,19.53-1.12-19.53-1.12-6.54.79c-.02-.35-.04-.7-.11-1.03l6.5-.93,18.57-6.13-19.15,3.98-6.12,2.45c-.11-.33-.24-.65-.39-.96l6.06-2.59,16.35-10.73c.44.76.85,1.54,1.23,2.33-.81.36-1.19,1.29-.85,2.11s1.27,1.21,2.09.89c.59,1.64,1.04,3.35,1.36,5.1-.87.14-1.47.94-1.36,1.81.12.87.91,1.48,1.78,1.4.07.87.12,1.75.12,2.64s-.05,1.77-.12,2.64c-.87-.09-1.66.52-1.78,1.4-.12.88.49,1.67,1.36,1.81Zm-7.21-26.91c-.68.55-.81,1.55-.27,2.25.54.7,1.53.83,2.24.32.5.72.97,1.47,1.41,2.23l-17.47,8.8-5.26,3.94c-.19-.29-.41-.56-.64-.81l5.18-4.07,13.02-14.6-14.6,13.02-4.07,5.18c-.26-.23-.52-.45-.81-.64l3.94-5.26,8.8-17.47c.76.44,1.51.91,2.23,1.41-.51.71-.38,1.7.32,2.24.7.54,1.69.41,2.25-.27.67.57,1.32,1.16,1.95,1.78.62.62,1.21,1.28,1.78,1.95Zm-22.16-11.36c-.09.87.52,1.66,1.4,1.78.88.12,1.67-.49,1.81-1.36,1.75.32,3.46.77,5.1,1.36-.32.82.07,1.75.89,2.09.82.34,1.75-.04,2.11-.85.8.38,1.57.79,2.33,1.23l-10.73,16.35-2.59,6.06c-.31-.16-.62-.29-.96-.39l2.45-6.12,3.98-19.15-6.13,18.57-.93,6.5c-.33-.07-.68-.1-1.03-.11l.79-6.54-1.12-19.53-1.12,19.53.79,6.54c-.35.02-.7.04-1.03.11l-.93-6.5-6.13-18.57,3.98,19.15,2.45,6.12c-.33.11-.65.24-.96.39l-2.59-6.06-10.73-16.35c.76-.44,1.54-.85,2.33-1.23.36.81,1.29,1.19,2.11.85.82-.34,1.21-1.27.89-2.09,1.64-.59,3.35-1.04,5.1-1.36.14.87.94,1.47,1.81,1.36.87-.12,1.48-.91,1.4-1.78.87-.07,1.75-.12,2.64-.12s1.77.05,2.64.12Zm-31.2,44.26c-.34-.82-1.27-1.21-2.09-.89-.59-1.64-1.04-3.35-1.36-5.1.87-.14,1.47-.94,1.36-1.81-.12-.87-.91-1.48-1.78-1.4-.07-.87-.12-1.75-.12-2.64s.05-1.77.12-2.64c.87.09,1.66-.52,1.78-1.4.12-.88-.49-1.67-1.36-1.81.32-1.75.77-3.46,1.36-5.1.82.32,1.75-.07,2.09-.89.34-.82-.04-1.75-.85-2.11.38-.8.79-1.57,1.23-2.33l16.35,10.73,6.06,2.59c-.16.31-.29.62-.39.96l-6.12-2.45-19.15-3.98,18.57,6.13,6.5.93c-.07.33-.1.68-.11,1.03l-6.54-.79-19.53,1.12,19.53,1.12,6.54-.78c.02.35.04.7.11,1.03l-6.5.93-18.57,6.13,19.15-3.98,6.12-2.45c.11.33.24.65.39.96l-6.06,2.59-16.35,10.73c-.44-.76-.85-1.54-1.23-2.33.81-.36,1.19-1.29.85-2.11Zm7.5-36.63c.55.68,1.55.81,2.25.27.7-.54.83-1.53.32-2.24.72-.5,1.47-.97,2.23-1.41l8.8,17.47,3.94,5.26c-.29.19-.56.41-.81.64l-4.07-5.18-14.6-13.02,13.02,14.6,5.18,4.07c-.23.26-.45.52-.64.81l-5.26-3.94-17.47-8.8c.44-.76.91-1.51,1.41-2.23.71.51,1.7.38,2.24-.32.54-.7.41-1.69-.27-2.25,1.14-1.34,2.39-2.59,3.73-3.73Zm-3.73,45.86c.68-.55.81-1.55.27-2.25-.54-.7-1.53-.83-2.24-.32-.5-.72-.97-1.47-1.41-2.23l17.47-8.8,5.26-3.94c.19.29.41.56.64.81l-5.18,4.07-13.02,14.6,14.6-13.02,4.07-5.18c.26.23.52.45.81.64l-3.94,5.26-8.8,17.47c-.76-.44-1.51-.91-2.23-1.41.51-.71.38-1.7-.32-2.24-.7-.54-1.69-.41-2.25.27-1.34-1.14-2.59-2.39-3.73-3.73Zm22.16,11.36c.09-.87-.52-1.66-1.4-1.78-.88-.12-1.67.49-1.81,1.36-1.75-.32-3.46-.77-5.1-1.36.32-.82-.07-1.75-.89-2.09-.82-.34-1.75.04-2.11.85-.8-.38-1.57-.79-2.33-1.23l10.73-16.35,2.59-6.06c.31.16.62.29.96.39l-2.45,6.12-3.98,19.15,6.13-18.57.93-6.5c.33.07.68.1,1.03.11l-.79,6.54,1.12,19.53,1.12-19.53-.79-6.54c.35-.02.7-.04,1.03-.11l.93,6.5,6.13,18.57-3.98-19.15-2.45-6.12c.33-.11.65-.24.96-.39l2.59,6.06,10.73,16.35c-.76.44-1.54.85-2.33,1.23-.36-.81-1.29-1.19-2.11-.85-.82.34-1.21,1.27-.89,2.09-1.64.59-3.35,1.04-5.1,1.36-.14-.87-.94-1.47-1.81-1.36-.87.12-1.48.91-1.4,1.78-.87.07-1.75.12-2.64.12s-1.77-.05-2.64-.12Zm23.7-7.63c-.55-.68-1.55-.81-2.25-.27-.7.54-.83,1.53-.32,2.24-.72.5-1.47.97-2.23,1.41l-8.8-17.47-3.94-5.26c.29-.19.56-.41.81-.64l4.07,5.18,14.6,13.02-13.02-14.6-5.18-4.07c.23-.26.45-.52.64-.81l5.26,3.94,17.47,8.8c-.44.76-.91,1.51-1.41,2.23-.71-.51-1.7-.38-2.24.32-.54.7-.41,1.69.27,2.25-.57.67-1.16,1.32-1.78,1.95s-1.28,1.21-1.95,1.78Z"/></g><path class="cls-3" d="m280.35,144.23c0,77.03-62.44,139.48-139.47,139.48S1.39,221.26,1.39,144.23,63.85,4.75,140.88,4.75s139.47,62.45,139.47,139.47Z"/><g class="cls-14"><path class="cls-20" d="m140.88,141.68c51.58,0,93.66-28.98,93.66-64.51S192.46,12.65,140.88,12.65,47.2,41.63,47.2,77.16s42.08,64.51,93.67,64.51Z"/></g></g></g></g></g></svg>