<svg width="24" height="24" viewBox="0 0 24 24" fill="none" xmlns="http://www.w3.org/2000/svg">
<path d="M4.99993 12.9995C4.99993 14.6479 5.66466 16.141 6.74067 17.2255C6.84445 17.3301 6.89633 17.3824 6.92696 17.4326C6.95619 17.4806 6.9732 17.5219 6.98625 17.5766C6.99993 17.6338 6.99993 17.699 6.99993 17.8293V20.1995C6.99993 20.4795 6.99993 20.6196 7.05443 20.7265C7.10236 20.8206 7.17885 20.8971 7.27293 20.945C7.37989 20.9995 7.5199 20.9995 7.79993 20.9995H9.69993C9.97996 20.9995 10.12 20.9995 10.2269 20.945C10.321 20.8971 10.3975 20.8206 10.4454 20.7265C10.4999 20.6196 10.4999 20.4795 10.4999 20.1995V19.7995C10.4999 19.5195 10.4999 19.3795 10.5544 19.2725C10.6024 19.1784 10.6789 19.1019 10.7729 19.054C10.8799 18.9995 11.0199 18.9995 11.2999 18.9995H12.6999C12.98 18.9995 13.12 18.9995 13.2269 19.054C13.321 19.1019 13.3975 19.1784 13.4454 19.2725C13.4999 19.3795 13.4999 19.5195 13.4999 19.7995V20.1995C13.4999 20.4795 13.4999 20.6196 13.5544 20.7265C13.6024 20.8206 13.6789 20.8971 13.7729 20.945C13.8799 20.9995 14.0199 20.9995 14.2999 20.9995H16.2C16.48 20.9995 16.62 20.9995 16.727 20.945C16.8211 20.8971 16.8976 20.8206 16.9455 20.7265C17 20.6196 17 20.4795 17 20.1995V19.2238C17 19.0218 17 18.9207 17.0288 18.8397C17.0563 18.7619 17.0911 18.7075 17.15 18.6498C17.2114 18.5895 17.3155 18.5412 17.5237 18.4445C18.5059 17.9885 19.344 17.2746 19.9511 16.3897C20.0579 16.2341 20.1112 16.1563 20.1683 16.1103C20.2228 16.0664 20.2717 16.0406 20.3387 16.0205C20.4089 15.9995 20.4922 15.9995 20.6587 15.9995H21.2C21.48 15.9995 21.62 15.9995 21.727 15.945C21.8211 15.8971 21.8976 15.8206 21.9455 15.7265C22 15.6196 22 15.4795 22 15.1995V11.7853C22 11.5187 22 11.3854 21.9505 11.2825C21.9013 11.1805 21.819 11.0982 21.717 11.049C21.6141 10.9995 21.4808 10.9995 21.2143 10.9995C21.0213 10.9995 20.9248 10.9995 20.8471 10.9733C20.7633 10.9451 20.7045 10.9075 20.6437 10.8433C20.5874 10.7837 20.5413 10.6842 20.4493 10.485C20.1538 9.84574 19.7492 9.26728 19.2593 8.77355C19.1555 8.66897 19.1036 8.61667 19.073 8.56639C19.0437 8.5184 19.0267 8.4771 19.0137 8.42245C19 8.36518 19 8.30002 19 8.16969V7.06009C19 6.70004 19 6.52002 18.925 6.39902C18.8593 6.29302 18.7564 6.21539 18.6365 6.18136C18.4995 6.1425 18.3264 6.19196 17.9802 6.29087L15.6077 6.96873C15.5673 6.98025 15.5472 6.98601 15.5267 6.99005C15.5085 6.99365 15.4901 6.99622 15.4716 6.99777C15.4508 6.99951 15.4298 6.99951 15.3879 6.99951H14.959M4.99993 12.9995C4.99993 10.6954 6.29864 8.69472 8.20397 7.68942M4.99993 12.9995H4C2.89543 12.9995 2 12.1041 2 10.9995C2 10.2592 2.4022 9.61289 3 9.26708M15 6.49951C15 8.43251 13.433 9.99951 11.5 9.99951C9.567 9.99951 8 8.43251 8 6.49951C8 4.56651 9.567 2.99951 11.5 2.99951C13.433 2.99951 15 4.56651 15 6.49951Z" stroke="#717171" stroke-linecap="round" stroke-linejoin="round"/>
<circle cx="11.6472" cy="6.70577" r="3.17647" fill="#FCAF17"/>
</svg>
