<svg width="24" height="24" viewBox="0 0 24 24" fill="none" xmlns="http://www.w3.org/2000/svg">
<path d="M20.4999 12.0001C19.4999 12.5001 9.99999 12.5001 11.9569 8.20666C13.9138 3.91326 12.5 4.4571 12.5 4.00006C12.5 3.54301 16.0734 4.50006 16.9999 4.50006C17.9264 4.50006 21.4999 11.5001 20.4999 12.0001Z" fill="#FCAF17"/>
<path d="M12 1.99998C10.4679 1.99721 8.95565 2.34652 7.57996 3.02095C6.20428 3.69538 5.00196 4.6769 4.0658 5.88974C3.12964 7.10258 2.48469 8.51432 2.18072 10.016C1.87675 11.5176 1.92189 13.0691 2.31266 14.5505C2.70344 16.0319 3.42938 17.4038 4.43448 18.5601C5.43957 19.7165 6.69693 20.6264 8.10951 21.2197C9.52208 21.813 11.0521 22.0738 12.5815 21.982C14.1108 21.8901 15.5986 21.4481 16.93 20.69H17H17.05C18.9753 19.594 20.4821 17.8897 21.334 15.8447C22.1858 13.7997 22.3345 11.5297 21.7566 9.39101C21.1788 7.25235 19.9071 5.36611 18.1412 4.02839C16.3754 2.69067 14.2153 1.9772 12 1.99998V1.99998ZM13 4.06998C14.76 4.29317 16.3959 5.09507 17.6504 6.34957C18.9049 7.60406 19.7068 9.23996 19.93 11H13V4.06998ZM12 20C9.97453 19.9862 8.02968 19.2045 6.55796 17.8128C5.08624 16.4211 4.19723 14.5229 4.07033 12.5014C3.94342 10.4798 4.58808 8.48537 5.87421 6.92054C7.16033 5.35571 8.99216 4.33699 11 4.06998V12C11.004 12.1197 11.0276 12.238 11.07 12.35V12.43V12.5L15.07 19.37C14.0998 19.7853 13.0554 19.9996 12 20V20ZM16.83 18.36L13.73 13H19.93C19.7954 14.0546 19.4519 15.0717 18.9196 15.9921C18.3873 16.9124 17.677 17.7174 16.83 18.36Z" fill="#717171"/>
</svg>
