<svg width="18" height="18" viewBox="0 0 18 18" fill="none" xmlns="http://www.w3.org/2000/svg">
<path opacity="0.01" fill-rule="evenodd" clip-rule="evenodd" d="M9.00006 17.9998C4.02956 17.9998 0.000179998 13.9704 0.000179998 8.99988C0.000179998 4.02938 4.02956 0 9.00006 0C13.9706 0 17.9999 4.02938 17.9999 8.99988C17.9999 13.9704 13.9706 17.9998 9.00006 17.9998Z" fill="black"/>
<path d="M9 17.4998C4.30564 17.4998 0.500113 13.6942 0.500113 8.99988C0.500113 4.30552 4.30564 0.499993 9 0.499993C13.6944 0.499993 17.4999 4.30552 17.4999 8.99988C17.4999 13.6942 13.6944 17.4998 9 17.4998Z" fill="white" stroke="#FCAF17"/>
<path fill-rule="evenodd" clip-rule="evenodd" d="M12.6334 6.39664C12.8842 6.64703 12.8842 7.05291 12.6334 7.30317L8.32554 11.6035C8.0747 11.8537 7.66823 11.8537 7.41739 11.6035L5.36668 9.55629C5.11585 9.30603 5.11585 8.90015 5.36668 8.64988C5.61739 8.39949 6.024 8.39949 6.27471 8.64988L7.87141 10.2437L11.7253 6.39664C11.9761 6.14638 12.3827 6.14638 12.6334 6.39664H12.6334Z" fill="black"/>
</svg>
