<svg width="24" height="24" viewBox="0 0 24 24" fill="none" xmlns="http://www.w3.org/2000/svg">
<path d="M23.5163 18.2089L23.4721 18.1647C22.9502 17.6428 22.1771 17.4983 21.5157 17.7641V10.3127H23.3044C23.494 10.3127 23.665 10.1984 23.7375 10.0232C23.81 9.84797 23.7698 9.64627 23.6356 9.5123L14.2485 0.137303C14.0655 -0.0454631 13.769 -0.0454162 13.586 0.137349L11.0089 2.71191C10.8258 2.89486 10.8256 3.19168 11.0086 3.37482C11.1916 3.55801 11.4884 3.55815 11.6715 3.37515L13.9174 1.13152L22.1716 9.37519H20.5118L14.2485 3.11991C14.0655 2.93715 13.769 2.93715 13.586 3.11991L7.32272 9.37519H5.66287L9.05995 5.98252C9.24314 5.79957 9.24333 5.5028 9.06037 5.31962C8.87742 5.13643 8.58066 5.13624 8.39747 5.31919L4.19897 9.5123C4.06477 9.64632 4.02455 9.84797 4.09706 10.0232C4.16958 10.1984 4.34053 10.3127 4.53019 10.3127H6.32812V14.3034H5.63672V14.0764C5.63672 13.2288 4.94719 12.5393 4.09959 12.5393H0.46875C0.209859 12.5393 0 12.7492 0 13.008V23.5314C0 23.7903 0.209859 24.0002 0.46875 24.0002H4.09959C4.94714 24.0002 5.63672 23.3107 5.63672 22.4631V22.2696L6.86836 23.0156C7.93195 23.6597 9.15136 24.0002 10.3948 24.0002H17.2019C18.5316 24.0002 19.8329 23.5394 20.8661 22.7024L23.388 20.6598C23.751 20.3657 23.9733 19.9295 23.9977 19.4629C24.0221 18.9963 23.8467 18.5393 23.5163 18.2089ZM4.69922 22.4631C4.69922 22.7937 4.43025 23.0627 4.09959 23.0627H0.9375V13.4768H4.09959C4.4302 13.4768 4.69922 13.7457 4.69922 14.0764V22.4631ZM7.26562 10.3127H7.51669C7.64091 10.3127 7.76001 10.2634 7.84791 10.1756L13.9173 4.11408L19.9866 10.1756C20.0745 10.2634 20.1937 10.3127 20.3178 10.3127H20.5781V18.3401C20.5781 18.3572 20.5792 18.3741 20.5809 18.3907L19.5905 19.1355C19.5264 18.8272 19.3805 18.5386 19.1601 18.3183C18.8945 18.0527 18.5414 17.9064 18.1657 17.9064H17.011V11.2033C17.011 10.9444 16.8012 10.7346 16.5423 10.7346H11.2923C11.0334 10.7346 10.8235 10.9444 10.8235 11.2033V14.7831C10.3628 14.4713 9.82017 14.3034 9.25153 14.3034H7.26562V10.3127ZM16.0735 11.6721V17.9064H14.3962C14.1457 17.9064 13.9103 17.8089 13.734 17.6326L11.7575 15.6468C11.7596 15.6287 11.761 15.6105 11.761 15.5918V11.6721H16.0735ZM23.0615 19.4139C23.0508 19.6185 22.9572 19.8023 22.7979 19.9313L20.2761 21.9739C19.4092 22.676 18.3174 23.0627 17.2019 23.0627H10.3948C9.32259 23.0627 8.27109 22.7691 7.35403 22.2136L5.63672 21.1735V15.2409H9.25153C9.75234 15.2409 10.2232 15.4359 10.5766 15.7893L13.0703 18.2948C13.4245 18.6489 13.8953 18.8439 14.3962 18.8439H18.1657C18.291 18.8439 18.4087 18.8927 18.4972 18.9812C18.7121 19.1962 18.7295 19.5502 18.6367 19.7742C18.609 19.8411 18.5764 19.8888 18.5426 19.9236L18.5187 19.9416C18.5202 19.9419 18.5215 19.9421 18.523 19.9424C18.4416 20.0134 18.3578 20.0138 18.3223 20.0138H12.7031C12.3792 20.0138 12.0645 19.9205 11.793 19.7439L10.2887 18.7655L10.2832 18.762C10.0664 18.6205 9.77597 18.6814 9.63445 18.8983C9.49294 19.1151 9.55397 19.4055 9.77076 19.547L11.2818 20.5298C11.7058 20.8056 12.1972 20.9513 12.7031 20.9513H18.3223C18.6368 20.9513 18.9204 20.8416 19.1434 20.6447L21.7013 18.7211C22.048 18.4868 22.5127 18.531 22.8092 18.8276L22.8534 18.8718C22.9983 19.0167 23.0722 19.2092 23.0615 19.4139Z" fill="#717171"/>
</svg>
