<svg width="328" height="138" viewBox="0 0 328 138" fill="none" xmlns="http://www.w3.org/2000/svg">
<g clip-path="url(#clip0_14_6207)">
<path d="M297.97 136.71C299.34 66.1 245.25 5.91998 173.96 0.609979C100.16 -4.90002 35.87 50.47 30.37 124.27C30.06 128.45 29.95 132.6 30.02 136.7H297.97V136.71Z" fill="url(#paint0_radial_14_6207)"/>
<path d="M104.16 64.11C103.23 64.9 102.31 65.7 101.41 66.54C99.0901 68.69 96.9001 70.95 94.8301 73.29C81.5801 88.3 73.56 107.19 72.05 127.39C71.88 129.64 71.8 131.88 71.8 134.1C71.8 134.97 71.83 135.84 71.85 136.71H81.87C81.85 135.84 81.82 134.98 81.82 134.1C81.82 132.12 81.88 130.14 82.03 128.13C83.42 109.52 90.9101 92.84 102.37 79.86C104.6 77.34 106.99 74.96 109.5 72.72L104.16 64.1V64.11Z" fill="#82E05D"/>
<path d="M170.86 42.29C168.56 42.12 166.22 42.03 163.92 42.03C163.88 42.03 163.85 42.03 163.82 42.03C141.87 42.05 120.84 49.87 104.17 64.1L109.51 72.72C124.07 59.82 143.17 52.06 163.82 52.03C163.86 52.03 163.89 52.03 163.92 52.03C165.97 52.03 168.04 52.1 170.12 52.26C189.17 53.68 206.19 61.51 219.29 73.45L224.63 64.84C210.12 52.13 191.54 43.84 170.86 42.29Z" fill="#FBD237"/>
<path d="M232.94 73.0901C230.35 70.1701 227.57 67.4101 224.63 64.8401L219.29 73.4501C221.44 75.4101 223.5 77.4701 225.43 79.6401C238.39 94.2301 246.17 113.38 246.18 134.1C246.18 134.97 246.17 135.84 246.14 136.71H256.15C256.17 135.84 256.2 134.97 256.2 134.1C256.18 110.92 247.45 89.4601 232.93 73.0901H232.94Z" fill="#FA311A"/>
<path d="M43.02 136.71C42.94 132.83 43.04 128.93 43.33 125.01C45.73 92.78 60.54 63.41 85.04 42.32C109.53 21.23 140.77 10.94 173 13.34C205.23 15.74 234.6 30.55 255.69 55.04C275.4 77.93 285.68 106.72 284.98 136.7H297.98C299.46 66 245.33 5.7 173.96 0.379999C100.16 -5.13 35.87 50.24 30.37 124.04C30.05 128.3 29.95 132.52 30.03 136.7H43.02V136.71Z" fill="url(#paint1_linear_14_6207)"/>
<path style="mix-blend-mode:multiply" d="M44.52 136.71C44.44 132.87 44.54 129 44.83 125.12C47.2 93.29 61.83 64.29 86.02 43.46C107.7 24.79 135.33 14.5 163.81 14.5C166.82 14.5 169.87 14.61 172.88 14.84C204.71 17.21 233.71 31.84 254.54 56.03C274.02 78.65 284.17 107.09 283.46 136.71H286.46C287.16 106.37 276.76 77.24 256.81 54.07C235.46 29.28 205.73 14.28 173.1 11.85C170.01 11.62 166.88 11.5 163.8 11.5C134.6 11.5 106.28 22.04 84.05 41.18C59.27 62.53 44.27 92.26 41.84 124.9C41.55 128.85 41.44 132.79 41.52 136.71H44.52Z" fill="url(#paint2_radial_14_6207)"/>
<path style="mix-blend-mode:multiply" opacity="0.5" d="M45.67 136.71C45.59 132.94 45.69 129.15 45.98 125.34C48.33 93.81 62.82 65.09 86.77 44.46C108.24 25.96 135.61 15.78 163.82 15.78C166.8 15.78 169.82 15.89 172.81 16.11C204.34 18.46 233.06 32.95 253.69 56.9C272.96 79.27 283.01 107.4 282.34 136.7H285.31C285.98 106.69 275.68 77.88 255.94 54.96C234.8 30.41 205.35 15.55 173.03 13.14C169.97 12.91 166.87 12.8 163.82 12.8C134.9 12.8 106.85 23.24 84.83 42.2C60.27 63.35 45.42 92.8 43.01 125.12C42.72 129 42.62 132.87 42.69 136.71H45.66H45.67Z" fill="url(#paint3_radial_14_6207)"/>
<path style="mix-blend-mode:multiply" d="M73.8601 136.71C73.8301 135.73 73.8001 134.75 73.8001 133.77C73.8001 131.6 73.8801 129.41 74.0501 127.2C75.5201 107.44 83.3601 88.97 96.3301 74.28C98.3601 71.99 100.5 69.78 102.77 67.68C119.47 52.25 141.15 43.74 163.81 43.71C163.85 43.71 163.88 43.71 163.91 43.71C166.16 43.71 168.44 43.79 170.7 43.96C195.02 45.78 216.4 57.14 231.43 74.09C245.63 90.1 254.17 111.1 254.19 133.77C254.19 134.75 254.17 135.73 254.14 136.71H256.16C256.18 135.84 256.21 134.97 256.21 134.1C256.19 110.92 247.46 89.46 232.94 73.09C217.57 55.76 195.73 44.15 170.86 42.29C168.56 42.12 166.22 42.03 163.92 42.03C163.88 42.03 163.85 42.03 163.82 42.03C140.65 42.06 118.49 50.75 101.42 66.53C99.1001 68.68 96.9101 70.94 94.8401 73.28C81.5901 88.29 73.5701 107.18 72.0601 127.38C71.8901 129.63 71.8101 131.87 71.8101 134.09C71.8101 134.96 71.8401 135.83 71.8601 136.7H73.8601V136.71Z" fill="url(#paint4_radial_14_6207)"/>
<path style="mix-blend-mode:multiply" d="M62.11 136.71C53.04 133.32 48.19 130.81 48.19 130.81C48.19 130.81 48.06 132.96 48.19 136.71H62.12H62.11Z" fill="url(#paint5_linear_14_6207)"/>
<path style="mix-blend-mode:multiply" d="M281.39 136.71C281.83 130.83 281.69 127.31 281.69 127.31C281.69 127.31 274.83 131.55 262.31 136.71H281.39Z" fill="url(#paint6_linear_14_6207)"/>
<path style="mix-blend-mode:screen" d="M286.56 123.3C289.27 121.09 292.08 119.03 294.91 117.13C292.05 83.04 256.4 -2.84999 160.52 1.80001C41.39 7.59001 32.52 122.8 32.52 122.8L40.02 126.8C40.02 126.8 50.02 16.3 160.52 11.3C250.99 7.21001 284.59 94.82 286.52 122.8C286.53 122.97 286.54 123.12 286.56 123.29V123.3Z" fill="url(#paint7_radial_14_6207)"/>
<path d="M245.91 89.31C237.66 74.84 225.78 62.78 211.53 54.41C197.71 46.3 181.67 41.65 164.56 41.65C147.45 41.65 131.41 46.3 117.59 54.41C103.34 62.78 91.45 74.84 83.21 89.31C75.22 103.33 70.64 119.61 70.64 136.98H104.13C104.13 125.81 107.09 115.34 112.23 106.32C117.54 97.01 125.18 89.26 134.35 83.87C143.24 78.65 153.55 75.65 164.56 75.65C175.57 75.65 185.88 78.65 194.77 83.87C203.94 89.26 211.58 97.01 216.89 106.32C222.03 115.34 224.99 125.81 224.99 136.98H258.48C258.48 119.61 253.9 103.33 245.91 89.31Z" fill="white"/>
<path d="M194.77 83.87L211.53 54.41C197.71 46.3 181.67 41.65 164.56 41.65V75.64C175.57 75.64 185.88 78.64 194.77 83.86V83.87Z" fill="#F7B11E"/>
<path d="M134.34 83.87L117.58 54.41C103.33 62.78 91.4401 74.84 83.2001 89.31L112.22 106.32C117.53 97.01 125.17 89.26 134.34 83.87Z" fill="#FDEB48"/>
<path d="M164.56 75.65V41.66C147.45 41.66 131.41 46.31 117.59 54.42L134.35 83.88C143.24 78.66 153.55 75.66 164.56 75.66V75.65Z" fill="#FED137"/>
<path d="M216.89 106.32L245.91 89.31C237.66 74.84 225.78 62.78 211.53 54.41L194.77 83.87C203.94 89.26 211.58 97.01 216.89 106.32Z" fill="#F26D24"/>
<path d="M224.99 136.99H258.48C258.48 119.62 253.9 103.34 245.91 89.3201L216.89 106.33C222.03 115.35 224.99 125.82 224.99 136.99Z" fill="#D72626"/>
<path d="M104.13 136.99C104.13 125.82 107.09 115.35 112.23 106.33L83.21 89.3201C75.22 103.34 70.64 119.62 70.64 136.99H104.13Z" fill="#99C817"/>
<path d="M77.51 136.99C77.51 88.2 116.48 48.64 164.56 48.64C212.64 48.64 251.61 88.2 251.61 136.99" fill="white"/>
<path d="M59.3519 118.394L60.0371 114.825L59.1182 114.649L58.6437 117.12L53.5497 116.142L53.339 117.239L59.3519 118.394Z" fill="#99C817"/>
<path d="M56.2275 111.202C55.9203 112.502 56.5672 113.635 57.9817 113.969C59.3608 114.295 60.4222 113.557 60.7106 112.337C60.9698 111.24 60.5258 109.959 58.9434 109.585C57.6349 109.276 56.5305 109.92 56.2275 111.202ZM57.0169 111.417C57.1924 110.674 58.0326 110.555 58.7045 110.714C59.5708 110.919 60.0784 111.496 59.9322 112.115C59.7754 112.778 59.0516 113.037 58.2206 112.84C57.5045 112.671 56.835 112.186 57.0169 111.417Z" fill="#99C817"/>
<path d="M56.9466 108.554L61.56 108.545L61.8542 107.542L60.287 106.495C59.9045 106.25 59.5193 106.014 59.022 105.773L59.0271 105.756C59.5695 105.811 59.9986 105.833 60.4815 105.833L62.3558 105.834L62.6475 104.84L58.7941 102.26L58.4844 103.315L60.229 104.338C60.6926 104.598 61.1264 104.829 61.5679 105.034L61.5628 105.052C61.0727 105.012 60.5774 104.99 60.0422 104.975L58.0034 104.954L57.7475 105.825L59.5214 106.942C59.9214 107.192 60.3511 107.47 60.7875 107.693L60.7824 107.71C60.2974 107.653 59.8073 107.613 59.3259 107.576L57.269 107.455L56.9466 108.554Z" fill="#99C817"/>
<path d="M72.419 82.686L72.8908 81.839L67.9803 79.4643L67.3512 80.5936L68.8912 82.3116C69.3466 82.8057 69.842 83.2943 70.2865 83.7084L70.2747 83.7296C69.6785 83.5547 69.0313 83.3884 68.3793 83.2472L66.1206 82.8028L65.4836 83.9462L70.0639 86.9138L70.516 86.1021L68.6622 84.9307C68.0326 84.5337 67.2931 84.0848 66.6837 83.7176L66.6916 83.7035C67.3553 83.9067 68.099 84.0991 68.8082 84.2537L71.1948 84.7508L71.5683 84.0803L69.8926 82.2405C69.4106 81.6946 68.8784 81.1392 68.3862 80.6615L68.398 80.6403C69.0363 81.0051 69.7971 81.3827 70.4269 81.6965L72.419 82.686Z" fill="#FDEB48"/>
<path d="M70.9217 77.4046C70.2913 78.4111 70.512 79.5504 71.6076 80.2365C72.6757 80.9056 73.7808 80.5872 74.3726 79.6423C74.9044 78.7932 74.897 77.5874 73.6713 76.8197C72.658 76.185 71.5436 76.4118 70.9217 77.4046ZM71.5251 77.8111C71.8853 77.236 72.6268 77.3763 73.1472 77.7022C73.8182 78.1225 74.0806 78.7539 73.7804 79.2332C73.4587 79.7467 72.7753 79.7572 72.1317 79.3541C71.5771 79.0067 71.152 78.4068 71.5251 77.8111Z" fill="#FDEB48"/>
<path d="M72.55 71.8385L74.3884 73.1005L74.3792 73.1138C74.0388 73.0958 73.6329 73.2874 73.3265 73.7337C72.7915 74.513 72.9712 75.636 74.0614 76.3747C75.0606 77.0606 76.1407 76.9005 76.6711 76.1278C76.9957 75.6549 77.0391 75.1064 76.812 74.6664L76.8211 74.653L77.3569 74.9718L77.8599 74.2391C77.6309 74.1016 77.2621 73.868 76.9291 73.6393L73.1124 71.0192L72.55 71.8385ZM75.8737 74.1202C75.9603 74.1797 76.0357 74.2412 76.0952 74.3115C76.3934 74.6338 76.4186 75.0823 76.19 75.4153C75.8333 75.9349 75.1992 75.9307 74.6064 75.5238C74.0003 75.1077 73.7352 74.4945 74.0964 73.9683C74.3525 73.5953 74.7906 73.5139 75.1606 73.6601C75.2364 73.6925 75.3209 73.7407 75.3875 73.7864L75.8737 74.1202Z" fill="#FDEB48"/>
<path d="M79.0768 69.7788C79.0153 69.7126 78.9084 69.6126 78.7596 69.5014C78.0671 68.9839 76.9743 68.6917 76.2101 69.7143C75.4557 70.7239 75.881 71.8688 76.7547 72.5217C77.719 73.2423 78.7966 73.1095 79.5607 72.087C79.8992 71.6339 80.0956 71.1957 80.1887 70.8417L79.5516 70.5471C79.4632 70.8542 79.3167 71.1583 79.041 71.5272C78.6638 72.032 78.0842 72.2948 77.5001 71.8886L79.0768 69.7788ZM76.9436 71.4727C76.6441 71.1985 76.3523 70.6577 76.7199 70.1658C77.1165 69.6351 77.6921 69.8636 77.9785 70.0877L76.9436 71.4727Z" fill="#FDEB48"/>
<path d="M80.9173 70.1745L81.5373 69.3979L79.9462 68.1277C79.8578 68.0571 79.7858 67.979 79.7264 67.9109C79.4345 67.5642 79.3962 67.1201 79.6936 66.7476C79.7692 66.6529 79.8373 66.5935 79.9003 66.5404L79.1679 65.9557C79.1049 66.0088 79.0633 66.048 79.0028 66.1237C78.7407 66.4521 78.6744 66.9884 78.9891 67.4877L78.9689 67.513L78.3615 67.0695L77.8222 67.7451C78.1151 67.9479 78.4169 68.1785 78.8337 68.5112L80.9173 70.1745Z" fill="#FDEB48"/>
<path d="M84.6675 65.6487C84.4567 65.5224 84.1815 65.3097 83.9107 65.0794L82.8276 64.1582C82.1752 63.6033 81.3303 63.3621 80.5138 64.3222C80.1108 64.7961 79.9103 65.2938 79.8572 65.6305L80.4752 65.9015C80.5187 65.5885 80.6881 65.2022 80.9393 64.9068C81.3895 64.3775 81.7837 64.5749 81.9806 64.7424L82.0299 64.7843C81.0816 65.8869 80.8926 66.8822 81.6496 67.5261C82.1051 67.9134 82.8299 67.9465 83.3429 67.3434C83.6726 66.9556 83.7734 66.5004 83.6965 66.1169L83.7123 66.0984L84.0865 66.3318L84.6675 65.6487ZM82.9503 65.5353C82.9995 65.5771 83.0558 65.6356 83.0955 65.7012C83.2534 65.9521 83.2619 66.3412 83.0054 66.6427C82.8013 66.8828 82.5036 66.9584 82.2082 66.7072C81.7528 66.3198 82.0703 65.7096 82.5379 65.1846L82.9503 65.5353Z" fill="#FDEB48"/>
<path d="M81.7961 61.6197L82.4549 62.2163L82.0753 62.6355L82.6263 63.1344L83.0059 62.7152L84.3773 63.957C84.7606 64.3041 85.0892 64.4708 85.3979 64.4669C85.6724 64.4648 85.9683 64.3185 86.2123 64.049C86.4238 63.8154 86.5674 63.5967 86.6231 63.4509L86.0493 62.9531C86.0076 63.0353 85.9388 63.1474 85.8249 63.2732C85.57 63.5546 85.2976 63.4824 84.9442 63.1624L83.6566 61.9965L84.2911 61.2958L83.7401 60.7969L83.1056 61.4976L82.2732 60.7438L81.7961 61.6197Z" fill="#FDEB48"/>
<path d="M88.2047 59.3846C88.152 59.3113 88.0585 59.1987 87.9248 59.0698C87.3025 58.4697 86.2548 58.043 85.3687 58.9619C84.4938 59.8691 84.7725 61.0583 85.5576 61.8154C86.4242 62.651 87.5099 62.6542 88.396 61.7353C88.7885 61.3282 89.0382 60.918 89.1749 60.5784L88.5796 60.2064C88.4535 60.5 88.2701 60.7834 87.9505 61.1149C87.513 61.5685 86.905 61.7566 86.3764 61.2806L88.2047 59.3846ZM85.8763 60.7982C85.6135 60.4888 85.3917 59.9157 85.818 59.4737C86.2778 58.9968 86.8204 59.2955 87.0765 59.5537L85.8763 60.7982Z" fill="#FDEB48"/>
<path d="M89.9872 60.0168L90.7029 59.3158L86.6887 55.218L85.973 55.9191L89.9872 60.0168Z" fill="#FDEB48"/>
<path d="M88.4218 56.0186L91.9314 57.6901C92.0328 57.7282 92.0772 57.7642 92.1047 57.7939C92.1376 57.8294 92.1583 57.8874 92.1781 57.9682C92.2585 58.2571 92.2578 58.5772 92.2038 58.7924C92.1545 59.0364 92.0609 59.2443 91.9639 59.3893L92.7009 59.8518C92.8627 59.6579 93.0711 59.2885 93.1194 58.7701C93.1886 58.1553 93.0104 57.4281 92.408 55.9817L91.3078 53.3442L90.5256 54.0691L91.503 56.0273C91.6254 56.2663 91.7698 56.5291 91.8761 56.7389L91.8583 56.7554C91.6631 56.6279 91.4006 56.4636 91.1766 56.3407L89.2219 55.2772L88.4218 56.0186Z" fill="#FDEB48"/>
<path d="M95.6529 54.7825L98.1343 52.7121L97.6012 52.0732L95.8828 53.5069L92.9273 49.9647L92.1643 50.6013L95.6529 54.7825Z" fill="#FDEB48"/>
<path d="M97.524 48.0912C96.5837 48.8166 96.3957 49.9617 97.1853 50.9852C97.9552 51.9831 99.1021 52.0677 99.9849 51.3866C100.778 50.7747 101.189 49.6411 100.306 48.4961C99.5755 47.5493 98.4516 47.3756 97.524 48.0912ZM97.949 48.6817C98.4864 48.2671 99.1332 48.6559 99.5083 49.142C99.9919 49.7689 100.019 50.4521 99.5712 50.7976C99.0915 51.1677 98.4468 50.9406 97.9829 50.3393C97.5832 49.8211 97.3925 49.111 97.949 48.6817Z" fill="#FDEB48"/>
<path d="M99.4816 46.6793L102.686 49.2412L103.449 48.7097L102.944 47.1111C102.815 46.7283 102.68 46.3501 102.469 45.9062L102.482 45.897C102.828 46.2372 103.113 46.4912 103.448 46.7598L104.747 47.8039L105.503 47.2771L104.266 43.3427L103.464 43.9018L104.105 45.5828C104.282 46.0207 104.454 46.4227 104.646 46.8109L104.633 46.8202C104.315 46.5198 103.984 46.2286 103.621 45.9202L102.219 44.7707L101.556 45.2328L102.164 46.9952C102.303 47.3912 102.446 47.823 102.625 48.2205L102.611 48.2297C102.307 47.9201 101.989 47.6197 101.676 47.3259L100.317 46.097L99.4816 46.6793Z" fill="#FDEB48"/>
<path d="M122.844 37.8036L123.727 37.4037L121.194 32.573L120.017 33.1062L120.232 35.4034C120.304 36.0714 120.411 36.759 120.522 37.3562L120.5 37.3662C120.125 36.8709 119.704 36.3521 119.264 35.8506L117.713 34.1493L116.521 34.6891L118.435 39.7998L119.282 39.4165L118.489 37.372C118.219 36.6782 117.892 35.8773 117.621 35.2197L117.636 35.213C118.048 35.7713 118.531 36.3684 119.009 36.9147L120.632 38.7345L121.331 38.4179L121.079 35.9422C121.016 35.2166 120.919 34.4535 120.808 33.7767L120.83 33.7667C121.126 34.4398 121.513 35.1959 121.832 35.8229L122.844 37.8036Z" fill="#FED137"/>
<path d="M124.779 32.6754C123.673 33.1074 123.17 34.1535 123.641 35.3577C124.099 36.5317 125.176 36.9351 126.215 36.5296C127.148 36.1652 127.861 35.1928 127.335 33.8457C126.9 32.7319 125.87 32.2493 124.779 32.6754ZM125.021 33.3616C125.653 33.1147 126.165 33.6695 126.388 34.2415C126.676 34.979 126.51 35.6423 125.983 35.848C125.419 36.0684 124.864 35.6693 124.588 34.9619C124.35 34.3523 124.366 33.6172 125.021 33.3616Z" fill="#FED137"/>
<path d="M129.413 29.1783L130.133 31.2887L130.118 31.2939C129.856 31.076 129.416 30.9872 128.904 31.162C128.009 31.4672 127.482 32.475 127.915 33.7188C128.306 34.8658 129.268 35.3827 130.155 35.0801C130.698 34.8949 131.06 34.4809 131.141 33.9924L131.157 33.9872L131.396 34.5629L132.237 34.2759C132.135 34.0288 131.979 33.6211 131.849 33.2388L130.354 28.8574L129.413 29.1783ZM130.715 32.9938C130.749 33.0932 130.773 33.1876 130.779 33.2795C130.825 33.7161 130.577 34.0909 130.195 34.2213C129.599 34.4248 129.093 34.0426 128.86 33.3621C128.623 32.6663 128.777 32.0162 129.381 31.8101C129.809 31.664 130.209 31.8605 130.418 32.1988C130.46 32.27 130.499 32.3592 130.525 32.4356L130.715 32.9938Z" fill="#FED137"/>
<path d="M135.876 31.4299C135.866 31.3401 135.84 31.1961 135.787 31.0179C135.543 30.1888 134.842 29.3006 133.618 29.6623C132.409 30.0194 132.064 31.1912 132.374 32.2372C132.715 33.3916 133.657 33.9303 134.881 33.5686C135.424 33.4084 135.843 33.1749 136.13 32.947L135.796 32.3296C135.541 32.5228 135.242 32.6786 134.8 32.8091C134.196 32.9877 133.574 32.8512 133.35 32.1762L135.876 31.4299ZM133.153 31.5099C133.077 31.111 133.167 30.5032 133.756 30.3292C134.391 30.1415 134.716 30.669 134.811 31.02L133.153 31.5099Z" fill="#FED137"/>
<path d="M137.104 32.8519L138.066 32.6019L137.554 30.6314C137.525 30.522 137.515 30.4162 137.508 30.3262C137.482 29.8737 137.718 29.4953 138.179 29.3754C138.296 29.3449 138.386 29.3382 138.469 29.3335L138.233 28.4264C138.151 28.4311 138.094 28.4375 138 28.4619C137.593 28.5676 137.219 28.9571 137.171 29.5455L137.14 29.5536L136.92 28.8345L136.083 29.052C136.196 29.3899 136.299 29.7554 136.434 30.2715L137.104 32.8519Z" fill="#FED137"/>
<path d="M142.797 31.4846C142.705 31.2571 142.612 30.9218 142.534 30.575L142.221 29.188C142.032 28.3527 141.501 27.6526 140.272 27.9303C139.665 28.0674 139.206 28.3451 138.961 28.5825L139.293 29.1703C139.515 28.946 139.883 28.7388 140.261 28.6533C140.939 28.5002 141.136 28.8948 141.193 29.1469L141.207 29.21C139.786 29.5226 139.038 30.2052 139.257 31.1745C139.389 31.7577 139.948 32.2193 140.721 32.0449C141.217 31.9327 141.571 31.6291 141.74 31.2762L141.763 31.2709L141.923 31.6822L142.797 31.4846ZM141.492 30.3631C141.506 30.4261 141.516 30.5067 141.509 30.583C141.484 30.8784 141.258 31.1947 140.871 31.2819C140.564 31.3514 140.281 31.2332 140.195 30.8549C140.063 30.2717 140.684 29.9742 141.373 29.8351L141.492 30.3631Z" fill="#FED137"/>
<path d="M142.927 26.5409L143.095 27.4136L142.54 27.5205L142.68 28.2504L143.236 28.1435L143.585 29.9604C143.683 30.4682 143.845 30.7989 144.094 30.9814C144.315 31.1446 144.639 31.2056 144.996 31.1369C145.306 31.0774 145.552 30.9889 145.684 30.9059L145.525 30.1632C145.442 30.2038 145.32 30.252 145.153 30.284C144.78 30.3558 144.606 30.1342 144.516 29.6662L144.188 27.9604L145.116 27.7818L144.976 27.0519L144.047 27.2305L143.835 26.1277L142.927 26.5409Z" fill="#FED137"/>
<path d="M149.422 28.6095C149.424 28.5192 149.417 28.373 149.388 28.1895C149.252 27.3357 148.673 26.3642 147.412 26.5644C146.167 26.762 145.674 27.8792 145.845 28.9564C146.034 30.1454 146.898 30.8016 148.159 30.6014C148.718 30.5128 149.164 30.3356 149.478 30.1467L149.226 29.4913C148.949 29.6498 148.632 29.7656 148.177 29.8378C147.555 29.9366 146.956 29.7208 146.821 29.0224L149.422 28.6095ZM146.712 28.3362C146.688 27.9309 146.856 27.3398 147.463 27.2435C148.117 27.1396 148.37 27.7048 148.419 28.0651L146.712 28.3362Z" fill="#FED137"/>
<path d="M169.878 29.3553L170.847 29.3856L170.702 23.933L169.41 23.8926L168.591 26.0495C168.361 26.6809 168.155 27.3453 167.991 27.9303L167.967 27.9295C167.848 27.3196 167.699 26.6683 167.525 26.0243L166.883 23.8136L165.575 23.7727L165.041 29.2042L165.97 29.2332L166.159 27.0486C166.223 26.3069 166.282 25.4438 166.329 24.734L166.345 24.7345C166.469 25.4173 166.639 26.1663 166.828 26.8674L167.482 29.2158L168.249 29.2398L169.114 26.9065C169.378 26.2277 169.627 25.4999 169.825 24.8432L169.849 24.844C169.818 25.5786 169.832 26.4278 169.843 27.1313L169.878 29.3553Z" fill="#F7B11E"/>
<path d="M173.88 25.6181C172.697 25.5189 171.785 26.2371 171.677 27.5253C171.572 28.7812 172.361 29.6176 173.472 29.7107C174.471 29.7944 175.539 29.2353 175.66 27.7941C175.76 26.6026 175.048 25.7159 173.88 25.6181ZM173.795 26.3407C174.472 26.3974 174.687 27.1207 174.635 27.7326C174.569 28.5216 174.128 29.0441 173.565 28.9969C172.961 28.9463 172.638 28.3436 172.702 27.5868C172.756 26.9347 173.095 26.282 173.795 26.3407Z" fill="#F7B11E"/>
<path d="M179.568 24.5089L179.286 26.7209L179.27 26.7189C179.131 26.4079 178.775 26.1345 178.238 26.0661C177.3 25.9466 176.383 26.6199 176.225 27.9273C176.072 29.1294 176.708 30.0168 177.638 30.1352C178.207 30.2077 178.714 29.9955 179.002 29.5923L179.018 29.5943L178.98 30.2166L179.861 30.3289C179.879 30.0624 179.918 29.6275 179.969 29.2268L180.554 24.6345L179.568 24.5089ZM179.059 28.5081C179.045 28.6123 179.025 28.7075 178.99 28.7926C178.84 29.2051 178.452 29.4327 178.052 29.3816C177.426 29.302 177.14 28.7361 177.231 28.0228C177.324 27.2935 177.748 26.7774 178.381 26.8581C178.83 26.9152 179.103 27.2676 179.142 27.6636C179.148 27.7457 179.143 27.8429 179.133 27.9231L179.059 28.5081Z" fill="#F7B11E"/>
<path d="M184.386 29.3791C184.416 29.2942 184.457 29.1535 184.488 28.9703C184.633 28.1181 184.394 27.0122 183.136 26.7985C181.893 26.5874 181.068 27.488 180.886 28.5633C180.684 29.7502 181.294 30.6486 182.552 30.8624C183.11 30.9571 183.589 30.932 183.947 30.8534L183.918 30.152C183.605 30.2135 183.267 30.2217 182.813 30.1446C182.192 30.0391 181.694 29.6431 181.789 28.9381L184.386 29.3791ZM181.905 28.253C182.013 27.8615 182.361 27.3552 182.966 27.4581C183.62 27.569 183.679 28.1855 183.61 28.5426L181.905 28.253Z" fill="#F7B11E"/>
<path d="M184.876 31.1993L185.85 31.3981L186.257 29.4033C186.28 29.2925 186.317 29.1928 186.351 29.1089C186.527 28.6913 186.905 28.4552 187.372 28.5505C187.49 28.5748 187.574 28.6084 187.65 28.6404L187.838 27.7221C187.762 27.6901 187.708 27.6709 187.613 27.6515C187.201 27.5675 186.693 27.7524 186.392 28.2598L186.36 28.2533L186.479 27.5107L185.632 27.3378C185.585 27.6909 185.517 28.0646 185.41 28.587L184.876 31.1993Z" fill="#F7B11E"/>
<path d="M190.604 32.4836C190.621 32.2385 190.686 31.8968 190.768 31.5509L191.097 30.1676C191.295 29.3344 191.126 28.4721 189.9 28.1805C189.295 28.0365 188.761 28.0838 188.437 28.1894L188.476 28.8631C188.774 28.7597 189.195 28.7353 189.573 28.825C190.249 28.9858 190.252 29.4267 190.192 29.6782L190.177 29.7411C188.764 29.3967 187.791 29.6802 187.561 30.647C187.423 31.2287 187.722 31.8896 188.493 32.0728C188.988 32.1906 189.439 32.0737 189.746 31.8311L189.77 31.8367L189.732 32.2761L190.604 32.4836ZM189.926 30.9021C189.911 30.965 189.884 31.0417 189.844 31.1069C189.692 31.3614 189.349 31.5456 188.964 31.454C188.657 31.3811 188.455 31.1502 188.544 30.7729C188.683 30.1913 189.371 30.1971 190.051 30.3755L189.926 30.9021Z" fill="#F7B11E"/>
<path d="M192.899 28.0997L192.665 28.9572L192.12 28.8087L191.924 29.526L192.47 29.6744L191.984 31.4597C191.849 31.9586 191.849 32.3271 191.992 32.6005C192.118 32.8442 192.383 33.0418 192.734 33.1372C193.038 33.2199 193.298 33.2488 193.453 33.2324L193.637 32.4954C193.545 32.4954 193.414 32.4849 193.25 32.4403C192.883 32.3407 192.824 32.065 192.95 31.6051L193.406 29.929L194.318 30.1771L194.513 29.4599L193.601 29.2117L193.896 28.1281L192.899 28.0997Z" fill="#F7B11E"/>
<path d="M197.794 32.8019C197.836 32.7217 197.894 32.5875 197.948 32.4098C198.202 31.5835 198.109 30.4561 196.889 30.0812C195.684 29.711 194.75 30.4972 194.429 31.5398C194.076 32.6906 194.564 33.6604 195.784 34.0353C196.325 34.2014 196.803 34.2386 197.168 34.207L197.231 33.5078C196.912 33.5282 196.576 33.4927 196.136 33.3574C195.534 33.1723 195.091 32.7151 195.277 32.0284L197.794 32.8019ZM195.481 31.3642C195.638 30.9899 196.049 30.533 196.636 30.7133C197.269 30.9079 197.248 31.5268 197.133 31.872L195.481 31.3642Z" fill="#F7B11E"/>
<path d="M198.045 34.6711L198.994 34.9935L200.84 29.5623L199.891 29.2399L198.045 34.6711Z" fill="#F7B11E"/>
<path d="M200.903 31.4852L200.992 35.3714C201.003 35.4792 200.991 35.535 200.977 35.5729C200.96 35.6183 200.918 35.6629 200.855 35.7169C200.633 35.9189 200.347 36.0624 200.13 36.1112C199.89 36.1771 199.662 36.1871 199.489 36.1658L199.408 37.0322C199.654 37.0893 200.078 37.109 200.563 36.9186C201.143 36.7034 201.712 36.2169 202.732 35.0275L204.591 32.8573L203.591 32.4854L202.283 34.24C202.125 34.457 201.955 34.7042 201.816 34.8937L201.793 34.8853C201.819 34.6535 201.848 34.3452 201.857 34.0898L201.926 31.8656L200.903 31.4852Z" fill="#F7B11E"/>
<path d="M207.458 32.3866L205.257 37.3674L206.166 37.769L207.136 35.5742L209.242 36.5049L208.273 38.6997L209.181 39.1014L211.382 34.1205L210.473 33.7189L209.592 35.7142L207.486 34.7835L208.367 32.7882L207.458 32.3866Z" fill="#F7B11E"/>
<path d="M211.05 40.012L212.767 36.4717L211.865 36.0346L210.149 39.5749L211.05 40.012ZM213.032 34.7774C212.734 34.6328 212.428 34.745 212.294 35.0212C212.163 35.2902 212.257 35.5962 212.556 35.7407C212.868 35.8923 213.167 35.7767 213.297 35.5077C213.424 35.2279 213.337 34.9254 213.032 34.7774Z" fill="#F7B11E"/>
<path d="M216.228 38.2492L215.948 38.6956L215.934 38.6881C215.92 38.3156 215.74 37.8929 215.21 37.6153C214.373 37.1763 213.265 37.4802 212.665 38.625C212.147 39.6125 212.387 40.6506 213.253 41.1046C213.711 41.3447 214.177 41.3248 214.539 41.1222L214.553 41.1297L214.396 41.4302C214.002 42.1815 213.415 42.2569 212.843 41.9568C212.42 41.7354 212.12 41.4044 211.965 41.1593L211.423 41.7234C211.626 42.067 212.05 42.4077 212.493 42.6403C212.973 42.8917 213.526 43.0541 214.06 42.9235C214.597 42.7857 215.022 42.3421 215.404 41.6123L216.44 39.6374C216.691 39.158 216.855 38.8793 216.994 38.6507L216.228 38.2492ZM215.057 40.1348C215.004 40.2349 214.926 40.3491 214.856 40.4308C214.591 40.6931 214.192 40.7577 213.863 40.5851C213.312 40.2963 213.263 39.6593 213.574 39.0654C213.946 38.357 214.536 38.119 215.029 38.3779C215.401 38.573 215.524 38.9476 215.448 39.3184C215.432 39.4012 215.395 39.4908 215.353 39.5695L215.057 40.1348Z" fill="#F7B11E"/>
<path d="M216.003 42.5988L216.87 43.1015L218.05 41.0679C218.106 40.9701 218.166 40.8833 218.235 40.8296C218.475 40.6237 218.843 40.5379 219.178 40.7326C219.653 41.0082 219.62 41.484 219.332 41.9802L218.226 43.8881L219.085 44.3867L220.249 42.3811C220.881 41.2909 220.496 40.5538 219.916 40.2173C219.699 40.0916 219.464 40.0299 219.24 40.0305C219.001 40.0229 218.785 40.0746 218.587 40.1745L218.573 40.1664L219.748 38.1398L218.882 37.637L216.003 42.5988Z" fill="#F7B11E"/>
<path d="M238.373 51.8221L234.69 55.833L235.422 56.5052L237.045 54.7377L238.741 56.2951L237.118 58.0626L237.85 58.7347L241.533 54.7237L240.801 54.0516L239.326 55.6584L237.63 54.101L239.105 52.4942L238.373 51.8221Z" fill="#F26D24"/>
<path d="M239.33 60.2088L242.09 57.4048L241.376 56.702L238.616 59.506L239.33 60.2088ZM242.884 55.8846C242.648 55.6523 242.322 55.6605 242.107 55.8793C241.897 56.0923 241.888 56.4123 242.124 56.6447C242.372 56.8884 242.691 56.8745 242.901 56.6615C243.111 56.437 243.125 56.1227 242.884 55.8846Z" fill="#F26D24"/>
<path d="M244.789 60.1766L244.382 60.5103L244.371 60.4986C244.476 60.1409 244.44 59.683 244.027 59.2508C243.374 58.5675 242.227 58.5017 241.292 59.395C240.487 60.1654 240.383 61.2259 241.058 61.9326C241.415 62.3064 241.864 62.4365 242.271 62.3599L242.283 62.3716L242.037 62.6061C241.424 63.1923 240.844 63.0764 240.397 62.6091C240.068 62.2646 239.888 61.8548 239.821 61.5733L239.127 61.9348C239.209 62.3252 239.502 62.7833 239.848 63.1454C240.222 63.5366 240.695 63.8673 241.242 63.9139C241.795 63.9549 242.339 63.67 242.935 63.1006L244.547 61.5597C244.938 61.1857 245.183 60.974 245.387 60.8015L244.789 60.1766ZM243.077 61.5895C242.996 61.6676 242.885 61.7509 242.792 61.8059C242.457 61.9698 242.059 61.9037 241.802 61.635C241.372 61.1854 241.529 60.566 242.014 60.1026C242.592 59.5499 243.227 59.5128 243.612 59.9158C243.902 60.2195 243.899 60.6137 243.709 60.9408C243.667 61.0142 243.603 61.087 243.539 61.1484L243.077 61.5895Z" fill="#F26D24"/>
<path d="M243.183 64.2212L243.845 64.9737L245.611 63.4217C245.696 63.347 245.78 63.2837 245.862 63.2547C246.156 63.1362 246.531 63.1719 246.787 63.4632C247.15 63.8759 246.967 64.3163 246.536 64.695L244.879 66.151L245.535 66.8975L247.277 65.3668C248.224 64.5348 248.094 63.7135 247.651 63.2098C247.486 63.0216 247.282 62.8883 247.069 62.8173C246.846 62.7342 246.624 62.7142 246.404 62.7458L246.394 62.7337L248.153 61.187L247.492 60.4345L243.183 64.2212Z" fill="#F26D24"/>
<path d="M262.906 95.1533L269.368 94.6935L268.9 93.5992L265.977 93.8801C265.196 93.9473 264.425 94.0396 263.693 94.1748L263.686 94.1581C264.306 93.715 264.888 93.2492 265.505 92.7286L267.733 90.8677L267.254 89.7483L262.402 93.9755L262.906 95.1533Z" fill="#D72626"/>
<path d="M266.632 100.082C266.721 100.065 266.863 100.029 267.037 99.9638C267.846 99.659 268.681 98.8956 268.231 97.701C267.787 96.5216 266.593 96.2633 265.572 96.6478C264.446 97.0721 263.977 98.0515 264.427 99.2461C264.626 99.7753 264.89 100.177 265.138 100.446L265.729 100.068C265.518 99.8279 265.341 99.5407 265.179 99.1098C264.956 98.52 265.047 97.8901 265.704 97.6168L266.632 100.082ZM266.354 97.3719C266.746 97.2673 267.359 97.3127 267.576 97.8873C267.809 98.5073 267.307 98.8693 266.964 98.9899L266.354 97.3719Z" fill="#D72626"/>
<path d="M265.302 101.414L265.623 102.354L267.55 101.698C267.657 101.661 267.761 101.643 267.851 101.629C268.3 101.57 268.695 101.777 268.849 102.228C268.888 102.343 268.901 102.432 268.912 102.514L269.799 102.212C269.788 102.13 269.778 102.074 269.746 101.982C269.611 101.585 269.195 101.24 268.605 101.236L268.594 101.206L269.295 100.933L269.016 100.114C268.688 100.252 268.331 100.382 267.826 100.554L265.302 101.414Z" fill="#D72626"/>
<path d="M269.894 102.66L266.858 105.087C266.78 105.162 266.728 105.186 266.689 105.198C266.643 105.212 266.582 105.205 266.5 105.188C266.205 105.134 265.918 104.994 265.748 104.851C265.55 104.7 265.403 104.525 265.315 104.375L264.577 104.836C264.681 105.066 264.923 105.415 265.368 105.685C265.891 106.015 266.623 106.173 268.187 106.262L271.04 106.424L270.73 105.404L268.541 105.428C268.273 105.434 267.973 105.449 267.738 105.453L267.731 105.43C267.931 105.31 268.193 105.145 268.402 104.998L270.212 103.703L269.894 102.66Z" fill="#D72626"/>
<path d="M273.146 108.403L267.854 109.684L268.087 110.65L270.42 110.085L270.961 112.323L268.629 112.888L268.863 113.854L274.156 112.572L273.922 111.606L271.802 112.12L271.26 109.882L273.38 109.368L273.146 108.403Z" fill="#D72626"/>
<path d="M269.267 115.898L273.12 115.104L272.918 114.122L269.065 114.916L269.267 115.898ZM274.626 114.282C274.559 113.958 274.284 113.783 273.983 113.845C273.69 113.906 273.505 114.167 273.572 114.491C273.642 114.831 273.915 114.998 274.208 114.937C274.507 114.868 274.694 114.614 274.626 114.282Z" fill="#D72626"/>
<path d="M273.831 118.915L273.307 118.966L273.304 118.95C273.59 118.711 273.816 118.311 273.713 117.722C273.55 116.791 272.633 116.098 271.36 116.321C270.262 116.513 269.585 117.336 269.754 118.299C269.843 118.808 270.143 119.166 270.524 119.329L270.527 119.345L270.193 119.403C269.357 119.549 268.939 119.13 268.828 118.494C268.746 118.024 268.825 117.584 268.925 117.312L268.147 117.226C267.999 117.597 267.987 118.14 268.073 118.634C268.166 119.167 268.375 119.704 268.804 120.048C269.241 120.39 269.852 120.455 270.663 120.314L272.86 119.93C273.393 119.837 273.714 119.797 273.98 119.767L273.831 118.915ZM271.622 119.137C271.511 119.157 271.373 119.164 271.265 119.159C270.896 119.108 270.601 118.832 270.537 118.466C270.43 117.853 270.905 117.425 271.566 117.31C272.354 117.172 272.902 117.495 272.998 118.044C273.07 118.458 272.848 118.784 272.508 118.95C272.433 118.987 272.339 119.012 272.251 119.027L271.622 119.137Z" fill="#D72626"/>
<path d="M270.25 121.432L270.381 122.425L272.712 122.118C272.824 122.103 272.929 122.097 273.014 122.119C273.324 122.184 273.616 122.422 273.667 122.806C273.739 123.351 273.342 123.615 272.773 123.691L270.586 123.979L270.716 124.964L273.015 124.661C274.265 124.496 274.613 123.741 274.526 123.076C274.493 122.828 274.398 122.604 274.261 122.427C274.121 122.233 273.948 122.093 273.747 121.997L273.745 121.981L276.068 121.675L275.937 120.681L270.25 121.432Z" fill="#D72626"/>
<path d="M151.96 112.67C147.85 120.42 150.81 130.02 158.55 134.13C166.3 138.23 175.9 135.28 180.01 127.54C184.12 119.8 181.16 110.19 173.42 106.08C165.67 101.97 156.06 104.92 151.96 112.67Z" fill="black"/>
<path d="M229.18 117.4L228.9 113.91L165.04 116.21L165.26 125.75L229.18 117.4Z" fill="black"/>
<path d="M228.37 115.99L228.24 114.55L166.96 116.85L172.21 120.29L228.37 115.99Z" fill="url(#paint8_linear_14_6207)"/>
<path d="M156.29 112.33C152.96 118.61 155.35 126.4 161.64 129.73C167.92 133.06 175.71 130.67 179.04 124.38C182.37 118.1 179.98 110.3 173.69 106.97C167.41 103.64 159.61 106.03 156.28 112.32L156.29 112.33Z" fill="url(#paint9_linear_14_6207)"/>
<path style="mix-blend-mode:screen" opacity="0.6" d="M172.98 108.34C176.28 110.09 178.36 113.25 178.87 116.69L228.07 115.04L178.98 117.93C179.06 119.86 178.65 121.84 177.68 123.68C174.75 129.21 167.88 131.32 162.35 128.39C156.82 125.46 154.71 118.59 157.64 113.06C160.57 107.53 167.44 105.42 172.97 108.35L172.98 108.34Z" fill="url(#paint10_radial_14_6207)"/>
<path d="M180.91 121.22C180.91 121.22 178.74 132.8 167.24 131.8C155.74 130.8 152.17 120.99 153.97 116C155.77 111.01 158.04 106.98 163.05 105.53C163.05 105.53 154.65 106.17 151.17 116.21C147.69 126.25 159.06 137.09 167.55 134.94C176.05 132.79 180.23 128.64 180.91 121.22Z" fill="url(#paint11_linear_14_6207)"/>
</g>
<path opacity="0.2" d="M0 137H328" stroke="black"/>
<defs>
<radialGradient id="paint0_radial_14_6207" cx="0" cy="0" r="1" gradientUnits="userSpaceOnUse" gradientTransform="translate(166.66 76.81) scale(242.12 242.12)">
<stop offset="0.3" stop-color="white"/>
<stop offset="1" stop-color="#B3B5B2"/>
</radialGradient>
<linearGradient id="paint1_linear_14_6207" x1="270.91" y1="230.37" x2="86.91" y2="23.03" gradientUnits="userSpaceOnUse">
<stop offset="0.14" stop-color="#9D9D9D"/>
<stop offset="0.38" stop-color="white"/>
<stop offset="0.5" stop-color="#D6D6D6"/>
<stop offset="0.63" stop-color="#ACACAC"/>
<stop offset="0.7" stop-color="#9D9D9D"/>
<stop offset="0.79" stop-color="#D6D6D6"/>
<stop offset="0.93" stop-color="#ACACAC"/>
<stop offset="1" stop-color="#9D9D9D"/>
</linearGradient>
<radialGradient id="paint2_radial_14_6207" cx="0" cy="0" r="1" gradientUnits="userSpaceOnUse" gradientTransform="translate(168.19 307.81) scale(254.92 254.92)">
<stop stop-color="white"/>
<stop offset="0.25" stop-color="#E2E2E2"/>
<stop offset="0.73" stop-color="#B0B0B0"/>
<stop offset="0.97" stop-color="#9D9D9D"/>
<stop offset="1" stop-color="#9D9D9D"/>
</radialGradient>
<radialGradient id="paint3_radial_14_6207" cx="0" cy="0" r="1" gradientUnits="userSpaceOnUse" gradientTransform="translate(168.461 307.296) scale(253.271 253.271)">
<stop stop-color="white"/>
<stop offset="0.25" stop-color="#E2E2E2"/>
<stop offset="0.73" stop-color="#B0B0B0"/>
<stop offset="0.97" stop-color="#9D9D9D"/>
<stop offset="1" stop-color="#9D9D9D"/>
</radialGradient>
<radialGradient id="paint4_radial_14_6207" cx="0" cy="0" r="1" gradientUnits="userSpaceOnUse" gradientTransform="translate(164 118.44) scale(84.67 84.67)">
<stop stop-color="white"/>
<stop offset="0.25" stop-color="#E2E2E2"/>
<stop offset="0.73" stop-color="#B0B0B0"/>
<stop offset="0.97" stop-color="#9D9D9D"/>
<stop offset="1" stop-color="#9D9D9D"/>
</radialGradient>
<linearGradient id="paint5_linear_14_6207" x1="55.12" y1="259.81" x2="55.12" y2="127.35" gradientUnits="userSpaceOnUse">
<stop offset="0.14" stop-color="#9D9D9D"/>
<stop offset="0.94" stop-color="white"/>
</linearGradient>
<linearGradient id="paint6_linear_14_6207" x1="272.01" y1="259.81" x2="272.01" y2="127.35" gradientUnits="userSpaceOnUse">
<stop offset="0.14" stop-color="#9D9D9D"/>
<stop offset="0.94" stop-color="white"/>
</linearGradient>
<radialGradient id="paint7_radial_14_6207" cx="0" cy="0" r="1" gradientUnits="userSpaceOnUse" gradientTransform="translate(161.52 17.8) scale(168.03 168.03)">
<stop/>
<stop offset="0.08"/>
<stop offset="0.52" stop-color="#DACEBE"/>
<stop offset="0.7" stop-color="#F8F8F4"/>
</radialGradient>
<linearGradient id="paint8_linear_14_6207" x1="221.562" y1="128.66" x2="173.984" y2="103.437" gradientUnits="userSpaceOnUse">
<stop offset="0.16" stop-color="#003B2C"/>
<stop offset="1" stop-color="#002C34"/>
</linearGradient>
<linearGradient id="paint9_linear_14_6207" x1="185.455" y1="120.123" x2="154.888" y2="116.935" gradientUnits="userSpaceOnUse">
<stop offset="0.16" stop-color="#003B2C"/>
<stop offset="1" stop-color="#002C34"/>
</linearGradient>
<radialGradient id="paint10_radial_14_6207" cx="0" cy="0" r="1" gradientUnits="userSpaceOnUse" gradientTransform="translate(154.932 119.776) rotate(-152.07) scale(73.25)">
<stop offset="0.1" stop-color="#151514"/>
<stop offset="0.13" stop-color="#191917"/>
<stop offset="0.17" stop-color="#272721"/>
<stop offset="0.21" stop-color="#3F3F33"/>
<stop offset="0.26" stop-color="#605F4B"/>
<stop offset="0.3" stop-color="#8A896A"/>
<stop offset="0.35" stop-color="#BDBC8F"/>
<stop offset="0.39" stop-color="#F8F7BB"/>
<stop offset="1" stop-color="#DACEBE"/>
</radialGradient>
<linearGradient id="paint11_linear_14_6207" x1="178.417" y1="128.616" x2="151.735" y2="114.471" gradientUnits="userSpaceOnUse">
<stop/>
<stop offset="0.16" stop-color="#003B2C"/>
<stop offset="0.31" stop-color="#006378"/>
<stop offset="0.59"/>
<stop offset="0.78" stop-color="#002C34"/>
<stop offset="0.85" stop-color="#004656"/>
<stop offset="0.99"/>
</linearGradient>
<clipPath id="clip0_14_6207">
<rect width="268" height="137.71" fill="white" transform="translate(30)"/>
</clipPath>
</defs>
</svg>
