<svg width="18" height="18" viewBox="0 0 18 18" fill="none" xmlns="http://www.w3.org/2000/svg">
<path opacity="0.6" d="M12.8703 11.3284H12.0582L11.7704 11.0508C12.8977 9.73743 13.4722 8.0384 13.3735 6.31042C13.2748 4.58244 12.5104 2.95991 11.2408 1.7835C9.97131 0.607085 8.29536 -0.0317166 6.56488 0.00121266C4.83439 0.0341419 3.18396 0.73624 1.9601 1.9601C0.73624 3.18396 0.0341419 4.83439 0.00121266 6.56488C-0.0317166 8.29536 0.607085 9.97131 1.7835 11.2408C2.95991 12.5104 4.58244 13.2748 6.31042 13.3735C8.0384 13.4722 9.73743 12.8977 11.0508 11.7704L11.3284 12.0582V12.8703L16.4683 18L18 16.4683L12.8703 11.3284ZM6.70242 11.3284C5.78749 11.3284 4.89311 11.0571 4.13238 10.5487C3.37165 10.0404 2.77873 9.31797 2.4286 8.47269C2.07848 7.62741 1.98687 6.69729 2.16536 5.79994C2.34385 4.9026 2.78443 4.07833 3.43138 3.43138C4.07833 2.78443 4.9026 2.34385 5.79994 2.16536C6.69729 1.98687 7.62741 2.07848 8.47269 2.4286C9.31797 2.77873 10.0404 3.37165 10.5487 4.13238C11.0571 4.89311 11.3284 5.78749 11.3284 6.70242C11.3292 7.31013 11.2101 7.91204 10.9779 8.47365C10.7457 9.03526 10.405 9.54554 9.97526 9.97526C9.54554 10.405 9.03526 10.7457 8.47365 10.9779C7.91204 11.2101 7.31013 11.3292 6.70242 11.3284Z" fill="#414141"/>
</svg>
