<svg width="24" height="24" viewBox="0 0 24 24" fill="none" xmlns="http://www.w3.org/2000/svg">
<path d="M20 4H16V21H20V4Z" fill="#FCAF17"/>
<path d="M19.6721 20.884H16.3301C16.2931 20.8841 16.2565 20.8769 16.2223 20.8629C16.188 20.8488 16.157 20.8281 16.1308 20.802C16.1046 20.7759 16.0838 20.7449 16.0696 20.7107C16.0554 20.6766 16.0481 20.64 16.0481 20.603V3.40297C16.0481 3.32818 16.0778 3.25645 16.1307 3.20357C16.1836 3.15068 16.2553 3.12097 16.3301 3.12097H19.6721C19.7091 3.12097 19.7457 3.12827 19.7799 3.14246C19.814 3.15664 19.845 3.17743 19.8711 3.20363C19.8973 3.22983 19.9179 3.26093 19.932 3.29514C19.9461 3.32934 19.9532 3.36598 19.9531 3.40297V20.603C19.9531 20.6775 19.9235 20.749 19.8708 20.8017C19.8181 20.8544 19.7466 20.884 19.6721 20.884ZM16.5991 20.322H19.3901V3.67998H16.6141L16.5991 20.322Z" fill="#5D5D5D" stroke="#5D5D5D" stroke-width="0.7"/>
<path d="M13.6721 20.884H10.3301C10.2931 20.8841 10.2565 20.8769 10.2223 20.8629C10.188 20.8488 10.157 20.8281 10.1308 20.802C10.1046 20.7759 10.0838 20.7449 10.0696 20.7108C10.0554 20.6766 10.0481 20.64 10.0481 20.603V8.40298C10.0481 8.32819 10.0778 8.25647 10.1307 8.20358C10.1836 8.1507 10.2553 8.12097 10.3301 8.12097H13.6721C13.7091 8.12097 13.7457 8.12827 13.7799 8.14246C13.814 8.15664 13.845 8.17744 13.8711 8.20364C13.8973 8.22984 13.9179 8.26093 13.932 8.29514C13.9461 8.32934 13.9532 8.366 13.9531 8.40298V20.603C13.9531 20.6775 13.9235 20.749 13.8708 20.8017C13.8181 20.8544 13.7466 20.884 13.6721 20.884ZM10.5991 20.322H13.3901V8.67999H10.6141L10.5991 20.322Z" fill="#5D5D5D" stroke="#5D5D5D" stroke-width="0.7"/>
<path d="M7.6721 20.884H4.3301C4.29311 20.8841 4.25646 20.8769 4.22226 20.8629C4.18805 20.8488 4.15695 20.8281 4.13075 20.802C4.10455 20.7759 4.08377 20.7449 4.06958 20.7108C4.0554 20.6766 4.0481 20.64 4.0481 20.603V13.403C4.0481 13.3282 4.07781 13.2565 4.1307 13.2036C4.18358 13.1507 4.25531 13.121 4.3301 13.121H7.6721C7.70908 13.121 7.7457 13.1283 7.77986 13.1425C7.81402 13.1566 7.84504 13.1774 7.87115 13.2036C7.89725 13.2298 7.91793 13.2609 7.932 13.2951C7.94606 13.3293 7.95323 13.366 7.9531 13.403V20.603C7.9531 20.6775 7.92349 20.749 7.8708 20.8017C7.8181 20.8544 7.74662 20.884 7.6721 20.884ZM4.5991 20.322H7.3901V13.68H4.6141L4.5991 20.322Z" fill="#5D5D5D" stroke="#5D5D5D" stroke-width="0.7"/>
</svg>
