<svg width="54" height="32" viewBox="0 0 54 32" fill="none" xmlns="http://www.w3.org/2000/svg">
<rect x="6" y="3" width="48" height="24" rx="12" fill="#FCAF17"/>
<path d="M43.392 12.019H40.851C41.145 12.187 41.3713 12.39 41.53 12.628C41.6887 12.8613 41.7937 13.125 41.845 13.419H43.392V14.49H41.831C41.733 14.9753 41.502 15.4 41.138 15.764C40.7787 16.128 40.3027 16.3963 39.71 16.569C39.934 16.6857 40.123 16.8583 40.277 17.087L43.105 21H41.775C41.5137 21 41.3177 20.895 41.187 20.685L38.709 17.199C38.6297 17.0823 38.5433 17.0007 38.45 16.954C38.3567 16.9027 38.2143 16.877 38.023 16.877H36.812V15.848H38.149C38.7743 15.848 39.2737 15.7243 39.647 15.477C40.025 15.225 40.2747 14.896 40.396 14.49H36.798V13.419H40.431C40.333 12.985 40.0973 12.6513 39.724 12.418C39.3553 12.18 38.8467 12.061 38.198 12.061H36.812V10.948H43.392V12.019Z" fill="white"/>
<g filter="url(#filter0_d_1820_9078)">
<rect x="6" y="3" width="24" height="24" rx="12" fill="white"/>
</g>
<path d="M17.319 16.936C17.9023 16.8753 18.348 16.6863 18.656 16.369C18.964 16.047 19.118 15.6363 19.118 15.137C19.118 14.9177 19.076 14.7287 18.992 14.57C18.9127 14.4113 18.803 14.2737 18.663 14.157C18.523 14.0357 18.3573 13.933 18.166 13.849C17.9793 13.765 17.7787 13.688 17.564 13.618L17.319 16.936ZM17.039 9.033C16.745 9.061 16.4907 9.11933 16.276 9.208C16.066 9.29667 15.891 9.40633 15.751 9.537C15.6157 9.66767 15.5153 9.817 15.45 9.985C15.3847 10.153 15.352 10.328 15.352 10.51C15.352 10.72 15.3893 10.9043 15.464 11.063C15.5387 11.2217 15.6413 11.3617 15.772 11.483C15.9073 11.5997 16.0637 11.7023 16.241 11.791C16.423 11.8797 16.6167 11.9613 16.822 12.036L17.039 9.033ZM17.655 12.309C17.991 12.4117 18.3223 12.526 18.649 12.652C18.9803 12.7733 19.2767 12.9297 19.538 13.121C19.7993 13.3123 20.0093 13.5527 20.168 13.842C20.3313 14.1267 20.413 14.486 20.413 14.92C20.413 15.34 20.3407 15.7367 20.196 16.11C20.056 16.4833 19.8507 16.8123 19.58 17.097C19.3093 17.3817 18.9757 17.6127 18.579 17.79C18.187 17.9673 17.739 18.0723 17.235 18.105L17.151 19.274C17.1463 19.3673 17.109 19.4513 17.039 19.526C16.969 19.6007 16.8803 19.638 16.773 19.638H16.269L16.381 18.084C15.8257 18.0233 15.3123 17.881 14.841 17.657C14.3697 17.4283 13.966 17.1413 13.63 16.796L14.043 16.166C14.085 16.11 14.1363 16.0633 14.197 16.026C14.2577 15.9887 14.3253 15.97 14.4 15.97C14.4933 15.97 14.596 16.012 14.708 16.096C14.8247 16.18 14.9623 16.278 15.121 16.39C15.2797 16.4973 15.4663 16.6047 15.681 16.712C15.9003 16.8147 16.1617 16.887 16.465 16.929L16.724 13.366C16.3973 13.268 16.0753 13.1583 15.758 13.037C15.4407 12.911 15.156 12.7477 14.904 12.547C14.652 12.3417 14.449 12.0873 14.295 11.784C14.141 11.4807 14.064 11.1003 14.064 10.643C14.064 10.2977 14.1317 9.96167 14.267 9.635C14.4023 9.30833 14.5983 9.01667 14.855 8.76C15.1163 8.50333 15.436 8.29333 15.814 8.13C16.1967 7.96667 16.633 7.87567 17.123 7.857L17.193 6.877C17.1977 6.78367 17.235 6.69967 17.305 6.625C17.375 6.55033 17.4637 6.513 17.571 6.513H18.075L17.977 7.892C18.467 7.95733 18.8893 8.088 19.244 8.284C19.6033 8.47533 19.9183 8.70633 20.189 8.977L19.86 9.481C19.762 9.635 19.6477 9.712 19.517 9.712C19.4517 9.712 19.37 9.684 19.272 9.628C19.1787 9.572 19.0643 9.509 18.929 9.439C18.7983 9.36433 18.6467 9.28967 18.474 9.215C18.3013 9.14033 18.1077 9.08433 17.893 9.047L17.655 12.309Z" fill="#FCAF17"/>
<defs>
<filter id="filter0_d_1820_9078" x="0" y="0" width="32" height="32" filterUnits="userSpaceOnUse" color-interpolation-filters="sRGB">
<feFlood flood-opacity="0" result="BackgroundImageFix"/>
<feColorMatrix in="SourceAlpha" type="matrix" values="0 0 0 0 0 0 0 0 0 0 0 0 0 0 0 0 0 0 127 0" result="hardAlpha"/>
<feOffset dx="-2" dy="1"/>
<feGaussianBlur stdDeviation="2"/>
<feComposite in2="hardAlpha" operator="out"/>
<feColorMatrix type="matrix" values="0 0 0 0 0 0 0 0 0 0 0 0 0 0 0 0 0 0 0.16 0"/>
<feBlend mode="normal" in2="BackgroundImageFix" result="effect1_dropShadow_1820_9078"/>
<feBlend mode="normal" in="SourceGraphic" in2="effect1_dropShadow_1820_9078" result="shape"/>
</filter>
</defs>
</svg>
