<svg width="20" height="20" viewBox="0 0 20 20" fill="none" xmlns="http://www.w3.org/2000/svg">
<path d="M10.0003 9.1665C9.77932 9.1665 9.56735 9.2543 9.41107 9.41058C9.25479 9.56686 9.167 9.77882 9.167 9.99984V13.3332C9.167 13.5542 9.25479 13.7661 9.41107 13.9224C9.56735 14.0787 9.77932 14.1665 10.0003 14.1665C10.2213 14.1665 10.4333 14.0787 10.5896 13.9224C10.7459 13.7661 10.8337 13.5542 10.8337 13.3332V9.99984C10.8337 9.77882 10.7459 9.56686 10.5896 9.41058C10.4333 9.2543 10.2213 9.1665 10.0003 9.1665ZM10.317 5.89984C10.1141 5.81649 9.88655 5.81649 9.68366 5.89984C9.58137 5.9395 9.48792 5.99897 9.40866 6.07484C9.33505 6.15584 9.27586 6.24885 9.23366 6.34984C9.18701 6.44874 9.16418 6.55719 9.167 6.6665C9.16636 6.77618 9.18738 6.88489 9.22885 6.98643C9.27032 7.08796 9.33143 7.1803 9.40866 7.25817C9.48966 7.33178 9.58267 7.39097 9.68366 7.43317C9.80991 7.48504 9.94697 7.5051 10.0828 7.4916C10.2186 7.47809 10.349 7.43144 10.4626 7.35573C10.5762 7.28002 10.6694 7.17757 10.7341 7.0574C10.7988 6.93722 10.833 6.80299 10.8337 6.6665C10.8306 6.44587 10.7443 6.23453 10.592 6.07484C10.5127 5.99897 10.4193 5.9395 10.317 5.89984ZM10.0003 1.6665C8.35215 1.6665 6.74099 2.15525 5.37058 3.07092C4.00017 3.9866 2.93206 5.28809 2.30133 6.81081C1.6706 8.33353 1.50558 10.0091 1.82712 11.6256C2.14866 13.2421 2.94234 14.727 4.10777 15.8924C5.27321 17.0578 6.75807 17.8515 8.37458 18.173C9.99109 18.4946 11.6666 18.3296 13.1894 17.6988C14.7121 17.0681 16.0136 16 16.9292 14.6296C17.8449 13.2592 18.3337 11.648 18.3337 9.99984C18.3337 8.90549 18.1181 7.82186 17.6993 6.81081C17.2805 5.79976 16.6667 4.8811 15.8929 4.10728C15.1191 3.33346 14.2004 2.71963 13.1894 2.30084C12.1783 1.88205 11.0947 1.6665 10.0003 1.6665ZM10.0003 16.6665C8.68179 16.6665 7.39286 16.2755 6.29653 15.543C5.2002 14.8104 4.34572 13.7692 3.84113 12.5511C3.33655 11.3329 3.20453 9.99244 3.46176 8.69924C3.719 7.40603 4.35393 6.21814 5.28628 5.28579C6.21863 4.35344 7.40652 3.7185 8.69973 3.46127C9.99293 3.20403 11.3334 3.33606 12.5516 3.84064C13.7697 4.34522 14.8109 5.19971 15.5435 6.29604C16.276 7.39236 16.667 8.6813 16.667 9.99984C16.667 11.7679 15.9646 13.4636 14.7144 14.7139C13.4641 15.9641 11.7684 16.6665 10.0003 16.6665Z" fill="#FCAF17"/>
</svg>
