<svg width="24" height="24" viewBox="0 0 24 24" fill="none" xmlns="http://www.w3.org/2000/svg">
<path d="M11.0359 7.419L12.3359 7.175L12.8919 5.659L13.6919 7.168L14.9909 7.419L16.2999 7.175L15.6629 8.619L16.4629 10.048L18.0469 10.519L16.1799 11.026L15.5799 13.076L15.2419 10.047L13.9089 8.819L11.6479 9.059L10.7569 10.324L10.0289 12.405L9.74489 11.213L8.26489 10.519L9.46489 9.628L10.0839 8.758L9.46589 7.043L11.0359 7.419Z" fill="#FCAF17"/>
<path d="M20.633 18.76L21.104 17.535C21.1221 17.4893 21.1286 17.4398 21.123 17.391C21.1175 17.3422 21.1 17.2955 21.0721 17.255C21.0443 17.2145 21.0069 17.1814 20.9633 17.1588C20.9197 17.1361 20.8712 17.1245 20.822 17.125H17.95C17.7958 16.6905 17.5332 16.3026 17.187 15.998C17.196 15.9725 17.2014 15.9459 17.203 15.919V13.203C17.2022 12.904 17.1274 12.6099 16.9851 12.3469C16.8429 12.084 16.6378 11.8603 16.388 11.696C16.419 11.61 16.447 11.523 16.471 11.434L19.086 10.78C19.1523 10.7649 19.2115 10.7277 19.2539 10.6746C19.2963 10.6214 19.3194 10.5555 19.3194 10.4875C19.3194 10.4195 19.2963 10.3535 19.2539 10.3004C19.2115 10.2473 19.1523 10.2101 19.086 10.195L16.47 9.53898C16.3894 9.24134 16.2707 8.95533 16.117 8.68798L17.505 6.37498C17.5415 6.31741 17.5573 6.24912 17.5498 6.18137C17.5424 6.11361 17.512 6.05043 17.4638 6.00223C17.4156 5.95403 17.3524 5.92368 17.2847 5.91618C17.2169 5.90869 17.1486 5.92449 17.091 5.96098L14.778 7.35098C14.5094 7.19733 14.222 7.07901 13.923 6.99898L13.269 4.38298C13.2539 4.3167 13.2168 4.25752 13.1636 4.21513C13.1105 4.17273 13.0445 4.14965 12.9765 4.14965C12.9086 4.14965 12.8426 4.17273 12.7895 4.21513C12.7363 4.25752 12.6992 4.3167 12.684 4.38298L12.033 6.99898C11.7354 7.07965 11.4494 7.1983 11.182 7.35198L8.86905 5.96398C8.81147 5.92749 8.74319 5.91169 8.67543 5.91918C8.60768 5.92668 8.5445 5.95703 8.49629 6.00523C8.44809 6.05343 8.41774 6.11661 8.41025 6.18437C8.40275 6.25212 8.41855 6.32041 8.45505 6.37798L9.84305 8.68998C9.68935 8.95733 9.57071 9.24334 9.49005 9.54098L6.87405 10.195C6.80777 10.2101 6.74858 10.2473 6.70619 10.3004C6.6638 10.3535 6.64071 10.4195 6.64071 10.4875C6.64071 10.5555 6.6638 10.6214 6.70619 10.6746C6.74858 10.7277 6.80777 10.7649 6.87405 10.78L9.48905 11.439C9.51305 11.528 9.54205 11.614 9.57205 11.701C9.32231 11.8653 9.11717 12.089 8.97495 12.3519C8.83274 12.6149 8.75787 12.909 8.75705 13.208V13.932L7.50205 13.019L6.08105 8.98898L6.30805 7.17098H6.64505C6.72461 7.17098 6.80092 7.13938 6.85718 7.08312C6.91344 7.02685 6.94505 6.95055 6.94505 6.87098V5.66198C6.94505 5.58242 6.91344 5.50611 6.85718 5.44985C6.80092 5.39359 6.72461 5.36198 6.64505 5.36198H5.98605C6.01984 5.31362 6.05057 5.26319 6.07805 5.21098C6.1957 4.98329 6.24859 4.72767 6.23096 4.47199C6.21332 4.21631 6.12584 3.97037 5.97805 3.76098L5.08305 2.47298C5.05378 2.43538 5.01632 2.40496 4.97352 2.38404C4.93071 2.36311 4.88369 2.35223 4.83605 2.35223C4.7884 2.35223 4.74138 2.36311 4.69858 2.38404C4.65578 2.40496 4.61831 2.43538 4.58905 2.47298L3.68905 3.75998C3.52408 3.99413 3.43553 4.27356 3.43553 4.55998C3.43553 4.84641 3.52408 5.12583 3.68905 5.35998H3.02305C2.94348 5.35998 2.86718 5.39159 2.81092 5.44785C2.75465 5.50411 2.72305 5.58042 2.72305 5.65998V6.86898C2.72404 6.94326 2.75254 7.01452 2.80305 7.06898C2.65451 7.2723 2.5737 7.51719 2.57205 7.76898V8.36898C2.57005 8.66975 2.68107 8.96029 2.88312 9.18308C3.08518 9.40588 3.36352 9.54467 3.66305 9.57198L3.93305 11.733C3.94189 11.8062 3.97736 11.8735 4.03269 11.9222C4.08802 11.9709 4.15934 11.9975 4.23305 11.997L4.23905 12.04C4.24134 12.0555 4.24468 12.0709 4.24905 12.086L5.23805 15.302L4.90205 15.734C4.86093 15.7867 4.83861 15.8516 4.83861 15.9185C4.83861 15.9853 4.86093 16.0503 4.90205 16.103L7.85205 19.939V21.345C7.85205 21.4245 7.88366 21.5009 7.93992 21.5571C7.99618 21.6134 8.07248 21.645 8.15205 21.645H19.314C19.3751 21.6453 19.4348 21.627 19.4852 21.5926C19.5356 21.5581 19.5743 21.509 19.596 21.452L19.664 21.275C19.7932 21.3178 19.928 21.3408 20.064 21.343C20.3737 21.3437 20.6743 21.2383 20.9158 21.0443C21.1572 20.8504 21.3249 20.5796 21.391 20.277C21.457 19.9744 21.4174 19.6584 21.2788 19.3814C21.1402 19.1045 20.9109 18.8834 20.629 18.755L20.633 18.76ZM17.441 17.539C17.254 17.422 16.133 20.974 16.133 20.974C16.133 20.974 9.60605 21.083 8.94805 21.048L12.892 17.339L14.312 15.919H15.393C15.8666 15.9205 16.3259 16.081 16.6972 16.3748C17.0686 16.6685 17.3306 17.0785 17.441 17.539ZM9.96305 10.489C9.96209 10.0354 10.0634 9.58743 10.2596 9.17844C10.4557 8.76945 10.7416 8.40997 11.0959 8.12675C11.4502 7.84353 11.8638 7.64388 12.306 7.54266C12.7481 7.44143 13.2074 7.44124 13.6496 7.54209C14.0919 7.64295 14.5057 7.84225 14.8602 8.12517C15.2148 8.40809 15.5009 8.76733 15.6974 9.17616C15.8939 9.58499 15.9956 10.0329 15.995 10.4865C15.9945 10.94 15.8916 11.3877 15.694 11.796V11.096C15.694 10.3759 15.408 9.68535 14.8988 9.17619C14.3897 8.66703 13.6991 8.38098 12.979 8.38098C12.259 8.38098 11.5684 8.66703 11.0593 9.17619C10.5501 9.68535 10.264 10.3759 10.264 11.096V11.796C10.0665 11.3886 9.96391 10.9417 9.96405 10.489H9.96305ZM10.863 12.601V11.372C11.3072 11.3225 11.7322 11.1643 12.1006 10.9114C12.469 10.6585 12.7693 10.3187 12.975 9.92198C13.1808 10.3187 13.4811 10.6585 13.8495 10.9114C14.2179 11.1643 14.6429 11.3225 15.087 11.372V12.6C15.0932 12.8811 15.0431 13.1607 14.9397 13.4222C14.8363 13.6838 14.6818 13.922 14.4851 14.123C14.2884 14.324 14.0536 14.4837 13.7944 14.5927C13.5352 14.7018 13.2568 14.7579 12.9755 14.7579C12.6943 14.7579 12.4159 14.7018 12.1567 14.5927C11.8975 14.4837 11.6627 14.324 11.466 14.123C11.2693 13.922 11.1147 13.6838 11.0114 13.4222C10.908 13.1607 10.8579 12.8811 10.864 12.6L10.863 12.601ZM10.891 10.763C10.9615 10.3223 11.1696 9.91529 11.4856 9.6002C11.8016 9.28511 12.2092 9.07815 12.65 9.00898C12.5798 9.4486 12.3725 9.85479 12.0577 10.1696C11.7429 10.4844 11.3367 10.6917 10.897 10.762L10.891 10.763ZM13.31 9.00898C13.7497 9.07925 14.1559 9.28658 14.4707 9.60138C14.7855 9.91618 14.9928 10.3224 15.063 10.762C14.6234 10.6917 14.2172 10.4844 13.9024 10.1696C13.5876 9.85479 13.3803 9.4486 13.31 9.00898ZM14.488 14.856C14.7146 14.7027 14.9168 14.5163 15.088 14.303V14.41C15.0892 14.7263 15.1737 15.0367 15.333 15.31H14.485L14.488 14.856ZM10.868 14.303C11.0393 14.5163 11.2415 14.7027 11.468 14.856V15.315H10.665L10.633 15.292C10.7874 15.0237 10.8685 14.7195 10.868 14.41V14.303ZM12.075 15.157C12.6599 15.3682 13.3002 15.3682 13.885 15.157V15.492L12.738 16.639L12.075 15.534V15.157ZM16.6 13.204V15.579C16.3422 15.5108 16.1142 15.3593 15.9514 15.1481C15.7886 14.9368 15.7002 14.6777 15.7 14.411V12.873C15.867 12.6834 16.0138 12.477 16.138 12.257C16.2819 12.3692 16.3983 12.5127 16.4783 12.6766C16.5584 12.8405 16.6 13.0206 16.6 13.203V13.204ZM17.769 10.489L16.585 10.789C16.593 10.689 16.599 10.589 16.599 10.489C16.599 10.389 16.592 10.289 16.584 10.189L17.769 10.489ZM16.369 7.10198L15.74 8.14998C15.612 7.99918 15.4718 7.85905 15.321 7.73098L16.369 7.10198ZM12.982 5.70198L13.282 6.88698C13.182 6.87898 13.082 6.87198 12.982 6.87198C12.882 6.87198 12.782 6.87898 12.682 6.88698L12.982 5.70198ZM9.59305 7.10198L10.641 7.73098C10.4903 7.85906 10.3501 7.99919 10.222 8.14998L9.59305 7.10198ZM8.19105 10.489L9.37605 10.189C9.36805 10.289 9.36105 10.389 9.36105 10.489C9.36105 10.589 9.36705 10.689 9.37505 10.789L8.19105 10.489ZM9.36005 13.204C9.36005 13.0213 9.40176 12.841 9.482 12.6769C9.56223 12.5128 9.67888 12.3692 9.82305 12.257C9.94727 12.477 10.0941 12.6834 10.261 12.873V14.41C10.2596 14.5913 10.2157 14.7697 10.133 14.931L9.35605 14.366L9.36005 13.204ZM6.90905 13.149L5.68705 14.72L4.84905 11.997H5.43805C5.51175 11.9975 5.58307 11.9709 5.6384 11.9222C5.69373 11.8735 5.72921 11.8062 5.73805 11.733L5.91405 10.333L6.90905 13.149ZM5.17205 11.393H4.49805L4.26005 9.48298C4.47578 9.38948 4.65951 9.235 4.78866 9.03852C4.91781 8.84204 4.98677 8.61211 4.98705 8.37698V7.77698C4.98764 7.56363 4.93101 7.35401 4.82305 7.16998H5.70505L5.17205 11.393ZM4.12305 4.93098C4.05421 4.80194 4.02279 4.65623 4.03233 4.51029C4.04187 4.36434 4.09199 4.22397 4.17705 4.10498L4.83505 3.17198L5.48805 4.10598C5.55248 4.19564 5.59766 4.29767 5.62074 4.40564C5.64382 4.51362 5.6443 4.6252 5.62215 4.73337C5.6 4.84153 5.5557 4.94394 5.49203 5.03415C5.42837 5.12436 5.34672 5.20042 5.25222 5.25753C5.15773 5.31464 5.05244 5.35157 4.94297 5.366C4.8335 5.38043 4.72224 5.37205 4.61617 5.34137C4.51011 5.3107 4.41154 5.2584 4.32667 5.18778C4.2418 5.11715 4.17247 5.02972 4.12305 4.93098ZM3.32305 5.96398H6.34405V6.56398H3.32305V5.96398ZM3.17605 8.37698V7.77698C3.17605 7.61693 3.23963 7.46342 3.35281 7.35024C3.46599 7.23707 3.61949 7.17348 3.77955 7.17348C3.93961 7.17348 4.09311 7.23707 4.20629 7.35024C4.31947 7.46342 4.38305 7.61693 4.38305 7.77698V8.37698C4.38305 8.53704 4.31947 8.69054 4.20629 8.80372C4.09311 8.9169 3.93961 8.98048 3.77955 8.98048C3.61949 8.98048 3.46599 8.9169 3.35281 8.80372C3.23963 8.69054 3.17605 8.53704 3.17605 8.37698ZM5.52305 15.919L7.31205 13.619L10.394 15.86C10.4454 15.8976 10.5074 15.9179 10.571 15.918H11.602L12.294 17.071L8.45505 20.654V19.839C8.45535 19.7725 8.43354 19.7077 8.39305 19.655L5.52305 15.919ZM19.112 21.046H16.742L18.018 17.728H20.388L20.039 18.636C19.7707 18.6415 19.5102 18.7268 19.2905 18.8809C19.0708 19.035 18.902 19.251 18.8054 19.5014C18.7089 19.7519 18.6891 20.0253 18.7485 20.287C18.8079 20.5487 18.9439 20.7868 19.139 20.971L19.112 21.046ZM20.073 20.746C19.9238 20.7468 19.7777 20.7033 19.6533 20.621C19.5288 20.5387 19.4315 20.4214 19.3738 20.2838C19.3161 20.1462 19.3004 19.9946 19.3289 19.8481C19.3574 19.7016 19.4287 19.5669 19.5338 19.461C19.6389 19.355 19.773 19.2827 19.9193 19.253C20.0655 19.2234 20.2172 19.2378 20.3553 19.2944C20.4933 19.3511 20.6115 19.4474 20.6947 19.5712C20.778 19.695 20.8226 19.8408 20.823 19.99C20.8232 20.0891 20.8038 20.1872 20.7659 20.2788C20.7281 20.3704 20.6726 20.4537 20.6026 20.5238C20.5325 20.5939 20.4494 20.6495 20.3578 20.6875C20.2663 20.7254 20.1681 20.745 20.069 20.745L20.073 20.746Z" fill="#5D5D5D" stroke="#5D5D5D" stroke-width="0.2"/>
</svg>
