<svg width="20" height="18" viewBox="0 0 20 18" fill="none" xmlns="http://www.w3.org/2000/svg">
<path d="M16.4166 4.41667H15.5V3.5C15.5 2.77065 15.2102 2.07118 14.6945 1.55546C14.1788 1.03973 13.4793 0.75 12.75 0.75H3.58331C2.85397 0.75 2.15449 1.03973 1.63877 1.55546C1.12304 2.07118 0.833313 2.77065 0.833313 3.5V14.5C0.833313 15.2293 1.12304 15.9288 1.63877 16.4445C2.15449 16.9603 2.85397 17.25 3.58331 17.25H16.4166C17.146 17.25 17.8455 16.9603 18.3612 16.4445C18.8769 15.9288 19.1666 15.2293 19.1666 14.5V7.16667C19.1666 6.43732 18.8769 5.73785 18.3612 5.22212C17.8455 4.7064 17.146 4.41667 16.4166 4.41667ZM3.58331 2.58333H12.75C12.9931 2.58333 13.2263 2.67991 13.3982 2.85182C13.5701 3.02373 13.6666 3.25688 13.6666 3.5V4.41667H3.58331C3.3402 4.41667 3.10704 4.32009 2.93513 4.14818C2.76322 3.97627 2.66665 3.74312 2.66665 3.5C2.66665 3.25688 2.76322 3.02373 2.93513 2.85182C3.10704 2.67991 3.3402 2.58333 3.58331 2.58333ZM17.3333 11.75H16.4166C16.1735 11.75 15.9404 11.6534 15.7685 11.4815C15.5966 11.3096 15.5 11.0764 15.5 10.8333C15.5 10.5902 15.5966 10.3571 15.7685 10.1852C15.9404 10.0132 16.1735 9.91667 16.4166 9.91667H17.3333V11.75ZM17.3333 8.08333H16.4166C15.6873 8.08333 14.9878 8.37306 14.4721 8.88879C13.9564 9.40451 13.6666 10.104 13.6666 10.8333C13.6666 11.5627 13.9564 12.2622 14.4721 12.7779C14.9878 13.2936 15.6873 13.5833 16.4166 13.5833H17.3333V14.5C17.3333 14.7431 17.2367 14.9763 17.0648 15.1482C16.8929 15.3201 16.6598 15.4167 16.4166 15.4167H3.58331C3.3402 15.4167 3.10704 15.3201 2.93513 15.1482C2.76322 14.9763 2.66665 14.7431 2.66665 14.5V6.09417C2.96114 6.19777 3.27113 6.25046 3.58331 6.25H16.4166C16.6598 6.25 16.8929 6.34658 17.0648 6.51849C17.2367 6.69039 17.3333 6.92355 17.3333 7.16667V8.08333Z" fill="black"/>
</svg>
