<svg width="56" height="56" viewBox="0 0 56 56" fill="none" xmlns="http://www.w3.org/2000/svg">
<path d="M56 28C56 43.464 43.464 56 28 56C12.536 56 0 43.464 0 28C0 12.536 12.536 0 28 0C43.464 0 56 12.536 56 28Z" fill="#E62F2F"/>
<path d="M29.9739 27.9995L35.9939 21.9935C36.2575 21.7299 36.4056 21.3723 36.4056 20.9995C36.4056 20.6267 36.2575 20.2691 35.9939 20.0055C35.7303 19.7419 35.3727 19.5938 34.9999 19.5938C34.6271 19.5938 34.2695 19.7419 34.0059 20.0055L27.9999 26.0255L21.9939 20.0055C21.7303 19.7419 21.3727 19.5937 20.9999 19.5938C20.6271 19.5938 20.2695 19.7419 20.0059 20.0055C19.7423 20.2691 19.5942 20.6267 19.5942 20.9995C19.5942 21.3723 19.7423 21.7299 20.0059 21.9935L26.0259 27.9995L20.0059 34.0055C19.8747 34.1356 19.7705 34.2905 19.6995 34.4611C19.6284 34.6317 19.5918 34.8147 19.5918 34.9995C19.5918 35.1843 19.6284 35.3673 19.6995 35.5379C19.7705 35.7085 19.8747 35.8633 20.0059 35.9935C20.1361 36.1247 20.2909 36.2289 20.4615 36.2999C20.6321 36.371 20.8151 36.4076 20.9999 36.4076C21.1847 36.4076 21.3677 36.371 21.5383 36.2999C21.7089 36.2289 21.8638 36.1247 21.9939 35.9935L27.9999 29.9735L34.0059 35.9935C34.1361 36.1247 34.2909 36.2289 34.4615 36.2999C34.6321 36.371 34.8151 36.4076 34.9999 36.4076C35.1847 36.4076 35.3677 36.371 35.5383 36.2999C35.7089 36.2289 35.8638 36.1247 35.9939 35.9935C36.1251 35.8633 36.2293 35.7085 36.3004 35.5379C36.3714 35.3673 36.408 35.1843 36.408 34.9995C36.408 34.8147 36.3714 34.6317 36.3004 34.4611C36.2293 34.2905 36.1251 34.1356 35.9939 34.0055L29.9739 27.9995Z" fill="white"/>
</svg>
