<svg width="20" height="20" viewBox="0 0 20 20" fill="none" xmlns="http://www.w3.org/2000/svg">
<g clip-path="url(#clip0_17770_66270)">
<path d="M18.752 14.443C20.6847 11.7314 20.3893 8.01637 17.7495 5.59641C16.5434 4.49074 15.0057 3.80242 13.3448 3.6102C13.3344 3.59746 13.3238 3.58484 13.3122 3.57277C11.8673 2.0718 9.79133 1.21094 7.61672 1.21094C3.47848 1.21094 0 4.29426 0 8.24219C0 9.62637 0.429961 10.9533 1.24672 12.0993L0.105742 15.6815C0.0340234 15.9067 0.10457 16.1528 0.284609 16.3058C0.464961 16.4591 0.719375 16.4886 0.92957 16.3816L4.39937 14.6173C5.11195 14.9241 5.86758 15.1255 6.65008 15.2171C8.15953 16.8044 10.2467 17.6172 12.382 17.6172C13.492 17.6172 14.598 17.391 15.5992 16.961L19.0692 18.7254C19.1532 18.7682 19.2442 18.7891 19.3346 18.7891C19.73 18.7891 20.0135 18.4037 19.893 18.0253L18.752 14.443ZM4.63586 13.4383C4.47176 13.3604 4.28086 13.363 4.11895 13.4453L1.64758 14.702L2.45461 12.1681C2.51336 11.9836 2.47723 11.7821 2.35801 11.6295C1.58199 10.6362 1.1718 9.46488 1.1718 8.24219C1.1718 5.01133 4.06297 2.38281 7.61672 2.38281C9.04781 2.38281 10.4255 2.81637 11.543 3.59711C7.77945 3.97555 4.76531 6.91516 4.76531 10.5859C4.76531 11.7277 5.05797 12.8268 5.60973 13.8116C5.27566 13.7121 4.95031 13.5877 4.63586 13.4383ZM15.8798 15.789C15.7202 15.7079 15.5292 15.703 15.3629 15.7821C14.4494 16.216 13.4187 16.4453 12.382 16.4453C8.82828 16.4453 5.93711 13.8168 5.93711 10.5859C5.93711 7.35508 8.82828 4.72656 12.382 4.72656C15.9358 4.72656 18.827 7.35508 18.827 10.5859C18.827 11.8086 18.4168 12.9799 17.6407 13.9732C17.5215 14.1258 17.4854 14.3273 17.5441 14.5118L18.3511 17.0457L15.8798 15.789Z" fill="#5D5D5D"/>
<path d="M9.99951 11.1719C10.3231 11.1719 10.5854 10.9095 10.5854 10.5859C10.5854 10.2623 10.3231 10 9.99951 10C9.67591 10 9.41357 10.2623 9.41357 10.5859C9.41357 10.9095 9.67591 11.1719 9.99951 11.1719Z" fill="#5D5D5D"/>
<path d="M12.3428 11.1719C12.6664 11.1719 12.9287 10.9095 12.9287 10.5859C12.9287 10.2623 12.6664 10 12.3428 10C12.0192 10 11.7568 10.2623 11.7568 10.5859C11.7568 10.9095 12.0192 11.1719 12.3428 11.1719Z" fill="#5D5D5D"/>
<path d="M14.6865 11.1719C15.0101 11.1719 15.2725 10.9095 15.2725 10.5859C15.2725 10.2623 15.0101 10 14.6865 10C14.3629 10 14.1006 10.2623 14.1006 10.5859C14.1006 10.9095 14.3629 11.1719 14.6865 11.1719Z" fill="#5D5D5D"/>
</g>
<defs>
<clipPath id="clip0_17770_66270">
<rect width="20" height="20" fill="white"/>
</clipPath>
</defs>
</svg>
