<svg width="16" height="16" viewBox="0 0 16 16" fill="none" xmlns="http://www.w3.org/2000/svg">
<path fill-rule="evenodd" clip-rule="evenodd" d="M1.63544 3.41608C1.63544 2.91271 2.04624 2.50191 2.54961 2.50191H3.37121V3.0805C3.37121 3.39873 3.63156 3.65909 3.9498 3.65909C4.26803 3.65909 4.52839 3.39873 4.52839 3.0805V2.50191H11.4716V3.0805C11.4716 3.39873 11.732 3.65909 12.0502 3.65909C12.3685 3.65909 12.6288 3.39873 12.6288 3.0805V2.50191H13.4504C13.9538 2.50191 14.3646 2.91271 14.3646 3.41608V13.7383C14.3646 14.2417 13.9538 14.6525 13.4504 14.6525H2.54961C2.04624 14.6525 1.63544 14.2417 1.63544 13.7383V3.41608ZM2.54961 15.8097H13.4505C14.5932 15.8097 15.5219 14.8811 15.5219 13.7383V3.41608C15.5219 2.27334 14.5932 1.34468 13.4505 1.34468H12.6289V0.76609C12.6289 0.44786 12.3684 0.1875 12.0502 0.1875C11.732 0.1875 11.4716 0.44786 11.4716 0.76609V1.34468H4.52844V0.76609C4.52844 0.44786 4.26804 0.1875 3.9498 0.1875C3.63157 0.1875 3.37121 0.44786 3.37121 0.76609V1.34468H2.54961C1.40687 1.34468 0.47821 2.27334 0.47821 3.41608V13.7383C0.47821 14.8811 1.40687 15.8097 2.54961 15.8097Z" fill="black"/>
<path fill-rule="evenodd" clip-rule="evenodd" d="M3.94969 6.11732C3.94969 5.71609 4.27271 5.39082 4.67118 5.39082C5.06964 5.39082 5.39266 5.71608 5.39266 6.11732C5.39266 6.51855 5.06965 6.84381 4.67118 6.84381C4.27272 6.84381 3.94969 6.51856 3.94969 6.11732Z" fill="black"/>
<path fill-rule="evenodd" clip-rule="evenodd" d="M7.1343 6.11732C7.1343 5.71609 7.45732 5.39082 7.85579 5.39082C8.25425 5.39082 8.57727 5.71608 8.57727 6.11732C8.57727 6.51855 8.25426 6.84381 7.85579 6.84381C7.45733 6.84381 7.1343 6.51856 7.1343 6.11732Z" fill="black"/>
<path fill-rule="evenodd" clip-rule="evenodd" d="M10.3189 6.11732C10.3189 5.71609 10.6419 5.39082 11.0404 5.39082C11.4388 5.39082 11.7618 5.71608 11.7618 6.11732C11.7618 6.51855 11.4388 6.84381 11.0404 6.84381C10.6419 6.84381 10.3189 6.51856 10.3189 6.11732Z" fill="black"/>
<path fill-rule="evenodd" clip-rule="evenodd" d="M3.94969 9.00986C3.94969 8.6114 4.27271 8.28837 4.67118 8.28837C5.06964 8.28837 5.39266 8.61139 5.39266 9.00986C5.39266 9.40832 5.06965 9.73134 4.67118 9.73134C4.27272 9.73134 3.94969 9.40833 3.94969 9.00986Z" fill="black"/>
<path fill-rule="evenodd" clip-rule="evenodd" d="M7.1343 9.00986C7.1343 8.6114 7.45732 8.28837 7.85579 8.28837C8.25425 8.28837 8.57727 8.61139 8.57727 9.00986C8.57727 9.40832 8.25426 9.73134 7.85579 9.73134C7.45733 9.73134 7.1343 9.40833 7.1343 9.00986Z" fill="black"/>
<path fill-rule="evenodd" clip-rule="evenodd" d="M10.3189 9.00986C10.3189 8.6114 10.6419 8.28837 11.0404 8.28837C11.4388 8.28837 11.7618 8.61139 11.7618 9.00986C11.7618 9.40832 11.4388 9.73134 11.0404 9.73134C10.6419 9.73134 10.3189 9.40833 10.3189 9.00986Z" fill="black"/>
<path fill-rule="evenodd" clip-rule="evenodd" d="M3.94969 11.9035C3.94969 11.505 4.27271 11.182 4.67118 11.182C5.06964 11.182 5.39266 11.505 5.39266 11.9035C5.39266 12.3019 5.06965 12.625 4.67118 12.625C4.27272 12.625 3.94969 12.3019 3.94969 11.9035Z" fill="black"/>
<path fill-rule="evenodd" clip-rule="evenodd" d="M7.1343 11.9035C7.1343 11.505 7.45732 11.182 7.85579 11.182C8.25425 11.182 8.57727 11.505 8.57727 11.9035C8.57727 12.3019 8.25426 12.625 7.85579 12.625C7.45733 12.625 7.1343 12.3019 7.1343 11.9035Z" fill="black"/>
<path fill-rule="evenodd" clip-rule="evenodd" d="M10.3189 11.9035C10.3189 11.505 10.6419 11.182 11.0404 11.182C11.4388 11.182 11.7618 11.505 11.7618 11.9035C11.7618 12.3019 11.4388 12.625 11.0404 12.625C10.6419 12.625 10.3189 12.3019 10.3189 11.9035Z" fill="black"/>
</svg>
