<svg width="200" height="173" viewBox="0 0 200 173" fill="none" xmlns="http://www.w3.org/2000/svg">
<g clip-path="url(#clip0_288_41812)">
<path d="M167.602 13.9119C156.107 -0.0603362 136.036 -5.97259 120.387 3.89837C105.658 13.1881 99.0679 31.3784 85.7544 42.3726C71.7963 53.8997 56.4298 54.5042 39.5305 52.4468C24.9634 50.6739 8.38468 50.9526 2.6279 67.921C-3.61403 86.3216 5.59629 107.976 16.744 122.161C27.735 136.147 43.0634 145.514 59.9563 149.182C93.624 156.493 133.297 144.267 157.285 118.291C182.082 91.4384 192.663 44.3706 167.602 13.9119Z" fill="#F7F7F7"/>
<path d="M98.0067 19.6203L40.3623 69.1446L41.4348 91.5529C41.4348 94.2262 44.6589 132.121 47.7258 132.121L101.551 96.1011L150.05 128.423C153.117 128.423 159.037 93.2063 159.037 90.5339L162.622 69.0928L104.926 19.6203C102.902 18.2151 100.031 18.2151 98.0067 19.6203Z" fill="#F59A21"/>
<path d="M55.5718 31.9922H147.139C149.876 31.9922 152.095 34.2111 152.095 36.9482V130.246C152.095 132.983 149.876 135.202 147.139 135.202H55.5718C52.8346 135.202 50.6157 132.983 50.6157 130.246V36.9482C50.6157 34.2111 52.8346 31.9922 55.5718 31.9922Z" fill="white" stroke="#E5E5E5" stroke-width="0.5"/>
<path d="M102.732 106.595L130.547 79.2276C137.852 72.0404 148.278 67.9336 159.221 67.9336C161.791 67.9336 163.875 69.5661 163.875 71.5807V144.729C163.875 146.743 160.401 149.801 157.83 149.801H142.026L102.732 111.139C101.418 109.846 101.418 107.888 102.732 106.594V106.595Z" fill="#FAB43C"/>
<path d="M100.37 106.546L72.5548 79.1788C65.2498 71.9916 54.8235 67.8848 43.8806 67.8848C41.311 67.8848 39.2271 69.5173 39.2271 71.5318V145.119C39.2271 147.133 42.2096 149.802 44.78 149.802L61.0761 149.752L100.37 111.09C101.684 109.797 101.684 107.839 100.37 106.546V106.546Z" fill="#FAB43C"/>
<path d="M163.875 129.757V145.532C163.875 147.89 161.389 149.801 158.323 149.801H44.7792C41.7131 149.801 39.2271 147.89 39.2271 145.532V129.757L98.091 93.709C99.049 93.123 100.197 92.8129 101.355 92.782C102.643 92.7469 103.944 93.057 105.012 93.709L163.876 129.757H163.875Z" fill="#FBBF58"/>
<path d="M112.574 96.8633L163.875 123.047V129.758L111.652 97.7711L112.574 96.8633Z" fill="#F59A21"/>
<path d="M90.5277 96.8633L39.2271 123.047V129.758L91.4497 97.7711L90.5277 96.8633Z" fill="#F59A21"/>
<g style="mix-blend-mode:multiply" opacity="0.4">
<path d="M182.321 40.1582H93.2067C89.1362 40.1582 85.8364 43.458 85.8364 47.5284V78.5223C85.8364 82.5928 89.1362 85.8925 93.2067 85.8925H182.321C186.391 85.8925 189.691 82.5928 189.691 78.5223V47.5284C189.691 43.458 186.391 40.1582 182.321 40.1582Z" fill="#F59B1B"/>
</g>
<path d="M113.479 73.0048H100.629C99.0587 73.0048 97.7672 71.7275 97.7496 70.1577L97.6042 57.3072C97.5866 55.7374 98.8489 54.4609 100.419 54.4609H113.269C114.839 54.4609 116.13 55.7382 116.148 57.308L116.293 70.1585C116.311 71.7283 115.049 73.0048 113.479 73.0048ZM100.437 56.0876C99.7642 56.0876 99.2233 56.6351 99.2309 57.3072L99.3763 70.1577C99.3838 70.8306 99.9372 71.3773 100.61 71.3773H113.461C114.133 71.3773 114.674 70.8297 114.667 70.1577L114.521 57.3072C114.514 56.6343 113.96 56.0876 113.288 56.0876H100.437Z" fill="white"/>
<path d="M105.06 69.2503C104.747 69.2503 104.434 69.1307 104.193 68.8933L99.119 63.8762C98.6375 63.3997 98.6283 62.6274 99.0998 62.1509C99.5704 61.6744 100.344 61.6744 100.825 62.1509L105.027 66.3062L117.815 53.4031C118.286 52.9274 119.059 52.9283 119.54 53.4048C120.022 53.8821 120.029 54.6544 119.558 55.1301L105.917 68.8942C105.682 69.1316 105.372 69.2503 105.06 69.2503Z" fill="#F59B1B"/>
<path d="M162.419 60.8968H125.113C124.278 60.8968 123.6 60.2189 123.6 59.383C123.6 58.5471 124.278 57.8691 125.113 57.8691H162.419C163.255 57.8691 163.933 58.5471 163.933 59.383C163.933 60.2189 163.255 60.8968 162.419 60.8968Z" fill="white"/>
<path d="M138.455 69.9261H125.113C124.278 69.9261 123.6 69.2482 123.6 68.4123C123.6 67.5764 124.278 66.8984 125.113 66.8984H138.455C139.29 66.8984 139.968 67.5764 139.968 68.4123C139.968 69.2482 139.29 69.9261 138.455 69.9261Z" fill="white"/>
<path d="M170.83 69.9261H145.071C144.236 69.9261 143.558 69.2482 143.558 68.4123C143.558 67.5764 144.236 66.8984 145.071 66.8984H170.83C171.666 66.8984 172.344 67.5764 172.344 68.4123C172.344 69.2482 171.666 69.9261 170.83 69.9261Z" fill="white"/>
<path d="M188.961 22.0526C189.669 21.6971 189.956 20.8346 189.6 20.1261C189.244 19.4176 188.382 19.1315 187.673 19.4871C186.965 19.8426 186.679 20.7052 187.034 21.4136C187.39 22.1221 188.252 22.4082 188.961 22.0526Z" fill="#F59D1B"/>
<path d="M169.988 19.8221C172.408 18.1185 175.693 18.6167 175.693 18.6167C175.693 18.6167 175.054 21.8776 172.633 23.582C170.212 25.2856 166.927 24.7874 166.927 24.7874C166.927 24.7874 167.567 21.5265 169.988 19.8221Z" fill="#EF781C"/>
<path d="M164.875 13.2785C165.83 10.1739 169.014 8.39844 169.014 8.39844C169.014 8.39844 170.65 11.656 169.697 14.7606C168.742 17.8651 165.558 19.6406 165.558 19.6406C165.558 19.6406 163.921 16.3831 164.875 13.2785Z" fill="#666666"/>
<path d="M23.4392 53.1151C25.6803 55.9129 25.3242 59.9211 25.3242 59.9211C25.3242 59.9211 21.3352 59.3928 19.0942 56.595C16.8531 53.7973 17.2092 49.7891 17.2092 49.7891C17.2092 49.7891 21.1982 50.3174 23.4392 53.1151Z" fill="#666666"/>
<path d="M15.4851 58.1017C19.0561 58.4176 21.7051 61.447 21.7051 61.447C21.7051 61.447 18.5646 63.9631 14.9944 63.6471C11.4234 63.3311 8.77441 60.3018 8.77441 60.3018C8.77441 60.3018 11.9149 57.7857 15.4851 58.1017Z" fill="#ED6D1E"/>
<path d="M162.202 172.304C161.752 172.921 160.888 173.056 160.271 172.606C159.654 172.157 159.518 171.292 159.968 170.675C160.418 170.059 161.282 169.923 161.899 170.373C162.516 170.823 162.651 171.687 162.202 172.304Z" fill="#F59D1B"/>
<path d="M199.66 104.473C200.162 103.898 200.103 103.025 199.528 102.523C198.953 102.021 198.081 102.08 197.578 102.655C197.076 103.229 197.135 104.102 197.71 104.604C198.285 105.106 199.158 105.048 199.66 104.473Z" fill="#F59D1B"/>
<path d="M2.42192 94.549C2.92398 93.9743 2.86509 93.1014 2.29038 92.5993C1.71566 92.0973 0.842763 92.1562 0.340702 92.7309C-0.161358 93.3056 -0.102461 94.1785 0.472252 94.6805C1.04697 95.1826 1.91986 95.1237 2.42192 94.549Z" fill="#F59D1B"/>
<path d="M48.4615 2.29314C48.9635 1.71843 48.9046 0.845528 48.3299 0.343468C47.7552 -0.158593 46.8823 -0.0996955 46.3803 0.475017C45.8782 1.04973 45.9371 1.92263 46.5118 2.42469C47.0865 2.92675 47.9594 2.86785 48.4615 2.29314Z" fill="#F59D1B"/>
<path d="M168.855 165.706C171.324 167.625 171.836 171.097 171.836 171.097C171.836 171.097 168.344 171.459 165.875 169.54C163.406 167.621 162.894 164.148 162.894 164.148C162.894 164.148 166.386 163.786 168.855 165.706Z" fill="#666666"/>
</g>
<defs>
<clipPath id="clip0_288_41812">
<rect width="200" height="172.871" fill="white"/>
</clipPath>
</defs>
</svg>
