<svg width="264" height="264" viewBox="0 0 264 264" fill="none" xmlns="http://www.w3.org/2000/svg">
<g clip-path="url(#clip0_288_41457)">
<path d="M234.615 54.5113C235.434 54.1 235.767 53.1026 235.355 52.2819C234.944 51.4613 233.947 51.1307 233.126 51.542C232.307 51.9533 231.977 52.9508 232.386 53.7714C232.797 54.592 233.795 54.9226 234.615 54.5113Z" fill="#F59D1B"/>
<path d="M212.666 51.9308C215.466 49.959 219.265 50.5355 219.265 50.5355C219.265 50.5355 218.525 54.3082 215.725 56.28C212.925 58.2519 209.124 57.6753 209.124 57.6753C209.124 57.6753 209.863 53.9027 212.666 51.9308Z" fill="#EF781C"/>
<path d="M206.75 44.3613C207.855 40.7693 211.539 38.7148 211.539 38.7148C211.539 38.7148 213.432 42.4836 212.329 46.0756C211.224 49.6676 207.54 51.7221 207.54 51.7221C207.54 51.7221 205.647 47.9533 206.75 44.3613Z" fill="#666666"/>
<path d="M43.1176 90.4492C45.7102 93.6856 45.2989 98.3231 45.2989 98.3231C45.2989 98.3231 40.6845 97.7119 38.0919 94.4755C35.4993 91.239 35.9106 86.6016 35.9106 86.6016C35.9106 86.6016 40.525 87.2127 43.1176 90.4492Z" fill="#666666"/>
<path d="M33.9157 96.2176C38.0478 96.5827 41.1112 100.088 41.1112 100.088C41.1112 100.088 37.477 103 33.3469 102.633C29.2148 102.268 26.1514 98.7621 26.1514 98.7621C26.1514 98.7621 29.7856 95.8505 33.9157 96.2176Z" fill="#ED6D1E"/>
<path d="M203.658 228.343C203.137 229.056 202.138 229.214 201.425 228.693C200.712 228.172 200.554 227.173 201.075 226.46C201.596 225.747 202.595 225.589 203.308 226.11C204.021 226.631 204.179 227.63 203.658 228.343Z" fill="#F59D1B"/>
<path d="M246.994 149.866C247.575 149.201 247.507 148.19 246.842 147.61C246.177 147.029 245.168 147.096 244.586 147.761C244.006 148.426 244.073 149.435 244.738 150.016C245.403 150.596 246.414 150.529 246.994 149.864V149.866Z" fill="#F59D1B"/>
<path d="M18.8023 138.385C19.3827 137.72 19.3155 136.711 18.6505 136.129C17.9855 135.549 16.9766 135.616 16.3942 136.281C15.8138 136.946 15.8811 137.955 16.5461 138.537C17.211 139.118 18.22 139.05 18.8023 138.385Z" fill="#F59D1B"/>
<path d="M72.067 31.6498C72.6474 30.9848 72.5801 29.9759 71.9152 29.3935C71.2502 28.8112 70.2412 28.8804 69.6589 29.5454C69.0785 30.2103 69.1457 31.2193 69.8107 31.8016C70.4757 32.3821 71.4847 32.3148 72.067 31.6498Z" fill="#F59D1B"/>
<path d="M211.355 220.707C214.211 222.929 214.804 226.946 214.804 226.946C214.804 226.946 210.765 227.365 207.909 225.145C205.053 222.923 204.459 218.906 204.459 218.906C204.459 218.906 208.499 218.487 211.355 220.707Z" fill="#666666"/>
</g>
<path d="M187.142 76.1836C187.142 75.4426 186.544 74.8418 185.806 74.8418C185.068 74.8418 184.469 75.4426 184.469 76.1836V89.8338C184.469 90.5749 185.068 91.1757 185.806 91.1757C186.544 91.1757 187.142 90.5749 187.142 89.8338V76.1836Z" fill="#382A73"/>
<path d="M187.142 97.2071C187.142 96.466 186.544 95.8652 185.806 95.8652C185.068 95.8652 184.469 96.466 184.469 97.2071V119.997C184.469 120.738 185.068 121.339 185.806 121.339C186.544 121.339 187.142 120.738 187.142 119.997V97.2071Z" fill="#382A73"/>
<path d="M177.387 34.0703H81.6153C77.7229 34.0703 74.5674 37.2356 74.5674 41.1402V241.567C74.5674 245.472 77.7229 248.637 81.6153 248.637H177.387C181.279 248.637 184.435 245.472 184.435 241.567V41.1402C184.435 37.2356 181.279 34.0703 177.387 34.0703Z" fill="#FFE9C2"/>
<path d="M144.302 179.41H115.46C111.344 179.41 108.007 182.757 108.007 186.886V186.888C108.007 191.017 111.344 194.364 115.46 194.364H144.302C148.418 194.364 151.755 191.017 151.755 186.888V186.886C151.755 182.757 148.418 179.41 144.302 179.41Z" fill="#FCAF17"/>
<path d="M151.757 187.541L151.5 179.543C151.498 179.47 151.556 179.41 151.628 179.41C151.699 179.41 151.757 179.468 151.757 179.539V187.541Z" fill="#FCAF17"/>
<path d="M151.524 194.364C151.399 194.364 151.296 194.264 151.292 194.138L150.833 179.758C150.827 179.568 150.979 179.41 151.17 179.41C151.352 179.41 151.501 179.555 151.506 179.736L151.757 187.541V194.131C151.757 194.259 151.653 194.364 151.524 194.364Z" fill="#FCAF17"/>
<path d="M150.95 194.364C150.768 194.364 150.618 194.219 150.612 194.036L150.157 179.759C150.151 179.568 150.304 179.41 150.494 179.41C150.677 179.41 150.826 179.555 150.832 179.737L151.288 194.015C151.294 194.206 151.141 194.364 150.95 194.364Z" fill="#FCAF17"/>
<path d="M150.273 194.364C150.091 194.364 149.941 194.219 149.936 194.036L149.48 179.759C149.474 179.568 149.627 179.41 149.818 179.41C150 179.41 150.15 179.555 150.156 179.737L150.611 194.015C150.617 194.206 150.464 194.364 150.273 194.364Z" fill="#FCAF17"/>
<path d="M149.597 194.364C149.415 194.364 149.265 194.219 149.259 194.036L148.804 179.759C148.798 179.568 148.951 179.41 149.141 179.41C149.324 179.41 149.473 179.555 149.479 179.737L149.935 194.015C149.941 194.206 149.788 194.364 149.597 194.364Z" fill="#FCAF17"/>
<path d="M148.921 194.364C148.738 194.364 148.589 194.219 148.583 194.036L148.127 179.759C148.121 179.568 148.274 179.41 148.465 179.41C148.648 179.41 148.797 179.555 148.803 179.737L149.259 194.015C149.265 194.206 149.112 194.364 148.921 194.364Z" fill="#FCAF17"/>
<path d="M148.245 194.364C148.062 194.364 147.913 194.219 147.907 194.036L147.451 179.759C147.445 179.568 147.598 179.41 147.789 179.41C147.971 179.41 148.121 179.555 148.127 179.737L148.582 194.015C148.589 194.206 148.435 194.364 148.245 194.364Z" fill="#FCAF17"/>
<path d="M147.568 194.364C147.386 194.364 147.236 194.219 147.231 194.036L146.775 179.759C146.769 179.568 146.922 179.41 147.113 179.41C147.295 179.41 147.445 179.555 147.45 179.737L147.906 194.015C147.912 194.206 147.759 194.364 147.568 194.364Z" fill="#FCAF17"/>
<path d="M146.892 194.364C146.71 194.364 146.56 194.219 146.554 194.036L146.099 179.759C146.092 179.568 146.245 179.41 146.436 179.41C146.619 179.41 146.768 179.555 146.774 179.737L147.23 194.015C147.236 194.206 147.083 194.364 146.892 194.364Z" fill="#FCAF17"/>
<path d="M146.216 194.364C146.033 194.364 145.884 194.219 145.878 194.036L145.422 179.759C145.416 179.568 145.569 179.41 145.76 179.41C145.943 179.41 146.092 179.555 146.098 179.737L146.554 194.015C146.56 194.206 146.407 194.364 146.216 194.364Z" fill="#FCAF17"/>
<path d="M145.54 194.364C145.357 194.364 145.208 194.219 145.202 194.036L144.746 179.759C144.74 179.568 144.893 179.41 145.084 179.41C145.266 179.41 145.416 179.555 145.422 179.737L145.877 194.015C145.883 194.206 145.73 194.364 145.54 194.364Z" fill="#FCAF17"/>
<path d="M144.863 194.364C144.68 194.364 144.531 194.219 144.525 194.036L144.069 179.759C144.063 179.568 144.216 179.41 144.407 179.41C144.59 179.41 144.739 179.555 144.745 179.737L145.201 194.015C145.207 194.206 145.054 194.364 144.863 194.364Z" fill="#FCAF17"/>
<path d="M144.188 194.364C144.006 194.364 143.857 194.219 143.851 194.037L143.393 179.759C143.387 179.568 143.54 179.41 143.731 179.41C143.913 179.41 144.063 179.555 144.069 179.737L144.524 194.016C144.53 194.206 144.378 194.364 144.188 194.364Z" fill="#FCAF17"/>
<path d="M143.512 194.364C143.33 194.364 143.18 194.219 143.174 194.036L142.717 179.759C142.711 179.568 142.864 179.41 143.055 179.41C143.237 179.41 143.387 179.555 143.392 179.737L143.85 194.015C143.856 194.206 143.703 194.364 143.512 194.364Z" fill="#FCAF17"/>
<path d="M142.836 194.364C142.654 194.364 142.504 194.219 142.498 194.036L142.04 179.759C142.034 179.568 142.187 179.41 142.378 179.41C142.561 179.41 142.71 179.555 142.716 179.737L143.174 194.015C143.18 194.206 143.027 194.364 142.836 194.364Z" fill="#FCAF17"/>
<path d="M142.16 194.364C141.977 194.364 141.828 194.219 141.822 194.036L141.366 179.758C141.36 179.568 141.513 179.41 141.703 179.41C141.885 179.41 142.034 179.555 142.04 179.736L142.497 194.015C142.504 194.206 142.351 194.364 142.16 194.364Z" fill="#FCAF17"/>
<path d="M141.483 194.364C141.301 194.364 141.151 194.219 141.146 194.036L140.69 179.759C140.684 179.568 140.837 179.41 141.028 179.41C141.21 179.41 141.36 179.555 141.365 179.737L141.821 194.015C141.827 194.206 141.674 194.364 141.483 194.364Z" fill="#FCAF17"/>
<path d="M140.807 194.364C140.625 194.364 140.475 194.219 140.469 194.036L140.014 179.759C140.007 179.568 140.16 179.41 140.351 179.41C140.534 179.41 140.683 179.555 140.689 179.737L141.145 194.015C141.151 194.206 140.998 194.364 140.807 194.364Z" fill="#FCAF17"/>
<path d="M140.131 194.364C139.948 194.364 139.799 194.219 139.793 194.036L139.337 179.759C139.331 179.568 139.484 179.41 139.675 179.41C139.858 179.41 140.007 179.555 140.013 179.737L140.469 194.015C140.475 194.206 140.322 194.364 140.131 194.364Z" fill="#FCAF17"/>
<path d="M139.455 194.364C139.272 194.364 139.123 194.219 139.117 194.036L138.661 179.759C138.655 179.568 138.808 179.41 138.999 179.41C139.181 179.41 139.331 179.555 139.337 179.737L139.792 194.015C139.798 194.206 139.645 194.364 139.455 194.364Z" fill="#FCAF17"/>
<path d="M138.778 194.364C138.596 194.364 138.446 194.219 138.44 194.036L137.985 179.759C137.979 179.568 138.132 179.41 138.323 179.41C138.505 179.41 138.655 179.555 138.66 179.737L139.116 194.015C139.122 194.206 138.969 194.364 138.778 194.364Z" fill="#FCAF17"/>
<path d="M138.102 194.364C137.92 194.364 137.77 194.219 137.764 194.036L137.308 179.759C137.302 179.568 137.455 179.41 137.646 179.41C137.829 179.41 137.978 179.555 137.984 179.737L138.44 194.015C138.446 194.206 138.293 194.364 138.102 194.364Z" fill="#FCAF17"/>
<path d="M137.425 194.364C137.243 194.364 137.093 194.219 137.087 194.036L136.632 179.759C136.626 179.568 136.779 179.41 136.97 179.41C137.152 179.41 137.302 179.555 137.307 179.737L137.763 194.015C137.769 194.206 137.616 194.364 137.425 194.364Z" fill="#FCAF17"/>
<path d="M136.749 194.364C136.567 194.364 136.417 194.219 136.411 194.036L135.955 179.759C135.949 179.568 136.102 179.41 136.293 179.41C136.476 179.41 136.625 179.555 136.631 179.737L137.087 194.015C137.093 194.206 136.94 194.364 136.749 194.364Z" fill="#FCAF17"/>
<path d="M136.073 194.364C135.89 194.364 135.741 194.219 135.735 194.036L135.279 179.759C135.273 179.568 135.426 179.41 135.617 179.41C135.799 179.41 135.949 179.555 135.955 179.737L136.411 194.015C136.417 194.206 136.264 194.364 136.073 194.364Z" fill="#FCAF17"/>
<path d="M135.398 194.364C135.216 194.364 135.067 194.219 135.061 194.037L134.603 179.759C134.597 179.568 134.75 179.41 134.941 179.41C135.123 179.41 135.273 179.555 135.279 179.737L135.734 194.016C135.74 194.206 135.588 194.364 135.398 194.364Z" fill="#FCAF17"/>
<path d="M134.722 194.364C134.54 194.364 134.39 194.219 134.384 194.036L133.927 179.759C133.921 179.568 134.074 179.41 134.265 179.41C134.447 179.41 134.596 179.555 134.602 179.737L135.06 194.015C135.066 194.206 134.913 194.364 134.722 194.364Z" fill="#FCAF17"/>
<path d="M134.046 194.364C133.864 194.364 133.714 194.219 133.708 194.036L133.25 179.759C133.244 179.568 133.397 179.41 133.588 179.41C133.771 179.41 133.92 179.555 133.926 179.737L134.384 194.015C134.39 194.206 134.237 194.364 134.046 194.364Z" fill="#FCAF17"/>
<path d="M133.37 194.364C133.187 194.364 133.038 194.219 133.032 194.036L132.576 179.758C132.57 179.568 132.723 179.41 132.913 179.41C133.095 179.41 133.244 179.555 133.25 179.736L133.707 194.015C133.713 194.206 133.56 194.364 133.37 194.364Z" fill="#FCAF17"/>
<path d="M132.693 194.364C132.511 194.364 132.361 194.219 132.356 194.036L131.9 179.759C131.894 179.568 132.047 179.41 132.238 179.41C132.42 179.41 132.57 179.555 132.575 179.737L133.031 194.015C133.037 194.206 132.884 194.364 132.693 194.364Z" fill="#FCAF17"/>
<path d="M132.017 194.364C131.835 194.364 131.685 194.219 131.679 194.036L131.224 179.759C131.217 179.568 131.37 179.41 131.561 179.41C131.744 179.41 131.893 179.555 131.899 179.737L132.355 194.015C132.361 194.206 132.208 194.364 132.017 194.364Z" fill="#FCAF17"/>
<path d="M131.341 194.364C131.158 194.364 131.009 194.219 131.003 194.036L130.547 179.759C130.541 179.568 130.694 179.41 130.885 179.41C131.068 179.41 131.217 179.555 131.223 179.737L131.679 194.015C131.685 194.206 131.532 194.364 131.341 194.364Z" fill="#FCAF17"/>
<path d="M130.665 194.364C130.482 194.364 130.333 194.219 130.327 194.036L129.871 179.759C129.865 179.568 130.018 179.41 130.209 179.41C130.391 179.41 130.541 179.555 130.547 179.737L131.002 194.015C131.008 194.206 130.855 194.364 130.665 194.364Z" fill="#FCAF17"/>
<path d="M129.988 194.364C129.805 194.364 129.656 194.219 129.65 194.036L129.194 179.759C129.188 179.568 129.341 179.41 129.532 179.41C129.715 179.41 129.864 179.555 129.87 179.737L130.326 194.015C130.332 194.206 130.179 194.364 129.988 194.364Z" fill="#FCAF17"/>
<path d="M129.312 194.364C129.129 194.364 128.98 194.219 128.974 194.036L128.518 179.759C128.512 179.568 128.665 179.41 128.856 179.41C129.038 179.41 129.188 179.555 129.194 179.737L129.649 194.015C129.655 194.206 129.502 194.364 129.312 194.364Z" fill="#FCAF17"/>
<path d="M128.635 194.364C128.453 194.364 128.303 194.219 128.297 194.036L127.842 179.759C127.836 179.568 127.989 179.41 128.18 179.41C128.362 179.41 128.512 179.555 128.517 179.737L128.973 194.015C128.979 194.206 128.826 194.364 128.635 194.364Z" fill="#FCAF17"/>
<path d="M127.959 194.364C127.776 194.364 127.627 194.219 127.621 194.036L127.165 179.759C127.159 179.568 127.312 179.41 127.503 179.41C127.686 179.41 127.835 179.555 127.841 179.737L128.297 194.015C128.303 194.206 128.15 194.364 127.959 194.364Z" fill="#FCAF17"/>
<path d="M127.283 194.364C127.1 194.364 126.951 194.219 126.945 194.036L126.489 179.759C126.483 179.568 126.636 179.41 126.827 179.41C127.009 179.41 127.159 179.555 127.165 179.737L127.621 194.015C127.627 194.206 127.474 194.364 127.283 194.364Z" fill="#FCAF17"/>
<path d="M126.606 194.364C126.424 194.364 126.274 194.219 126.269 194.036L125.813 179.759C125.807 179.568 125.96 179.41 126.151 179.41C126.333 179.41 126.483 179.555 126.489 179.737L126.944 194.015C126.95 194.206 126.797 194.364 126.606 194.364Z" fill="#FCAF17"/>
<path d="M125.931 194.364C125.749 194.364 125.6 194.219 125.594 194.037L125.137 179.759C125.131 179.568 125.284 179.41 125.474 179.41C125.657 179.41 125.806 179.555 125.812 179.737L126.268 194.016C126.274 194.206 126.122 194.364 125.931 194.364Z" fill="#FCAF17"/>
<path d="M125.256 194.364C125.074 194.364 124.924 194.219 124.918 194.036L124.46 179.759C124.454 179.568 124.607 179.41 124.798 179.41C124.981 179.41 125.13 179.555 125.136 179.737L125.594 194.015C125.6 194.206 125.447 194.364 125.256 194.364Z" fill="#FCAF17"/>
<path d="M124.579 194.364C124.397 194.364 124.247 194.219 124.241 194.036L123.784 179.759C123.778 179.568 123.931 179.41 124.121 179.41C124.304 179.41 124.453 179.555 124.459 179.737L124.917 194.015C124.923 194.206 124.77 194.364 124.579 194.364Z" fill="#FCAF17"/>
<path d="M123.903 194.364C123.721 194.364 123.571 194.219 123.565 194.036L123.11 179.758C123.104 179.568 123.256 179.41 123.447 179.41C123.628 179.41 123.777 179.555 123.783 179.736L124.241 194.015C124.247 194.206 124.094 194.364 123.903 194.364Z" fill="#FCAF17"/>
<path d="M123.227 194.364C123.045 194.364 122.895 194.219 122.889 194.036L122.433 179.759C122.427 179.568 122.58 179.41 122.771 179.41C122.954 179.41 123.103 179.555 123.109 179.737L123.565 194.015C123.571 194.206 123.418 194.364 123.227 194.364Z" fill="#FCAF17"/>
<path d="M122.55 194.364C122.368 194.364 122.218 194.219 122.212 194.036L121.757 179.759C121.751 179.568 121.904 179.41 122.095 179.41C122.277 179.41 122.427 179.555 122.432 179.737L122.888 194.015C122.894 194.206 122.741 194.364 122.55 194.364Z" fill="#FCAF17"/>
<path d="M121.874 194.364C121.692 194.364 121.542 194.219 121.536 194.036L121.08 179.759C121.074 179.568 121.227 179.41 121.418 179.41C121.601 179.41 121.75 179.555 121.756 179.737L122.212 194.015C122.218 194.206 122.065 194.364 121.874 194.364Z" fill="#FCAF17"/>
<path d="M121.198 194.364C121.015 194.364 120.866 194.219 120.86 194.036L120.404 179.759C120.398 179.568 120.551 179.41 120.742 179.41C120.924 179.41 121.074 179.555 121.08 179.737L121.536 194.015C121.542 194.206 121.389 194.364 121.198 194.364Z" fill="#FCAF17"/>
<path d="M120.521 194.364C120.339 194.364 120.189 194.219 120.184 194.036L119.728 179.759C119.722 179.568 119.875 179.41 120.066 179.41C120.248 179.41 120.398 179.555 120.404 179.737L120.859 194.015C120.865 194.206 120.712 194.364 120.521 194.364Z" fill="#FCAF17"/>
<path d="M119.845 194.364C119.663 194.364 119.513 194.219 119.507 194.036L119.052 179.759C119.046 179.568 119.199 179.41 119.389 179.41C119.572 179.41 119.721 179.555 119.727 179.737L120.183 194.015C120.189 194.206 120.036 194.364 119.845 194.364Z" fill="#FCAF17"/>
<path d="M119.169 194.364C118.986 194.364 118.837 194.219 118.831 194.036L118.375 179.759C118.369 179.568 118.522 179.41 118.713 179.41C118.896 179.41 119.045 179.555 119.051 179.737L119.507 194.015C119.513 194.206 119.36 194.364 119.169 194.364Z" fill="#FCAF17"/>
<path d="M118.493 194.364C118.31 194.364 118.161 194.219 118.155 194.036L117.699 179.759C117.693 179.568 117.846 179.41 118.037 179.41C118.219 179.41 118.369 179.555 118.375 179.737L118.83 194.015C118.837 194.206 118.684 194.364 118.493 194.364Z" fill="#FCAF17"/>
<path d="M117.816 194.364C117.634 194.364 117.484 194.219 117.479 194.036L117.023 179.759C117.017 179.568 117.17 179.41 117.361 179.41C117.543 179.41 117.693 179.555 117.698 179.737L118.154 194.015C118.16 194.206 118.007 194.364 117.816 194.364Z" fill="#FCAF17"/>
<path d="M117.14 194.364C116.957 194.364 116.808 194.219 116.802 194.036L116.346 179.759C116.34 179.568 116.493 179.41 116.684 179.41C116.866 179.41 117.016 179.555 117.022 179.737L117.477 194.015C117.484 194.206 117.331 194.364 117.14 194.364Z" fill="#FCAF17"/>
<path d="M116.464 194.364C116.283 194.364 116.133 194.219 116.128 194.037L115.67 179.759C115.664 179.568 115.817 179.41 116.008 179.41C116.19 179.41 116.34 179.555 116.345 179.737L116.801 194.016C116.807 194.206 116.655 194.364 116.464 194.364Z" fill="#FCAF17"/>
<path d="M115.789 194.364C115.607 194.364 115.457 194.219 115.451 194.036L114.994 179.759C114.987 179.568 115.141 179.41 115.331 179.41C115.514 179.41 115.663 179.555 115.669 179.737L116.127 194.015C116.133 194.206 115.98 194.364 115.789 194.364Z" fill="#FCAF17"/>
<path d="M115.113 194.364C114.93 194.364 114.781 194.219 114.775 194.036L114.317 179.759C114.311 179.568 114.464 179.41 114.655 179.41C114.838 179.41 114.987 179.555 114.993 179.737L115.451 194.015C115.457 194.206 115.304 194.364 115.113 194.364Z" fill="#FCAF17"/>
<path d="M114.436 194.364C114.254 194.364 114.105 194.219 114.099 194.036L113.643 179.758C113.637 179.568 113.789 179.41 113.98 179.41C114.162 179.41 114.311 179.555 114.316 179.736L114.774 194.015C114.78 194.206 114.627 194.364 114.436 194.364Z" fill="#FCAF17"/>
<path d="M113.76 194.364C113.578 194.364 113.428 194.219 113.422 194.036L112.967 179.759C112.961 179.568 113.114 179.41 113.305 179.41C113.487 179.41 113.637 179.555 113.642 179.737L114.098 194.015C114.104 194.206 113.951 194.364 113.76 194.364Z" fill="#FCAF17"/>
<path d="M113.084 194.364C112.901 194.364 112.752 194.219 112.746 194.036L112.29 179.759C112.284 179.568 112.437 179.41 112.628 179.41C112.811 179.41 112.96 179.555 112.966 179.737L113.422 194.015C113.428 194.206 113.275 194.364 113.084 194.364Z" fill="#FCAF17"/>
<path d="M112.408 194.364C112.225 194.364 112.076 194.219 112.07 194.036L111.614 179.759C111.608 179.568 111.761 179.41 111.952 179.41C112.134 179.41 112.284 179.555 112.29 179.737L112.746 194.015C112.752 194.206 112.599 194.364 112.408 194.364Z" fill="#FCAF17"/>
<path d="M111.731 194.364C111.549 194.364 111.399 194.219 111.394 194.036L110.938 179.759C110.932 179.568 111.085 179.41 111.276 179.41C111.458 179.41 111.608 179.555 111.614 179.737L112.069 194.015C112.075 194.206 111.922 194.364 111.731 194.364Z" fill="#FCAF17"/>
<path d="M111.055 194.364C110.873 194.364 110.723 194.219 110.717 194.036L110.262 179.759C110.256 179.568 110.409 179.41 110.599 179.41C110.782 179.41 110.931 179.555 110.937 179.737L111.393 194.015C111.399 194.206 111.246 194.364 111.055 194.364Z" fill="#FCAF17"/>
<path d="M110.379 194.364C110.196 194.364 110.047 194.219 110.041 194.036L109.585 179.759C109.579 179.568 109.732 179.41 109.923 179.41C110.106 179.41 110.255 179.555 110.261 179.737L110.717 194.015C110.723 194.206 110.57 194.364 110.379 194.364Z" fill="#FCAF17"/>
<path d="M109.702 194.364C109.52 194.364 109.37 194.219 109.364 194.036L108.909 179.759C108.903 179.568 109.056 179.41 109.246 179.41C109.429 179.41 109.578 179.555 109.584 179.737L110.04 194.015C110.046 194.206 109.893 194.364 109.702 194.364Z" fill="#FCAF17"/>
<path d="M108.46 179.41C108.704 179.41 108.904 179.604 108.912 179.848L109.353 193.669C109.365 194.049 109.06 194.364 108.68 194.364C108.309 194.364 108.007 194.062 108.007 193.691V179.862C108.007 179.613 108.21 179.41 108.46 179.41Z" fill="#FCAF17"/>
<path d="M174.816 133.166H84.8365C82.7514 133.166 81.061 134.862 81.061 136.953V145.79C81.061 147.882 82.7514 149.577 84.8365 149.577H174.816C176.901 149.577 178.592 147.882 178.592 145.79V136.953C178.592 134.862 176.901 133.166 174.816 133.166Z" fill="white"/>
<path d="M174.816 154.312H84.8365C82.7514 154.312 81.061 156.008 81.061 158.1V166.936C81.061 169.028 82.7514 170.724 84.8365 170.724H174.816C176.901 170.724 178.592 169.028 178.592 166.936V158.1C178.592 156.008 176.901 154.312 174.816 154.312Z" fill="white"/>
<path d="M89.0852 164.885C90.3015 164.885 91.2875 163.896 91.2875 162.676C91.2875 161.456 90.3015 160.467 89.0852 160.467C87.8688 160.467 86.8828 161.456 86.8828 162.676C86.8828 163.896 87.8688 164.885 89.0852 164.885Z" fill="#666666"/>
<path d="M97.2634 164.885C98.4797 164.885 99.4657 163.896 99.4657 162.676C99.4657 161.456 98.4797 160.467 97.2634 160.467C96.0471 160.467 95.061 161.456 95.061 162.676C95.061 163.896 96.0471 164.885 97.2634 164.885Z" fill="#666666"/>
<path d="M105.444 164.885C106.66 164.885 107.646 163.896 107.646 162.676C107.646 161.456 106.66 160.467 105.444 160.467C104.227 160.467 103.241 161.456 103.241 162.676C103.241 163.896 104.227 164.885 105.444 164.885Z" fill="#666666"/>
<path d="M113.624 164.885C114.84 164.885 115.826 163.896 115.826 162.676C115.826 161.456 114.84 160.467 113.624 160.467C112.407 160.467 111.421 161.456 111.421 162.676C111.421 163.896 112.407 164.885 113.624 164.885Z" fill="#666666"/>
<path d="M121.804 164.885C123.02 164.885 124.006 163.896 124.006 162.676C124.006 161.456 123.02 160.467 121.804 160.467C120.588 160.467 119.602 161.456 119.602 162.676C119.602 163.896 120.588 164.885 121.804 164.885Z" fill="#666666"/>
<path d="M129.984 164.885C131.2 164.885 132.186 163.896 132.186 162.676C132.186 161.456 131.2 160.467 129.984 160.467C128.768 160.467 127.782 161.456 127.782 162.676C127.782 163.896 128.768 164.885 129.984 164.885Z" fill="#666666"/>
<path d="M138.164 164.885C139.381 164.885 140.367 163.896 140.367 162.676C140.367 161.456 139.381 160.467 138.164 160.467C136.948 160.467 135.962 161.456 135.962 162.676C135.962 163.896 136.948 164.885 138.164 164.885Z" fill="#666666"/>
<path d="M130 67C116.74 67 106 77.7428 106 91.0053C106 104.268 116.74 115 130 115C143.26 115 154 104.257 154 91.0053C154 77.7534 143.249 67 130 67ZM130 74.1794C134.385 74.1794 137.937 77.7323 137.937 82.1179C137.937 86.5036 134.385 90.0564 130 90.0564C125.615 90.0564 122.063 86.5036 122.063 82.1179C122.063 77.7323 125.615 74.1794 130 74.1794ZM130 108.727C125.626 108.727 121.621 107.135 118.532 104.5C117.784 103.857 117.341 102.918 117.341 101.927C117.341 97.4784 120.935 93.9255 125.383 93.9255H134.617C139.065 93.9255 142.648 97.4889 142.648 101.927C142.648 102.918 142.216 103.857 141.468 104.5C138.379 107.135 134.374 108.727 130 108.727Z" fill="#FFD787"/>
<path d="M156.014 215.316C157.247 215.653 162.246 215.076 167.698 213.854C169.99 216.527 175.375 220.613 186.988 220.909C204.35 221.353 203.197 219.801 203.197 219.801C205.581 218.444 209.074 211.112 212.235 203.336C214.555 205.47 220.954 211.241 223.15 212.027C225.849 212.995 231.061 213.188 232.989 209.32C234.918 205.449 231.639 199.062 231.639 199.062C231.639 199.062 227.587 188.806 222.378 179.905C220.325 176.394 218.78 174.537 217.663 173.578C217.233 173.092 216.674 172.717 216.032 172.51L202.593 167.938L181.226 169.61C180.402 169.674 179.645 170.014 179.056 170.548C177.723 170.96 175.428 172.33 171.644 176.227C164.314 183.775 154.86 200.03 153.51 206.028C152.159 212.027 153.895 214.736 156.016 215.316H156.014Z" fill="white"/>
<path d="M204.723 218.487C204.693 218.487 204.661 218.476 204.635 218.457C204.575 218.41 204.564 218.32 204.611 218.26C206.527 215.838 209.048 210.799 212.102 203.282L212.179 203.096L212.329 203.233C214.166 204.923 218.739 209.058 221.571 210.977C221.635 211.02 221.652 211.108 221.61 211.172C221.567 211.237 221.479 211.254 221.415 211.211C218.643 209.33 214.217 205.348 212.289 203.577C209.258 211.014 206.75 216.012 204.834 218.436C204.806 218.47 204.766 218.489 204.725 218.489L204.723 218.487Z" fill="#5C49D8"/>
<path d="M232.48 210.29C232.45 210.29 232.422 210.282 232.396 210.262C232.334 210.215 232.321 210.127 232.366 210.065C232.553 209.814 232.717 209.541 232.861 209.253C234.736 205.492 231.544 199.186 231.512 199.124C231.467 199.008 227.399 188.763 222.256 179.973C220.49 176.953 218.912 174.836 217.571 173.683C217.136 173.193 216.592 172.837 215.989 172.642L210.508 170.776C210.435 170.75 210.394 170.671 210.42 170.598C210.446 170.525 210.525 170.484 210.597 170.51L216.077 172.373C216.727 172.584 217.312 172.966 217.767 173.481C219.12 174.64 220.717 176.781 222.5 179.83C227.653 188.638 231.729 198.903 231.769 199.006C231.898 199.257 235.052 205.49 233.113 209.378C232.963 209.681 232.788 209.966 232.593 210.23C232.565 210.267 232.523 210.288 232.48 210.288V210.29Z" fill="#5C49D8"/>
<path d="M216.59 238.927C217.168 238.927 219.292 238.347 227.973 237.765C236.654 237.186 241.863 238.54 241.863 238.54C241.863 238.54 244.757 239.702 244.757 242.605C244.757 245.507 243.021 247.442 241.09 247.83C239.162 248.217 228.55 248.992 225.464 248.605C222.378 248.219 215.818 246.671 214.082 244.928C212.346 243.184 216.59 238.929 216.59 238.929V238.927Z" fill="#382A73"/>
<path d="M208.575 198.041H201.052C199.986 198.041 199.381 197.21 199.697 196.186L204.98 179.124C205.296 178.1 206.418 177.27 207.484 177.27H215.007C216.073 177.27 216.678 178.1 216.362 179.124L211.079 196.186C210.763 197.21 209.641 198.041 208.575 198.041Z" fill="#382A73"/>
<path d="M180.128 218.607L203.278 219.769C203.278 219.769 219.482 212.609 224.884 211.641C230.286 210.672 233.758 211.061 236.266 214.737C238.774 218.414 237.809 224.992 233.372 229.057C228.936 233.121 218.519 238.151 218.519 238.151C218.519 238.151 202.507 244.536 196.72 245.697C190.933 246.859 190.16 246.859 190.16 246.859C190.16 246.859 188.232 247.634 187.459 238.344C186.686 229.057 183.6 232.152 183.6 232.152C183.6 232.152 180.128 218.026 180.128 218.607Z" fill="#FCAF17"/>
<path d="M177.428 247.246C177.428 247.246 165.275 242.409 160.643 234.474C156.014 226.539 155.821 221.122 157.172 217.251C158.522 213.38 166.045 212.414 166.045 212.414C166.045 212.414 169.712 211.835 177.813 215.51C185.916 219.188 209.065 232.926 209.065 232.926L213.117 235.442C213.117 235.442 214.275 238.152 211.381 242.023C208.487 245.893 205.208 245.505 205.208 245.505L188.039 240.086L184.373 242.02L182.057 246.664L177.428 247.244V247.246Z" fill="#FCAF17"/>
<path d="M185.916 241.067C185.916 241.067 182.057 239.893 175.499 239.893C168.941 239.893 163.152 240.283 161.609 241.653C160.066 243.023 159.1 245.369 160.066 247.128C161.031 248.888 162.932 250.992 168.939 251.039C176.285 251.097 178.971 251.235 184.566 249.084C190.16 246.932 189.002 243.021 189.002 243.021L185.916 241.065V241.067Z" fill="#382A73"/>
<path d="M188.039 239.699L183.859 240.732C183.859 240.732 183.022 243.184 184.373 245.118C185.723 247.052 186.494 247.828 186.494 247.828L192.281 246.473C192.281 246.473 190.393 245.084 189.002 242.99C187.459 240.668 188.037 239.701 188.037 239.701L188.039 239.699Z" fill="#FCC5B6"/>
<path d="M212.346 234.475L221.027 239.119C221.027 239.119 222.57 241.442 221.605 243.376C220.64 245.31 219.289 246.279 219.289 246.279L209.643 243.762C209.643 243.762 211.186 242.987 212.344 239.698C213.502 236.409 212.344 234.473 212.344 234.473L212.346 234.475Z" fill="#FCC5B6"/>
<path d="M218.133 193.642L216.71 186.583L212.177 184.43L206.366 184.324C206.024 184.318 205.797 184.679 205.949 184.986C206.285 185.666 206.976 186.096 207.732 186.093L210.36 186.087L213.213 186.997L208.937 187.568L206.242 189.236C205.63 189.614 205.414 190.404 205.745 191.042L206.394 192.292L206.623 194.286L207.616 195.381C208.143 195.961 208.924 196.24 209.699 196.122L210.405 196.014L211.957 198.284C212.988 199.057 215.109 200.383 216.344 200.018C218.112 199.495 219.118 197.631 218.587 195.86L218.129 193.64L218.133 193.642Z" fill="#FCB19C"/>
<path d="M191.703 194.418L195.138 190.038L198.148 187.477C198.364 187.292 198.606 187.138 198.862 187.02L202.417 185.375L202.426 185.439C202.572 186.637 201.976 187.88 200.9 188.621L198.638 190.182L203.903 189.179L207.946 187.163C208.633 186.766 209.459 186.792 210.03 187.232C210.658 187.713 211.011 188.46 210.996 189.278L210.968 190.978C210.949 192.123 210.409 193.254 209.493 194.066L205.613 197.505C205.178 197.889 204.671 198.186 204.127 198.368L193.403 201.526C192.499 201.793 191.525 201.464 190.965 200.702C189.901 199.253 189.843 197.293 190.821 195.783L191.703 194.422V194.418Z" fill="#FCC5B6"/>
<path d="M200.787 192.292C200.722 192.292 200.665 192.249 200.65 192.185C200.632 192.11 200.677 192.032 200.754 192.015L203.856 191.27C204.534 191.111 205.181 190.843 205.773 190.476L209.829 187.65C209.894 187.605 209.981 187.622 210.024 187.685C210.069 187.749 210.052 187.837 209.988 187.88L205.925 190.71C205.3 191.098 204.628 191.377 203.92 191.543L200.821 192.288C200.81 192.29 200.799 192.292 200.789 192.292H200.787Z" fill="#1A1A1A"/>
<path d="M201.551 194.761C201.488 194.761 201.433 194.72 201.416 194.658C201.394 194.583 201.437 194.505 201.512 194.484L204.209 193.707C204.778 193.539 205.322 193.292 205.825 192.974L210.285 189.692C210.347 189.645 210.435 189.66 210.482 189.722C210.529 189.784 210.514 189.872 210.452 189.919L205.983 193.206C205.45 193.543 204.883 193.801 204.288 193.977L201.589 194.754C201.576 194.759 201.563 194.761 201.551 194.761Z" fill="#1A1A1A"/>
<path d="M202.174 197.027C202.116 197.027 202.06 196.99 202.041 196.932C202.015 196.859 202.056 196.778 202.129 196.754L204.682 195.874C205.39 195.621 206.045 195.247 206.625 194.766L210.574 191.481C210.634 191.432 210.722 191.44 210.771 191.501C210.82 191.561 210.812 191.649 210.752 191.698L206.803 194.983C206.197 195.487 205.515 195.876 204.772 196.14L202.219 197.02C202.204 197.025 202.189 197.029 202.174 197.029V197.027Z" fill="#1A1A1A"/>
<path d="M194.287 163.93L192.052 169.765C191.703 170.673 191.577 171.654 191.678 172.623C192.011 175.774 194.794 178.078 197.942 177.812C199.102 177.713 200.125 177.009 200.632 175.957L205.039 166.817L194.287 163.93Z" fill="#FCC5B6"/>
<path d="M201.35 244.291C201.35 244.291 201.333 244.291 201.324 244.288C192.341 242.562 168.73 230.849 168.492 230.73C168.424 230.696 168.394 230.612 168.428 230.542C168.462 230.473 168.546 230.443 168.616 230.477C168.854 230.595 192.431 242.294 201.375 244.011C201.452 244.026 201.502 244.099 201.487 244.177C201.474 244.243 201.416 244.291 201.35 244.291Z" fill="white"/>
<path d="M211.381 234.036C211.358 234.036 211.336 234.029 211.315 234.019L185.272 219.699C185.203 219.662 185.18 219.576 185.216 219.507C185.253 219.439 185.338 219.413 185.407 219.452L211.45 233.772C211.518 233.808 211.542 233.894 211.505 233.963C211.48 234.01 211.433 234.036 211.381 234.036Z" fill="white"/>
<path d="M203.665 228.809C203.612 228.809 203.563 228.779 203.539 228.729C203.505 228.658 203.535 228.575 203.605 228.54L219.424 220.994C219.495 220.962 219.578 220.989 219.61 221.06C219.645 221.131 219.615 221.215 219.544 221.249L203.725 228.796C203.706 228.804 203.685 228.809 203.665 228.809Z" fill="white"/>
<path d="M197.491 223.197C197.433 223.197 197.379 223.16 197.358 223.102C197.332 223.029 197.371 222.947 197.444 222.922C200.104 221.968 204.136 219.854 204.177 219.834C204.245 219.798 204.331 219.826 204.367 219.895C204.404 219.963 204.376 220.049 204.308 220.086C204.267 220.107 200.217 222.23 197.538 223.19C197.523 223.197 197.506 223.199 197.491 223.199V223.197Z" fill="white"/>
<path d="M161.801 199.398C161.737 199.398 161.677 199.352 161.664 199.286C161.649 199.211 161.696 199.136 161.774 199.118C161.911 199.09 175.561 196.218 182.999 194.861L187.243 194.086H190.162C190.239 194.084 190.304 194.146 190.304 194.226C190.304 194.305 190.241 194.367 190.162 194.367H187.269L183.05 195.138C175.617 196.493 161.97 199.365 161.833 199.395C161.825 199.395 161.814 199.398 161.804 199.398H161.801Z" fill="#1A1A1A"/>
<path d="M173.57 211.974C173.506 211.974 173.451 211.931 173.434 211.867C173.414 211.792 173.461 211.714 173.536 211.697C180.368 210.031 189.627 205.458 190.256 205.145L192.165 202.274C192.208 202.21 192.296 202.19 192.36 202.236C192.424 202.278 192.441 202.366 192.399 202.431L190.449 205.364L190.415 205.381C190.318 205.43 180.672 210.246 173.6 211.972C173.59 211.974 173.579 211.976 173.566 211.976L173.57 211.974Z" fill="#1A1A1A"/>
<path d="M172.605 197.073C172.575 197.073 172.543 197.062 172.517 197.043C172.455 196.995 172.447 196.905 172.494 196.845L178.859 188.717C178.906 188.655 178.994 188.644 179.056 188.693C179.118 188.74 179.129 188.831 179.08 188.891L172.714 197.019C172.687 197.053 172.646 197.073 172.603 197.073H172.605Z" fill="#1A1A1A"/>
<path d="M229.708 198.621C229.683 198.621 229.655 198.615 229.631 198.598C225.976 196.215 222.633 195.216 222.356 195.137H219.097C219.02 195.137 218.956 195.075 218.956 194.995C218.956 194.916 219.018 194.854 219.097 194.854L222.414 194.858C222.449 194.869 225.952 195.86 229.783 198.359C229.847 198.402 229.867 198.488 229.824 198.555C229.798 198.596 229.751 198.619 229.706 198.619L229.708 198.621Z" fill="#1A1A1A"/>
<path d="M214.082 203.654C214.016 203.654 213.956 203.605 213.943 203.536L213.365 200.054C213.352 199.976 213.404 199.903 213.481 199.893C213.556 199.88 213.631 199.931 213.641 200.009L214.219 203.491C214.232 203.568 214.181 203.641 214.104 203.652C214.095 203.652 214.089 203.652 214.08 203.652L214.082 203.654Z" fill="#1A1A1A"/>
<path d="M212.049 162.242C212.567 161.326 212.856 160.297 213.14 159.282C213.28 158.786 213.419 158.288 213.558 157.792C213.723 157.206 213.887 156.604 213.832 155.997C213.772 155.346 213.436 154.713 212.892 154.35C212.349 153.987 211.604 153.929 211.037 154.254C210.6 154.505 210.307 154.938 210.031 155.359C209.641 155.95 209.252 156.542 208.864 157.133C208.475 157.725 208.079 158.331 207.882 159.011C207.561 160.125 207.803 161.323 208.151 162.429C208.295 162.88 208.462 163.335 208.774 163.687C209.971 165.029 211.452 163.294 212.047 162.24L212.049 162.242Z" fill="#5C49D8"/>
<path d="M212.657 152.254C211.944 150.74 210.281 149.924 208.667 149.512C205.457 148.69 201.962 149.04 198.974 150.483C197.914 150.996 196.898 151.655 196.161 152.576C194.736 154.36 194.537 156.842 193.484 158.858C193.238 158.695 192.955 158.583 192.664 158.544C191.872 158.439 191.063 158.808 190.526 159.401C189.989 159.994 189.7 160.784 189.604 161.578C189.49 162.501 189.636 163.497 190.209 164.229C190.999 165.236 192.371 165.522 193.629 165.739C193.099 168.002 193.895 170.43 195.158 172.308C196.645 174.522 198.847 175.907 201.459 176.422C203.821 176.888 205.936 175.932 207.332 173.996C208.556 172.296 209.089 170.204 209.596 168.169C210.694 163.77 211.79 159.369 212.888 154.97C213.108 154.09 213.044 153.074 212.657 152.256V152.254Z" fill="#FCC5B6"/>
<path d="M200.553 159.393C200.269 159.358 199.978 159.335 199.736 159.367C199.494 159.399 199.31 159.502 199.331 159.648C199.357 159.841 199.714 160.041 200.065 160.181C200.892 160.511 201.827 160.689 202.728 160.822C203.16 160.887 203.642 160.941 203.914 160.822C204.145 160.722 204.147 160.509 203.941 160.32C203.798 160.187 203.567 160.125 203.334 160.047C202.42 159.745 201.51 159.509 200.556 159.393H200.553Z" fill="#5C49D8"/>
<path d="M209.951 161.055C210.221 161.154 210.49 161.267 210.69 161.411C210.889 161.555 211.006 161.738 210.921 161.866C210.807 162.038 210.398 162.06 210.022 162.03C209.134 161.959 208.22 161.69 207.357 161.398C206.942 161.259 206.49 161.085 206.304 160.847C206.146 160.643 206.242 160.443 206.512 160.359C206.702 160.301 206.935 160.348 207.177 160.385C208.13 160.525 209.048 160.722 209.951 161.057V161.055Z" fill="#5C49D8"/>
<path d="M201.099 163.082C200.996 163.518 200.701 163.82 200.44 163.758C200.179 163.696 200.053 163.292 200.155 162.856C200.258 162.42 200.553 162.118 200.815 162.18C201.076 162.242 201.202 162.646 201.099 163.082Z" fill="#1A1A1A"/>
<path d="M207.884 164.767C207.781 165.203 207.486 165.506 207.225 165.444C206.964 165.381 206.837 164.978 206.94 164.542C207.043 164.106 207.338 163.803 207.599 163.866C207.86 163.928 207.987 164.331 207.884 164.767Z" fill="#1A1A1A"/>
<path d="M203.321 170.739C203.321 170.739 203.301 170.739 203.291 170.737C201.852 170.462 200.583 169.397 200.061 168.023C200.031 167.944 200.069 167.854 200.151 167.824C200.23 167.791 200.32 167.832 200.35 167.914C200.836 169.189 202.013 170.177 203.348 170.432C203.432 170.447 203.487 170.529 203.47 170.612C203.455 170.688 203.391 170.739 203.318 170.739H203.321Z" fill="black"/>
<path d="M200.342 176.167C200.331 176.167 200.318 176.167 200.305 176.163C198.572 175.755 196.953 174.825 195.748 173.546C194.173 171.873 193.27 169.591 193.27 167.289C193.27 167.203 193.339 167.135 193.424 167.135C193.51 167.135 193.578 167.203 193.578 167.289C193.578 169.514 194.449 171.716 195.971 173.333C197.133 174.567 198.698 175.467 200.374 175.862C200.457 175.881 200.508 175.965 200.489 176.049C200.472 176.12 200.408 176.169 200.339 176.169L200.342 176.167Z" fill="black"/>
<path d="M193.355 160.363C193.432 160.355 193.509 160.327 193.586 160.271C194.374 159.71 195.035 158.701 195.654 157.965C196.347 157.141 197.454 157.068 198.15 156.247C198.496 155.837 198.417 154.669 198.777 154.272C198.933 154.1 199.566 153.22 199.787 153.22C202.554 153.493 204.913 154.704 207.595 155.438C208.934 155.805 210.505 155.786 211.984 156.037C212.633 156.147 213.388 156.565 213.881 156.071C214.3 155.653 214.696 155.206 215.024 154.712C215.383 154.169 215.661 153.568 215.777 152.924C216.074 151.288 215.325 149.663 214.598 148.169C214.033 147.007 212.742 145.502 211.58 144.937C210.493 144.411 209.176 144.6 208.063 144.13C207.237 143.78 206.561 143.082 205.683 142.898C204.727 142.696 203.772 143.147 202.852 143.48C201.384 144.01 199.815 144.259 198.257 144.207C197.375 144.177 196.489 144.055 195.611 144.139C194.734 144.222 193.828 144.553 193.287 145.253C192.63 146.101 192.643 147.278 192.268 148.282C191.859 149.371 191.005 150.227 190.442 151.245C189.785 152.434 190.323 153.978 190.096 155.318C189.995 155.917 189.894 156.544 190.076 157.123C190.323 157.911 191.033 158.448 191.701 158.929C192.165 159.264 191.855 159.421 192.319 159.753C192.636 159.981 192.991 160.4 193.353 160.361L193.355 160.363Z" fill="#333333"/>
<path d="M205.226 163.517C205.275 163.741 205.399 163.943 205.508 164.147C205.808 164.698 206.03 165.287 206.167 165.892C206.199 166.032 206.225 166.178 206.187 166.313C206.133 166.497 205.968 166.631 205.801 166.734C205.311 167.038 204.731 167.193 204.164 167.343C204.021 167.382 203.852 167.414 203.734 167.324C203.61 167.232 203.61 167.056 203.633 166.91C203.74 166.223 204.081 165.591 204.205 164.909C204.305 164.348 204.258 163.764 204.369 163.206C204.406 163.028 204.459 162.848 204.579 162.708C204.699 162.569 204.898 162.478 205.086 162.523C205.266 162.566 205.41 162.757 205.339 162.923C205.251 163.129 205.174 163.281 205.228 163.517H205.226Z" fill="#FCC5B6"/>
<path d="M204.07 167.68C204.01 167.68 203.954 167.646 203.928 167.588C203.894 167.511 203.928 167.418 204.005 167.384L205.608 166.663C205.992 166.491 206.176 166.046 206.024 165.651L205.189 163.47C205.058 163.129 205.105 162.747 205.315 162.448C205.364 162.377 205.461 162.362 205.531 162.412C205.602 162.461 205.617 162.558 205.568 162.629C205.418 162.843 205.384 163.116 205.478 163.361L206.313 165.542C206.522 166.089 206.268 166.706 205.735 166.946L204.132 167.667C204.11 167.676 204.089 167.68 204.067 167.68H204.07Z" fill="black"/>
<path d="M193.762 158.851C194.074 158.974 194.383 159.145 194.573 159.422C194.798 159.744 194.834 160.163 194.8 160.554C194.766 160.947 194.661 161.355 194.389 161.642C194.141 161.906 193.781 162.042 193.424 162.087C192.797 162.166 192.14 161.984 191.641 161.593C191.414 161.415 191.213 161.183 191.157 160.902C191.099 160.605 191.206 160.305 191.313 160.024C191.429 159.719 190.939 159.3 191.054 158.995C191.129 158.798 191.791 158.649 192.022 158.596C192.555 158.469 193.265 158.658 193.76 158.851H193.762Z" fill="#FCC5B6"/>
<path d="M191.699 162.83C191.686 162.83 191.671 162.83 191.658 162.824C191.577 162.8 191.528 162.717 191.551 162.633C191.808 161.695 192.581 160.935 193.52 160.696C193.602 160.675 193.687 160.724 193.709 160.808C193.73 160.892 193.679 160.976 193.597 160.997C192.765 161.21 192.078 161.884 191.849 162.715C191.83 162.783 191.767 162.828 191.699 162.828V162.83Z" fill="black"/>
<path d="M197.3 180.825C196.016 180.825 194.734 180.522 193.608 179.908C191.134 178.56 189.503 175.758 189.546 172.933C189.546 172.855 189.61 172.804 189.689 172.793C189.766 172.793 189.828 172.857 189.828 172.937C189.785 175.659 191.361 178.36 193.743 179.659C196.127 180.958 199.243 180.814 201.497 179.298C201.561 179.255 201.649 179.272 201.692 179.337C201.735 179.401 201.718 179.489 201.653 179.532C200.38 180.389 198.839 180.825 197.302 180.825H197.3Z" fill="#1A1A1A"/>
<path d="M162.14 220.239C162.118 220.239 162.095 220.233 162.073 220.222C162.005 220.186 161.979 220.1 162.016 220.031C162.91 218.361 163.967 216.768 165.153 215.295C165.202 215.235 165.29 215.224 165.35 215.273C165.41 215.323 165.421 215.411 165.372 215.471C164.194 216.931 163.15 218.509 162.262 220.164C162.236 220.211 162.189 220.239 162.138 220.239H162.14Z" fill="white"/>
<path d="M236.605 216.574C236.59 216.574 236.572 216.572 236.557 216.565L233.229 215.363C233.156 215.337 233.118 215.256 233.146 215.183C233.171 215.11 233.253 215.071 233.326 215.099L236.654 216.301C236.726 216.327 236.765 216.409 236.737 216.482C236.716 216.54 236.662 216.574 236.605 216.574Z" fill="white"/>
<path d="M172.633 246.658C172.593 246.658 172.552 246.643 172.522 246.613C172.49 246.583 172.471 246.543 172.471 246.497L172.377 243.397C172.374 243.311 172.439 243.236 172.524 243.228L182.076 242.287C182.168 242.283 182.248 242.345 182.256 242.435C182.265 242.526 182.198 242.607 182.108 242.616L172.71 243.539L172.794 246.317L182.179 245.948C182.271 245.948 182.346 246.014 182.35 246.107C182.355 246.197 182.284 246.274 182.192 246.278L172.64 246.654C172.64 246.654 172.635 246.654 172.633 246.654V246.658Z" fill="white"/>
<path d="M163.512 248.843C163.456 248.843 163.4 248.813 163.37 248.761C162.167 246.709 162.307 243.935 163.706 242.013C163.76 241.94 163.863 241.923 163.937 241.977C164.01 242.03 164.027 242.133 163.974 242.209C162.647 244.027 162.516 246.653 163.655 248.594C163.7 248.673 163.674 248.774 163.597 248.819C163.571 248.834 163.542 248.843 163.514 248.843H163.512Z" fill="white"/>
<path d="M230.573 244.052C228.221 244.052 225.531 244.028 224.221 243.934C224.131 243.928 224.062 243.848 224.069 243.758C224.075 243.668 224.154 243.599 224.244 243.606C226.622 243.775 233.569 243.713 234.738 243.7L234.652 240.55L224.041 240.366C223.951 240.366 223.878 240.288 223.88 240.198C223.88 240.108 223.955 240.035 224.045 240.035C224.045 240.035 224.045 240.035 224.047 240.035L234.815 240.224C234.903 240.224 234.974 240.297 234.976 240.385L235.07 243.861C235.07 243.906 235.055 243.949 235.025 243.979C234.995 244.011 234.952 244.028 234.907 244.031C234.867 244.031 232.882 244.054 230.571 244.054L230.573 244.052Z" fill="white"/>
<path d="M241.733 245.526C241.7 245.526 241.67 245.517 241.643 245.498C241.568 245.446 241.546 245.345 241.598 245.268C242.597 243.759 242.572 241.67 241.538 240.184C241.486 240.109 241.504 240.006 241.578 239.954C241.653 239.901 241.756 239.92 241.807 239.995C242.918 241.588 242.944 243.832 241.872 245.45C241.84 245.498 241.788 245.523 241.735 245.523L241.733 245.526Z" fill="white"/>
<g opacity="0.2">
<path d="M152.812 253.1C211.238 253.1 258.602 251.758 258.602 250.103C258.602 248.447 211.238 247.105 152.812 247.105C94.3858 247.105 47.022 248.447 47.022 250.103C47.022 251.758 94.3858 253.1 152.812 253.1Z" fill="#E1E1E1"/>
</g>
<defs>
<clipPath id="clip0_288_41457">
<rect width="231.388" height="200" fill="white" transform="translate(16 29)"/>
</clipPath>
</defs>
</svg>
