<svg width="266" height="266" viewBox="0 0 266 266" fill="none" xmlns="http://www.w3.org/2000/svg">
<g clip-path="url(#clip0_288_46299)">
<path d="M266 0H0V266H266V0Z" fill="white"/>
<path d="M137.846 209.6C181.475 209.6 216.843 174.232 216.843 130.603C216.843 86.9745 181.475 51.6064 137.846 51.6064C94.2176 51.6064 58.8496 86.9745 58.8496 130.603C58.8496 174.232 94.2176 209.6 137.846 209.6Z" fill="#F7E7D5"/>
<path d="M137.847 216.398C117.202 216.398 97.2525 208.961 81.6729 195.453L81.8564 195.243C97.3855 208.706 117.269 216.119 137.847 216.119C160.688 216.119 182.162 207.224 198.314 191.072C214.465 174.921 223.36 153.447 223.36 130.605C223.36 105.503 212.391 81.7651 193.262 65.4726L193.443 65.2598C212.635 81.6028 223.64 105.42 223.64 130.605C223.64 153.521 214.715 175.067 198.511 191.269C182.306 207.474 160.763 216.398 137.847 216.398Z" fill="#DBC5AF"/>
<path d="M101.838 245.888C101.838 245.888 127.518 245.888 155.99 246.446C184.463 247.005 212.377 250.912 212.377 250.912C212.377 250.912 163.249 252.588 130.311 252.03C97.3718 251.471 46.0099 250.354 42.661 250.354C39.312 250.354 57.7352 245.888 101.838 245.888Z" fill="#C7CFE2"/>
<path d="M139.557 48.3006L139.485 48.0319C140.592 47.7393 141.414 46.2896 141.688 44.1563C142.39 38.6873 139.69 34.0908 136.66 32.3778L136.798 32.1357C139.251 33.5216 140.528 35.8677 141.166 37.5914C141.943 39.6875 142.233 42.0948 141.964 44.1935C141.674 46.4439 140.775 47.9814 139.557 48.3032V48.3006Z" fill="#060D1E"/>
<path d="M71.6318 160.044L61.3323 156.78L59.5049 163.563L68.4265 166.88L71.6318 160.044Z" fill="#F78E54"/>
<path d="M61.9125 156.416L59.5876 164.015L53.459 161.784L55.8104 154.873L61.9125 156.416Z" fill="#E0E0E0"/>
<path d="M55.6689 157.887C54.7698 159.507 55.4987 162.633 55.895 163.593C56.2914 164.553 53.7723 163.907 50.1095 167.093C46.4494 170.28 46.1834 171.959 45.3029 172.004C44.4224 172.049 43.7441 171.764 43.7441 171.764L50.8171 151.227C50.8171 151.227 53.2749 151.612 55.7115 154.23C55.7115 154.23 56.8925 153.695 57.3367 153.924C57.781 154.153 56.9537 155.573 55.6689 157.885V157.887Z" fill="#8ED8ED"/>
<path d="M44.1193 172.288C44.4677 172.121 51.6125 151.49 51.4768 151.072C51.3412 150.652 50.7267 150.556 50.5033 150.721C50.2772 150.886 43.2893 171.397 43.292 171.847C43.2947 172.299 43.7708 172.456 44.1219 172.288H44.1193Z" fill="#4396BF"/>
<path d="M53.1955 165.047L51.9506 162.683L51.4824 162.901L52.4187 165.377L53.1955 165.047Z" fill="#4396BF"/>
<path d="M51.7373 165.803L50.535 163.869L50.1865 164.159L51.2 166.213L51.7373 165.803Z" fill="#4396BF"/>
<path d="M50.4717 166.742L49.2082 164.957L48.9502 165.271L49.9051 167.17L50.4717 166.742Z" fill="#4396BF"/>
<path d="M117.806 142.667C117.806 142.667 111.473 156.533 108.906 172.794C108.906 172.794 105.826 166.117 98.4655 163.721C91.1053 161.324 70.2216 158.244 70.2216 158.244L66.6279 167.657C66.6279 167.657 84.0882 177.928 91.4484 181.694C98.8086 185.461 105.142 191.281 110.962 190.081C116.782 188.884 127.739 176.731 133.559 164.574C139.379 152.421 117.812 142.664 117.812 142.664L117.806 142.667Z" fill="#DD8F05"/>
<path d="M69.0834 169.12L68.8174 169.033C69.094 168.203 72.4137 158.797 72.4456 158.701L72.709 158.794C72.6744 158.89 69.3574 168.293 69.0807 169.12H69.0834Z" fill="#0B1530"/>
<path d="M110.311 183.136C106.72 183.136 102.669 179.72 98.4312 176.145C96.9709 174.914 95.4627 173.642 93.989 172.538C87.3922 167.591 68.2801 163.946 68.0859 163.909L68.1365 163.635C68.3307 163.672 87.5066 167.327 94.1539 172.315C95.6329 173.424 97.1464 174.701 98.6094 175.932C103.916 180.409 108.93 184.636 112.979 182.077C118.184 178.789 131.216 145.082 131.346 144.741L131.607 144.842C131.575 144.927 128.282 153.461 124.382 162.295C119.139 174.174 115.351 180.909 113.128 182.314C112.226 182.883 111.284 183.136 110.311 183.136Z" fill="#060D1E"/>
<path d="M179.431 224.148L186.45 232.365L191.584 227.571L185.764 220.038L179.431 224.148Z" fill="#F78E54"/>
<path d="M185.764 232.364L191.757 227.143L195.779 232.276L190.129 236.899L185.764 232.364Z" fill="#E0E0E0"/>
<path d="M191.842 234.418C193.46 233.519 194.494 230.481 194.667 229.455C194.837 228.428 196.636 230.311 201.429 229.54C206.222 228.768 207.334 227.486 208.105 227.915C208.877 228.343 209.302 228.941 209.302 228.941L192.441 242.635C192.441 242.635 190.557 241.01 189.874 237.498C189.874 237.498 188.589 237.328 188.334 236.9C188.078 236.472 189.531 235.703 191.842 234.418Z" fill="#8ED8ED"/>
<path d="M209.26 228.297C208.874 228.254 191.906 241.991 191.8 242.419C191.693 242.847 192.164 243.254 192.441 243.233C192.72 243.212 209.494 229.497 209.731 229.111C209.965 228.725 209.646 228.34 209.26 228.297Z" fill="#4396BF"/>
<path d="M197.726 229.646L197.534 232.309L198.048 232.376L198.561 229.774L197.726 229.646Z" fill="#4396BF"/>
<path d="M199.362 229.774V232.053L199.812 231.99L200.038 229.71L199.362 229.774Z" fill="#4396BF"/>
<path d="M200.937 229.646L201.064 231.827L201.45 231.699L201.641 229.582L200.937 229.646Z" fill="#4396BF"/>
<path d="M123.799 124.693C123.799 124.693 115.926 126.92 113.872 135.99C111.76 145.324 119.349 157.557 128.766 165.774C138.179 173.991 144.172 180.495 145.199 183.405C146.226 186.315 149.822 199.325 156.326 205.658C162.83 211.992 179.606 225.515 179.606 225.515L186.623 220.892C186.623 220.892 162.439 181.024 161.069 178.284C159.699 175.544 145.752 135.785 144.042 133.902C142.329 132.019 123.802 124.69 123.802 124.69L123.799 124.693Z" fill="#1C548C"/>
<path d="M123.799 124.693C123.799 124.693 115.926 126.92 113.872 135.99C111.76 145.324 119.349 157.557 128.766 165.774C138.179 173.991 144.172 180.495 145.199 183.405C146.226 186.315 149.822 199.325 156.326 205.658C162.83 211.992 179.606 225.515 179.606 225.515L186.623 220.892C186.623 220.892 162.439 181.024 161.069 178.284C159.699 175.544 145.752 135.785 144.042 133.902C142.329 132.019 123.802 124.69 123.802 124.69L123.799 124.693Z" fill="#FCCC25"/>
<path d="M177.377 223.578L177.138 223.434C178.816 220.638 184.764 217.912 185.017 217.795L185.131 218.05C185.07 218.077 179.01 220.857 177.377 223.578Z" fill="#0B1530"/>
<path d="M186.62 220.895C186.62 220.895 183.756 216.173 179.941 209.866C164.146 198.165 157.956 185.253 154.267 181.364C131.239 157.081 124.959 129.029 124.959 129.029L120.022 126.635C117.697 128.281 114.963 131.17 113.869 135.993C111.757 145.327 119.346 157.56 128.763 165.777C138.177 173.993 144.169 180.497 145.196 183.407C146.223 186.317 149.819 199.327 156.323 205.661C162.827 211.994 179.603 225.518 179.603 225.518L186.62 220.895Z" fill="#F9A600"/>
<path d="M183.251 223.102C183.086 222.948 166.7 207.637 160.619 198.795C156.677 193.063 154.209 187.814 151.823 182.739C148.492 175.661 145.348 168.979 138.578 161.403C127.803 149.346 127.933 133.83 127.936 133.673L128.215 133.678C128.215 133.832 128.085 149.242 138.786 161.217C145.582 168.822 148.734 175.525 152.073 182.62C154.456 187.684 156.919 192.922 160.848 198.635C166.91 207.453 183.274 222.743 183.439 222.897L183.248 223.102H183.251Z" fill="#060D1E"/>
<path d="M161.854 68.0769C161.854 68.0769 164.928 66.4437 169.389 59.9825C173.534 53.9842 178.726 43.5491 187.398 33.3027L189.055 34.4226C189.055 34.4226 179.593 65.9409 171.624 72.825C169.576 74.5939 161.854 68.0796 161.854 68.0796V68.0769Z" fill="#F78E54"/>
<path d="M122.635 63.3316C122.635 63.3316 118.998 60.0092 115.237 53.7024C111.473 47.3902 107.201 37.9977 98.3887 27.1875L96.7129 28.2754C96.7129 28.2754 102.895 53.9817 109.098 62.4937C112.657 67.3774 114.237 69.8725 116.277 70.8674C122.401 73.8519 122.637 63.3316 122.637 63.3316H122.635Z" fill="#F78E54"/>
<path d="M76.4031 56.9668C72.5115 63.013 70.4075 68.8171 71.5007 74.1823C71.5007 74.1823 80.5235 89.3629 100.979 92.3741C121.11 95.3373 132 100.027 146.864 105.727C154.69 108.728 162.731 117.461 162.044 120.95C162.044 120.95 168.205 116.83 165.197 110.771C162.188 104.708 154.847 97.9441 132.971 91.8766C111.262 85.8544 113.704 87.9585 96.8319 82.3379C89.4052 79.8641 76.0201 71.6952 76.4031 56.9695V56.9668Z" fill="#F9A600"/>
<path d="M140.211 49.782C140.211 49.782 138.405 32.4867 127.797 32.907C127.797 32.907 123.405 33.8885 123.052 39.8841C122.772 44.6296 118.649 43.3501 118.774 45.8186C118.774 45.8186 125.565 57.4694 139.179 51.511L140.211 49.782Z" fill="#44170F"/>
<path d="M137.708 50.2719C137.708 50.2719 142.158 44.0661 149.731 45.9467C159.56 48.3859 157.052 60.1697 157.052 60.1697C157.052 60.1697 150.899 68.3333 145.305 68.554C139.711 68.7775 127.781 58.5817 137.708 50.2719Z" fill="#44170F"/>
<g style="mix-blend-mode:multiply" opacity="0.5">
<path d="M135.381 52.7799C130.736 59.5442 137.993 66.7262 143.249 68.2584C137.33 63.0581 137.197 51.9819 137.197 51.9819C128.51 51.7478 124.637 45.3664 122.961 40.6875C122.288 44.4886 118.66 43.5018 118.774 45.8213C118.774 45.8213 124.302 55.3015 135.381 52.7825V52.7799Z" fill="#2F0015"/>
</g>
<path d="M154.421 51.5564C156.786 53.1285 159.869 72.1767 153.323 72.1874C145.689 72.198 142.103 65.556 142.103 65.556C142.103 65.556 137.719 64.1355 139.371 61.1776C140.366 59.3981 142.544 60.9169 142.544 60.9169C142.544 60.9169 141.574 54.0861 144.712 52.2427C147.806 50.4232 152.054 49.987 154.419 51.5591L154.421 51.5564Z" fill="#F78E54"/>
<path d="M147.282 67.2952C147.2 72.0459 147.679 76.5067 148.767 80.6617C145.857 81.9039 143.016 83.6595 139.385 80.0525C141.146 73.9691 141.864 69.1625 142.151 64.8799L147.28 67.2952H147.282Z" fill="#F78E54"/>
<path d="M142.544 60.914C142.544 60.914 144.435 59.4909 145.111 57.2805C145.787 55.07 148.534 54.3864 152.36 55.3014C155.105 55.9558 156.687 53.3596 156.687 53.3596L152.86 48.4307L141.895 51.5828L141.062 58.2567L142.547 60.9167L142.544 60.914Z" fill="#44170F"/>
<path d="M112.587 68.3618L122.772 62.4912C122.772 62.4912 133.729 75.6316 139.943 77.7038C139.943 77.7038 139.693 81.6539 144.007 81.6539C148.322 81.6539 147.851 77.9831 147.851 77.9831C147.851 77.9831 159.201 73.0222 162.481 64.9065L175.156 70.2159C175.156 70.2159 168.87 81.1352 158.336 90.4585C158.336 90.4585 157.129 127.06 148.151 137.764C148.151 137.764 122.945 138.283 109.305 124.123C109.305 124.123 121.046 112.901 126.914 87.0031C126.914 87.0031 115.002 73.7084 112.584 68.3565L112.587 68.3618Z" fill="white"/>
<g style="mix-blend-mode:multiply" opacity="0.5">
<path d="M134.333 136.351C123.089 119.915 135.565 91.0168 131.428 86.5002C129.213 84.0822 119.865 71.7026 116.596 66.0527L112.59 68.3616C115.008 73.7135 126.92 87.0082 126.92 87.0082C121.049 112.906 109.311 124.129 109.311 124.129C116.269 131.35 126.239 134.753 134.333 136.354V136.351Z" fill="#2B6DA3"/>
</g>
<path d="M187.254 34.3112C187.254 34.3112 188.025 29.3742 188.334 27.06C188.642 24.7458 187.562 20.5802 188.334 20.426C189.105 20.2717 189.26 24.4372 189.26 24.4372C189.26 24.4372 190.648 19.0374 191.265 19.1917C191.882 19.346 190.494 24.283 190.494 24.283C190.494 24.283 192.037 18.1118 192.654 18.5746C193.271 19.0374 191.728 25.3629 191.728 25.3629C191.728 25.3629 192.962 20.7345 193.425 21.3516C193.888 21.9688 192.037 29.6854 192.037 29.6854C192.037 29.6854 194.351 27.8341 194.814 28.2969C195.276 28.7597 191.728 32.1539 190.802 32.771C189.877 33.3881 187.871 36.1652 187.871 36.1652L187.254 34.3138V34.3112Z" fill="#F78E54"/>
<path d="M143.593 81.8106C142.598 81.8106 141.776 81.518 141.143 80.9381C139.842 79.7464 139.808 77.7887 139.808 77.7036H140.087C140.087 77.7195 140.121 79.6241 141.332 80.7333C141.994 81.3398 142.891 81.6031 144 81.5154C147.859 81.2095 148.173 77.4562 148.176 77.4189L148.455 77.4376C148.453 77.4775 148.12 81.4701 144.024 81.792C143.877 81.8026 143.734 81.8106 143.595 81.8106H143.593Z" fill="#060D1E"/>
<path d="M122.705 62.3637L112.518 68.2334L112.657 68.4754L122.844 62.6057L122.705 62.3637Z" fill="#060D1E"/>
<path d="M162.537 64.7785L162.429 65.0361L175.103 70.3457L175.211 70.0881L162.537 64.7785Z" fill="#060D1E"/>
<path d="M143.888 82.8746C143.827 82.8746 143.768 82.8746 143.704 82.8746C142.191 82.8347 140.986 82.3399 140.121 81.4063C138.568 79.7278 138.677 77.2487 138.682 77.1449L138.961 77.1582C138.961 77.1822 138.855 79.6267 140.329 81.2174C141.137 82.0925 142.276 82.5554 143.712 82.5926C143.771 82.5926 143.829 82.5926 143.885 82.5926C148.721 82.5926 149.703 77.0412 149.711 76.9854L149.985 77.0306C149.974 77.0891 148.95 82.8719 143.885 82.8719L143.888 82.8746Z" fill="#060D1E"/>
<path d="M148.375 60.3848C148.048 60.3848 147.782 60.6508 147.782 60.9779C147.782 61.3051 148.048 61.5711 148.375 61.5711C148.703 61.5711 148.969 61.3051 148.969 60.9779C148.969 60.6508 148.703 60.3848 148.375 60.3848Z" fill="#2F0015"/>
<path d="M154.852 59.1738C154.525 59.1738 154.259 59.4398 154.259 59.767C154.259 60.0942 154.525 60.3602 154.852 60.3602C155.179 60.3602 155.445 60.0942 155.445 59.767C155.445 59.4398 155.179 59.1738 154.852 59.1738Z" fill="#2F0015"/>
<g style="mix-blend-mode:multiply" opacity="0.3">
<path d="M152.594 59.5439C152.594 59.5439 152.557 61.5655 154.328 64.2841C154.328 64.2841 150.926 63.9037 152.594 59.5439Z" fill="#B63E0F"/>
</g>
<path d="M149.606 66.1225C149.744 66.1225 152.434 66.9604 155.083 65.5293C155.083 65.5293 154.735 68.7745 152.814 68.9501C150.896 69.1256 149.604 66.1225 149.604 66.1225H149.606Z" fill="white"/>
<path d="M148.735 57.9585C148.735 57.9585 148.673 57.9904 148.572 58.0409C148.476 58.0888 148.341 58.1553 148.176 58.2378C148.024 58.3123 147.849 58.3974 147.66 58.4905C147.572 58.5437 147.476 58.5809 147.386 58.6341C147.293 58.6847 147.2 58.7299 147.112 58.7857C147.016 58.831 146.934 58.8921 146.843 58.9427C146.75 58.9906 146.673 59.0544 146.585 59.1049C146.495 59.1528 146.423 59.2193 146.341 59.2672C146.258 59.3151 146.186 59.3736 146.114 59.4241C146.045 59.4747 145.968 59.5146 145.912 59.5625C145.856 59.6077 145.798 59.6449 145.753 59.6768C145.66 59.7407 145.596 59.7753 145.596 59.7753C145.596 59.7753 145.596 59.7088 145.609 59.5917C145.617 59.5332 145.625 59.464 145.646 59.3842C145.662 59.3044 145.697 59.222 145.731 59.1289C145.769 59.0384 145.811 58.9347 145.878 58.8416C145.942 58.7485 146.003 58.6394 146.09 58.5517C146.178 58.4612 146.261 58.3601 146.37 58.283C146.474 58.2005 146.583 58.1207 146.7 58.0569C147.168 57.7882 147.713 57.7084 148.104 57.7616C148.301 57.7856 148.461 57.8335 148.57 57.8787C148.679 57.9212 148.735 57.9611 148.735 57.9611V57.9585Z" fill="#2F0015"/>
<path d="M153.094 56.9828C153.094 56.9828 153.115 56.9269 153.174 56.8498C153.229 56.77 153.32 56.6715 153.445 56.5705C153.573 56.4747 153.735 56.3816 153.932 56.3231C154.027 56.2885 154.134 56.2752 154.24 56.2592C154.349 56.2539 154.461 56.2459 154.575 56.2592C154.687 56.2752 154.801 56.2912 154.908 56.3337C155.017 56.3656 155.115 56.4188 155.206 56.4747C155.299 56.5252 155.376 56.5997 155.445 56.6662C155.517 56.7301 155.57 56.8045 155.613 56.8764C155.706 57.0147 155.743 57.1503 155.762 57.2461C155.783 57.3392 155.783 57.3977 155.783 57.3977C155.783 57.3977 155.722 57.3844 155.637 57.3578C155.594 57.3445 155.541 57.3286 155.488 57.3073C155.435 57.286 155.365 57.278 155.304 57.2567C155.243 57.2355 155.179 57.2142 155.107 57.2035C155.041 57.1876 154.974 57.1663 154.905 57.1583C154.871 57.153 154.836 57.145 154.804 57.137C154.77 57.1317 154.732 57.1291 154.698 57.1237C154.629 57.1104 154.557 57.1025 154.485 57.0971C154.413 57.0812 154.339 57.0892 154.264 57.0732C154.19 57.0732 154.115 57.0599 154.038 57.0599C153.876 57.0493 153.727 57.0413 153.596 57.0333C153.458 57.0227 153.333 57.012 153.243 57.004C153.152 56.9934 153.094 56.9854 153.094 56.9854V56.9828Z" fill="#2F0015"/>
<path d="M27.9089 108.799C27.9089 108.799 32.4921 96.2893 52.5379 92.7276C72.5863 89.1632 106.69 101.865 116.04 106.19C125.39 110.515 148.471 124.105 158.706 123.48C168.942 122.855 170.014 119.248 170.014 119.248C170.014 119.248 169.596 135.54 158.252 134.692C146.907 133.843 112.744 117.564 103.972 113.132C95.1989 108.701 67.5429 95.5924 50.2609 100.862C32.9789 106.131 28.3452 119.008 28.3452 119.008C26.8635 115.726 26.3661 112.356 27.9063 108.799H27.9089Z" fill="#FCCC25"/>
<g style="mix-blend-mode:multiply" opacity="0.3">
<path d="M140.004 62.2443C140.004 62.2443 140.536 60.3823 141.6 61.6245C142.664 62.8667 141.512 62.9545 141.512 62.9545C141.512 62.9545 141.823 61.8453 141.246 61.8027C140.669 61.7575 140.004 62.2469 140.004 62.2469V62.2443Z" fill="#B63E0F"/>
</g>
<g clip-path="url(#clip1_288_46299)">
<path d="M99.0004 28.9565L97.7507 20.5123C97.7507 20.5123 97.1083 15.1849 96.4688 14.6867C95.8263 14.1885 96.4688 20.0141 96.4688 20.0141C96.4688 20.0141 95.0431 13.1049 94.1865 12.8558C93.3299 12.6068 94.9697 19.5128 94.9697 19.5128C94.9697 19.5128 93.6878 11.5232 92.6171 12.0214C91.5463 12.5196 93.4737 20.2601 93.4737 20.2601C93.4737 20.2601 92.7608 13.27 91.9042 14.0172C91.0476 14.7676 92.8312 22.2559 92.8312 22.2559C92.8312 22.2559 90.4785 19.2606 90.0502 20.0079C89.622 20.7583 92.045 22.4615 93.0131 24.9555C94.21 28.0411 98.3931 29.9934 98.3931 29.9934L99.0004 28.9503V28.9565Z" fill="#F78E54"/>
</g>
<g clip-path="url(#clip2_288_46299)">
<path d="M181.162 108.597L184.894 106.215C185.123 106.07 185.423 106.134 185.57 106.36C185.716 106.586 185.652 106.883 185.423 107.028L181.691 109.41C181.463 109.555 181.162 109.491 181.016 109.265C180.869 109.039 180.934 108.742 181.162 108.597Z" fill="#1B3DC8"/>
<path d="M184.097 99.1471C183.457 99.6525 182.971 99.7267 182.542 99.7938C182.174 99.8503 181.884 99.8963 181.444 100.243C181.005 100.589 180.894 100.857 180.758 101.197C180.597 101.593 180.415 102.045 179.772 102.547C179.132 103.052 178.646 103.126 178.217 103.193C177.849 103.25 177.559 103.296 177.12 103.642C176.68 103.988 176.569 104.257 176.433 104.596C176.273 104.992 176.09 105.444 175.447 105.946C174.807 106.452 174.321 106.526 173.892 106.593C173.524 106.649 173.234 106.695 172.795 107.042C172.355 107.388 172.244 107.657 172.109 107.996C171.948 108.392 171.765 108.844 171.122 109.346C170.482 109.851 169.996 109.925 169.567 109.992C169.199 110.049 168.91 110.095 168.47 110.441C168.259 110.607 167.952 110.572 167.784 110.363C167.616 110.155 167.651 109.851 167.862 109.685C168.502 109.18 168.988 109.105 169.417 109.038C169.785 108.982 170.075 108.936 170.514 108.589C170.954 108.243 171.065 107.975 171.201 107.635C171.362 107.24 171.544 106.787 172.187 106.285C172.827 105.78 173.313 105.706 173.742 105.639C174.11 105.582 174.4 105.536 174.839 105.19C175.279 104.844 175.39 104.575 175.526 104.236C175.686 103.84 175.869 103.388 176.512 102.886C177.152 102.381 177.638 102.306 178.067 102.239C178.435 102.183 178.724 102.137 179.164 101.79C179.604 101.444 179.715 101.176 179.85 100.836C180.011 100.44 180.193 99.9882 180.837 99.4864C181.48 98.9846 181.963 98.9068 182.392 98.8397C182.76 98.7831 183.049 98.7372 183.489 98.3909C183.929 98.0446 184.039 97.776 184.175 97.4332C184.336 97.0374 184.518 96.5851 185.162 96.0833C185.373 95.9172 185.68 95.9525 185.848 96.161C186.016 96.3695 185.98 96.6734 185.769 96.8395C185.33 97.1859 185.219 97.4544 185.083 97.7972C184.922 98.193 184.74 98.6453 184.097 99.1471Z" fill="#00BA8E"/>
<path d="M175.279 127.545C175.122 127.517 175.015 127.368 175.04 127.213C175.068 127.058 175.218 126.952 175.376 126.976C175.533 127.005 175.64 127.153 175.615 127.308C175.587 127.464 175.436 127.57 175.279 127.545Z" fill="#FF704F"/>
<path d="M176.065 127.386C176.094 127.23 176.244 127.124 176.401 127.149L177.548 127.343C177.706 127.372 177.813 127.52 177.788 127.676C177.759 127.831 177.609 127.937 177.452 127.912L176.305 127.718C176.147 127.69 176.04 127.541 176.065 127.386Z" fill="#FF704F"/>
<path d="M181.234 128.545L178.632 128.107C178.475 128.078 178.367 127.93 178.392 127.775C178.421 127.619 178.571 127.513 178.728 127.538L181.33 127.976C181.488 128.004 181.595 128.153 181.57 128.308C181.541 128.464 181.391 128.57 181.234 128.545Z" fill="#FF704F"/>
<path d="M194.577 130.785L182.16 128.7C182.003 128.672 181.896 128.524 181.921 128.368C181.949 128.213 182.099 128.107 182.257 128.132L194.674 130.216C194.831 130.245 194.938 130.393 194.913 130.549C194.884 130.704 194.734 130.81 194.577 130.785Z" fill="#FF704F"/>
<path d="M159.674 95.8218C159.674 95.9808 159.549 96.1115 159.388 96.1115C159.227 96.1115 159.095 95.9879 159.095 95.8288C159.095 95.6698 159.22 95.5391 159.381 95.5391C159.542 95.5391 159.674 95.6627 159.674 95.8218Z" fill="#FF704F"/>
<path d="M159.367 94.3593C159.206 94.3593 159.074 94.2356 159.074 94.0766L159.06 92.9245C159.06 92.7655 159.185 92.6348 159.346 92.6348C159.506 92.6348 159.639 92.7584 159.639 92.9175L159.653 94.0695C159.653 94.2285 159.528 94.3593 159.367 94.3593Z" fill="#FF704F"/>
<path d="M159.585 88.4966L159.617 91.1081C159.617 91.2671 159.492 91.3978 159.331 91.3978C159.17 91.3978 159.038 91.2742 159.038 91.1151L159.006 88.5036C159.006 88.3446 159.131 88.2139 159.292 88.2139C159.453 88.2139 159.585 88.3376 159.585 88.4966Z" fill="#FF704F"/>
<path d="M159.699 97.8081L159.788 105.176C159.788 105.335 159.663 105.466 159.503 105.466C159.342 105.466 159.209 105.342 159.209 105.183L159.12 97.8152C159.12 97.6561 159.245 97.5254 159.406 97.5254C159.567 97.5254 159.699 97.6491 159.699 97.8081Z" fill="#FF704F"/>
<path d="M173.893 147.01C173.475 146.518 173.435 146.119 173.399 145.762C173.367 145.437 173.339 145.154 173.017 144.78C172.695 144.405 172.42 144.327 172.102 144.243C171.755 144.147 171.362 144.038 170.944 143.55C170.526 143.059 170.486 142.66 170.451 142.303C170.419 141.977 170.39 141.695 170.068 141.32C169.747 140.946 169.471 140.868 169.153 140.783C168.807 140.688 168.413 140.578 167.995 140.09C167.577 139.599 167.538 139.2 167.502 138.843C167.47 138.518 167.441 138.235 167.12 137.861C166.798 137.486 166.523 137.408 166.205 137.323C165.858 137.228 165.465 137.118 165.046 136.631C164.628 136.14 164.589 135.74 164.553 135.383C164.521 135.058 164.492 134.776 164.171 134.401C164.085 134.299 164.096 134.147 164.199 134.062C164.303 133.977 164.457 133.988 164.543 134.09C164.961 134.581 165 134.981 165.036 135.337C165.068 135.663 165.097 135.945 165.418 136.32C165.74 136.694 166.015 136.772 166.333 136.857C166.68 136.952 167.073 137.062 167.491 137.55C167.909 138.037 167.949 138.44 167.985 138.797C168.017 139.122 168.045 139.405 168.367 139.779C168.689 140.154 168.964 140.232 169.282 140.317C169.629 140.412 170.022 140.522 170.44 141.009C170.858 141.497 170.898 141.9 170.933 142.257C170.965 142.582 170.994 142.864 171.316 143.239C171.637 143.614 171.913 143.691 172.231 143.776C172.577 143.872 172.971 143.981 173.389 144.469C173.807 144.96 173.846 145.359 173.882 145.716C173.914 146.041 173.943 146.324 174.264 146.699C174.586 147.073 174.861 147.151 175.179 147.236C175.526 147.331 175.919 147.441 176.337 147.928C176.423 148.031 176.413 148.183 176.309 148.268C176.205 148.352 176.052 148.342 175.966 148.239C175.644 147.865 175.369 147.787 175.051 147.702C174.704 147.607 174.311 147.497 173.893 147.01Z" fill="#C88BF8"/>
<path d="M188.371 114.95C187.667 115.113 187.249 114.982 186.877 114.866C186.524 114.752 186.216 114.657 185.644 114.791C185.072 114.926 184.844 115.148 184.576 115.403C184.297 115.671 183.979 115.975 183.278 116.138C182.574 116.3 182.156 116.169 181.784 116.053C181.43 115.94 181.123 115.844 180.551 115.979C179.979 116.113 179.75 116.332 179.482 116.59C179.203 116.859 178.885 117.162 178.185 117.325C177.481 117.488 177.062 117.357 176.691 117.24C176.337 117.127 176.03 117.032 175.458 117.166C174.886 117.3 174.657 117.519 174.389 117.777C174.11 118.046 173.792 118.35 173.092 118.512C172.387 118.675 171.969 118.544 171.597 118.428C171.244 118.315 170.936 118.219 170.364 118.353C170.232 118.385 170.1 118.304 170.071 118.173C170.043 118.042 170.121 117.912 170.254 117.883C170.958 117.721 171.376 117.852 171.748 117.968C172.101 118.081 172.409 118.177 172.981 118.042C173.553 117.908 173.781 117.685 174.049 117.431C174.328 117.162 174.646 116.859 175.347 116.696C176.051 116.533 176.469 116.664 176.841 116.781C177.195 116.894 177.502 116.989 178.074 116.855C178.646 116.721 178.875 116.502 179.143 116.244C179.421 115.975 179.74 115.671 180.44 115.509C181.144 115.346 181.562 115.477 181.934 115.593C182.288 115.707 182.595 115.802 183.167 115.668C183.739 115.533 183.968 115.314 184.236 115.056C184.515 114.788 184.833 114.484 185.533 114.321C186.238 114.159 186.656 114.289 187.027 114.406C187.381 114.519 187.689 114.615 188.261 114.48C188.393 114.449 188.525 114.53 188.554 114.661C188.586 114.791 188.504 114.922 188.371 114.95Z" fill="#C88BF8"/>
<path d="M163.523 139.496L167.566 147.599C167.684 147.839 167.584 148.129 167.341 148.246C167.098 148.362 166.805 148.264 166.687 148.023L162.644 139.92C162.526 139.68 162.626 139.39 162.869 139.274C163.112 139.157 163.405 139.256 163.523 139.496Z" fill="#5080FF"/>
<path d="M176.169 121.131L193.329 119.34C193.597 119.311 193.84 119.506 193.869 119.771C193.898 120.036 193.701 120.276 193.433 120.304L176.273 122.096C176.005 122.124 175.762 121.93 175.733 121.665C175.705 121.4 175.901 121.16 176.169 121.131Z" fill="#ED1C26"/>
<path d="M158.269 155.445C158.291 154.385 158.684 153.841 159.031 153.363C159.345 152.929 159.595 152.586 159.61 151.826C159.624 151.066 159.388 150.717 159.088 150.271C158.759 149.78 158.384 149.225 158.405 148.162C158.427 147.102 158.82 146.557 159.167 146.08C159.481 145.646 159.731 145.303 159.746 144.543C159.76 143.783 159.524 143.433 159.224 142.988C158.895 142.497 158.52 141.942 158.541 140.878C158.563 139.818 158.956 139.274 159.302 138.797C159.617 138.362 159.867 138.02 159.881 137.26C159.885 136.991 160.11 136.779 160.378 136.786C160.65 136.79 160.864 137.012 160.857 137.278C160.836 138.338 160.443 138.882 160.096 139.359C159.781 139.794 159.531 140.136 159.517 140.896C159.503 141.656 159.738 142.006 160.039 142.451C160.368 142.942 160.743 143.497 160.721 144.561C160.7 145.621 160.307 146.165 159.96 146.642C159.646 147.077 159.395 147.42 159.381 148.179C159.367 148.939 159.603 149.289 159.903 149.734C160.232 150.225 160.607 150.78 160.586 151.844C160.564 152.904 160.171 153.448 159.824 153.925C159.51 154.36 159.259 154.703 159.245 155.463C159.231 156.222 159.467 156.572 159.767 157.017C160.096 157.509 160.471 158.067 160.45 159.127C160.446 159.396 160.221 159.608 159.953 159.601C159.681 159.597 159.467 159.374 159.474 159.109C159.488 158.35 159.252 158 158.952 157.555C158.623 157.063 158.248 156.505 158.269 155.445Z" fill="#FF704F"/>
<path d="M173.757 94.5039L175.248 92.3482C175.337 92.2175 175.519 92.1822 175.651 92.274C175.784 92.3624 175.819 92.5426 175.726 92.6734L174.236 94.829C174.147 94.9597 173.964 94.9951 173.832 94.9032C173.7 94.8148 173.664 94.6346 173.757 94.5039Z" fill="#5080FF"/>
<path d="M177.396 89.2454L179.522 86.5738C179.612 86.4431 179.794 86.4077 179.926 86.4996C180.059 86.588 180.094 86.7682 180.001 86.8989L177.875 89.5705C177.785 89.7013 177.603 89.7366 177.471 89.6447C177.339 89.5564 177.303 89.3761 177.396 89.2454Z" fill="#5080FF"/>
<path d="M164.496 107.879L171.609 97.6031C171.698 97.4724 171.881 97.437 172.013 97.5289C172.145 97.6173 172.181 97.7975 172.088 97.9282L164.975 108.205C164.886 108.335 164.704 108.371 164.571 108.279C164.439 108.19 164.403 108.01 164.496 107.879Z" fill="#5080FF"/>
<path d="M178.043 139.925L181.535 142.635C181.746 142.801 181.785 143.105 181.617 143.314C181.449 143.522 181.142 143.561 180.931 143.395L177.439 140.684C177.228 140.518 177.189 140.214 177.357 140.006C177.525 139.797 177.832 139.759 178.043 139.925Z" fill="#00BA8E"/>
<path d="M170.118 135.009C169.908 134.843 169.868 134.539 170.036 134.33C170.204 134.122 170.512 134.083 170.723 134.249C170.933 134.415 170.973 134.719 170.805 134.927C170.637 135.136 170.329 135.175 170.118 135.009Z" fill="#00BA8E"/>
<path d="M172.953 136.592C173.121 136.383 173.429 136.345 173.639 136.511L175.18 137.705C175.391 137.871 175.43 138.175 175.262 138.384C175.094 138.592 174.787 138.631 174.576 138.465L173.035 137.27C172.825 137.104 172.785 136.8 172.953 136.592Z" fill="#00BA8E"/>
<path d="M176.624 132.319C177.203 132.619 177.378 133.036 177.51 133.344C177.617 133.595 177.682 133.747 177.95 133.888C178.218 134.029 178.382 133.994 178.65 133.941C178.979 133.874 179.426 133.786 180.005 134.086C180.584 134.386 180.759 134.803 180.891 135.111C180.998 135.362 181.063 135.514 181.331 135.655C181.599 135.796 181.763 135.761 182.031 135.708C182.36 135.641 182.807 135.553 183.386 135.853C183.965 136.153 184.14 136.57 184.272 136.878C184.38 137.129 184.444 137.281 184.712 137.422C184.952 137.546 185.044 137.839 184.916 138.076C184.787 138.312 184.494 138.404 184.255 138.277C183.676 137.977 183.5 137.56 183.368 137.252C183.261 137.001 183.197 136.849 182.929 136.708C182.66 136.567 182.496 136.602 182.228 136.655C181.899 136.722 181.452 136.811 180.873 136.51C180.294 136.21 180.119 135.793 179.987 135.485C179.88 135.234 179.815 135.083 179.547 134.941C179.279 134.8 179.115 134.835 178.847 134.888C178.518 134.955 178.071 135.044 177.492 134.743C176.913 134.443 176.738 134.026 176.606 133.718C176.498 133.468 176.434 133.316 176.166 133.174C175.927 133.051 175.834 132.757 175.962 132.521C176.087 132.284 176.384 132.192 176.624 132.319Z" fill="#FFD06A"/>
<path d="M189.372 142.03L190.523 141.818C190.788 141.768 190.963 141.518 190.913 141.253C190.863 140.991 190.609 140.818 190.341 140.867L189.19 141.079L188.976 139.941C188.926 139.68 188.672 139.507 188.404 139.556C188.139 139.606 187.964 139.857 188.014 140.122L188.229 141.26L187.078 141.472C186.813 141.521 186.638 141.772 186.688 142.037C186.738 142.299 186.992 142.472 187.26 142.422L188.411 142.21L188.625 143.348C188.676 143.61 188.929 143.783 189.197 143.733C189.462 143.684 189.637 143.433 189.587 143.168L189.372 142.03Z" fill="#FFD06A"/>
<path d="M171.838 150.748L168.575 151.352C168.575 151.352 168.571 151.352 168.567 151.352C168.567 151.352 168.564 151.352 168.56 151.352C168.296 151.401 168.121 151.652 168.171 151.917L168.782 155.144C168.796 155.214 168.825 155.278 168.864 155.335C168.968 155.504 169.168 155.603 169.375 155.564L172.638 154.96C172.903 154.911 173.078 154.66 173.028 154.395C173.028 154.395 173.028 154.384 173.024 154.377C173.024 154.37 173.024 154.366 173.024 154.359L172.413 151.133C172.363 150.871 172.109 150.698 171.841 150.748H171.838ZM169.221 152.218L171.538 151.79L171.974 154.101L169.658 154.529L169.221 152.218Z" fill="#5080FF"/>
<path d="M177.624 97.3694L176.473 97.5814C176.208 97.6309 175.951 97.4577 175.901 97.1962C175.851 96.9347 176.026 96.6803 176.291 96.6308L177.442 96.4188L177.227 95.2809C177.177 95.0194 177.352 94.7649 177.617 94.7155C177.881 94.666 178.139 94.8392 178.189 95.1007L178.403 96.2385L179.554 96.0265C179.818 95.977 180.076 96.1502 180.126 96.4117C180.176 96.6732 180.001 96.9276 179.736 96.9771L178.585 97.1891L178.8 98.327C178.85 98.5885 178.675 98.843 178.41 98.8924C178.146 98.9419 177.888 98.7688 177.838 98.5073L177.624 97.3694Z" fill="#00BA8E"/>
<path d="M177.474 111.925L178.439 112.579C178.661 112.731 178.718 113.031 178.568 113.25C178.414 113.469 178.11 113.526 177.889 113.377L176.924 112.724L176.262 113.678C176.109 113.897 175.805 113.954 175.583 113.805C175.362 113.653 175.305 113.353 175.455 113.134L176.116 112.18L175.151 111.526C174.929 111.374 174.872 111.073 175.022 110.854C175.176 110.635 175.48 110.579 175.701 110.727L176.666 111.381L177.328 110.427C177.481 110.208 177.785 110.151 178.007 110.3C178.228 110.451 178.285 110.752 178.135 110.971L177.474 111.925Z" fill="#1B3DC8"/>
<path d="M168.109 91.8283C166.926 92.0474 165.779 91.2735 165.557 90.1003C165.335 88.9306 166.118 87.7962 167.305 87.5771C168.488 87.358 169.635 88.1319 169.857 89.3052C170.078 90.4749 169.296 91.6092 168.109 91.8283ZM167.484 88.5313C166.829 88.6514 166.397 89.2769 166.519 89.9236C166.64 90.5703 167.273 90.9979 167.927 90.8777C168.581 90.7576 169.013 90.1321 168.892 89.4854C168.77 88.8387 168.138 88.4111 167.484 88.5313Z" fill="#FFD06A"/>
<path d="M188.833 122.87C190.016 122.651 191.164 123.425 191.385 124.598C191.607 125.768 190.824 126.902 189.637 127.121C188.454 127.34 187.307 126.566 187.085 125.393C186.864 124.224 187.647 123.089 188.833 122.87ZM189.459 126.167C190.113 126.047 190.545 125.422 190.424 124.775C190.302 124.128 189.67 123.701 189.015 123.821C188.361 123.941 187.929 124.566 188.05 125.213C188.172 125.86 188.805 126.287 189.459 126.167Z" fill="#5080FF"/>
<path d="M165.411 96.5318C165.543 96.5742 165.614 96.7191 165.572 96.8499L165.25 97.7969C165.207 97.9277 165.06 97.9984 164.928 97.956C164.796 97.9136 164.724 97.7687 164.767 97.6379L165.089 96.6909C165.132 96.5601 165.278 96.4894 165.411 96.5318Z" fill="#FFD06A"/>
<path d="M163.71 100.758L164.439 98.6098C164.482 98.479 164.628 98.4084 164.761 98.4508C164.893 98.4932 164.964 98.6381 164.921 98.7688L164.192 100.917C164.149 101.048 164.003 101.119 163.871 101.076C163.738 101.034 163.667 100.889 163.71 100.758Z" fill="#FFD06A"/>
<path d="M160.9 108.819L163.316 101.921C163.359 101.791 163.506 101.72 163.638 101.762C163.77 101.805 163.842 101.95 163.799 102.08L161.383 108.978C161.34 109.109 161.193 109.18 161.061 109.137C160.929 109.095 160.857 108.95 160.9 108.819Z" fill="#FFD06A"/>
<path d="M194.062 113.548L194.791 112.848C194.959 112.686 195.227 112.689 195.391 112.855C195.556 113.021 195.552 113.286 195.384 113.449L194.655 114.149L195.363 114.87C195.527 115.036 195.524 115.301 195.356 115.463C195.188 115.626 194.92 115.622 194.755 115.456L194.047 114.735L193.318 115.435C193.15 115.598 192.882 115.594 192.718 115.428C192.553 115.262 192.557 114.997 192.725 114.834L193.454 114.135L192.746 113.414C192.582 113.248 192.586 112.982 192.754 112.82C192.922 112.657 193.19 112.661 193.354 112.827L194.062 113.548Z" fill="#C88BF8"/>
</g>
</g>
<defs>
<clipPath id="clip0_288_46299">
<rect width="266" height="266" fill="white"/>
</clipPath>
<clipPath id="clip1_288_46299">
<rect width="9" height="18" fill="white" transform="translate(90 12)"/>
</clipPath>
<clipPath id="clip2_288_46299">
<rect width="37.24" height="73.15" fill="white" transform="translate(158.27 86.4502)"/>
</clipPath>
</defs>
</svg>
