<svg width="266" height="266" viewBox="0 0 266 266" fill="none" xmlns="http://www.w3.org/2000/svg">
<path d="M137.847 209.601C181.475 209.601 216.843 174.233 216.843 130.604C216.843 86.9754 181.475 51.6074 137.847 51.6074C94.2181 51.6074 58.8501 86.9754 58.8501 130.604C58.8501 174.233 94.2181 209.601 137.847 209.601Z" fill="#F7E7D5"/>
<path d="M137.847 216.4C117.202 216.4 97.2525 208.963 81.6729 195.455L81.8564 195.245C97.3855 208.708 117.269 216.121 137.847 216.121C160.688 216.121 182.162 207.226 198.314 191.074C214.465 174.923 223.36 153.449 223.36 130.607C223.36 105.505 212.391 81.767 193.262 65.4745L193.443 65.2617C212.635 81.6048 223.64 105.422 223.64 130.607C223.64 153.523 214.715 175.069 198.511 191.271C182.306 207.476 160.763 216.4 137.847 216.4Z" fill="#DBC5AF"/>
<path d="M101.838 245.889C101.838 245.889 127.518 245.889 155.991 246.447C184.463 247.006 212.377 250.913 212.377 250.913C212.377 250.913 163.25 252.589 130.311 252.031C97.3723 251.472 46.0104 250.355 42.6614 250.355C39.3125 250.355 57.7357 245.889 101.838 245.889Z" fill="#C7CFE2"/>
<path d="M139.557 48.3015L139.485 48.0329C140.592 47.7403 141.414 46.2906 141.688 44.1573C142.39 38.6883 139.69 34.0918 136.66 32.3788L136.798 32.1367C139.251 33.5226 140.528 35.8687 141.166 37.5924C141.943 39.6885 142.233 42.0958 141.964 44.1945C141.674 46.4449 140.775 47.9823 139.557 48.3042V48.3015Z" fill="#060D1E"/>
<path d="M71.6313 160.045L61.3318 156.781L59.5044 163.564L68.426 166.881L71.6313 160.045Z" fill="#F78E54"/>
<path d="M61.9115 156.416L59.5866 164.015L53.458 161.784L55.8094 154.873L61.9115 156.416Z" fill="#E0E0E0"/>
<path d="M55.6684 157.887C54.7694 159.507 55.4982 162.633 55.8945 163.593C56.2909 164.553 53.7719 163.907 50.109 167.093C46.4489 170.28 46.1829 171.959 45.3024 172.004C44.422 172.049 43.7437 171.764 43.7437 171.764L50.8166 151.227C50.8166 151.227 53.2744 151.612 55.711 154.23C55.711 154.23 56.892 153.695 57.3363 153.924C57.7805 154.153 56.9532 155.573 55.6684 157.885V157.887Z" fill="#8ED8ED"/>
<path d="M44.1188 172.288C44.4672 172.121 51.612 151.49 51.4763 151.072C51.3407 150.652 50.7262 150.556 50.5028 150.721C50.2767 150.886 43.2888 171.397 43.2915 171.847C43.2942 172.299 43.7703 172.456 44.1214 172.288H44.1188Z" fill="#4396BF"/>
<path d="M53.1945 165.048L51.9496 162.684L51.4814 162.902L52.4178 165.378L53.1945 165.048Z" fill="#4396BF"/>
<path d="M51.7368 165.803L50.5345 163.869L50.186 164.159L51.1995 166.213L51.7368 165.803Z" fill="#4396BF"/>
<path d="M50.4707 166.742L49.2072 164.957L48.9492 165.271L49.9042 167.17L50.4707 166.742Z" fill="#4396BF"/>
<path d="M117.806 142.667C117.806 142.667 111.473 156.533 108.906 172.794C108.906 172.794 105.826 166.117 98.4655 163.721C91.1053 161.324 70.2216 158.244 70.2216 158.244L66.6279 167.657C66.6279 167.657 84.0882 177.928 91.4484 181.694C98.8086 185.461 105.142 191.281 110.962 190.081C116.782 188.884 127.739 176.731 133.559 164.574C139.379 152.421 117.812 142.664 117.812 142.664L117.806 142.667Z" fill="#DD8F05"/>
<path d="M69.0829 169.12L68.8169 169.033C69.0935 168.203 72.4132 158.797 72.4451 158.701L72.7085 158.794C72.6739 158.89 69.3569 168.293 69.0802 169.12H69.0829Z" fill="#0B1530"/>
<path d="M110.31 183.137C106.719 183.137 102.668 179.721 98.4307 176.146C96.9704 174.915 95.4622 173.643 93.9885 172.539C87.3917 167.592 68.2796 163.947 68.0854 163.91L68.136 163.636C68.3302 163.673 87.5061 167.328 94.1534 172.316C95.6324 173.425 97.1459 174.702 98.6089 175.933C103.916 180.41 108.93 184.637 112.978 182.078C118.184 178.79 131.215 145.083 131.346 144.742L131.606 144.843C131.574 144.928 128.281 153.462 124.382 162.296C119.139 174.175 115.351 180.91 113.127 182.315C112.225 182.884 111.284 183.137 110.31 183.137Z" fill="#060D1E"/>
<path d="M179.431 224.149L186.45 232.365L191.584 227.572L185.764 220.039L179.431 224.149Z" fill="#F78E54"/>
<path d="M185.764 232.366L191.757 227.145L195.779 232.278L190.129 236.901L185.764 232.366Z" fill="#E0E0E0"/>
<path d="M191.842 234.419C193.46 233.52 194.494 230.482 194.667 229.456C194.837 228.429 196.636 230.312 201.429 229.541C206.222 228.769 207.334 227.487 208.105 227.915C208.877 228.344 209.302 228.942 209.302 228.942L192.441 242.636C192.441 242.636 190.557 241.011 189.874 237.499C189.874 237.499 188.589 237.329 188.334 236.901C188.078 236.473 189.531 235.704 191.842 234.419Z" fill="#8ED8ED"/>
<path d="M209.26 228.299C208.874 228.256 191.906 241.993 191.8 242.421C191.693 242.849 192.164 243.256 192.441 243.235C192.72 243.214 209.494 229.499 209.731 229.113C209.965 228.727 209.646 228.341 209.26 228.299Z" fill="#4396BF"/>
<path d="M197.726 229.646L197.535 232.309L198.048 232.376L198.561 229.774L197.726 229.646Z" fill="#4396BF"/>
<path d="M199.362 229.775V232.054L199.811 231.991L200.037 229.711L199.362 229.775Z" fill="#4396BF"/>
<path d="M200.937 229.648L201.065 231.829L201.45 231.701L201.642 229.584L200.937 229.648Z" fill="#4396BF"/>
<path d="M123.799 124.694C123.799 124.694 115.926 126.92 113.872 135.991C111.76 145.325 119.349 157.558 128.766 165.775C138.179 173.992 144.172 180.496 145.199 183.406C146.226 186.316 149.822 199.326 156.326 205.659C162.83 211.993 179.606 225.516 179.606 225.516L186.623 220.893C186.623 220.893 162.439 181.025 161.069 178.285C159.699 175.545 145.752 135.786 144.042 133.903C142.329 132.02 123.802 124.691 123.802 124.691L123.799 124.694Z" fill="#1C548C"/>
<path d="M123.799 124.694C123.799 124.694 115.926 126.92 113.872 135.991C111.76 145.325 119.349 157.558 128.766 165.775C138.179 173.992 144.172 180.496 145.199 183.406C146.226 186.316 149.822 199.326 156.326 205.659C162.83 211.993 179.606 225.516 179.606 225.516L186.623 220.893C186.623 220.893 162.439 181.025 161.069 178.285C159.699 175.545 145.752 135.786 144.042 133.903C142.329 132.02 123.802 124.691 123.802 124.691L123.799 124.694Z" fill="#FCCC25"/>
<path d="M177.377 223.58L177.138 223.436C178.816 220.64 184.764 217.914 185.017 217.797L185.131 218.052C185.07 218.079 179.01 220.859 177.377 223.58Z" fill="#0B1530"/>
<path d="M186.62 220.895C186.62 220.895 183.756 216.173 179.941 209.866C164.146 198.165 157.956 185.253 154.267 181.364C131.239 157.081 124.959 129.029 124.959 129.029L120.022 126.635C117.697 128.281 114.963 131.17 113.869 135.993C111.757 145.327 119.346 157.56 128.763 165.777C138.177 173.993 144.169 180.497 145.196 183.407C146.223 186.317 149.819 199.327 156.323 205.661C162.827 211.994 179.603 225.518 179.603 225.518L186.62 220.895Z" fill="#F9A600"/>
<path d="M183.25 223.103C183.085 222.949 166.7 207.638 160.619 198.796C156.677 193.064 154.208 187.815 151.822 182.74C148.492 175.662 145.348 168.98 138.578 161.404C127.802 149.347 127.933 133.831 127.935 133.674L128.215 133.679C128.215 133.833 128.084 149.243 138.785 161.218C145.582 168.823 148.734 175.526 152.072 182.62C154.456 187.685 156.919 192.923 160.848 198.636C166.91 207.454 183.274 222.744 183.439 222.898L183.247 223.103H183.25Z" fill="#060D1E"/>
<path d="M161.853 68.0789C161.853 68.0789 164.928 66.4456 169.389 59.9845C173.533 53.9862 178.725 43.551 187.397 33.3047L189.054 34.4245C189.054 34.4245 179.593 65.9429 171.623 72.827C169.575 74.5959 161.853 68.0815 161.853 68.0815V68.0789Z" fill="#F78E54"/>
<path d="M122.634 63.3335C122.634 63.3335 118.998 60.0112 115.237 53.7043C111.473 47.3922 107.201 37.9997 98.3882 27.1895L96.7124 28.2774C96.7124 28.2774 102.894 53.9836 109.097 62.4956C112.656 67.3794 114.236 69.8745 116.277 70.8693C122.4 73.8538 122.637 63.3335 122.637 63.3335H122.634Z" fill="#F78E54"/>
<path d="M76.4036 56.9668C72.512 63.013 70.408 68.8171 71.5012 74.1823C71.5012 74.1823 80.5239 89.3629 100.979 92.3741C121.11 95.3373 132 100.027 146.864 105.727C154.69 108.728 162.731 117.461 162.045 120.95C162.045 120.95 168.206 116.83 165.197 110.771C162.189 104.708 154.847 97.9441 132.971 91.8766C111.263 85.8544 113.705 87.9585 96.8324 82.3379C89.4057 79.8641 76.0206 71.6952 76.4036 56.9695V56.9668Z" fill="#F9A600"/>
<path d="M140.211 49.783C140.211 49.783 138.405 32.4876 127.797 32.9079C127.797 32.9079 123.405 33.8895 123.052 39.8851C122.772 44.6305 118.649 43.3511 118.774 45.8196C118.774 45.8196 125.565 57.4704 139.179 51.512L140.211 49.783Z" fill="#44170F"/>
<path d="M137.708 50.2719C137.708 50.2719 142.158 44.0661 149.731 45.9467C159.56 48.3859 157.052 60.1697 157.052 60.1697C157.052 60.1697 150.899 68.3333 145.305 68.554C139.711 68.7775 127.781 58.5817 137.708 50.2719Z" fill="#44170F"/>
<g style="mix-blend-mode:multiply" opacity="0.5">
<path d="M135.381 52.7799C130.736 59.5442 137.993 66.7262 143.249 68.2584C137.33 63.0581 137.197 51.9819 137.197 51.9819C128.51 51.7478 124.637 45.3664 122.961 40.6875C122.288 44.4886 118.66 43.5018 118.774 45.8213C118.774 45.8213 124.302 55.3015 135.381 52.7825V52.7799Z" fill="#2F0015"/>
</g>
<path d="M154.421 51.5574C156.786 53.1294 159.869 72.1777 153.322 72.1883C145.688 72.199 142.102 65.5569 142.102 65.5569C142.102 65.5569 137.719 64.1365 139.371 61.1786C140.365 59.3991 142.544 60.9179 142.544 60.9179C142.544 60.9179 141.573 54.087 144.712 52.2436C147.805 50.4242 152.053 49.988 154.418 51.56L154.421 51.5574Z" fill="#F78E54"/>
<path d="M147.281 67.2961C147.199 72.0469 147.678 76.5077 148.766 80.6626C145.856 81.9049 143.015 83.6605 139.384 80.0535C141.145 73.9701 141.863 69.1635 142.15 64.8809L147.279 67.2961H147.281Z" fill="#F78E54"/>
<path d="M142.544 60.915C142.544 60.915 144.435 59.4919 145.111 57.2815C145.787 55.071 148.534 54.3874 152.36 55.3024C155.105 55.9568 156.687 53.3606 156.687 53.3606L152.86 48.4316L141.895 51.5837L141.062 58.2577L142.547 60.9177L142.544 60.915Z" fill="#44170F"/>
<path d="M112.587 68.3628L122.772 62.4922C122.772 62.4922 133.729 75.6326 139.943 77.7047C139.943 77.7047 139.693 81.6548 144.007 81.6548C148.322 81.6548 147.851 77.984 147.851 77.984C147.851 77.984 159.201 73.0231 162.481 64.9075L175.156 70.2168C175.156 70.2168 168.87 81.1361 158.336 90.4594C158.336 90.4594 157.129 127.061 148.151 137.765C148.151 137.765 122.945 138.284 109.305 124.124C109.305 124.124 121.046 112.902 126.914 87.0041C126.914 87.0041 115.002 73.7094 112.584 68.3575L112.587 68.3628Z" fill="white"/>
<g style="mix-blend-mode:multiply" opacity="0.5">
<path d="M134.333 136.353C123.089 119.917 135.564 91.0188 131.428 86.5021C129.212 84.0842 119.865 71.7045 116.596 66.0547L112.59 68.3636C115.008 73.7155 126.919 87.0102 126.919 87.0102C121.049 112.908 109.31 124.13 109.31 124.13C116.269 131.352 126.238 134.755 134.333 136.356V136.353Z" fill="#2B6DA3"/>
</g>
<path d="M187.253 34.3121C187.253 34.3121 188.025 29.3752 188.333 27.061C188.642 24.7468 187.562 20.5812 188.333 20.4269C189.105 20.2727 189.259 24.4382 189.259 24.4382C189.259 24.4382 190.648 19.0384 191.265 19.1927C191.882 19.347 190.493 24.2839 190.493 24.2839C190.493 24.2839 192.036 18.1127 192.653 18.5756C193.27 19.0384 191.728 25.3639 191.728 25.3639C191.728 25.3639 192.962 20.7355 193.425 21.3526C193.887 21.9697 192.036 29.6864 192.036 29.6864C192.036 29.6864 194.35 27.835 194.813 28.2979C195.276 28.7607 191.728 32.1549 190.802 32.772C189.876 33.3891 187.871 36.1662 187.871 36.1662L187.253 34.3148V34.3121Z" fill="#F78E54"/>
<path d="M143.592 81.8116C142.597 81.8116 141.776 81.519 141.142 80.9391C139.842 79.7474 139.807 77.7897 139.807 77.7045H140.086C140.086 77.7205 140.121 79.6251 141.331 80.7343C141.994 81.3408 142.89 81.6041 143.999 81.5163C147.859 81.2104 148.173 77.4572 148.175 77.4199L148.455 77.4385C148.452 77.4784 148.12 81.4711 144.023 81.793C143.877 81.8036 143.733 81.8116 143.595 81.8116H143.592Z" fill="#060D1E"/>
<path d="M122.705 62.3647L112.518 68.2344L112.657 68.4764L122.844 62.6067L122.705 62.3647Z" fill="#060D1E"/>
<path d="M162.537 64.7795L162.429 65.0371L175.104 70.3467L175.211 70.0891L162.537 64.7795Z" fill="#060D1E"/>
<path d="M143.888 82.8756C143.827 82.8756 143.768 82.8756 143.704 82.8756C142.191 82.8357 140.986 82.3409 140.121 81.4072C138.568 79.7288 138.677 77.2497 138.682 77.1459L138.961 77.1592C138.961 77.1832 138.855 79.6277 140.329 81.2184C141.137 82.0935 142.276 82.5564 143.712 82.5936C143.771 82.5936 143.829 82.5936 143.885 82.5936C148.721 82.5936 149.703 77.0422 149.711 76.9863L149.985 77.0315C149.974 77.0901 148.95 82.8729 143.885 82.8729L143.888 82.8756Z" fill="#060D1E"/>
<path d="M148.375 60.3848C148.048 60.3848 147.782 60.6508 147.782 60.9779C147.782 61.3051 148.048 61.5711 148.375 61.5711C148.702 61.5711 148.968 61.3051 148.968 60.9779C148.968 60.6508 148.702 60.3848 148.375 60.3848Z" fill="#2F0015"/>
<path d="M154.852 59.1758C154.525 59.1758 154.259 59.4418 154.259 59.769C154.259 60.0961 154.525 60.3621 154.852 60.3621C155.179 60.3621 155.445 60.0961 155.445 59.769C155.445 59.4418 155.179 59.1758 154.852 59.1758Z" fill="#2F0015"/>
<g style="mix-blend-mode:multiply" opacity="0.3">
<path d="M152.594 59.5449C152.594 59.5449 152.557 61.5665 154.328 64.285C154.328 64.285 150.926 63.9047 152.594 59.5449Z" fill="#B63E0F"/>
</g>
<path d="M149.607 66.1225C149.745 66.1225 152.434 66.9604 155.084 65.5293C155.084 65.5293 154.735 68.7745 152.815 68.9501C150.897 69.1256 149.604 66.1225 149.604 66.1225H149.607Z" fill="white"/>
<path d="M148.734 57.9604C148.734 57.9604 148.673 57.9923 148.572 58.0429C148.476 58.0908 148.34 58.1573 148.175 58.2397C148.024 58.3142 147.848 58.3993 147.659 58.4924C147.572 58.5456 147.476 58.5829 147.385 58.6361C147.292 58.6866 147.199 58.7318 147.111 58.7877C147.016 58.8329 146.933 58.8941 146.843 58.9446C146.75 58.9925 146.673 59.0563 146.585 59.1069C146.494 59.1548 146.422 59.2213 146.34 59.2691C146.258 59.317 146.186 59.3755 146.114 59.4261C146.045 59.4766 145.968 59.5165 145.912 59.5644C145.856 59.6096 145.797 59.6469 145.752 59.6788C145.659 59.7426 145.595 59.7772 145.595 59.7772C145.595 59.7772 145.595 59.7107 145.609 59.5937C145.617 59.5351 145.624 59.466 145.646 59.3862C145.662 59.3064 145.696 59.2239 145.731 59.1308C145.768 59.0404 145.811 58.9366 145.877 58.8435C145.941 58.7504 146.002 58.6414 146.09 58.5536C146.178 58.4632 146.26 58.3621 146.369 58.2849C146.473 58.2025 146.582 58.1227 146.699 58.0588C147.167 57.7902 147.713 57.7104 148.104 57.7636C148.3 57.7875 148.46 57.8354 148.569 57.8806C148.678 57.9232 148.734 57.9631 148.734 57.9631V57.9604Z" fill="#2F0015"/>
<path d="M153.094 56.9828C153.094 56.9828 153.115 56.9269 153.174 56.8498C153.229 56.77 153.32 56.6715 153.445 56.5705C153.573 56.4747 153.735 56.3816 153.932 56.3231C154.027 56.2885 154.134 56.2752 154.24 56.2592C154.349 56.2539 154.461 56.2459 154.575 56.2592C154.687 56.2752 154.801 56.2912 154.908 56.3337C155.017 56.3656 155.115 56.4188 155.206 56.4747C155.299 56.5252 155.376 56.5997 155.445 56.6662C155.517 56.7301 155.57 56.8045 155.613 56.8764C155.706 57.0147 155.743 57.1503 155.762 57.2461C155.783 57.3392 155.783 57.3977 155.783 57.3977C155.783 57.3977 155.722 57.3844 155.637 57.3578C155.594 57.3445 155.541 57.3286 155.488 57.3073C155.435 57.286 155.365 57.278 155.304 57.2567C155.243 57.2355 155.179 57.2142 155.107 57.2035C155.041 57.1876 154.974 57.1663 154.905 57.1583C154.871 57.153 154.836 57.145 154.804 57.137C154.77 57.1317 154.732 57.1291 154.698 57.1237C154.629 57.1104 154.557 57.1025 154.485 57.0971C154.413 57.0812 154.339 57.0892 154.264 57.0732C154.19 57.0732 154.115 57.0599 154.038 57.0599C153.876 57.0493 153.727 57.0413 153.596 57.0333C153.458 57.0227 153.333 57.012 153.243 57.004C153.152 56.9934 153.094 56.9854 153.094 56.9854V56.9828Z" fill="#2F0015"/>
<path d="M27.9089 108.8C27.9089 108.8 32.4921 96.2903 52.5379 92.7286C72.5863 89.1642 106.69 101.866 116.04 106.191C125.39 110.516 148.471 124.106 158.706 123.481C168.942 122.856 170.014 119.249 170.014 119.249C170.014 119.249 169.596 135.541 158.252 134.693C146.907 133.844 112.744 117.565 103.972 113.133C95.1989 108.702 67.5429 95.5934 50.2609 100.863C32.9789 106.132 28.3452 119.009 28.3452 119.009C26.8635 115.727 26.3661 112.357 27.9063 108.8H27.9089Z" fill="#FCCC25"/>
<g style="mix-blend-mode:multiply" opacity="0.3">
<path d="M140.004 62.2443C140.004 62.2443 140.536 60.3823 141.6 61.6245C142.664 62.8667 141.512 62.9545 141.512 62.9545C141.512 62.9545 141.823 61.8453 141.246 61.8027C140.669 61.7575 140.004 62.2469 140.004 62.2469V62.2443Z" fill="#B63E0F"/>
</g>
<g clip-path="url(#clip0_288_40976)">
<path d="M98.9999 28.9575L97.7502 20.5133C97.7502 20.5133 97.1078 15.1858 96.4683 14.6876C95.8258 14.1895 96.4683 20.0151 96.4683 20.0151C96.4683 20.0151 95.0426 13.1059 94.186 12.8568C93.3294 12.6077 94.9693 19.5138 94.9693 19.5138C94.9693 19.5138 93.6873 11.5242 92.6166 12.0224C91.5458 12.5205 93.4732 20.2611 93.4732 20.2611C93.4732 20.2611 92.7603 13.2709 91.9037 14.0182C91.0472 14.7686 92.8307 22.2569 92.8307 22.2569C92.8307 22.2569 90.4781 19.2616 90.0498 20.0089C89.6215 20.7593 92.0445 22.4624 93.0126 24.9565C94.2095 28.0421 98.3927 29.9943 98.3927 29.9943L98.9999 28.9513V28.9575Z" fill="#F78E54"/>
</g>
<g clip-path="url(#clip1_288_40976)">
<path d="M181.163 108.596L184.894 106.214C185.123 106.069 185.423 106.133 185.57 106.359C185.717 106.585 185.652 106.882 185.423 107.027L181.692 109.409C181.463 109.554 181.163 109.49 181.016 109.264C180.87 109.038 180.934 108.741 181.163 108.596Z" fill="#1B3DC8"/>
<path d="M184.098 99.1471C183.458 99.6525 182.972 99.7267 182.543 99.7938C182.175 99.8503 181.885 99.8963 181.445 100.243C181.006 100.589 180.895 100.857 180.759 101.197C180.598 101.593 180.416 102.045 179.773 102.547C179.133 103.052 178.647 103.126 178.218 103.193C177.85 103.25 177.56 103.296 177.121 103.642C176.681 103.988 176.57 104.257 176.434 104.596C176.274 104.992 176.091 105.444 175.448 105.946C174.808 106.452 174.322 106.526 173.893 106.593C173.525 106.649 173.235 106.695 172.796 107.042C172.356 107.388 172.245 107.657 172.11 107.996C171.949 108.392 171.766 108.844 171.123 109.346C170.483 109.851 169.997 109.925 169.568 109.992C169.2 110.049 168.911 110.095 168.471 110.441C168.26 110.607 167.953 110.572 167.785 110.363C167.617 110.155 167.652 109.851 167.863 109.685C168.503 109.18 168.989 109.105 169.418 109.038C169.786 108.982 170.076 108.936 170.515 108.589C170.955 108.243 171.066 107.975 171.202 107.635C171.363 107.24 171.545 106.787 172.188 106.285C172.828 105.78 173.314 105.706 173.743 105.639C174.111 105.582 174.401 105.536 174.84 105.19C175.28 104.844 175.391 104.575 175.526 104.236C175.687 103.84 175.87 103.388 176.513 102.886C177.153 102.381 177.639 102.306 178.068 102.239C178.436 102.183 178.725 102.137 179.165 101.79C179.605 101.444 179.716 101.176 179.851 100.836C180.012 100.44 180.194 99.9882 180.838 99.4864C181.481 98.9846 181.964 98.9068 182.393 98.8397C182.761 98.7831 183.05 98.7372 183.49 98.3909C183.93 98.0446 184.04 97.776 184.176 97.4332C184.337 97.0374 184.519 96.5851 185.163 96.0833C185.374 95.9172 185.681 95.9525 185.849 96.161C186.017 96.3695 185.981 96.6734 185.77 96.8395C185.331 97.1859 185.22 97.4544 185.084 97.7972C184.923 98.193 184.741 98.6453 184.098 99.1471Z" fill="#00BA8E"/>
<path d="M175.28 127.543C175.122 127.515 175.015 127.367 175.04 127.211C175.069 127.056 175.219 126.95 175.376 126.974C175.533 127.003 175.641 127.151 175.616 127.306C175.587 127.462 175.437 127.568 175.28 127.543Z" fill="#FF704F"/>
<path d="M176.066 127.385C176.095 127.229 176.245 127.123 176.402 127.148L177.549 127.342C177.707 127.371 177.814 127.519 177.789 127.675C177.76 127.83 177.61 127.936 177.453 127.911L176.306 127.717C176.148 127.689 176.041 127.54 176.066 127.385Z" fill="#FF704F"/>
<path d="M181.234 128.544L178.632 128.106C178.475 128.077 178.368 127.929 178.393 127.774C178.421 127.618 178.571 127.512 178.729 127.537L181.331 127.975C181.488 128.003 181.595 128.152 181.57 128.307C181.542 128.463 181.392 128.569 181.234 128.544Z" fill="#FF704F"/>
<path d="M194.577 130.784L182.16 128.699C182.003 128.671 181.896 128.523 181.921 128.367C181.949 128.212 182.099 128.106 182.257 128.131L194.674 130.215C194.831 130.244 194.938 130.392 194.913 130.548C194.884 130.703 194.734 130.809 194.577 130.784Z" fill="#FF704F"/>
<path d="M159.675 95.8218C159.675 95.9808 159.55 96.1115 159.389 96.1115C159.228 96.1115 159.096 95.9879 159.096 95.8288C159.096 95.6698 159.221 95.5391 159.382 95.5391C159.542 95.5391 159.675 95.6627 159.675 95.8218Z" fill="#FF704F"/>
<path d="M159.367 94.3573C159.207 94.3573 159.074 94.2336 159.074 94.0746L159.06 92.9226C159.06 92.7636 159.185 92.6328 159.346 92.6328C159.507 92.6328 159.639 92.7565 159.639 92.9155L159.653 94.0675C159.653 94.2266 159.528 94.3573 159.367 94.3573Z" fill="#FF704F"/>
<path d="M159.585 88.4956L159.618 91.1071C159.618 91.2661 159.492 91.3969 159.332 91.3969C159.171 91.3969 159.039 91.2732 159.039 91.1142L159.006 88.5027C159.006 88.3436 159.131 88.2129 159.292 88.2129C159.453 88.2129 159.585 88.3366 159.585 88.4956Z" fill="#FF704F"/>
<path d="M159.7 97.8061L159.789 105.174C159.789 105.333 159.664 105.464 159.503 105.464C159.342 105.464 159.21 105.34 159.21 105.181L159.121 97.8132C159.121 97.6542 159.246 97.5234 159.407 97.5234C159.567 97.5234 159.7 97.6471 159.7 97.8061Z" fill="#FF704F"/>
<path d="M173.893 147.009C173.475 146.517 173.436 146.118 173.4 145.761C173.368 145.436 173.339 145.153 173.018 144.779C172.696 144.404 172.421 144.326 172.103 144.242C171.756 144.146 171.363 144.037 170.944 143.549C170.526 143.058 170.487 142.659 170.451 142.302C170.419 141.977 170.39 141.694 170.069 141.319C169.747 140.945 169.472 140.867 169.154 140.782C168.807 140.687 168.414 140.577 167.996 140.089C167.578 139.598 167.538 139.199 167.502 138.842C167.47 138.517 167.442 138.234 167.12 137.86C166.798 137.485 166.523 137.407 166.205 137.322C165.858 137.227 165.465 137.118 165.047 136.63C164.629 136.139 164.589 135.739 164.554 135.382C164.522 135.057 164.493 134.775 164.171 134.4C164.085 134.298 164.096 134.146 164.2 134.061C164.304 133.976 164.457 133.987 164.543 134.089C164.961 134.58 165 134.98 165.036 135.336C165.068 135.662 165.097 135.944 165.419 136.319C165.74 136.693 166.016 136.771 166.334 136.856C166.68 136.951 167.074 137.061 167.492 137.549C167.91 138.036 167.949 138.439 167.985 138.796C168.017 139.121 168.046 139.404 168.367 139.778C168.689 140.153 168.964 140.231 169.282 140.316C169.629 140.411 170.022 140.521 170.44 141.008C170.859 141.496 170.898 141.899 170.934 142.256C170.966 142.581 170.994 142.863 171.316 143.238C171.638 143.613 171.913 143.69 172.231 143.775C172.578 143.871 172.971 143.98 173.389 144.468C173.807 144.959 173.847 145.358 173.882 145.715C173.915 146.04 173.943 146.323 174.265 146.698C174.587 147.072 174.862 147.15 175.18 147.235C175.527 147.33 175.92 147.44 176.338 147.927C176.424 148.03 176.413 148.182 176.309 148.267C176.206 148.352 176.052 148.341 175.966 148.238C175.645 147.864 175.369 147.786 175.051 147.701C174.705 147.606 174.311 147.496 173.893 147.009Z" fill="#C88BF8"/>
<path d="M188.372 114.949C187.668 115.112 187.25 114.981 186.878 114.865C186.524 114.751 186.217 114.656 185.645 114.79C185.073 114.925 184.845 115.147 184.577 115.402C184.298 115.67 183.98 115.974 183.279 116.137C182.575 116.299 182.157 116.169 181.785 116.052C181.431 115.939 181.124 115.843 180.552 115.978C179.98 116.112 179.751 116.331 179.483 116.589C179.204 116.858 178.886 117.162 178.186 117.324C177.482 117.487 177.063 117.356 176.692 117.239C176.338 117.126 176.031 117.031 175.459 117.165C174.887 117.299 174.658 117.518 174.39 117.776C174.111 118.045 173.793 118.349 173.092 118.511C172.388 118.674 171.97 118.543 171.598 118.427C171.245 118.314 170.937 118.218 170.365 118.352C170.233 118.384 170.101 118.303 170.072 118.172C170.044 118.041 170.122 117.911 170.255 117.882C170.959 117.72 171.377 117.851 171.749 117.967C172.102 118.08 172.41 118.176 172.982 118.041C173.554 117.907 173.782 117.685 174.05 117.43C174.329 117.162 174.647 116.858 175.348 116.695C176.052 116.532 176.47 116.663 176.842 116.78C177.196 116.893 177.503 116.988 178.075 116.854C178.647 116.72 178.876 116.501 179.144 116.243C179.422 115.974 179.741 115.67 180.441 115.508C181.145 115.345 181.563 115.476 181.935 115.592C182.289 115.706 182.596 115.801 183.168 115.667C183.74 115.532 183.969 115.313 184.237 115.055C184.516 114.787 184.834 114.483 185.534 114.32C186.239 114.158 186.657 114.289 187.028 114.405C187.382 114.518 187.69 114.614 188.262 114.479C188.394 114.448 188.526 114.529 188.555 114.66C188.587 114.79 188.505 114.921 188.372 114.949Z" fill="#C88BF8"/>
<path d="M163.524 139.496L167.566 147.599C167.684 147.839 167.584 148.129 167.341 148.246C167.098 148.362 166.805 148.264 166.687 148.023L162.645 139.92C162.527 139.68 162.627 139.39 162.87 139.274C163.113 139.157 163.406 139.256 163.524 139.496Z" fill="#5080FF"/>
<path d="M176.17 121.13L193.33 119.339C193.598 119.31 193.841 119.505 193.869 119.77C193.898 120.035 193.701 120.275 193.433 120.303L176.273 122.095C176.005 122.123 175.762 121.929 175.734 121.664C175.705 121.399 175.902 121.159 176.17 121.13Z" fill="#ED1C26"/>
<path d="M158.27 155.444C158.291 154.384 158.685 153.84 159.031 153.362C159.346 152.928 159.596 152.585 159.61 151.825C159.625 151.065 159.389 150.716 159.088 150.27C158.76 149.779 158.384 149.224 158.406 148.161C158.427 147.101 158.82 146.556 159.167 146.079C159.482 145.645 159.732 145.302 159.746 144.542C159.76 143.782 159.524 143.432 159.224 142.987C158.895 142.496 158.52 141.941 158.542 140.877C158.563 139.817 158.956 139.273 159.303 138.796C159.617 138.361 159.868 138.019 159.882 137.259C159.885 136.99 160.111 136.778 160.379 136.785C160.65 136.789 160.865 137.011 160.858 137.277C160.836 138.337 160.443 138.881 160.096 139.358C159.782 139.793 159.532 140.135 159.517 140.895C159.503 141.655 159.739 142.005 160.039 142.45C160.368 142.941 160.743 143.496 160.722 144.56C160.7 145.62 160.307 146.164 159.961 146.641C159.646 147.076 159.396 147.419 159.382 148.178C159.367 148.938 159.603 149.288 159.903 149.733C160.232 150.224 160.607 150.779 160.586 151.843C160.565 152.903 160.171 153.447 159.825 153.924C159.51 154.359 159.26 154.702 159.246 155.462C159.231 156.221 159.467 156.571 159.768 157.016C160.096 157.508 160.472 158.066 160.45 159.126C160.447 159.395 160.221 159.607 159.953 159.6C159.682 159.596 159.467 159.373 159.474 159.108C159.489 158.349 159.253 157.999 158.953 157.554C158.624 157.062 158.248 156.504 158.27 155.444Z" fill="#FF704F"/>
<path d="M173.757 94.5019L175.248 92.3463C175.337 92.2155 175.519 92.1802 175.651 92.2721C175.784 92.3604 175.819 92.5407 175.726 92.6714L174.236 94.827C174.147 94.9578 173.964 94.9931 173.832 94.9012C173.7 94.8129 173.664 94.6327 173.757 94.5019Z" fill="#5080FF"/>
<path d="M177.396 89.2444L179.522 86.5729C179.612 86.4421 179.794 86.4068 179.926 86.4986C180.059 86.587 180.094 86.7672 180.001 86.898L177.875 89.5695C177.785 89.7003 177.603 89.7356 177.471 89.6437C177.339 89.5554 177.303 89.3752 177.396 89.2444Z" fill="#5080FF"/>
<path d="M164.496 107.878L171.609 97.6021C171.698 97.4714 171.881 97.4361 172.013 97.5279C172.145 97.6163 172.181 97.7965 172.088 97.9273L164.975 108.204C164.886 108.334 164.704 108.37 164.571 108.278C164.439 108.189 164.403 108.009 164.496 107.878Z" fill="#5080FF"/>
<path d="M178.042 139.924L181.534 142.634C181.745 142.8 181.785 143.104 181.617 143.313C181.449 143.521 181.141 143.56 180.93 143.394L177.438 140.684C177.227 140.517 177.188 140.214 177.356 140.005C177.524 139.797 177.831 139.758 178.042 139.924Z" fill="#00BA8E"/>
<path d="M170.118 135.008C169.908 134.842 169.868 134.538 170.036 134.329C170.204 134.121 170.512 134.082 170.723 134.248C170.933 134.414 170.973 134.718 170.805 134.926C170.637 135.135 170.329 135.174 170.118 135.008Z" fill="#00BA8E"/>
<path d="M172.953 136.591C173.121 136.382 173.428 136.344 173.639 136.51L175.18 137.704C175.39 137.87 175.43 138.174 175.262 138.383C175.094 138.591 174.786 138.63 174.575 138.464L173.035 137.269C172.824 137.103 172.785 136.799 172.953 136.591Z" fill="#00BA8E"/>
<path d="M176.624 132.319C177.203 132.619 177.378 133.036 177.51 133.344C177.617 133.595 177.682 133.747 177.95 133.888C178.218 134.029 178.382 133.994 178.65 133.941C178.979 133.874 179.426 133.786 180.005 134.086C180.584 134.386 180.759 134.803 180.891 135.111C180.998 135.362 181.063 135.514 181.331 135.655C181.599 135.796 181.763 135.761 182.031 135.708C182.36 135.641 182.807 135.553 183.386 135.853C183.965 136.153 184.14 136.57 184.272 136.878C184.38 137.129 184.444 137.281 184.712 137.422C184.952 137.546 185.044 137.839 184.916 138.076C184.787 138.312 184.494 138.404 184.255 138.277C183.676 137.977 183.5 137.56 183.368 137.252C183.261 137.001 183.197 136.849 182.929 136.708C182.66 136.567 182.496 136.602 182.228 136.655C181.899 136.722 181.452 136.811 180.873 136.51C180.294 136.21 180.119 135.793 179.987 135.485C179.88 135.234 179.815 135.083 179.547 134.941C179.279 134.8 179.115 134.835 178.847 134.888C178.518 134.955 178.071 135.044 177.492 134.743C176.913 134.443 176.738 134.026 176.606 133.718C176.498 133.468 176.434 133.316 176.166 133.174C175.927 133.051 175.834 132.757 175.962 132.521C176.087 132.284 176.384 132.192 176.624 132.319Z" fill="#FFD06A"/>
<path d="M189.373 142.029L190.524 141.817C190.788 141.767 190.964 141.517 190.913 141.252C190.863 140.99 190.61 140.817 190.342 140.866L189.191 141.078L188.976 139.94C188.926 139.679 188.672 139.506 188.404 139.555C188.14 139.605 187.965 139.856 188.015 140.121L188.229 141.259L187.078 141.471C186.814 141.52 186.639 141.771 186.689 142.036C186.739 142.298 186.993 142.471 187.261 142.421L188.411 142.209L188.626 143.347C188.676 143.609 188.93 143.782 189.198 143.732C189.462 143.683 189.637 143.432 189.587 143.167L189.373 142.029Z" fill="#FFD06A"/>
<path d="M171.838 150.747L168.575 151.351C168.575 151.351 168.571 151.351 168.567 151.351C168.567 151.351 168.564 151.351 168.56 151.351C168.296 151.4 168.121 151.651 168.171 151.916L168.782 155.143C168.796 155.213 168.825 155.277 168.864 155.334C168.968 155.503 169.168 155.602 169.375 155.563L172.638 154.959C172.903 154.91 173.078 154.659 173.028 154.394C173.028 154.394 173.028 154.383 173.024 154.376C173.024 154.369 173.024 154.365 173.024 154.358L172.413 151.132C172.363 150.87 172.109 150.697 171.841 150.747H171.838ZM169.221 152.217L171.538 151.789L171.974 154.1L169.658 154.528L169.221 152.217Z" fill="#5080FF"/>
<path d="M177.624 97.3694L176.473 97.5814C176.209 97.6309 175.952 97.4577 175.902 97.1962C175.852 96.9347 176.027 96.6803 176.291 96.6308L177.442 96.4188L177.228 95.2809C177.178 95.0194 177.353 94.7649 177.617 94.7155C177.882 94.666 178.139 94.8392 178.189 95.1007L178.404 96.2385L179.554 96.0265C179.819 95.977 180.076 96.1502 180.126 96.4117C180.176 96.6732 180.001 96.9276 179.737 96.9771L178.586 97.1891L178.8 98.327C178.85 98.5885 178.675 98.843 178.411 98.8924C178.146 98.9419 177.889 98.7688 177.839 98.5073L177.624 97.3694Z" fill="#00BA8E"/>
<path d="M177.475 111.925L178.44 112.579C178.661 112.731 178.718 113.031 178.568 113.25C178.415 113.469 178.111 113.526 177.889 113.377L176.924 112.724L176.263 113.678C176.109 113.897 175.805 113.954 175.584 113.805C175.362 113.653 175.305 113.353 175.455 113.134L176.116 112.18L175.151 111.526C174.93 111.374 174.873 111.073 175.023 110.854C175.176 110.635 175.48 110.579 175.702 110.727L176.667 111.381L177.328 110.427C177.482 110.208 177.786 110.151 178.007 110.3C178.229 110.451 178.286 110.752 178.136 110.971L177.475 111.925Z" fill="#1B3DC8"/>
<path d="M168.11 91.8273C166.927 92.0464 165.78 91.2725 165.558 90.0993C165.336 88.9296 166.119 87.7953 167.306 87.5762C168.489 87.3571 169.636 88.131 169.858 89.3042C170.079 90.4739 169.297 91.6082 168.11 91.8273ZM167.485 88.5303C166.83 88.6504 166.398 89.2759 166.519 89.9226C166.641 90.5693 167.274 90.9969 167.928 90.8767C168.582 90.7566 169.014 90.1311 168.893 89.4844C168.771 88.8377 168.139 88.4101 167.485 88.5303Z" fill="#FFD06A"/>
<path d="M188.833 122.869C190.016 122.65 191.164 123.424 191.385 124.597C191.607 125.767 190.824 126.901 189.637 127.12C188.454 127.339 187.307 126.565 187.085 125.392C186.864 124.223 187.647 123.088 188.833 122.869ZM189.459 126.166C190.113 126.046 190.545 125.421 190.424 124.774C190.302 124.127 189.67 123.7 189.015 123.82C188.361 123.94 187.929 124.565 188.05 125.212C188.172 125.859 188.805 126.286 189.459 126.166Z" fill="#5080FF"/>
<path d="M165.411 96.5318C165.543 96.5742 165.615 96.7191 165.572 96.8499L165.25 97.7969C165.207 97.9277 165.061 97.9984 164.929 97.956C164.796 97.9136 164.725 97.7687 164.768 97.6379L165.089 96.6909C165.132 96.5601 165.279 96.4894 165.411 96.5318Z" fill="#FFD06A"/>
<path d="M163.71 100.757L164.439 98.6088C164.482 98.4781 164.629 98.4074 164.761 98.4498C164.893 98.4922 164.965 98.6371 164.922 98.7678L164.193 100.916C164.15 101.047 164.003 101.118 163.871 101.075C163.739 101.033 163.667 100.888 163.71 100.757Z" fill="#FFD06A"/>
<path d="M160.901 108.819L163.317 101.921C163.36 101.791 163.506 101.72 163.638 101.762C163.771 101.805 163.842 101.95 163.799 102.08L161.383 108.978C161.34 109.109 161.194 109.18 161.061 109.137C160.929 109.095 160.858 108.95 160.901 108.819Z" fill="#FFD06A"/>
<path d="M194.063 113.547L194.792 112.847C194.96 112.685 195.228 112.688 195.392 112.854C195.557 113.02 195.553 113.285 195.385 113.448L194.656 114.148L195.364 114.869C195.528 115.035 195.525 115.3 195.357 115.462C195.189 115.625 194.92 115.621 194.756 115.455L194.048 114.734L193.319 115.434C193.151 115.597 192.883 115.593 192.719 115.427C192.554 115.261 192.558 114.996 192.726 114.833L193.455 114.134L192.747 113.413C192.583 113.247 192.587 112.982 192.755 112.819C192.922 112.656 193.191 112.66 193.355 112.826L194.063 113.547Z" fill="#C88BF8"/>
</g>
<defs>
<clipPath id="clip0_288_40976">
<rect width="9" height="18" fill="white" transform="translate(90 12)"/>
</clipPath>
<clipPath id="clip1_288_40976">
<rect width="37.24" height="73.15" fill="white" transform="translate(158.27 86.4492)"/>
</clipPath>
</defs>
</svg>
