<svg width="200" height="182" viewBox="0 0 200 182" fill="none" xmlns="http://www.w3.org/2000/svg">
<g clip-path="url(#clip0_288_46471)">
<path d="M168.602 14.9119C157.107 0.939664 137.036 -4.97259 121.387 4.89837C106.658 14.1881 100.068 32.3784 86.7544 43.3726C72.7963 54.8997 57.4298 55.5042 40.5305 53.4468C25.9634 51.6739 9.38468 51.9526 3.6279 68.921C-2.61403 87.3216 6.59629 108.976 17.744 123.161C28.735 137.147 44.0634 146.514 60.9563 150.182C94.624 157.493 134.297 145.267 158.285 119.291C183.082 92.4384 193.663 45.3706 168.602 14.9119Z" fill="#F7F7F7"/>
<path d="M34.3935 82.4525C32.9542 82.4525 31.5032 82.3615 30.0813 82.1821C29.889 82.1576 29.7529 81.9821 29.7768 81.7899C29.8013 81.5976 29.9761 81.4628 30.169 81.4854C31.5619 81.6615 32.9832 81.7505 34.3935 81.7505C35.2342 81.7505 36.0877 81.7189 36.9303 81.6563C37.1232 81.6434 37.3 81.786 37.3142 81.9796C37.3284 82.1725 37.1923 82.3402 36.9987 82.355L36.9774 82.3563C36.1219 82.4202 35.2503 82.4525 34.3923 82.4525H34.3935ZM47.6026 79.8118C47.4652 79.8118 47.3348 79.7312 47.2787 79.5963C47.2039 79.4176 47.2884 79.2118 47.4671 79.137C49.5497 78.2647 51.5535 77.1757 53.4226 75.8989C53.5826 75.7899 53.8006 75.8305 53.9103 75.9912C54.0194 76.1512 53.9781 76.3699 53.8181 76.4789C51.9097 77.7821 49.8639 78.8937 47.7381 79.7847C47.6935 79.8034 47.6477 79.8118 47.6026 79.8118ZM19.6426 79.0821C19.5916 79.0821 19.5394 79.0712 19.4903 79.0473C17.4142 78.0454 15.4297 76.8279 13.591 75.4286C13.4368 75.3112 13.4071 75.0912 13.5245 74.937C13.6419 74.7828 13.8619 74.7531 14.0161 74.8705C15.8174 76.2408 17.7619 77.4338 19.7955 78.4157C19.9697 78.5002 20.0432 78.7099 19.9587 78.8841C19.8981 79.0092 19.7729 79.0828 19.6426 79.0828V79.0821ZM61.5458 69.0131C61.4716 69.0131 61.3968 68.9899 61.3335 68.9415C61.1794 68.8241 61.1497 68.6041 61.2671 68.4499C62.6387 66.6492 63.8323 64.7054 64.8148 62.6718C64.8994 62.4976 65.109 62.4241 65.2832 62.5086C65.4574 62.5931 65.531 62.8028 65.4464 62.977C64.4432 65.0525 63.2252 67.037 61.8252 68.8744C61.7561 68.9647 61.6516 69.0125 61.5458 69.0125V69.0131ZM6.2729 67.5783C6.16065 67.5783 6.05097 67.5247 5.98258 67.4254C4.67871 65.5176 3.56581 63.4725 2.67419 61.3466C2.59935 61.1679 2.68323 60.9621 2.86194 60.8873C3.04065 60.8125 3.24645 60.8963 3.32129 61.075C4.19484 63.157 5.28516 65.1602 6.56194 67.0292C6.67161 67.1892 6.63032 67.4079 6.47032 67.517C6.40968 67.5583 6.34065 67.5783 6.2729 67.5783ZM68.2387 52.6944C68.2239 52.6944 68.209 52.6937 68.1942 52.6918C68.0019 52.6673 67.8658 52.4918 67.8903 52.2996C68.0677 50.9015 68.1574 49.475 68.1574 48.0589C68.1574 47.2183 68.1258 46.3647 68.0632 45.5221L68.0581 45.457C68.0432 45.2641 68.1884 45.095 68.3819 45.0808C68.5755 45.066 68.7439 45.2112 68.7581 45.4047L68.7632 45.4712C68.8271 46.3305 68.8594 47.2015 68.8594 48.0596C68.8594 49.5047 68.7677 50.9608 68.5864 52.3886C68.5639 52.566 68.4129 52.6957 68.2387 52.6957V52.6944ZM0.448387 50.9338C0.266452 50.9338 0.112903 50.7937 0.0987097 50.6092L0.096129 50.5763C0.0322581 49.717 0 48.8454 0 47.9867C0 46.5525 0.0903226 45.1073 0.268387 43.6905C0.292258 43.4983 0.468387 43.3628 0.660645 43.386C0.852903 43.4105 0.989032 43.5854 0.965161 43.7783C0.790323 45.166 0.701935 46.5821 0.701935 47.9867C0.701935 48.8279 0.733548 49.6815 0.796129 50.5234L0.79871 50.5557C0.813548 50.7492 0.668387 50.9176 0.474839 50.9318C0.465806 50.9325 0.456774 50.9331 0.447742 50.9331L0.448387 50.9338ZM65.849 35.1557C65.7123 35.1557 65.5819 35.075 65.5252 34.9408C64.6497 32.8596 63.5574 30.8576 62.2787 28.9899C62.169 28.8299 62.2103 28.6118 62.3697 28.5021C62.5297 28.3925 62.7484 28.4337 62.8574 28.5931C64.1632 30.4996 65.2781 32.5434 66.1716 34.6686C66.2465 34.8473 66.1626 35.0531 65.9839 35.1279C65.9394 35.1467 65.8935 35.1557 65.8477 35.1557H65.849ZM3.71419 33.6021C3.66323 33.6021 3.61097 33.5912 3.56194 33.5673C3.3871 33.4834 3.31419 33.2731 3.39806 33.0989C4.39935 31.0221 5.61548 29.037 7.01419 27.1976C7.13161 27.0434 7.35161 27.0131 7.50581 27.1305C7.66 27.2479 7.69032 27.4679 7.5729 27.6221C6.20323 29.4241 5.01097 31.3692 4.03032 33.4034C3.96968 33.5292 3.84452 33.6021 3.71419 33.6021ZM55.0297 21.2279C54.9555 21.2279 54.8813 21.2047 54.8174 21.1563C53.0148 19.7873 51.069 18.5963 49.0348 17.617C48.86 17.5331 48.7871 17.3234 48.871 17.1486C48.9548 16.9738 49.1645 16.9008 49.3394 16.9847C51.4161 17.9847 53.4026 19.2002 55.2426 20.5976C55.3968 20.715 55.4271 20.935 55.3097 21.0892C55.2406 21.1802 55.1361 21.2279 55.0297 21.2279ZM15.2123 20.226C15.1 20.226 14.9903 20.1725 14.9219 20.0731C14.8123 19.9131 14.8535 19.695 15.0135 19.5854C16.9206 18.2808 18.9652 17.1667 21.0903 16.2737C21.269 16.1989 21.4748 16.2828 21.5497 16.4615C21.6245 16.6402 21.5406 16.846 21.3619 16.9208C19.28 17.795 17.2774 18.8867 15.4097 20.1647C15.349 20.206 15.28 20.226 15.2116 20.226H15.2123ZM38.7019 14.5589C38.6871 14.5589 38.6729 14.5583 38.6581 14.5563C37.2755 14.3834 35.8645 14.2957 34.4658 14.2957C33.6245 14.2957 32.771 14.3273 31.929 14.3899L31.88 14.3937C31.6852 14.4067 31.5181 14.2634 31.5039 14.0699C31.489 13.8763 31.6342 13.7079 31.8277 13.6938L31.8768 13.6899C32.7361 13.626 33.6077 13.5938 34.4664 13.5938C35.8948 13.5938 37.3342 13.6834 38.7458 13.8602C38.9381 13.8841 39.0748 14.0596 39.0503 14.2518C39.0284 14.4292 38.8768 14.5589 38.7026 14.5596L38.7019 14.5589Z" fill="#3FA7D6"/>
<path d="M164.349 133.666C162.922 133.666 161.762 132.505 161.762 131.078C161.762 129.651 162.922 128.49 164.349 128.49C165.777 128.49 166.937 129.651 166.937 131.078C166.937 132.505 165.777 133.666 164.349 133.666ZM164.349 129.552C163.508 129.552 162.823 130.236 162.823 131.078C162.823 131.92 163.508 132.604 164.349 132.604C165.191 132.604 165.876 131.92 165.876 131.078C165.876 130.236 165.191 129.552 164.349 129.552Z" fill="#3FA7D6"/>
<path d="M18.8952 167.669H17.3062V165.428C17.3062 165.178 17.1043 164.977 16.8552 164.977C16.6062 164.977 16.4043 165.178 16.4043 165.428V167.669H14.8152C14.5662 167.669 14.3643 167.871 14.3643 168.12C14.3643 168.369 14.5662 168.571 14.8152 168.571H16.4043V170.812C16.4043 171.061 16.6062 171.263 16.8552 171.263C17.1043 171.263 17.3062 171.061 17.3062 170.812V168.571H18.8952C19.1443 168.571 19.3462 168.369 19.3462 168.12C19.3462 167.871 19.1443 167.669 18.8952 167.669Z" fill="#3FA7D6"/>
<path d="M190.195 40.3805H187.81V37.0166C187.81 36.6431 187.507 36.3398 187.133 36.3398C186.76 36.3398 186.456 36.6431 186.456 37.0166V40.3805H184.071C183.698 40.3805 183.395 40.6837 183.395 41.0573C183.395 41.4308 183.698 41.734 184.071 41.734H186.456V45.0979C186.456 45.4715 186.76 45.7747 187.133 45.7747C187.507 45.7747 187.81 45.4715 187.81 45.0979V41.734H190.195C190.569 41.734 190.872 41.4308 190.872 41.0573C190.872 40.6837 190.569 40.3805 190.195 40.3805Z" fill="#3FA7D6"/>
<path d="M139.394 181.39C139.21 181.39 139.026 181.389 138.842 181.387C138.671 181.386 138.533 181.245 138.535 181.073C138.536 180.903 138.675 180.766 138.845 180.766H138.848C140.935 180.785 143.055 180.693 145.145 180.492C145.315 180.477 145.467 180.601 145.484 180.772C145.5 180.942 145.375 181.094 145.204 181.11C143.277 181.295 141.322 181.389 139.394 181.389V181.39ZM128.762 180.439C128.744 180.439 128.725 180.438 128.706 180.434C126.625 180.059 124.539 179.568 122.507 178.974C122.342 178.926 122.247 178.753 122.296 178.589C122.344 178.424 122.517 178.33 122.681 178.378C124.693 178.965 126.757 179.452 128.817 179.823C128.985 179.853 129.097 180.015 129.067 180.184C129.04 180.334 128.909 180.439 128.762 180.439ZM155.141 179.313C155.004 179.313 154.878 179.221 154.841 179.082C154.797 178.917 154.895 178.746 155.06 178.702C157.086 178.16 159.102 177.505 161.053 176.755C161.213 176.694 161.392 176.774 161.454 176.934C161.515 177.094 161.436 177.273 161.275 177.335C159.304 178.093 157.267 178.755 155.221 179.302C155.194 179.31 155.167 179.313 155.14 179.313L155.141 179.313ZM113.145 175.339C113.099 175.339 113.053 175.329 113.009 175.308C111.108 174.384 109.233 173.348 107.436 172.229C107.29 172.139 107.246 171.947 107.337 171.801C107.427 171.655 107.618 171.611 107.764 171.702C109.542 172.81 111.398 173.835 113.28 174.75C113.435 174.824 113.499 175.01 113.424 175.164C113.37 175.275 113.259 175.339 113.144 175.339H113.145ZM170.277 172.937C170.171 172.937 170.067 172.883 170.009 172.786C169.922 172.638 169.97 172.448 170.118 172.36C171.915 171.292 173.677 170.115 175.354 168.861C175.491 168.759 175.686 168.787 175.789 168.924C175.891 169.062 175.864 169.256 175.726 169.359C174.032 170.625 172.252 171.815 170.435 172.894C170.386 172.924 170.331 172.937 170.277 172.937H170.277ZM99.4804 166.223C99.4075 166.223 99.334 166.197 99.2746 166.145C97.6894 164.743 96.1617 163.242 94.7333 161.684C94.6172 161.558 94.6262 161.362 94.7527 161.246C94.8791 161.13 95.0752 161.138 95.1914 161.265C96.6049 162.807 98.1172 164.292 99.6862 165.68C99.8146 165.793 99.8269 165.99 99.7133 166.118C99.652 166.188 99.5662 166.222 99.4804 166.222V166.223ZM183.115 162.699C183.038 162.699 182.96 162.671 182.9 162.613C182.776 162.495 182.771 162.299 182.889 162.174C184.333 160.659 185.713 159.05 186.991 157.391C187.095 157.255 187.291 157.23 187.426 157.335C187.562 157.439 187.587 157.635 187.482 157.77C186.191 159.446 184.797 161.072 183.338 162.602C183.277 162.666 183.196 162.699 183.113 162.699L183.115 162.699ZM88.772 153.773C88.6701 153.773 88.5701 153.723 88.5107 153.632C87.363 151.854 86.2972 149.996 85.3436 148.108C85.2662 147.955 85.3275 147.768 85.481 147.692C85.6339 147.614 85.821 147.675 85.8978 147.829C86.8417 149.697 87.8959 151.536 89.032 153.295C89.1249 153.439 89.0836 153.631 88.9398 153.724C88.8875 153.757 88.8294 153.773 88.7714 153.773H88.772ZM192.728 149.382C192.679 149.382 192.629 149.37 192.582 149.346C192.431 149.265 192.374 149.077 192.454 148.926C193.439 147.077 194.337 145.155 195.122 143.215C195.186 143.057 195.367 142.98 195.526 143.044C195.685 143.108 195.762 143.289 195.698 143.448C194.905 145.408 193.998 147.349 193.003 149.217C192.947 149.322 192.84 149.382 192.729 149.382H192.728ZM81.8359 138.887C81.703 138.887 81.5804 138.801 81.5391 138.668C80.9185 136.652 80.3959 134.574 79.9862 132.494C79.9533 132.326 80.063 132.162 80.2307 132.13C80.3985 132.097 80.5623 132.206 80.5952 132.374C81.0004 134.433 81.5172 136.489 82.132 138.484C82.1823 138.648 82.0907 138.822 81.9269 138.873C81.8965 138.882 81.8656 138.886 81.8352 138.886L81.8359 138.887ZM198.406 133.968C198.384 133.968 198.362 133.965 198.339 133.961C198.171 133.924 198.066 133.758 198.102 133.591C198.551 131.545 198.895 129.452 199.125 127.37C199.144 127.2 199.297 127.077 199.467 127.095C199.638 127.114 199.761 127.268 199.742 127.438C199.51 129.541 199.162 131.656 198.709 133.723C198.678 133.868 198.549 133.967 198.406 133.967V133.968ZM79.1643 122.679C78.9965 122.679 78.8585 122.545 78.8539 122.377C78.8378 121.813 78.8301 121.241 78.8301 120.679C78.8301 119.128 78.8907 117.557 79.0107 116.012C79.0243 115.841 79.1727 115.71 79.3443 115.726C79.5152 115.739 79.643 115.889 79.6301 116.06C79.5114 117.589 79.4514 119.143 79.4514 120.678C79.4514 121.235 79.4591 121.801 79.4752 122.359C79.4798 122.53 79.3449 122.673 79.1733 122.678C79.1701 122.678 79.1675 122.678 79.1643 122.678V122.679ZM199.691 117.59C199.527 117.59 199.391 117.463 199.381 117.298C199.258 115.214 199.024 113.106 198.684 111.034L198.669 110.945C198.641 110.776 198.755 110.616 198.924 110.588C199.093 110.561 199.253 110.675 199.281 110.844L199.296 110.933C199.64 113.027 199.877 115.156 200 117.261C200.011 117.432 199.88 117.579 199.709 117.59C199.702 117.59 199.697 117.59 199.69 117.59L199.691 117.59ZM80.9552 106.352C80.9301 106.352 80.9049 106.348 80.8791 106.342C80.7127 106.3 80.612 106.132 80.654 105.965C81.1707 103.915 81.803 101.868 82.5333 99.8799C82.5927 99.7193 82.7707 99.636 82.932 99.6954C83.0927 99.7547 83.1752 99.9328 83.1165 100.094C82.3933 102.061 81.7675 104.088 81.2565 106.117C81.221 106.257 81.0946 106.352 80.9559 106.352H80.9552ZM196.497 101.386C196.367 101.386 196.247 101.306 196.203 101.177C195.522 99.1954 194.728 97.2296 193.844 95.3347C193.771 95.1792 193.838 94.9947 193.993 94.9218C194.149 94.8496 194.333 94.9167 194.406 95.0722C195.3 96.987 196.102 98.9734 196.79 100.975C196.846 101.137 196.76 101.314 196.597 101.37C196.564 101.382 196.529 101.387 196.496 101.387L196.497 101.386ZM87.1043 91.118C87.052 91.118 86.9991 91.1051 86.9501 91.0767C86.801 90.9915 86.7494 90.8018 86.8346 90.6528C87.8856 88.8173 89.0456 87.0167 90.2823 85.3005C90.3823 85.1612 90.5765 85.1302 90.7159 85.2302C90.8552 85.3302 90.8862 85.5244 90.7862 85.6638C89.5617 87.3625 88.4133 89.1451 87.3733 90.9612C87.3159 91.0612 87.2114 91.1173 87.1036 91.1173L87.1043 91.118ZM189.082 86.7341C188.984 86.7341 188.887 86.6876 188.827 86.6005C187.636 84.8818 186.339 83.2063 184.972 81.6192C184.86 81.4896 184.875 81.2934 185.004 81.1812C185.134 81.0696 185.33 81.0838 185.442 81.2134C186.824 82.8167 188.134 84.5096 189.337 86.2463C189.435 86.387 189.4 86.5805 189.259 86.6786C189.205 86.716 189.144 86.7341 189.082 86.7341ZM97.1217 78.0999C97.0417 78.0999 96.9617 78.0689 96.901 78.0076C96.7804 77.8857 96.7817 77.6889 96.9036 77.5683C98.4094 76.0818 100.01 74.6593 101.66 73.3399C101.795 73.2328 101.989 73.2547 102.097 73.3889C102.204 73.5231 102.182 73.718 102.047 73.8251C100.413 75.1302 98.8294 76.5386 97.3391 78.0096C97.2785 78.0696 97.1998 78.0993 97.121 78.0993L97.1217 78.0999ZM177.977 74.636C177.907 74.636 177.837 74.6128 177.779 74.5644C176.168 73.2289 174.467 71.9631 172.724 70.8018C172.582 70.707 172.543 70.5141 172.638 70.3715C172.733 70.2289 172.926 70.1902 173.068 70.2851C174.829 71.458 176.547 72.7367 178.175 74.0863C178.307 74.196 178.326 74.3915 178.216 74.5238C178.155 74.598 178.066 74.636 177.977 74.636H177.977ZM110.27 68.2625C110.161 68.2625 110.055 68.2044 109.998 68.1025C109.915 67.9522 109.969 67.7638 110.119 67.6805C111.97 66.6567 113.897 65.7212 115.846 64.8986C116.004 64.8322 116.186 64.9057 116.253 65.0638C116.319 65.2218 116.246 65.4038 116.087 65.4702C114.158 66.2844 112.252 67.2109 110.42 68.2238C110.372 68.2502 110.32 68.2625 110.269 68.2625H110.27ZM164.028 65.9631C163.986 65.9631 163.943 65.9547 163.902 65.936C161.988 65.0812 160.009 64.3186 158.02 63.6702C157.857 63.6173 157.767 63.4418 157.821 63.2786C157.874 63.1154 158.049 63.0263 158.213 63.0799C160.222 63.7347 162.222 64.5051 164.155 65.3689C164.312 65.4386 164.382 65.6225 164.312 65.7793C164.26 65.8947 164.147 65.9631 164.028 65.9631ZM125.595 62.3586C125.454 62.3586 125.326 62.2625 125.293 62.1193C125.253 61.9522 125.357 61.7851 125.524 61.7457C126.88 61.4263 128.268 61.1496 129.649 60.9231C130.358 60.807 131.077 60.7018 131.788 60.6102C131.958 60.5876 132.114 60.7083 132.136 60.8786C132.158 61.0489 132.038 61.2044 131.867 61.2264C131.164 61.3167 130.451 61.4205 129.75 61.536C128.383 61.7605 127.009 62.0341 125.666 62.3502C125.642 62.356 125.618 62.3586 125.595 62.3586ZM148.257 61.3715C148.242 61.3715 148.226 61.3702 148.211 61.3683C146.14 61.0638 144.028 60.867 141.934 60.7831C141.762 60.776 141.629 60.6315 141.636 60.4605C141.643 60.2889 141.786 60.1541 141.958 60.1625C144.075 60.247 146.208 60.4464 148.301 60.7541C148.471 60.7793 148.588 60.9367 148.563 61.1064C148.54 61.2605 148.407 61.3715 148.256 61.3715H148.257Z" fill="#3FA7D6"/>
<path d="M94.5513 35.7038L42.9326 80.0515L43.8933 100.117C43.8933 102.511 46.7804 136.445 49.5268 136.445L97.7255 104.19L141.155 133.134C143.901 133.134 149.202 101.599 149.202 99.2051L152.413 80.0044L100.747 35.7038C98.9345 34.4451 96.3642 34.4451 94.5513 35.7038Z" fill="#FC9C14"/>
<path d="M139.192 46.5586H55.9077C53.6886 46.5586 51.8896 48.3575 51.8896 50.5767V135.41C51.8896 137.629 53.6886 139.428 55.9077 139.428H139.192C141.411 139.428 143.21 137.629 143.21 135.41V50.5767C143.21 48.3575 141.411 46.5586 139.192 46.5586Z" fill="white"/>
<path d="M97.7245 97.2987C106.861 97.2987 114.268 89.8917 114.268 80.7548C114.268 71.6179 106.861 64.2109 97.7245 64.2109C88.5876 64.2109 81.1807 71.6179 81.1807 80.7548C81.1807 89.8917 88.5876 97.2987 97.7245 97.2987Z" fill="#85C74C"/>
<path d="M97.7244 59.5469C97.6528 59.5469 97.5947 59.4889 97.5947 59.4173V53.5418C97.5947 53.4702 97.6528 53.4121 97.7244 53.4121C97.796 53.4121 97.8541 53.4702 97.8541 53.5418V59.4173C97.8541 59.4889 97.796 59.5469 97.7244 59.5469Z" fill="#FFC057"/>
<path d="M97.8225 59.7841C97.7915 59.7924 97.7586 59.797 97.7244 59.797C97.5154 59.797 97.3457 59.6273 97.3457 59.4183V53.5428C97.3457 53.3337 97.516 53.1641 97.7244 53.1641C97.8257 53.1641 97.9205 53.2034 97.9922 53.275C98.0638 53.3466 98.1031 53.4415 98.1031 53.5428V59.4183C98.1031 59.5931 97.9838 59.7408 97.8225 59.7841Z" fill="#FFC057"/>
<path d="M97.7244 108.096C97.6528 108.096 97.5947 108.038 97.5947 107.966V102.091C97.5947 102.019 97.6528 101.961 97.7244 101.961C97.796 101.961 97.8541 102.019 97.8541 102.091V107.966C97.8541 108.038 97.796 108.096 97.7244 108.096Z" fill="#FFC057"/>
<path d="M97.8231 108.333C97.7915 108.341 97.758 108.346 97.7244 108.346C97.5154 108.346 97.3457 108.176 97.3457 107.967V102.092C97.3457 101.883 97.5154 101.712 97.7244 101.713C97.9334 101.713 98.1031 101.883 98.1031 102.092V107.967C98.1031 108.068 98.0638 108.163 97.9922 108.235C97.9444 108.283 97.8863 108.316 97.8231 108.333Z" fill="#FFC057"/>
<path d="M76.389 80.8843H70.5135C70.4419 80.8843 70.3838 80.8263 70.3838 80.7547C70.3838 80.6831 70.4419 80.625 70.5135 80.625H76.389C76.4606 80.625 76.5186 80.6831 76.5186 80.7547C76.5186 80.8263 76.4606 80.8843 76.389 80.8843Z" fill="#FFC057"/>
<path d="M76.4877 81.1215C76.4561 81.1299 76.4225 81.1344 76.389 81.1344H70.5135C70.4122 81.1344 70.3174 81.095 70.2457 81.0234C70.1741 80.9518 70.1348 80.857 70.1348 80.7557C70.1348 80.5466 70.3044 80.377 70.5135 80.377H76.389C76.4903 80.377 76.5851 80.4163 76.6567 80.4879C76.7283 80.5595 76.7677 80.6544 76.7677 80.7557C76.7677 80.857 76.7283 80.9518 76.6567 81.0234C76.609 81.0711 76.5509 81.1047 76.4877 81.1215Z" fill="#FFC057"/>
<path d="M124.937 80.8843H119.061C118.99 80.8843 118.932 80.8263 118.932 80.7547C118.932 80.6831 118.99 80.625 119.061 80.625H124.937C125.008 80.625 125.066 80.6831 125.066 80.7547C125.066 80.8263 125.008 80.8843 124.937 80.8843Z" fill="#FFC057"/>
<path d="M125.036 81.1195C125.004 81.1279 124.97 81.1324 124.937 81.1324H119.061C118.852 81.1324 118.683 80.9627 118.683 80.7537C118.683 80.5447 118.852 80.375 119.061 80.375H124.937C125.038 80.375 125.133 80.4144 125.205 80.486C125.276 80.5576 125.316 80.6524 125.316 80.7537C125.316 80.855 125.276 80.9498 125.205 81.0214C125.157 81.0692 125.099 81.1027 125.036 81.1195Z" fill="#FFC057"/>
<path d="M78.4838 100.126C78.4509 100.126 78.4174 100.113 78.3922 100.088C78.3419 100.038 78.3419 99.9551 78.3922 99.9048L82.5464 95.7506C82.5968 95.7003 82.6793 95.7003 82.7297 95.7506C82.78 95.801 82.78 95.8835 82.7297 95.9339L78.5755 100.088C78.5503 100.113 78.5168 100.126 78.4838 100.126Z" fill="#FFC057"/>
<path d="M78.5819 100.363C78.5503 100.372 78.5174 100.376 78.4832 100.376C78.3819 100.376 78.2871 100.337 78.2155 100.265C78.1438 100.194 78.1045 100.099 78.1045 99.9976C78.1045 99.8963 78.1438 99.8015 78.2155 99.7298L82.3697 95.5757C82.5174 95.4279 82.7574 95.4279 82.9051 95.5757C82.9768 95.6473 83.0161 95.7421 83.0161 95.8434C83.0161 95.9447 82.9768 96.0395 82.9051 96.1111L78.7509 100.265C78.7032 100.313 78.6451 100.347 78.5819 100.363Z" fill="#FFC057"/>
<path d="M112.813 65.796C112.78 65.796 112.746 65.7831 112.721 65.758C112.671 65.7076 112.671 65.6251 112.721 65.5747L116.876 61.4206C116.926 61.3702 117.008 61.3702 117.059 61.4206C117.109 61.4709 117.109 61.5535 117.059 61.6038L112.905 65.758C112.879 65.7831 112.846 65.796 112.813 65.796Z" fill="#FFC057"/>
<path d="M112.911 66.0333C112.879 66.0417 112.846 66.0462 112.812 66.0462C112.711 66.0462 112.616 66.0069 112.544 65.9352C112.397 65.7875 112.397 65.5475 112.544 65.3998L116.699 61.2456C116.846 61.0978 117.086 61.0978 117.234 61.2456C117.306 61.3172 117.345 61.412 117.345 61.5133C117.345 61.6146 117.306 61.7094 117.234 61.7811L113.08 65.9352C113.032 65.983 112.974 66.0165 112.911 66.0333Z" fill="#FFC057"/>
<path d="M82.638 65.7967C82.6051 65.7967 82.5716 65.7838 82.5464 65.7586L78.3922 61.6038C78.3419 61.5535 78.3419 61.4709 78.3922 61.4206C78.4426 61.3702 78.5251 61.3702 78.5755 61.4206L82.7297 65.5754C82.78 65.6257 82.78 65.7083 82.7297 65.7586C82.7045 65.7838 82.6709 65.7967 82.638 65.7967Z" fill="#FFC057"/>
<path d="M82.7361 66.034C82.7045 66.0423 82.6716 66.0469 82.6374 66.0469C82.5361 66.0469 82.4413 66.0075 82.3697 65.9359L78.2155 61.7811C78.1438 61.7094 78.1045 61.6146 78.1045 61.5133C78.1045 61.412 78.1438 61.3172 78.2155 61.2456C78.3632 61.0978 78.6032 61.0978 78.7509 61.2456L82.9051 65.4004C83.0529 65.5482 83.0529 65.7882 82.9051 65.9359C82.8574 65.9836 82.7993 66.0172 82.7361 66.034Z" fill="#FFC057"/>
<path d="M116.967 100.127C116.934 100.127 116.901 100.114 116.876 100.089L112.721 95.9339C112.671 95.8835 112.671 95.801 112.721 95.7506C112.772 95.7003 112.854 95.7003 112.905 95.7506L117.059 99.9055C117.109 99.9558 117.109 100.038 117.059 100.089C117.034 100.114 117 100.127 116.967 100.127Z" fill="#FFC057"/>
<path d="M117.065 100.362C117.034 100.37 117.001 100.375 116.966 100.375C116.865 100.375 116.77 100.336 116.699 100.264L112.545 96.1092C112.473 96.0376 112.434 95.9427 112.434 95.8414C112.434 95.7402 112.473 95.6453 112.545 95.5737C112.692 95.426 112.932 95.426 113.08 95.5737L117.234 99.7279C117.306 99.7995 117.345 99.8943 117.345 99.9956C117.345 100.097 117.306 100.192 117.234 100.263C117.186 100.311 117.128 100.345 117.065 100.361V100.362Z" fill="#FFC057"/>
<path d="M97.7244 59.5469C97.6528 59.5469 97.5947 59.4889 97.5947 59.4173V53.5418C97.5947 53.4702 97.6528 53.4121 97.7244 53.4121C97.796 53.4121 97.8541 53.4702 97.8541 53.5418V59.4173C97.8541 59.4889 97.796 59.5469 97.7244 59.5469Z" fill="#FFC057"/>
<path d="M97.8225 59.7841C97.7915 59.7924 97.7586 59.797 97.7244 59.797C97.5154 59.797 97.3457 59.6273 97.3457 59.4183V53.5428C97.3457 53.3337 97.516 53.1641 97.7244 53.1641C97.8257 53.1641 97.9205 53.2034 97.9922 53.275C98.0638 53.3466 98.1031 53.4415 98.1031 53.5428V59.4183C98.1031 59.5931 97.9838 59.7408 97.8225 59.7841Z" fill="#FFC057"/>
<path d="M97.7244 108.096C97.6528 108.096 97.5947 108.038 97.5947 107.966V102.091C97.5947 102.019 97.6528 101.961 97.7244 101.961C97.796 101.961 97.8541 102.019 97.8541 102.091V107.966C97.8541 108.038 97.796 108.096 97.7244 108.096Z" fill="#FFC057"/>
<path d="M97.8231 108.333C97.7915 108.341 97.758 108.346 97.7244 108.346C97.5154 108.346 97.3457 108.176 97.3457 107.967V102.092C97.3457 101.883 97.5154 101.712 97.7244 101.713C97.9334 101.713 98.1031 101.883 98.1031 102.092V107.967C98.1031 108.068 98.0638 108.163 97.9922 108.235C97.9444 108.283 97.8863 108.316 97.8231 108.333Z" fill="#FFC057"/>
<path d="M76.389 80.8843H70.5135C70.4419 80.8843 70.3838 80.8263 70.3838 80.7547C70.3838 80.6831 70.4419 80.625 70.5135 80.625H76.389C76.4606 80.625 76.5186 80.6831 76.5186 80.7547C76.5186 80.8263 76.4606 80.8843 76.389 80.8843Z" fill="#FFC057"/>
<path d="M76.4877 81.1215C76.4561 81.1299 76.4225 81.1344 76.389 81.1344H70.5135C70.4122 81.1344 70.3174 81.095 70.2457 81.0234C70.1741 80.9518 70.1348 80.857 70.1348 80.7557C70.1348 80.5466 70.3044 80.377 70.5135 80.377H76.389C76.4903 80.377 76.5851 80.4163 76.6567 80.4879C76.7283 80.5595 76.7677 80.6544 76.7677 80.7557C76.7677 80.857 76.7283 80.9518 76.6567 81.0234C76.609 81.0711 76.5509 81.1047 76.4877 81.1215Z" fill="#FFC057"/>
<path d="M124.937 80.8843H119.061C118.99 80.8843 118.932 80.8263 118.932 80.7547C118.932 80.6831 118.99 80.625 119.061 80.625H124.937C125.008 80.625 125.066 80.6831 125.066 80.7547C125.066 80.8263 125.008 80.8843 124.937 80.8843Z" fill="#FFC057"/>
<path d="M125.036 81.1195C125.004 81.1279 124.97 81.1324 124.937 81.1324H119.061C118.852 81.1324 118.683 80.9627 118.683 80.7537C118.683 80.5447 118.852 80.375 119.061 80.375H124.937C125.038 80.375 125.133 80.4144 125.205 80.486C125.276 80.5576 125.316 80.6524 125.316 80.7537C125.316 80.855 125.276 80.9498 125.205 81.0214C125.157 81.0692 125.099 81.1027 125.036 81.1195Z" fill="#FFC057"/>
<path d="M78.4838 100.126C78.4509 100.126 78.4174 100.113 78.3922 100.088C78.3419 100.038 78.3419 99.9551 78.3922 99.9048L82.5464 95.7506C82.5968 95.7003 82.6793 95.7003 82.7297 95.7506C82.78 95.801 82.78 95.8835 82.7297 95.9339L78.5755 100.088C78.5503 100.113 78.5168 100.126 78.4838 100.126Z" fill="#FFC057"/>
<path d="M78.5819 100.363C78.5503 100.372 78.5174 100.376 78.4832 100.376C78.3819 100.376 78.2871 100.337 78.2155 100.265C78.1438 100.194 78.1045 100.099 78.1045 99.9976C78.1045 99.8963 78.1438 99.8015 78.2155 99.7298L82.3697 95.5757C82.5174 95.4279 82.7574 95.4279 82.9051 95.5757C82.9768 95.6473 83.0161 95.7421 83.0161 95.8434C83.0161 95.9447 82.9768 96.0395 82.9051 96.1111L78.7509 100.265C78.7032 100.313 78.6451 100.347 78.5819 100.363Z" fill="#FFC057"/>
<path d="M112.813 65.796C112.78 65.796 112.746 65.7831 112.721 65.758C112.671 65.7076 112.671 65.6251 112.721 65.5747L116.876 61.4206C116.926 61.3702 117.008 61.3702 117.059 61.4206C117.109 61.4709 117.109 61.5535 117.059 61.6038L112.905 65.758C112.879 65.7831 112.846 65.796 112.813 65.796Z" fill="#FFC057"/>
<path d="M112.911 66.0333C112.879 66.0417 112.846 66.0462 112.812 66.0462C112.711 66.0462 112.616 66.0069 112.544 65.9352C112.397 65.7875 112.397 65.5475 112.544 65.3998L116.699 61.2456C116.846 61.0978 117.086 61.0978 117.234 61.2456C117.306 61.3172 117.345 61.412 117.345 61.5133C117.345 61.6146 117.306 61.7094 117.234 61.7811L113.08 65.9352C113.032 65.983 112.974 66.0165 112.911 66.0333Z" fill="#FFC057"/>
<path d="M82.638 65.7967C82.6051 65.7967 82.5716 65.7838 82.5464 65.7586L78.3922 61.6038C78.3419 61.5535 78.3419 61.4709 78.3922 61.4206C78.4426 61.3702 78.5251 61.3702 78.5755 61.4206L82.7297 65.5754C82.78 65.6257 82.78 65.7083 82.7297 65.7586C82.7045 65.7838 82.6709 65.7967 82.638 65.7967Z" fill="#FFC057"/>
<path d="M82.7361 66.034C82.7045 66.0423 82.6716 66.0469 82.6374 66.0469C82.5361 66.0469 82.4413 66.0075 82.3697 65.9359L78.2155 61.7811C78.1438 61.7094 78.1045 61.6146 78.1045 61.5133C78.1045 61.412 78.1438 61.3172 78.2155 61.2456C78.3632 61.0978 78.6032 61.0978 78.7509 61.2456L82.9051 65.4004C83.0529 65.5482 83.0529 65.7882 82.9051 65.9359C82.8574 65.9836 82.7993 66.0172 82.7361 66.034Z" fill="#FFC057"/>
<path d="M116.967 100.127C116.934 100.127 116.901 100.114 116.876 100.089L112.721 95.9339C112.671 95.8835 112.671 95.801 112.721 95.7506C112.772 95.7003 112.854 95.7003 112.905 95.7506L117.059 99.9055C117.109 99.9558 117.109 100.038 117.059 100.089C117.034 100.114 117 100.127 116.967 100.127Z" fill="#FFC057"/>
<path d="M117.065 100.362C117.034 100.37 117.001 100.375 116.966 100.375C116.865 100.375 116.77 100.336 116.699 100.264L112.545 96.1092C112.473 96.0376 112.434 95.9427 112.434 95.8414C112.434 95.7402 112.473 95.6453 112.545 95.5737C112.692 95.426 112.932 95.426 113.08 95.5737L117.234 99.7279C117.306 99.7995 117.345 99.8943 117.345 99.9956C117.345 100.097 117.306 100.192 117.234 100.263C117.186 100.311 117.128 100.345 117.065 100.361V100.362Z" fill="#FFC057"/>
<path d="M77.9918 72.7547C77.9757 72.7547 77.9589 72.7515 77.9428 72.745L72.5157 70.5089C72.4492 70.4818 72.4182 70.4057 72.4453 70.3399C72.4724 70.2734 72.5486 70.2425 72.6144 70.2696L78.0415 72.5057C78.1079 72.5328 78.1389 72.6089 78.1118 72.6747C78.0911 72.725 78.0428 72.7547 77.9918 72.7547Z" fill="#FFC057"/>
<path d="M78.0904 72.9913C78.0588 72.9997 78.0259 73.0042 77.9917 73.0042C77.942 73.0042 77.8936 72.9945 77.8472 72.9758L72.4201 70.7403C72.2272 70.661 72.1343 70.4391 72.2143 70.2462C72.253 70.1526 72.3253 70.0797 72.4188 70.041C72.5124 70.0023 72.6149 70.0016 72.7085 70.041L78.1356 72.2765C78.3285 72.3558 78.4214 72.5778 78.3414 72.7707C78.2956 72.8816 78.202 72.9623 78.0898 72.992L78.0904 72.9913Z" fill="#FFC057"/>
<path d="M122.885 91.2489C122.869 91.2489 122.852 91.2456 122.836 91.2392L117.409 89.0031C117.343 88.976 117.312 88.8998 117.339 88.834C117.366 88.7676 117.442 88.7366 117.508 88.7637L122.935 90.9998C123.001 91.0269 123.032 91.1031 123.005 91.1689C122.985 91.2192 122.936 91.2489 122.885 91.2489Z" fill="#FFC057"/>
<path d="M122.984 91.4861C122.952 91.4945 122.919 91.499 122.885 91.499C122.835 91.499 122.787 91.4893 122.74 91.4706L117.313 89.2351C117.12 89.1551 117.028 88.9338 117.108 88.7403C117.146 88.6467 117.219 88.5738 117.312 88.5351C117.406 88.4964 117.508 88.4958 117.602 88.5351L123.029 90.7713C123.122 90.81 123.195 90.8822 123.234 90.9758C123.273 91.0693 123.273 91.1719 123.234 91.2655C123.188 91.3764 123.095 91.4571 122.982 91.4867L122.984 91.4861Z" fill="#FFC057"/>
<path d="M87.3606 106.045C87.3445 106.045 87.3277 106.042 87.3116 106.036C87.2451 106.009 87.2141 105.932 87.2412 105.867L89.4767 100.439C89.5038 100.373 89.5799 100.342 89.6458 100.369C89.7122 100.396 89.7432 100.472 89.7161 100.538L87.4806 105.965C87.4599 106.016 87.4116 106.045 87.3606 106.045Z" fill="#FFC057"/>
<path d="M87.4593 106.281C87.4277 106.289 87.3948 106.293 87.3606 106.293C87.3109 106.293 87.2625 106.284 87.2167 106.265C87.0238 106.186 86.9315 105.964 87.0109 105.771L89.2464 100.344C89.2851 100.25 89.3573 100.177 89.4509 100.139C89.5444 100.1 89.647 100.099 89.7406 100.139C89.8341 100.177 89.907 100.25 89.9457 100.343C89.9844 100.437 89.9851 100.539 89.9457 100.633L87.7102 106.06C87.6644 106.171 87.5709 106.252 87.4586 106.281L87.4593 106.281Z" fill="#FFC057"/>
<path d="M105.854 61.1508C105.838 61.1508 105.821 61.1475 105.805 61.1411C105.738 61.114 105.707 61.0379 105.734 60.9721L107.97 55.545C107.997 55.4785 108.073 55.4475 108.139 55.4746C108.205 55.5017 108.236 55.5779 108.209 55.6437L105.974 61.0708C105.953 61.1211 105.905 61.1508 105.854 61.1508Z" fill="#FFC057"/>
<path d="M105.952 61.3861C105.92 61.3944 105.888 61.399 105.853 61.399C105.804 61.399 105.755 61.3893 105.709 61.3706C105.516 61.2912 105.424 61.0693 105.503 60.8764L107.739 55.4493C107.777 55.3557 107.85 55.2828 107.943 55.2441C108.037 55.2054 108.139 55.2048 108.233 55.2441C108.326 55.2828 108.399 55.3551 108.438 55.4486C108.477 55.5422 108.477 55.6448 108.438 55.7383L106.202 61.1654C106.157 61.2764 106.063 61.357 105.951 61.3867L105.952 61.3861Z" fill="#FFC057"/>
<path d="M108.187 106.005C108.136 106.005 108.088 105.974 108.068 105.925L105.811 100.506C105.783 100.44 105.815 100.364 105.881 100.336C105.946 100.309 106.022 100.34 106.05 100.406L108.307 105.825C108.335 105.89 108.303 105.967 108.237 105.994C108.221 106.001 108.204 106.005 108.188 106.005H108.187Z" fill="#FFC057"/>
<path d="M108.285 106.241C108.253 106.249 108.22 106.254 108.187 106.254C108.034 106.254 107.897 106.162 107.838 106.021L105.581 100.602C105.542 100.509 105.542 100.406 105.581 100.313C105.62 100.219 105.692 100.146 105.786 100.107C105.879 100.069 105.982 100.068 106.075 100.107C106.169 100.146 106.242 100.218 106.28 100.312L108.537 105.731C108.617 105.924 108.526 106.145 108.333 106.226C108.318 106.233 108.302 106.238 108.286 106.242L108.285 106.241Z" fill="#FFC057"/>
<path d="M89.52 61.1824C89.469 61.1824 89.4213 61.152 89.4006 61.1024L87.1439 55.6837C87.1161 55.6179 87.1477 55.5417 87.2135 55.514C87.2793 55.4862 87.3555 55.5178 87.3832 55.5837L89.64 61.0024C89.6677 61.0682 89.6361 61.1443 89.5703 61.172C89.5542 61.1791 89.5374 61.1817 89.5206 61.1817L89.52 61.1824Z" fill="#FFC057"/>
<path d="M89.6177 61.4193C89.586 61.4277 89.5531 61.4322 89.5202 61.4322C89.3667 61.4322 89.2293 61.3406 89.1706 61.1993L86.9138 55.7806C86.8338 55.5877 86.9248 55.3658 87.1177 55.2851C87.2112 55.2464 87.3138 55.2458 87.4073 55.2851C87.5009 55.3238 87.5738 55.3961 87.6125 55.4896L89.8693 60.9084C89.9493 61.1013 89.8577 61.3232 89.6654 61.4038C89.6499 61.4103 89.6338 61.4161 89.6177 61.42V61.4193Z" fill="#FFC057"/>
<path d="M72.605 91.3466C72.554 91.3466 72.5063 91.3163 72.4857 91.2666C72.4579 91.2008 72.4895 91.1247 72.5553 91.0969L77.974 88.8402C78.0398 88.8124 78.116 88.844 78.1437 88.9098C78.1715 88.9756 78.1399 89.0518 78.074 89.0795L72.6553 91.3363C72.6392 91.3434 72.6224 91.346 72.6057 91.346L72.605 91.3466Z" fill="#FFC057"/>
<path d="M72.7017 91.5816C72.6701 91.59 72.6372 91.5945 72.6043 91.5945C72.4507 91.5945 72.3133 91.5029 72.2546 91.3616C72.1746 91.1687 72.2656 90.9468 72.4585 90.8661L77.8772 88.6094C77.9707 88.5706 78.0733 88.57 78.1669 88.6094C78.2604 88.6481 78.3333 88.7203 78.372 88.8139C78.452 89.0068 78.3611 89.2287 78.1682 89.3094L72.7495 91.5661C72.734 91.5726 72.7178 91.5784 72.7017 91.5823V91.5816Z" fill="#FFC057"/>
<path d="M117.426 72.6786C117.375 72.6786 117.328 72.6483 117.307 72.5986C117.279 72.5328 117.311 72.4567 117.377 72.429L122.795 70.1722C122.861 70.1444 122.937 70.1761 122.965 70.2419C122.993 70.3077 122.961 70.3838 122.895 70.4115L117.477 72.6683C117.46 72.6754 117.444 72.678 117.427 72.678L117.426 72.6786Z" fill="#FFC057"/>
<path d="M117.525 72.9156C117.493 72.924 117.46 72.9285 117.427 72.9285C117.273 72.9285 117.136 72.8369 117.077 72.695C117.038 72.602 117.038 72.4988 117.077 72.4053C117.116 72.3117 117.188 72.2388 117.282 72.2001L122.7 69.9433C122.794 69.9046 122.896 69.904 122.99 69.9433C123.084 69.982 123.156 70.0543 123.195 70.1479C123.234 70.2414 123.235 70.344 123.195 70.4375C123.156 70.5311 123.084 70.604 122.991 70.6427L117.572 72.8995C117.556 72.9059 117.54 72.9117 117.524 72.9156H117.525Z" fill="#FFC057"/>
<path d="M77.9918 72.7547C77.9757 72.7547 77.9589 72.7515 77.9428 72.745L72.5157 70.5089C72.4492 70.4818 72.4182 70.4057 72.4453 70.3399C72.4724 70.2734 72.5486 70.2425 72.6144 70.2696L78.0415 72.5057C78.1079 72.5328 78.1389 72.6089 78.1118 72.6747C78.0911 72.725 78.0428 72.7547 77.9918 72.7547Z" fill="#FFC057"/>
<path d="M78.0904 72.9913C78.0588 72.9997 78.0259 73.0042 77.9917 73.0042C77.942 73.0042 77.8936 72.9945 77.8472 72.9758L72.4201 70.7403C72.2272 70.661 72.1343 70.4391 72.2143 70.2462C72.253 70.1526 72.3253 70.0797 72.4188 70.041C72.5124 70.0023 72.6149 70.0016 72.7085 70.041L78.1356 72.2765C78.3285 72.3558 78.4214 72.5778 78.3414 72.7707C78.2956 72.8816 78.202 72.9623 78.0898 72.992L78.0904 72.9913Z" fill="#FFC057"/>
<path d="M122.885 91.2489C122.869 91.2489 122.852 91.2456 122.836 91.2392L117.409 89.0031C117.343 88.976 117.312 88.8998 117.339 88.834C117.366 88.7676 117.442 88.7366 117.508 88.7637L122.935 90.9998C123.001 91.0269 123.032 91.1031 123.005 91.1689C122.985 91.2192 122.936 91.2489 122.885 91.2489Z" fill="#FFC057"/>
<path d="M122.984 91.4861C122.952 91.4945 122.919 91.499 122.885 91.499C122.835 91.499 122.787 91.4893 122.74 91.4706L117.313 89.2351C117.12 89.1551 117.028 88.9338 117.108 88.7403C117.146 88.6467 117.219 88.5738 117.312 88.5351C117.406 88.4964 117.508 88.4958 117.602 88.5351L123.029 90.7713C123.122 90.81 123.195 90.8822 123.234 90.9758C123.273 91.0693 123.273 91.1719 123.234 91.2655C123.188 91.3764 123.095 91.4571 122.982 91.4867L122.984 91.4861Z" fill="#FFC057"/>
<path d="M87.3606 106.045C87.3445 106.045 87.3277 106.042 87.3116 106.036C87.2451 106.009 87.2141 105.932 87.2412 105.867L89.4767 100.439C89.5038 100.373 89.5799 100.342 89.6458 100.369C89.7122 100.396 89.7432 100.472 89.7161 100.538L87.4806 105.965C87.4599 106.016 87.4116 106.045 87.3606 106.045Z" fill="#FFC057"/>
<path d="M87.4593 106.281C87.4277 106.289 87.3948 106.293 87.3606 106.293C87.3109 106.293 87.2625 106.284 87.2167 106.265C87.0238 106.186 86.9315 105.964 87.0109 105.771L89.2464 100.344C89.2851 100.25 89.3573 100.177 89.4509 100.139C89.5444 100.1 89.647 100.099 89.7406 100.139C89.8341 100.177 89.907 100.25 89.9457 100.343C89.9844 100.437 89.9851 100.539 89.9457 100.633L87.7102 106.06C87.6644 106.171 87.5709 106.252 87.4586 106.281L87.4593 106.281Z" fill="#FFC057"/>
<path d="M105.854 61.1508C105.838 61.1508 105.821 61.1475 105.805 61.1411C105.738 61.114 105.707 61.0379 105.734 60.9721L107.97 55.545C107.997 55.4785 108.073 55.4475 108.139 55.4746C108.205 55.5017 108.236 55.5779 108.209 55.6437L105.974 61.0708C105.953 61.1211 105.905 61.1508 105.854 61.1508Z" fill="#FFC057"/>
<path d="M105.952 61.3861C105.92 61.3944 105.888 61.399 105.853 61.399C105.804 61.399 105.755 61.3893 105.709 61.3706C105.516 61.2912 105.424 61.0693 105.503 60.8764L107.739 55.4493C107.777 55.3557 107.85 55.2828 107.943 55.2441C108.037 55.2054 108.139 55.2048 108.233 55.2441C108.326 55.2828 108.399 55.3551 108.438 55.4486C108.477 55.5422 108.477 55.6448 108.438 55.7383L106.202 61.1654C106.157 61.2764 106.063 61.357 105.951 61.3867L105.952 61.3861Z" fill="#FFC057"/>
<path d="M108.187 106.005C108.136 106.005 108.088 105.974 108.068 105.925L105.811 100.506C105.783 100.44 105.815 100.364 105.881 100.336C105.946 100.309 106.022 100.34 106.05 100.406L108.307 105.825C108.335 105.89 108.303 105.967 108.237 105.994C108.221 106.001 108.204 106.005 108.188 106.005H108.187Z" fill="#FFC057"/>
<path d="M108.285 106.241C108.253 106.249 108.22 106.254 108.187 106.254C108.034 106.254 107.897 106.162 107.838 106.021L105.581 100.602C105.542 100.509 105.542 100.406 105.581 100.313C105.62 100.219 105.692 100.146 105.786 100.107C105.879 100.069 105.982 100.068 106.075 100.107C106.169 100.146 106.242 100.218 106.28 100.312L108.537 105.731C108.617 105.924 108.526 106.145 108.333 106.226C108.318 106.233 108.302 106.238 108.286 106.242L108.285 106.241Z" fill="#FFC057"/>
<path d="M89.52 61.1824C89.469 61.1824 89.4213 61.152 89.4006 61.1024L87.1439 55.6837C87.1161 55.6179 87.1477 55.5417 87.2135 55.514C87.2793 55.4862 87.3555 55.5178 87.3832 55.5837L89.64 61.0024C89.6677 61.0682 89.6361 61.1443 89.5703 61.172C89.5542 61.1791 89.5374 61.1817 89.5206 61.1817L89.52 61.1824Z" fill="#FFC057"/>
<path d="M89.6177 61.4193C89.586 61.4277 89.5531 61.4322 89.5202 61.4322C89.3667 61.4322 89.2293 61.3406 89.1706 61.1993L86.9138 55.7806C86.8338 55.5877 86.9248 55.3658 87.1177 55.2851C87.2112 55.2464 87.3138 55.2458 87.4073 55.2851C87.5009 55.3238 87.5738 55.3961 87.6125 55.4896L89.8693 60.9084C89.9493 61.1013 89.8577 61.3232 89.6654 61.4038C89.6499 61.4103 89.6338 61.4161 89.6177 61.42V61.4193Z" fill="#FFC057"/>
<path d="M72.605 91.3466C72.554 91.3466 72.5063 91.3163 72.4857 91.2666C72.4579 91.2008 72.4895 91.1247 72.5553 91.0969L77.974 88.8402C78.0398 88.8124 78.116 88.844 78.1437 88.9098C78.1715 88.9756 78.1399 89.0518 78.074 89.0795L72.6553 91.3363C72.6392 91.3434 72.6224 91.346 72.6057 91.346L72.605 91.3466Z" fill="#FFC057"/>
<path d="M72.7017 91.5816C72.6701 91.59 72.6372 91.5945 72.6043 91.5945C72.4507 91.5945 72.3133 91.5029 72.2546 91.3616C72.1746 91.1687 72.2656 90.9468 72.4585 90.8661L77.8772 88.6094C77.9707 88.5706 78.0733 88.57 78.1669 88.6094C78.2604 88.6481 78.3333 88.7203 78.372 88.8139C78.452 89.0068 78.3611 89.2287 78.1682 89.3094L72.7495 91.5661C72.734 91.5726 72.7178 91.5784 72.7017 91.5823V91.5816Z" fill="#FFC057"/>
<path d="M117.426 72.6786C117.375 72.6786 117.328 72.6483 117.307 72.5986C117.279 72.5328 117.311 72.4567 117.377 72.429L122.795 70.1722C122.861 70.1444 122.937 70.1761 122.965 70.2419C122.993 70.3077 122.961 70.3838 122.895 70.4115L117.477 72.6683C117.46 72.6754 117.444 72.678 117.427 72.678L117.426 72.6786Z" fill="#FFC057"/>
<path d="M117.525 72.9156C117.493 72.924 117.46 72.9285 117.427 72.9285C117.273 72.9285 117.136 72.8369 117.077 72.695C117.038 72.602 117.038 72.4988 117.077 72.4053C117.116 72.3117 117.188 72.2388 117.282 72.2001L122.7 69.9433C122.794 69.9046 122.896 69.904 122.99 69.9433C123.084 69.982 123.156 70.0543 123.195 70.1479C123.234 70.2414 123.235 70.344 123.195 70.4375C123.156 70.5311 123.084 70.604 122.991 70.6427L117.572 72.8995C117.556 72.9059 117.54 72.9117 117.524 72.9156H117.525Z" fill="#FFC057"/>
<path d="M94.7546 87.418C94.692 87.4348 94.6268 87.4432 94.561 87.4432C94.363 87.4432 94.1726 87.3645 94.0326 87.2245L88.4765 81.6683C88.1849 81.3767 88.1849 80.9032 88.4765 80.6115C88.7681 80.3199 89.2417 80.3193 89.5333 80.6115L94.561 85.6393L105.917 74.2832C106.209 73.9915 106.682 73.9915 106.974 74.2832C107.266 74.5748 107.266 75.0483 106.974 75.3399L95.0894 87.2245C94.9959 87.318 94.8797 87.3845 94.7546 87.418Z" fill="white"/>
<path d="M98.7823 113.587L123.69 89.0803C130.231 82.6442 139.568 78.9668 149.367 78.9668C151.669 78.9668 153.535 80.4287 153.535 82.2326V147.735C153.535 149.538 150.424 152.277 148.122 152.277H133.969L98.783 117.656C97.6062 116.498 97.6062 114.745 98.783 113.587L98.7823 113.587Z" fill="#FCB43A"/>
<path d="M96.6673 113.544L71.7596 89.0374C65.2183 82.6012 55.8815 78.9238 46.0821 78.9238C43.7808 78.9238 41.915 80.3858 41.915 82.1896V148.084C41.915 149.888 44.586 152.279 46.8873 152.279L61.4802 152.234L96.6666 117.614C97.8434 116.455 97.8434 114.702 96.6666 113.544L96.6673 113.544Z" fill="#FCB43A"/>
<path d="M153.535 134.328V148.454C153.535 150.566 151.309 152.277 148.563 152.277H46.8873C44.1415 152.277 41.915 150.565 41.915 148.454V134.328L94.6267 102.048C95.4847 101.522 96.5118 101.245 97.5492 101.217C98.7028 101.186 99.8673 101.463 100.823 102.048L153.534 134.328H153.535Z" fill="#FFC057"/>
<path d="M107.596 104.873L153.535 128.321L153.534 134.33L106.77 105.686L107.596 104.873Z" fill="#FC9C14"/>
<path d="M87.8537 104.873L41.915 128.321V134.33L88.6796 105.686L87.8537 104.873Z" fill="#FC9C14"/>
<path d="M151.601 39.2796C151.601 39.0751 151.521 38.8822 151.376 38.7377C151.078 38.439 150.591 38.439 150.292 38.7377L146.274 42.7558C146.13 42.9003 146.05 43.0932 146.05 43.2977C146.05 43.5022 146.13 43.6951 146.274 43.8396C146.419 43.9842 146.612 44.0642 146.816 44.0642C147.021 44.0642 147.213 43.9842 147.358 43.8396L151.376 39.8216C151.521 39.6771 151.601 39.4842 151.601 39.2796Z" fill="#85C74C"/>
<path d="M155.522 48.2886L148.835 47.2841C148.417 47.2208 148.026 47.5105 147.964 47.9279C147.901 48.346 148.19 48.737 148.607 48.7995L155.294 49.8041C155.332 49.8099 155.371 49.8124 155.409 49.8124C155.784 49.8124 156.11 49.5318 156.166 49.1595C156.229 48.7415 155.94 48.3505 155.522 48.2879L155.522 48.2886Z" fill="#85C74C"/>
<path d="M141.825 34.5919C141.795 34.3894 141.687 34.2113 141.522 34.0894C141.358 33.9681 141.155 33.9177 140.953 33.9481C140.751 33.9784 140.572 34.0861 140.451 34.2507C140.329 34.4152 140.279 34.6177 140.309 34.8197L141.314 41.5061C141.37 41.8784 141.695 42.159 142.071 42.159C142.109 42.159 142.148 42.1558 142.186 42.1506C142.389 42.1203 142.568 42.0126 142.689 41.8481C142.811 41.6836 142.86 41.481 142.83 41.279L141.826 34.5926L141.825 34.5919Z" fill="#85C74C"/>
<path d="M42.5972 55.7324L55.9914 61.7324L73.6836 20.373L21.9727 46.495L35.3972 52.5085" fill="#85C74C"/>
<path d="M42.5975 55.7324L73.6839 20.373L35.3975 52.5085L37.8871 64.4518L42.5975 55.7324Z" fill="#6BBA27"/>
<path d="M37.8867 64.4518L46.0158 57.264L42.597 55.7324L37.8867 64.4518Z" fill="#60AD1D"/>
<path d="M33.6231 43.3947C37.069 43.3947 39.8625 40.6013 39.8625 37.1554C39.8625 33.7095 37.069 30.916 33.6231 30.916C30.1772 30.916 27.3838 33.7095 27.3838 37.1554C27.3838 40.6013 30.1772 43.3947 33.6231 43.3947Z" fill="white"/>
<path d="M33.6228 43.7125C30.0067 43.7125 27.0654 40.7706 27.0654 37.1551C27.0654 33.5396 30.0074 30.5977 33.6228 30.5977C37.2383 30.5977 40.1803 33.5396 40.1803 37.1551C40.1803 40.7706 37.2383 43.7125 33.6228 43.7125ZM33.6228 31.2338C30.3577 31.2338 27.7016 33.8899 27.7016 37.1551C27.7016 40.4202 30.3577 43.0764 33.6228 43.0764C36.888 43.0764 39.5441 40.4202 39.5441 37.1551C39.5441 33.8899 36.888 31.2338 33.6228 31.2338Z" fill="#EE5A47"/>
<path d="M36.895 40.4266C38.7023 38.6194 38.7023 35.6892 36.895 33.882C35.0878 32.0747 32.1577 32.0747 30.3504 33.882C28.5432 35.6892 28.5432 38.6194 30.3504 40.4266C32.1577 42.2338 35.0878 42.2338 36.895 40.4266Z" fill="#EE5A47"/>
<path d="M33.4941 35.2474H33.4787L32.5916 35.7261L32.458 35.2003L33.5728 34.6035H34.1619V39.7067H33.4948V35.2474H33.4941Z" fill="white"/>
</g>
<defs>
<clipPath id="clip0_288_46471">
<rect width="200" height="181.39" fill="white"/>
</clipPath>
</defs>
</svg>
