<svg width="21" height="24" viewBox="0 0 21 24" fill="none" xmlns="http://www.w3.org/2000/svg">
<g clip-path="url(#clip0_6685_29681)">
<path d="M6.60027 18.6303C6.57026 19.027 6.31319 19.1588 5.97652 19.0009C4.54373 18.3275 3.12267 17.6333 1.70423 16.9313C1.38192 16.7721 1.38714 16.4967 1.57635 16.2175C2.25621 15.2114 2.92824 14.1988 3.62115 13.2031C3.88213 12.8286 4.2188 12.7934 4.41324 13.2514C5.1466 14.9895 5.84995 16.7394 6.56374 18.4854C6.57939 18.5246 6.58461 18.5689 6.59897 18.6316L6.60027 18.6303Z" fill="#1F7ADF"/>
<path d="M20.9883 7.6246C20.9883 6.67723 20.8148 6.57023 19.9666 7.00607C17.0135 8.52238 14.067 10.0504 11.1049 11.5511C10.6547 11.7795 10.485 12.0483 10.489 12.5559C10.5098 15.9199 10.502 19.284 10.4968 22.6481C10.4968 22.9339 10.5203 23.2079 10.6482 23.4663H11.1701C11.4324 23.1583 11.8174 23.0461 12.1579 22.8712C14.8957 21.4567 17.6334 20.0435 20.3841 18.6564C20.8356 18.4293 21.0053 18.1579 21.0014 17.6516C20.9805 14.3097 20.9909 10.9665 20.9896 7.6246H20.9883ZM15.7047 17.9243C14.5407 18.6042 13.4041 17.9739 13.3598 16.6259C13.2971 14.7246 14.1427 13.2631 15.7595 12.2988C17.0031 11.5563 18.1632 12.3106 18.1684 13.8269C18.0431 15.5924 17.2667 17.0122 15.706 17.9243H15.7047Z" fill="#1F7ADF"/>
<path d="M19.2879 4.47455C16.4758 3.10439 13.6611 1.74206 10.8503 0.370596C10.6429 0.268813 10.3897 0.22836 10.2579 0H9.73594C9.59762 0.217921 9.34969 0.270117 9.14351 0.377121C6.30271 1.83732 3.4593 3.28839 0.621109 4.74859C0.364041 4.88169 -0.0104699 4.94041 -3.05461e-05 5.33058C0.00910386 5.67638 0.344467 5.74685 0.589791 5.8669C3.51802 7.29448 6.45147 8.71031 9.37579 10.147C9.76987 10.3401 10.0922 10.3258 10.4771 10.1274C13.4093 8.60983 16.3506 7.11179 19.2866 5.6007C19.545 5.46759 19.9104 5.39582 19.8882 5.00435C19.8673 4.65985 19.5319 4.59461 19.2879 4.47586V4.47455ZM13.8725 5.64506C12.7346 6.22967 11.5928 6.80905 10.4589 7.40148C10.1653 7.55415 9.90428 7.57895 9.59893 7.42758C8.41406 6.83906 7.21876 6.27012 6.02998 5.69074C5.81859 5.58765 5.57065 5.50413 5.56804 5.20531C5.56543 4.90909 5.80945 4.81775 6.01954 4.70944C7.15743 4.12353 8.29532 3.54024 9.43581 2.95824C9.57022 2.89039 9.71376 2.8408 9.87035 2.77555C10.0282 2.83689 10.1927 2.88908 10.3466 2.96346C11.5185 3.52849 12.689 4.09743 13.8595 4.66638C14.0735 4.77077 14.3201 4.85559 14.324 5.1492C14.3279 5.44411 14.0852 5.53415 13.8725 5.64376V5.64506Z" fill="#1F7ADF"/>
</g>
<defs>
<clipPath id="clip0_6685_29681">
<rect width="21" height="23.4663" fill="white"/>
</clipPath>
</defs>
</svg>
