<svg width="16" height="16" viewBox="0 0 16 16" fill="none" xmlns="http://www.w3.org/2000/svg">
<circle cx="8" cy="8" r="8" fill="url(#paint0_linear_15704_36895)"/>
<g clip-path="url(#clip0_15704_36895)">
<path d="M7.89069 8.30776C7.89069 9.94549 7.88918 11.5832 7.89294 13.221C7.89294 13.3432 7.8501 13.4195 7.73284 13.4779C7.40287 13.6421 7.06463 13.7843 6.68881 13.8351C6.13259 13.9107 5.64778 13.7788 5.24189 13.4188C5.22235 13.4016 5.20356 13.3879 5.1765 13.3852C4.80519 13.3494 4.4677 13.2217 4.14374 13.0602C3.91975 12.9489 3.72583 12.8005 3.56798 12.6164C3.27484 12.2757 3.16585 11.8848 3.20193 11.4575C3.20569 11.4129 3.19441 11.3888 3.15382 11.3634C2.90127 11.2047 2.67503 11.0213 2.51117 10.7802C2.21953 10.3508 2.19773 9.90084 2.39316 9.43576C2.42398 9.36226 2.45404 9.28738 2.50065 9.22074C2.51718 9.1967 2.51493 9.18227 2.49388 9.16029C2.19022 8.84428 2.00832 8.47812 2.00005 8.05701C1.99103 7.60705 2.18946 7.23608 2.57731 6.95442C2.60362 6.93519 2.61565 6.92763 2.59159 6.89603C2.2992 6.50514 2.23156 6.08266 2.42247 5.64162C2.61339 5.20059 2.97418 4.93061 3.4853 4.83581C3.53566 4.82619 3.53491 4.80627 3.52814 4.76986C3.4169 4.13991 3.79648 3.49209 4.42936 3.24135C4.69169 3.13762 4.96679 3.0964 5.25091 3.15548C5.30428 3.16647 5.31405 3.14517 5.32382 3.1067C5.39523 2.83535 5.53804 2.60521 5.77255 2.42042C6.27615 2.02335 7.03832 2.05701 7.49682 2.50011C7.74938 2.74467 7.88167 3.03457 7.88392 3.36844C7.88918 4.08495 7.88768 4.80077 7.88843 5.51728C7.88843 6.44744 7.88843 7.3776 7.88843 8.30707C7.88843 8.30707 7.88918 8.30707 7.88993 8.30707L7.89069 8.30776ZM7.52313 8.15181H7.52238C7.52238 7.94641 7.52238 7.741 7.52238 7.53629C7.52238 7.33088 7.52238 7.12548 7.52388 6.92076C7.52388 6.86993 7.50434 6.83626 7.45999 6.80879C7.32094 6.72291 7.16836 6.6762 6.99999 6.67208C6.74668 6.66521 6.50916 6.72085 6.28292 6.82253C6.19723 6.861 6.1153 6.90702 6.02886 6.94481C5.91612 6.99427 5.80337 6.94068 5.77857 6.82802C5.76053 6.74558 5.79736 6.68719 5.87177 6.6446C6.06494 6.534 6.27014 6.44813 6.48887 6.38905C6.82485 6.29768 7.15708 6.29493 7.48029 6.4337C7.51862 6.45019 7.52614 6.44401 7.52614 6.40416C7.52464 5.9961 7.51261 5.58735 7.52764 5.17929C7.52915 5.13945 7.51111 5.13601 7.47728 5.14563C7.39761 5.16899 7.31793 5.19441 7.23751 5.2157C7.01577 5.27341 6.79028 5.31188 6.55952 5.27272C6.33854 5.23494 6.17168 5.13052 6.08298 4.93542C6.0672 4.90107 6.06043 4.86672 6.07246 4.82962C6.09426 4.75955 6.15364 4.70734 6.2303 4.70185C6.30171 4.69635 6.35658 4.7252 6.39116 4.78428C6.44152 4.87084 6.51443 4.92923 6.62417 4.94023C6.7294 4.95053 6.83463 4.94847 6.9391 4.93267C7.12702 4.90382 7.30365 4.84405 7.47954 4.77879C7.51111 4.76711 7.52313 4.75062 7.52313 4.72177C7.52313 4.68742 7.52539 4.65307 7.52464 4.61941C7.52238 4.22166 7.51486 3.8239 7.5299 3.42614C7.53366 3.32791 7.52313 3.22898 7.49156 3.13418C7.37882 2.79963 7.14731 2.56812 6.76322 2.5056C6.36485 2.44103 6.03939 2.56743 5.81239 2.87932C5.64252 3.1122 5.62072 3.36844 5.68912 3.63636C5.71543 3.73803 5.66281 3.81703 5.55683 3.84382C5.47039 3.8658 5.37944 3.81634 5.34787 3.7236C5.32983 3.67071 5.31856 3.61575 5.30804 3.56148C5.30127 3.52713 5.28248 3.50927 5.24565 3.50308C5.02016 3.46393 4.79617 3.46736 4.5842 3.55117C4.1693 3.71536 3.93403 4.00869 3.88217 4.41813C3.82128 4.90313 4.08586 5.31875 4.52031 5.51659C4.66989 5.5846 4.83149 5.60384 4.9946 5.61964C5.10509 5.63063 5.18477 5.70895 5.178 5.79482C5.17049 5.89031 5.0848 5.95969 4.97205 5.95763C4.79015 5.95351 4.61502 5.92191 4.4474 5.85596C4.11894 5.72681 3.8739 5.51591 3.70252 5.23082C3.68298 5.19784 3.66419 5.16693 3.61383 5.17242C3.46125 5.18891 3.31543 5.22188 3.18389 5.29745C2.69908 5.5743 2.53597 6.13555 2.80957 6.59445C2.95614 6.84039 3.17186 7.02106 3.4417 7.1509C3.56948 7.21272 3.71004 7.22028 3.84834 7.23952C3.95132 7.25326 4.01295 7.32814 4.00544 7.42019C3.99867 7.50469 3.91975 7.56858 3.82053 7.57201C3.74311 7.57407 3.66645 7.56583 3.59053 7.55071C3.33046 7.49988 3.10422 7.38859 2.90804 7.22715C2.86444 7.19143 2.83588 7.1928 2.79003 7.22646C2.433 7.48545 2.32476 7.83237 2.37888 8.22669C2.41421 8.48637 2.54424 8.71513 2.73666 8.91092C2.88323 9.0593 3.05235 9.18296 3.27634 9.2125C3.52889 9.24616 3.7837 9.25097 4.03926 9.22898C4.23093 9.2125 4.39178 9.1383 4.53835 9.02976C4.55639 9.01671 4.5594 8.99885 4.56391 8.97893C4.6075 8.78039 4.70296 8.60315 4.83826 8.44446C5.07052 8.17242 5.38771 8.01923 5.74023 7.91962C5.88981 7.87703 6.04239 7.84336 6.19949 7.83649C6.26563 7.83375 6.32952 7.83649 6.37612 7.89214C6.47384 8.01098 6.41371 8.15594 6.2521 8.1738C6.03788 8.19784 5.82817 8.237 5.62824 8.31394C5.11637 8.51179 4.86231 8.87451 4.8811 9.3808C4.88712 9.54224 4.92019 9.69887 4.95852 9.8555C4.98257 9.95442 4.9014 10.0451 4.79091 10.0472C4.69695 10.0492 4.63531 10.0046 4.60525 9.9029C4.56767 9.77512 4.53986 9.6446 4.53459 9.51201C4.53309 9.46599 4.52257 9.4495 4.4692 9.46942C4.16854 9.5814 3.85436 9.60613 3.5334 9.58483C3.28912 9.56835 3.04859 9.5443 2.83513 9.42133C2.80281 9.40279 2.79379 9.42477 2.78402 9.44332C2.60738 9.76963 2.56754 10.1056 2.72313 10.4463C2.82385 10.6682 2.99673 10.842 3.20569 10.9863C3.27484 11.0343 3.27409 11.0343 3.29889 10.9553C3.35827 10.7657 3.43795 10.5837 3.53566 10.4085C3.57249 10.3426 3.63638 10.3137 3.7153 10.3199C3.79047 10.3261 3.83481 10.3714 3.86262 10.4326C3.89044 10.493 3.86413 10.5466 3.83481 10.5974C3.67171 10.8887 3.577 11.1965 3.55671 11.5235C3.53867 11.8134 3.60406 12.0847 3.7822 12.3279C4.01972 12.6515 4.37449 12.8212 4.76084 12.9496C4.78113 12.9565 4.80669 12.975 4.82473 12.9524C4.83826 12.9345 4.81646 12.9166 4.80744 12.9002C4.73228 12.7628 4.65411 12.6261 4.61201 12.4763C4.58721 12.3897 4.64659 12.2963 4.73528 12.2729C4.82323 12.2496 4.91192 12.2922 4.95025 12.376C4.95627 12.3897 4.96153 12.4042 4.96604 12.4186C5.03519 12.6137 5.14042 12.7916 5.27196 12.9565C5.59516 13.3625 6.02435 13.5562 6.57982 13.5047C6.891 13.4758 7.17136 13.3721 7.44496 13.2423C7.5081 13.2127 7.52839 13.1763 7.52839 13.1124C7.52539 12.6144 7.52464 12.1163 7.52614 11.6176C7.52614 11.5661 7.5081 11.5633 7.46526 11.5798C7.36378 11.619 7.25931 11.6492 7.15332 11.6739C6.85417 11.7426 6.55426 11.7879 6.24609 11.7172C5.92514 11.6437 5.68837 11.474 5.53804 11.2061C5.48242 11.1072 5.51699 11.0117 5.60945 10.9691C5.70039 10.9272 5.78458 10.9553 5.84772 11.0529C5.99128 11.2734 6.2055 11.3806 6.48211 11.3971C6.80682 11.4163 7.11349 11.3503 7.40963 11.2356C7.52839 11.1896 7.52614 11.1896 7.52614 11.0701C7.52539 10.6723 7.52464 10.2746 7.52839 9.8768C7.52839 9.81978 7.51637 9.81291 7.45924 9.82459C7.19993 9.87817 6.93835 9.90565 6.67377 9.85619C6.53773 9.83077 6.40619 9.79299 6.28968 9.72291C6.19648 9.66727 6.17243 9.56903 6.22579 9.48728C6.27766 9.4076 6.37387 9.38836 6.47534 9.43645C6.56253 9.47835 6.65348 9.51201 6.75195 9.52438C6.98721 9.55392 7.21721 9.53606 7.44571 9.47561C7.5081 9.45912 7.52614 9.43782 7.52614 9.3808C7.52388 8.97206 7.52464 8.564 7.52464 8.15525L7.52313 8.15181Z" fill="white"/>
<path d="M8.22666 2.0007C8.32062 2.0007 8.39503 1.99864 8.4702 2.0007C8.59121 2.00414 8.66487 2.05978 8.6769 2.1697C8.69795 2.35449 8.71223 2.53997 8.72801 2.72546C8.74831 2.95353 8.7686 3.1816 8.78664 3.40899C8.78965 3.44884 8.80769 3.47151 8.85053 3.48112C9.34586 3.59585 9.79159 3.80812 10.2155 4.06436C10.2463 4.08291 10.2689 4.08085 10.2959 4.05886C10.6259 3.79301 10.9566 3.52784 11.2866 3.26267C11.3039 3.24824 11.3212 3.23381 11.34 3.22076C11.4309 3.15756 11.5091 3.15825 11.5895 3.23175C11.7714 3.398 11.9503 3.56699 12.1292 3.73668C12.3111 3.90911 12.49 4.0836 12.6711 4.2574C12.7974 4.37831 12.8019 4.44219 12.6869 4.57341C12.3945 4.90727 12.1014 5.24045 11.806 5.57157C11.7797 5.60111 11.7895 5.61829 11.8037 5.64302C12.0225 6.01948 12.2044 6.40968 12.3134 6.82529C12.3442 6.94208 12.3457 6.94414 12.481 6.95582C12.8793 6.99017 13.277 7.02177 13.6753 7.05543C13.7355 7.06024 13.7963 7.0678 13.8557 7.08016C13.9444 7.09871 13.991 7.14954 13.9985 7.23336C14.0031 7.28213 14 7.33159 14 7.38105C14 7.8214 14 8.26175 13.9985 8.70279C13.9985 8.86491 13.9557 8.91437 13.7783 8.93155C13.4949 8.95971 13.2101 8.98101 12.9259 9.00437C12.7561 9.0181 12.5862 9.03184 12.4156 9.04421C12.3645 9.04764 12.3389 9.06619 12.3269 9.11565C12.2201 9.54982 12.0398 9.95857 11.8037 10.3467C11.7812 10.3845 11.791 10.4078 11.8173 10.4374C12.1014 10.7582 12.384 11.0797 12.6674 11.4005C12.8072 11.5592 12.8049 11.6155 12.6508 11.7626C12.3096 12.0882 11.9676 12.4138 11.6264 12.7394C11.5136 12.8473 11.4384 12.8528 11.3129 12.7538C10.9822 12.4921 10.6522 12.2297 10.3245 11.9645C10.2756 11.9254 10.2478 11.9144 10.1847 11.9522C9.78257 12.1933 9.35263 12.3849 8.88811 12.5052C8.81295 12.5244 8.78889 12.556 8.78288 12.6274C8.75131 13.0321 8.71223 13.4367 8.67389 13.8413C8.66638 13.9244 8.61977 13.9725 8.53033 13.9835C8.35369 14.0048 8.17555 14.0007 7.99816 13.9876C7.89143 13.9794 7.82754 13.8949 7.83806 13.8022C7.84784 13.7149 7.92751 13.651 8.03199 13.6497C8.11166 13.6483 8.19134 13.6455 8.27026 13.651C8.32814 13.6552 8.34392 13.6304 8.34693 13.5865C8.36121 13.4072 8.37624 13.2285 8.39203 13.0492C8.41007 12.8342 8.4266 12.6185 8.4469 12.4035C8.45667 12.297 8.50252 12.251 8.61451 12.2249C9.16021 12.0992 9.6608 11.8848 10.1201 11.5887C10.2493 11.5056 10.2989 11.5063 10.4177 11.5997C10.7432 11.8567 11.0686 12.115 11.3911 12.3746C11.4422 12.4159 11.4655 12.4117 11.5121 12.3664C11.7699 12.1129 12.0322 11.8628 12.2961 11.6142C12.3374 11.5757 12.3367 11.5523 12.3021 11.5132C12.0255 11.2006 11.7504 10.8874 11.4745 10.5741C11.361 10.4456 11.3528 10.3996 11.4445 10.2581C11.7211 9.82942 11.9127 9.37121 12.0165 8.88208C12.039 8.77698 12.0909 8.73026 12.2096 8.71996C12.5606 8.68836 12.9124 8.66088 13.2642 8.63134C13.3664 8.6231 13.4686 8.61211 13.5716 8.60455C13.6144 8.60111 13.6332 8.586 13.6325 8.54478C13.6302 8.17931 13.6295 7.81316 13.631 7.44769C13.631 7.40372 13.6167 7.39067 13.5678 7.38724C13.165 7.35632 12.7621 7.32266 12.3592 7.28969C12.3058 7.28557 12.2517 7.28144 12.1991 7.2732C12.0826 7.25465 12.0383 7.21618 12.0157 7.10901C11.9751 6.91804 11.9202 6.73118 11.8511 6.54707C11.7466 6.26747 11.6143 5.99956 11.4497 5.74469C11.3497 5.59012 11.355 5.5544 11.4805 5.41288C11.7526 5.10512 12.0232 4.79667 12.2976 4.49097C12.3389 4.44494 12.3382 4.41609 12.2931 4.37281C12.0232 4.11794 11.7549 3.86102 11.4873 3.6034C11.4557 3.57318 11.4362 3.58005 11.4069 3.6034C11.0882 3.86102 10.7672 4.11726 10.4485 4.37487C10.2997 4.49509 10.2651 4.4999 10.102 4.39479C9.66005 4.1097 9.17825 3.90292 8.65435 3.78202C8.52281 3.75179 8.45141 3.68996 8.44239 3.56425C8.42359 3.30663 8.40105 3.04833 8.37925 2.79072C8.36948 2.66912 8.35595 2.54822 8.34993 2.42662C8.34693 2.36205 8.31536 2.3435 8.24846 2.34625C8.15751 2.35037 8.06581 2.34968 7.97486 2.34625C7.87189 2.34144 7.80574 2.27824 7.79898 2.18756C7.79221 2.09894 7.85235 2.02887 7.95081 2.00757C8.04777 1.98696 8.14699 2.00345 8.22591 1.99795L8.22666 2.0007Z" fill="white"/>
<path d="M10.7823 8.06525C10.765 8.63544 10.5906 9.15547 10.2539 9.6288C9.80213 10.2642 9.17601 10.6785 8.36874 10.8605C8.24322 10.8887 8.14099 10.8406 8.11544 10.741C8.09063 10.6469 8.15603 10.5596 8.28005 10.5329C8.713 10.438 9.10084 10.2629 9.43608 9.99495C9.91187 9.61437 10.2298 9.14174 10.3523 8.57498C10.562 7.60773 10.296 6.76207 9.51425 6.0696C9.16097 5.75634 8.7363 5.55644 8.25224 5.46369C8.17407 5.44858 8.10491 5.42385 8.07485 5.34622C8.0275 5.22119 8.13273 5.0996 8.27554 5.12296C8.48299 5.15731 8.68443 5.21158 8.87761 5.2892C9.59843 5.57842 10.1163 6.06067 10.4598 6.69956C10.6522 7.05747 10.7492 7.44217 10.7778 7.84061C10.783 7.91687 10.7981 7.99381 10.7815 8.06525H10.7823Z" fill="white"/>
</g>
<defs>
<linearGradient id="paint0_linear_15704_36895" x1="3" y1="2" x2="13.5" y2="14" gradientUnits="userSpaceOnUse">
<stop stop-color="#FC6681"/>
<stop offset="1" stop-color="#FF9980"/>
</linearGradient>
<clipPath id="clip0_15704_36895">
<rect width="12" height="12" fill="white" transform="translate(2 2)"/>
</clipPath>
</defs>
</svg>
