<svg width="21" height="19" viewBox="0 0 21 19" fill="none" xmlns="http://www.w3.org/2000/svg">
<g clip-path="url(#clip0_13940_36482)">
<path d="M5.72969 8.60999C8.09969 8.60999 10.0297 6.68999 10.0297 4.30999C10.0297 1.92999 8.09969 0.019989 5.72969 0.019989C3.35969 0.019989 1.42969 1.93999 1.42969 4.30999C1.42969 6.67999 3.34969 8.60999 5.72969 8.60999ZM4.77969 4.78999C4.51969 4.78999 4.29969 4.57999 4.29969 4.30999V2.87999C4.29969 2.61999 4.50969 2.39999 4.77969 2.39999H5.25969C5.25969 2.13999 5.46969 1.91999 5.73969 1.91999C6.00969 1.91999 6.21969 2.12999 6.21969 2.39999H6.69969C6.95969 2.39999 7.17969 2.60999 7.17969 2.87999C7.17969 3.14999 6.96969 3.35999 6.69969 3.35999H5.26969V3.83999H6.69969C6.95969 3.83999 7.17969 4.04999 7.17969 4.31999V5.74999C7.17969 6.00999 6.96969 6.22999 6.69969 6.22999H6.21969C6.21969 6.48999 6.00969 6.70999 5.73969 6.70999C5.46969 6.70999 5.25969 6.49999 5.25969 6.22999H4.77969C4.51969 6.22999 4.29969 6.01999 4.29969 5.74999C4.29969 5.47999 4.50969 5.26999 4.77969 5.26999H6.20969V4.78999H4.77969Z" fill="#FECD1A"/>
<path d="M1.42923 13.38H1.52923C10.9792 11.47 16.9592 4.79 19.0892 1.99V2.89C19.0892 3.15 19.2992 3.37 19.5692 3.37C19.8392 3.37 20.0492 3.16 20.0492 2.89V0.5C20.0592 0.24 19.8592 0.01 19.5892 0C19.5392 0 19.4892 0 19.4392 0.02L17.1492 0.69C16.8992 0.76 16.7492 1.03 16.8292 1.28C16.8992 1.53 17.1692 1.68 17.4192 1.61L18.3692 1.32C16.3892 3.97 10.5892 10.58 1.33923 12.43C1.07923 12.46 0.879234 12.69 0.909234 12.95C0.939234 13.21 1.16923 13.41 1.42923 13.38Z" fill="#FECD1A"/>
<path d="M20.52 17.2H20.04V10.04C20.04 9.78 19.83 9.56 19.56 9.56H14.79C14.53 9.56 14.31 9.77 14.31 10.04V17.2H13.36V12.9C13.36 12.64 13.15 12.42 12.88 12.42H8.11C7.85 12.42 7.63 12.63 7.63 12.9V17.2H6.68V14.81C6.68 14.55 6.47 14.33 6.2 14.33H1.43C1.17 14.33 0.95 14.54 0.95 14.81V17.2H0.48C0.22 17.2 0 17.41 0 17.68C0 17.95 0.21 18.16 0.48 18.16H20.52C20.78 18.16 21 17.95 21 17.68C21 17.42 20.79 17.2 20.52 17.2Z" fill="#FC852D"/>
</g>
<defs>
<clipPath id="clip0_13940_36482">
<rect width="21" height="18.16" fill="white"/>
</clipPath>
</defs>
</svg>
